<?xml version="1.0" encoding="utf-8" standalone="no"?>
<!DOCTYPE svg PUBLIC "-//W3C//DTD SVG 1.1//EN"
  "http://www.w3.org/Graphics/SVG/1.1/DTD/svg11.dtd">
<svg xmlns:xlink="http://www.w3.org/1999/xlink" width="518.4pt" height="374.4pt" viewBox="0 0 518.4 374.4" xmlns="http://www.w3.org/2000/svg" version="1.1">
 <metadata>
  <rdf:RDF xmlns:dc="http://purl.org/dc/elements/1.1/" xmlns:cc="http://creativecommons.org/ns#" xmlns:rdf="http://www.w3.org/1999/02/22-rdf-syntax-ns#">
   <cc:Work>
    <dc:type rdf:resource="http://purl.org/dc/dcmitype/StillImage"/>
    <dc:date>2026-05-17T09:36:36.810477</dc:date>
    <dc:format>image/svg+xml</dc:format>
    <dc:creator>
     <cc:Agent>
      <dc:title>Matplotlib v3.10.9, https://matplotlib.org/</dc:title>
     </cc:Agent>
    </dc:creator>
   </cc:Work>
  </rdf:RDF>
 </metadata>
 <defs>
  <style type="text/css">*{stroke-linejoin: round; stroke-linecap: butt}</style>
 </defs>
 <g id="figure_1">
  <g id="patch_1">
   <path d="M 0 374.4
L 518.4 374.4
L 518.4 0
L 0 0
z
" style="fill: #ffffff"/>
  </g>
  <g id="patch_2">
   <path d="M 0 374.4
L 518.4 374.4
L 518.4 0
L 0 0
L 0 374.4
z
" style="fill: none; stroke: #ffffff; stroke-linejoin: miter"/>
  </g>
  <g id="axes_1">
   <g id="patch_3">
    <path d="M 79.689 171.055687
L 241.154 171.055687
L 241.154 20.669
L 79.689 20.669
z
" style="fill: #ffffff"/>
   </g>
   <g id="matplotlib.axis_1">
    <g id="xtick_1">
     <g id="line2d_1">
      <path d="M 87.028318 171.055687
L 87.028318 20.669
" clip-path="url(#p84c5a3024d)" style="fill: none; stroke: #e6e6e6; stroke-width: 0.35; stroke-linecap: square"/>
     </g>
    </g>
    <g id="xtick_2">
     <g id="line2d_2">
      <path d="M 141.007164 171.055687
L 141.007164 20.669
" clip-path="url(#p84c5a3024d)" style="fill: none; stroke: #e6e6e6; stroke-width: 0.35; stroke-linecap: square"/>
     </g>
    </g>
    <g id="xtick_3">
     <g id="line2d_3">
      <path d="M 194.986009 171.055687
L 194.986009 20.669
" clip-path="url(#p84c5a3024d)" style="fill: none; stroke: #e6e6e6; stroke-width: 0.35; stroke-linecap: square"/>
     </g>
    </g>
    <g id="xtick_4"/>
    <g id="xtick_5"/>
    <g id="xtick_6"/>
   </g>
   <g id="matplotlib.axis_2">
    <g id="ytick_1">
     <g id="line2d_4">
      <path d="M 79.689 149.571875
L 241.154 149.571875
" clip-path="url(#p84c5a3024d)" style="fill: none; stroke: #e6e6e6; stroke-width: 0.35; stroke-linecap: square"/>
     </g>
     <g id="line2d_5">
      <path d="M 79.689 149.571875
" style="fill: none; stroke: #333333; stroke-width: 1.5; stroke-linecap: square"/>
      <defs>
       <path id="m4305a2b4d3" d="M 0 0
L -2.5 0
" style="stroke: #333333"/>
      </defs>
      <g>
       <use xlink:href="#m4305a2b4d3" x="79.689" y="149.571875" style="fill: #333333; stroke: #333333"/>
      </g>
     </g>
     <g id="text_1">
      <!-- Strict + posterior -->
      <g style="fill: #4d4d4d" transform="translate(6.244 152.61125) scale(0.08 -0.08)">
       <defs>
        <path id="DejaVuSans-53" d="M 3425 4513
L 3425 3897
Q 3066 4069 2747 4153
Q 2428 4238 2131 4238
Q 1616 4238 1336 4038
Q 1056 3838 1056 3469
Q 1056 3159 1242 3001
Q 1428 2844 1947 2747
L 2328 2669
Q 3034 2534 3370 2195
Q 3706 1856 3706 1288
Q 3706 609 3251 259
Q 2797 -91 1919 -91
Q 1588 -91 1214 -16
Q 841 59 441 206
L 441 856
Q 825 641 1194 531
Q 1563 422 1919 422
Q 2459 422 2753 634
Q 3047 847 3047 1241
Q 3047 1584 2836 1778
Q 2625 1972 2144 2069
L 1759 2144
Q 1053 2284 737 2584
Q 422 2884 422 3419
Q 422 4038 858 4394
Q 1294 4750 2059 4750
Q 2388 4750 2728 4690
Q 3069 4631 3425 4513
z
" transform="scale(0.015625)"/>
        <path id="DejaVuSans-74" d="M 1172 4494
L 1172 3500
L 2356 3500
L 2356 3053
L 1172 3053
L 1172 1153
Q 1172 725 1289 603
Q 1406 481 1766 481
L 2356 481
L 2356 0
L 1766 0
Q 1100 0 847 248
Q 594 497 594 1153
L 594 3053
L 172 3053
L 172 3500
L 594 3500
L 594 4494
L 1172 4494
z
" transform="scale(0.015625)"/>
        <path id="DejaVuSans-72" d="M 2631 2963
Q 2534 3019 2420 3045
Q 2306 3072 2169 3072
Q 1681 3072 1420 2755
Q 1159 2438 1159 1844
L 1159 0
L 581 0
L 581 3500
L 1159 3500
L 1159 2956
Q 1341 3275 1631 3429
Q 1922 3584 2338 3584
Q 2397 3584 2469 3576
Q 2541 3569 2628 3553
L 2631 2963
z
" transform="scale(0.015625)"/>
        <path id="DejaVuSans-69" d="M 603 3500
L 1178 3500
L 1178 0
L 603 0
L 603 3500
z
M 603 4863
L 1178 4863
L 1178 4134
L 603 4134
L 603 4863
z
" transform="scale(0.015625)"/>
        <path id="DejaVuSans-63" d="M 3122 3366
L 3122 2828
Q 2878 2963 2633 3030
Q 2388 3097 2138 3097
Q 1578 3097 1268 2742
Q 959 2388 959 1747
Q 959 1106 1268 751
Q 1578 397 2138 397
Q 2388 397 2633 464
Q 2878 531 3122 666
L 3122 134
Q 2881 22 2623 -34
Q 2366 -91 2075 -91
Q 1284 -91 818 406
Q 353 903 353 1747
Q 353 2603 823 3093
Q 1294 3584 2113 3584
Q 2378 3584 2631 3529
Q 2884 3475 3122 3366
z
" transform="scale(0.015625)"/>
        <path id="DejaVuSans-20" transform="scale(0.015625)"/>
        <path id="DejaVuSans-2b" d="M 2944 4013
L 2944 2272
L 4684 2272
L 4684 1741
L 2944 1741
L 2944 0
L 2419 0
L 2419 1741
L 678 1741
L 678 2272
L 2419 2272
L 2419 4013
L 2944 4013
z
" transform="scale(0.015625)"/>
        <path id="DejaVuSans-70" d="M 1159 525
L 1159 -1331
L 581 -1331
L 581 3500
L 1159 3500
L 1159 2969
Q 1341 3281 1617 3432
Q 1894 3584 2278 3584
Q 2916 3584 3314 3078
Q 3713 2572 3713 1747
Q 3713 922 3314 415
Q 2916 -91 2278 -91
Q 1894 -91 1617 61
Q 1341 213 1159 525
z
M 3116 1747
Q 3116 2381 2855 2742
Q 2594 3103 2138 3103
Q 1681 3103 1420 2742
Q 1159 2381 1159 1747
Q 1159 1113 1420 752
Q 1681 391 2138 391
Q 2594 391 2855 752
Q 3116 1113 3116 1747
z
" transform="scale(0.015625)"/>
        <path id="DejaVuSans-6f" d="M 1959 3097
Q 1497 3097 1228 2736
Q 959 2375 959 1747
Q 959 1119 1226 758
Q 1494 397 1959 397
Q 2419 397 2687 759
Q 2956 1122 2956 1747
Q 2956 2369 2687 2733
Q 2419 3097 1959 3097
z
M 1959 3584
Q 2709 3584 3137 3096
Q 3566 2609 3566 1747
Q 3566 888 3137 398
Q 2709 -91 1959 -91
Q 1206 -91 779 398
Q 353 888 353 1747
Q 353 2609 779 3096
Q 1206 3584 1959 3584
z
" transform="scale(0.015625)"/>
        <path id="DejaVuSans-73" d="M 2834 3397
L 2834 2853
Q 2591 2978 2328 3040
Q 2066 3103 1784 3103
Q 1356 3103 1142 2972
Q 928 2841 928 2578
Q 928 2378 1081 2264
Q 1234 2150 1697 2047
L 1894 2003
Q 2506 1872 2764 1633
Q 3022 1394 3022 966
Q 3022 478 2636 193
Q 2250 -91 1575 -91
Q 1294 -91 989 -36
Q 684 19 347 128
L 347 722
Q 666 556 975 473
Q 1284 391 1588 391
Q 1994 391 2212 530
Q 2431 669 2431 922
Q 2431 1156 2273 1281
Q 2116 1406 1581 1522
L 1381 1569
Q 847 1681 609 1914
Q 372 2147 372 2553
Q 372 3047 722 3315
Q 1072 3584 1716 3584
Q 2034 3584 2315 3537
Q 2597 3491 2834 3397
z
" transform="scale(0.015625)"/>
        <path id="DejaVuSans-65" d="M 3597 1894
L 3597 1613
L 953 1613
Q 991 1019 1311 708
Q 1631 397 2203 397
Q 2534 397 2845 478
Q 3156 559 3463 722
L 3463 178
Q 3153 47 2828 -22
Q 2503 -91 2169 -91
Q 1331 -91 842 396
Q 353 884 353 1716
Q 353 2575 817 3079
Q 1281 3584 2069 3584
Q 2775 3584 3186 3129
Q 3597 2675 3597 1894
z
M 3022 2063
Q 3016 2534 2758 2815
Q 2500 3097 2075 3097
Q 1594 3097 1305 2825
Q 1016 2553 972 2059
L 3022 2063
z
" transform="scale(0.015625)"/>
       </defs>
       <use xlink:href="#DejaVuSans-53"/>
       <use xlink:href="#DejaVuSans-74" transform="translate(63.476562 0)"/>
       <use xlink:href="#DejaVuSans-72" transform="translate(102.685547 0)"/>
       <use xlink:href="#DejaVuSans-69" transform="translate(143.798828 0)"/>
       <use xlink:href="#DejaVuSans-63" transform="translate(171.582031 0)"/>
       <use xlink:href="#DejaVuSans-74" transform="translate(226.5625 0)"/>
       <use xlink:href="#DejaVuSans-20" transform="translate(265.771484 0)"/>
       <use xlink:href="#DejaVuSans-2b" transform="translate(297.558594 0)"/>
       <use xlink:href="#DejaVuSans-20" transform="translate(381.347656 0)"/>
       <use xlink:href="#DejaVuSans-70" transform="translate(413.134766 0)"/>
       <use xlink:href="#DejaVuSans-6f" transform="translate(476.611328 0)"/>
       <use xlink:href="#DejaVuSans-73" transform="translate(537.792969 0)"/>
       <use xlink:href="#DejaVuSans-74" transform="translate(589.892578 0)"/>
       <use xlink:href="#DejaVuSans-65" transform="translate(629.101562 0)"/>
       <use xlink:href="#DejaVuSans-72" transform="translate(690.625 0)"/>
       <use xlink:href="#DejaVuSans-69" transform="translate(731.738281 0)"/>
       <use xlink:href="#DejaVuSans-6f" transform="translate(759.521484 0)"/>
       <use xlink:href="#DejaVuSans-72" transform="translate(820.703125 0)"/>
      </g>
     </g>
    </g>
    <g id="ytick_2">
     <g id="line2d_6">
      <path d="M 79.689 113.765521
L 241.154 113.765521
" clip-path="url(#p84c5a3024d)" style="fill: none; stroke: #e6e6e6; stroke-width: 0.35; stroke-linecap: square"/>
     </g>
     <g id="line2d_7">
      <path d="M 79.689 113.765521
" style="fill: none; stroke: #333333; stroke-width: 1.5; stroke-linecap: square"/>
      <g>
       <use xlink:href="#m4305a2b4d3" x="79.689" y="113.765521" style="fill: #333333; stroke: #333333"/>
      </g>
     </g>
     <g id="text_2">
      <!-- Strict only -->
      <g style="fill: #4d4d4d" transform="translate(34.46275 116.804896) scale(0.08 -0.08)">
       <defs>
        <path id="DejaVuSans-6e" d="M 3513 2113
L 3513 0
L 2938 0
L 2938 2094
Q 2938 2591 2744 2837
Q 2550 3084 2163 3084
Q 1697 3084 1428 2787
Q 1159 2491 1159 1978
L 1159 0
L 581 0
L 581 3500
L 1159 3500
L 1159 2956
Q 1366 3272 1645 3428
Q 1925 3584 2291 3584
Q 2894 3584 3203 3211
Q 3513 2838 3513 2113
z
" transform="scale(0.015625)"/>
        <path id="DejaVuSans-6c" d="M 603 4863
L 1178 4863
L 1178 0
L 603 0
L 603 4863
z
" transform="scale(0.015625)"/>
        <path id="DejaVuSans-79" d="M 2059 -325
Q 1816 -950 1584 -1140
Q 1353 -1331 966 -1331
L 506 -1331
L 506 -850
L 844 -850
Q 1081 -850 1212 -737
Q 1344 -625 1503 -206
L 1606 56
L 191 3500
L 800 3500
L 1894 763
L 2988 3500
L 3597 3500
L 2059 -325
z
" transform="scale(0.015625)"/>
       </defs>
       <use xlink:href="#DejaVuSans-53"/>
       <use xlink:href="#DejaVuSans-74" transform="translate(63.476562 0)"/>
       <use xlink:href="#DejaVuSans-72" transform="translate(102.685547 0)"/>
       <use xlink:href="#DejaVuSans-69" transform="translate(143.798828 0)"/>
       <use xlink:href="#DejaVuSans-63" transform="translate(171.582031 0)"/>
       <use xlink:href="#DejaVuSans-74" transform="translate(226.5625 0)"/>
       <use xlink:href="#DejaVuSans-20" transform="translate(265.771484 0)"/>
       <use xlink:href="#DejaVuSans-6f" transform="translate(297.558594 0)"/>
       <use xlink:href="#DejaVuSans-6e" transform="translate(358.740234 0)"/>
       <use xlink:href="#DejaVuSans-6c" transform="translate(422.119141 0)"/>
       <use xlink:href="#DejaVuSans-79" transform="translate(449.902344 0)"/>
      </g>
     </g>
    </g>
    <g id="ytick_3">
     <g id="line2d_8">
      <path d="M 79.689 77.959167
L 241.154 77.959167
" clip-path="url(#p84c5a3024d)" style="fill: none; stroke: #e6e6e6; stroke-width: 0.35; stroke-linecap: square"/>
     </g>
     <g id="line2d_9">
      <path d="M 79.689 77.959167
" style="fill: none; stroke: #333333; stroke-width: 1.5; stroke-linecap: square"/>
      <g>
       <use xlink:href="#m4305a2b4d3" x="79.689" y="77.959167" style="fill: #333333; stroke: #333333"/>
      </g>
     </g>
     <g id="text_3">
      <!-- Posterior only -->
      <g style="fill: #4d4d4d" transform="translate(20.374 80.998542) scale(0.08 -0.08)">
       <defs>
        <path id="DejaVuSans-50" d="M 1259 4147
L 1259 2394
L 2053 2394
Q 2494 2394 2734 2622
Q 2975 2850 2975 3272
Q 2975 3691 2734 3919
Q 2494 4147 2053 4147
L 1259 4147
z
M 628 4666
L 2053 4666
Q 2838 4666 3239 4311
Q 3641 3956 3641 3272
Q 3641 2581 3239 2228
Q 2838 1875 2053 1875
L 1259 1875
L 1259 0
L 628 0
L 628 4666
z
" transform="scale(0.015625)"/>
       </defs>
       <use xlink:href="#DejaVuSans-50"/>
       <use xlink:href="#DejaVuSans-6f" transform="translate(56.677734 0)"/>
       <use xlink:href="#DejaVuSans-73" transform="translate(117.859375 0)"/>
       <use xlink:href="#DejaVuSans-74" transform="translate(169.958984 0)"/>
       <use xlink:href="#DejaVuSans-65" transform="translate(209.167969 0)"/>
       <use xlink:href="#DejaVuSans-72" transform="translate(270.691406 0)"/>
       <use xlink:href="#DejaVuSans-69" transform="translate(311.804688 0)"/>
       <use xlink:href="#DejaVuSans-6f" transform="translate(339.587891 0)"/>
       <use xlink:href="#DejaVuSans-72" transform="translate(400.769531 0)"/>
       <use xlink:href="#DejaVuSans-20" transform="translate(441.882812 0)"/>
       <use xlink:href="#DejaVuSans-6f" transform="translate(473.669922 0)"/>
       <use xlink:href="#DejaVuSans-6e" transform="translate(534.851562 0)"/>
       <use xlink:href="#DejaVuSans-6c" transform="translate(598.230469 0)"/>
       <use xlink:href="#DejaVuSans-79" transform="translate(626.013672 0)"/>
      </g>
     </g>
    </g>
    <g id="ytick_4">
     <g id="line2d_10">
      <path d="M 79.689 42.152812
L 241.154 42.152812
" clip-path="url(#p84c5a3024d)" style="fill: none; stroke: #e6e6e6; stroke-width: 0.35; stroke-linecap: square"/>
     </g>
     <g id="line2d_11">
      <path d="M 79.689 42.152812
" style="fill: none; stroke: #333333; stroke-width: 1.5; stroke-linecap: square"/>
      <g>
       <use xlink:href="#m4305a2b4d3" x="79.689" y="42.152812" style="fill: #333333; stroke: #333333"/>
      </g>
     </g>
     <g id="text_4">
      <!-- Bayes-factor only -->
      <g style="fill: #4d4d4d" transform="translate(5.184 45.192187) scale(0.08 -0.08)">
       <defs>
        <path id="DejaVuSans-42" d="M 1259 2228
L 1259 519
L 2272 519
Q 2781 519 3026 730
Q 3272 941 3272 1375
Q 3272 1813 3026 2020
Q 2781 2228 2272 2228
L 1259 2228
z
M 1259 4147
L 1259 2741
L 2194 2741
Q 2656 2741 2882 2914
Q 3109 3088 3109 3444
Q 3109 3797 2882 3972
Q 2656 4147 2194 4147
L 1259 4147
z
M 628 4666
L 2241 4666
Q 2963 4666 3353 4366
Q 3744 4066 3744 3513
Q 3744 3084 3544 2831
Q 3344 2578 2956 2516
Q 3422 2416 3680 2098
Q 3938 1781 3938 1306
Q 3938 681 3513 340
Q 3088 0 2303 0
L 628 0
L 628 4666
z
" transform="scale(0.015625)"/>
        <path id="DejaVuSans-61" d="M 2194 1759
Q 1497 1759 1228 1600
Q 959 1441 959 1056
Q 959 750 1161 570
Q 1363 391 1709 391
Q 2188 391 2477 730
Q 2766 1069 2766 1631
L 2766 1759
L 2194 1759
z
M 3341 1997
L 3341 0
L 2766 0
L 2766 531
Q 2569 213 2275 61
Q 1981 -91 1556 -91
Q 1019 -91 701 211
Q 384 513 384 1019
Q 384 1609 779 1909
Q 1175 2209 1959 2209
L 2766 2209
L 2766 2266
Q 2766 2663 2505 2880
Q 2244 3097 1772 3097
Q 1472 3097 1187 3025
Q 903 2953 641 2809
L 641 3341
Q 956 3463 1253 3523
Q 1550 3584 1831 3584
Q 2591 3584 2966 3190
Q 3341 2797 3341 1997
z
" transform="scale(0.015625)"/>
        <path id="DejaVuSans-2d" d="M 313 2009
L 1997 2009
L 1997 1497
L 313 1497
L 313 2009
z
" transform="scale(0.015625)"/>
        <path id="DejaVuSans-66" d="M 2375 4863
L 2375 4384
L 1825 4384
Q 1516 4384 1395 4259
Q 1275 4134 1275 3809
L 1275 3500
L 2222 3500
L 2222 3053
L 1275 3053
L 1275 0
L 697 0
L 697 3053
L 147 3053
L 147 3500
L 697 3500
L 697 3744
Q 697 4328 969 4595
Q 1241 4863 1831 4863
L 2375 4863
z
" transform="scale(0.015625)"/>
       </defs>
       <use xlink:href="#DejaVuSans-42"/>
       <use xlink:href="#DejaVuSans-61" transform="translate(68.603516 0)"/>
       <use xlink:href="#DejaVuSans-79" transform="translate(129.882812 0)"/>
       <use xlink:href="#DejaVuSans-65" transform="translate(189.0625 0)"/>
       <use xlink:href="#DejaVuSans-73" transform="translate(250.585938 0)"/>
       <use xlink:href="#DejaVuSans-2d" transform="translate(302.685547 0)"/>
       <use xlink:href="#DejaVuSans-66" transform="translate(338.769531 0)"/>
       <use xlink:href="#DejaVuSans-61" transform="translate(373.974609 0)"/>
       <use xlink:href="#DejaVuSans-63" transform="translate(435.253906 0)"/>
       <use xlink:href="#DejaVuSans-74" transform="translate(490.234375 0)"/>
       <use xlink:href="#DejaVuSans-6f" transform="translate(529.443359 0)"/>
       <use xlink:href="#DejaVuSans-72" transform="translate(590.625 0)"/>
       <use xlink:href="#DejaVuSans-20" transform="translate(631.738281 0)"/>
       <use xlink:href="#DejaVuSans-6f" transform="translate(663.525391 0)"/>
       <use xlink:href="#DejaVuSans-6e" transform="translate(724.707031 0)"/>
       <use xlink:href="#DejaVuSans-6c" transform="translate(788.085938 0)"/>
       <use xlink:href="#DejaVuSans-79" transform="translate(815.869141 0)"/>
      </g>
     </g>
    </g>
   </g>
   <g id="PolyCollection_1">
    <path d="M 87.028318 162.104099
L 87.028318 137.039651
L 87.028318 137.039651
L 87.028318 162.104099
z
" clip-path="url(#p84c5a3024d)" style="fill: #004d40"/>
    <path d="M 87.028318 126.297745
L 87.028318 101.233297
L 87.028318 101.233297
L 87.028318 126.297745
z
" clip-path="url(#p84c5a3024d)" style="fill: #1e88e5"/>
    <path d="M 87.028318 90.491391
L 87.028318 65.426943
L 167.530301 65.426943
L 167.530301 90.491391
z
" clip-path="url(#p84c5a3024d)" style="fill: #d81b60"/>
    <path d="M 87.028318 54.685036
L 87.028318 29.620589
L 205.857194 29.620589
L 205.857194 54.685036
z
" clip-path="url(#p84c5a3024d)" style="fill: #f1db4b"/>
   </g>
  </g>
  <g id="axes_2">
   <g id="patch_4">
    <path d="M 246.338 171.055687
L 407.803 171.055687
L 407.803 20.669
L 246.338 20.669
z
" style="fill: #ffffff"/>
   </g>
   <g id="matplotlib.axis_3">
    <g id="xtick_7">
     <g id="line2d_12">
      <path d="M 253.677318 171.055687
L 253.677318 20.669
" clip-path="url(#p89e84c49fa)" style="fill: none; stroke: #e6e6e6; stroke-width: 0.35; stroke-linecap: square"/>
     </g>
    </g>
    <g id="xtick_8">
     <g id="line2d_13">
      <path d="M 307.656164 171.055687
L 307.656164 20.669
" clip-path="url(#p89e84c49fa)" style="fill: none; stroke: #e6e6e6; stroke-width: 0.35; stroke-linecap: square"/>
     </g>
    </g>
    <g id="xtick_9">
     <g id="line2d_14">
      <path d="M 361.635009 171.055687
L 361.635009 20.669
" clip-path="url(#p89e84c49fa)" style="fill: none; stroke: #e6e6e6; stroke-width: 0.35; stroke-linecap: square"/>
     </g>
    </g>
    <g id="xtick_10"/>
    <g id="xtick_11"/>
    <g id="xtick_12"/>
   </g>
   <g id="matplotlib.axis_4">
    <g id="ytick_5">
     <g id="line2d_15">
      <path d="M 246.338 149.571875
L 407.803 149.571875
" clip-path="url(#p89e84c49fa)" style="fill: none; stroke: #e6e6e6; stroke-width: 0.35; stroke-linecap: square"/>
     </g>
    </g>
    <g id="ytick_6">
     <g id="line2d_16">
      <path d="M 246.338 113.765521
L 407.803 113.765521
" clip-path="url(#p89e84c49fa)" style="fill: none; stroke: #e6e6e6; stroke-width: 0.35; stroke-linecap: square"/>
     </g>
    </g>
    <g id="ytick_7">
     <g id="line2d_17">
      <path d="M 246.338 77.959167
L 407.803 77.959167
" clip-path="url(#p89e84c49fa)" style="fill: none; stroke: #e6e6e6; stroke-width: 0.35; stroke-linecap: square"/>
     </g>
    </g>
    <g id="ytick_8">
     <g id="line2d_18">
      <path d="M 246.338 42.152812
L 407.803 42.152812
" clip-path="url(#p89e84c49fa)" style="fill: none; stroke: #e6e6e6; stroke-width: 0.35; stroke-linecap: square"/>
     </g>
    </g>
   </g>
   <g id="PolyCollection_2">
    <path d="M 253.677318 162.104099
L 253.677318 137.039651
L 253.677318 137.039651
L 253.677318 162.104099
z
" clip-path="url(#p89e84c49fa)" style="fill: #004d40"/>
    <path d="M 253.677318 126.297745
L 253.677318 101.233297
L 253.677318 101.233297
L 253.677318 126.297745
z
" clip-path="url(#p89e84c49fa)" style="fill: #1e88e5"/>
    <path d="M 253.677318 90.491391
L 253.677318 65.426943
L 253.677318 65.426943
L 253.677318 90.491391
z
" clip-path="url(#p89e84c49fa)" style="fill: #d81b60"/>
    <path d="M 253.677318 54.685036
L 253.677318 29.620589
L 394.192046 29.620589
L 394.192046 54.685036
z
" clip-path="url(#p89e84c49fa)" style="fill: #f1db4b"/>
   </g>
  </g>
  <g id="axes_3">
   <g id="patch_5">
    <path d="M 79.689 342.111375
L 241.154 342.111375
L 241.154 191.724688
L 79.689 191.724688
z
" style="fill: #ffffff"/>
   </g>
   <g id="matplotlib.axis_5">
    <g id="xtick_13">
     <g id="line2d_19">
      <path d="M 87.028318 342.111375
L 87.028318 191.724688
" clip-path="url(#pef632468bc)" style="fill: none; stroke: #e6e6e6; stroke-width: 0.35; stroke-linecap: square"/>
     </g>
     <g id="line2d_20">
      <path d="M 87.028318 342.111375
" style="fill: none; stroke: #333333; stroke-width: 1.5; stroke-linecap: square"/>
      <defs>
       <path id="m805ff4bd9a" d="M 0 0
L 0 2.5
" style="stroke: #333333"/>
      </defs>
      <g>
       <use xlink:href="#m805ff4bd9a" x="87.028318" y="342.111375" style="fill: #333333; stroke: #333333"/>
      </g>
     </g>
     <g id="text_5">
      <!-- 0 -->
      <g style="fill: #4d4d4d" transform="translate(84.483318 352.690125) scale(0.08 -0.08)">
       <defs>
        <path id="DejaVuSans-30" d="M 2034 4250
Q 1547 4250 1301 3770
Q 1056 3291 1056 2328
Q 1056 1369 1301 889
Q 1547 409 2034 409
Q 2525 409 2770 889
Q 3016 1369 3016 2328
Q 3016 3291 2770 3770
Q 2525 4250 2034 4250
z
M 2034 4750
Q 2819 4750 3233 4129
Q 3647 3509 3647 2328
Q 3647 1150 3233 529
Q 2819 -91 2034 -91
Q 1250 -91 836 529
Q 422 1150 422 2328
Q 422 3509 836 4129
Q 1250 4750 2034 4750
z
" transform="scale(0.015625)"/>
       </defs>
       <use xlink:href="#DejaVuSans-30"/>
      </g>
     </g>
    </g>
    <g id="xtick_14">
     <g id="line2d_21">
      <path d="M 141.007164 342.111375
L 141.007164 191.724688
" clip-path="url(#pef632468bc)" style="fill: none; stroke: #e6e6e6; stroke-width: 0.35; stroke-linecap: square"/>
     </g>
     <g id="line2d_22">
      <path d="M 141.007164 342.111375
" style="fill: none; stroke: #333333; stroke-width: 1.5; stroke-linecap: square"/>
      <g>
       <use xlink:href="#m805ff4bd9a" x="141.007164" y="342.111375" style="fill: #333333; stroke: #333333"/>
      </g>
     </g>
     <g id="text_6">
      <!-- 1 -->
      <g style="fill: #4d4d4d" transform="translate(138.462164 352.690125) scale(0.08 -0.08)">
       <defs>
        <path id="DejaVuSans-31" d="M 794 531
L 1825 531
L 1825 4091
L 703 3866
L 703 4441
L 1819 4666
L 2450 4666
L 2450 531
L 3481 531
L 3481 0
L 794 0
L 794 531
z
" transform="scale(0.015625)"/>
       </defs>
       <use xlink:href="#DejaVuSans-31"/>
      </g>
     </g>
    </g>
    <g id="xtick_15">
     <g id="line2d_23">
      <path d="M 194.986009 342.111375
L 194.986009 191.724688
" clip-path="url(#pef632468bc)" style="fill: none; stroke: #e6e6e6; stroke-width: 0.35; stroke-linecap: square"/>
     </g>
     <g id="line2d_24">
      <path d="M 194.986009 342.111375
" style="fill: none; stroke: #333333; stroke-width: 1.5; stroke-linecap: square"/>
      <g>
       <use xlink:href="#m805ff4bd9a" x="194.986009" y="342.111375" style="fill: #333333; stroke: #333333"/>
      </g>
     </g>
     <g id="text_7">
      <!-- 2 -->
      <g style="fill: #4d4d4d" transform="translate(192.441009 352.690125) scale(0.08 -0.08)">
       <defs>
        <path id="DejaVuSans-32" d="M 1228 531
L 3431 531
L 3431 0
L 469 0
L 469 531
Q 828 903 1448 1529
Q 2069 2156 2228 2338
Q 2531 2678 2651 2914
Q 2772 3150 2772 3378
Q 2772 3750 2511 3984
Q 2250 4219 1831 4219
Q 1534 4219 1204 4116
Q 875 4013 500 3803
L 500 4441
Q 881 4594 1212 4672
Q 1544 4750 1819 4750
Q 2544 4750 2975 4387
Q 3406 4025 3406 3419
Q 3406 3131 3298 2873
Q 3191 2616 2906 2266
Q 2828 2175 2409 1742
Q 1991 1309 1228 531
z
" transform="scale(0.015625)"/>
       </defs>
       <use xlink:href="#DejaVuSans-32"/>
      </g>
     </g>
    </g>
    <g id="xtick_16"/>
    <g id="xtick_17"/>
    <g id="xtick_18"/>
   </g>
   <g id="matplotlib.axis_6">
    <g id="ytick_9">
     <g id="line2d_25">
      <path d="M 79.689 320.627563
L 241.154 320.627563
" clip-path="url(#pef632468bc)" style="fill: none; stroke: #e6e6e6; stroke-width: 0.35; stroke-linecap: square"/>
     </g>
     <g id="line2d_26">
      <path d="M 79.689 320.627563
" style="fill: none; stroke: #333333; stroke-width: 1.5; stroke-linecap: square"/>
      <g>
       <use xlink:href="#m4305a2b4d3" x="79.689" y="320.627563" style="fill: #333333; stroke: #333333"/>
      </g>
     </g>
     <g id="text_8">
      <!-- Strict + posterior -->
      <g style="fill: #4d4d4d" transform="translate(6.244 323.666938) scale(0.08 -0.08)">
       <use xlink:href="#DejaVuSans-53"/>
       <use xlink:href="#DejaVuSans-74" transform="translate(63.476562 0)"/>
       <use xlink:href="#DejaVuSans-72" transform="translate(102.685547 0)"/>
       <use xlink:href="#DejaVuSans-69" transform="translate(143.798828 0)"/>
       <use xlink:href="#DejaVuSans-63" transform="translate(171.582031 0)"/>
       <use xlink:href="#DejaVuSans-74" transform="translate(226.5625 0)"/>
       <use xlink:href="#DejaVuSans-20" transform="translate(265.771484 0)"/>
       <use xlink:href="#DejaVuSans-2b" transform="translate(297.558594 0)"/>
       <use xlink:href="#DejaVuSans-20" transform="translate(381.347656 0)"/>
       <use xlink:href="#DejaVuSans-70" transform="translate(413.134766 0)"/>
       <use xlink:href="#DejaVuSans-6f" transform="translate(476.611328 0)"/>
       <use xlink:href="#DejaVuSans-73" transform="translate(537.792969 0)"/>
       <use xlink:href="#DejaVuSans-74" transform="translate(589.892578 0)"/>
       <use xlink:href="#DejaVuSans-65" transform="translate(629.101562 0)"/>
       <use xlink:href="#DejaVuSans-72" transform="translate(690.625 0)"/>
       <use xlink:href="#DejaVuSans-69" transform="translate(731.738281 0)"/>
       <use xlink:href="#DejaVuSans-6f" transform="translate(759.521484 0)"/>
       <use xlink:href="#DejaVuSans-72" transform="translate(820.703125 0)"/>
      </g>
     </g>
    </g>
    <g id="ytick_10">
     <g id="line2d_27">
      <path d="M 79.689 284.821208
L 241.154 284.821208
" clip-path="url(#pef632468bc)" style="fill: none; stroke: #e6e6e6; stroke-width: 0.35; stroke-linecap: square"/>
     </g>
     <g id="line2d_28">
      <path d="M 79.689 284.821208
" style="fill: none; stroke: #333333; stroke-width: 1.5; stroke-linecap: square"/>
      <g>
       <use xlink:href="#m4305a2b4d3" x="79.689" y="284.821208" style="fill: #333333; stroke: #333333"/>
      </g>
     </g>
     <g id="text_9">
      <!-- Strict only -->
      <g style="fill: #4d4d4d" transform="translate(34.46275 287.860583) scale(0.08 -0.08)">
       <use xlink:href="#DejaVuSans-53"/>
       <use xlink:href="#DejaVuSans-74" transform="translate(63.476562 0)"/>
       <use xlink:href="#DejaVuSans-72" transform="translate(102.685547 0)"/>
       <use xlink:href="#DejaVuSans-69" transform="translate(143.798828 0)"/>
       <use xlink:href="#DejaVuSans-63" transform="translate(171.582031 0)"/>
       <use xlink:href="#DejaVuSans-74" transform="translate(226.5625 0)"/>
       <use xlink:href="#DejaVuSans-20" transform="translate(265.771484 0)"/>
       <use xlink:href="#DejaVuSans-6f" transform="translate(297.558594 0)"/>
       <use xlink:href="#DejaVuSans-6e" transform="translate(358.740234 0)"/>
       <use xlink:href="#DejaVuSans-6c" transform="translate(422.119141 0)"/>
       <use xlink:href="#DejaVuSans-79" transform="translate(449.902344 0)"/>
      </g>
     </g>
    </g>
    <g id="ytick_11">
     <g id="line2d_29">
      <path d="M 79.689 249.014854
L 241.154 249.014854
" clip-path="url(#pef632468bc)" style="fill: none; stroke: #e6e6e6; stroke-width: 0.35; stroke-linecap: square"/>
     </g>
     <g id="line2d_30">
      <path d="M 79.689 249.014854
" style="fill: none; stroke: #333333; stroke-width: 1.5; stroke-linecap: square"/>
      <g>
       <use xlink:href="#m4305a2b4d3" x="79.689" y="249.014854" style="fill: #333333; stroke: #333333"/>
      </g>
     </g>
     <g id="text_10">
      <!-- Posterior only -->
      <g style="fill: #4d4d4d" transform="translate(20.374 252.054229) scale(0.08 -0.08)">
       <use xlink:href="#DejaVuSans-50"/>
       <use xlink:href="#DejaVuSans-6f" transform="translate(56.677734 0)"/>
       <use xlink:href="#DejaVuSans-73" transform="translate(117.859375 0)"/>
       <use xlink:href="#DejaVuSans-74" transform="translate(169.958984 0)"/>
       <use xlink:href="#DejaVuSans-65" transform="translate(209.167969 0)"/>
       <use xlink:href="#DejaVuSans-72" transform="translate(270.691406 0)"/>
       <use xlink:href="#DejaVuSans-69" transform="translate(311.804688 0)"/>
       <use xlink:href="#DejaVuSans-6f" transform="translate(339.587891 0)"/>
       <use xlink:href="#DejaVuSans-72" transform="translate(400.769531 0)"/>
       <use xlink:href="#DejaVuSans-20" transform="translate(441.882812 0)"/>
       <use xlink:href="#DejaVuSans-6f" transform="translate(473.669922 0)"/>
       <use xlink:href="#DejaVuSans-6e" transform="translate(534.851562 0)"/>
       <use xlink:href="#DejaVuSans-6c" transform="translate(598.230469 0)"/>
       <use xlink:href="#DejaVuSans-79" transform="translate(626.013672 0)"/>
      </g>
     </g>
    </g>
    <g id="ytick_12">
     <g id="line2d_31">
      <path d="M 79.689 213.2085
L 241.154 213.2085
" clip-path="url(#pef632468bc)" style="fill: none; stroke: #e6e6e6; stroke-width: 0.35; stroke-linecap: square"/>
     </g>
     <g id="line2d_32">
      <path d="M 79.689 213.2085
" style="fill: none; stroke: #333333; stroke-width: 1.5; stroke-linecap: square"/>
      <g>
       <use xlink:href="#m4305a2b4d3" x="79.689" y="213.2085" style="fill: #333333; stroke: #333333"/>
      </g>
     </g>
     <g id="text_11">
      <!-- Bayes-factor only -->
      <g style="fill: #4d4d4d" transform="translate(5.184 216.247875) scale(0.08 -0.08)">
       <use xlink:href="#DejaVuSans-42"/>
       <use xlink:href="#DejaVuSans-61" transform="translate(68.603516 0)"/>
       <use xlink:href="#DejaVuSans-79" transform="translate(129.882812 0)"/>
       <use xlink:href="#DejaVuSans-65" transform="translate(189.0625 0)"/>
       <use xlink:href="#DejaVuSans-73" transform="translate(250.585938 0)"/>
       <use xlink:href="#DejaVuSans-2d" transform="translate(302.685547 0)"/>
       <use xlink:href="#DejaVuSans-66" transform="translate(338.769531 0)"/>
       <use xlink:href="#DejaVuSans-61" transform="translate(373.974609 0)"/>
       <use xlink:href="#DejaVuSans-63" transform="translate(435.253906 0)"/>
       <use xlink:href="#DejaVuSans-74" transform="translate(490.234375 0)"/>
       <use xlink:href="#DejaVuSans-6f" transform="translate(529.443359 0)"/>
       <use xlink:href="#DejaVuSans-72" transform="translate(590.625 0)"/>
       <use xlink:href="#DejaVuSans-20" transform="translate(631.738281 0)"/>
       <use xlink:href="#DejaVuSans-6f" transform="translate(663.525391 0)"/>
       <use xlink:href="#DejaVuSans-6e" transform="translate(724.707031 0)"/>
       <use xlink:href="#DejaVuSans-6c" transform="translate(788.085938 0)"/>
       <use xlink:href="#DejaVuSans-79" transform="translate(815.869141 0)"/>
      </g>
     </g>
    </g>
   </g>
   <g id="PolyCollection_3">
    <path d="M 87.028318 333.159786
L 87.028318 308.095339
L 177.779779 308.095339
L 177.779779 333.159786
z
" clip-path="url(#pef632468bc)" style="fill: #004d40"/>
    <path d="M 87.028318 297.353432
L 87.028318 272.288984
L 87.028318 272.288984
L 87.028318 297.353432
z
" clip-path="url(#pef632468bc)" style="fill: #1e88e5"/>
    <path d="M 87.028318 261.547078
L 87.028318 236.48263
L 112.782773 236.48263
L 112.782773 261.547078
z
" clip-path="url(#pef632468bc)" style="fill: #d81b60"/>
    <path d="M 87.028318 225.740724
L 87.028318 200.676276
L 233.814682 200.676276
L 233.814682 225.740724
z
" clip-path="url(#pef632468bc)" style="fill: #f1db4b"/>
   </g>
  </g>
  <g id="axes_4">
   <g id="patch_6">
    <path d="M 246.338 342.111375
L 407.803 342.111375
L 407.803 191.724688
L 246.338 191.724688
z
" style="fill: #ffffff"/>
   </g>
   <g id="matplotlib.axis_7">
    <g id="xtick_19">
     <g id="line2d_33">
      <path d="M 253.677318 342.111375
L 253.677318 191.724688
" clip-path="url(#pbff5ea0b04)" style="fill: none; stroke: #e6e6e6; stroke-width: 0.35; stroke-linecap: square"/>
     </g>
     <g id="line2d_34">
      <path d="M 253.677318 342.111375
" style="fill: none; stroke: #333333; stroke-width: 1.5; stroke-linecap: square"/>
      <g>
       <use xlink:href="#m805ff4bd9a" x="253.677318" y="342.111375" style="fill: #333333; stroke: #333333"/>
      </g>
     </g>
     <g id="text_12">
      <!-- 0 -->
      <g style="fill: #4d4d4d" transform="translate(251.132318 352.690125) scale(0.08 -0.08)">
       <use xlink:href="#DejaVuSans-30"/>
      </g>
     </g>
    </g>
    <g id="xtick_20">
     <g id="line2d_35">
      <path d="M 307.656164 342.111375
L 307.656164 191.724688
" clip-path="url(#pbff5ea0b04)" style="fill: none; stroke: #e6e6e6; stroke-width: 0.35; stroke-linecap: square"/>
     </g>
     <g id="line2d_36">
      <path d="M 307.656164 342.111375
" style="fill: none; stroke: #333333; stroke-width: 1.5; stroke-linecap: square"/>
      <g>
       <use xlink:href="#m805ff4bd9a" x="307.656164" y="342.111375" style="fill: #333333; stroke: #333333"/>
      </g>
     </g>
     <g id="text_13">
      <!-- 1 -->
      <g style="fill: #4d4d4d" transform="translate(305.111164 352.690125) scale(0.08 -0.08)">
       <use xlink:href="#DejaVuSans-31"/>
      </g>
     </g>
    </g>
    <g id="xtick_21">
     <g id="line2d_37">
      <path d="M 361.635009 342.111375
L 361.635009 191.724688
" clip-path="url(#pbff5ea0b04)" style="fill: none; stroke: #e6e6e6; stroke-width: 0.35; stroke-linecap: square"/>
     </g>
     <g id="line2d_38">
      <path d="M 361.635009 342.111375
" style="fill: none; stroke: #333333; stroke-width: 1.5; stroke-linecap: square"/>
      <g>
       <use xlink:href="#m805ff4bd9a" x="361.635009" y="342.111375" style="fill: #333333; stroke: #333333"/>
      </g>
     </g>
     <g id="text_14">
      <!-- 2 -->
      <g style="fill: #4d4d4d" transform="translate(359.090009 352.690125) scale(0.08 -0.08)">
       <use xlink:href="#DejaVuSans-32"/>
      </g>
     </g>
    </g>
    <g id="xtick_22"/>
    <g id="xtick_23"/>
    <g id="xtick_24"/>
   </g>
   <g id="matplotlib.axis_8">
    <g id="ytick_13">
     <g id="line2d_39">
      <path d="M 246.338 320.627563
L 407.803 320.627563
" clip-path="url(#pbff5ea0b04)" style="fill: none; stroke: #e6e6e6; stroke-width: 0.35; stroke-linecap: square"/>
     </g>
    </g>
    <g id="ytick_14">
     <g id="line2d_40">
      <path d="M 246.338 284.821208
L 407.803 284.821208
" clip-path="url(#pbff5ea0b04)" style="fill: none; stroke: #e6e6e6; stroke-width: 0.35; stroke-linecap: square"/>
     </g>
    </g>
    <g id="ytick_15">
     <g id="line2d_41">
      <path d="M 246.338 249.014854
L 407.803 249.014854
" clip-path="url(#pbff5ea0b04)" style="fill: none; stroke: #e6e6e6; stroke-width: 0.35; stroke-linecap: square"/>
     </g>
    </g>
    <g id="ytick_16">
     <g id="line2d_42">
      <path d="M 246.338 213.2085
L 407.803 213.2085
" clip-path="url(#pbff5ea0b04)" style="fill: none; stroke: #e6e6e6; stroke-width: 0.35; stroke-linecap: square"/>
     </g>
    </g>
   </g>
   <g id="PolyCollection_4">
    <path d="M 253.677318 333.159786
L 253.677318 308.095339
L 299.294735 308.095339
L 299.294735 333.159786
z
" clip-path="url(#pbff5ea0b04)" style="fill: #004d40"/>
    <path d="M 253.677318 297.353432
L 253.677318 272.288984
L 253.677318 272.288984
L 253.677318 297.353432
z
" clip-path="url(#pbff5ea0b04)" style="fill: #1e88e5"/>
    <path d="M 253.677318 261.547078
L 253.677318 236.48263
L 295.681024 236.48263
L 295.681024 261.547078
z
" clip-path="url(#pbff5ea0b04)" style="fill: #d81b60"/>
    <path d="M 253.677318 225.740724
L 253.677318 200.676276
L 395.991891 200.676276
L 395.991891 225.740724
z
" clip-path="url(#pbff5ea0b04)" style="fill: #f1db4b"/>
   </g>
  </g>
  <g id="patch_7">
   <path d="M 79.689 171.055687
L 241.154 171.055687
L 241.154 20.669
L 79.689 20.669
L 79.689 171.055687
z
" style="fill: none; stroke: #7f7f7f; stroke-linejoin: miter"/>
  </g>
  <g id="patch_8">
   <path d="M 246.338 171.055687
L 407.803 171.055687
L 407.803 20.669
L 246.338 20.669
L 246.338 171.055687
z
" style="fill: none; stroke: #7f7f7f; stroke-linejoin: miter"/>
  </g>
  <g id="patch_9">
   <path d="M 79.689 342.111375
L 241.154 342.111375
L 241.154 191.724688
L 79.689 191.724688
L 79.689 342.111375
z
" style="fill: none; stroke: #7f7f7f; stroke-linejoin: miter"/>
  </g>
  <g id="patch_10">
   <path d="M 246.338 342.111375
L 407.803 342.111375
L 407.803 191.724688
L 246.338 191.724688
L 246.338 342.111375
z
" style="fill: none; stroke: #7f7f7f; stroke-linejoin: miter"/>
  </g>
  <g id="text_15">
   <!-- log10(markers + 1) -->
   <g transform="translate(194.869437 367.136313) scale(0.1 -0.1)">
    <defs>
     <path id="DejaVuSans-67" d="M 2906 1791
Q 2906 2416 2648 2759
Q 2391 3103 1925 3103
Q 1463 3103 1205 2759
Q 947 2416 947 1791
Q 947 1169 1205 825
Q 1463 481 1925 481
Q 2391 481 2648 825
Q 2906 1169 2906 1791
z
M 3481 434
Q 3481 -459 3084 -895
Q 2688 -1331 1869 -1331
Q 1566 -1331 1297 -1286
Q 1028 -1241 775 -1147
L 775 -588
Q 1028 -725 1275 -790
Q 1522 -856 1778 -856
Q 2344 -856 2625 -561
Q 2906 -266 2906 331
L 2906 616
Q 2728 306 2450 153
Q 2172 0 1784 0
Q 1141 0 747 490
Q 353 981 353 1791
Q 353 2603 747 3093
Q 1141 3584 1784 3584
Q 2172 3584 2450 3431
Q 2728 3278 2906 2969
L 2906 3500
L 3481 3500
L 3481 434
z
" transform="scale(0.015625)"/>
     <path id="DejaVuSans-28" d="M 1984 4856
Q 1566 4138 1362 3434
Q 1159 2731 1159 2009
Q 1159 1288 1364 580
Q 1569 -128 1984 -844
L 1484 -844
Q 1016 -109 783 600
Q 550 1309 550 2009
Q 550 2706 781 3412
Q 1013 4119 1484 4856
L 1984 4856
z
" transform="scale(0.015625)"/>
     <path id="DejaVuSans-6d" d="M 3328 2828
Q 3544 3216 3844 3400
Q 4144 3584 4550 3584
Q 5097 3584 5394 3201
Q 5691 2819 5691 2113
L 5691 0
L 5113 0
L 5113 2094
Q 5113 2597 4934 2840
Q 4756 3084 4391 3084
Q 3944 3084 3684 2787
Q 3425 2491 3425 1978
L 3425 0
L 2847 0
L 2847 2094
Q 2847 2600 2669 2842
Q 2491 3084 2119 3084
Q 1678 3084 1418 2786
Q 1159 2488 1159 1978
L 1159 0
L 581 0
L 581 3500
L 1159 3500
L 1159 2956
Q 1356 3278 1631 3431
Q 1906 3584 2284 3584
Q 2666 3584 2933 3390
Q 3200 3197 3328 2828
z
" transform="scale(0.015625)"/>
     <path id="DejaVuSans-6b" d="M 581 4863
L 1159 4863
L 1159 1991
L 2875 3500
L 3609 3500
L 1753 1863
L 3688 0
L 2938 0
L 1159 1709
L 1159 0
L 581 0
L 581 4863
z
" transform="scale(0.015625)"/>
     <path id="DejaVuSans-29" d="M 513 4856
L 1013 4856
Q 1481 4119 1714 3412
Q 1947 2706 1947 2009
Q 1947 1309 1714 600
Q 1481 -109 1013 -844
L 513 -844
Q 928 -128 1133 580
Q 1338 1288 1338 2009
Q 1338 2731 1133 3434
Q 928 4138 513 4856
z
" transform="scale(0.015625)"/>
    </defs>
    <use xlink:href="#DejaVuSans-6c"/>
    <use xlink:href="#DejaVuSans-6f" transform="translate(27.783203 0)"/>
    <use xlink:href="#DejaVuSans-67" transform="translate(88.964844 0)"/>
    <use xlink:href="#DejaVuSans-31" transform="translate(152.441406 0)"/>
    <use xlink:href="#DejaVuSans-30" transform="translate(216.064453 0)"/>
    <use xlink:href="#DejaVuSans-28" transform="translate(279.6875 0)"/>
    <use xlink:href="#DejaVuSans-6d" transform="translate(318.701172 0)"/>
    <use xlink:href="#DejaVuSans-61" transform="translate(416.113281 0)"/>
    <use xlink:href="#DejaVuSans-72" transform="translate(477.392578 0)"/>
    <use xlink:href="#DejaVuSans-6b" transform="translate(518.505859 0)"/>
    <use xlink:href="#DejaVuSans-65" transform="translate(572.791016 0)"/>
    <use xlink:href="#DejaVuSans-72" transform="translate(634.314453 0)"/>
    <use xlink:href="#DejaVuSans-73" transform="translate(675.427734 0)"/>
    <use xlink:href="#DejaVuSans-20" transform="translate(727.527344 0)"/>
    <use xlink:href="#DejaVuSans-2b" transform="translate(759.314453 0)"/>
    <use xlink:href="#DejaVuSans-20" transform="translate(843.103516 0)"/>
    <use xlink:href="#DejaVuSans-31" transform="translate(874.890625 0)"/>
    <use xlink:href="#DejaVuSans-29" transform="translate(938.513672 0)"/>
   </g>
  </g>
  <g id="patch_11">
   <path d="M 79.689 20.669
L 241.154 20.669
L 241.154 5.184
L 79.689 5.184
z
" style="fill: #f7f7f7; stroke: #cccccc; stroke-linejoin: miter"/>
  </g>
  <g id="text_16">
   <!-- Danio Albolineatus -->
   <g style="fill: #1a1a1a" transform="translate(122.834 15.965875) scale(0.08 -0.08)">
    <defs>
     <path id="DejaVuSans-44" d="M 1259 4147
L 1259 519
L 2022 519
Q 2988 519 3436 956
Q 3884 1394 3884 2338
Q 3884 3275 3436 3711
Q 2988 4147 2022 4147
L 1259 4147
z
M 628 4666
L 1925 4666
Q 3281 4666 3915 4102
Q 4550 3538 4550 2338
Q 4550 1131 3912 565
Q 3275 0 1925 0
L 628 0
L 628 4666
z
" transform="scale(0.015625)"/>
     <path id="DejaVuSans-41" d="M 2188 4044
L 1331 1722
L 3047 1722
L 2188 4044
z
M 1831 4666
L 2547 4666
L 4325 0
L 3669 0
L 3244 1197
L 1141 1197
L 716 0
L 50 0
L 1831 4666
z
" transform="scale(0.015625)"/>
     <path id="DejaVuSans-62" d="M 3116 1747
Q 3116 2381 2855 2742
Q 2594 3103 2138 3103
Q 1681 3103 1420 2742
Q 1159 2381 1159 1747
Q 1159 1113 1420 752
Q 1681 391 2138 391
Q 2594 391 2855 752
Q 3116 1113 3116 1747
z
M 1159 2969
Q 1341 3281 1617 3432
Q 1894 3584 2278 3584
Q 2916 3584 3314 3078
Q 3713 2572 3713 1747
Q 3713 922 3314 415
Q 2916 -91 2278 -91
Q 1894 -91 1617 61
Q 1341 213 1159 525
L 1159 0
L 581 0
L 581 4863
L 1159 4863
L 1159 2969
z
" transform="scale(0.015625)"/>
     <path id="DejaVuSans-75" d="M 544 1381
L 544 3500
L 1119 3500
L 1119 1403
Q 1119 906 1312 657
Q 1506 409 1894 409
Q 2359 409 2629 706
Q 2900 1003 2900 1516
L 2900 3500
L 3475 3500
L 3475 0
L 2900 0
L 2900 538
Q 2691 219 2414 64
Q 2138 -91 1772 -91
Q 1169 -91 856 284
Q 544 659 544 1381
z
M 1991 3584
L 1991 3584
z
" transform="scale(0.015625)"/>
    </defs>
    <use xlink:href="#DejaVuSans-44"/>
    <use xlink:href="#DejaVuSans-61" transform="translate(77.001953 0)"/>
    <use xlink:href="#DejaVuSans-6e" transform="translate(138.28125 0)"/>
    <use xlink:href="#DejaVuSans-69" transform="translate(201.660156 0)"/>
    <use xlink:href="#DejaVuSans-6f" transform="translate(229.443359 0)"/>
    <use xlink:href="#DejaVuSans-20" transform="translate(290.625 0)"/>
    <use xlink:href="#DejaVuSans-41" transform="translate(322.412109 0)"/>
    <use xlink:href="#DejaVuSans-6c" transform="translate(390.820312 0)"/>
    <use xlink:href="#DejaVuSans-62" transform="translate(418.603516 0)"/>
    <use xlink:href="#DejaVuSans-6f" transform="translate(482.080078 0)"/>
    <use xlink:href="#DejaVuSans-6c" transform="translate(543.261719 0)"/>
    <use xlink:href="#DejaVuSans-69" transform="translate(571.044922 0)"/>
    <use xlink:href="#DejaVuSans-6e" transform="translate(598.828125 0)"/>
    <use xlink:href="#DejaVuSans-65" transform="translate(662.207031 0)"/>
    <use xlink:href="#DejaVuSans-61" transform="translate(723.730469 0)"/>
    <use xlink:href="#DejaVuSans-74" transform="translate(785.009766 0)"/>
    <use xlink:href="#DejaVuSans-75" transform="translate(824.21875 0)"/>
    <use xlink:href="#DejaVuSans-73" transform="translate(887.597656 0)"/>
   </g>
  </g>
  <g id="patch_12">
   <path d="M 246.338 20.669
L 407.803 20.669
L 407.803 5.184
L 246.338 5.184
z
" style="fill: #f7f7f7; stroke: #cccccc; stroke-linejoin: miter"/>
  </g>
  <g id="text_17">
   <!-- Notothenia Rossii -->
   <g style="fill: #1a1a1a" transform="translate(292.244875 15.965875) scale(0.08 -0.08)">
    <defs>
     <path id="DejaVuSans-4e" d="M 628 4666
L 1478 4666
L 3547 763
L 3547 4666
L 4159 4666
L 4159 0
L 3309 0
L 1241 3903
L 1241 0
L 628 0
L 628 4666
z
" transform="scale(0.015625)"/>
     <path id="DejaVuSans-68" d="M 3513 2113
L 3513 0
L 2938 0
L 2938 2094
Q 2938 2591 2744 2837
Q 2550 3084 2163 3084
Q 1697 3084 1428 2787
Q 1159 2491 1159 1978
L 1159 0
L 581 0
L 581 4863
L 1159 4863
L 1159 2956
Q 1366 3272 1645 3428
Q 1925 3584 2291 3584
Q 2894 3584 3203 3211
Q 3513 2838 3513 2113
z
" transform="scale(0.015625)"/>
     <path id="DejaVuSans-52" d="M 2841 2188
Q 3044 2119 3236 1894
Q 3428 1669 3622 1275
L 4263 0
L 3584 0
L 2988 1197
Q 2756 1666 2539 1819
Q 2322 1972 1947 1972
L 1259 1972
L 1259 0
L 628 0
L 628 4666
L 2053 4666
Q 2853 4666 3247 4331
Q 3641 3997 3641 3322
Q 3641 2881 3436 2590
Q 3231 2300 2841 2188
z
M 1259 4147
L 1259 2491
L 2053 2491
Q 2509 2491 2742 2702
Q 2975 2913 2975 3322
Q 2975 3731 2742 3939
Q 2509 4147 2053 4147
L 1259 4147
z
" transform="scale(0.015625)"/>
    </defs>
    <use xlink:href="#DejaVuSans-4e"/>
    <use xlink:href="#DejaVuSans-6f" transform="translate(74.804688 0)"/>
    <use xlink:href="#DejaVuSans-74" transform="translate(135.986328 0)"/>
    <use xlink:href="#DejaVuSans-6f" transform="translate(175.195312 0)"/>
    <use xlink:href="#DejaVuSans-74" transform="translate(236.376953 0)"/>
    <use xlink:href="#DejaVuSans-68" transform="translate(275.585938 0)"/>
    <use xlink:href="#DejaVuSans-65" transform="translate(338.964844 0)"/>
    <use xlink:href="#DejaVuSans-6e" transform="translate(400.488281 0)"/>
    <use xlink:href="#DejaVuSans-69" transform="translate(463.867188 0)"/>
    <use xlink:href="#DejaVuSans-61" transform="translate(491.650391 0)"/>
    <use xlink:href="#DejaVuSans-20" transform="translate(552.929688 0)"/>
    <use xlink:href="#DejaVuSans-52" transform="translate(584.716797 0)"/>
    <use xlink:href="#DejaVuSans-6f" transform="translate(649.699219 0)"/>
    <use xlink:href="#DejaVuSans-73" transform="translate(710.880859 0)"/>
    <use xlink:href="#DejaVuSans-73" transform="translate(762.980469 0)"/>
    <use xlink:href="#DejaVuSans-69" transform="translate(815.080078 0)"/>
    <use xlink:href="#DejaVuSans-69" transform="translate(842.863281 0)"/>
   </g>
  </g>
  <g id="patch_13">
   <path d="M 79.689 191.724687
L 241.154 191.724687
L 241.154 176.239687
L 79.689 176.239687
z
" style="fill: #f7f7f7; stroke: #cccccc; stroke-linejoin: miter"/>
  </g>
  <g id="text_18">
   <!-- Plecoglossus Altivelis -->
   <g style="fill: #1a1a1a" transform="translate(117.97275 187.021562) scale(0.08 -0.08)">
    <defs>
     <path id="DejaVuSans-76" d="M 191 3500
L 800 3500
L 1894 563
L 2988 3500
L 3597 3500
L 2284 0
L 1503 0
L 191 3500
z
" transform="scale(0.015625)"/>
    </defs>
    <use xlink:href="#DejaVuSans-50"/>
    <use xlink:href="#DejaVuSans-6c" transform="translate(60.302734 0)"/>
    <use xlink:href="#DejaVuSans-65" transform="translate(88.085938 0)"/>
    <use xlink:href="#DejaVuSans-63" transform="translate(149.609375 0)"/>
    <use xlink:href="#DejaVuSans-6f" transform="translate(204.589844 0)"/>
    <use xlink:href="#DejaVuSans-67" transform="translate(265.771484 0)"/>
    <use xlink:href="#DejaVuSans-6c" transform="translate(329.248047 0)"/>
    <use xlink:href="#DejaVuSans-6f" transform="translate(357.03125 0)"/>
    <use xlink:href="#DejaVuSans-73" transform="translate(418.212891 0)"/>
    <use xlink:href="#DejaVuSans-73" transform="translate(470.3125 0)"/>
    <use xlink:href="#DejaVuSans-75" transform="translate(522.412109 0)"/>
    <use xlink:href="#DejaVuSans-73" transform="translate(585.791016 0)"/>
    <use xlink:href="#DejaVuSans-20" transform="translate(637.890625 0)"/>
    <use xlink:href="#DejaVuSans-41" transform="translate(669.677734 0)"/>
    <use xlink:href="#DejaVuSans-6c" transform="translate(738.085938 0)"/>
    <use xlink:href="#DejaVuSans-74" transform="translate(765.869141 0)"/>
    <use xlink:href="#DejaVuSans-69" transform="translate(805.078125 0)"/>
    <use xlink:href="#DejaVuSans-76" transform="translate(832.861328 0)"/>
    <use xlink:href="#DejaVuSans-65" transform="translate(892.041016 0)"/>
    <use xlink:href="#DejaVuSans-6c" transform="translate(953.564453 0)"/>
    <use xlink:href="#DejaVuSans-69" transform="translate(981.347656 0)"/>
    <use xlink:href="#DejaVuSans-73" transform="translate(1009.130859 0)"/>
   </g>
  </g>
  <g id="patch_14">
   <path d="M 246.338 191.724687
L 407.803 191.724687
L 407.803 176.239687
L 246.338 176.239687
z
" style="fill: #f7f7f7; stroke: #cccccc; stroke-linejoin: miter"/>
  </g>
  <g id="text_19">
   <!-- Tinca Tinca -->
   <g style="fill: #1a1a1a" transform="translate(304.56925 187.021562) scale(0.08 -0.08)">
    <defs>
     <path id="DejaVuSans-54" d="M -19 4666
L 3928 4666
L 3928 4134
L 2272 4134
L 2272 0
L 1638 0
L 1638 4134
L -19 4134
L -19 4666
z
" transform="scale(0.015625)"/>
    </defs>
    <use xlink:href="#DejaVuSans-54"/>
    <use xlink:href="#DejaVuSans-69" transform="translate(57.958984 0)"/>
    <use xlink:href="#DejaVuSans-6e" transform="translate(85.742188 0)"/>
    <use xlink:href="#DejaVuSans-63" transform="translate(149.121094 0)"/>
    <use xlink:href="#DejaVuSans-61" transform="translate(204.101562 0)"/>
    <use xlink:href="#DejaVuSans-20" transform="translate(265.380859 0)"/>
    <use xlink:href="#DejaVuSans-54" transform="translate(297.167969 0)"/>
    <use xlink:href="#DejaVuSans-69" transform="translate(355.126953 0)"/>
    <use xlink:href="#DejaVuSans-6e" transform="translate(382.910156 0)"/>
    <use xlink:href="#DejaVuSans-63" transform="translate(446.289062 0)"/>
    <use xlink:href="#DejaVuSans-61" transform="translate(501.269531 0)"/>
   </g>
  </g>
  <g id="patch_15">
   <path d="M 423.355 219.481344
L 513.216 219.481344
L 513.216 143.299031
L 423.355 143.299031
z
" style="fill: #ffffff"/>
  </g>
  <g id="patch_16">
   <path d="M 424.355 169.281344
L 438.755 169.281344
L 438.755 154.881344
L 424.355 154.881344
z
" clip-path="url(#pb16f6037c4)" style="fill: #ffffff"/>
  </g>
  <g id="patch_17">
   <path d="M 424.355 169.281344
L 438.755 169.281344
L 438.755 154.881344
L 424.355 154.881344
z
" clip-path="url(#pb16f6037c4)" style="fill: #004d40"/>
  </g>
  <g id="text_20">
   <!-- Strict + posterior -->
   <g transform="translate(442.211 164.288844) scale(0.08 -0.08)">
    <use xlink:href="#DejaVuSans-53"/>
    <use xlink:href="#DejaVuSans-74" transform="translate(63.476562 0)"/>
    <use xlink:href="#DejaVuSans-72" transform="translate(102.685547 0)"/>
    <use xlink:href="#DejaVuSans-69" transform="translate(143.798828 0)"/>
    <use xlink:href="#DejaVuSans-63" transform="translate(171.582031 0)"/>
    <use xlink:href="#DejaVuSans-74" transform="translate(226.5625 0)"/>
    <use xlink:href="#DejaVuSans-20" transform="translate(265.771484 0)"/>
    <use xlink:href="#DejaVuSans-2b" transform="translate(297.558594 0)"/>
    <use xlink:href="#DejaVuSans-20" transform="translate(381.347656 0)"/>
    <use xlink:href="#DejaVuSans-70" transform="translate(413.134766 0)"/>
    <use xlink:href="#DejaVuSans-6f" transform="translate(476.611328 0)"/>
    <use xlink:href="#DejaVuSans-73" transform="translate(537.792969 0)"/>
    <use xlink:href="#DejaVuSans-74" transform="translate(589.892578 0)"/>
    <use xlink:href="#DejaVuSans-65" transform="translate(629.101562 0)"/>
    <use xlink:href="#DejaVuSans-72" transform="translate(690.625 0)"/>
    <use xlink:href="#DejaVuSans-69" transform="translate(731.738281 0)"/>
    <use xlink:href="#DejaVuSans-6f" transform="translate(759.521484 0)"/>
    <use xlink:href="#DejaVuSans-72" transform="translate(820.703125 0)"/>
   </g>
  </g>
  <g id="patch_18">
   <path d="M 424.355 185.681344
L 438.755 185.681344
L 438.755 171.281344
L 424.355 171.281344
z
" clip-path="url(#pbf19e96e09)" style="fill: #ffffff"/>
  </g>
  <g id="patch_19">
   <path d="M 424.355 185.681344
L 438.755 185.681344
L 438.755 171.281344
L 424.355 171.281344
z
" clip-path="url(#pbf19e96e09)" style="fill: #1e88e5"/>
  </g>
  <g id="text_21">
   <!-- Strict only -->
   <g transform="translate(442.211 180.688844) scale(0.08 -0.08)">
    <use xlink:href="#DejaVuSans-53"/>
    <use xlink:href="#DejaVuSans-74" transform="translate(63.476562 0)"/>
    <use xlink:href="#DejaVuSans-72" transform="translate(102.685547 0)"/>
    <use xlink:href="#DejaVuSans-69" transform="translate(143.798828 0)"/>
    <use xlink:href="#DejaVuSans-63" transform="translate(171.582031 0)"/>
    <use xlink:href="#DejaVuSans-74" transform="translate(226.5625 0)"/>
    <use xlink:href="#DejaVuSans-20" transform="translate(265.771484 0)"/>
    <use xlink:href="#DejaVuSans-6f" transform="translate(297.558594 0)"/>
    <use xlink:href="#DejaVuSans-6e" transform="translate(358.740234 0)"/>
    <use xlink:href="#DejaVuSans-6c" transform="translate(422.119141 0)"/>
    <use xlink:href="#DejaVuSans-79" transform="translate(449.902344 0)"/>
   </g>
  </g>
  <g id="patch_20">
   <path d="M 424.355 202.081344
L 438.755 202.081344
L 438.755 187.681344
L 424.355 187.681344
z
" clip-path="url(#pd4ae373b5b)" style="fill: #ffffff"/>
  </g>
  <g id="patch_21">
   <path d="M 424.355 202.081344
L 438.755 202.081344
L 438.755 187.681344
L 424.355 187.681344
z
" clip-path="url(#pd4ae373b5b)" style="fill: #d81b60"/>
  </g>
  <g id="text_22">
   <!-- Posterior only -->
   <g transform="translate(442.211 197.088844) scale(0.08 -0.08)">
    <use xlink:href="#DejaVuSans-50"/>
    <use xlink:href="#DejaVuSans-6f" transform="translate(56.677734 0)"/>
    <use xlink:href="#DejaVuSans-73" transform="translate(117.859375 0)"/>
    <use xlink:href="#DejaVuSans-74" transform="translate(169.958984 0)"/>
    <use xlink:href="#DejaVuSans-65" transform="translate(209.167969 0)"/>
    <use xlink:href="#DejaVuSans-72" transform="translate(270.691406 0)"/>
    <use xlink:href="#DejaVuSans-69" transform="translate(311.804688 0)"/>
    <use xlink:href="#DejaVuSans-6f" transform="translate(339.587891 0)"/>
    <use xlink:href="#DejaVuSans-72" transform="translate(400.769531 0)"/>
    <use xlink:href="#DejaVuSans-20" transform="translate(441.882812 0)"/>
    <use xlink:href="#DejaVuSans-6f" transform="translate(473.669922 0)"/>
    <use xlink:href="#DejaVuSans-6e" transform="translate(534.851562 0)"/>
    <use xlink:href="#DejaVuSans-6c" transform="translate(598.230469 0)"/>
    <use xlink:href="#DejaVuSans-79" transform="translate(626.013672 0)"/>
   </g>
  </g>
  <g id="patch_22">
   <path d="M 424.355 218.481344
L 438.755 218.481344
L 438.755 204.081344
L 424.355 204.081344
z
" clip-path="url(#p30021d8557)" style="fill: #ffffff"/>
  </g>
  <g id="patch_23">
   <path d="M 424.355 218.481344
L 438.755 218.481344
L 438.755 204.081344
L 424.355 204.081344
z
" clip-path="url(#p30021d8557)" style="fill: #f1db4b"/>
  </g>
  <g id="text_23">
   <!-- Bayes-factor only -->
   <g transform="translate(442.211 213.488844) scale(0.08 -0.08)">
    <use xlink:href="#DejaVuSans-42"/>
    <use xlink:href="#DejaVuSans-61" transform="translate(68.603516 0)"/>
    <use xlink:href="#DejaVuSans-79" transform="translate(129.882812 0)"/>
    <use xlink:href="#DejaVuSans-65" transform="translate(189.0625 0)"/>
    <use xlink:href="#DejaVuSans-73" transform="translate(250.585938 0)"/>
    <use xlink:href="#DejaVuSans-2d" transform="translate(302.685547 0)"/>
    <use xlink:href="#DejaVuSans-66" transform="translate(338.769531 0)"/>
    <use xlink:href="#DejaVuSans-61" transform="translate(373.974609 0)"/>
    <use xlink:href="#DejaVuSans-63" transform="translate(435.253906 0)"/>
    <use xlink:href="#DejaVuSans-74" transform="translate(490.234375 0)"/>
    <use xlink:href="#DejaVuSans-6f" transform="translate(529.443359 0)"/>
    <use xlink:href="#DejaVuSans-72" transform="translate(590.625 0)"/>
    <use xlink:href="#DejaVuSans-20" transform="translate(631.738281 0)"/>
    <use xlink:href="#DejaVuSans-6f" transform="translate(663.525391 0)"/>
    <use xlink:href="#DejaVuSans-6e" transform="translate(724.707031 0)"/>
    <use xlink:href="#DejaVuSans-6c" transform="translate(788.085938 0)"/>
    <use xlink:href="#DejaVuSans-79" transform="translate(815.869141 0)"/>
   </g>
  </g>
 </g>
 <defs>
  <clipPath id="p84c5a3024d">
   <rect x="79.689" y="20.669" width="161.465" height="150.386687"/>
  </clipPath>
  <clipPath id="p89e84c49fa">
   <rect x="246.338" y="20.669" width="161.465" height="150.386687"/>
  </clipPath>
  <clipPath id="pef632468bc">
   <rect x="79.689" y="191.724688" width="161.465" height="150.386687"/>
  </clipPath>
  <clipPath id="pbff5ea0b04">
   <rect x="246.338" y="191.724688" width="161.465" height="150.386687"/>
  </clipPath>
  <clipPath id="pb16f6037c4">
   <path d="M 424.355 169.281344
L 424.355 154.881344
L 438.755 154.881344
L 438.755 169.281344
"/>
  </clipPath>
  <clipPath id="pbf19e96e09">
   <path d="M 424.355 185.681344
L 424.355 171.281344
L 438.755 171.281344
L 438.755 185.681344
"/>
  </clipPath>
  <clipPath id="pd4ae373b5b">
   <path d="M 424.355 202.081344
L 424.355 187.681344
L 438.755 187.681344
L 438.755 202.081344
"/>
  </clipPath>
  <clipPath id="p30021d8557">
   <path d="M 424.355 218.481344
L 424.355 204.081344
L 438.755 204.081344
L 438.755 218.481344
"/>
  </clipPath>
 </defs>
</svg>
