<?xml version="1.0" encoding="utf-8" standalone="no"?>
<!DOCTYPE svg PUBLIC "-//W3C//DTD SVG 1.1//EN"
  "http://www.w3.org/Graphics/SVG/1.1/DTD/svg11.dtd">
<svg xmlns:xlink="http://www.w3.org/1999/xlink" width="518.4pt" height="374.4pt" viewBox="0 0 518.4 374.4" xmlns="http://www.w3.org/2000/svg" version="1.1">
 <metadata>
  <rdf:RDF xmlns:dc="http://purl.org/dc/elements/1.1/" xmlns:cc="http://creativecommons.org/ns#" xmlns:rdf="http://www.w3.org/1999/02/22-rdf-syntax-ns#">
   <cc:Work>
    <dc:type rdf:resource="http://purl.org/dc/dcmitype/StillImage"/>
    <dc:date>2026-05-17T08:57:56.351965</dc:date>
    <dc:format>image/svg+xml</dc:format>
    <dc:creator>
     <cc:Agent>
      <dc:title>Matplotlib v3.10.9, https://matplotlib.org/</dc:title>
     </cc:Agent>
    </dc:creator>
   </cc:Work>
  </rdf:RDF>
 </metadata>
 <defs>
  <style type="text/css">*{stroke-linejoin: round; stroke-linecap: butt}</style>
 </defs>
 <g id="figure_1">
  <g id="patch_1">
   <path d="M 0 374.4
L 518.4 374.4
L 518.4 0
L 0 0
z
" style="fill: #ffffff"/>
  </g>
  <g id="patch_2">
   <path d="M 0 374.4
L 518.4 374.4
L 518.4 0
L 0 0
L 0 374.4
z
" style="fill: none; stroke: #ffffff; stroke-linejoin: miter"/>
  </g>
  <g id="axes_1">
   <g id="patch_3">
    <path d="M 53.134 342.111375
L 513.216 342.111375
L 513.216 5.184
L 53.134 5.184
z
" style="fill: #ffffff"/>
   </g>
   <g id="matplotlib.axis_1">
    <g id="xtick_1">
     <g id="line2d_1">
      <path d="M 74.046818 342.111375
L 74.046818 5.184
" clip-path="url(#p623f592cd2)" style="fill: none; stroke: #e6e6e6; stroke-width: 0.35; stroke-linecap: square"/>
     </g>
     <g id="line2d_2">
      <path d="M 74.046818 342.111375
" style="fill: none; stroke: #333333; stroke-width: 1.5; stroke-linecap: square"/>
      <defs>
       <path id="m8b66993ac7" d="M 0 0
L 0 2.5
" style="stroke: #333333"/>
      </defs>
      <g>
       <use xlink:href="#m8b66993ac7" x="74.046818" y="342.111375" style="fill: #333333; stroke: #333333"/>
      </g>
     </g>
     <g id="text_1">
      <!-- 1 -->
      <g style="fill: #4d4d4d" transform="translate(71.501818 352.690125) scale(0.08 -0.08)">
       <defs>
        <path id="DejaVuSans-31" d="M 794 531
L 1825 531
L 1825 4091
L 703 3866
L 703 4441
L 1819 4666
L 2450 4666
L 2450 531
L 3481 531
L 3481 0
L 794 0
L 794 531
z
" transform="scale(0.015625)"/>
       </defs>
       <use xlink:href="#DejaVuSans-31"/>
      </g>
     </g>
    </g>
    <g id="xtick_2">
     <g id="line2d_3">
      <path d="M 305.226703 342.111375
L 305.226703 5.184
" clip-path="url(#p623f592cd2)" style="fill: none; stroke: #e6e6e6; stroke-width: 0.35; stroke-linecap: square"/>
     </g>
     <g id="line2d_4">
      <path d="M 305.226703 342.111375
" style="fill: none; stroke: #333333; stroke-width: 1.5; stroke-linecap: square"/>
      <g>
       <use xlink:href="#m8b66993ac7" x="305.226703" y="342.111375" style="fill: #333333; stroke: #333333"/>
      </g>
     </g>
     <g id="text_2">
      <!-- 3 -->
      <g style="fill: #4d4d4d" transform="translate(302.681703 352.690125) scale(0.08 -0.08)">
       <defs>
        <path id="DejaVuSans-33" d="M 2597 2516
Q 3050 2419 3304 2112
Q 3559 1806 3559 1356
Q 3559 666 3084 287
Q 2609 -91 1734 -91
Q 1441 -91 1130 -33
Q 819 25 488 141
L 488 750
Q 750 597 1062 519
Q 1375 441 1716 441
Q 2309 441 2620 675
Q 2931 909 2931 1356
Q 2931 1769 2642 2001
Q 2353 2234 1838 2234
L 1294 2234
L 1294 2753
L 1863 2753
Q 2328 2753 2575 2939
Q 2822 3125 2822 3475
Q 2822 3834 2567 4026
Q 2313 4219 1838 4219
Q 1578 4219 1281 4162
Q 984 4106 628 3988
L 628 4550
Q 988 4650 1302 4700
Q 1616 4750 1894 4750
Q 2613 4750 3031 4423
Q 3450 4097 3450 3541
Q 3450 3153 3228 2886
Q 3006 2619 2597 2516
z
" transform="scale(0.015625)"/>
       </defs>
       <use xlink:href="#DejaVuSans-33"/>
      </g>
     </g>
    </g>
    <g id="xtick_3">
     <g id="line2d_5">
      <path d="M 412.719227 342.111375
L 412.719227 5.184
" clip-path="url(#p623f592cd2)" style="fill: none; stroke: #e6e6e6; stroke-width: 0.35; stroke-linecap: square"/>
     </g>
     <g id="line2d_6">
      <path d="M 412.719227 342.111375
" style="fill: none; stroke: #333333; stroke-width: 1.5; stroke-linecap: square"/>
      <g>
       <use xlink:href="#m8b66993ac7" x="412.719227" y="342.111375" style="fill: #333333; stroke: #333333"/>
      </g>
     </g>
     <g id="text_3">
      <!-- 5 -->
      <g style="fill: #4d4d4d" transform="translate(410.174227 352.690125) scale(0.08 -0.08)">
       <defs>
        <path id="DejaVuSans-35" d="M 691 4666
L 3169 4666
L 3169 4134
L 1269 4134
L 1269 2991
Q 1406 3038 1543 3061
Q 1681 3084 1819 3084
Q 2600 3084 3056 2656
Q 3513 2228 3513 1497
Q 3513 744 3044 326
Q 2575 -91 1722 -91
Q 1428 -91 1123 -41
Q 819 9 494 109
L 494 744
Q 775 591 1075 516
Q 1375 441 1709 441
Q 2250 441 2565 725
Q 2881 1009 2881 1497
Q 2881 1984 2565 2268
Q 2250 2553 1709 2553
Q 1456 2553 1204 2497
Q 953 2441 691 2322
L 691 4666
z
" transform="scale(0.015625)"/>
       </defs>
       <use xlink:href="#DejaVuSans-35"/>
      </g>
     </g>
    </g>
    <g id="xtick_4"/>
    <g id="xtick_5"/>
    <g id="xtick_6"/>
    <g id="xtick_7"/>
    <g id="xtick_8"/>
    <g id="xtick_9"/>
    <g id="xtick_10"/>
    <g id="xtick_11"/>
    <g id="xtick_12"/>
    <g id="xtick_13"/>
    <g id="xtick_14"/>
    <g id="xtick_15"/>
    <g id="xtick_16"/>
    <g id="xtick_17"/>
    <g id="xtick_18"/>
    <g id="xtick_19"/>
    <g id="xtick_20"/>
    <g id="xtick_21"/>
    <g id="xtick_22"/>
    <g id="xtick_23"/>
    <g id="xtick_24"/>
    <g id="xtick_25"/>
   </g>
   <g id="matplotlib.axis_2">
    <g id="ytick_1">
     <g id="line2d_7">
      <path d="M 53.134 326.796494
L 513.216 326.796494
" clip-path="url(#p623f592cd2)" style="fill: none; stroke: #e6e6e6; stroke-width: 0.35; stroke-linecap: square"/>
     </g>
     <g id="line2d_8">
      <path d="M 53.134 326.796494
" style="fill: none; stroke: #333333; stroke-width: 1.5; stroke-linecap: square"/>
      <defs>
       <path id="m2efdd4d0e8" d="M 0 0
L -2.5 0
" style="stroke: #333333"/>
      </defs>
      <g>
       <use xlink:href="#m2efdd4d0e8" x="53.134" y="326.796494" style="fill: #333333; stroke: #333333"/>
      </g>
     </g>
     <g id="text_4">
      <!-- process d1 -->
      <g style="fill: #4d4d4d" transform="translate(5.184 329.835869) scale(0.08 -0.08)">
       <defs>
        <path id="DejaVuSans-70" d="M 1159 525
L 1159 -1331
L 581 -1331
L 581 3500
L 1159 3500
L 1159 2969
Q 1341 3281 1617 3432
Q 1894 3584 2278 3584
Q 2916 3584 3314 3078
Q 3713 2572 3713 1747
Q 3713 922 3314 415
Q 2916 -91 2278 -91
Q 1894 -91 1617 61
Q 1341 213 1159 525
z
M 3116 1747
Q 3116 2381 2855 2742
Q 2594 3103 2138 3103
Q 1681 3103 1420 2742
Q 1159 2381 1159 1747
Q 1159 1113 1420 752
Q 1681 391 2138 391
Q 2594 391 2855 752
Q 3116 1113 3116 1747
z
" transform="scale(0.015625)"/>
        <path id="DejaVuSans-72" d="M 2631 2963
Q 2534 3019 2420 3045
Q 2306 3072 2169 3072
Q 1681 3072 1420 2755
Q 1159 2438 1159 1844
L 1159 0
L 581 0
L 581 3500
L 1159 3500
L 1159 2956
Q 1341 3275 1631 3429
Q 1922 3584 2338 3584
Q 2397 3584 2469 3576
Q 2541 3569 2628 3553
L 2631 2963
z
" transform="scale(0.015625)"/>
        <path id="DejaVuSans-6f" d="M 1959 3097
Q 1497 3097 1228 2736
Q 959 2375 959 1747
Q 959 1119 1226 758
Q 1494 397 1959 397
Q 2419 397 2687 759
Q 2956 1122 2956 1747
Q 2956 2369 2687 2733
Q 2419 3097 1959 3097
z
M 1959 3584
Q 2709 3584 3137 3096
Q 3566 2609 3566 1747
Q 3566 888 3137 398
Q 2709 -91 1959 -91
Q 1206 -91 779 398
Q 353 888 353 1747
Q 353 2609 779 3096
Q 1206 3584 1959 3584
z
" transform="scale(0.015625)"/>
        <path id="DejaVuSans-63" d="M 3122 3366
L 3122 2828
Q 2878 2963 2633 3030
Q 2388 3097 2138 3097
Q 1578 3097 1268 2742
Q 959 2388 959 1747
Q 959 1106 1268 751
Q 1578 397 2138 397
Q 2388 397 2633 464
Q 2878 531 3122 666
L 3122 134
Q 2881 22 2623 -34
Q 2366 -91 2075 -91
Q 1284 -91 818 406
Q 353 903 353 1747
Q 353 2603 823 3093
Q 1294 3584 2113 3584
Q 2378 3584 2631 3529
Q 2884 3475 3122 3366
z
" transform="scale(0.015625)"/>
        <path id="DejaVuSans-65" d="M 3597 1894
L 3597 1613
L 953 1613
Q 991 1019 1311 708
Q 1631 397 2203 397
Q 2534 397 2845 478
Q 3156 559 3463 722
L 3463 178
Q 3153 47 2828 -22
Q 2503 -91 2169 -91
Q 1331 -91 842 396
Q 353 884 353 1716
Q 353 2575 817 3079
Q 1281 3584 2069 3584
Q 2775 3584 3186 3129
Q 3597 2675 3597 1894
z
M 3022 2063
Q 3016 2534 2758 2815
Q 2500 3097 2075 3097
Q 1594 3097 1305 2825
Q 1016 2553 972 2059
L 3022 2063
z
" transform="scale(0.015625)"/>
        <path id="DejaVuSans-73" d="M 2834 3397
L 2834 2853
Q 2591 2978 2328 3040
Q 2066 3103 1784 3103
Q 1356 3103 1142 2972
Q 928 2841 928 2578
Q 928 2378 1081 2264
Q 1234 2150 1697 2047
L 1894 2003
Q 2506 1872 2764 1633
Q 3022 1394 3022 966
Q 3022 478 2636 193
Q 2250 -91 1575 -91
Q 1294 -91 989 -36
Q 684 19 347 128
L 347 722
Q 666 556 975 473
Q 1284 391 1588 391
Q 1994 391 2212 530
Q 2431 669 2431 922
Q 2431 1156 2273 1281
Q 2116 1406 1581 1522
L 1381 1569
Q 847 1681 609 1914
Q 372 2147 372 2553
Q 372 3047 722 3315
Q 1072 3584 1716 3584
Q 2034 3584 2315 3537
Q 2597 3491 2834 3397
z
" transform="scale(0.015625)"/>
        <path id="DejaVuSans-20" transform="scale(0.015625)"/>
        <path id="DejaVuSans-64" d="M 2906 2969
L 2906 4863
L 3481 4863
L 3481 0
L 2906 0
L 2906 525
Q 2725 213 2448 61
Q 2172 -91 1784 -91
Q 1150 -91 751 415
Q 353 922 353 1747
Q 353 2572 751 3078
Q 1150 3584 1784 3584
Q 2172 3584 2448 3432
Q 2725 3281 2906 2969
z
M 947 1747
Q 947 1113 1208 752
Q 1469 391 1925 391
Q 2381 391 2643 752
Q 2906 1113 2906 1747
Q 2906 2381 2643 2742
Q 2381 3103 1925 3103
Q 1469 3103 1208 2742
Q 947 2381 947 1747
z
" transform="scale(0.015625)"/>
       </defs>
       <use xlink:href="#DejaVuSans-70"/>
       <use xlink:href="#DejaVuSans-72" transform="translate(63.476562 0)"/>
       <use xlink:href="#DejaVuSans-6f" transform="translate(102.339844 0)"/>
       <use xlink:href="#DejaVuSans-63" transform="translate(163.521484 0)"/>
       <use xlink:href="#DejaVuSans-65" transform="translate(218.501953 0)"/>
       <use xlink:href="#DejaVuSans-73" transform="translate(280.025391 0)"/>
       <use xlink:href="#DejaVuSans-73" transform="translate(332.125 0)"/>
       <use xlink:href="#DejaVuSans-20" transform="translate(384.224609 0)"/>
       <use xlink:href="#DejaVuSans-64" transform="translate(416.011719 0)"/>
       <use xlink:href="#DejaVuSans-31" transform="translate(479.488281 0)"/>
      </g>
     </g>
    </g>
    <g id="ytick_2">
     <g id="line2d_9">
      <path d="M 53.134 301.271693
L 513.216 301.271693
" clip-path="url(#p623f592cd2)" style="fill: none; stroke: #e6e6e6; stroke-width: 0.35; stroke-linecap: square"/>
     </g>
     <g id="line2d_10">
      <path d="M 53.134 301.271693
" style="fill: none; stroke: #333333; stroke-width: 1.5; stroke-linecap: square"/>
      <g>
       <use xlink:href="#m2efdd4d0e8" x="53.134" y="301.271693" style="fill: #333333; stroke: #333333"/>
      </g>
     </g>
     <g id="text_5">
      <!-- freq d1 -->
      <g style="fill: #4d4d4d" transform="translate(19.9965 304.311068) scale(0.08 -0.08)">
       <defs>
        <path id="DejaVuSans-66" d="M 2375 4863
L 2375 4384
L 1825 4384
Q 1516 4384 1395 4259
Q 1275 4134 1275 3809
L 1275 3500
L 2222 3500
L 2222 3053
L 1275 3053
L 1275 0
L 697 0
L 697 3053
L 147 3053
L 147 3500
L 697 3500
L 697 3744
Q 697 4328 969 4595
Q 1241 4863 1831 4863
L 2375 4863
z
" transform="scale(0.015625)"/>
        <path id="DejaVuSans-71" d="M 947 1747
Q 947 1113 1208 752
Q 1469 391 1925 391
Q 2381 391 2643 752
Q 2906 1113 2906 1747
Q 2906 2381 2643 2742
Q 2381 3103 1925 3103
Q 1469 3103 1208 2742
Q 947 2381 947 1747
z
M 2906 525
Q 2725 213 2448 61
Q 2172 -91 1784 -91
Q 1150 -91 751 415
Q 353 922 353 1747
Q 353 2572 751 3078
Q 1150 3584 1784 3584
Q 2172 3584 2448 3432
Q 2725 3281 2906 2969
L 2906 3500
L 3481 3500
L 3481 -1331
L 2906 -1331
L 2906 525
z
" transform="scale(0.015625)"/>
       </defs>
       <use xlink:href="#DejaVuSans-66"/>
       <use xlink:href="#DejaVuSans-72" transform="translate(35.205078 0)"/>
       <use xlink:href="#DejaVuSans-65" transform="translate(74.068359 0)"/>
       <use xlink:href="#DejaVuSans-71" transform="translate(135.591797 0)"/>
       <use xlink:href="#DejaVuSans-20" transform="translate(199.068359 0)"/>
       <use xlink:href="#DejaVuSans-64" transform="translate(230.855469 0)"/>
       <use xlink:href="#DejaVuSans-31" transform="translate(294.332031 0)"/>
      </g>
     </g>
    </g>
    <g id="ytick_3">
     <g id="line2d_11">
      <path d="M 53.134 275.746892
L 513.216 275.746892
" clip-path="url(#p623f592cd2)" style="fill: none; stroke: #e6e6e6; stroke-width: 0.35; stroke-linecap: square"/>
     </g>
     <g id="line2d_12">
      <path d="M 53.134 275.746892
" style="fill: none; stroke: #333333; stroke-width: 1.5; stroke-linecap: square"/>
      <g>
       <use xlink:href="#m2efdd4d0e8" x="53.134" y="275.746892" style="fill: #333333; stroke: #333333"/>
      </g>
     </g>
     <g id="text_6">
      <!-- freq d2 -->
      <g style="fill: #4d4d4d" transform="translate(19.9965 278.786267) scale(0.08 -0.08)">
       <defs>
        <path id="DejaVuSans-32" d="M 1228 531
L 3431 531
L 3431 0
L 469 0
L 469 531
Q 828 903 1448 1529
Q 2069 2156 2228 2338
Q 2531 2678 2651 2914
Q 2772 3150 2772 3378
Q 2772 3750 2511 3984
Q 2250 4219 1831 4219
Q 1534 4219 1204 4116
Q 875 4013 500 3803
L 500 4441
Q 881 4594 1212 4672
Q 1544 4750 1819 4750
Q 2544 4750 2975 4387
Q 3406 4025 3406 3419
Q 3406 3131 3298 2873
Q 3191 2616 2906 2266
Q 2828 2175 2409 1742
Q 1991 1309 1228 531
z
" transform="scale(0.015625)"/>
       </defs>
       <use xlink:href="#DejaVuSans-66"/>
       <use xlink:href="#DejaVuSans-72" transform="translate(35.205078 0)"/>
       <use xlink:href="#DejaVuSans-65" transform="translate(74.068359 0)"/>
       <use xlink:href="#DejaVuSans-71" transform="translate(135.591797 0)"/>
       <use xlink:href="#DejaVuSans-20" transform="translate(199.068359 0)"/>
       <use xlink:href="#DejaVuSans-64" transform="translate(230.855469 0)"/>
       <use xlink:href="#DejaVuSans-32" transform="translate(294.332031 0)"/>
      </g>
     </g>
    </g>
    <g id="ytick_4">
     <g id="line2d_13">
      <path d="M 53.134 250.222091
L 513.216 250.222091
" clip-path="url(#p623f592cd2)" style="fill: none; stroke: #e6e6e6; stroke-width: 0.35; stroke-linecap: square"/>
     </g>
     <g id="line2d_14">
      <path d="M 53.134 250.222091
" style="fill: none; stroke: #333333; stroke-width: 1.5; stroke-linecap: square"/>
      <g>
       <use xlink:href="#m2efdd4d0e8" x="53.134" y="250.222091" style="fill: #333333; stroke: #333333"/>
      </g>
     </g>
     <g id="text_7">
      <!-- freq d5 -->
      <g style="fill: #4d4d4d" transform="translate(19.9965 253.261466) scale(0.08 -0.08)">
       <use xlink:href="#DejaVuSans-66"/>
       <use xlink:href="#DejaVuSans-72" transform="translate(35.205078 0)"/>
       <use xlink:href="#DejaVuSans-65" transform="translate(74.068359 0)"/>
       <use xlink:href="#DejaVuSans-71" transform="translate(135.591797 0)"/>
       <use xlink:href="#DejaVuSans-20" transform="translate(199.068359 0)"/>
       <use xlink:href="#DejaVuSans-64" transform="translate(230.855469 0)"/>
       <use xlink:href="#DejaVuSans-35" transform="translate(294.332031 0)"/>
      </g>
     </g>
    </g>
    <g id="ytick_5">
     <g id="line2d_15">
      <path d="M 53.134 224.69729
L 513.216 224.69729
" clip-path="url(#p623f592cd2)" style="fill: none; stroke: #e6e6e6; stroke-width: 0.35; stroke-linecap: square"/>
     </g>
     <g id="line2d_16">
      <path d="M 53.134 224.69729
" style="fill: none; stroke: #333333; stroke-width: 1.5; stroke-linecap: square"/>
      <g>
       <use xlink:href="#m2efdd4d0e8" x="53.134" y="224.69729" style="fill: #333333; stroke: #333333"/>
      </g>
     </g>
     <g id="text_8">
      <!-- freq d10 -->
      <g style="fill: #4d4d4d" transform="translate(14.9065 227.736665) scale(0.08 -0.08)">
       <defs>
        <path id="DejaVuSans-30" d="M 2034 4250
Q 1547 4250 1301 3770
Q 1056 3291 1056 2328
Q 1056 1369 1301 889
Q 1547 409 2034 409
Q 2525 409 2770 889
Q 3016 1369 3016 2328
Q 3016 3291 2770 3770
Q 2525 4250 2034 4250
z
M 2034 4750
Q 2819 4750 3233 4129
Q 3647 3509 3647 2328
Q 3647 1150 3233 529
Q 2819 -91 2034 -91
Q 1250 -91 836 529
Q 422 1150 422 2328
Q 422 3509 836 4129
Q 1250 4750 2034 4750
z
" transform="scale(0.015625)"/>
       </defs>
       <use xlink:href="#DejaVuSans-66"/>
       <use xlink:href="#DejaVuSans-72" transform="translate(35.205078 0)"/>
       <use xlink:href="#DejaVuSans-65" transform="translate(74.068359 0)"/>
       <use xlink:href="#DejaVuSans-71" transform="translate(135.591797 0)"/>
       <use xlink:href="#DejaVuSans-20" transform="translate(199.068359 0)"/>
       <use xlink:href="#DejaVuSans-64" transform="translate(230.855469 0)"/>
       <use xlink:href="#DejaVuSans-31" transform="translate(294.332031 0)"/>
       <use xlink:href="#DejaVuSans-30" transform="translate(357.955078 0)"/>
      </g>
     </g>
    </g>
    <g id="ytick_6">
     <g id="line2d_17">
      <path d="M 53.134 199.172489
L 513.216 199.172489
" clip-path="url(#p623f592cd2)" style="fill: none; stroke: #e6e6e6; stroke-width: 0.35; stroke-linecap: square"/>
     </g>
     <g id="line2d_18">
      <path d="M 53.134 199.172489
" style="fill: none; stroke: #333333; stroke-width: 1.5; stroke-linecap: square"/>
      <g>
       <use xlink:href="#m2efdd4d0e8" x="53.134" y="199.172489" style="fill: #333333; stroke: #333333"/>
      </g>
     </g>
     <g id="text_9">
      <!-- distrib d1 -->
      <g style="fill: #4d4d4d" transform="translate(10.72775 202.211864) scale(0.08 -0.08)">
       <defs>
        <path id="DejaVuSans-69" d="M 603 3500
L 1178 3500
L 1178 0
L 603 0
L 603 3500
z
M 603 4863
L 1178 4863
L 1178 4134
L 603 4134
L 603 4863
z
" transform="scale(0.015625)"/>
        <path id="DejaVuSans-74" d="M 1172 4494
L 1172 3500
L 2356 3500
L 2356 3053
L 1172 3053
L 1172 1153
Q 1172 725 1289 603
Q 1406 481 1766 481
L 2356 481
L 2356 0
L 1766 0
Q 1100 0 847 248
Q 594 497 594 1153
L 594 3053
L 172 3053
L 172 3500
L 594 3500
L 594 4494
L 1172 4494
z
" transform="scale(0.015625)"/>
        <path id="DejaVuSans-62" d="M 3116 1747
Q 3116 2381 2855 2742
Q 2594 3103 2138 3103
Q 1681 3103 1420 2742
Q 1159 2381 1159 1747
Q 1159 1113 1420 752
Q 1681 391 2138 391
Q 2594 391 2855 752
Q 3116 1113 3116 1747
z
M 1159 2969
Q 1341 3281 1617 3432
Q 1894 3584 2278 3584
Q 2916 3584 3314 3078
Q 3713 2572 3713 1747
Q 3713 922 3314 415
Q 2916 -91 2278 -91
Q 1894 -91 1617 61
Q 1341 213 1159 525
L 1159 0
L 581 0
L 581 4863
L 1159 4863
L 1159 2969
z
" transform="scale(0.015625)"/>
       </defs>
       <use xlink:href="#DejaVuSans-64"/>
       <use xlink:href="#DejaVuSans-69" transform="translate(63.476562 0)"/>
       <use xlink:href="#DejaVuSans-73" transform="translate(91.259766 0)"/>
       <use xlink:href="#DejaVuSans-74" transform="translate(143.359375 0)"/>
       <use xlink:href="#DejaVuSans-72" transform="translate(182.568359 0)"/>
       <use xlink:href="#DejaVuSans-69" transform="translate(223.681641 0)"/>
       <use xlink:href="#DejaVuSans-62" transform="translate(251.464844 0)"/>
       <use xlink:href="#DejaVuSans-20" transform="translate(314.941406 0)"/>
       <use xlink:href="#DejaVuSans-64" transform="translate(346.728516 0)"/>
       <use xlink:href="#DejaVuSans-31" transform="translate(410.205078 0)"/>
      </g>
     </g>
    </g>
    <g id="ytick_7">
     <g id="line2d_19">
      <path d="M 53.134 173.647688
L 513.216 173.647688
" clip-path="url(#p623f592cd2)" style="fill: none; stroke: #e6e6e6; stroke-width: 0.35; stroke-linecap: square"/>
     </g>
     <g id="line2d_20">
      <path d="M 53.134 173.647688
" style="fill: none; stroke: #333333; stroke-width: 1.5; stroke-linecap: square"/>
      <g>
       <use xlink:href="#m2efdd4d0e8" x="53.134" y="173.647688" style="fill: #333333; stroke: #333333"/>
      </g>
     </g>
     <g id="text_10">
      <!-- distrib d2 -->
      <g style="fill: #4d4d4d" transform="translate(10.72775 176.687063) scale(0.08 -0.08)">
       <use xlink:href="#DejaVuSans-64"/>
       <use xlink:href="#DejaVuSans-69" transform="translate(63.476562 0)"/>
       <use xlink:href="#DejaVuSans-73" transform="translate(91.259766 0)"/>
       <use xlink:href="#DejaVuSans-74" transform="translate(143.359375 0)"/>
       <use xlink:href="#DejaVuSans-72" transform="translate(182.568359 0)"/>
       <use xlink:href="#DejaVuSans-69" transform="translate(223.681641 0)"/>
       <use xlink:href="#DejaVuSans-62" transform="translate(251.464844 0)"/>
       <use xlink:href="#DejaVuSans-20" transform="translate(314.941406 0)"/>
       <use xlink:href="#DejaVuSans-64" transform="translate(346.728516 0)"/>
       <use xlink:href="#DejaVuSans-32" transform="translate(410.205078 0)"/>
      </g>
     </g>
    </g>
    <g id="ytick_8">
     <g id="line2d_21">
      <path d="M 53.134 148.122886
L 513.216 148.122886
" clip-path="url(#p623f592cd2)" style="fill: none; stroke: #e6e6e6; stroke-width: 0.35; stroke-linecap: square"/>
     </g>
     <g id="line2d_22">
      <path d="M 53.134 148.122886
" style="fill: none; stroke: #333333; stroke-width: 1.5; stroke-linecap: square"/>
      <g>
       <use xlink:href="#m2efdd4d0e8" x="53.134" y="148.122886" style="fill: #333333; stroke: #333333"/>
      </g>
     </g>
     <g id="text_11">
      <!-- distrib d5 -->
      <g style="fill: #4d4d4d" transform="translate(10.72775 151.162261) scale(0.08 -0.08)">
       <use xlink:href="#DejaVuSans-64"/>
       <use xlink:href="#DejaVuSans-69" transform="translate(63.476562 0)"/>
       <use xlink:href="#DejaVuSans-73" transform="translate(91.259766 0)"/>
       <use xlink:href="#DejaVuSans-74" transform="translate(143.359375 0)"/>
       <use xlink:href="#DejaVuSans-72" transform="translate(182.568359 0)"/>
       <use xlink:href="#DejaVuSans-69" transform="translate(223.681641 0)"/>
       <use xlink:href="#DejaVuSans-62" transform="translate(251.464844 0)"/>
       <use xlink:href="#DejaVuSans-20" transform="translate(314.941406 0)"/>
       <use xlink:href="#DejaVuSans-64" transform="translate(346.728516 0)"/>
       <use xlink:href="#DejaVuSans-35" transform="translate(410.205078 0)"/>
      </g>
     </g>
    </g>
    <g id="ytick_9">
     <g id="line2d_23">
      <path d="M 53.134 122.598085
L 513.216 122.598085
" clip-path="url(#p623f592cd2)" style="fill: none; stroke: #e6e6e6; stroke-width: 0.35; stroke-linecap: square"/>
     </g>
     <g id="line2d_24">
      <path d="M 53.134 122.598085
" style="fill: none; stroke: #333333; stroke-width: 1.5; stroke-linecap: square"/>
      <g>
       <use xlink:href="#m2efdd4d0e8" x="53.134" y="122.598085" style="fill: #333333; stroke: #333333"/>
      </g>
     </g>
     <g id="text_12">
      <!-- distrib d10 -->
      <g style="fill: #4d4d4d" transform="translate(5.63775 125.63746) scale(0.08 -0.08)">
       <use xlink:href="#DejaVuSans-64"/>
       <use xlink:href="#DejaVuSans-69" transform="translate(63.476562 0)"/>
       <use xlink:href="#DejaVuSans-73" transform="translate(91.259766 0)"/>
       <use xlink:href="#DejaVuSans-74" transform="translate(143.359375 0)"/>
       <use xlink:href="#DejaVuSans-72" transform="translate(182.568359 0)"/>
       <use xlink:href="#DejaVuSans-69" transform="translate(223.681641 0)"/>
       <use xlink:href="#DejaVuSans-62" transform="translate(251.464844 0)"/>
       <use xlink:href="#DejaVuSans-20" transform="translate(314.941406 0)"/>
       <use xlink:href="#DejaVuSans-64" transform="translate(346.728516 0)"/>
       <use xlink:href="#DejaVuSans-31" transform="translate(410.205078 0)"/>
       <use xlink:href="#DejaVuSans-30" transform="translate(473.828125 0)"/>
      </g>
     </g>
    </g>
    <g id="ytick_10">
     <g id="line2d_25">
      <path d="M 53.134 97.073284
L 513.216 97.073284
" clip-path="url(#p623f592cd2)" style="fill: none; stroke: #e6e6e6; stroke-width: 0.35; stroke-linecap: square"/>
     </g>
     <g id="line2d_26">
      <path d="M 53.134 97.073284
" style="fill: none; stroke: #333333; stroke-width: 1.5; stroke-linecap: square"/>
      <g>
       <use xlink:href="#m2efdd4d0e8" x="53.134" y="97.073284" style="fill: #333333; stroke: #333333"/>
      </g>
     </g>
     <g id="text_13">
      <!-- signif d1 -->
      <g style="fill: #4d4d4d" transform="translate(14.34525 100.112659) scale(0.08 -0.08)">
       <defs>
        <path id="DejaVuSans-67" d="M 2906 1791
Q 2906 2416 2648 2759
Q 2391 3103 1925 3103
Q 1463 3103 1205 2759
Q 947 2416 947 1791
Q 947 1169 1205 825
Q 1463 481 1925 481
Q 2391 481 2648 825
Q 2906 1169 2906 1791
z
M 3481 434
Q 3481 -459 3084 -895
Q 2688 -1331 1869 -1331
Q 1566 -1331 1297 -1286
Q 1028 -1241 775 -1147
L 775 -588
Q 1028 -725 1275 -790
Q 1522 -856 1778 -856
Q 2344 -856 2625 -561
Q 2906 -266 2906 331
L 2906 616
Q 2728 306 2450 153
Q 2172 0 1784 0
Q 1141 0 747 490
Q 353 981 353 1791
Q 353 2603 747 3093
Q 1141 3584 1784 3584
Q 2172 3584 2450 3431
Q 2728 3278 2906 2969
L 2906 3500
L 3481 3500
L 3481 434
z
" transform="scale(0.015625)"/>
        <path id="DejaVuSans-6e" d="M 3513 2113
L 3513 0
L 2938 0
L 2938 2094
Q 2938 2591 2744 2837
Q 2550 3084 2163 3084
Q 1697 3084 1428 2787
Q 1159 2491 1159 1978
L 1159 0
L 581 0
L 581 3500
L 1159 3500
L 1159 2956
Q 1366 3272 1645 3428
Q 1925 3584 2291 3584
Q 2894 3584 3203 3211
Q 3513 2838 3513 2113
z
" transform="scale(0.015625)"/>
       </defs>
       <use xlink:href="#DejaVuSans-73"/>
       <use xlink:href="#DejaVuSans-69" transform="translate(52.099609 0)"/>
       <use xlink:href="#DejaVuSans-67" transform="translate(79.882812 0)"/>
       <use xlink:href="#DejaVuSans-6e" transform="translate(143.359375 0)"/>
       <use xlink:href="#DejaVuSans-69" transform="translate(206.738281 0)"/>
       <use xlink:href="#DejaVuSans-66" transform="translate(234.521484 0)"/>
       <use xlink:href="#DejaVuSans-20" transform="translate(269.726562 0)"/>
       <use xlink:href="#DejaVuSans-64" transform="translate(301.513672 0)"/>
       <use xlink:href="#DejaVuSans-31" transform="translate(364.990234 0)"/>
      </g>
     </g>
    </g>
    <g id="ytick_11">
     <g id="line2d_27">
      <path d="M 53.134 71.548483
L 513.216 71.548483
" clip-path="url(#p623f592cd2)" style="fill: none; stroke: #e6e6e6; stroke-width: 0.35; stroke-linecap: square"/>
     </g>
     <g id="line2d_28">
      <path d="M 53.134 71.548483
" style="fill: none; stroke: #333333; stroke-width: 1.5; stroke-linecap: square"/>
      <g>
       <use xlink:href="#m2efdd4d0e8" x="53.134" y="71.548483" style="fill: #333333; stroke: #333333"/>
      </g>
     </g>
     <g id="text_14">
      <!-- signif d2 -->
      <g style="fill: #4d4d4d" transform="translate(14.34525 74.587858) scale(0.08 -0.08)">
       <use xlink:href="#DejaVuSans-73"/>
       <use xlink:href="#DejaVuSans-69" transform="translate(52.099609 0)"/>
       <use xlink:href="#DejaVuSans-67" transform="translate(79.882812 0)"/>
       <use xlink:href="#DejaVuSans-6e" transform="translate(143.359375 0)"/>
       <use xlink:href="#DejaVuSans-69" transform="translate(206.738281 0)"/>
       <use xlink:href="#DejaVuSans-66" transform="translate(234.521484 0)"/>
       <use xlink:href="#DejaVuSans-20" transform="translate(269.726562 0)"/>
       <use xlink:href="#DejaVuSans-64" transform="translate(301.513672 0)"/>
       <use xlink:href="#DejaVuSans-32" transform="translate(364.990234 0)"/>
      </g>
     </g>
    </g>
    <g id="ytick_12">
     <g id="line2d_29">
      <path d="M 53.134 46.023682
L 513.216 46.023682
" clip-path="url(#p623f592cd2)" style="fill: none; stroke: #e6e6e6; stroke-width: 0.35; stroke-linecap: square"/>
     </g>
     <g id="line2d_30">
      <path d="M 53.134 46.023682
" style="fill: none; stroke: #333333; stroke-width: 1.5; stroke-linecap: square"/>
      <g>
       <use xlink:href="#m2efdd4d0e8" x="53.134" y="46.023682" style="fill: #333333; stroke: #333333"/>
      </g>
     </g>
     <g id="text_15">
      <!-- signif d5 -->
      <g style="fill: #4d4d4d" transform="translate(14.34525 49.063057) scale(0.08 -0.08)">
       <use xlink:href="#DejaVuSans-73"/>
       <use xlink:href="#DejaVuSans-69" transform="translate(52.099609 0)"/>
       <use xlink:href="#DejaVuSans-67" transform="translate(79.882812 0)"/>
       <use xlink:href="#DejaVuSans-6e" transform="translate(143.359375 0)"/>
       <use xlink:href="#DejaVuSans-69" transform="translate(206.738281 0)"/>
       <use xlink:href="#DejaVuSans-66" transform="translate(234.521484 0)"/>
       <use xlink:href="#DejaVuSans-20" transform="translate(269.726562 0)"/>
       <use xlink:href="#DejaVuSans-64" transform="translate(301.513672 0)"/>
       <use xlink:href="#DejaVuSans-35" transform="translate(364.990234 0)"/>
      </g>
     </g>
    </g>
    <g id="ytick_13">
     <g id="line2d_31">
      <path d="M 53.134 20.498881
L 513.216 20.498881
" clip-path="url(#p623f592cd2)" style="fill: none; stroke: #e6e6e6; stroke-width: 0.35; stroke-linecap: square"/>
     </g>
     <g id="line2d_32">
      <path d="M 53.134 20.498881
" style="fill: none; stroke: #333333; stroke-width: 1.5; stroke-linecap: square"/>
      <g>
       <use xlink:href="#m2efdd4d0e8" x="53.134" y="20.498881" style="fill: #333333; stroke: #333333"/>
      </g>
     </g>
     <g id="text_16">
      <!-- signif d10 -->
      <g style="fill: #4d4d4d" transform="translate(9.25525 23.538256) scale(0.08 -0.08)">
       <use xlink:href="#DejaVuSans-73"/>
       <use xlink:href="#DejaVuSans-69" transform="translate(52.099609 0)"/>
       <use xlink:href="#DejaVuSans-67" transform="translate(79.882812 0)"/>
       <use xlink:href="#DejaVuSans-6e" transform="translate(143.359375 0)"/>
       <use xlink:href="#DejaVuSans-69" transform="translate(206.738281 0)"/>
       <use xlink:href="#DejaVuSans-66" transform="translate(234.521484 0)"/>
       <use xlink:href="#DejaVuSans-20" transform="translate(269.726562 0)"/>
       <use xlink:href="#DejaVuSans-64" transform="translate(301.513672 0)"/>
       <use xlink:href="#DejaVuSans-31" transform="translate(364.990234 0)"/>
       <use xlink:href="#DejaVuSans-30" transform="translate(428.613281 0)"/>
      </g>
     </g>
    </g>
   </g>
   <g id="LineCollection_1">
    <path d="M 166.729119 326.796494
L 272.252905 326.796494
" clip-path="url(#p623f592cd2)" style="fill: none; stroke: #004d40; stroke-width: 2.215567"/>
   </g>
   <g id="LineCollection_2">
    <path d="M 393.733368 301.271693
L 453.389545 301.271693
" clip-path="url(#p623f592cd2)" style="fill: none; stroke: #004d40; stroke-width: 2.215567"/>
   </g>
   <g id="LineCollection_3">
    <path d="M 342.051256 275.746892
L 408.162578 275.746892
" clip-path="url(#p623f592cd2)" style="fill: none; stroke: #004d40; stroke-width: 2.215567"/>
   </g>
   <g id="LineCollection_4">
    <path d="M 355.487715 250.222091
L 409.269464 250.222091
" clip-path="url(#p623f592cd2)" style="fill: none; stroke: #004d40; stroke-width: 2.215567"/>
   </g>
   <g id="LineCollection_5">
    <path d="M 346.228418 224.69729
L 406.929108 224.69729
" clip-path="url(#p623f592cd2)" style="fill: none; stroke: #004d40; stroke-width: 2.215567"/>
   </g>
   <g id="LineCollection_6">
    <path d="M 434.987149 199.172489
L 476.014567 199.172489
" clip-path="url(#p623f592cd2)" style="fill: none; stroke: #004d40; stroke-width: 2.215567"/>
   </g>
   <g id="LineCollection_7">
    <path d="M 403.337922 173.647688
L 450.668988 173.647688
" clip-path="url(#p623f592cd2)" style="fill: none; stroke: #004d40; stroke-width: 2.215567"/>
   </g>
   <g id="LineCollection_8">
    <path d="M 405.926211 148.122886
L 451.326632 148.122886
" clip-path="url(#p623f592cd2)" style="fill: none; stroke: #004d40; stroke-width: 2.215567"/>
   </g>
   <g id="LineCollection_9">
    <path d="M 433.101163 122.598085
L 492.303182 122.598085
" clip-path="url(#p623f592cd2)" style="fill: none; stroke: #004d40; stroke-width: 2.215567"/>
   </g>
   <g id="LineCollection_10">
    <path d="M 125.88149 97.073284
L 163.507535 97.073284
" clip-path="url(#p623f592cd2)" style="fill: none; stroke: #004d40; stroke-width: 2.215567"/>
   </g>
   <g id="LineCollection_11">
    <path d="M 114.394119 71.548483
L 156.154379 71.548483
" clip-path="url(#p623f592cd2)" style="fill: none; stroke: #004d40; stroke-width: 2.215567"/>
   </g>
   <g id="LineCollection_12">
    <path d="M 112.935331 46.023682
L 157.162724 46.023682
" clip-path="url(#p623f592cd2)" style="fill: none; stroke: #004d40; stroke-width: 2.215567"/>
   </g>
   <g id="LineCollection_13">
    <path d="M 112.939115 20.498881
L 151.299468 20.498881
" clip-path="url(#p623f592cd2)" style="fill: none; stroke: #004d40; stroke-width: 2.215567"/>
   </g>
   <g id="PathCollection_1">
    <path d="M 201.768912 329.366552
C 202.450499 329.366552 203.104262 329.095755 203.586217 328.6138
C 204.068172 328.131845 204.33897 327.478082 204.33897 326.796494
C 204.33897 326.114907 204.068172 325.461144 203.586217 324.979189
C 203.104262 324.497234 202.450499 324.226436 201.768912 324.226436
C 201.087324 324.226436 200.433561 324.497234 199.951606 324.979189
C 199.469651 325.461144 199.198854 326.114907 199.198854 326.796494
C 199.198854 327.478082 199.469651 328.131845 199.951606 328.6138
C 200.433561 329.095755 201.087324 329.366552 201.768912 329.366552
z
" clip-path="url(#p623f592cd2)" style="fill: #d81b60; stroke: #d81b60; stroke-width: 0.886227"/>
    <path d="M 427.616156 303.841751
C 428.297743 303.841751 428.951506 303.570954 429.433461 303.088999
C 429.915416 302.607044 430.186214 301.953281 430.186214 301.271693
C 430.186214 300.590106 429.915416 299.936343 429.433461 299.454388
C 428.951506 298.972433 428.297743 298.701635 427.616156 298.701635
C 426.934568 298.701635 426.280805 298.972433 425.79885 299.454388
C 425.316895 299.936343 425.046097 300.590106 425.046097 301.271693
C 425.046097 301.953281 425.316895 302.607044 425.79885 303.088999
C 426.280805 303.570954 426.934568 303.841751 427.616156 303.841751
z
" clip-path="url(#p623f592cd2)" style="fill: #d81b60; stroke: #d81b60; stroke-width: 0.886227"/>
    <path d="M 380.661836 278.31695
C 381.343423 278.31695 381.997186 278.046153 382.479141 277.564198
C 382.961097 277.082242 383.231894 276.428479 383.231894 275.746892
C 383.231894 275.065305 382.961097 274.411542 382.479141 273.929587
C 381.997186 273.447631 381.343423 273.176834 380.661836 273.176834
C 379.980249 273.176834 379.326486 273.447631 378.84453 273.929587
C 378.362575 274.411542 378.091778 275.065305 378.091778 275.746892
C 378.091778 276.428479 378.362575 277.082242 378.84453 277.564198
C 379.326486 278.046153 379.980249 278.31695 380.661836 278.31695
z
" clip-path="url(#p623f592cd2)" style="fill: #d81b60; stroke: #d81b60; stroke-width: 0.886227"/>
    <path d="M 384.695026 252.792149
C 385.376614 252.792149 386.030377 252.521351 386.512332 252.039396
C 386.994287 251.557441 387.265084 250.903678 387.265084 250.222091
C 387.265084 249.540504 386.994287 248.88674 386.512332 248.404785
C 386.030377 247.92283 385.376614 247.652033 384.695026 247.652033
C 384.013439 247.652033 383.359676 247.92283 382.877721 248.404785
C 382.395766 248.88674 382.124968 249.540504 382.124968 250.222091
C 382.124968 250.903678 382.395766 251.557441 382.877721 252.039396
C 383.359676 252.521351 384.013439 252.792149 384.695026 252.792149
z
" clip-path="url(#p623f592cd2)" style="fill: #d81b60; stroke: #d81b60; stroke-width: 0.886227"/>
    <path d="M 381.530595 227.267348
C 382.212183 227.267348 382.865946 226.99655 383.347901 226.514595
C 383.829856 226.03264 384.100654 225.378877 384.100654 224.69729
C 384.100654 224.015702 383.829856 223.361939 383.347901 222.879984
C 382.865946 222.398029 382.212183 222.127232 381.530595 222.127232
C 380.849008 222.127232 380.195245 222.398029 379.71329 222.879984
C 379.231335 223.361939 378.960537 224.015702 378.960537 224.69729
C 378.960537 225.378877 379.231335 226.03264 379.71329 226.514595
C 380.195245 226.99655 380.849008 227.267348 381.530595 227.267348
z
" clip-path="url(#p623f592cd2)" style="fill: #d81b60; stroke: #d81b60; stroke-width: 0.886227"/>
    <path d="M 459.912904 201.742547
C 460.594492 201.742547 461.248255 201.471749 461.73021 200.989794
C 462.212165 200.507839 462.482962 199.854076 462.482962 199.172489
C 462.482962 198.490901 462.212165 197.837138 461.73021 197.355183
C 461.248255 196.873228 460.594492 196.602431 459.912904 196.602431
C 459.231317 196.602431 458.577554 196.873228 458.095599 197.355183
C 457.613644 197.837138 457.342846 198.490901 457.342846 199.172489
C 457.342846 199.854076 457.613644 200.507839 458.095599 200.989794
C 458.577554 201.471749 459.231317 201.742547 459.912904 201.742547
z
" clip-path="url(#p623f592cd2)" style="fill: #d81b60; stroke: #d81b60; stroke-width: 0.886227"/>
    <path d="M 431.700155 176.217746
C 432.381743 176.217746 433.035506 175.946948 433.517461 175.464993
C 433.999416 174.983038 434.270213 174.329275 434.270213 173.647688
C 434.270213 172.9661 433.999416 172.312337 433.517461 171.830382
C 433.035506 171.348427 432.381743 171.077629 431.700155 171.077629
C 431.018568 171.077629 430.364805 171.348427 429.88285 171.830382
C 429.400895 172.312337 429.130097 172.9661 429.130097 173.647688
C 429.130097 174.329275 429.400895 174.983038 429.88285 175.464993
C 430.364805 175.946948 431.018568 176.217746 431.700155 176.217746
z
" clip-path="url(#p623f592cd2)" style="fill: #d81b60; stroke: #d81b60; stroke-width: 0.886227"/>
    <path d="M 432.687805 150.692944
C 433.369393 150.692944 434.023156 150.422147 434.505111 149.940192
C 434.987066 149.458237 435.257863 148.804474 435.257863 148.122886
C 435.257863 147.441299 434.987066 146.787536 434.505111 146.305581
C 434.023156 145.823626 433.369393 145.552828 432.687805 145.552828
C 432.006218 145.552828 431.352455 145.823626 430.8705 146.305581
C 430.388545 146.787536 430.117747 147.441299 430.117747 148.122886
C 430.117747 148.804474 430.388545 149.458237 430.8705 149.940192
C 431.352455 150.422147 432.006218 150.692944 432.687805 150.692944
z
" clip-path="url(#p623f592cd2)" style="fill: #d81b60; stroke: #d81b60; stroke-width: 0.886227"/>
    <path d="M 452.581567 125.168143
C 453.263155 125.168143 453.916918 124.897346 454.398873 124.415391
C 454.880828 123.933436 455.151625 123.279673 455.151625 122.598085
C 455.151625 121.916498 454.880828 121.262735 454.398873 120.78078
C 453.916918 120.298825 453.263155 120.028027 452.581567 120.028027
C 451.89998 120.028027 451.246217 120.298825 450.764262 120.78078
C 450.282307 121.262735 450.011509 121.916498 450.011509 122.598085
C 450.011509 123.279673 450.282307 123.933436 450.764262 124.415391
C 451.246217 124.897346 451.89998 125.168143 452.581567 125.168143
z
" clip-path="url(#p623f592cd2)" style="fill: #d81b60; stroke: #d81b60; stroke-width: 0.886227"/>
    <path d="M 145.815769 99.643342
C 146.497356 99.643342 147.151119 99.372545 147.633074 98.89059
C 148.115029 98.408635 148.385827 97.754871 148.385827 97.073284
C 148.385827 96.391697 148.115029 95.737934 147.633074 95.255979
C 147.151119 94.774024 146.497356 94.503226 145.815769 94.503226
C 145.134181 94.503226 144.480418 94.774024 143.998463 95.255979
C 143.516508 95.737934 143.245711 96.391697 143.245711 97.073284
C 143.245711 97.754871 143.516508 98.408635 143.998463 98.89059
C 144.480418 99.372545 145.134181 99.643342 145.815769 99.643342
z
" clip-path="url(#p623f592cd2)" style="fill: #d81b60; stroke: #d81b60; stroke-width: 0.886227"/>
    <path d="M 135.316414 74.118541
C 135.998001 74.118541 136.651765 73.847744 137.13372 73.365788
C 137.615675 72.883833 137.886472 72.23007 137.886472 71.548483
C 137.886472 70.866896 137.615675 70.213133 137.13372 69.731177
C 136.651765 69.249222 135.998001 68.978425 135.316414 68.978425
C 134.634827 68.978425 133.981064 69.249222 133.499109 69.731177
C 133.017154 70.213133 132.746356 70.866896 132.746356 71.548483
C 132.746356 72.23007 133.017154 72.883833 133.499109 73.365788
C 133.981064 73.847744 134.634827 74.118541 135.316414 74.118541
z
" clip-path="url(#p623f592cd2)" style="fill: #d81b60; stroke: #d81b60; stroke-width: 0.886227"/>
    <path d="M 137.267952 48.59374
C 137.94954 48.59374 138.603303 48.322942 139.085258 47.840987
C 139.567213 47.359032 139.83801 46.705269 139.83801 46.023682
C 139.83801 45.342094 139.567213 44.688331 139.085258 44.206376
C 138.603303 43.724421 137.94954 43.453624 137.267952 43.453624
C 136.586365 43.453624 135.932602 43.724421 135.450647 44.206376
C 134.968692 44.688331 134.697894 45.342094 134.697894 46.023682
C 134.697894 46.705269 134.968692 47.359032 135.450647 47.840987
C 135.932602 48.322942 136.586365 48.59374 137.267952 48.59374
z
" clip-path="url(#p623f592cd2)" style="fill: #d81b60; stroke: #d81b60; stroke-width: 0.886227"/>
    <path d="M 136.070771 23.068939
C 136.752358 23.068939 137.406121 22.798141 137.888077 22.316186
C 138.370032 21.834231 138.640829 21.180468 138.640829 20.498881
C 138.640829 19.817293 138.370032 19.16353 137.888077 18.681575
C 137.406121 18.19962 136.752358 17.928823 136.070771 17.928823
C 135.389184 17.928823 134.735421 18.19962 134.253466 18.681575
C 133.77151 19.16353 133.500713 19.817293 133.500713 20.498881
C 133.500713 21.180468 133.77151 21.834231 134.253466 22.316186
C 134.735421 22.798141 135.389184 23.068939 136.070771 23.068939
z
" clip-path="url(#p623f592cd2)" style="fill: #d81b60; stroke: #d81b60; stroke-width: 0.886227"/>
   </g>
   <g id="PathCollection_2">
    <path d="M 454.696884 203.091339
C 455.213951 203.091339 455.709909 202.885907 456.07553 202.520286
C 456.441151 202.154665 456.646584 201.658706 456.646584 201.14164
C 456.646584 200.624574 456.441151 200.128616 456.07553 199.762995
C 455.709909 199.397373 455.213951 199.191941 454.696884 199.191941
C 454.179818 199.191941 453.68386 199.397373 453.318239 199.762995
C 452.952618 200.128616 452.747185 200.624574 452.747185 201.14164
C 452.747185 201.658706 452.952618 202.154665 453.318239 202.520286
C 453.68386 202.885907 454.179818 203.091339 454.696884 203.091339
z
" clip-path="url(#p623f592cd2)" style="fill: #ff655d; fill-opacity: 0.678431; stroke: #ff655d; stroke-opacity: 0.678431; stroke-width: 0.886227"/>
    <path d="M 428.137469 178.367937
C 428.654535 178.367937 429.150494 178.162504 429.516115 177.796883
C 429.881736 177.431262 430.087168 176.935304 430.087168 176.418238
C 430.087168 175.901171 429.881736 175.405213 429.516115 175.039592
C 429.150494 174.673971 428.654535 174.468539 428.137469 174.468539
C 427.620403 174.468539 427.124445 174.673971 426.758824 175.039592
C 426.393203 175.405213 426.18777 175.901171 426.18777 176.418238
C 426.18777 176.935304 426.393203 177.431262 426.758824 177.796883
C 427.124445 178.162504 427.620403 178.367937 428.137469 178.367937
z
" clip-path="url(#p623f592cd2)" style="fill: #ff655d; fill-opacity: 0.678431; stroke: #ff655d; stroke-opacity: 0.678431; stroke-width: 0.886227"/>
    <path d="M 426.072454 149.505603
C 426.58952 149.505603 427.085478 149.30017 427.451099 148.934549
C 427.81672 148.568928 428.022153 148.07297 428.022153 147.555904
C 428.022153 147.038837 427.81672 146.542879 427.451099 146.177258
C 427.085478 145.811637 426.58952 145.606204 426.072454 145.606204
C 425.555388 145.606204 425.059429 145.811637 424.693808 146.177258
C 424.328187 146.542879 424.122755 147.038837 424.122755 147.555904
C 424.122755 148.07297 424.328187 148.568928 424.693808 148.934549
C 425.059429 149.30017 425.555388 149.505603 426.072454 149.505603
z
" clip-path="url(#p623f592cd2)" style="fill: #ff655d; fill-opacity: 0.678431; stroke: #ff655d; stroke-opacity: 0.678431; stroke-width: 0.886227"/>
    <path d="M 433.101163 124.866393
C 433.61823 124.866393 434.114188 124.66096 434.479809 124.295339
C 434.84543 123.929718 435.050863 123.43376 435.050863 122.916693
C 435.050863 122.399627 434.84543 121.903669 434.479809 121.538048
C 434.114188 121.172427 433.61823 120.966994 433.101163 120.966994
C 432.584097 120.966994 432.088139 121.172427 431.722518 121.538048
C 431.356897 121.903669 431.151464 122.399627 431.151464 122.916693
C 431.151464 123.43376 431.356897 123.929718 431.722518 124.295339
C 432.088139 124.66096 432.584097 124.866393 433.101163 124.866393
z
" clip-path="url(#p623f592cd2)" style="fill: #ff655d; fill-opacity: 0.678431; stroke: #ff655d; stroke-opacity: 0.678431; stroke-width: 0.886227"/>
    <path d="M 411.339735 302.8671
C 411.856801 302.8671 412.352759 302.661667 412.71838 302.296046
C 413.084002 301.930425 413.289434 301.434467 413.289434 300.917401
C 413.289434 300.400334 413.084002 299.904376 412.71838 299.538755
C 412.352759 299.173134 411.856801 298.967701 411.339735 298.967701
C 410.822669 298.967701 410.32671 299.173134 409.961089 299.538755
C 409.595468 299.904376 409.390036 300.400334 409.390036 300.917401
C 409.390036 301.434467 409.595468 301.930425 409.961089 302.296046
C 410.32671 302.661667 410.822669 302.8671 411.339735 302.8671
z
" clip-path="url(#p623f592cd2)" style="fill: #ff655d; fill-opacity: 0.678431; stroke: #ff655d; stroke-opacity: 0.678431; stroke-width: 0.886227"/>
    <path d="M 365.084341 279.50321
C 365.601407 279.50321 366.097365 279.297778 366.462986 278.932157
C 366.828607 278.566535 367.03404 278.070577 367.03404 277.553511
C 367.03404 277.036445 366.828607 276.540486 366.462986 276.174865
C 366.097365 275.809244 365.601407 275.603812 365.084341 275.603812
C 364.567274 275.603812 364.071316 275.809244 363.705695 276.174865
C 363.340074 276.540486 363.134641 277.036445 363.134641 277.553511
C 363.134641 278.070577 363.340074 278.566535 363.705695 278.932157
C 364.071316 279.297778 364.567274 279.50321 365.084341 279.50321
z
" clip-path="url(#p623f592cd2)" style="fill: #ff655d; fill-opacity: 0.678431; stroke: #ff655d; stroke-opacity: 0.678431; stroke-width: 0.886227"/>
    <path d="M 366.74131 249.998091
C 367.258377 249.998091 367.754335 249.792659 368.119956 249.427038
C 368.485577 249.061417 368.691009 248.565458 368.691009 248.048392
C 368.691009 247.531326 368.485577 247.035368 368.119956 246.669747
C 367.754335 246.304125 367.258377 246.098693 366.74131 246.098693
C 366.224244 246.098693 365.728286 246.304125 365.362665 246.669747
C 364.997044 247.035368 364.791611 247.531326 364.791611 248.048392
C 364.791611 248.565458 364.997044 249.061417 365.362665 249.427038
C 365.728286 249.792659 366.224244 249.998091 366.74131 249.998091
z
" clip-path="url(#p623f592cd2)" style="fill: #ff655d; fill-opacity: 0.678431; stroke: #ff655d; stroke-opacity: 0.678431; stroke-width: 0.886227"/>
    <path d="M 368.962289 223.630272
C 369.479355 223.630272 369.975313 223.42484 370.340934 223.059219
C 370.706555 222.693598 370.911988 222.19764 370.911988 221.680573
C 370.911988 221.163507 370.706555 220.667549 370.340934 220.301928
C 369.975313 219.936307 369.479355 219.730874 368.962289 219.730874
C 368.445223 219.730874 367.949264 219.936307 367.583643 220.301928
C 367.218022 220.667549 367.01259 221.163507 367.01259 221.680573
C 367.01259 222.19764 367.218022 222.693598 367.583643 223.059219
C 367.949264 223.42484 368.445223 223.630272 368.962289 223.630272
z
" clip-path="url(#p623f592cd2)" style="fill: #ff655d; fill-opacity: 0.678431; stroke: #ff655d; stroke-opacity: 0.678431; stroke-width: 0.886227"/>
    <path d="M 272.252905 330.814741
C 272.769971 330.814741 273.265929 330.609308 273.63155 330.243687
C 273.997171 329.878066 274.202604 329.382108 274.202604 328.865042
C 274.202604 328.347975 273.997171 327.852017 273.63155 327.486396
C 273.265929 327.120775 272.769971 326.915342 272.252905 326.915342
C 271.735838 326.915342 271.23988 327.120775 270.874259 327.486396
C 270.508638 327.852017 270.303205 328.347975 270.303205 328.865042
C 270.303205 329.382108 270.508638 329.878066 270.874259 330.243687
C 271.23988 330.609308 271.735838 330.814741 272.252905 330.814741
z
" clip-path="url(#p623f592cd2)" style="fill: #ff655d; fill-opacity: 0.678431; stroke: #ff655d; stroke-opacity: 0.678431; stroke-width: 0.886227"/>
    <path d="M 142.598389 100.804464
C 143.115456 100.804464 143.611414 100.599031 143.977035 100.23341
C 144.342656 99.867789 144.548089 99.371831 144.548089 98.854765
C 144.548089 98.337698 144.342656 97.84174 143.977035 97.476119
C 143.611414 97.110498 143.115456 96.905065 142.598389 96.905065
C 142.081323 96.905065 141.585365 97.110498 141.219744 97.476119
C 140.854123 97.84174 140.64869 98.337698 140.64869 98.854765
C 140.64869 99.371831 140.854123 99.867789 141.219744 100.23341
C 141.585365 100.599031 142.081323 100.804464 142.598389 100.804464
z
" clip-path="url(#p623f592cd2)" style="fill: #ff655d; fill-opacity: 0.678431; stroke: #ff655d; stroke-opacity: 0.678431; stroke-width: 0.886227"/>
    <path d="M 125.927993 72.142809
C 126.44506 72.142809 126.941018 71.937377 127.306639 71.571755
C 127.67226 71.206134 127.877693 70.710176 127.877693 70.19311
C 127.877693 69.676044 127.67226 69.180085 127.306639 68.814464
C 126.941018 68.448843 126.44506 68.243411 125.927993 68.243411
C 125.410927 68.243411 124.914969 68.448843 124.549348 68.814464
C 124.183727 69.180085 123.978294 69.676044 123.978294 70.19311
C 123.978294 70.710176 124.183727 71.206134 124.549348 71.571755
C 124.914969 71.937377 125.410927 72.142809 125.927993 72.142809
z
" clip-path="url(#p623f592cd2)" style="fill: #ff655d; fill-opacity: 0.678431; stroke: #ff655d; stroke-opacity: 0.678431; stroke-width: 0.886227"/>
    <path d="M 128.128387 48.598158
C 128.645453 48.598158 129.141411 48.392725 129.507032 48.027104
C 129.872653 47.661483 130.078086 47.165525 130.078086 46.648459
C 130.078086 46.131392 129.872653 45.635434 129.507032 45.269813
C 129.141411 44.904192 128.645453 44.698759 128.128387 44.698759
C 127.61132 44.698759 127.115362 44.904192 126.749741 45.269813
C 126.38412 45.635434 126.178688 46.131392 126.178688 46.648459
C 126.178688 47.165525 126.38412 47.661483 126.749741 48.027104
C 127.115362 48.392725 127.61132 48.598158 128.128387 48.598158
z
" clip-path="url(#p623f592cd2)" style="fill: #ff655d; fill-opacity: 0.678431; stroke: #ff655d; stroke-opacity: 0.678431; stroke-width: 0.886227"/>
    <path d="M 132.237645 24.406863
C 132.754711 24.406863 133.250669 24.201431 133.61629 23.835809
C 133.981911 23.470188 134.187344 22.97423 134.187344 22.457164
C 134.187344 21.940098 133.981911 21.444139 133.61629 21.078518
C 133.250669 20.712897 132.754711 20.507465 132.237645 20.507465
C 131.720579 20.507465 131.22462 20.712897 130.858999 21.078518
C 130.493378 21.444139 130.287946 21.940098 130.287946 22.457164
C 130.287946 22.97423 130.493378 23.470188 130.858999 23.835809
C 131.22462 24.201431 131.720579 24.406863 132.237645 24.406863
z
" clip-path="url(#p623f592cd2)" style="fill: #ff655d; fill-opacity: 0.678431; stroke: #ff655d; stroke-opacity: 0.678431; stroke-width: 0.886227"/>
    <path d="M 473.953016 203.762096
C 474.470083 203.762096 474.966041 203.556663 475.331662 203.191042
C 475.697283 202.825421 475.902715 202.329463 475.902715 201.812397
C 475.902715 201.29533 475.697283 200.799372 475.331662 200.433751
C 474.966041 200.06813 474.470083 199.862698 473.953016 199.862698
C 473.43595 199.862698 472.939992 200.06813 472.574371 200.433751
C 472.20875 200.799372 472.003317 201.29533 472.003317 201.812397
C 472.003317 202.329463 472.20875 202.825421 472.574371 203.191042
C 472.939992 203.556663 473.43595 203.762096 473.953016 203.762096
z
" clip-path="url(#p623f592cd2)" style="fill: #ff655d; fill-opacity: 0.678431; stroke: #ff655d; stroke-opacity: 0.678431; stroke-width: 0.886227"/>
    <path d="M 444.656241 175.006487
C 445.173308 175.006487 445.669266 174.801055 446.034887 174.435434
C 446.400508 174.069812 446.605941 173.573854 446.605941 173.056788
C 446.605941 172.539722 446.400508 172.043764 446.034887 171.678142
C 445.669266 171.312521 445.173308 171.107089 444.656241 171.107089
C 444.139175 171.107089 443.643217 171.312521 443.277596 171.678142
C 442.911975 172.043764 442.706542 172.539722 442.706542 173.056788
C 442.706542 173.573854 442.911975 174.069812 443.277596 174.435434
C 443.643217 174.801055 444.139175 175.006487 444.656241 175.006487
z
" clip-path="url(#p623f592cd2)" style="fill: #ff655d; fill-opacity: 0.678431; stroke: #ff655d; stroke-opacity: 0.678431; stroke-width: 0.886227"/>
    <path d="M 447.425924 149.317807
C 447.94299 149.317807 448.438949 149.112375 448.80457 148.746753
C 449.170191 148.381132 449.375623 147.885174 449.375623 147.368108
C 449.375623 146.851042 449.170191 146.355083 448.80457 145.989462
C 448.438949 145.623841 447.94299 145.418409 447.425924 145.418409
C 446.908858 145.418409 446.4129 145.623841 446.047279 145.989462
C 445.681657 146.355083 445.476225 146.851042 445.476225 147.368108
C 445.476225 147.885174 445.681657 148.381132 446.047279 148.746753
C 446.4129 149.112375 446.908858 149.317807 447.425924 149.317807
z
" clip-path="url(#p623f592cd2)" style="fill: #ff655d; fill-opacity: 0.678431; stroke: #ff655d; stroke-opacity: 0.678431; stroke-width: 0.886227"/>
    <path d="M 447.618546 127.103395
C 448.135612 127.103395 448.63157 126.897963 448.997191 126.532342
C 449.362813 126.166721 449.568245 125.670762 449.568245 125.153696
C 449.568245 124.63663 449.362813 124.140672 448.997191 123.775051
C 448.63157 123.409429 448.135612 123.203997 447.618546 123.203997
C 447.10148 123.203997 446.605521 123.409429 446.2399 123.775051
C 445.874279 124.140672 445.668847 124.63663 445.668847 125.153696
C 445.668847 125.670762 445.874279 126.166721 446.2399 126.532342
C 446.605521 126.897963 447.10148 127.103395 447.618546 127.103395
z
" clip-path="url(#p623f592cd2)" style="fill: #ff655d; fill-opacity: 0.678431; stroke: #ff655d; stroke-opacity: 0.678431; stroke-width: 0.886227"/>
    <path d="M 452.001974 303.158779
C 452.51904 303.158779 453.014999 302.953347 453.38062 302.587726
C 453.746241 302.222105 453.951673 301.726146 453.951673 301.20908
C 453.951673 300.692014 453.746241 300.196056 453.38062 299.830435
C 453.014999 299.464814 452.51904 299.259381 452.001974 299.259381
C 451.484908 299.259381 450.98895 299.464814 450.623329 299.830435
C 450.257708 300.196056 450.052275 300.692014 450.052275 301.20908
C 450.052275 301.726146 450.257708 302.222105 450.623329 302.587726
C 450.98895 302.953347 451.484908 303.158779 452.001974 303.158779
z
" clip-path="url(#p623f592cd2)" style="fill: #ff655d; fill-opacity: 0.678431; stroke: #ff655d; stroke-opacity: 0.678431; stroke-width: 0.886227"/>
    <path d="M 407.34917 276.540805
C 407.866236 276.540805 408.362194 276.335373 408.727815 275.969752
C 409.093437 275.60413 409.298869 275.108172 409.298869 274.591106
C 409.298869 274.07404 409.093437 273.578081 408.727815 273.21246
C 408.362194 272.846839 407.866236 272.641407 407.34917 272.641407
C 406.832104 272.641407 406.336145 272.846839 405.970524 273.21246
C 405.604903 273.578081 405.399471 274.07404 405.399471 274.591106
C 405.399471 275.108172 405.604903 275.60413 405.970524 275.969752
C 406.336145 276.335373 406.832104 276.540805 407.34917 276.540805
z
" clip-path="url(#p623f592cd2)" style="fill: #ff655d; fill-opacity: 0.678431; stroke: #ff655d; stroke-opacity: 0.678431; stroke-width: 0.886227"/>
    <path d="M 407.281616 254.941932
C 407.798682 254.941932 408.29464 254.736499 408.660261 254.370878
C 409.025882 254.005257 409.231315 253.509299 409.231315 252.992233
C 409.231315 252.475166 409.025882 251.979208 408.660261 251.613587
C 408.29464 251.247966 407.798682 251.042533 407.281616 251.042533
C 406.764549 251.042533 406.268591 251.247966 405.90297 251.613587
C 405.537349 251.979208 405.331916 252.475166 405.331916 252.992233
C 405.331916 253.509299 405.537349 254.005257 405.90297 254.370878
C 406.268591 254.736499 406.764549 254.941932 407.281616 254.941932
z
" clip-path="url(#p623f592cd2)" style="fill: #ff655d; fill-opacity: 0.678431; stroke: #ff655d; stroke-opacity: 0.678431; stroke-width: 0.886227"/>
    <path d="M 406.929108 228.152943
C 407.446174 228.152943 407.942133 227.94751 408.307754 227.581889
C 408.673375 227.216268 408.878807 226.72031 408.878807 226.203244
C 408.878807 225.686177 408.673375 225.190219 408.307754 224.824598
C 407.942133 224.458977 407.446174 224.253544 406.929108 224.253544
C 406.412042 224.253544 405.916084 224.458977 405.550463 224.824598
C 405.184842 225.190219 404.979409 225.686177 404.979409 226.203244
C 404.979409 226.72031 405.184842 227.216268 405.550463 227.581889
C 405.916084 227.94751 406.412042 228.152943 406.929108 228.152943
z
" clip-path="url(#p623f592cd2)" style="fill: #ff655d; fill-opacity: 0.678431; stroke: #ff655d; stroke-opacity: 0.678431; stroke-width: 0.886227"/>
    <path d="M 170.118221 330.26671
C 170.635288 330.26671 171.131246 330.061278 171.496867 329.695657
C 171.862488 329.330036 172.067921 328.834078 172.067921 328.317011
C 172.067921 327.799945 171.862488 327.303987 171.496867 326.938366
C 171.131246 326.572745 170.635288 326.367312 170.118221 326.367312
C 169.601155 326.367312 169.105197 326.572745 168.739576 326.938366
C 168.373955 327.303987 168.168522 327.799945 168.168522 328.317011
C 168.168522 328.834078 168.373955 329.330036 168.739576 329.695657
C 169.105197 330.061278 169.601155 330.26671 170.118221 330.26671
z
" clip-path="url(#p623f592cd2)" style="fill: #ff655d; fill-opacity: 0.678431; stroke: #ff655d; stroke-opacity: 0.678431; stroke-width: 0.886227"/>
    <path d="M 163.507535 97.102869
C 164.024602 97.102869 164.52056 96.897436 164.886181 96.531815
C 165.251802 96.166194 165.457234 95.670236 165.457234 95.153169
C 165.457234 94.636103 165.251802 94.140145 164.886181 93.774524
C 164.52056 93.408903 164.024602 93.20347 163.507535 93.20347
C 162.990469 93.20347 162.494511 93.408903 162.12889 93.774524
C 161.763269 94.140145 161.557836 94.636103 161.557836 95.153169
C 161.557836 95.670236 161.763269 96.166194 162.12889 96.531815
C 162.494511 96.897436 162.990469 97.102869 163.507535 97.102869
z
" clip-path="url(#p623f592cd2)" style="fill: #ff655d; fill-opacity: 0.678431; stroke: #ff655d; stroke-opacity: 0.678431; stroke-width: 0.886227"/>
    <path d="M 156.154379 70.608504
C 156.671445 70.608504 157.167403 70.403071 157.533025 70.03745
C 157.898646 69.671829 158.104078 69.175871 158.104078 68.658805
C 158.104078 68.141738 157.898646 67.64578 157.533025 67.280159
C 157.167403 66.914538 156.671445 66.709105 156.154379 66.709105
C 155.637313 66.709105 155.141355 66.914538 154.775733 67.280159
C 154.410112 67.64578 154.20468 68.141738 154.20468 68.658805
C 154.20468 69.175871 154.410112 69.671829 154.775733 70.03745
C 155.141355 70.403071 155.637313 70.608504 156.154379 70.608504
z
" clip-path="url(#p623f592cd2)" style="fill: #ff655d; fill-opacity: 0.678431; stroke: #ff655d; stroke-opacity: 0.678431; stroke-width: 0.886227"/>
    <path d="M 157.162724 46.799858
C 157.679791 46.799858 158.175749 46.594426 158.54137 46.228805
C 158.906991 45.863184 159.112424 45.367225 159.112424 44.850159
C 159.112424 44.333093 158.906991 43.837135 158.54137 43.471513
C 158.175749 43.105892 157.679791 42.90046 157.162724 42.90046
C 156.645658 42.90046 156.1497 43.105892 155.784079 43.471513
C 155.418458 43.837135 155.213025 44.333093 155.213025 44.850159
C 155.213025 45.367225 155.418458 45.863184 155.784079 46.228805
C 156.1497 46.594426 156.645658 46.799858 157.162724 46.799858
z
" clip-path="url(#p623f592cd2)" style="fill: #ff655d; fill-opacity: 0.678431; stroke: #ff655d; stroke-opacity: 0.678431; stroke-width: 0.886227"/>
    <path d="M 151.299468 24.036983
C 151.816534 24.036983 152.312492 23.83155 152.678113 23.465929
C 153.043734 23.100308 153.249167 22.60435 153.249167 22.087283
C 153.249167 21.570217 153.043734 21.074259 152.678113 20.708638
C 152.312492 20.343017 151.816534 20.137584 151.299468 20.137584
C 150.782401 20.137584 150.286443 20.343017 149.920822 20.708638
C 149.555201 21.074259 149.349768 21.570217 149.349768 22.087283
C 149.349768 22.60435 149.555201 23.100308 149.920822 23.465929
C 150.286443 23.83155 150.782401 24.036983 151.299468 24.036983
z
" clip-path="url(#p623f592cd2)" style="fill: #ff655d; fill-opacity: 0.678431; stroke: #ff655d; stroke-opacity: 0.678431; stroke-width: 0.886227"/>
    <path d="M 434.987149 198.914825
C 435.504215 198.914825 436.000173 198.709392 436.365795 198.343771
C 436.731416 197.97815 436.936848 197.482192 436.936848 196.965126
C 436.936848 196.44806 436.731416 195.952101 436.365795 195.58648
C 436.000173 195.220859 435.504215 195.015427 434.987149 195.015427
C 434.470083 195.015427 433.974125 195.220859 433.608503 195.58648
C 433.242882 195.952101 433.03745 196.44806 433.03745 196.965126
C 433.03745 197.482192 433.242882 197.97815 433.608503 198.343771
C 433.974125 198.709392 434.470083 198.914825 434.987149 198.914825
z
" clip-path="url(#p623f592cd2)" style="fill: #ff655d; fill-opacity: 0.678431; stroke: #ff655d; stroke-opacity: 0.678431; stroke-width: 0.886227"/>
    <path d="M 403.337922 174.846231
C 403.854989 174.846231 404.350947 174.640798 404.716568 174.275177
C 405.082189 173.909556 405.287622 173.413598 405.287622 172.896531
C 405.287622 172.379465 405.082189 171.883507 404.716568 171.517886
C 404.350947 171.152265 403.854989 170.946832 403.337922 170.946832
C 402.820856 170.946832 402.324898 171.152265 401.959277 171.517886
C 401.593656 171.883507 401.388223 172.379465 401.388223 172.896531
C 401.388223 173.413598 401.593656 173.909556 401.959277 174.275177
C 402.324898 174.640798 402.820856 174.846231 403.337922 174.846231
z
" clip-path="url(#p623f592cd2)" style="fill: #ff655d; fill-opacity: 0.678431; stroke: #ff655d; stroke-opacity: 0.678431; stroke-width: 0.886227"/>
    <path d="M 405.926211 152.633327
C 406.443277 152.633327 406.939236 152.427894 407.304857 152.062273
C 407.670478 151.696652 407.87591 151.200694 407.87591 150.683628
C 407.87591 150.166561 407.670478 149.670603 407.304857 149.304982
C 406.939236 148.939361 406.443277 148.733928 405.926211 148.733928
C 405.409145 148.733928 404.913187 148.939361 404.547566 149.304982
C 404.181944 149.670603 403.976512 150.166561 403.976512 150.683628
C 403.976512 151.200694 404.181944 151.696652 404.547566 152.062273
C 404.913187 152.427894 405.409145 152.633327 405.926211 152.633327
z
" clip-path="url(#p623f592cd2)" style="fill: #ff655d; fill-opacity: 0.678431; stroke: #ff655d; stroke-opacity: 0.678431; stroke-width: 0.886227"/>
    <path d="M 492.303182 124.887276
C 492.820248 124.887276 493.316206 124.681844 493.681827 124.316223
C 494.047448 123.950601 494.252881 123.454643 494.252881 122.937577
C 494.252881 122.420511 494.047448 121.924552 493.681827 121.558931
C 493.316206 121.19331 492.820248 120.987878 492.303182 120.987878
C 491.786116 120.987878 491.290157 121.19331 490.924536 121.558931
C 490.558915 121.924552 490.353483 122.420511 490.353483 122.937577
C 490.353483 123.454643 490.558915 123.950601 490.924536 124.316223
C 491.290157 124.681844 491.786116 124.887276 492.303182 124.887276
z
" clip-path="url(#p623f592cd2)" style="fill: #ff655d; fill-opacity: 0.678431; stroke: #ff655d; stroke-opacity: 0.678431; stroke-width: 0.886227"/>
    <path d="M 393.733368 301.240588
C 394.250434 301.240588 394.746392 301.035155 395.112013 300.669534
C 395.477634 300.303913 395.683067 299.807955 395.683067 299.290889
C 395.683067 298.773822 395.477634 298.277864 395.112013 297.912243
C 394.746392 297.546622 394.250434 297.341189 393.733368 297.341189
C 393.216301 297.341189 392.720343 297.546622 392.354722 297.912243
C 391.989101 298.277864 391.783668 298.773822 391.783668 299.290889
C 391.783668 299.807955 391.989101 300.303913 392.354722 300.669534
C 392.720343 301.035155 393.216301 301.240588 393.733368 301.240588
z
" clip-path="url(#p623f592cd2)" style="fill: #ff655d; fill-opacity: 0.678431; stroke: #ff655d; stroke-opacity: 0.678431; stroke-width: 0.886227"/>
    <path d="M 342.051256 274.684873
C 342.568322 274.684873 343.06428 274.47944 343.429901 274.113819
C 343.795522 273.748198 344.000955 273.25224 344.000955 272.735174
C 344.000955 272.218107 343.795522 271.722149 343.429901 271.356528
C 343.06428 270.990907 342.568322 270.785474 342.051256 270.785474
C 341.534189 270.785474 341.038231 270.990907 340.67261 271.356528
C 340.306989 271.722149 340.101556 272.218107 340.101556 272.735174
C 340.101556 273.25224 340.306989 273.748198 340.67261 274.113819
C 341.038231 274.47944 341.534189 274.684873 342.051256 274.684873
z
" clip-path="url(#p623f592cd2)" style="fill: #ff655d; fill-opacity: 0.678431; stroke: #ff655d; stroke-opacity: 0.678431; stroke-width: 0.886227"/>
    <path d="M 355.487715 253.284332
C 356.004781 253.284332 356.500739 253.078899 356.86636 252.713278
C 357.231981 252.347657 357.437414 251.851699 357.437414 251.334633
C 357.437414 250.817566 357.231981 250.321608 356.86636 249.955987
C 356.500739 249.590366 356.004781 249.384933 355.487715 249.384933
C 354.970649 249.384933 354.47469 249.590366 354.109069 249.955987
C 353.743448 250.321608 353.538016 250.817566 353.538016 251.334633
C 353.538016 251.851699 353.743448 252.347657 354.109069 252.713278
C 354.47469 253.078899 354.970649 253.284332 355.487715 253.284332
z
" clip-path="url(#p623f592cd2)" style="fill: #ff655d; fill-opacity: 0.678431; stroke: #ff655d; stroke-opacity: 0.678431; stroke-width: 0.886227"/>
    <path d="M 346.228418 224.421032
C 346.745484 224.421032 347.241442 224.2156 347.607064 223.849978
C 347.972685 223.484357 348.178117 222.988399 348.178117 222.471333
C 348.178117 221.954267 347.972685 221.458308 347.607064 221.092687
C 347.241442 220.727066 346.745484 220.521634 346.228418 220.521634
C 345.711352 220.521634 345.215394 220.727066 344.849772 221.092687
C 344.484151 221.458308 344.278719 221.954267 344.278719 222.471333
C 344.278719 222.988399 344.484151 223.484357 344.849772 223.849978
C 345.215394 224.2156 345.711352 224.421032 346.228418 224.421032
z
" clip-path="url(#p623f592cd2)" style="fill: #ff655d; fill-opacity: 0.678431; stroke: #ff655d; stroke-opacity: 0.678431; stroke-width: 0.886227"/>
    <path d="M 197.975402 331.706515
C 198.492468 331.706515 198.988426 331.501083 199.354048 331.135461
C 199.719669 330.76984 199.925101 330.273882 199.925101 329.756816
C 199.925101 329.23975 199.719669 328.743791 199.354048 328.37817
C 198.988426 328.012549 198.492468 327.807117 197.975402 327.807117
C 197.458336 327.807117 196.962377 328.012549 196.596756 328.37817
C 196.231135 328.743791 196.025703 329.23975 196.025703 329.756816
C 196.025703 330.273882 196.231135 330.76984 196.596756 331.135461
C 196.962377 331.501083 197.458336 331.706515 197.975402 331.706515
z
" clip-path="url(#p623f592cd2)" style="fill: #ff655d; fill-opacity: 0.678431; stroke: #ff655d; stroke-opacity: 0.678431; stroke-width: 0.886227"/>
    <path d="M 125.88149 102.074948
C 126.398556 102.074948 126.894515 101.869516 127.260136 101.503894
C 127.625757 101.138273 127.831189 100.642315 127.831189 100.125249
C 127.831189 99.608183 127.625757 99.112224 127.260136 98.746603
C 126.894515 98.380982 126.398556 98.17555 125.88149 98.17555
C 125.364424 98.17555 124.868466 98.380982 124.502845 98.746603
C 124.137224 99.112224 123.931791 99.608183 123.931791 100.125249
C 123.931791 100.642315 124.137224 101.138273 124.502845 101.503894
C 124.868466 101.869516 125.364424 102.074948 125.88149 102.074948
z
" clip-path="url(#p623f592cd2)" style="fill: #ff655d; fill-opacity: 0.678431; stroke: #ff655d; stroke-opacity: 0.678431; stroke-width: 0.886227"/>
    <path d="M 114.394119 71.340915
C 114.911185 71.340915 115.407143 71.135483 115.772764 70.769862
C 116.138385 70.404241 116.343818 69.908282 116.343818 69.391216
C 116.343818 68.87415 116.138385 68.378192 115.772764 68.01257
C 115.407143 67.646949 114.911185 67.441517 114.394119 67.441517
C 113.877052 67.441517 113.381094 67.646949 113.015473 68.01257
C 112.649852 68.378192 112.444419 68.87415 112.444419 69.391216
C 112.444419 69.908282 112.649852 70.404241 113.015473 70.769862
C 113.381094 71.135483 113.877052 71.340915 114.394119 71.340915
z
" clip-path="url(#p623f592cd2)" style="fill: #ff655d; fill-opacity: 0.678431; stroke: #ff655d; stroke-opacity: 0.678431; stroke-width: 0.886227"/>
    <path d="M 112.935331 50.509849
C 113.452397 50.509849 113.948355 50.304416 114.313977 49.938795
C 114.679598 49.573174 114.88503 49.077216 114.88503 48.560149
C 114.88503 48.043083 114.679598 47.547125 114.313977 47.181504
C 113.948355 46.815883 113.452397 46.61045 112.935331 46.61045
C 112.418265 46.61045 111.922307 46.815883 111.556685 47.181504
C 111.191064 47.547125 110.985632 48.043083 110.985632 48.560149
C 110.985632 49.077216 111.191064 49.573174 111.556685 49.938795
C 111.922307 50.304416 112.418265 50.509849 112.935331 50.509849
z
" clip-path="url(#p623f592cd2)" style="fill: #ff655d; fill-opacity: 0.678431; stroke: #ff655d; stroke-opacity: 0.678431; stroke-width: 0.886227"/>
    <path d="M 112.939115 25.135814
C 113.456182 25.135814 113.95214 24.930382 114.317761 24.564761
C 114.683382 24.19914 114.888815 23.703181 114.888815 23.186115
C 114.888815 22.669049 114.683382 22.173091 114.317761 21.80747
C 113.95214 21.441849 113.456182 21.236416 112.939115 21.236416
C 112.422049 21.236416 111.926091 21.441849 111.56047 21.80747
C 111.194849 22.173091 110.989416 22.669049 110.989416 23.186115
C 110.989416 23.703181 111.194849 24.19914 111.56047 24.564761
C 111.926091 24.930382 112.422049 25.135814 112.939115 25.135814
z
" clip-path="url(#p623f592cd2)" style="fill: #ff655d; fill-opacity: 0.678431; stroke: #ff655d; stroke-opacity: 0.678431; stroke-width: 0.886227"/>
    <path d="M 476.014567 202.002387
C 476.531633 202.002387 477.027592 201.796955 477.393213 201.431333
C 477.758834 201.065712 477.964266 200.569754 477.964266 200.052688
C 477.964266 199.535622 477.758834 199.039663 477.393213 198.674042
C 477.027592 198.308421 476.531633 198.102989 476.014567 198.102989
C 475.497501 198.102989 475.001543 198.308421 474.635922 198.674042
C 474.2703 199.039663 474.064868 199.535622 474.064868 200.052688
C 474.064868 200.569754 474.2703 201.065712 474.635922 201.431333
C 475.001543 201.796955 475.497501 202.002387 476.014567 202.002387
z
" clip-path="url(#p623f592cd2)" style="fill: #ff655d; fill-opacity: 0.678431; stroke: #ff655d; stroke-opacity: 0.678431; stroke-width: 0.886227"/>
    <path d="M 450.668988 177.464395
C 451.186054 177.464395 451.682013 177.258963 452.047634 176.893342
C 452.413255 176.52772 452.618687 176.031762 452.618687 175.514696
C 452.618687 174.99763 452.413255 174.501672 452.047634 174.13605
C 451.682013 173.770429 451.186054 173.564997 450.668988 173.564997
C 450.151922 173.564997 449.655964 173.770429 449.290343 174.13605
C 448.924721 174.501672 448.719289 174.99763 448.719289 175.514696
C 448.719289 176.031762 448.924721 176.52772 449.290343 176.893342
C 449.655964 177.258963 450.151922 177.464395 450.668988 177.464395
z
" clip-path="url(#p623f592cd2)" style="fill: #ff655d; fill-opacity: 0.678431; stroke: #ff655d; stroke-opacity: 0.678431; stroke-width: 0.886227"/>
    <path d="M 451.326632 147.532485
C 451.843698 147.532485 452.339656 147.327052 452.705277 146.961431
C 453.070898 146.59581 453.276331 146.099852 453.276331 145.582785
C 453.276331 145.065719 453.070898 144.569761 452.705277 144.20414
C 452.339656 143.838519 451.843698 143.633086 451.326632 143.633086
C 450.809565 143.633086 450.313607 143.838519 449.947986 144.20414
C 449.582365 144.569761 449.376932 145.065719 449.376932 145.582785
C 449.376932 146.099852 449.582365 146.59581 449.947986 146.961431
C 450.313607 147.327052 450.809565 147.532485 451.326632 147.532485
z
" clip-path="url(#p623f592cd2)" style="fill: #ff655d; fill-opacity: 0.678431; stroke: #ff655d; stroke-opacity: 0.678431; stroke-width: 0.886227"/>
    <path d="M 437.303378 122.080694
C 437.820444 122.080694 438.316403 121.875261 438.682024 121.50964
C 439.047645 121.144019 439.253077 120.648061 439.253077 120.130995
C 439.253077 119.613929 439.047645 119.11797 438.682024 118.752349
C 438.316403 118.386728 437.820444 118.181296 437.303378 118.181296
C 436.786312 118.181296 436.290354 118.386728 435.924733 118.752349
C 435.559112 119.11797 435.353679 119.613929 435.353679 120.130995
C 435.353679 120.648061 435.559112 121.144019 435.924733 121.50964
C 436.290354 121.875261 436.786312 122.080694 437.303378 122.080694
z
" clip-path="url(#p623f592cd2)" style="fill: #ff655d; fill-opacity: 0.678431; stroke: #ff655d; stroke-opacity: 0.678431; stroke-width: 0.886227"/>
    <path d="M 453.389545 300.257699
C 453.906612 300.257699 454.40257 300.052267 454.768191 299.686646
C 455.133812 299.321025 455.339245 298.825066 455.339245 298.308
C 455.339245 297.790934 455.133812 297.294976 454.768191 296.929355
C 454.40257 296.563733 453.906612 296.358301 453.389545 296.358301
C 452.872479 296.358301 452.376521 296.563733 452.0109 296.929355
C 451.645279 297.294976 451.439846 297.790934 451.439846 298.308
C 451.439846 298.825066 451.645279 299.321025 452.0109 299.686646
C 452.376521 300.052267 452.872479 300.257699 453.389545 300.257699
z
" clip-path="url(#p623f592cd2)" style="fill: #ff655d; fill-opacity: 0.678431; stroke: #ff655d; stroke-opacity: 0.678431; stroke-width: 0.886227"/>
    <path d="M 408.162578 278.616534
C 408.679644 278.616534 409.175602 278.411101 409.541223 278.04548
C 409.906844 277.679859 410.112277 277.183901 410.112277 276.666835
C 410.112277 276.149769 409.906844 275.65381 409.541223 275.288189
C 409.175602 274.922568 408.679644 274.717136 408.162578 274.717136
C 407.645511 274.717136 407.149553 274.922568 406.783932 275.288189
C 406.418311 275.65381 406.212878 276.149769 406.212878 276.666835
C 406.212878 277.183901 406.418311 277.679859 406.783932 278.04548
C 407.149553 278.411101 407.645511 278.616534 408.162578 278.616534
z
" clip-path="url(#p623f592cd2)" style="fill: #ff655d; fill-opacity: 0.678431; stroke: #ff655d; stroke-opacity: 0.678431; stroke-width: 0.886227"/>
    <path d="M 409.269464 253.292368
C 409.78653 253.292368 410.282488 253.086935 410.64811 252.721314
C 411.013731 252.355693 411.219163 251.859735 411.219163 251.342669
C 411.219163 250.825603 411.013731 250.329644 410.64811 249.964023
C 410.282488 249.598402 409.78653 249.39297 409.269464 249.39297
C 408.752398 249.39297 408.25644 249.598402 407.890818 249.964023
C 407.525197 250.329644 407.319765 250.825603 407.319765 251.342669
C 407.319765 251.859735 407.525197 252.355693 407.890818 252.721314
C 408.25644 253.086935 408.752398 253.292368 409.269464 253.292368
z
" clip-path="url(#p623f592cd2)" style="fill: #ff655d; fill-opacity: 0.678431; stroke: #ff655d; stroke-opacity: 0.678431; stroke-width: 0.886227"/>
    <path d="M 404.002567 224.980683
C 404.519633 224.980683 405.015591 224.77525 405.381213 224.409629
C 405.746834 224.044008 405.952266 223.54805 405.952266 223.030984
C 405.952266 222.513917 405.746834 222.017959 405.381213 221.652338
C 405.015591 221.286717 404.519633 221.081285 404.002567 221.081285
C 403.485501 221.081285 402.989542 221.286717 402.623921 221.652338
C 402.2583 222.017959 402.052868 222.513917 402.052868 223.030984
C 402.052868 223.54805 402.2583 224.044008 402.623921 224.409629
C 402.989542 224.77525 403.485501 224.980683 404.002567 224.980683
z
" clip-path="url(#p623f592cd2)" style="fill: #ff655d; fill-opacity: 0.678431; stroke: #ff655d; stroke-opacity: 0.678431; stroke-width: 0.886227"/>
    <path d="M 166.729119 329.193039
C 167.246186 329.193039 167.742144 328.987607 168.107765 328.621986
C 168.473386 328.256365 168.678819 327.760406 168.678819 327.24334
C 168.678819 326.726274 168.473386 326.230316 168.107765 325.864695
C 167.742144 325.499073 167.246186 325.293641 166.729119 325.293641
C 166.212053 325.293641 165.716095 325.499073 165.350474 325.864695
C 164.984853 326.230316 164.77942 326.726274 164.77942 327.24334
C 164.77942 327.760406 164.984853 328.256365 165.350474 328.621986
C 165.716095 328.987607 166.212053 329.193039 166.729119 329.193039
z
" clip-path="url(#p623f592cd2)" style="fill: #ff655d; fill-opacity: 0.678431; stroke: #ff655d; stroke-opacity: 0.678431; stroke-width: 0.886227"/>
    <path d="M 151.27566 99.340384
C 151.792727 99.340384 152.288685 99.134952 152.654306 98.76933
C 153.019927 98.403709 153.22536 97.907751 153.22536 97.390685
C 153.22536 96.873619 153.019927 96.37766 152.654306 96.012039
C 152.288685 95.646418 151.792727 95.440986 151.27566 95.440986
C 150.758594 95.440986 150.262636 95.646418 149.897015 96.012039
C 149.531394 96.37766 149.325961 96.873619 149.325961 97.390685
C 149.325961 97.907751 149.531394 98.403709 149.897015 98.76933
C 150.262636 99.134952 150.758594 99.340384 151.27566 99.340384
z
" clip-path="url(#p623f592cd2)" style="fill: #ff655d; fill-opacity: 0.678431; stroke: #ff655d; stroke-opacity: 0.678431; stroke-width: 0.886227"/>
    <path d="M 144.789165 71.267335
C 145.306232 71.267335 145.80219 71.061903 146.167811 70.696282
C 146.533432 70.330661 146.738865 69.834702 146.738865 69.317636
C 146.738865 68.80057 146.533432 68.304612 146.167811 67.938991
C 145.80219 67.57337 145.306232 67.367937 144.789165 67.367937
C 144.272099 67.367937 143.776141 67.57337 143.41052 67.938991
C 143.044899 68.304612 142.839466 68.80057 142.839466 69.317636
C 142.839466 69.834702 143.044899 70.330661 143.41052 70.696282
C 143.776141 71.061903 144.272099 71.267335 144.789165 71.267335
z
" clip-path="url(#p623f592cd2)" style="fill: #ff655d; fill-opacity: 0.678431; stroke: #ff655d; stroke-opacity: 0.678431; stroke-width: 0.886227"/>
    <path d="M 150.845367 48.094765
C 151.362433 48.094765 151.858391 47.889333 152.224012 47.523712
C 152.589633 47.158091 152.795066 46.662132 152.795066 46.145066
C 152.795066 45.628 152.589633 45.132042 152.224012 44.766421
C 151.858391 44.4008 151.362433 44.195367 150.845367 44.195367
C 150.328301 44.195367 149.832342 44.4008 149.466721 44.766421
C 149.1011 45.132042 148.895668 45.628 148.895668 46.145066
C 148.895668 46.662132 149.1011 47.158091 149.466721 47.523712
C 149.832342 47.889333 150.328301 48.094765 150.845367 48.094765
z
" clip-path="url(#p623f592cd2)" style="fill: #ff655d; fill-opacity: 0.678431; stroke: #ff655d; stroke-opacity: 0.678431; stroke-width: 0.886227"/>
    <path d="M 147.806856 21.523779
C 148.323923 21.523779 148.819881 21.318347 149.185502 20.952726
C 149.551123 20.587105 149.756556 20.091147 149.756556 19.57408
C 149.756556 19.057014 149.551123 18.561056 149.185502 18.195435
C 148.819881 17.829814 148.323923 17.624381 147.806856 17.624381
C 147.28979 17.624381 146.793832 17.829814 146.428211 18.195435
C 146.06259 18.561056 145.857157 19.057014 145.857157 19.57408
C 145.857157 20.091147 146.06259 20.587105 146.428211 20.952726
C 146.793832 21.318347 147.28979 21.523779 147.806856 21.523779
z
" clip-path="url(#p623f592cd2)" style="fill: #ff655d; fill-opacity: 0.678431; stroke: #ff655d; stroke-opacity: 0.678431; stroke-width: 0.886227"/>
   </g>
   <g id="LineCollection_14">
    <path d="M 74.046818 342.111375
L 74.046818 5.184
" clip-path="url(#p623f592cd2)" style="fill: none; stroke-dasharray: 2.295328,0.992574; stroke-dashoffset: 0; stroke: #444444; stroke-width: 0.620359"/>
   </g>
  </g>
  <g id="patch_4">
   <path d="M 53.134 342.111375
L 513.216 342.111375
L 513.216 5.184
L 53.134 5.184
L 53.134 342.111375
z
" style="fill: none; stroke: #7f7f7f; stroke-linejoin: miter"/>
  </g>
  <g id="text_17">
   <!-- C++ RADSex / rsx elapsed time (log10) -->
   <g transform="translate(184.05625 367.136313) scale(0.1 -0.1)">
    <defs>
     <path id="DejaVuSans-43" d="M 4122 4306
L 4122 3641
Q 3803 3938 3442 4084
Q 3081 4231 2675 4231
Q 1875 4231 1450 3742
Q 1025 3253 1025 2328
Q 1025 1406 1450 917
Q 1875 428 2675 428
Q 3081 428 3442 575
Q 3803 722 4122 1019
L 4122 359
Q 3791 134 3420 21
Q 3050 -91 2638 -91
Q 1578 -91 968 557
Q 359 1206 359 2328
Q 359 3453 968 4101
Q 1578 4750 2638 4750
Q 3056 4750 3426 4639
Q 3797 4528 4122 4306
z
" transform="scale(0.015625)"/>
     <path id="DejaVuSans-2b" d="M 2944 4013
L 2944 2272
L 4684 2272
L 4684 1741
L 2944 1741
L 2944 0
L 2419 0
L 2419 1741
L 678 1741
L 678 2272
L 2419 2272
L 2419 4013
L 2944 4013
z
" transform="scale(0.015625)"/>
     <path id="DejaVuSans-52" d="M 2841 2188
Q 3044 2119 3236 1894
Q 3428 1669 3622 1275
L 4263 0
L 3584 0
L 2988 1197
Q 2756 1666 2539 1819
Q 2322 1972 1947 1972
L 1259 1972
L 1259 0
L 628 0
L 628 4666
L 2053 4666
Q 2853 4666 3247 4331
Q 3641 3997 3641 3322
Q 3641 2881 3436 2590
Q 3231 2300 2841 2188
z
M 1259 4147
L 1259 2491
L 2053 2491
Q 2509 2491 2742 2702
Q 2975 2913 2975 3322
Q 2975 3731 2742 3939
Q 2509 4147 2053 4147
L 1259 4147
z
" transform="scale(0.015625)"/>
     <path id="DejaVuSans-41" d="M 2188 4044
L 1331 1722
L 3047 1722
L 2188 4044
z
M 1831 4666
L 2547 4666
L 4325 0
L 3669 0
L 3244 1197
L 1141 1197
L 716 0
L 50 0
L 1831 4666
z
" transform="scale(0.015625)"/>
     <path id="DejaVuSans-44" d="M 1259 4147
L 1259 519
L 2022 519
Q 2988 519 3436 956
Q 3884 1394 3884 2338
Q 3884 3275 3436 3711
Q 2988 4147 2022 4147
L 1259 4147
z
M 628 4666
L 1925 4666
Q 3281 4666 3915 4102
Q 4550 3538 4550 2338
Q 4550 1131 3912 565
Q 3275 0 1925 0
L 628 0
L 628 4666
z
" transform="scale(0.015625)"/>
     <path id="DejaVuSans-53" d="M 3425 4513
L 3425 3897
Q 3066 4069 2747 4153
Q 2428 4238 2131 4238
Q 1616 4238 1336 4038
Q 1056 3838 1056 3469
Q 1056 3159 1242 3001
Q 1428 2844 1947 2747
L 2328 2669
Q 3034 2534 3370 2195
Q 3706 1856 3706 1288
Q 3706 609 3251 259
Q 2797 -91 1919 -91
Q 1588 -91 1214 -16
Q 841 59 441 206
L 441 856
Q 825 641 1194 531
Q 1563 422 1919 422
Q 2459 422 2753 634
Q 3047 847 3047 1241
Q 3047 1584 2836 1778
Q 2625 1972 2144 2069
L 1759 2144
Q 1053 2284 737 2584
Q 422 2884 422 3419
Q 422 4038 858 4394
Q 1294 4750 2059 4750
Q 2388 4750 2728 4690
Q 3069 4631 3425 4513
z
" transform="scale(0.015625)"/>
     <path id="DejaVuSans-78" d="M 3513 3500
L 2247 1797
L 3578 0
L 2900 0
L 1881 1375
L 863 0
L 184 0
L 1544 1831
L 300 3500
L 978 3500
L 1906 2253
L 2834 3500
L 3513 3500
z
" transform="scale(0.015625)"/>
     <path id="DejaVuSans-2f" d="M 1625 4666
L 2156 4666
L 531 -594
L 0 -594
L 1625 4666
z
" transform="scale(0.015625)"/>
     <path id="DejaVuSans-6c" d="M 603 4863
L 1178 4863
L 1178 0
L 603 0
L 603 4863
z
" transform="scale(0.015625)"/>
     <path id="DejaVuSans-61" d="M 2194 1759
Q 1497 1759 1228 1600
Q 959 1441 959 1056
Q 959 750 1161 570
Q 1363 391 1709 391
Q 2188 391 2477 730
Q 2766 1069 2766 1631
L 2766 1759
L 2194 1759
z
M 3341 1997
L 3341 0
L 2766 0
L 2766 531
Q 2569 213 2275 61
Q 1981 -91 1556 -91
Q 1019 -91 701 211
Q 384 513 384 1019
Q 384 1609 779 1909
Q 1175 2209 1959 2209
L 2766 2209
L 2766 2266
Q 2766 2663 2505 2880
Q 2244 3097 1772 3097
Q 1472 3097 1187 3025
Q 903 2953 641 2809
L 641 3341
Q 956 3463 1253 3523
Q 1550 3584 1831 3584
Q 2591 3584 2966 3190
Q 3341 2797 3341 1997
z
" transform="scale(0.015625)"/>
     <path id="DejaVuSans-6d" d="M 3328 2828
Q 3544 3216 3844 3400
Q 4144 3584 4550 3584
Q 5097 3584 5394 3201
Q 5691 2819 5691 2113
L 5691 0
L 5113 0
L 5113 2094
Q 5113 2597 4934 2840
Q 4756 3084 4391 3084
Q 3944 3084 3684 2787
Q 3425 2491 3425 1978
L 3425 0
L 2847 0
L 2847 2094
Q 2847 2600 2669 2842
Q 2491 3084 2119 3084
Q 1678 3084 1418 2786
Q 1159 2488 1159 1978
L 1159 0
L 581 0
L 581 3500
L 1159 3500
L 1159 2956
Q 1356 3278 1631 3431
Q 1906 3584 2284 3584
Q 2666 3584 2933 3390
Q 3200 3197 3328 2828
z
" transform="scale(0.015625)"/>
     <path id="DejaVuSans-28" d="M 1984 4856
Q 1566 4138 1362 3434
Q 1159 2731 1159 2009
Q 1159 1288 1364 580
Q 1569 -128 1984 -844
L 1484 -844
Q 1016 -109 783 600
Q 550 1309 550 2009
Q 550 2706 781 3412
Q 1013 4119 1484 4856
L 1984 4856
z
" transform="scale(0.015625)"/>
     <path id="DejaVuSans-29" d="M 513 4856
L 1013 4856
Q 1481 4119 1714 3412
Q 1947 2706 1947 2009
Q 1947 1309 1714 600
Q 1481 -109 1013 -844
L 513 -844
Q 928 -128 1133 580
Q 1338 1288 1338 2009
Q 1338 2731 1133 3434
Q 928 4138 513 4856
z
" transform="scale(0.015625)"/>
    </defs>
    <use xlink:href="#DejaVuSans-43"/>
    <use xlink:href="#DejaVuSans-2b" transform="translate(69.824219 0)"/>
    <use xlink:href="#DejaVuSans-2b" transform="translate(153.613281 0)"/>
    <use xlink:href="#DejaVuSans-20" transform="translate(237.402344 0)"/>
    <use xlink:href="#DejaVuSans-52" transform="translate(269.189453 0)"/>
    <use xlink:href="#DejaVuSans-41" transform="translate(334.671875 0)"/>
    <use xlink:href="#DejaVuSans-44" transform="translate(403.080078 0)"/>
    <use xlink:href="#DejaVuSans-53" transform="translate(480.082031 0)"/>
    <use xlink:href="#DejaVuSans-65" transform="translate(543.558594 0)"/>
    <use xlink:href="#DejaVuSans-78" transform="translate(603.332031 0)"/>
    <use xlink:href="#DejaVuSans-20" transform="translate(662.511719 0)"/>
    <use xlink:href="#DejaVuSans-2f" transform="translate(694.298828 0)"/>
    <use xlink:href="#DejaVuSans-20" transform="translate(727.990234 0)"/>
    <use xlink:href="#DejaVuSans-72" transform="translate(759.777344 0)"/>
    <use xlink:href="#DejaVuSans-73" transform="translate(800.890625 0)"/>
    <use xlink:href="#DejaVuSans-78" transform="translate(852.990234 0)"/>
    <use xlink:href="#DejaVuSans-20" transform="translate(912.169922 0)"/>
    <use xlink:href="#DejaVuSans-65" transform="translate(943.957031 0)"/>
    <use xlink:href="#DejaVuSans-6c" transform="translate(1005.480469 0)"/>
    <use xlink:href="#DejaVuSans-61" transform="translate(1033.263672 0)"/>
    <use xlink:href="#DejaVuSans-70" transform="translate(1094.542969 0)"/>
    <use xlink:href="#DejaVuSans-73" transform="translate(1158.019531 0)"/>
    <use xlink:href="#DejaVuSans-65" transform="translate(1210.119141 0)"/>
    <use xlink:href="#DejaVuSans-64" transform="translate(1271.642578 0)"/>
    <use xlink:href="#DejaVuSans-20" transform="translate(1335.119141 0)"/>
    <use xlink:href="#DejaVuSans-74" transform="translate(1366.90625 0)"/>
    <use xlink:href="#DejaVuSans-69" transform="translate(1406.115234 0)"/>
    <use xlink:href="#DejaVuSans-6d" transform="translate(1433.898438 0)"/>
    <use xlink:href="#DejaVuSans-65" transform="translate(1531.310547 0)"/>
    <use xlink:href="#DejaVuSans-20" transform="translate(1592.833984 0)"/>
    <use xlink:href="#DejaVuSans-28" transform="translate(1624.621094 0)"/>
    <use xlink:href="#DejaVuSans-6c" transform="translate(1663.634766 0)"/>
    <use xlink:href="#DejaVuSans-6f" transform="translate(1691.417969 0)"/>
    <use xlink:href="#DejaVuSans-67" transform="translate(1752.599609 0)"/>
    <use xlink:href="#DejaVuSans-31" transform="translate(1816.076172 0)"/>
    <use xlink:href="#DejaVuSans-30" transform="translate(1879.699219 0)"/>
    <use xlink:href="#DejaVuSans-29" transform="translate(1943.322266 0)"/>
   </g>
  </g>
 </g>
 <defs>
  <clipPath id="p623f592cd2">
   <rect x="53.134" y="5.184" width="460.082" height="336.927375"/>
  </clipPath>
 </defs>
</svg>
