<?xml version="1.0" encoding="utf-8" standalone="no"?>
<!DOCTYPE svg PUBLIC "-//W3C//DTD SVG 1.1//EN"
  "http://www.w3.org/Graphics/SVG/1.1/DTD/svg11.dtd">
<svg xmlns:xlink="http://www.w3.org/1999/xlink" width="518.4pt" height="331.2pt" viewBox="0 0 518.4 331.2" xmlns="http://www.w3.org/2000/svg" version="1.1">
 <metadata>
  <rdf:RDF xmlns:dc="http://purl.org/dc/elements/1.1/" xmlns:cc="http://creativecommons.org/ns#" xmlns:rdf="http://www.w3.org/1999/02/22-rdf-syntax-ns#">
   <cc:Work>
    <dc:type rdf:resource="http://purl.org/dc/dcmitype/StillImage"/>
    <dc:date>2026-05-17T03:50:46.140697</dc:date>
    <dc:format>image/svg+xml</dc:format>
    <dc:creator>
     <cc:Agent>
      <dc:title>Matplotlib v3.10.9, https://matplotlib.org/</dc:title>
     </cc:Agent>
    </dc:creator>
   </cc:Work>
  </rdf:RDF>
 </metadata>
 <defs>
  <style type="text/css">*{stroke-linejoin: round; stroke-linecap: butt}</style>
 </defs>
 <g id="figure_1">
  <g id="patch_1">
   <path d="M 0 331.2 
L 518.4 331.2 
L 518.4 0 
L 0 0 
z
" style="fill: #ffffff"/>
  </g>
  <g id="patch_2">
   <path d="M 0 331.2 
L 518.4 331.2 
L 518.4 0 
L 0 0 
L 0 331.2 
z
" style="fill: none; stroke: #ffffff; stroke-linejoin: miter"/>
  </g>
  <g id="axes_1">
   <g id="patch_3">
    <path d="M 94.5815 298.911375 
L 431.34425 298.911375 
L 431.34425 5.184 
L 94.5815 5.184 
z
" style="fill: #ffffff"/>
   </g>
   <g id="matplotlib.axis_1">
    <g id="xtick_1">
     <g id="line2d_1">
      <path d="M 109.888898 298.911375 
L 109.888898 5.184 
" clip-path="url(#pd007dc572a)" style="fill: none; stroke: #e6e6e6; stroke-width: 0.35; stroke-linecap: square"/>
     </g>
     <g id="line2d_2">
      <path d="M 109.888898 298.911375 
" style="fill: none; stroke: #333333; stroke-width: 1.5; stroke-linecap: square"/>
      <defs>
       <path id="ma390ba48b2" d="M 0 0 
L 0 2.5 
" style="stroke: #333333"/>
      </defs>
      <g>
       <use xlink:href="#ma390ba48b2" x="109.888898" y="298.911375" style="fill: #333333; stroke: #333333"/>
      </g>
     </g>
     <g id="text_1">
      <!-- 0 -->
      <g style="fill: #4d4d4d" transform="translate(107.343898 309.490125) scale(0.08 -0.08)">
       <defs>
        <path id="DejaVuSans-30" d="M 2034 4250 
Q 1547 4250 1301 3770 
Q 1056 3291 1056 2328 
Q 1056 1369 1301 889 
Q 1547 409 2034 409 
Q 2525 409 2770 889 
Q 3016 1369 3016 2328 
Q 3016 3291 2770 3770 
Q 2525 4250 2034 4250 
z
M 2034 4750 
Q 2819 4750 3233 4129 
Q 3647 3509 3647 2328 
Q 3647 1150 3233 529 
Q 2819 -91 2034 -91 
Q 1250 -91 836 529 
Q 422 1150 422 2328 
Q 422 3509 836 4129 
Q 1250 4750 2034 4750 
z
" transform="scale(0.015625)"/>
       </defs>
       <use xlink:href="#DejaVuSans-30"/>
      </g>
     </g>
    </g>
    <g id="xtick_2">
     <g id="line2d_3">
      <path d="M 214.170496 298.911375 
L 214.170496 5.184 
" clip-path="url(#pd007dc572a)" style="fill: none; stroke: #e6e6e6; stroke-width: 0.35; stroke-linecap: square"/>
     </g>
     <g id="line2d_4">
      <path d="M 214.170496 298.911375 
" style="fill: none; stroke: #333333; stroke-width: 1.5; stroke-linecap: square"/>
      <g>
       <use xlink:href="#ma390ba48b2" x="214.170496" y="298.911375" style="fill: #333333; stroke: #333333"/>
      </g>
     </g>
     <g id="text_2">
      <!-- 10 -->
      <g style="fill: #4d4d4d" transform="translate(209.080496 309.490125) scale(0.08 -0.08)">
       <defs>
        <path id="DejaVuSans-31" d="M 794 531 
L 1825 531 
L 1825 4091 
L 703 3866 
L 703 4441 
L 1819 4666 
L 2450 4666 
L 2450 531 
L 3481 531 
L 3481 0 
L 794 0 
L 794 531 
z
" transform="scale(0.015625)"/>
       </defs>
       <use xlink:href="#DejaVuSans-31"/>
       <use xlink:href="#DejaVuSans-30" transform="translate(63.623047 0)"/>
      </g>
     </g>
    </g>
    <g id="xtick_3">
     <g id="line2d_5">
      <path d="M 318.452093 298.911375 
L 318.452093 5.184 
" clip-path="url(#pd007dc572a)" style="fill: none; stroke: #e6e6e6; stroke-width: 0.35; stroke-linecap: square"/>
     </g>
     <g id="line2d_6">
      <path d="M 318.452093 298.911375 
" style="fill: none; stroke: #333333; stroke-width: 1.5; stroke-linecap: square"/>
      <g>
       <use xlink:href="#ma390ba48b2" x="318.452093" y="298.911375" style="fill: #333333; stroke: #333333"/>
      </g>
     </g>
     <g id="text_3">
      <!-- 20 -->
      <g style="fill: #4d4d4d" transform="translate(313.362093 309.490125) scale(0.08 -0.08)">
       <defs>
        <path id="DejaVuSans-32" d="M 1228 531 
L 3431 531 
L 3431 0 
L 469 0 
L 469 531 
Q 828 903 1448 1529 
Q 2069 2156 2228 2338 
Q 2531 2678 2651 2914 
Q 2772 3150 2772 3378 
Q 2772 3750 2511 3984 
Q 2250 4219 1831 4219 
Q 1534 4219 1204 4116 
Q 875 4013 500 3803 
L 500 4441 
Q 881 4594 1212 4672 
Q 1544 4750 1819 4750 
Q 2544 4750 2975 4387 
Q 3406 4025 3406 3419 
Q 3406 3131 3298 2873 
Q 3191 2616 2906 2266 
Q 2828 2175 2409 1742 
Q 1991 1309 1228 531 
z
" transform="scale(0.015625)"/>
       </defs>
       <use xlink:href="#DejaVuSans-32"/>
       <use xlink:href="#DejaVuSans-30" transform="translate(63.623047 0)"/>
      </g>
     </g>
    </g>
    <g id="xtick_4">
     <g id="line2d_7">
      <path d="M 422.733691 298.911375 
L 422.733691 5.184 
" clip-path="url(#pd007dc572a)" style="fill: none; stroke: #e6e6e6; stroke-width: 0.35; stroke-linecap: square"/>
     </g>
     <g id="line2d_8">
      <path d="M 422.733691 298.911375 
" style="fill: none; stroke: #333333; stroke-width: 1.5; stroke-linecap: square"/>
      <g>
       <use xlink:href="#ma390ba48b2" x="422.733691" y="298.911375" style="fill: #333333; stroke: #333333"/>
      </g>
     </g>
     <g id="text_4">
      <!-- 30 -->
      <g style="fill: #4d4d4d" transform="translate(417.643691 309.490125) scale(0.08 -0.08)">
       <defs>
        <path id="DejaVuSans-33" d="M 2597 2516 
Q 3050 2419 3304 2112 
Q 3559 1806 3559 1356 
Q 3559 666 3084 287 
Q 2609 -91 1734 -91 
Q 1441 -91 1130 -33 
Q 819 25 488 141 
L 488 750 
Q 750 597 1062 519 
Q 1375 441 1716 441 
Q 2309 441 2620 675 
Q 2931 909 2931 1356 
Q 2931 1769 2642 2001 
Q 2353 2234 1838 2234 
L 1294 2234 
L 1294 2753 
L 1863 2753 
Q 2328 2753 2575 2939 
Q 2822 3125 2822 3475 
Q 2822 3834 2567 4026 
Q 2313 4219 1838 4219 
Q 1578 4219 1281 4162 
Q 984 4106 628 3988 
L 628 4550 
Q 988 4650 1302 4700 
Q 1616 4750 1894 4750 
Q 2613 4750 3031 4423 
Q 3450 4097 3450 3541 
Q 3450 3153 3228 2886 
Q 3006 2619 2597 2516 
z
" transform="scale(0.015625)"/>
       </defs>
       <use xlink:href="#DejaVuSans-33"/>
       <use xlink:href="#DejaVuSans-30" transform="translate(63.623047 0)"/>
      </g>
     </g>
    </g>
    <g id="xtick_5"/>
    <g id="xtick_6"/>
    <g id="xtick_7"/>
   </g>
   <g id="matplotlib.axis_2">
    <g id="ytick_1">
     <g id="line2d_9">
      <path d="M 94.5815 256.950321 
L 431.34425 256.950321 
" clip-path="url(#pd007dc572a)" style="fill: none; stroke: #e6e6e6; stroke-width: 0.35; stroke-linecap: square"/>
     </g>
     <g id="line2d_10">
      <path d="M 94.5815 256.950321 
" style="fill: none; stroke: #333333; stroke-width: 1.5; stroke-linecap: square"/>
      <defs>
       <path id="m47bd96b1ad" d="M 0 0 
L -2.5 0 
" style="stroke: #333333"/>
      </defs>
      <g>
       <use xlink:href="#m47bd96b1ad" x="94.5815" y="256.950321" style="fill: #333333; stroke: #333333"/>
      </g>
     </g>
     <g id="text_5">
      <!-- Notothenia Rossii -->
      <g style="fill: #4d4d4d" transform="translate(20.43025 259.989696) scale(0.08 -0.08)">
       <defs>
        <path id="DejaVuSans-4e" d="M 628 4666 
L 1478 4666 
L 3547 763 
L 3547 4666 
L 4159 4666 
L 4159 0 
L 3309 0 
L 1241 3903 
L 1241 0 
L 628 0 
L 628 4666 
z
" transform="scale(0.015625)"/>
        <path id="DejaVuSans-6f" d="M 1959 3097 
Q 1497 3097 1228 2736 
Q 959 2375 959 1747 
Q 959 1119 1226 758 
Q 1494 397 1959 397 
Q 2419 397 2687 759 
Q 2956 1122 2956 1747 
Q 2956 2369 2687 2733 
Q 2419 3097 1959 3097 
z
M 1959 3584 
Q 2709 3584 3137 3096 
Q 3566 2609 3566 1747 
Q 3566 888 3137 398 
Q 2709 -91 1959 -91 
Q 1206 -91 779 398 
Q 353 888 353 1747 
Q 353 2609 779 3096 
Q 1206 3584 1959 3584 
z
" transform="scale(0.015625)"/>
        <path id="DejaVuSans-74" d="M 1172 4494 
L 1172 3500 
L 2356 3500 
L 2356 3053 
L 1172 3053 
L 1172 1153 
Q 1172 725 1289 603 
Q 1406 481 1766 481 
L 2356 481 
L 2356 0 
L 1766 0 
Q 1100 0 847 248 
Q 594 497 594 1153 
L 594 3053 
L 172 3053 
L 172 3500 
L 594 3500 
L 594 4494 
L 1172 4494 
z
" transform="scale(0.015625)"/>
        <path id="DejaVuSans-68" d="M 3513 2113 
L 3513 0 
L 2938 0 
L 2938 2094 
Q 2938 2591 2744 2837 
Q 2550 3084 2163 3084 
Q 1697 3084 1428 2787 
Q 1159 2491 1159 1978 
L 1159 0 
L 581 0 
L 581 4863 
L 1159 4863 
L 1159 2956 
Q 1366 3272 1645 3428 
Q 1925 3584 2291 3584 
Q 2894 3584 3203 3211 
Q 3513 2838 3513 2113 
z
" transform="scale(0.015625)"/>
        <path id="DejaVuSans-65" d="M 3597 1894 
L 3597 1613 
L 953 1613 
Q 991 1019 1311 708 
Q 1631 397 2203 397 
Q 2534 397 2845 478 
Q 3156 559 3463 722 
L 3463 178 
Q 3153 47 2828 -22 
Q 2503 -91 2169 -91 
Q 1331 -91 842 396 
Q 353 884 353 1716 
Q 353 2575 817 3079 
Q 1281 3584 2069 3584 
Q 2775 3584 3186 3129 
Q 3597 2675 3597 1894 
z
M 3022 2063 
Q 3016 2534 2758 2815 
Q 2500 3097 2075 3097 
Q 1594 3097 1305 2825 
Q 1016 2553 972 2059 
L 3022 2063 
z
" transform="scale(0.015625)"/>
        <path id="DejaVuSans-6e" d="M 3513 2113 
L 3513 0 
L 2938 0 
L 2938 2094 
Q 2938 2591 2744 2837 
Q 2550 3084 2163 3084 
Q 1697 3084 1428 2787 
Q 1159 2491 1159 1978 
L 1159 0 
L 581 0 
L 581 3500 
L 1159 3500 
L 1159 2956 
Q 1366 3272 1645 3428 
Q 1925 3584 2291 3584 
Q 2894 3584 3203 3211 
Q 3513 2838 3513 2113 
z
" transform="scale(0.015625)"/>
        <path id="DejaVuSans-69" d="M 603 3500 
L 1178 3500 
L 1178 0 
L 603 0 
L 603 3500 
z
M 603 4863 
L 1178 4863 
L 1178 4134 
L 603 4134 
L 603 4863 
z
" transform="scale(0.015625)"/>
        <path id="DejaVuSans-61" d="M 2194 1759 
Q 1497 1759 1228 1600 
Q 959 1441 959 1056 
Q 959 750 1161 570 
Q 1363 391 1709 391 
Q 2188 391 2477 730 
Q 2766 1069 2766 1631 
L 2766 1759 
L 2194 1759 
z
M 3341 1997 
L 3341 0 
L 2766 0 
L 2766 531 
Q 2569 213 2275 61 
Q 1981 -91 1556 -91 
Q 1019 -91 701 211 
Q 384 513 384 1019 
Q 384 1609 779 1909 
Q 1175 2209 1959 2209 
L 2766 2209 
L 2766 2266 
Q 2766 2663 2505 2880 
Q 2244 3097 1772 3097 
Q 1472 3097 1187 3025 
Q 903 2953 641 2809 
L 641 3341 
Q 956 3463 1253 3523 
Q 1550 3584 1831 3584 
Q 2591 3584 2966 3190 
Q 3341 2797 3341 1997 
z
" transform="scale(0.015625)"/>
        <path id="DejaVuSans-20" transform="scale(0.015625)"/>
        <path id="DejaVuSans-52" d="M 2841 2188 
Q 3044 2119 3236 1894 
Q 3428 1669 3622 1275 
L 4263 0 
L 3584 0 
L 2988 1197 
Q 2756 1666 2539 1819 
Q 2322 1972 1947 1972 
L 1259 1972 
L 1259 0 
L 628 0 
L 628 4666 
L 2053 4666 
Q 2853 4666 3247 4331 
Q 3641 3997 3641 3322 
Q 3641 2881 3436 2590 
Q 3231 2300 2841 2188 
z
M 1259 4147 
L 1259 2491 
L 2053 2491 
Q 2509 2491 2742 2702 
Q 2975 2913 2975 3322 
Q 2975 3731 2742 3939 
Q 2509 4147 2053 4147 
L 1259 4147 
z
" transform="scale(0.015625)"/>
        <path id="DejaVuSans-73" d="M 2834 3397 
L 2834 2853 
Q 2591 2978 2328 3040 
Q 2066 3103 1784 3103 
Q 1356 3103 1142 2972 
Q 928 2841 928 2578 
Q 928 2378 1081 2264 
Q 1234 2150 1697 2047 
L 1894 2003 
Q 2506 1872 2764 1633 
Q 3022 1394 3022 966 
Q 3022 478 2636 193 
Q 2250 -91 1575 -91 
Q 1294 -91 989 -36 
Q 684 19 347 128 
L 347 722 
Q 666 556 975 473 
Q 1284 391 1588 391 
Q 1994 391 2212 530 
Q 2431 669 2431 922 
Q 2431 1156 2273 1281 
Q 2116 1406 1581 1522 
L 1381 1569 
Q 847 1681 609 1914 
Q 372 2147 372 2553 
Q 372 3047 722 3315 
Q 1072 3584 1716 3584 
Q 2034 3584 2315 3537 
Q 2597 3491 2834 3397 
z
" transform="scale(0.015625)"/>
       </defs>
       <use xlink:href="#DejaVuSans-4e"/>
       <use xlink:href="#DejaVuSans-6f" transform="translate(74.804688 0)"/>
       <use xlink:href="#DejaVuSans-74" transform="translate(135.986328 0)"/>
       <use xlink:href="#DejaVuSans-6f" transform="translate(175.195312 0)"/>
       <use xlink:href="#DejaVuSans-74" transform="translate(236.376953 0)"/>
       <use xlink:href="#DejaVuSans-68" transform="translate(275.585938 0)"/>
       <use xlink:href="#DejaVuSans-65" transform="translate(338.964844 0)"/>
       <use xlink:href="#DejaVuSans-6e" transform="translate(400.488281 0)"/>
       <use xlink:href="#DejaVuSans-69" transform="translate(463.867188 0)"/>
       <use xlink:href="#DejaVuSans-61" transform="translate(491.650391 0)"/>
       <use xlink:href="#DejaVuSans-20" transform="translate(552.929688 0)"/>
       <use xlink:href="#DejaVuSans-52" transform="translate(584.716797 0)"/>
       <use xlink:href="#DejaVuSans-6f" transform="translate(649.699219 0)"/>
       <use xlink:href="#DejaVuSans-73" transform="translate(710.880859 0)"/>
       <use xlink:href="#DejaVuSans-73" transform="translate(762.980469 0)"/>
       <use xlink:href="#DejaVuSans-69" transform="translate(815.080078 0)"/>
       <use xlink:href="#DejaVuSans-69" transform="translate(842.863281 0)"/>
      </g>
     </g>
    </g>
    <g id="ytick_2">
     <g id="line2d_11">
      <path d="M 94.5815 187.015232 
L 431.34425 187.015232 
" clip-path="url(#pd007dc572a)" style="fill: none; stroke: #e6e6e6; stroke-width: 0.35; stroke-linecap: square"/>
     </g>
     <g id="line2d_12">
      <path d="M 94.5815 187.015232 
" style="fill: none; stroke: #333333; stroke-width: 1.5; stroke-linecap: square"/>
      <g>
       <use xlink:href="#m47bd96b1ad" x="94.5815" y="187.015232" style="fill: #333333; stroke: #333333"/>
      </g>
     </g>
     <g id="text_6">
      <!-- Plecoglossus Altivelis -->
      <g style="fill: #4d4d4d" transform="translate(5.184 190.054607) scale(0.08 -0.08)">
       <defs>
        <path id="DejaVuSans-50" d="M 1259 4147 
L 1259 2394 
L 2053 2394 
Q 2494 2394 2734 2622 
Q 2975 2850 2975 3272 
Q 2975 3691 2734 3919 
Q 2494 4147 2053 4147 
L 1259 4147 
z
M 628 4666 
L 2053 4666 
Q 2838 4666 3239 4311 
Q 3641 3956 3641 3272 
Q 3641 2581 3239 2228 
Q 2838 1875 2053 1875 
L 1259 1875 
L 1259 0 
L 628 0 
L 628 4666 
z
" transform="scale(0.015625)"/>
        <path id="DejaVuSans-6c" d="M 603 4863 
L 1178 4863 
L 1178 0 
L 603 0 
L 603 4863 
z
" transform="scale(0.015625)"/>
        <path id="DejaVuSans-63" d="M 3122 3366 
L 3122 2828 
Q 2878 2963 2633 3030 
Q 2388 3097 2138 3097 
Q 1578 3097 1268 2742 
Q 959 2388 959 1747 
Q 959 1106 1268 751 
Q 1578 397 2138 397 
Q 2388 397 2633 464 
Q 2878 531 3122 666 
L 3122 134 
Q 2881 22 2623 -34 
Q 2366 -91 2075 -91 
Q 1284 -91 818 406 
Q 353 903 353 1747 
Q 353 2603 823 3093 
Q 1294 3584 2113 3584 
Q 2378 3584 2631 3529 
Q 2884 3475 3122 3366 
z
" transform="scale(0.015625)"/>
        <path id="DejaVuSans-67" d="M 2906 1791 
Q 2906 2416 2648 2759 
Q 2391 3103 1925 3103 
Q 1463 3103 1205 2759 
Q 947 2416 947 1791 
Q 947 1169 1205 825 
Q 1463 481 1925 481 
Q 2391 481 2648 825 
Q 2906 1169 2906 1791 
z
M 3481 434 
Q 3481 -459 3084 -895 
Q 2688 -1331 1869 -1331 
Q 1566 -1331 1297 -1286 
Q 1028 -1241 775 -1147 
L 775 -588 
Q 1028 -725 1275 -790 
Q 1522 -856 1778 -856 
Q 2344 -856 2625 -561 
Q 2906 -266 2906 331 
L 2906 616 
Q 2728 306 2450 153 
Q 2172 0 1784 0 
Q 1141 0 747 490 
Q 353 981 353 1791 
Q 353 2603 747 3093 
Q 1141 3584 1784 3584 
Q 2172 3584 2450 3431 
Q 2728 3278 2906 2969 
L 2906 3500 
L 3481 3500 
L 3481 434 
z
" transform="scale(0.015625)"/>
        <path id="DejaVuSans-75" d="M 544 1381 
L 544 3500 
L 1119 3500 
L 1119 1403 
Q 1119 906 1312 657 
Q 1506 409 1894 409 
Q 2359 409 2629 706 
Q 2900 1003 2900 1516 
L 2900 3500 
L 3475 3500 
L 3475 0 
L 2900 0 
L 2900 538 
Q 2691 219 2414 64 
Q 2138 -91 1772 -91 
Q 1169 -91 856 284 
Q 544 659 544 1381 
z
M 1991 3584 
L 1991 3584 
z
" transform="scale(0.015625)"/>
        <path id="DejaVuSans-41" d="M 2188 4044 
L 1331 1722 
L 3047 1722 
L 2188 4044 
z
M 1831 4666 
L 2547 4666 
L 4325 0 
L 3669 0 
L 3244 1197 
L 1141 1197 
L 716 0 
L 50 0 
L 1831 4666 
z
" transform="scale(0.015625)"/>
        <path id="DejaVuSans-76" d="M 191 3500 
L 800 3500 
L 1894 563 
L 2988 3500 
L 3597 3500 
L 2284 0 
L 1503 0 
L 191 3500 
z
" transform="scale(0.015625)"/>
       </defs>
       <use xlink:href="#DejaVuSans-50"/>
       <use xlink:href="#DejaVuSans-6c" transform="translate(60.302734 0)"/>
       <use xlink:href="#DejaVuSans-65" transform="translate(88.085938 0)"/>
       <use xlink:href="#DejaVuSans-63" transform="translate(149.609375 0)"/>
       <use xlink:href="#DejaVuSans-6f" transform="translate(204.589844 0)"/>
       <use xlink:href="#DejaVuSans-67" transform="translate(265.771484 0)"/>
       <use xlink:href="#DejaVuSans-6c" transform="translate(329.248047 0)"/>
       <use xlink:href="#DejaVuSans-6f" transform="translate(357.03125 0)"/>
       <use xlink:href="#DejaVuSans-73" transform="translate(418.212891 0)"/>
       <use xlink:href="#DejaVuSans-73" transform="translate(470.3125 0)"/>
       <use xlink:href="#DejaVuSans-75" transform="translate(522.412109 0)"/>
       <use xlink:href="#DejaVuSans-73" transform="translate(585.791016 0)"/>
       <use xlink:href="#DejaVuSans-20" transform="translate(637.890625 0)"/>
       <use xlink:href="#DejaVuSans-41" transform="translate(669.677734 0)"/>
       <use xlink:href="#DejaVuSans-6c" transform="translate(738.085938 0)"/>
       <use xlink:href="#DejaVuSans-74" transform="translate(765.869141 0)"/>
       <use xlink:href="#DejaVuSans-69" transform="translate(805.078125 0)"/>
       <use xlink:href="#DejaVuSans-76" transform="translate(832.861328 0)"/>
       <use xlink:href="#DejaVuSans-65" transform="translate(892.041016 0)"/>
       <use xlink:href="#DejaVuSans-6c" transform="translate(953.564453 0)"/>
       <use xlink:href="#DejaVuSans-69" transform="translate(981.347656 0)"/>
       <use xlink:href="#DejaVuSans-73" transform="translate(1009.130859 0)"/>
      </g>
     </g>
    </g>
    <g id="ytick_3">
     <g id="line2d_13">
      <path d="M 94.5815 117.080143 
L 431.34425 117.080143 
" clip-path="url(#pd007dc572a)" style="fill: none; stroke: #e6e6e6; stroke-width: 0.35; stroke-linecap: square"/>
     </g>
     <g id="line2d_14">
      <path d="M 94.5815 117.080143 
" style="fill: none; stroke: #333333; stroke-width: 1.5; stroke-linecap: square"/>
      <g>
       <use xlink:href="#m47bd96b1ad" x="94.5815" y="117.080143" style="fill: #333333; stroke: #333333"/>
      </g>
     </g>
     <g id="text_7">
      <!-- Danio Albolineatus -->
      <g style="fill: #4d4d4d" transform="translate(14.9065 120.119518) scale(0.08 -0.08)">
       <defs>
        <path id="DejaVuSans-44" d="M 1259 4147 
L 1259 519 
L 2022 519 
Q 2988 519 3436 956 
Q 3884 1394 3884 2338 
Q 3884 3275 3436 3711 
Q 2988 4147 2022 4147 
L 1259 4147 
z
M 628 4666 
L 1925 4666 
Q 3281 4666 3915 4102 
Q 4550 3538 4550 2338 
Q 4550 1131 3912 565 
Q 3275 0 1925 0 
L 628 0 
L 628 4666 
z
" transform="scale(0.015625)"/>
        <path id="DejaVuSans-62" d="M 3116 1747 
Q 3116 2381 2855 2742 
Q 2594 3103 2138 3103 
Q 1681 3103 1420 2742 
Q 1159 2381 1159 1747 
Q 1159 1113 1420 752 
Q 1681 391 2138 391 
Q 2594 391 2855 752 
Q 3116 1113 3116 1747 
z
M 1159 2969 
Q 1341 3281 1617 3432 
Q 1894 3584 2278 3584 
Q 2916 3584 3314 3078 
Q 3713 2572 3713 1747 
Q 3713 922 3314 415 
Q 2916 -91 2278 -91 
Q 1894 -91 1617 61 
Q 1341 213 1159 525 
L 1159 0 
L 581 0 
L 581 4863 
L 1159 4863 
L 1159 2969 
z
" transform="scale(0.015625)"/>
       </defs>
       <use xlink:href="#DejaVuSans-44"/>
       <use xlink:href="#DejaVuSans-61" transform="translate(77.001953 0)"/>
       <use xlink:href="#DejaVuSans-6e" transform="translate(138.28125 0)"/>
       <use xlink:href="#DejaVuSans-69" transform="translate(201.660156 0)"/>
       <use xlink:href="#DejaVuSans-6f" transform="translate(229.443359 0)"/>
       <use xlink:href="#DejaVuSans-20" transform="translate(290.625 0)"/>
       <use xlink:href="#DejaVuSans-41" transform="translate(322.412109 0)"/>
       <use xlink:href="#DejaVuSans-6c" transform="translate(390.820312 0)"/>
       <use xlink:href="#DejaVuSans-62" transform="translate(418.603516 0)"/>
       <use xlink:href="#DejaVuSans-6f" transform="translate(482.080078 0)"/>
       <use xlink:href="#DejaVuSans-6c" transform="translate(543.261719 0)"/>
       <use xlink:href="#DejaVuSans-69" transform="translate(571.044922 0)"/>
       <use xlink:href="#DejaVuSans-6e" transform="translate(598.828125 0)"/>
       <use xlink:href="#DejaVuSans-65" transform="translate(662.207031 0)"/>
       <use xlink:href="#DejaVuSans-61" transform="translate(723.730469 0)"/>
       <use xlink:href="#DejaVuSans-74" transform="translate(785.009766 0)"/>
       <use xlink:href="#DejaVuSans-75" transform="translate(824.21875 0)"/>
       <use xlink:href="#DejaVuSans-73" transform="translate(887.597656 0)"/>
      </g>
     </g>
    </g>
    <g id="ytick_4">
     <g id="line2d_15">
      <path d="M 94.5815 47.145054 
L 431.34425 47.145054 
" clip-path="url(#pd007dc572a)" style="fill: none; stroke: #e6e6e6; stroke-width: 0.35; stroke-linecap: square"/>
     </g>
     <g id="line2d_16">
      <path d="M 94.5815 47.145054 
" style="fill: none; stroke: #333333; stroke-width: 1.5; stroke-linecap: square"/>
      <g>
       <use xlink:href="#m47bd96b1ad" x="94.5815" y="47.145054" style="fill: #333333; stroke: #333333"/>
      </g>
     </g>
     <g id="text_8">
      <!-- Tinca Tinca -->
      <g style="fill: #4d4d4d" transform="translate(45.079 50.184429) scale(0.08 -0.08)">
       <defs>
        <path id="DejaVuSans-54" d="M -19 4666 
L 3928 4666 
L 3928 4134 
L 2272 4134 
L 2272 0 
L 1638 0 
L 1638 4134 
L -19 4134 
L -19 4666 
z
" transform="scale(0.015625)"/>
       </defs>
       <use xlink:href="#DejaVuSans-54"/>
       <use xlink:href="#DejaVuSans-69" transform="translate(57.958984 0)"/>
       <use xlink:href="#DejaVuSans-6e" transform="translate(85.742188 0)"/>
       <use xlink:href="#DejaVuSans-63" transform="translate(149.121094 0)"/>
       <use xlink:href="#DejaVuSans-61" transform="translate(204.101562 0)"/>
       <use xlink:href="#DejaVuSans-20" transform="translate(265.380859 0)"/>
       <use xlink:href="#DejaVuSans-54" transform="translate(297.167969 0)"/>
       <use xlink:href="#DejaVuSans-69" transform="translate(355.126953 0)"/>
       <use xlink:href="#DejaVuSans-6e" transform="translate(382.910156 0)"/>
       <use xlink:href="#DejaVuSans-63" transform="translate(446.289062 0)"/>
       <use xlink:href="#DejaVuSans-61" transform="translate(501.269531 0)"/>
      </g>
     </g>
    </g>
   </g>
   <g id="PolyCollection_1">
    <path d="M 109.888898 281.427603 
L 109.888898 232.47304 
L 228.12062 232.47304 
L 228.12062 281.427603 
z
" clip-path="url(#pd007dc572a)" style="fill: #004d40"/>
    <path d="M 109.888898 211.492513 
L 109.888898 162.537951 
L 186.412027 162.537951 
L 186.412027 211.492513 
z
" clip-path="url(#pd007dc572a)" style="fill: #004d40"/>
    <path d="M 109.888898 141.557424 
L 109.888898 92.602862 
L 416.036852 92.602862 
L 416.036852 141.557424 
z
" clip-path="url(#pd007dc572a)" style="fill: #004d40"/>
    <path d="M 109.888898 71.622335 
L 109.888898 22.667772 
L 182.180937 22.667772 
L 182.180937 71.622335 
z
" clip-path="url(#pd007dc572a)" style="fill: #004d40"/>
   </g>
   <g id="PathCollection_1">
    <path d="M 111.797193 259.609002 
C 112.502284 259.609002 113.17859 259.328867 113.677164 258.830293 
C 114.175739 258.331718 114.455874 257.655412 114.455874 256.950321 
C 114.455874 256.245231 114.175739 255.568924 113.677164 255.07035 
C 113.17859 254.571776 112.502284 254.291641 111.797193 254.291641 
C 111.092103 254.291641 110.415796 254.571776 109.917222 255.07035 
C 109.418648 255.568924 109.138512 256.245231 109.138512 256.950321 
C 109.138512 257.655412 109.418648 258.331718 109.917222 258.830293 
C 110.415796 259.328867 111.092103 259.609002 111.797193 259.609002 
z
" clip-path="url(#pd007dc572a)" style="fill: #d81b60; stroke: #d81b60; stroke-width: 0.886227"/>
    <path d="M 112.33861 119.738824 
C 113.0437 119.738824 113.720007 119.458688 114.218581 118.960114 
C 114.717155 118.46154 114.997291 117.785233 114.997291 117.080143 
C 114.997291 116.375052 114.717155 115.698746 114.218581 115.200172 
C 113.720007 114.701597 113.0437 114.421462 112.33861 114.421462 
C 111.633519 114.421462 110.957213 114.701597 110.458639 115.200172 
C 109.960064 115.698746 109.679929 116.375052 109.679929 117.080143 
C 109.679929 117.785233 109.960064 118.46154 110.458639 118.960114 
C 110.957213 119.458688 111.633519 119.738824 112.33861 119.738824 
z
" clip-path="url(#pd007dc572a)" style="fill: #d81b60; stroke: #d81b60; stroke-width: 0.886227"/>
    <path d="M 110.952937 49.803734 
C 111.658027 49.803734 112.334334 49.523599 112.832908 49.025025 
C 113.331482 48.526451 113.611617 47.850144 113.611617 47.145054 
C 113.611617 46.439963 113.331482 45.763657 112.832908 45.265082 
C 112.334334 44.766508 111.658027 44.486373 110.952937 44.486373 
C 110.247846 44.486373 109.57154 44.766508 109.072965 45.265082 
C 108.574391 45.763657 108.294256 46.439963 108.294256 47.145054 
C 108.294256 47.850144 108.574391 48.526451 109.072965 49.025025 
C 109.57154 49.523599 110.247846 49.803734 110.952937 49.803734 
z
" clip-path="url(#pd007dc572a)" style="fill: #d81b60; stroke: #d81b60; stroke-width: 0.886227"/>
    <path d="M 111.045829 189.673913 
C 111.750919 189.673913 112.427226 189.393778 112.9258 188.895203 
C 113.424374 188.396629 113.70451 187.720323 113.70451 187.015232 
C 113.70451 186.310142 113.424374 185.633835 112.9258 185.135261 
C 112.427226 184.636687 111.750919 184.356551 111.045829 184.356551 
C 110.340738 184.356551 109.664432 184.636687 109.165858 185.135261 
C 108.667283 185.633835 108.387148 186.310142 108.387148 187.015232 
C 108.387148 187.720323 108.667283 188.396629 109.165858 188.895203 
C 109.664432 189.393778 110.340738 189.673913 111.045829 189.673913 
z
" clip-path="url(#pd007dc572a)" style="fill: #d81b60; stroke: #d81b60; stroke-width: 0.886227"/>
   </g>
  </g>
  <g id="patch_4">
   <path d="M 94.5815 298.911375 
L 431.34425 298.911375 
L 431.34425 5.184 
L 94.5815 5.184 
L 94.5815 298.911375 
z
" style="fill: none; stroke: #7f7f7f; stroke-linejoin: miter"/>
  </g>
  <g id="text_9">
   <!-- Markers or markers/s (millions) -->
   <g transform="translate(185.305844 323.936312) scale(0.1 -0.1)">
    <defs>
     <path id="DejaVuSans-4d" d="M 628 4666 
L 1569 4666 
L 2759 1491 
L 3956 4666 
L 4897 4666 
L 4897 0 
L 4281 0 
L 4281 4097 
L 3078 897 
L 2444 897 
L 1241 4097 
L 1241 0 
L 628 0 
L 628 4666 
z
" transform="scale(0.015625)"/>
     <path id="DejaVuSans-72" d="M 2631 2963 
Q 2534 3019 2420 3045 
Q 2306 3072 2169 3072 
Q 1681 3072 1420 2755 
Q 1159 2438 1159 1844 
L 1159 0 
L 581 0 
L 581 3500 
L 1159 3500 
L 1159 2956 
Q 1341 3275 1631 3429 
Q 1922 3584 2338 3584 
Q 2397 3584 2469 3576 
Q 2541 3569 2628 3553 
L 2631 2963 
z
" transform="scale(0.015625)"/>
     <path id="DejaVuSans-6b" d="M 581 4863 
L 1159 4863 
L 1159 1991 
L 2875 3500 
L 3609 3500 
L 1753 1863 
L 3688 0 
L 2938 0 
L 1159 1709 
L 1159 0 
L 581 0 
L 581 4863 
z
" transform="scale(0.015625)"/>
     <path id="DejaVuSans-6d" d="M 3328 2828 
Q 3544 3216 3844 3400 
Q 4144 3584 4550 3584 
Q 5097 3584 5394 3201 
Q 5691 2819 5691 2113 
L 5691 0 
L 5113 0 
L 5113 2094 
Q 5113 2597 4934 2840 
Q 4756 3084 4391 3084 
Q 3944 3084 3684 2787 
Q 3425 2491 3425 1978 
L 3425 0 
L 2847 0 
L 2847 2094 
Q 2847 2600 2669 2842 
Q 2491 3084 2119 3084 
Q 1678 3084 1418 2786 
Q 1159 2488 1159 1978 
L 1159 0 
L 581 0 
L 581 3500 
L 1159 3500 
L 1159 2956 
Q 1356 3278 1631 3431 
Q 1906 3584 2284 3584 
Q 2666 3584 2933 3390 
Q 3200 3197 3328 2828 
z
" transform="scale(0.015625)"/>
     <path id="DejaVuSans-2f" d="M 1625 4666 
L 2156 4666 
L 531 -594 
L 0 -594 
L 1625 4666 
z
" transform="scale(0.015625)"/>
     <path id="DejaVuSans-28" d="M 1984 4856 
Q 1566 4138 1362 3434 
Q 1159 2731 1159 2009 
Q 1159 1288 1364 580 
Q 1569 -128 1984 -844 
L 1484 -844 
Q 1016 -109 783 600 
Q 550 1309 550 2009 
Q 550 2706 781 3412 
Q 1013 4119 1484 4856 
L 1984 4856 
z
" transform="scale(0.015625)"/>
     <path id="DejaVuSans-29" d="M 513 4856 
L 1013 4856 
Q 1481 4119 1714 3412 
Q 1947 2706 1947 2009 
Q 1947 1309 1714 600 
Q 1481 -109 1013 -844 
L 513 -844 
Q 928 -128 1133 580 
Q 1338 1288 1338 2009 
Q 1338 2731 1133 3434 
Q 928 4138 513 4856 
z
" transform="scale(0.015625)"/>
    </defs>
    <use xlink:href="#DejaVuSans-4d"/>
    <use xlink:href="#DejaVuSans-61" transform="translate(86.279297 0)"/>
    <use xlink:href="#DejaVuSans-72" transform="translate(147.558594 0)"/>
    <use xlink:href="#DejaVuSans-6b" transform="translate(188.671875 0)"/>
    <use xlink:href="#DejaVuSans-65" transform="translate(242.957031 0)"/>
    <use xlink:href="#DejaVuSans-72" transform="translate(304.480469 0)"/>
    <use xlink:href="#DejaVuSans-73" transform="translate(345.59375 0)"/>
    <use xlink:href="#DejaVuSans-20" transform="translate(397.693359 0)"/>
    <use xlink:href="#DejaVuSans-6f" transform="translate(429.480469 0)"/>
    <use xlink:href="#DejaVuSans-72" transform="translate(490.662109 0)"/>
    <use xlink:href="#DejaVuSans-20" transform="translate(531.775391 0)"/>
    <use xlink:href="#DejaVuSans-6d" transform="translate(563.5625 0)"/>
    <use xlink:href="#DejaVuSans-61" transform="translate(660.974609 0)"/>
    <use xlink:href="#DejaVuSans-72" transform="translate(722.253906 0)"/>
    <use xlink:href="#DejaVuSans-6b" transform="translate(763.367188 0)"/>
    <use xlink:href="#DejaVuSans-65" transform="translate(817.652344 0)"/>
    <use xlink:href="#DejaVuSans-72" transform="translate(879.175781 0)"/>
    <use xlink:href="#DejaVuSans-73" transform="translate(920.289062 0)"/>
    <use xlink:href="#DejaVuSans-2f" transform="translate(972.388672 0)"/>
    <use xlink:href="#DejaVuSans-73" transform="translate(1006.080078 0)"/>
    <use xlink:href="#DejaVuSans-20" transform="translate(1058.179688 0)"/>
    <use xlink:href="#DejaVuSans-28" transform="translate(1089.966797 0)"/>
    <use xlink:href="#DejaVuSans-6d" transform="translate(1128.980469 0)"/>
    <use xlink:href="#DejaVuSans-69" transform="translate(1226.392578 0)"/>
    <use xlink:href="#DejaVuSans-6c" transform="translate(1254.175781 0)"/>
    <use xlink:href="#DejaVuSans-6c" transform="translate(1281.958984 0)"/>
    <use xlink:href="#DejaVuSans-69" transform="translate(1309.742188 0)"/>
    <use xlink:href="#DejaVuSans-6f" transform="translate(1337.525391 0)"/>
    <use xlink:href="#DejaVuSans-6e" transform="translate(1398.707031 0)"/>
    <use xlink:href="#DejaVuSans-73" transform="translate(1462.085938 0)"/>
    <use xlink:href="#DejaVuSans-29" transform="translate(1514.185547 0)"/>
   </g>
  </g>
  <g id="patch_5">
   <path d="M 446.89625 165.430844 
L 513.216 165.430844 
L 513.216 138.664531 
L 446.89625 138.664531 
z
" style="fill: #ffffff"/>
  </g>
  <g id="patch_6">
   <path d="M 447.89625 164.430844 
L 462.29625 164.430844 
L 462.29625 150.030844 
L 447.89625 150.030844 
z
" clip-path="url(#p4aef843d7d)" style="fill: #ffffff"/>
  </g>
  <g id="line2d_17">
   <path d="M 455.09625 157.230844 
" clip-path="url(#p4aef843d7d)" style="fill: none; stroke: #1f77b4; stroke-width: 1.5; stroke-linecap: square"/>
   <defs>
    <path id="m8f819d522e" d="M 0 2.658681 
C 0.70509 2.658681 1.381397 2.378545 1.879971 1.879971 
C 2.378545 1.381397 2.658681 0.70509 2.658681 0 
C 2.658681 -0.70509 2.378545 -1.381397 1.879971 -1.879971 
C 1.381397 -2.378545 0.70509 -2.658681 0 -2.658681 
C -0.70509 -2.658681 -1.381397 -2.378545 -1.879971 -1.879971 
C -2.378545 -1.381397 -2.658681 -0.70509 -2.658681 0 
C -2.658681 0.70509 -2.378545 1.381397 -1.879971 1.879971 
C -1.381397 2.378545 -0.70509 2.658681 0 2.658681 
z
" style="stroke: #d81b60; stroke-width: 0.886227"/>
   </defs>
   <g clip-path="url(#p4aef843d7d)">
    <use xlink:href="#m8f819d522e" x="455.09625" y="157.230844" style="fill: #d81b60; stroke: #d81b60; stroke-width: 0.886227"/>
   </g>
  </g>
  <g id="text_10">
   <!-- Throughput -->
   <g transform="translate(465.75225 159.438344) scale(0.08 -0.08)">
    <defs>
     <path id="DejaVuSans-70" d="M 1159 525 
L 1159 -1331 
L 581 -1331 
L 581 3500 
L 1159 3500 
L 1159 2969 
Q 1341 3281 1617 3432 
Q 1894 3584 2278 3584 
Q 2916 3584 3314 3078 
Q 3713 2572 3713 1747 
Q 3713 922 3314 415 
Q 2916 -91 2278 -91 
Q 1894 -91 1617 61 
Q 1341 213 1159 525 
z
M 3116 1747 
Q 3116 2381 2855 2742 
Q 2594 3103 2138 3103 
Q 1681 3103 1420 2742 
Q 1159 2381 1159 1747 
Q 1159 1113 1420 752 
Q 1681 391 2138 391 
Q 2594 391 2855 752 
Q 3116 1113 3116 1747 
z
" transform="scale(0.015625)"/>
    </defs>
    <use xlink:href="#DejaVuSans-54"/>
    <use xlink:href="#DejaVuSans-68" transform="translate(61.083984 0)"/>
    <use xlink:href="#DejaVuSans-72" transform="translate(124.462891 0)"/>
    <use xlink:href="#DejaVuSans-6f" transform="translate(163.326172 0)"/>
    <use xlink:href="#DejaVuSans-75" transform="translate(224.507812 0)"/>
    <use xlink:href="#DejaVuSans-67" transform="translate(287.886719 0)"/>
    <use xlink:href="#DejaVuSans-68" transform="translate(351.363281 0)"/>
    <use xlink:href="#DejaVuSans-70" transform="translate(414.742188 0)"/>
    <use xlink:href="#DejaVuSans-75" transform="translate(478.21875 0)"/>
    <use xlink:href="#DejaVuSans-74" transform="translate(541.597656 0)"/>
   </g>
  </g>
 </g>
 <defs>
  <clipPath id="pd007dc572a">
   <rect x="94.5815" y="5.184" width="336.76275" height="293.727375"/>
  </clipPath>
  <clipPath id="p4aef843d7d">
   <path d="M 447.89625 164.430844 
L 447.89625 150.030844 
L 462.29625 150.030844 
L 462.29625 164.430844 
"/>
  </clipPath>
 </defs>
</svg>
