<?xml version="1.0" encoding="utf-8" standalone="no"?>
<!DOCTYPE svg PUBLIC "-//W3C//DTD SVG 1.1//EN"
  "http://www.w3.org/Graphics/SVG/1.1/DTD/svg11.dtd">
<svg xmlns:xlink="http://www.w3.org/1999/xlink" width="518.4pt" height="374.4pt" viewBox="0 0 518.4 374.4" xmlns="http://www.w3.org/2000/svg" version="1.1">
 <metadata>
  <rdf:RDF xmlns:dc="http://purl.org/dc/elements/1.1/" xmlns:cc="http://creativecommons.org/ns#" xmlns:rdf="http://www.w3.org/1999/02/22-rdf-syntax-ns#">
   <cc:Work>
    <dc:type rdf:resource="http://purl.org/dc/dcmitype/StillImage"/>
    <dc:date>2026-05-17T09:36:30.951760</dc:date>
    <dc:format>image/svg+xml</dc:format>
    <dc:creator>
     <cc:Agent>
      <dc:title>Matplotlib v3.10.9, https://matplotlib.org/</dc:title>
     </cc:Agent>
    </dc:creator>
   </cc:Work>
  </rdf:RDF>
 </metadata>
 <defs>
  <style type="text/css">*{stroke-linejoin: round; stroke-linecap: butt}</style>
 </defs>
 <g id="figure_1">
  <g id="patch_1">
   <path d="M 0 374.4
L 518.4 374.4
L 518.4 0
L 0 0
z
" style="fill: #ffffff"/>
  </g>
  <g id="patch_2">
   <path d="M 0 374.4
L 518.4 374.4
L 518.4 0
L 0 0
L 0 374.4
z
" style="fill: none; stroke: #ffffff; stroke-linejoin: miter"/>
  </g>
  <g id="axes_1">
   <g id="patch_3">
    <path d="M 53.134 342.111375
L 513.216 342.111375
L 513.216 5.184
L 53.134 5.184
z
" style="fill: #ffffff"/>
   </g>
   <g id="matplotlib.axis_1">
    <g id="xtick_1">
     <g id="line2d_1">
      <path d="M 74.046818 342.111375
L 74.046818 5.184
" clip-path="url(#p105f15a1a8)" style="fill: none; stroke: #e6e6e6; stroke-width: 0.35; stroke-linecap: square"/>
     </g>
     <g id="line2d_2">
      <path d="M 74.046818 342.111375
" style="fill: none; stroke: #333333; stroke-width: 1.5; stroke-linecap: square"/>
      <defs>
       <path id="m067ed66ad5" d="M 0 0
L 0 2.5
" style="stroke: #333333"/>
      </defs>
      <g>
       <use xlink:href="#m067ed66ad5" x="74.046818" y="342.111375" style="fill: #333333; stroke: #333333"/>
      </g>
     </g>
     <g id="text_1">
      <!-- 1 -->
      <g style="fill: #4d4d4d" transform="translate(71.501818 352.690125) scale(0.08 -0.08)">
       <defs>
        <path id="DejaVuSans-31" d="M 794 531
L 1825 531
L 1825 4091
L 703 3866
L 703 4441
L 1819 4666
L 2450 4666
L 2450 531
L 3481 531
L 3481 0
L 794 0
L 794 531
z
" transform="scale(0.015625)"/>
       </defs>
       <use xlink:href="#DejaVuSans-31"/>
      </g>
     </g>
    </g>
    <g id="xtick_2">
     <g id="line2d_3">
      <path d="M 305.226703 342.111375
L 305.226703 5.184
" clip-path="url(#p105f15a1a8)" style="fill: none; stroke: #e6e6e6; stroke-width: 0.35; stroke-linecap: square"/>
     </g>
     <g id="line2d_4">
      <path d="M 305.226703 342.111375
" style="fill: none; stroke: #333333; stroke-width: 1.5; stroke-linecap: square"/>
      <g>
       <use xlink:href="#m067ed66ad5" x="305.226703" y="342.111375" style="fill: #333333; stroke: #333333"/>
      </g>
     </g>
     <g id="text_2">
      <!-- 3 -->
      <g style="fill: #4d4d4d" transform="translate(302.681703 352.690125) scale(0.08 -0.08)">
       <defs>
        <path id="DejaVuSans-33" d="M 2597 2516
Q 3050 2419 3304 2112
Q 3559 1806 3559 1356
Q 3559 666 3084 287
Q 2609 -91 1734 -91
Q 1441 -91 1130 -33
Q 819 25 488 141
L 488 750
Q 750 597 1062 519
Q 1375 441 1716 441
Q 2309 441 2620 675
Q 2931 909 2931 1356
Q 2931 1769 2642 2001
Q 2353 2234 1838 2234
L 1294 2234
L 1294 2753
L 1863 2753
Q 2328 2753 2575 2939
Q 2822 3125 2822 3475
Q 2822 3834 2567 4026
Q 2313 4219 1838 4219
Q 1578 4219 1281 4162
Q 984 4106 628 3988
L 628 4550
Q 988 4650 1302 4700
Q 1616 4750 1894 4750
Q 2613 4750 3031 4423
Q 3450 4097 3450 3541
Q 3450 3153 3228 2886
Q 3006 2619 2597 2516
z
" transform="scale(0.015625)"/>
       </defs>
       <use xlink:href="#DejaVuSans-33"/>
      </g>
     </g>
    </g>
    <g id="xtick_3">
     <g id="line2d_5">
      <path d="M 412.719227 342.111375
L 412.719227 5.184
" clip-path="url(#p105f15a1a8)" style="fill: none; stroke: #e6e6e6; stroke-width: 0.35; stroke-linecap: square"/>
     </g>
     <g id="line2d_6">
      <path d="M 412.719227 342.111375
" style="fill: none; stroke: #333333; stroke-width: 1.5; stroke-linecap: square"/>
      <g>
       <use xlink:href="#m067ed66ad5" x="412.719227" y="342.111375" style="fill: #333333; stroke: #333333"/>
      </g>
     </g>
     <g id="text_3">
      <!-- 5 -->
      <g style="fill: #4d4d4d" transform="translate(410.174227 352.690125) scale(0.08 -0.08)">
       <defs>
        <path id="DejaVuSans-35" d="M 691 4666
L 3169 4666
L 3169 4134
L 1269 4134
L 1269 2991
Q 1406 3038 1543 3061
Q 1681 3084 1819 3084
Q 2600 3084 3056 2656
Q 3513 2228 3513 1497
Q 3513 744 3044 326
Q 2575 -91 1722 -91
Q 1428 -91 1123 -41
Q 819 9 494 109
L 494 744
Q 775 591 1075 516
Q 1375 441 1709 441
Q 2250 441 2565 725
Q 2881 1009 2881 1497
Q 2881 1984 2565 2268
Q 2250 2553 1709 2553
Q 1456 2553 1204 2497
Q 953 2441 691 2322
L 691 4666
z
" transform="scale(0.015625)"/>
       </defs>
       <use xlink:href="#DejaVuSans-35"/>
      </g>
     </g>
    </g>
    <g id="xtick_4"/>
    <g id="xtick_5"/>
    <g id="xtick_6"/>
    <g id="xtick_7"/>
    <g id="xtick_8"/>
    <g id="xtick_9"/>
    <g id="xtick_10"/>
    <g id="xtick_11"/>
    <g id="xtick_12"/>
    <g id="xtick_13"/>
    <g id="xtick_14"/>
    <g id="xtick_15"/>
    <g id="xtick_16"/>
    <g id="xtick_17"/>
    <g id="xtick_18"/>
    <g id="xtick_19"/>
    <g id="xtick_20"/>
    <g id="xtick_21"/>
    <g id="xtick_22"/>
    <g id="xtick_23"/>
    <g id="xtick_24"/>
    <g id="xtick_25"/>
   </g>
   <g id="matplotlib.axis_2">
    <g id="ytick_1">
     <g id="line2d_7">
      <path d="M 53.134 326.796494
L 513.216 326.796494
" clip-path="url(#p105f15a1a8)" style="fill: none; stroke: #e6e6e6; stroke-width: 0.35; stroke-linecap: square"/>
     </g>
     <g id="line2d_8">
      <path d="M 53.134 326.796494
" style="fill: none; stroke: #333333; stroke-width: 1.5; stroke-linecap: square"/>
      <defs>
       <path id="m8bb10fbbeb" d="M 0 0
L -2.5 0
" style="stroke: #333333"/>
      </defs>
      <g>
       <use xlink:href="#m8bb10fbbeb" x="53.134" y="326.796494" style="fill: #333333; stroke: #333333"/>
      </g>
     </g>
     <g id="text_4">
      <!-- process d1 -->
      <g style="fill: #4d4d4d" transform="translate(5.184 329.835869) scale(0.08 -0.08)">
       <defs>
        <path id="DejaVuSans-70" d="M 1159 525
L 1159 -1331
L 581 -1331
L 581 3500
L 1159 3500
L 1159 2969
Q 1341 3281 1617 3432
Q 1894 3584 2278 3584
Q 2916 3584 3314 3078
Q 3713 2572 3713 1747
Q 3713 922 3314 415
Q 2916 -91 2278 -91
Q 1894 -91 1617 61
Q 1341 213 1159 525
z
M 3116 1747
Q 3116 2381 2855 2742
Q 2594 3103 2138 3103
Q 1681 3103 1420 2742
Q 1159 2381 1159 1747
Q 1159 1113 1420 752
Q 1681 391 2138 391
Q 2594 391 2855 752
Q 3116 1113 3116 1747
z
" transform="scale(0.015625)"/>
        <path id="DejaVuSans-72" d="M 2631 2963
Q 2534 3019 2420 3045
Q 2306 3072 2169 3072
Q 1681 3072 1420 2755
Q 1159 2438 1159 1844
L 1159 0
L 581 0
L 581 3500
L 1159 3500
L 1159 2956
Q 1341 3275 1631 3429
Q 1922 3584 2338 3584
Q 2397 3584 2469 3576
Q 2541 3569 2628 3553
L 2631 2963
z
" transform="scale(0.015625)"/>
        <path id="DejaVuSans-6f" d="M 1959 3097
Q 1497 3097 1228 2736
Q 959 2375 959 1747
Q 959 1119 1226 758
Q 1494 397 1959 397
Q 2419 397 2687 759
Q 2956 1122 2956 1747
Q 2956 2369 2687 2733
Q 2419 3097 1959 3097
z
M 1959 3584
Q 2709 3584 3137 3096
Q 3566 2609 3566 1747
Q 3566 888 3137 398
Q 2709 -91 1959 -91
Q 1206 -91 779 398
Q 353 888 353 1747
Q 353 2609 779 3096
Q 1206 3584 1959 3584
z
" transform="scale(0.015625)"/>
        <path id="DejaVuSans-63" d="M 3122 3366
L 3122 2828
Q 2878 2963 2633 3030
Q 2388 3097 2138 3097
Q 1578 3097 1268 2742
Q 959 2388 959 1747
Q 959 1106 1268 751
Q 1578 397 2138 397
Q 2388 397 2633 464
Q 2878 531 3122 666
L 3122 134
Q 2881 22 2623 -34
Q 2366 -91 2075 -91
Q 1284 -91 818 406
Q 353 903 353 1747
Q 353 2603 823 3093
Q 1294 3584 2113 3584
Q 2378 3584 2631 3529
Q 2884 3475 3122 3366
z
" transform="scale(0.015625)"/>
        <path id="DejaVuSans-65" d="M 3597 1894
L 3597 1613
L 953 1613
Q 991 1019 1311 708
Q 1631 397 2203 397
Q 2534 397 2845 478
Q 3156 559 3463 722
L 3463 178
Q 3153 47 2828 -22
Q 2503 -91 2169 -91
Q 1331 -91 842 396
Q 353 884 353 1716
Q 353 2575 817 3079
Q 1281 3584 2069 3584
Q 2775 3584 3186 3129
Q 3597 2675 3597 1894
z
M 3022 2063
Q 3016 2534 2758 2815
Q 2500 3097 2075 3097
Q 1594 3097 1305 2825
Q 1016 2553 972 2059
L 3022 2063
z
" transform="scale(0.015625)"/>
        <path id="DejaVuSans-73" d="M 2834 3397
L 2834 2853
Q 2591 2978 2328 3040
Q 2066 3103 1784 3103
Q 1356 3103 1142 2972
Q 928 2841 928 2578
Q 928 2378 1081 2264
Q 1234 2150 1697 2047
L 1894 2003
Q 2506 1872 2764 1633
Q 3022 1394 3022 966
Q 3022 478 2636 193
Q 2250 -91 1575 -91
Q 1294 -91 989 -36
Q 684 19 347 128
L 347 722
Q 666 556 975 473
Q 1284 391 1588 391
Q 1994 391 2212 530
Q 2431 669 2431 922
Q 2431 1156 2273 1281
Q 2116 1406 1581 1522
L 1381 1569
Q 847 1681 609 1914
Q 372 2147 372 2553
Q 372 3047 722 3315
Q 1072 3584 1716 3584
Q 2034 3584 2315 3537
Q 2597 3491 2834 3397
z
" transform="scale(0.015625)"/>
        <path id="DejaVuSans-20" transform="scale(0.015625)"/>
        <path id="DejaVuSans-64" d="M 2906 2969
L 2906 4863
L 3481 4863
L 3481 0
L 2906 0
L 2906 525
Q 2725 213 2448 61
Q 2172 -91 1784 -91
Q 1150 -91 751 415
Q 353 922 353 1747
Q 353 2572 751 3078
Q 1150 3584 1784 3584
Q 2172 3584 2448 3432
Q 2725 3281 2906 2969
z
M 947 1747
Q 947 1113 1208 752
Q 1469 391 1925 391
Q 2381 391 2643 752
Q 2906 1113 2906 1747
Q 2906 2381 2643 2742
Q 2381 3103 1925 3103
Q 1469 3103 1208 2742
Q 947 2381 947 1747
z
" transform="scale(0.015625)"/>
       </defs>
       <use xlink:href="#DejaVuSans-70"/>
       <use xlink:href="#DejaVuSans-72" transform="translate(63.476562 0)"/>
       <use xlink:href="#DejaVuSans-6f" transform="translate(102.339844 0)"/>
       <use xlink:href="#DejaVuSans-63" transform="translate(163.521484 0)"/>
       <use xlink:href="#DejaVuSans-65" transform="translate(218.501953 0)"/>
       <use xlink:href="#DejaVuSans-73" transform="translate(280.025391 0)"/>
       <use xlink:href="#DejaVuSans-73" transform="translate(332.125 0)"/>
       <use xlink:href="#DejaVuSans-20" transform="translate(384.224609 0)"/>
       <use xlink:href="#DejaVuSans-64" transform="translate(416.011719 0)"/>
       <use xlink:href="#DejaVuSans-31" transform="translate(479.488281 0)"/>
      </g>
     </g>
    </g>
    <g id="ytick_2">
     <g id="line2d_9">
      <path d="M 53.134 301.271693
L 513.216 301.271693
" clip-path="url(#p105f15a1a8)" style="fill: none; stroke: #e6e6e6; stroke-width: 0.35; stroke-linecap: square"/>
     </g>
     <g id="line2d_10">
      <path d="M 53.134 301.271693
" style="fill: none; stroke: #333333; stroke-width: 1.5; stroke-linecap: square"/>
      <g>
       <use xlink:href="#m8bb10fbbeb" x="53.134" y="301.271693" style="fill: #333333; stroke: #333333"/>
      </g>
     </g>
     <g id="text_5">
      <!-- freq d1 -->
      <g style="fill: #4d4d4d" transform="translate(19.9965 304.311068) scale(0.08 -0.08)">
       <defs>
        <path id="DejaVuSans-66" d="M 2375 4863
L 2375 4384
L 1825 4384
Q 1516 4384 1395 4259
Q 1275 4134 1275 3809
L 1275 3500
L 2222 3500
L 2222 3053
L 1275 3053
L 1275 0
L 697 0
L 697 3053
L 147 3053
L 147 3500
L 697 3500
L 697 3744
Q 697 4328 969 4595
Q 1241 4863 1831 4863
L 2375 4863
z
" transform="scale(0.015625)"/>
        <path id="DejaVuSans-71" d="M 947 1747
Q 947 1113 1208 752
Q 1469 391 1925 391
Q 2381 391 2643 752
Q 2906 1113 2906 1747
Q 2906 2381 2643 2742
Q 2381 3103 1925 3103
Q 1469 3103 1208 2742
Q 947 2381 947 1747
z
M 2906 525
Q 2725 213 2448 61
Q 2172 -91 1784 -91
Q 1150 -91 751 415
Q 353 922 353 1747
Q 353 2572 751 3078
Q 1150 3584 1784 3584
Q 2172 3584 2448 3432
Q 2725 3281 2906 2969
L 2906 3500
L 3481 3500
L 3481 -1331
L 2906 -1331
L 2906 525
z
" transform="scale(0.015625)"/>
       </defs>
       <use xlink:href="#DejaVuSans-66"/>
       <use xlink:href="#DejaVuSans-72" transform="translate(35.205078 0)"/>
       <use xlink:href="#DejaVuSans-65" transform="translate(74.068359 0)"/>
       <use xlink:href="#DejaVuSans-71" transform="translate(135.591797 0)"/>
       <use xlink:href="#DejaVuSans-20" transform="translate(199.068359 0)"/>
       <use xlink:href="#DejaVuSans-64" transform="translate(230.855469 0)"/>
       <use xlink:href="#DejaVuSans-31" transform="translate(294.332031 0)"/>
      </g>
     </g>
    </g>
    <g id="ytick_3">
     <g id="line2d_11">
      <path d="M 53.134 275.746892
L 513.216 275.746892
" clip-path="url(#p105f15a1a8)" style="fill: none; stroke: #e6e6e6; stroke-width: 0.35; stroke-linecap: square"/>
     </g>
     <g id="line2d_12">
      <path d="M 53.134 275.746892
" style="fill: none; stroke: #333333; stroke-width: 1.5; stroke-linecap: square"/>
      <g>
       <use xlink:href="#m8bb10fbbeb" x="53.134" y="275.746892" style="fill: #333333; stroke: #333333"/>
      </g>
     </g>
     <g id="text_6">
      <!-- freq d2 -->
      <g style="fill: #4d4d4d" transform="translate(19.9965 278.786267) scale(0.08 -0.08)">
       <defs>
        <path id="DejaVuSans-32" d="M 1228 531
L 3431 531
L 3431 0
L 469 0
L 469 531
Q 828 903 1448 1529
Q 2069 2156 2228 2338
Q 2531 2678 2651 2914
Q 2772 3150 2772 3378
Q 2772 3750 2511 3984
Q 2250 4219 1831 4219
Q 1534 4219 1204 4116
Q 875 4013 500 3803
L 500 4441
Q 881 4594 1212 4672
Q 1544 4750 1819 4750
Q 2544 4750 2975 4387
Q 3406 4025 3406 3419
Q 3406 3131 3298 2873
Q 3191 2616 2906 2266
Q 2828 2175 2409 1742
Q 1991 1309 1228 531
z
" transform="scale(0.015625)"/>
       </defs>
       <use xlink:href="#DejaVuSans-66"/>
       <use xlink:href="#DejaVuSans-72" transform="translate(35.205078 0)"/>
       <use xlink:href="#DejaVuSans-65" transform="translate(74.068359 0)"/>
       <use xlink:href="#DejaVuSans-71" transform="translate(135.591797 0)"/>
       <use xlink:href="#DejaVuSans-20" transform="translate(199.068359 0)"/>
       <use xlink:href="#DejaVuSans-64" transform="translate(230.855469 0)"/>
       <use xlink:href="#DejaVuSans-32" transform="translate(294.332031 0)"/>
      </g>
     </g>
    </g>
    <g id="ytick_4">
     <g id="line2d_13">
      <path d="M 53.134 250.222091
L 513.216 250.222091
" clip-path="url(#p105f15a1a8)" style="fill: none; stroke: #e6e6e6; stroke-width: 0.35; stroke-linecap: square"/>
     </g>
     <g id="line2d_14">
      <path d="M 53.134 250.222091
" style="fill: none; stroke: #333333; stroke-width: 1.5; stroke-linecap: square"/>
      <g>
       <use xlink:href="#m8bb10fbbeb" x="53.134" y="250.222091" style="fill: #333333; stroke: #333333"/>
      </g>
     </g>
     <g id="text_7">
      <!-- freq d5 -->
      <g style="fill: #4d4d4d" transform="translate(19.9965 253.261466) scale(0.08 -0.08)">
       <use xlink:href="#DejaVuSans-66"/>
       <use xlink:href="#DejaVuSans-72" transform="translate(35.205078 0)"/>
       <use xlink:href="#DejaVuSans-65" transform="translate(74.068359 0)"/>
       <use xlink:href="#DejaVuSans-71" transform="translate(135.591797 0)"/>
       <use xlink:href="#DejaVuSans-20" transform="translate(199.068359 0)"/>
       <use xlink:href="#DejaVuSans-64" transform="translate(230.855469 0)"/>
       <use xlink:href="#DejaVuSans-35" transform="translate(294.332031 0)"/>
      </g>
     </g>
    </g>
    <g id="ytick_5">
     <g id="line2d_15">
      <path d="M 53.134 224.69729
L 513.216 224.69729
" clip-path="url(#p105f15a1a8)" style="fill: none; stroke: #e6e6e6; stroke-width: 0.35; stroke-linecap: square"/>
     </g>
     <g id="line2d_16">
      <path d="M 53.134 224.69729
" style="fill: none; stroke: #333333; stroke-width: 1.5; stroke-linecap: square"/>
      <g>
       <use xlink:href="#m8bb10fbbeb" x="53.134" y="224.69729" style="fill: #333333; stroke: #333333"/>
      </g>
     </g>
     <g id="text_8">
      <!-- freq d10 -->
      <g style="fill: #4d4d4d" transform="translate(14.9065 227.736665) scale(0.08 -0.08)">
       <defs>
        <path id="DejaVuSans-30" d="M 2034 4250
Q 1547 4250 1301 3770
Q 1056 3291 1056 2328
Q 1056 1369 1301 889
Q 1547 409 2034 409
Q 2525 409 2770 889
Q 3016 1369 3016 2328
Q 3016 3291 2770 3770
Q 2525 4250 2034 4250
z
M 2034 4750
Q 2819 4750 3233 4129
Q 3647 3509 3647 2328
Q 3647 1150 3233 529
Q 2819 -91 2034 -91
Q 1250 -91 836 529
Q 422 1150 422 2328
Q 422 3509 836 4129
Q 1250 4750 2034 4750
z
" transform="scale(0.015625)"/>
       </defs>
       <use xlink:href="#DejaVuSans-66"/>
       <use xlink:href="#DejaVuSans-72" transform="translate(35.205078 0)"/>
       <use xlink:href="#DejaVuSans-65" transform="translate(74.068359 0)"/>
       <use xlink:href="#DejaVuSans-71" transform="translate(135.591797 0)"/>
       <use xlink:href="#DejaVuSans-20" transform="translate(199.068359 0)"/>
       <use xlink:href="#DejaVuSans-64" transform="translate(230.855469 0)"/>
       <use xlink:href="#DejaVuSans-31" transform="translate(294.332031 0)"/>
       <use xlink:href="#DejaVuSans-30" transform="translate(357.955078 0)"/>
      </g>
     </g>
    </g>
    <g id="ytick_6">
     <g id="line2d_17">
      <path d="M 53.134 199.172489
L 513.216 199.172489
" clip-path="url(#p105f15a1a8)" style="fill: none; stroke: #e6e6e6; stroke-width: 0.35; stroke-linecap: square"/>
     </g>
     <g id="line2d_18">
      <path d="M 53.134 199.172489
" style="fill: none; stroke: #333333; stroke-width: 1.5; stroke-linecap: square"/>
      <g>
       <use xlink:href="#m8bb10fbbeb" x="53.134" y="199.172489" style="fill: #333333; stroke: #333333"/>
      </g>
     </g>
     <g id="text_9">
      <!-- distrib d1 -->
      <g style="fill: #4d4d4d" transform="translate(10.72775 202.211864) scale(0.08 -0.08)">
       <defs>
        <path id="DejaVuSans-69" d="M 603 3500
L 1178 3500
L 1178 0
L 603 0
L 603 3500
z
M 603 4863
L 1178 4863
L 1178 4134
L 603 4134
L 603 4863
z
" transform="scale(0.015625)"/>
        <path id="DejaVuSans-74" d="M 1172 4494
L 1172 3500
L 2356 3500
L 2356 3053
L 1172 3053
L 1172 1153
Q 1172 725 1289 603
Q 1406 481 1766 481
L 2356 481
L 2356 0
L 1766 0
Q 1100 0 847 248
Q 594 497 594 1153
L 594 3053
L 172 3053
L 172 3500
L 594 3500
L 594 4494
L 1172 4494
z
" transform="scale(0.015625)"/>
        <path id="DejaVuSans-62" d="M 3116 1747
Q 3116 2381 2855 2742
Q 2594 3103 2138 3103
Q 1681 3103 1420 2742
Q 1159 2381 1159 1747
Q 1159 1113 1420 752
Q 1681 391 2138 391
Q 2594 391 2855 752
Q 3116 1113 3116 1747
z
M 1159 2969
Q 1341 3281 1617 3432
Q 1894 3584 2278 3584
Q 2916 3584 3314 3078
Q 3713 2572 3713 1747
Q 3713 922 3314 415
Q 2916 -91 2278 -91
Q 1894 -91 1617 61
Q 1341 213 1159 525
L 1159 0
L 581 0
L 581 4863
L 1159 4863
L 1159 2969
z
" transform="scale(0.015625)"/>
       </defs>
       <use xlink:href="#DejaVuSans-64"/>
       <use xlink:href="#DejaVuSans-69" transform="translate(63.476562 0)"/>
       <use xlink:href="#DejaVuSans-73" transform="translate(91.259766 0)"/>
       <use xlink:href="#DejaVuSans-74" transform="translate(143.359375 0)"/>
       <use xlink:href="#DejaVuSans-72" transform="translate(182.568359 0)"/>
       <use xlink:href="#DejaVuSans-69" transform="translate(223.681641 0)"/>
       <use xlink:href="#DejaVuSans-62" transform="translate(251.464844 0)"/>
       <use xlink:href="#DejaVuSans-20" transform="translate(314.941406 0)"/>
       <use xlink:href="#DejaVuSans-64" transform="translate(346.728516 0)"/>
       <use xlink:href="#DejaVuSans-31" transform="translate(410.205078 0)"/>
      </g>
     </g>
    </g>
    <g id="ytick_7">
     <g id="line2d_19">
      <path d="M 53.134 173.647688
L 513.216 173.647688
" clip-path="url(#p105f15a1a8)" style="fill: none; stroke: #e6e6e6; stroke-width: 0.35; stroke-linecap: square"/>
     </g>
     <g id="line2d_20">
      <path d="M 53.134 173.647688
" style="fill: none; stroke: #333333; stroke-width: 1.5; stroke-linecap: square"/>
      <g>
       <use xlink:href="#m8bb10fbbeb" x="53.134" y="173.647688" style="fill: #333333; stroke: #333333"/>
      </g>
     </g>
     <g id="text_10">
      <!-- distrib d2 -->
      <g style="fill: #4d4d4d" transform="translate(10.72775 176.687063) scale(0.08 -0.08)">
       <use xlink:href="#DejaVuSans-64"/>
       <use xlink:href="#DejaVuSans-69" transform="translate(63.476562 0)"/>
       <use xlink:href="#DejaVuSans-73" transform="translate(91.259766 0)"/>
       <use xlink:href="#DejaVuSans-74" transform="translate(143.359375 0)"/>
       <use xlink:href="#DejaVuSans-72" transform="translate(182.568359 0)"/>
       <use xlink:href="#DejaVuSans-69" transform="translate(223.681641 0)"/>
       <use xlink:href="#DejaVuSans-62" transform="translate(251.464844 0)"/>
       <use xlink:href="#DejaVuSans-20" transform="translate(314.941406 0)"/>
       <use xlink:href="#DejaVuSans-64" transform="translate(346.728516 0)"/>
       <use xlink:href="#DejaVuSans-32" transform="translate(410.205078 0)"/>
      </g>
     </g>
    </g>
    <g id="ytick_8">
     <g id="line2d_21">
      <path d="M 53.134 148.122886
L 513.216 148.122886
" clip-path="url(#p105f15a1a8)" style="fill: none; stroke: #e6e6e6; stroke-width: 0.35; stroke-linecap: square"/>
     </g>
     <g id="line2d_22">
      <path d="M 53.134 148.122886
" style="fill: none; stroke: #333333; stroke-width: 1.5; stroke-linecap: square"/>
      <g>
       <use xlink:href="#m8bb10fbbeb" x="53.134" y="148.122886" style="fill: #333333; stroke: #333333"/>
      </g>
     </g>
     <g id="text_11">
      <!-- distrib d5 -->
      <g style="fill: #4d4d4d" transform="translate(10.72775 151.162261) scale(0.08 -0.08)">
       <use xlink:href="#DejaVuSans-64"/>
       <use xlink:href="#DejaVuSans-69" transform="translate(63.476562 0)"/>
       <use xlink:href="#DejaVuSans-73" transform="translate(91.259766 0)"/>
       <use xlink:href="#DejaVuSans-74" transform="translate(143.359375 0)"/>
       <use xlink:href="#DejaVuSans-72" transform="translate(182.568359 0)"/>
       <use xlink:href="#DejaVuSans-69" transform="translate(223.681641 0)"/>
       <use xlink:href="#DejaVuSans-62" transform="translate(251.464844 0)"/>
       <use xlink:href="#DejaVuSans-20" transform="translate(314.941406 0)"/>
       <use xlink:href="#DejaVuSans-64" transform="translate(346.728516 0)"/>
       <use xlink:href="#DejaVuSans-35" transform="translate(410.205078 0)"/>
      </g>
     </g>
    </g>
    <g id="ytick_9">
     <g id="line2d_23">
      <path d="M 53.134 122.598085
L 513.216 122.598085
" clip-path="url(#p105f15a1a8)" style="fill: none; stroke: #e6e6e6; stroke-width: 0.35; stroke-linecap: square"/>
     </g>
     <g id="line2d_24">
      <path d="M 53.134 122.598085
" style="fill: none; stroke: #333333; stroke-width: 1.5; stroke-linecap: square"/>
      <g>
       <use xlink:href="#m8bb10fbbeb" x="53.134" y="122.598085" style="fill: #333333; stroke: #333333"/>
      </g>
     </g>
     <g id="text_12">
      <!-- distrib d10 -->
      <g style="fill: #4d4d4d" transform="translate(5.63775 125.63746) scale(0.08 -0.08)">
       <use xlink:href="#DejaVuSans-64"/>
       <use xlink:href="#DejaVuSans-69" transform="translate(63.476562 0)"/>
       <use xlink:href="#DejaVuSans-73" transform="translate(91.259766 0)"/>
       <use xlink:href="#DejaVuSans-74" transform="translate(143.359375 0)"/>
       <use xlink:href="#DejaVuSans-72" transform="translate(182.568359 0)"/>
       <use xlink:href="#DejaVuSans-69" transform="translate(223.681641 0)"/>
       <use xlink:href="#DejaVuSans-62" transform="translate(251.464844 0)"/>
       <use xlink:href="#DejaVuSans-20" transform="translate(314.941406 0)"/>
       <use xlink:href="#DejaVuSans-64" transform="translate(346.728516 0)"/>
       <use xlink:href="#DejaVuSans-31" transform="translate(410.205078 0)"/>
       <use xlink:href="#DejaVuSans-30" transform="translate(473.828125 0)"/>
      </g>
     </g>
    </g>
    <g id="ytick_10">
     <g id="line2d_25">
      <path d="M 53.134 97.073284
L 513.216 97.073284
" clip-path="url(#p105f15a1a8)" style="fill: none; stroke: #e6e6e6; stroke-width: 0.35; stroke-linecap: square"/>
     </g>
     <g id="line2d_26">
      <path d="M 53.134 97.073284
" style="fill: none; stroke: #333333; stroke-width: 1.5; stroke-linecap: square"/>
      <g>
       <use xlink:href="#m8bb10fbbeb" x="53.134" y="97.073284" style="fill: #333333; stroke: #333333"/>
      </g>
     </g>
     <g id="text_13">
      <!-- signif d1 -->
      <g style="fill: #4d4d4d" transform="translate(14.34525 100.112659) scale(0.08 -0.08)">
       <defs>
        <path id="DejaVuSans-67" d="M 2906 1791
Q 2906 2416 2648 2759
Q 2391 3103 1925 3103
Q 1463 3103 1205 2759
Q 947 2416 947 1791
Q 947 1169 1205 825
Q 1463 481 1925 481
Q 2391 481 2648 825
Q 2906 1169 2906 1791
z
M 3481 434
Q 3481 -459 3084 -895
Q 2688 -1331 1869 -1331
Q 1566 -1331 1297 -1286
Q 1028 -1241 775 -1147
L 775 -588
Q 1028 -725 1275 -790
Q 1522 -856 1778 -856
Q 2344 -856 2625 -561
Q 2906 -266 2906 331
L 2906 616
Q 2728 306 2450 153
Q 2172 0 1784 0
Q 1141 0 747 490
Q 353 981 353 1791
Q 353 2603 747 3093
Q 1141 3584 1784 3584
Q 2172 3584 2450 3431
Q 2728 3278 2906 2969
L 2906 3500
L 3481 3500
L 3481 434
z
" transform="scale(0.015625)"/>
        <path id="DejaVuSans-6e" d="M 3513 2113
L 3513 0
L 2938 0
L 2938 2094
Q 2938 2591 2744 2837
Q 2550 3084 2163 3084
Q 1697 3084 1428 2787
Q 1159 2491 1159 1978
L 1159 0
L 581 0
L 581 3500
L 1159 3500
L 1159 2956
Q 1366 3272 1645 3428
Q 1925 3584 2291 3584
Q 2894 3584 3203 3211
Q 3513 2838 3513 2113
z
" transform="scale(0.015625)"/>
       </defs>
       <use xlink:href="#DejaVuSans-73"/>
       <use xlink:href="#DejaVuSans-69" transform="translate(52.099609 0)"/>
       <use xlink:href="#DejaVuSans-67" transform="translate(79.882812 0)"/>
       <use xlink:href="#DejaVuSans-6e" transform="translate(143.359375 0)"/>
       <use xlink:href="#DejaVuSans-69" transform="translate(206.738281 0)"/>
       <use xlink:href="#DejaVuSans-66" transform="translate(234.521484 0)"/>
       <use xlink:href="#DejaVuSans-20" transform="translate(269.726562 0)"/>
       <use xlink:href="#DejaVuSans-64" transform="translate(301.513672 0)"/>
       <use xlink:href="#DejaVuSans-31" transform="translate(364.990234 0)"/>
      </g>
     </g>
    </g>
    <g id="ytick_11">
     <g id="line2d_27">
      <path d="M 53.134 71.548483
L 513.216 71.548483
" clip-path="url(#p105f15a1a8)" style="fill: none; stroke: #e6e6e6; stroke-width: 0.35; stroke-linecap: square"/>
     </g>
     <g id="line2d_28">
      <path d="M 53.134 71.548483
" style="fill: none; stroke: #333333; stroke-width: 1.5; stroke-linecap: square"/>
      <g>
       <use xlink:href="#m8bb10fbbeb" x="53.134" y="71.548483" style="fill: #333333; stroke: #333333"/>
      </g>
     </g>
     <g id="text_14">
      <!-- signif d2 -->
      <g style="fill: #4d4d4d" transform="translate(14.34525 74.587858) scale(0.08 -0.08)">
       <use xlink:href="#DejaVuSans-73"/>
       <use xlink:href="#DejaVuSans-69" transform="translate(52.099609 0)"/>
       <use xlink:href="#DejaVuSans-67" transform="translate(79.882812 0)"/>
       <use xlink:href="#DejaVuSans-6e" transform="translate(143.359375 0)"/>
       <use xlink:href="#DejaVuSans-69" transform="translate(206.738281 0)"/>
       <use xlink:href="#DejaVuSans-66" transform="translate(234.521484 0)"/>
       <use xlink:href="#DejaVuSans-20" transform="translate(269.726562 0)"/>
       <use xlink:href="#DejaVuSans-64" transform="translate(301.513672 0)"/>
       <use xlink:href="#DejaVuSans-32" transform="translate(364.990234 0)"/>
      </g>
     </g>
    </g>
    <g id="ytick_12">
     <g id="line2d_29">
      <path d="M 53.134 46.023682
L 513.216 46.023682
" clip-path="url(#p105f15a1a8)" style="fill: none; stroke: #e6e6e6; stroke-width: 0.35; stroke-linecap: square"/>
     </g>
     <g id="line2d_30">
      <path d="M 53.134 46.023682
" style="fill: none; stroke: #333333; stroke-width: 1.5; stroke-linecap: square"/>
      <g>
       <use xlink:href="#m8bb10fbbeb" x="53.134" y="46.023682" style="fill: #333333; stroke: #333333"/>
      </g>
     </g>
     <g id="text_15">
      <!-- signif d5 -->
      <g style="fill: #4d4d4d" transform="translate(14.34525 49.063057) scale(0.08 -0.08)">
       <use xlink:href="#DejaVuSans-73"/>
       <use xlink:href="#DejaVuSans-69" transform="translate(52.099609 0)"/>
       <use xlink:href="#DejaVuSans-67" transform="translate(79.882812 0)"/>
       <use xlink:href="#DejaVuSans-6e" transform="translate(143.359375 0)"/>
       <use xlink:href="#DejaVuSans-69" transform="translate(206.738281 0)"/>
       <use xlink:href="#DejaVuSans-66" transform="translate(234.521484 0)"/>
       <use xlink:href="#DejaVuSans-20" transform="translate(269.726562 0)"/>
       <use xlink:href="#DejaVuSans-64" transform="translate(301.513672 0)"/>
       <use xlink:href="#DejaVuSans-35" transform="translate(364.990234 0)"/>
      </g>
     </g>
    </g>
    <g id="ytick_13">
     <g id="line2d_31">
      <path d="M 53.134 20.498881
L 513.216 20.498881
" clip-path="url(#p105f15a1a8)" style="fill: none; stroke: #e6e6e6; stroke-width: 0.35; stroke-linecap: square"/>
     </g>
     <g id="line2d_32">
      <path d="M 53.134 20.498881
" style="fill: none; stroke: #333333; stroke-width: 1.5; stroke-linecap: square"/>
      <g>
       <use xlink:href="#m8bb10fbbeb" x="53.134" y="20.498881" style="fill: #333333; stroke: #333333"/>
      </g>
     </g>
     <g id="text_16">
      <!-- signif d10 -->
      <g style="fill: #4d4d4d" transform="translate(9.25525 23.538256) scale(0.08 -0.08)">
       <use xlink:href="#DejaVuSans-73"/>
       <use xlink:href="#DejaVuSans-69" transform="translate(52.099609 0)"/>
       <use xlink:href="#DejaVuSans-67" transform="translate(79.882812 0)"/>
       <use xlink:href="#DejaVuSans-6e" transform="translate(143.359375 0)"/>
       <use xlink:href="#DejaVuSans-69" transform="translate(206.738281 0)"/>
       <use xlink:href="#DejaVuSans-66" transform="translate(234.521484 0)"/>
       <use xlink:href="#DejaVuSans-20" transform="translate(269.726562 0)"/>
       <use xlink:href="#DejaVuSans-64" transform="translate(301.513672 0)"/>
       <use xlink:href="#DejaVuSans-31" transform="translate(364.990234 0)"/>
       <use xlink:href="#DejaVuSans-30" transform="translate(428.613281 0)"/>
      </g>
     </g>
    </g>
   </g>
   <g id="LineCollection_1">
    <path d="M 166.729119 326.796494
L 272.252905 326.796494
" clip-path="url(#p105f15a1a8)" style="fill: none; stroke: #004d40; stroke-width: 2.215567"/>
   </g>
   <g id="LineCollection_2">
    <path d="M 393.733368 301.271693
L 453.389545 301.271693
" clip-path="url(#p105f15a1a8)" style="fill: none; stroke: #004d40; stroke-width: 2.215567"/>
   </g>
   <g id="LineCollection_3">
    <path d="M 342.051256 275.746892
L 408.162578 275.746892
" clip-path="url(#p105f15a1a8)" style="fill: none; stroke: #004d40; stroke-width: 2.215567"/>
   </g>
   <g id="LineCollection_4">
    <path d="M 355.487715 250.222091
L 409.269464 250.222091
" clip-path="url(#p105f15a1a8)" style="fill: none; stroke: #004d40; stroke-width: 2.215567"/>
   </g>
   <g id="LineCollection_5">
    <path d="M 346.228418 224.69729
L 406.929108 224.69729
" clip-path="url(#p105f15a1a8)" style="fill: none; stroke: #004d40; stroke-width: 2.215567"/>
   </g>
   <g id="LineCollection_6">
    <path d="M 434.987149 199.172489
L 476.014567 199.172489
" clip-path="url(#p105f15a1a8)" style="fill: none; stroke: #004d40; stroke-width: 2.215567"/>
   </g>
   <g id="LineCollection_7">
    <path d="M 403.337922 173.647688
L 450.668988 173.647688
" clip-path="url(#p105f15a1a8)" style="fill: none; stroke: #004d40; stroke-width: 2.215567"/>
   </g>
   <g id="LineCollection_8">
    <path d="M 405.926211 148.122886
L 451.326632 148.122886
" clip-path="url(#p105f15a1a8)" style="fill: none; stroke: #004d40; stroke-width: 2.215567"/>
   </g>
   <g id="LineCollection_9">
    <path d="M 433.101163 122.598085
L 492.303182 122.598085
" clip-path="url(#p105f15a1a8)" style="fill: none; stroke: #004d40; stroke-width: 2.215567"/>
   </g>
   <g id="LineCollection_10">
    <path d="M 125.88149 97.073284
L 163.507535 97.073284
" clip-path="url(#p105f15a1a8)" style="fill: none; stroke: #004d40; stroke-width: 2.215567"/>
   </g>
   <g id="LineCollection_11">
    <path d="M 114.394119 71.548483
L 156.154379 71.548483
" clip-path="url(#p105f15a1a8)" style="fill: none; stroke: #004d40; stroke-width: 2.215567"/>
   </g>
   <g id="LineCollection_12">
    <path d="M 112.935331 46.023682
L 157.162724 46.023682
" clip-path="url(#p105f15a1a8)" style="fill: none; stroke: #004d40; stroke-width: 2.215567"/>
   </g>
   <g id="LineCollection_13">
    <path d="M 112.939115 20.498881
L 151.299468 20.498881
" clip-path="url(#p105f15a1a8)" style="fill: none; stroke: #004d40; stroke-width: 2.215567"/>
   </g>
   <g id="PathCollection_1">
    <path d="M 201.768912 329.366552
C 202.450499 329.366552 203.104262 329.095755 203.586217 328.6138
C 204.068172 328.131845 204.33897 327.478082 204.33897 326.796494
C 204.33897 326.114907 204.068172 325.461144 203.586217 324.979189
C 203.104262 324.497234 202.450499 324.226436 201.768912 324.226436
C 201.087324 324.226436 200.433561 324.497234 199.951606 324.979189
C 199.469651 325.461144 199.198854 326.114907 199.198854 326.796494
C 199.198854 327.478082 199.469651 328.131845 199.951606 328.6138
C 200.433561 329.095755 201.087324 329.366552 201.768912 329.366552
z
" clip-path="url(#p105f15a1a8)" style="fill: #d81b60; stroke: #d81b60; stroke-width: 0.886227"/>
    <path d="M 427.616156 303.841751
C 428.297743 303.841751 428.951506 303.570954 429.433461 303.088999
C 429.915416 302.607044 430.186214 301.953281 430.186214 301.271693
C 430.186214 300.590106 429.915416 299.936343 429.433461 299.454388
C 428.951506 298.972433 428.297743 298.701635 427.616156 298.701635
C 426.934568 298.701635 426.280805 298.972433 425.79885 299.454388
C 425.316895 299.936343 425.046097 300.590106 425.046097 301.271693
C 425.046097 301.953281 425.316895 302.607044 425.79885 303.088999
C 426.280805 303.570954 426.934568 303.841751 427.616156 303.841751
z
" clip-path="url(#p105f15a1a8)" style="fill: #d81b60; stroke: #d81b60; stroke-width: 0.886227"/>
    <path d="M 380.661836 278.31695
C 381.343423 278.31695 381.997186 278.046153 382.479141 277.564198
C 382.961097 277.082242 383.231894 276.428479 383.231894 275.746892
C 383.231894 275.065305 382.961097 274.411542 382.479141 273.929587
C 381.997186 273.447631 381.343423 273.176834 380.661836 273.176834
C 379.980249 273.176834 379.326486 273.447631 378.84453 273.929587
C 378.362575 274.411542 378.091778 275.065305 378.091778 275.746892
C 378.091778 276.428479 378.362575 277.082242 378.84453 277.564198
C 379.326486 278.046153 379.980249 278.31695 380.661836 278.31695
z
" clip-path="url(#p105f15a1a8)" style="fill: #d81b60; stroke: #d81b60; stroke-width: 0.886227"/>
    <path d="M 384.695026 252.792149
C 385.376614 252.792149 386.030377 252.521351 386.512332 252.039396
C 386.994287 251.557441 387.265084 250.903678 387.265084 250.222091
C 387.265084 249.540504 386.994287 248.88674 386.512332 248.404785
C 386.030377 247.92283 385.376614 247.652033 384.695026 247.652033
C 384.013439 247.652033 383.359676 247.92283 382.877721 248.404785
C 382.395766 248.88674 382.124968 249.540504 382.124968 250.222091
C 382.124968 250.903678 382.395766 251.557441 382.877721 252.039396
C 383.359676 252.521351 384.013439 252.792149 384.695026 252.792149
z
" clip-path="url(#p105f15a1a8)" style="fill: #d81b60; stroke: #d81b60; stroke-width: 0.886227"/>
    <path d="M 381.530595 227.267348
C 382.212183 227.267348 382.865946 226.99655 383.347901 226.514595
C 383.829856 226.03264 384.100654 225.378877 384.100654 224.69729
C 384.100654 224.015702 383.829856 223.361939 383.347901 222.879984
C 382.865946 222.398029 382.212183 222.127232 381.530595 222.127232
C 380.849008 222.127232 380.195245 222.398029 379.71329 222.879984
C 379.231335 223.361939 378.960537 224.015702 378.960537 224.69729
C 378.960537 225.378877 379.231335 226.03264 379.71329 226.514595
C 380.195245 226.99655 380.849008 227.267348 381.530595 227.267348
z
" clip-path="url(#p105f15a1a8)" style="fill: #d81b60; stroke: #d81b60; stroke-width: 0.886227"/>
    <path d="M 459.912904 201.742547
C 460.594492 201.742547 461.248255 201.471749 461.73021 200.989794
C 462.212165 200.507839 462.482962 199.854076 462.482962 199.172489
C 462.482962 198.490901 462.212165 197.837138 461.73021 197.355183
C 461.248255 196.873228 460.594492 196.602431 459.912904 196.602431
C 459.231317 196.602431 458.577554 196.873228 458.095599 197.355183
C 457.613644 197.837138 457.342846 198.490901 457.342846 199.172489
C 457.342846 199.854076 457.613644 200.507839 458.095599 200.989794
C 458.577554 201.471749 459.231317 201.742547 459.912904 201.742547
z
" clip-path="url(#p105f15a1a8)" style="fill: #d81b60; stroke: #d81b60; stroke-width: 0.886227"/>
    <path d="M 431.700155 176.217746
C 432.381743 176.217746 433.035506 175.946948 433.517461 175.464993
C 433.999416 174.983038 434.270213 174.329275 434.270213 173.647688
C 434.270213 172.9661 433.999416 172.312337 433.517461 171.830382
C 433.035506 171.348427 432.381743 171.077629 431.700155 171.077629
C 431.018568 171.077629 430.364805 171.348427 429.88285 171.830382
C 429.400895 172.312337 429.130097 172.9661 429.130097 173.647688
C 429.130097 174.329275 429.400895 174.983038 429.88285 175.464993
C 430.364805 175.946948 431.018568 176.217746 431.700155 176.217746
z
" clip-path="url(#p105f15a1a8)" style="fill: #d81b60; stroke: #d81b60; stroke-width: 0.886227"/>
    <path d="M 432.687805 150.692944
C 433.369393 150.692944 434.023156 150.422147 434.505111 149.940192
C 434.987066 149.458237 435.257863 148.804474 435.257863 148.122886
C 435.257863 147.441299 434.987066 146.787536 434.505111 146.305581
C 434.023156 145.823626 433.369393 145.552828 432.687805 145.552828
C 432.006218 145.552828 431.352455 145.823626 430.8705 146.305581
C 430.388545 146.787536 430.117747 147.441299 430.117747 148.122886
C 430.117747 148.804474 430.388545 149.458237 430.8705 149.940192
C 431.352455 150.422147 432.006218 150.692944 432.687805 150.692944
z
" clip-path="url(#p105f15a1a8)" style="fill: #d81b60; stroke: #d81b60; stroke-width: 0.886227"/>
    <path d="M 452.581567 125.168143
C 453.263155 125.168143 453.916918 124.897346 454.398873 124.415391
C 454.880828 123.933436 455.151625 123.279673 455.151625 122.598085
C 455.151625 121.916498 454.880828 121.262735 454.398873 120.78078
C 453.916918 120.298825 453.263155 120.028027 452.581567 120.028027
C 451.89998 120.028027 451.246217 120.298825 450.764262 120.78078
C 450.282307 121.262735 450.011509 121.916498 450.011509 122.598085
C 450.011509 123.279673 450.282307 123.933436 450.764262 124.415391
C 451.246217 124.897346 451.89998 125.168143 452.581567 125.168143
z
" clip-path="url(#p105f15a1a8)" style="fill: #d81b60; stroke: #d81b60; stroke-width: 0.886227"/>
    <path d="M 145.815769 99.643342
C 146.497356 99.643342 147.151119 99.372545 147.633074 98.89059
C 148.115029 98.408635 148.385827 97.754871 148.385827 97.073284
C 148.385827 96.391697 148.115029 95.737934 147.633074 95.255979
C 147.151119 94.774024 146.497356 94.503226 145.815769 94.503226
C 145.134181 94.503226 144.480418 94.774024 143.998463 95.255979
C 143.516508 95.737934 143.245711 96.391697 143.245711 97.073284
C 143.245711 97.754871 143.516508 98.408635 143.998463 98.89059
C 144.480418 99.372545 145.134181 99.643342 145.815769 99.643342
z
" clip-path="url(#p105f15a1a8)" style="fill: #d81b60; stroke: #d81b60; stroke-width: 0.886227"/>
    <path d="M 135.316414 74.118541
C 135.998001 74.118541 136.651765 73.847744 137.13372 73.365788
C 137.615675 72.883833 137.886472 72.23007 137.886472 71.548483
C 137.886472 70.866896 137.615675 70.213133 137.13372 69.731177
C 136.651765 69.249222 135.998001 68.978425 135.316414 68.978425
C 134.634827 68.978425 133.981064 69.249222 133.499109 69.731177
C 133.017154 70.213133 132.746356 70.866896 132.746356 71.548483
C 132.746356 72.23007 133.017154 72.883833 133.499109 73.365788
C 133.981064 73.847744 134.634827 74.118541 135.316414 74.118541
z
" clip-path="url(#p105f15a1a8)" style="fill: #d81b60; stroke: #d81b60; stroke-width: 0.886227"/>
    <path d="M 137.267952 48.59374
C 137.94954 48.59374 138.603303 48.322942 139.085258 47.840987
C 139.567213 47.359032 139.83801 46.705269 139.83801 46.023682
C 139.83801 45.342094 139.567213 44.688331 139.085258 44.206376
C 138.603303 43.724421 137.94954 43.453624 137.267952 43.453624
C 136.586365 43.453624 135.932602 43.724421 135.450647 44.206376
C 134.968692 44.688331 134.697894 45.342094 134.697894 46.023682
C 134.697894 46.705269 134.968692 47.359032 135.450647 47.840987
C 135.932602 48.322942 136.586365 48.59374 137.267952 48.59374
z
" clip-path="url(#p105f15a1a8)" style="fill: #d81b60; stroke: #d81b60; stroke-width: 0.886227"/>
    <path d="M 136.070771 23.068939
C 136.752358 23.068939 137.406121 22.798141 137.888077 22.316186
C 138.370032 21.834231 138.640829 21.180468 138.640829 20.498881
C 138.640829 19.817293 138.370032 19.16353 137.888077 18.681575
C 137.406121 18.19962 136.752358 17.928823 136.070771 17.928823
C 135.389184 17.928823 134.735421 18.19962 134.253466 18.681575
C 133.77151 19.16353 133.500713 19.817293 133.500713 20.498881
C 133.500713 21.180468 133.77151 21.834231 134.253466 22.316186
C 134.735421 22.798141 135.389184 23.068939 136.070771 23.068939
z
" clip-path="url(#p105f15a1a8)" style="fill: #d81b60; stroke: #d81b60; stroke-width: 0.886227"/>
   </g>
   <g id="PathCollection_2">
    <path d="M 454.696884 203.972996
C 455.213951 203.972996 455.709909 203.767564 456.07553 203.401942
C 456.441151 203.036321 456.646584 202.540363 456.646584 202.023297
C 456.646584 201.506231 456.441151 201.010272 456.07553 200.644651
C 455.709909 200.27903 455.213951 200.073598 454.696884 200.073598
C 454.179818 200.073598 453.68386 200.27903 453.318239 200.644651
C 452.952618 201.010272 452.747185 201.506231 452.747185 202.023297
C 452.747185 202.540363 452.952618 203.036321 453.318239 203.401942
C 453.68386 203.767564 454.179818 203.972996 454.696884 203.972996
z
" clip-path="url(#p105f15a1a8)" style="fill: #ff655d; fill-opacity: 0.678431; stroke: #ff655d; stroke-opacity: 0.678431; stroke-width: 0.886227"/>
    <path d="M 428.137469 175.233364
C 428.654535 175.233364 429.150494 175.027931 429.516115 174.66231
C 429.881736 174.296689 430.087168 173.800731 430.087168 173.283665
C 430.087168 172.766598 429.881736 172.27064 429.516115 171.905019
C 429.150494 171.539398 428.654535 171.333965 428.137469 171.333965
C 427.620403 171.333965 427.124445 171.539398 426.758824 171.905019
C 426.393203 172.27064 426.18777 172.766598 426.18777 173.283665
C 426.18777 173.800731 426.393203 174.296689 426.758824 174.66231
C 427.124445 175.027931 427.620403 175.233364 428.137469 175.233364
z
" clip-path="url(#p105f15a1a8)" style="fill: #ff655d; fill-opacity: 0.678431; stroke: #ff655d; stroke-opacity: 0.678431; stroke-width: 0.886227"/>
    <path d="M 426.072454 152.7114
C 426.58952 152.7114 427.085478 152.505967 427.451099 152.140346
C 427.81672 151.774725 428.022153 151.278767 428.022153 150.7617
C 428.022153 150.244634 427.81672 149.748676 427.451099 149.383055
C 427.085478 149.017434 426.58952 148.812001 426.072454 148.812001
C 425.555388 148.812001 425.059429 149.017434 424.693808 149.383055
C 424.328187 149.748676 424.122755 150.244634 424.122755 150.7617
C 424.122755 151.278767 424.328187 151.774725 424.693808 152.140346
C 425.059429 152.505967 425.555388 152.7114 426.072454 152.7114
z
" clip-path="url(#p105f15a1a8)" style="fill: #ff655d; fill-opacity: 0.678431; stroke: #ff655d; stroke-opacity: 0.678431; stroke-width: 0.886227"/>
    <path d="M 433.101163 126.09843
C 433.61823 126.09843 434.114188 125.892998 434.479809 125.527377
C 434.84543 125.161755 435.050863 124.665797 435.050863 124.148731
C 435.050863 123.631665 434.84543 123.135707 434.479809 122.770085
C 434.114188 122.404464 433.61823 122.199032 433.101163 122.199032
C 432.584097 122.199032 432.088139 122.404464 431.722518 122.770085
C 431.356897 123.135707 431.151464 123.631665 431.151464 124.148731
C 431.151464 124.665797 431.356897 125.161755 431.722518 125.527377
C 432.088139 125.892998 432.584097 126.09843 433.101163 126.09843
z
" clip-path="url(#p105f15a1a8)" style="fill: #ff655d; fill-opacity: 0.678431; stroke: #ff655d; stroke-opacity: 0.678431; stroke-width: 0.886227"/>
    <path d="M 411.339735 304.113116
C 411.856801 304.113116 412.352759 303.907684 412.71838 303.542062
C 413.084002 303.176441 413.289434 302.680483 413.289434 302.163417
C 413.289434 301.646351 413.084002 301.150392 412.71838 300.784771
C 412.352759 300.41915 411.856801 300.213718 411.339735 300.213718
C 410.822669 300.213718 410.32671 300.41915 409.961089 300.784771
C 409.595468 301.150392 409.390036 301.646351 409.390036 302.163417
C 409.390036 302.680483 409.595468 303.176441 409.961089 303.542062
C 410.32671 303.907684 410.822669 304.113116 411.339735 304.113116
z
" clip-path="url(#p105f15a1a8)" style="fill: #ff655d; fill-opacity: 0.678431; stroke: #ff655d; stroke-opacity: 0.678431; stroke-width: 0.886227"/>
    <path d="M 365.084341 275.57273
C 365.601407 275.57273 366.097365 275.367298 366.462986 275.001677
C 366.828607 274.636056 367.03404 274.140098 367.03404 273.623031
C 367.03404 273.105965 366.828607 272.610007 366.462986 272.244386
C 366.097365 271.878765 365.601407 271.673332 365.084341 271.673332
C 364.567274 271.673332 364.071316 271.878765 363.705695 272.244386
C 363.340074 272.610007 363.134641 273.105965 363.134641 273.623031
C 363.134641 274.140098 363.340074 274.636056 363.705695 275.001677
C 364.071316 275.367298 364.567274 275.57273 365.084341 275.57273
z
" clip-path="url(#p105f15a1a8)" style="fill: #ff655d; fill-opacity: 0.678431; stroke: #ff655d; stroke-opacity: 0.678431; stroke-width: 0.886227"/>
    <path d="M 366.74131 253.69345
C 367.258377 253.69345 367.754335 253.488018 368.119956 253.122397
C 368.485577 252.756776 368.691009 252.260817 368.691009 251.743751
C 368.691009 251.226685 368.485577 250.730727 368.119956 250.365106
C 367.754335 249.999484 367.258377 249.794052 366.74131 249.794052
C 366.224244 249.794052 365.728286 249.999484 365.362665 250.365106
C 364.997044 250.730727 364.791611 251.226685 364.791611 251.743751
C 364.791611 252.260817 364.997044 252.756776 365.362665 253.122397
C 365.728286 253.488018 366.224244 253.69345 366.74131 253.69345
z
" clip-path="url(#p105f15a1a8)" style="fill: #ff655d; fill-opacity: 0.678431; stroke: #ff655d; stroke-opacity: 0.678431; stroke-width: 0.886227"/>
    <path d="M 368.962289 229.046927
C 369.479355 229.046927 369.975313 228.841494 370.340934 228.475873
C 370.706555 228.110252 370.911988 227.614294 370.911988 227.097227
C 370.911988 226.580161 370.706555 226.084203 370.340934 225.718582
C 369.975313 225.352961 369.479355 225.147528 368.962289 225.147528
C 368.445223 225.147528 367.949264 225.352961 367.583643 225.718582
C 367.218022 226.084203 367.01259 226.580161 367.01259 227.097227
C 367.01259 227.614294 367.218022 228.110252 367.583643 228.475873
C 367.949264 228.841494 368.445223 229.046927 368.962289 229.046927
z
" clip-path="url(#p105f15a1a8)" style="fill: #ff655d; fill-opacity: 0.678431; stroke: #ff655d; stroke-opacity: 0.678431; stroke-width: 0.886227"/>
    <path d="M 272.252905 330.606271
C 272.769971 330.606271 273.265929 330.400839 273.63155 330.035217
C 273.997171 329.669596 274.202604 329.173638 274.202604 328.656572
C 274.202604 328.139506 273.997171 327.643547 273.63155 327.277926
C 273.265929 326.912305 272.769971 326.706873 272.252905 326.706873
C 271.735838 326.706873 271.23988 326.912305 270.874259 327.277926
C 270.508638 327.643547 270.303205 328.139506 270.303205 328.656572
C 270.303205 329.173638 270.508638 329.669596 270.874259 330.035217
C 271.23988 330.400839 271.735838 330.606271 272.252905 330.606271
z
" clip-path="url(#p105f15a1a8)" style="fill: #ff655d; fill-opacity: 0.678431; stroke: #ff655d; stroke-opacity: 0.678431; stroke-width: 0.886227"/>
    <path d="M 142.598389 99.043294
C 143.115456 99.043294 143.611414 98.837862 143.977035 98.472241
C 144.342656 98.10662 144.548089 97.610661 144.548089 97.093595
C 144.548089 96.576529 144.342656 96.080571 143.977035 95.71495
C 143.611414 95.349329 143.115456 95.143896 142.598389 95.143896
C 142.081323 95.143896 141.585365 95.349329 141.219744 95.71495
C 140.854123 96.080571 140.64869 96.576529 140.64869 97.093595
C 140.64869 97.610661 140.854123 98.10662 141.219744 98.472241
C 141.585365 98.837862 142.081323 99.043294 142.598389 99.043294
z
" clip-path="url(#p105f15a1a8)" style="fill: #ff655d; fill-opacity: 0.678431; stroke: #ff655d; stroke-opacity: 0.678431; stroke-width: 0.886227"/>
    <path d="M 125.927993 73.651551
C 126.44506 73.651551 126.941018 73.446119 127.306639 73.080498
C 127.67226 72.714876 127.877693 72.218918 127.877693 71.701852
C 127.877693 71.184786 127.67226 70.688827 127.306639 70.323206
C 126.941018 69.957585 126.44506 69.752153 125.927993 69.752153
C 125.410927 69.752153 124.914969 69.957585 124.549348 70.323206
C 124.183727 70.688827 123.978294 71.184786 123.978294 71.701852
C 123.978294 72.218918 124.183727 72.714876 124.549348 73.080498
C 124.914969 73.446119 125.410927 73.651551 125.927993 73.651551
z
" clip-path="url(#p105f15a1a8)" style="fill: #ff655d; fill-opacity: 0.678431; stroke: #ff655d; stroke-opacity: 0.678431; stroke-width: 0.886227"/>
    <path d="M 128.128387 46.620518
C 128.645453 46.620518 129.141411 46.415085 129.507032 46.049464
C 129.872653 45.683843 130.078086 45.187885 130.078086 44.670819
C 130.078086 44.153752 129.872653 43.657794 129.507032 43.292173
C 129.141411 42.926552 128.645453 42.721119 128.128387 42.721119
C 127.61132 42.721119 127.115362 42.926552 126.749741 43.292173
C 126.38412 43.657794 126.178688 44.153752 126.178688 44.670819
C 126.178688 45.187885 126.38412 45.683843 126.749741 46.049464
C 127.115362 46.415085 127.61132 46.620518 128.128387 46.620518
z
" clip-path="url(#p105f15a1a8)" style="fill: #ff655d; fill-opacity: 0.678431; stroke: #ff655d; stroke-opacity: 0.678431; stroke-width: 0.886227"/>
    <path d="M 132.237645 25.220307
C 132.754711 25.220307 133.250669 25.014874 133.61629 24.649253
C 133.981911 24.283632 134.187344 23.787674 134.187344 23.270608
C 134.187344 22.753541 133.981911 22.257583 133.61629 21.891962
C 133.250669 21.526341 132.754711 21.320909 132.237645 21.320909
C 131.720579 21.320909 131.22462 21.526341 130.858999 21.891962
C 130.493378 22.257583 130.287946 22.753541 130.287946 23.270608
C 130.287946 23.787674 130.493378 24.283632 130.858999 24.649253
C 131.22462 25.014874 131.720579 25.220307 132.237645 25.220307
z
" clip-path="url(#p105f15a1a8)" style="fill: #ff655d; fill-opacity: 0.678431; stroke: #ff655d; stroke-opacity: 0.678431; stroke-width: 0.886227"/>
    <path d="M 473.953016 198.88432
C 474.470083 198.88432 474.966041 198.678887 475.331662 198.313266
C 475.697283 197.947645 475.902715 197.451687 475.902715 196.93462
C 475.902715 196.417554 475.697283 195.921596 475.331662 195.555975
C 474.966041 195.190354 474.470083 194.984921 473.953016 194.984921
C 473.43595 194.984921 472.939992 195.190354 472.574371 195.555975
C 472.20875 195.921596 472.003317 196.417554 472.003317 196.93462
C 472.003317 197.451687 472.20875 197.947645 472.574371 198.313266
C 472.939992 198.678887 473.43595 198.88432 473.953016 198.88432
z
" clip-path="url(#p105f15a1a8)" style="fill: #ff655d; fill-opacity: 0.678431; stroke: #ff655d; stroke-opacity: 0.678431; stroke-width: 0.886227"/>
    <path d="M 444.656241 174.987635
C 445.173308 174.987635 445.669266 174.782203 446.034887 174.416582
C 446.400508 174.050961 446.605941 173.555002 446.605941 173.037936
C 446.605941 172.52087 446.400508 172.024912 446.034887 171.659291
C 445.669266 171.293669 445.173308 171.088237 444.656241 171.088237
C 444.139175 171.088237 443.643217 171.293669 443.277596 171.659291
C 442.911975 172.024912 442.706542 172.52087 442.706542 173.037936
C 442.706542 173.555002 442.911975 174.050961 443.277596 174.416582
C 443.643217 174.782203 444.139175 174.987635 444.656241 174.987635
z
" clip-path="url(#p105f15a1a8)" style="fill: #ff655d; fill-opacity: 0.678431; stroke: #ff655d; stroke-opacity: 0.678431; stroke-width: 0.886227"/>
    <path d="M 447.425924 152.676134
C 447.94299 152.676134 448.438949 152.470701 448.80457 152.10508
C 449.170191 151.739459 449.375623 151.243501 449.375623 150.726434
C 449.375623 150.209368 449.170191 149.71341 448.80457 149.347789
C 448.438949 148.982168 447.94299 148.776735 447.425924 148.776735
C 446.908858 148.776735 446.4129 148.982168 446.047279 149.347789
C 445.681657 149.71341 445.476225 150.209368 445.476225 150.726434
C 445.476225 151.243501 445.681657 151.739459 446.047279 152.10508
C 446.4129 152.470701 446.908858 152.676134 447.425924 152.676134
z
" clip-path="url(#p105f15a1a8)" style="fill: #ff655d; fill-opacity: 0.678431; stroke: #ff655d; stroke-opacity: 0.678431; stroke-width: 0.886227"/>
    <path d="M 447.618546 122.515519
C 448.135612 122.515519 448.63157 122.310086 448.997191 121.944465
C 449.362813 121.578844 449.568245 121.082886 449.568245 120.565819
C 449.568245 120.048753 449.362813 119.552795 448.997191 119.187174
C 448.63157 118.821553 448.135612 118.61612 447.618546 118.61612
C 447.10148 118.61612 446.605521 118.821553 446.2399 119.187174
C 445.874279 119.552795 445.668847 120.048753 445.668847 120.565819
C 445.668847 121.082886 445.874279 121.578844 446.2399 121.944465
C 446.605521 122.310086 447.10148 122.515519 447.618546 122.515519
z
" clip-path="url(#p105f15a1a8)" style="fill: #ff655d; fill-opacity: 0.678431; stroke: #ff655d; stroke-opacity: 0.678431; stroke-width: 0.886227"/>
    <path d="M 452.001974 306.254441
C 452.51904 306.254441 453.014999 306.049009 453.38062 305.683387
C 453.746241 305.317766 453.951673 304.821808 453.951673 304.304742
C 453.951673 303.787676 453.746241 303.291717 453.38062 302.926096
C 453.014999 302.560475 452.51904 302.355043 452.001974 302.355043
C 451.484908 302.355043 450.98895 302.560475 450.623329 302.926096
C 450.257708 303.291717 450.052275 303.787676 450.052275 304.304742
C 450.052275 304.821808 450.257708 305.317766 450.623329 305.683387
C 450.98895 306.049009 451.484908 306.254441 452.001974 306.254441
z
" clip-path="url(#p105f15a1a8)" style="fill: #ff655d; fill-opacity: 0.678431; stroke: #ff655d; stroke-opacity: 0.678431; stroke-width: 0.886227"/>
    <path d="M 407.34917 277.831797
C 407.866236 277.831797 408.362194 277.626365 408.727815 277.260743
C 409.093437 276.895122 409.298869 276.399164 409.298869 275.882098
C 409.298869 275.365032 409.093437 274.869073 408.727815 274.503452
C 408.362194 274.137831 407.866236 273.932399 407.34917 273.932399
C 406.832104 273.932399 406.336145 274.137831 405.970524 274.503452
C 405.604903 274.869073 405.399471 275.365032 405.399471 275.882098
C 405.399471 276.399164 405.604903 276.895122 405.970524 277.260743
C 406.336145 277.626365 406.832104 277.831797 407.34917 277.831797
z
" clip-path="url(#p105f15a1a8)" style="fill: #ff655d; fill-opacity: 0.678431; stroke: #ff655d; stroke-opacity: 0.678431; stroke-width: 0.886227"/>
    <path d="M 407.281616 253.210241
C 407.798682 253.210241 408.29464 253.004808 408.660261 252.639187
C 409.025882 252.273566 409.231315 251.777608 409.231315 251.260542
C 409.231315 250.743475 409.025882 250.247517 408.660261 249.881896
C 408.29464 249.516275 407.798682 249.310842 407.281616 249.310842
C 406.764549 249.310842 406.268591 249.516275 405.90297 249.881896
C 405.537349 250.247517 405.331916 250.743475 405.331916 251.260542
C 405.331916 251.777608 405.537349 252.273566 405.90297 252.639187
C 406.268591 253.004808 406.764549 253.210241 407.281616 253.210241
z
" clip-path="url(#p105f15a1a8)" style="fill: #ff655d; fill-opacity: 0.678431; stroke: #ff655d; stroke-opacity: 0.678431; stroke-width: 0.886227"/>
    <path d="M 406.929108 223.596919
C 407.446174 223.596919 407.942133 223.391486 408.307754 223.025865
C 408.673375 222.660244 408.878807 222.164286 408.878807 221.64722
C 408.878807 221.130153 408.673375 220.634195 408.307754 220.268574
C 407.942133 219.902953 407.446174 219.69752 406.929108 219.69752
C 406.412042 219.69752 405.916084 219.902953 405.550463 220.268574
C 405.184842 220.634195 404.979409 221.130153 404.979409 221.64722
C 404.979409 222.164286 405.184842 222.660244 405.550463 223.025865
C 405.916084 223.391486 406.412042 223.596919 406.929108 223.596919
z
" clip-path="url(#p105f15a1a8)" style="fill: #ff655d; fill-opacity: 0.678431; stroke: #ff655d; stroke-opacity: 0.678431; stroke-width: 0.886227"/>
    <path d="M 170.118221 327.564663
C 170.635288 327.564663 171.131246 327.359231 171.496867 326.99361
C 171.862488 326.627988 172.067921 326.13203 172.067921 325.614964
C 172.067921 325.097898 171.862488 324.601939 171.496867 324.236318
C 171.131246 323.870697 170.635288 323.665265 170.118221 323.665265
C 169.601155 323.665265 169.105197 323.870697 168.739576 324.236318
C 168.373955 324.601939 168.168522 325.097898 168.168522 325.614964
C 168.168522 326.13203 168.373955 326.627988 168.739576 326.99361
C 169.105197 327.359231 169.601155 327.564663 170.118221 327.564663
z
" clip-path="url(#p105f15a1a8)" style="fill: #ff655d; fill-opacity: 0.678431; stroke: #ff655d; stroke-opacity: 0.678431; stroke-width: 0.886227"/>
    <path d="M 163.507535 100.828738
C 164.024602 100.828738 164.52056 100.623306 164.886181 100.257685
C 165.251802 99.892064 165.457234 99.396105 165.457234 98.879039
C 165.457234 98.361973 165.251802 97.866015 164.886181 97.500394
C 164.52056 97.134772 164.024602 96.92934 163.507535 96.92934
C 162.990469 96.92934 162.494511 97.134772 162.12889 97.500394
C 161.763269 97.866015 161.557836 98.361973 161.557836 98.879039
C 161.557836 99.396105 161.763269 99.892064 162.12889 100.257685
C 162.494511 100.623306 162.990469 100.828738 163.507535 100.828738
z
" clip-path="url(#p105f15a1a8)" style="fill: #ff655d; fill-opacity: 0.678431; stroke: #ff655d; stroke-opacity: 0.678431; stroke-width: 0.886227"/>
    <path d="M 156.154379 73.768463
C 156.671445 73.768463 157.167403 73.563031 157.533025 73.19741
C 157.898646 72.831789 158.104078 72.33583 158.104078 71.818764
C 158.104078 71.301698 157.898646 70.80574 157.533025 70.440119
C 157.167403 70.074498 156.671445 69.869065 156.154379 69.869065
C 155.637313 69.869065 155.141355 70.074498 154.775733 70.440119
C 154.410112 70.80574 154.20468 71.301698 154.20468 71.818764
C 154.20468 72.33583 154.410112 72.831789 154.775733 73.19741
C 155.141355 73.563031 155.637313 73.768463 156.154379 73.768463
z
" clip-path="url(#p105f15a1a8)" style="fill: #ff655d; fill-opacity: 0.678431; stroke: #ff655d; stroke-opacity: 0.678431; stroke-width: 0.886227"/>
    <path d="M 157.162724 46.856442
C 157.679791 46.856442 158.175749 46.65101 158.54137 46.285389
C 158.906991 45.919768 159.112424 45.423809 159.112424 44.906743
C 159.112424 44.389677 158.906991 43.893719 158.54137 43.528098
C 158.175749 43.162476 157.679791 42.957044 157.162724 42.957044
C 156.645658 42.957044 156.1497 43.162476 155.784079 43.528098
C 155.418458 43.893719 155.213025 44.389677 155.213025 44.906743
C 155.213025 45.423809 155.418458 45.919768 155.784079 46.285389
C 156.1497 46.65101 156.645658 46.856442 157.162724 46.856442
z
" clip-path="url(#p105f15a1a8)" style="fill: #ff655d; fill-opacity: 0.678431; stroke: #ff655d; stroke-opacity: 0.678431; stroke-width: 0.886227"/>
    <path d="M 151.299468 23.958973
C 151.816534 23.958973 152.312492 23.753541 152.678113 23.38792
C 153.043734 23.022299 153.249167 22.52634 153.249167 22.009274
C 153.249167 21.492208 153.043734 20.99625 152.678113 20.630629
C 152.312492 20.265008 151.816534 20.059575 151.299468 20.059575
C 150.782401 20.059575 150.286443 20.265008 149.920822 20.630629
C 149.555201 20.99625 149.349768 21.492208 149.349768 22.009274
C 149.349768 22.52634 149.555201 23.022299 149.920822 23.38792
C 150.286443 23.753541 150.782401 23.958973 151.299468 23.958973
z
" clip-path="url(#p105f15a1a8)" style="fill: #ff655d; fill-opacity: 0.678431; stroke: #ff655d; stroke-opacity: 0.678431; stroke-width: 0.886227"/>
    <path d="M 434.987149 204.10777
C 435.504215 204.10777 436.000173 203.902337 436.365795 203.536716
C 436.731416 203.171095 436.936848 202.675137 436.936848 202.158071
C 436.936848 201.641004 436.731416 201.145046 436.365795 200.779425
C 436.000173 200.413804 435.504215 200.208372 434.987149 200.208372
C 434.470083 200.208372 433.974125 200.413804 433.608503 200.779425
C 433.242882 201.145046 433.03745 201.641004 433.03745 202.158071
C 433.03745 202.675137 433.242882 203.171095 433.608503 203.536716
C 433.974125 203.902337 434.470083 204.10777 434.987149 204.10777
z
" clip-path="url(#p105f15a1a8)" style="fill: #ff655d; fill-opacity: 0.678431; stroke: #ff655d; stroke-opacity: 0.678431; stroke-width: 0.886227"/>
    <path d="M 403.337922 173.714306
C 403.854989 173.714306 404.350947 173.508873 404.716568 173.143252
C 405.082189 172.777631 405.287622 172.281673 405.287622 171.764607
C 405.287622 171.24754 405.082189 170.751582 404.716568 170.385961
C 404.350947 170.02034 403.854989 169.814907 403.337922 169.814907
C 402.820856 169.814907 402.324898 170.02034 401.959277 170.385961
C 401.593656 170.751582 401.388223 171.24754 401.388223 171.764607
C 401.388223 172.281673 401.593656 172.777631 401.959277 173.143252
C 402.324898 173.508873 402.820856 173.714306 403.337922 173.714306
z
" clip-path="url(#p105f15a1a8)" style="fill: #ff655d; fill-opacity: 0.678431; stroke: #ff655d; stroke-opacity: 0.678431; stroke-width: 0.886227"/>
    <path d="M 405.926211 149.079621
C 406.443277 149.079621 406.939236 148.874188 407.304857 148.508567
C 407.670478 148.142946 407.87591 147.646988 407.87591 147.129922
C 407.87591 146.612856 407.670478 146.116897 407.304857 145.751276
C 406.939236 145.385655 406.443277 145.180223 405.926211 145.180223
C 405.409145 145.180223 404.913187 145.385655 404.547566 145.751276
C 404.181944 146.116897 403.976512 146.612856 403.976512 147.129922
C 403.976512 147.646988 404.181944 148.142946 404.547566 148.508567
C 404.913187 148.874188 405.409145 149.079621 405.926211 149.079621
z
" clip-path="url(#p105f15a1a8)" style="fill: #ff655d; fill-opacity: 0.678431; stroke: #ff655d; stroke-opacity: 0.678431; stroke-width: 0.886227"/>
    <path d="M 492.303182 124.23261
C 492.820248 124.23261 493.316206 124.027178 493.681827 123.661557
C 494.047448 123.295936 494.252881 122.799977 494.252881 122.282911
C 494.252881 121.765845 494.047448 121.269887 493.681827 120.904266
C 493.316206 120.538644 492.820248 120.333212 492.303182 120.333212
C 491.786116 120.333212 491.290157 120.538644 490.924536 120.904266
C 490.558915 121.269887 490.353483 121.765845 490.353483 122.282911
C 490.353483 122.799977 490.558915 123.295936 490.924536 123.661557
C 491.290157 124.027178 491.786116 124.23261 492.303182 124.23261
z
" clip-path="url(#p105f15a1a8)" style="fill: #ff655d; fill-opacity: 0.678431; stroke: #ff655d; stroke-opacity: 0.678431; stroke-width: 0.886227"/>
    <path d="M 393.733368 304.032965
C 394.250434 304.032965 394.746392 303.827533 395.112013 303.461912
C 395.477634 303.096291 395.683067 302.600332 395.683067 302.083266
C 395.683067 301.5662 395.477634 301.070242 395.112013 300.704621
C 394.746392 300.339 394.250434 300.133567 393.733368 300.133567
C 393.216301 300.133567 392.720343 300.339 392.354722 300.704621
C 391.989101 301.070242 391.783668 301.5662 391.783668 302.083266
C 391.783668 302.600332 391.989101 303.096291 392.354722 303.461912
C 392.720343 303.827533 393.216301 304.032965 393.733368 304.032965
z
" clip-path="url(#p105f15a1a8)" style="fill: #ff655d; fill-opacity: 0.678431; stroke: #ff655d; stroke-opacity: 0.678431; stroke-width: 0.886227"/>
    <path d="M 342.051256 276.954354
C 342.568322 276.954354 343.06428 276.748921 343.429901 276.3833
C 343.795522 276.017679 344.000955 275.521721 344.000955 275.004655
C 344.000955 274.487589 343.795522 273.99163 343.429901 273.626009
C 343.06428 273.260388 342.568322 273.054956 342.051256 273.054956
C 341.534189 273.054956 341.038231 273.260388 340.67261 273.626009
C 340.306989 273.99163 340.101556 274.487589 340.101556 275.004655
C 340.101556 275.521721 340.306989 276.017679 340.67261 276.3833
C 341.038231 276.748921 341.534189 276.954354 342.051256 276.954354
z
" clip-path="url(#p105f15a1a8)" style="fill: #ff655d; fill-opacity: 0.678431; stroke: #ff655d; stroke-opacity: 0.678431; stroke-width: 0.886227"/>
    <path d="M 355.487715 251.47463
C 356.004781 251.47463 356.500739 251.269197 356.86636 250.903576
C 357.231981 250.537955 357.437414 250.041997 357.437414 249.524931
C 357.437414 249.007864 357.231981 248.511906 356.86636 248.146285
C 356.500739 247.780664 356.004781 247.575232 355.487715 247.575232
C 354.970649 247.575232 354.47469 247.780664 354.109069 248.146285
C 353.743448 248.511906 353.538016 249.007864 353.538016 249.524931
C 353.538016 250.041997 353.743448 250.537955 354.109069 250.903576
C 354.47469 251.269197 354.970649 251.47463 355.487715 251.47463
z
" clip-path="url(#p105f15a1a8)" style="fill: #ff655d; fill-opacity: 0.678431; stroke: #ff655d; stroke-opacity: 0.678431; stroke-width: 0.886227"/>
    <path d="M 346.228418 228.023992
C 346.745484 228.023992 347.241442 227.81856 347.607064 227.452939
C 347.972685 227.087318 348.178117 226.591359 348.178117 226.074293
C 348.178117 225.557227 347.972685 225.061269 347.607064 224.695647
C 347.241442 224.330026 346.745484 224.124594 346.228418 224.124594
C 345.711352 224.124594 345.215394 224.330026 344.849772 224.695647
C 344.484151 225.061269 344.278719 225.557227 344.278719 226.074293
C 344.278719 226.591359 344.484151 227.087318 344.849772 227.452939
C 345.215394 227.81856 345.711352 228.023992 346.228418 228.023992
z
" clip-path="url(#p105f15a1a8)" style="fill: #ff655d; fill-opacity: 0.678431; stroke: #ff655d; stroke-opacity: 0.678431; stroke-width: 0.886227"/>
    <path d="M 197.975402 326.977384
C 198.492468 326.977384 198.988426 326.771951 199.354048 326.40633
C 199.719669 326.040709 199.925101 325.544751 199.925101 325.027685
C 199.925101 324.510618 199.719669 324.01466 199.354048 323.649039
C 198.988426 323.283418 198.492468 323.077985 197.975402 323.077985
C 197.458336 323.077985 196.962377 323.283418 196.596756 323.649039
C 196.231135 324.01466 196.025703 324.510618 196.025703 325.027685
C 196.025703 325.544751 196.231135 326.040709 196.596756 326.40633
C 196.962377 326.771951 197.458336 326.977384 197.975402 326.977384
z
" clip-path="url(#p105f15a1a8)" style="fill: #ff655d; fill-opacity: 0.678431; stroke: #ff655d; stroke-opacity: 0.678431; stroke-width: 0.886227"/>
    <path d="M 125.88149 99.375542
C 126.398556 99.375542 126.894515 99.17011 127.260136 98.804489
C 127.625757 98.438868 127.831189 97.94291 127.831189 97.425843
C 127.831189 96.908777 127.625757 96.412819 127.260136 96.047198
C 126.894515 95.681577 126.398556 95.476144 125.88149 95.476144
C 125.364424 95.476144 124.868466 95.681577 124.502845 96.047198
C 124.137224 96.412819 123.931791 96.908777 123.931791 97.425843
C 123.931791 97.94291 124.137224 98.438868 124.502845 98.804489
C 124.868466 99.17011 125.364424 99.375542 125.88149 99.375542
z
" clip-path="url(#p105f15a1a8)" style="fill: #ff655d; fill-opacity: 0.678431; stroke: #ff655d; stroke-opacity: 0.678431; stroke-width: 0.886227"/>
    <path d="M 114.394119 73.793859
C 114.911185 73.793859 115.407143 73.588426 115.772764 73.222805
C 116.138385 72.857184 116.343818 72.361226 116.343818 71.844159
C 116.343818 71.327093 116.138385 70.831135 115.772764 70.465514
C 115.407143 70.099893 114.911185 69.89446 114.394119 69.89446
C 113.877052 69.89446 113.381094 70.099893 113.015473 70.465514
C 112.649852 70.831135 112.444419 71.327093 112.444419 71.844159
C 112.444419 72.361226 112.649852 72.857184 113.015473 73.222805
C 113.381094 73.588426 113.877052 73.793859 114.394119 73.793859
z
" clip-path="url(#p105f15a1a8)" style="fill: #ff655d; fill-opacity: 0.678431; stroke: #ff655d; stroke-opacity: 0.678431; stroke-width: 0.886227"/>
    <path d="M 112.935331 49.435491
C 113.452397 49.435491 113.948355 49.230058 114.313977 48.864437
C 114.679598 48.498816 114.88503 48.002858 114.88503 47.485792
C 114.88503 46.968725 114.679598 46.472767 114.313977 46.107146
C 113.948355 45.741525 113.452397 45.536092 112.935331 45.536092
C 112.418265 45.536092 111.922307 45.741525 111.556685 46.107146
C 111.191064 46.472767 110.985632 46.968725 110.985632 47.485792
C 110.985632 48.002858 111.191064 48.498816 111.556685 48.864437
C 111.922307 49.230058 112.418265 49.435491 112.935331 49.435491
z
" clip-path="url(#p105f15a1a8)" style="fill: #ff655d; fill-opacity: 0.678431; stroke: #ff655d; stroke-opacity: 0.678431; stroke-width: 0.886227"/>
    <path d="M 112.939115 21.750462
C 113.456182 21.750462 113.95214 21.545029 114.317761 21.179408
C 114.683382 20.813787 114.888815 20.317829 114.888815 19.800763
C 114.888815 19.283696 114.683382 18.787738 114.317761 18.422117
C 113.95214 18.056496 113.456182 17.851064 112.939115 17.851064
C 112.422049 17.851064 111.926091 18.056496 111.56047 18.422117
C 111.194849 18.787738 110.989416 19.283696 110.989416 19.800763
C 110.989416 20.317829 111.194849 20.813787 111.56047 21.179408
C 111.926091 21.545029 112.422049 21.750462 112.939115 21.750462
z
" clip-path="url(#p105f15a1a8)" style="fill: #ff655d; fill-opacity: 0.678431; stroke: #ff655d; stroke-opacity: 0.678431; stroke-width: 0.886227"/>
    <path d="M 476.014567 200.850285
C 476.531633 200.850285 477.027592 200.644852 477.393213 200.279231
C 477.758834 199.91361 477.964266 199.417652 477.964266 198.900586
C 477.964266 198.383519 477.758834 197.887561 477.393213 197.52194
C 477.027592 197.156319 476.531633 196.950886 476.014567 196.950886
C 475.497501 196.950886 475.001543 197.156319 474.635922 197.52194
C 474.2703 197.887561 474.064868 198.383519 474.064868 198.900586
C 474.064868 199.417652 474.2703 199.91361 474.635922 200.279231
C 475.001543 200.644852 475.497501 200.850285 476.014567 200.850285
z
" clip-path="url(#p105f15a1a8)" style="fill: #ff655d; fill-opacity: 0.678431; stroke: #ff655d; stroke-opacity: 0.678431; stroke-width: 0.886227"/>
    <path d="M 450.668988 172.752243
C 451.186054 172.752243 451.682013 172.54681 452.047634 172.181189
C 452.413255 171.815568 452.618687 171.31961 452.618687 170.802544
C 452.618687 170.285477 452.413255 169.789519 452.047634 169.423898
C 451.682013 169.058277 451.186054 168.852845 450.668988 168.852845
C 450.151922 168.852845 449.655964 169.058277 449.290343 169.423898
C 448.924721 169.789519 448.719289 170.285477 448.719289 170.802544
C 448.719289 171.31961 448.924721 171.815568 449.290343 172.181189
C 449.655964 172.54681 450.151922 172.752243 450.668988 172.752243
z
" clip-path="url(#p105f15a1a8)" style="fill: #ff655d; fill-opacity: 0.678431; stroke: #ff655d; stroke-opacity: 0.678431; stroke-width: 0.886227"/>
    <path d="M 451.326632 147.064954
C 451.843698 147.064954 452.339656 146.859522 452.705277 146.493901
C 453.070898 146.12828 453.276331 145.632321 453.276331 145.115255
C 453.276331 144.598189 453.070898 144.102231 452.705277 143.73661
C 452.339656 143.370989 451.843698 143.165556 451.326632 143.165556
C 450.809565 143.165556 450.313607 143.370989 449.947986 143.73661
C 449.582365 144.102231 449.376932 144.598189 449.376932 145.115255
C 449.376932 145.632321 449.582365 146.12828 449.947986 146.493901
C 450.313607 146.859522 450.809565 147.064954 451.326632 147.064954
z
" clip-path="url(#p105f15a1a8)" style="fill: #ff655d; fill-opacity: 0.678431; stroke: #ff655d; stroke-opacity: 0.678431; stroke-width: 0.886227"/>
    <path d="M 437.303378 123.131217
C 437.820444 123.131217 438.316403 122.925784 438.682024 122.560163
C 439.047645 122.194542 439.253077 121.698584 439.253077 121.181517
C 439.253077 120.664451 439.047645 120.168493 438.682024 119.802872
C 438.316403 119.437251 437.820444 119.231818 437.303378 119.231818
C 436.786312 119.231818 436.290354 119.437251 435.924733 119.802872
C 435.559112 120.168493 435.353679 120.664451 435.353679 121.181517
C 435.353679 121.698584 435.559112 122.194542 435.924733 122.560163
C 436.290354 122.925784 436.786312 123.131217 437.303378 123.131217
z
" clip-path="url(#p105f15a1a8)" style="fill: #ff655d; fill-opacity: 0.678431; stroke: #ff655d; stroke-opacity: 0.678431; stroke-width: 0.886227"/>
    <path d="M 453.389545 301.216501
C 453.906612 301.216501 454.40257 301.011069 454.768191 300.645447
C 455.133812 300.279826 455.339245 299.783868 455.339245 299.266802
C 455.339245 298.749736 455.133812 298.253777 454.768191 297.888156
C 454.40257 297.522535 453.906612 297.317103 453.389545 297.317103
C 452.872479 297.317103 452.376521 297.522535 452.0109 297.888156
C 451.645279 298.253777 451.439846 298.749736 451.439846 299.266802
C 451.439846 299.783868 451.645279 300.279826 452.0109 300.645447
C 452.376521 301.011069 452.872479 301.216501 453.389545 301.216501
z
" clip-path="url(#p105f15a1a8)" style="fill: #ff655d; fill-opacity: 0.678431; stroke: #ff655d; stroke-opacity: 0.678431; stroke-width: 0.886227"/>
    <path d="M 408.162578 278.520326
C 408.679644 278.520326 409.175602 278.314893 409.541223 277.949272
C 409.906844 277.583651 410.112277 277.087693 410.112277 276.570626
C 410.112277 276.05356 409.906844 275.557602 409.541223 275.191981
C 409.175602 274.82636 408.679644 274.620927 408.162578 274.620927
C 407.645511 274.620927 407.149553 274.82636 406.783932 275.191981
C 406.418311 275.557602 406.212878 276.05356 406.212878 276.570626
C 406.212878 277.087693 406.418311 277.583651 406.783932 277.949272
C 407.149553 278.314893 407.645511 278.520326 408.162578 278.520326
z
" clip-path="url(#p105f15a1a8)" style="fill: #ff655d; fill-opacity: 0.678431; stroke: #ff655d; stroke-opacity: 0.678431; stroke-width: 0.886227"/>
    <path d="M 409.269464 252.204068
C 409.78653 252.204068 410.282488 251.998636 410.64811 251.633015
C 411.013731 251.267394 411.219163 250.771436 411.219163 250.254369
C 411.219163 249.737303 411.013731 249.241345 410.64811 248.875724
C 410.282488 248.510103 409.78653 248.30467 409.269464 248.30467
C 408.752398 248.30467 408.25644 248.510103 407.890818 248.875724
C 407.525197 249.241345 407.319765 249.737303 407.319765 250.254369
C 407.319765 250.771436 407.525197 251.267394 407.890818 251.633015
C 408.25644 251.998636 408.752398 252.204068 409.269464 252.204068
z
" clip-path="url(#p105f15a1a8)" style="fill: #ff655d; fill-opacity: 0.678431; stroke: #ff655d; stroke-opacity: 0.678431; stroke-width: 0.886227"/>
    <path d="M 404.002567 224.596652
C 404.519633 224.596652 405.015591 224.39122 405.381213 224.025599
C 405.746834 223.659978 405.952266 223.164019 405.952266 222.646953
C 405.952266 222.129887 405.746834 221.633929 405.381213 221.268308
C 405.015591 220.902687 404.519633 220.697254 404.002567 220.697254
C 403.485501 220.697254 402.989542 220.902687 402.623921 221.268308
C 402.2583 221.633929 402.052868 222.129887 402.052868 222.646953
C 402.052868 223.164019 402.2583 223.659978 402.623921 224.025599
C 402.989542 224.39122 403.485501 224.596652 404.002567 224.596652
z
" clip-path="url(#p105f15a1a8)" style="fill: #ff655d; fill-opacity: 0.678431; stroke: #ff655d; stroke-opacity: 0.678431; stroke-width: 0.886227"/>
    <path d="M 166.729119 330.841798
C 167.246186 330.841798 167.742144 330.636366 168.107765 330.270745
C 168.473386 329.905124 168.678819 329.409165 168.678819 328.892099
C 168.678819 328.375033 168.473386 327.879075 168.107765 327.513453
C 167.742144 327.147832 167.246186 326.9424 166.729119 326.9424
C 166.212053 326.9424 165.716095 327.147832 165.350474 327.513453
C 164.984853 327.879075 164.77942 328.375033 164.77942 328.892099
C 164.77942 329.409165 164.984853 329.905124 165.350474 330.270745
C 165.716095 330.636366 166.212053 330.841798 166.729119 330.841798
z
" clip-path="url(#p105f15a1a8)" style="fill: #ff655d; fill-opacity: 0.678431; stroke: #ff655d; stroke-opacity: 0.678431; stroke-width: 0.886227"/>
    <path d="M 151.27566 101.349351
C 151.792727 101.349351 152.288685 101.143918 152.654306 100.778297
C 153.019927 100.412676 153.22536 99.916718 153.22536 99.399652
C 153.22536 98.882585 153.019927 98.386627 152.654306 98.021006
C 152.288685 97.655385 151.792727 97.449952 151.27566 97.449952
C 150.758594 97.449952 150.262636 97.655385 149.897015 98.021006
C 149.531394 98.386627 149.325961 98.882585 149.325961 99.399652
C 149.325961 99.916718 149.531394 100.412676 149.897015 100.778297
C 150.262636 101.143918 150.758594 101.349351 151.27566 101.349351
z
" clip-path="url(#p105f15a1a8)" style="fill: #ff655d; fill-opacity: 0.678431; stroke: #ff655d; stroke-opacity: 0.678431; stroke-width: 0.886227"/>
    <path d="M 144.789165 75.328635
C 145.306232 75.328635 145.80219 75.123202 146.167811 74.757581
C 146.533432 74.39196 146.738865 73.896002 146.738865 73.378936
C 146.738865 72.861869 146.533432 72.365911 146.167811 72.00029
C 145.80219 71.634669 145.306232 71.429236 144.789165 71.429236
C 144.272099 71.429236 143.776141 71.634669 143.41052 72.00029
C 143.044899 72.365911 142.839466 72.861869 142.839466 73.378936
C 142.839466 73.896002 143.044899 74.39196 143.41052 74.757581
C 143.776141 75.123202 144.272099 75.328635 144.789165 75.328635
z
" clip-path="url(#p105f15a1a8)" style="fill: #ff655d; fill-opacity: 0.678431; stroke: #ff655d; stroke-opacity: 0.678431; stroke-width: 0.886227"/>
    <path d="M 150.845367 49.496967
C 151.362433 49.496967 151.858391 49.291534 152.224012 48.925913
C 152.589633 48.560292 152.795066 48.064334 152.795066 47.547267
C 152.795066 47.030201 152.589633 46.534243 152.224012 46.168622
C 151.858391 45.803001 151.362433 45.597568 150.845367 45.597568
C 150.328301 45.597568 149.832342 45.803001 149.466721 46.168622
C 149.1011 46.534243 148.895668 47.030201 148.895668 47.547267
C 148.895668 48.064334 149.1011 48.560292 149.466721 48.925913
C 149.832342 49.291534 150.328301 49.496967 150.845367 49.496967
z
" clip-path="url(#p105f15a1a8)" style="fill: #ff655d; fill-opacity: 0.678431; stroke: #ff655d; stroke-opacity: 0.678431; stroke-width: 0.886227"/>
    <path d="M 147.806856 20.571203
C 148.323923 20.571203 148.819881 20.365771 149.185502 20.00015
C 149.551123 19.634528 149.756556 19.13857 149.756556 18.621504
C 149.756556 18.104438 149.551123 17.60848 149.185502 17.242858
C 148.819881 16.877237 148.323923 16.671805 147.806856 16.671805
C 147.28979 16.671805 146.793832 16.877237 146.428211 17.242858
C 146.06259 17.60848 145.857157 18.104438 145.857157 18.621504
C 145.857157 19.13857 146.06259 19.634528 146.428211 20.00015
C 146.793832 20.365771 147.28979 20.571203 147.806856 20.571203
z
" clip-path="url(#p105f15a1a8)" style="fill: #ff655d; fill-opacity: 0.678431; stroke: #ff655d; stroke-opacity: 0.678431; stroke-width: 0.886227"/>
   </g>
   <g id="LineCollection_14">
    <path d="M 74.046818 342.111375
L 74.046818 5.184
" clip-path="url(#p105f15a1a8)" style="fill: none; stroke-dasharray: 2.295328,0.992574; stroke-dashoffset: 0; stroke: #444444; stroke-width: 0.620359"/>
   </g>
  </g>
  <g id="patch_4">
   <path d="M 53.134 342.111375
L 513.216 342.111375
L 513.216 5.184
L 53.134 5.184
L 53.134 342.111375
z
" style="fill: none; stroke: #7f7f7f; stroke-linejoin: miter"/>
  </g>
  <g id="text_17">
   <!-- C++ RADSex / rsx elapsed time (log10) -->
   <g transform="translate(184.05625 367.136313) scale(0.1 -0.1)">
    <defs>
     <path id="DejaVuSans-43" d="M 4122 4306
L 4122 3641
Q 3803 3938 3442 4084
Q 3081 4231 2675 4231
Q 1875 4231 1450 3742
Q 1025 3253 1025 2328
Q 1025 1406 1450 917
Q 1875 428 2675 428
Q 3081 428 3442 575
Q 3803 722 4122 1019
L 4122 359
Q 3791 134 3420 21
Q 3050 -91 2638 -91
Q 1578 -91 968 557
Q 359 1206 359 2328
Q 359 3453 968 4101
Q 1578 4750 2638 4750
Q 3056 4750 3426 4639
Q 3797 4528 4122 4306
z
" transform="scale(0.015625)"/>
     <path id="DejaVuSans-2b" d="M 2944 4013
L 2944 2272
L 4684 2272
L 4684 1741
L 2944 1741
L 2944 0
L 2419 0
L 2419 1741
L 678 1741
L 678 2272
L 2419 2272
L 2419 4013
L 2944 4013
z
" transform="scale(0.015625)"/>
     <path id="DejaVuSans-52" d="M 2841 2188
Q 3044 2119 3236 1894
Q 3428 1669 3622 1275
L 4263 0
L 3584 0
L 2988 1197
Q 2756 1666 2539 1819
Q 2322 1972 1947 1972
L 1259 1972
L 1259 0
L 628 0
L 628 4666
L 2053 4666
Q 2853 4666 3247 4331
Q 3641 3997 3641 3322
Q 3641 2881 3436 2590
Q 3231 2300 2841 2188
z
M 1259 4147
L 1259 2491
L 2053 2491
Q 2509 2491 2742 2702
Q 2975 2913 2975 3322
Q 2975 3731 2742 3939
Q 2509 4147 2053 4147
L 1259 4147
z
" transform="scale(0.015625)"/>
     <path id="DejaVuSans-41" d="M 2188 4044
L 1331 1722
L 3047 1722
L 2188 4044
z
M 1831 4666
L 2547 4666
L 4325 0
L 3669 0
L 3244 1197
L 1141 1197
L 716 0
L 50 0
L 1831 4666
z
" transform="scale(0.015625)"/>
     <path id="DejaVuSans-44" d="M 1259 4147
L 1259 519
L 2022 519
Q 2988 519 3436 956
Q 3884 1394 3884 2338
Q 3884 3275 3436 3711
Q 2988 4147 2022 4147
L 1259 4147
z
M 628 4666
L 1925 4666
Q 3281 4666 3915 4102
Q 4550 3538 4550 2338
Q 4550 1131 3912 565
Q 3275 0 1925 0
L 628 0
L 628 4666
z
" transform="scale(0.015625)"/>
     <path id="DejaVuSans-53" d="M 3425 4513
L 3425 3897
Q 3066 4069 2747 4153
Q 2428 4238 2131 4238
Q 1616 4238 1336 4038
Q 1056 3838 1056 3469
Q 1056 3159 1242 3001
Q 1428 2844 1947 2747
L 2328 2669
Q 3034 2534 3370 2195
Q 3706 1856 3706 1288
Q 3706 609 3251 259
Q 2797 -91 1919 -91
Q 1588 -91 1214 -16
Q 841 59 441 206
L 441 856
Q 825 641 1194 531
Q 1563 422 1919 422
Q 2459 422 2753 634
Q 3047 847 3047 1241
Q 3047 1584 2836 1778
Q 2625 1972 2144 2069
L 1759 2144
Q 1053 2284 737 2584
Q 422 2884 422 3419
Q 422 4038 858 4394
Q 1294 4750 2059 4750
Q 2388 4750 2728 4690
Q 3069 4631 3425 4513
z
" transform="scale(0.015625)"/>
     <path id="DejaVuSans-78" d="M 3513 3500
L 2247 1797
L 3578 0
L 2900 0
L 1881 1375
L 863 0
L 184 0
L 1544 1831
L 300 3500
L 978 3500
L 1906 2253
L 2834 3500
L 3513 3500
z
" transform="scale(0.015625)"/>
     <path id="DejaVuSans-2f" d="M 1625 4666
L 2156 4666
L 531 -594
L 0 -594
L 1625 4666
z
" transform="scale(0.015625)"/>
     <path id="DejaVuSans-6c" d="M 603 4863
L 1178 4863
L 1178 0
L 603 0
L 603 4863
z
" transform="scale(0.015625)"/>
     <path id="DejaVuSans-61" d="M 2194 1759
Q 1497 1759 1228 1600
Q 959 1441 959 1056
Q 959 750 1161 570
Q 1363 391 1709 391
Q 2188 391 2477 730
Q 2766 1069 2766 1631
L 2766 1759
L 2194 1759
z
M 3341 1997
L 3341 0
L 2766 0
L 2766 531
Q 2569 213 2275 61
Q 1981 -91 1556 -91
Q 1019 -91 701 211
Q 384 513 384 1019
Q 384 1609 779 1909
Q 1175 2209 1959 2209
L 2766 2209
L 2766 2266
Q 2766 2663 2505 2880
Q 2244 3097 1772 3097
Q 1472 3097 1187 3025
Q 903 2953 641 2809
L 641 3341
Q 956 3463 1253 3523
Q 1550 3584 1831 3584
Q 2591 3584 2966 3190
Q 3341 2797 3341 1997
z
" transform="scale(0.015625)"/>
     <path id="DejaVuSans-6d" d="M 3328 2828
Q 3544 3216 3844 3400
Q 4144 3584 4550 3584
Q 5097 3584 5394 3201
Q 5691 2819 5691 2113
L 5691 0
L 5113 0
L 5113 2094
Q 5113 2597 4934 2840
Q 4756 3084 4391 3084
Q 3944 3084 3684 2787
Q 3425 2491 3425 1978
L 3425 0
L 2847 0
L 2847 2094
Q 2847 2600 2669 2842
Q 2491 3084 2119 3084
Q 1678 3084 1418 2786
Q 1159 2488 1159 1978
L 1159 0
L 581 0
L 581 3500
L 1159 3500
L 1159 2956
Q 1356 3278 1631 3431
Q 1906 3584 2284 3584
Q 2666 3584 2933 3390
Q 3200 3197 3328 2828
z
" transform="scale(0.015625)"/>
     <path id="DejaVuSans-28" d="M 1984 4856
Q 1566 4138 1362 3434
Q 1159 2731 1159 2009
Q 1159 1288 1364 580
Q 1569 -128 1984 -844
L 1484 -844
Q 1016 -109 783 600
Q 550 1309 550 2009
Q 550 2706 781 3412
Q 1013 4119 1484 4856
L 1984 4856
z
" transform="scale(0.015625)"/>
     <path id="DejaVuSans-29" d="M 513 4856
L 1013 4856
Q 1481 4119 1714 3412
Q 1947 2706 1947 2009
Q 1947 1309 1714 600
Q 1481 -109 1013 -844
L 513 -844
Q 928 -128 1133 580
Q 1338 1288 1338 2009
Q 1338 2731 1133 3434
Q 928 4138 513 4856
z
" transform="scale(0.015625)"/>
    </defs>
    <use xlink:href="#DejaVuSans-43"/>
    <use xlink:href="#DejaVuSans-2b" transform="translate(69.824219 0)"/>
    <use xlink:href="#DejaVuSans-2b" transform="translate(153.613281 0)"/>
    <use xlink:href="#DejaVuSans-20" transform="translate(237.402344 0)"/>
    <use xlink:href="#DejaVuSans-52" transform="translate(269.189453 0)"/>
    <use xlink:href="#DejaVuSans-41" transform="translate(334.671875 0)"/>
    <use xlink:href="#DejaVuSans-44" transform="translate(403.080078 0)"/>
    <use xlink:href="#DejaVuSans-53" transform="translate(480.082031 0)"/>
    <use xlink:href="#DejaVuSans-65" transform="translate(543.558594 0)"/>
    <use xlink:href="#DejaVuSans-78" transform="translate(603.332031 0)"/>
    <use xlink:href="#DejaVuSans-20" transform="translate(662.511719 0)"/>
    <use xlink:href="#DejaVuSans-2f" transform="translate(694.298828 0)"/>
    <use xlink:href="#DejaVuSans-20" transform="translate(727.990234 0)"/>
    <use xlink:href="#DejaVuSans-72" transform="translate(759.777344 0)"/>
    <use xlink:href="#DejaVuSans-73" transform="translate(800.890625 0)"/>
    <use xlink:href="#DejaVuSans-78" transform="translate(852.990234 0)"/>
    <use xlink:href="#DejaVuSans-20" transform="translate(912.169922 0)"/>
    <use xlink:href="#DejaVuSans-65" transform="translate(943.957031 0)"/>
    <use xlink:href="#DejaVuSans-6c" transform="translate(1005.480469 0)"/>
    <use xlink:href="#DejaVuSans-61" transform="translate(1033.263672 0)"/>
    <use xlink:href="#DejaVuSans-70" transform="translate(1094.542969 0)"/>
    <use xlink:href="#DejaVuSans-73" transform="translate(1158.019531 0)"/>
    <use xlink:href="#DejaVuSans-65" transform="translate(1210.119141 0)"/>
    <use xlink:href="#DejaVuSans-64" transform="translate(1271.642578 0)"/>
    <use xlink:href="#DejaVuSans-20" transform="translate(1335.119141 0)"/>
    <use xlink:href="#DejaVuSans-74" transform="translate(1366.90625 0)"/>
    <use xlink:href="#DejaVuSans-69" transform="translate(1406.115234 0)"/>
    <use xlink:href="#DejaVuSans-6d" transform="translate(1433.898438 0)"/>
    <use xlink:href="#DejaVuSans-65" transform="translate(1531.310547 0)"/>
    <use xlink:href="#DejaVuSans-20" transform="translate(1592.833984 0)"/>
    <use xlink:href="#DejaVuSans-28" transform="translate(1624.621094 0)"/>
    <use xlink:href="#DejaVuSans-6c" transform="translate(1663.634766 0)"/>
    <use xlink:href="#DejaVuSans-6f" transform="translate(1691.417969 0)"/>
    <use xlink:href="#DejaVuSans-67" transform="translate(1752.599609 0)"/>
    <use xlink:href="#DejaVuSans-31" transform="translate(1816.076172 0)"/>
    <use xlink:href="#DejaVuSans-30" transform="translate(1879.699219 0)"/>
    <use xlink:href="#DejaVuSans-29" transform="translate(1943.322266 0)"/>
   </g>
  </g>
 </g>
 <defs>
  <clipPath id="p105f15a1a8">
   <rect x="53.134" y="5.184" width="460.082" height="336.927375"/>
  </clipPath>
 </defs>
</svg>
