<?xml version="1.0" encoding="utf-8" standalone="no"?>
<!DOCTYPE svg PUBLIC "-//W3C//DTD SVG 1.1//EN"
  "http://www.w3.org/Graphics/SVG/1.1/DTD/svg11.dtd">
<svg xmlns:xlink="http://www.w3.org/1999/xlink" width="518.4pt" height="374.4pt" viewBox="0 0 518.4 374.4" xmlns="http://www.w3.org/2000/svg" version="1.1">
 <metadata>
  <rdf:RDF xmlns:dc="http://purl.org/dc/elements/1.1/" xmlns:cc="http://creativecommons.org/ns#" xmlns:rdf="http://www.w3.org/1999/02/22-rdf-syntax-ns#">
   <cc:Work>
    <dc:type rdf:resource="http://purl.org/dc/dcmitype/StillImage"/>
    <dc:date>2026-05-17T07:25:16.009490</dc:date>
    <dc:format>image/svg+xml</dc:format>
    <dc:creator>
     <cc:Agent>
      <dc:title>Matplotlib v3.10.9, https://matplotlib.org/</dc:title>
     </cc:Agent>
    </dc:creator>
   </cc:Work>
  </rdf:RDF>
 </metadata>
 <defs>
  <style type="text/css">*{stroke-linejoin: round; stroke-linecap: butt}</style>
 </defs>
 <g id="figure_1">
  <g id="patch_1">
   <path d="M 0 374.4
L 518.4 374.4
L 518.4 0
L 0 0
z
" style="fill: #ffffff"/>
  </g>
  <g id="patch_2">
   <path d="M 0 374.4
L 518.4 374.4
L 518.4 0
L 0 0
L 0 374.4
z
" style="fill: none; stroke: #ffffff; stroke-linejoin: miter"/>
  </g>
  <g id="axes_1">
   <g id="patch_3">
    <path d="M 53.134 342.111375
L 513.216 342.111375
L 513.216 5.184
L 53.134 5.184
z
" style="fill: #ffffff"/>
   </g>
   <g id="matplotlib.axis_1">
    <g id="xtick_1">
     <g id="line2d_1">
      <path d="M 74.046818 342.111375
L 74.046818 5.184
" clip-path="url(#pc68076282b)" style="fill: none; stroke: #e6e6e6; stroke-width: 0.35; stroke-linecap: square"/>
     </g>
     <g id="line2d_2">
      <path d="M 74.046818 342.111375
" style="fill: none; stroke: #333333; stroke-width: 1.5; stroke-linecap: square"/>
      <defs>
       <path id="m400a4d40da" d="M 0 0
L 0 2.5
" style="stroke: #333333"/>
      </defs>
      <g>
       <use xlink:href="#m400a4d40da" x="74.046818" y="342.111375" style="fill: #333333; stroke: #333333"/>
      </g>
     </g>
     <g id="text_1">
      <!-- 1 -->
      <g style="fill: #4d4d4d" transform="translate(71.501818 352.690125) scale(0.08 -0.08)">
       <defs>
        <path id="DejaVuSans-31" d="M 794 531
L 1825 531
L 1825 4091
L 703 3866
L 703 4441
L 1819 4666
L 2450 4666
L 2450 531
L 3481 531
L 3481 0
L 794 0
L 794 531
z
" transform="scale(0.015625)"/>
       </defs>
       <use xlink:href="#DejaVuSans-31"/>
      </g>
     </g>
    </g>
    <g id="xtick_2">
     <g id="line2d_3">
      <path d="M 305.226703 342.111375
L 305.226703 5.184
" clip-path="url(#pc68076282b)" style="fill: none; stroke: #e6e6e6; stroke-width: 0.35; stroke-linecap: square"/>
     </g>
     <g id="line2d_4">
      <path d="M 305.226703 342.111375
" style="fill: none; stroke: #333333; stroke-width: 1.5; stroke-linecap: square"/>
      <g>
       <use xlink:href="#m400a4d40da" x="305.226703" y="342.111375" style="fill: #333333; stroke: #333333"/>
      </g>
     </g>
     <g id="text_2">
      <!-- 3 -->
      <g style="fill: #4d4d4d" transform="translate(302.681703 352.690125) scale(0.08 -0.08)">
       <defs>
        <path id="DejaVuSans-33" d="M 2597 2516
Q 3050 2419 3304 2112
Q 3559 1806 3559 1356
Q 3559 666 3084 287
Q 2609 -91 1734 -91
Q 1441 -91 1130 -33
Q 819 25 488 141
L 488 750
Q 750 597 1062 519
Q 1375 441 1716 441
Q 2309 441 2620 675
Q 2931 909 2931 1356
Q 2931 1769 2642 2001
Q 2353 2234 1838 2234
L 1294 2234
L 1294 2753
L 1863 2753
Q 2328 2753 2575 2939
Q 2822 3125 2822 3475
Q 2822 3834 2567 4026
Q 2313 4219 1838 4219
Q 1578 4219 1281 4162
Q 984 4106 628 3988
L 628 4550
Q 988 4650 1302 4700
Q 1616 4750 1894 4750
Q 2613 4750 3031 4423
Q 3450 4097 3450 3541
Q 3450 3153 3228 2886
Q 3006 2619 2597 2516
z
" transform="scale(0.015625)"/>
       </defs>
       <use xlink:href="#DejaVuSans-33"/>
      </g>
     </g>
    </g>
    <g id="xtick_3">
     <g id="line2d_5">
      <path d="M 412.719227 342.111375
L 412.719227 5.184
" clip-path="url(#pc68076282b)" style="fill: none; stroke: #e6e6e6; stroke-width: 0.35; stroke-linecap: square"/>
     </g>
     <g id="line2d_6">
      <path d="M 412.719227 342.111375
" style="fill: none; stroke: #333333; stroke-width: 1.5; stroke-linecap: square"/>
      <g>
       <use xlink:href="#m400a4d40da" x="412.719227" y="342.111375" style="fill: #333333; stroke: #333333"/>
      </g>
     </g>
     <g id="text_3">
      <!-- 5 -->
      <g style="fill: #4d4d4d" transform="translate(410.174227 352.690125) scale(0.08 -0.08)">
       <defs>
        <path id="DejaVuSans-35" d="M 691 4666
L 3169 4666
L 3169 4134
L 1269 4134
L 1269 2991
Q 1406 3038 1543 3061
Q 1681 3084 1819 3084
Q 2600 3084 3056 2656
Q 3513 2228 3513 1497
Q 3513 744 3044 326
Q 2575 -91 1722 -91
Q 1428 -91 1123 -41
Q 819 9 494 109
L 494 744
Q 775 591 1075 516
Q 1375 441 1709 441
Q 2250 441 2565 725
Q 2881 1009 2881 1497
Q 2881 1984 2565 2268
Q 2250 2553 1709 2553
Q 1456 2553 1204 2497
Q 953 2441 691 2322
L 691 4666
z
" transform="scale(0.015625)"/>
       </defs>
       <use xlink:href="#DejaVuSans-35"/>
      </g>
     </g>
    </g>
    <g id="xtick_4"/>
    <g id="xtick_5"/>
    <g id="xtick_6"/>
    <g id="xtick_7"/>
    <g id="xtick_8"/>
    <g id="xtick_9"/>
    <g id="xtick_10"/>
    <g id="xtick_11"/>
    <g id="xtick_12"/>
    <g id="xtick_13"/>
    <g id="xtick_14"/>
    <g id="xtick_15"/>
    <g id="xtick_16"/>
    <g id="xtick_17"/>
    <g id="xtick_18"/>
    <g id="xtick_19"/>
    <g id="xtick_20"/>
    <g id="xtick_21"/>
    <g id="xtick_22"/>
    <g id="xtick_23"/>
    <g id="xtick_24"/>
    <g id="xtick_25"/>
   </g>
   <g id="matplotlib.axis_2">
    <g id="ytick_1">
     <g id="line2d_7">
      <path d="M 53.134 326.796494
L 513.216 326.796494
" clip-path="url(#pc68076282b)" style="fill: none; stroke: #e6e6e6; stroke-width: 0.35; stroke-linecap: square"/>
     </g>
     <g id="line2d_8">
      <path d="M 53.134 326.796494
" style="fill: none; stroke: #333333; stroke-width: 1.5; stroke-linecap: square"/>
      <defs>
       <path id="m6aef6e59a5" d="M 0 0
L -2.5 0
" style="stroke: #333333"/>
      </defs>
      <g>
       <use xlink:href="#m6aef6e59a5" x="53.134" y="326.796494" style="fill: #333333; stroke: #333333"/>
      </g>
     </g>
     <g id="text_4">
      <!-- process d1 -->
      <g style="fill: #4d4d4d" transform="translate(5.184 329.835869) scale(0.08 -0.08)">
       <defs>
        <path id="DejaVuSans-70" d="M 1159 525
L 1159 -1331
L 581 -1331
L 581 3500
L 1159 3500
L 1159 2969
Q 1341 3281 1617 3432
Q 1894 3584 2278 3584
Q 2916 3584 3314 3078
Q 3713 2572 3713 1747
Q 3713 922 3314 415
Q 2916 -91 2278 -91
Q 1894 -91 1617 61
Q 1341 213 1159 525
z
M 3116 1747
Q 3116 2381 2855 2742
Q 2594 3103 2138 3103
Q 1681 3103 1420 2742
Q 1159 2381 1159 1747
Q 1159 1113 1420 752
Q 1681 391 2138 391
Q 2594 391 2855 752
Q 3116 1113 3116 1747
z
" transform="scale(0.015625)"/>
        <path id="DejaVuSans-72" d="M 2631 2963
Q 2534 3019 2420 3045
Q 2306 3072 2169 3072
Q 1681 3072 1420 2755
Q 1159 2438 1159 1844
L 1159 0
L 581 0
L 581 3500
L 1159 3500
L 1159 2956
Q 1341 3275 1631 3429
Q 1922 3584 2338 3584
Q 2397 3584 2469 3576
Q 2541 3569 2628 3553
L 2631 2963
z
" transform="scale(0.015625)"/>
        <path id="DejaVuSans-6f" d="M 1959 3097
Q 1497 3097 1228 2736
Q 959 2375 959 1747
Q 959 1119 1226 758
Q 1494 397 1959 397
Q 2419 397 2687 759
Q 2956 1122 2956 1747
Q 2956 2369 2687 2733
Q 2419 3097 1959 3097
z
M 1959 3584
Q 2709 3584 3137 3096
Q 3566 2609 3566 1747
Q 3566 888 3137 398
Q 2709 -91 1959 -91
Q 1206 -91 779 398
Q 353 888 353 1747
Q 353 2609 779 3096
Q 1206 3584 1959 3584
z
" transform="scale(0.015625)"/>
        <path id="DejaVuSans-63" d="M 3122 3366
L 3122 2828
Q 2878 2963 2633 3030
Q 2388 3097 2138 3097
Q 1578 3097 1268 2742
Q 959 2388 959 1747
Q 959 1106 1268 751
Q 1578 397 2138 397
Q 2388 397 2633 464
Q 2878 531 3122 666
L 3122 134
Q 2881 22 2623 -34
Q 2366 -91 2075 -91
Q 1284 -91 818 406
Q 353 903 353 1747
Q 353 2603 823 3093
Q 1294 3584 2113 3584
Q 2378 3584 2631 3529
Q 2884 3475 3122 3366
z
" transform="scale(0.015625)"/>
        <path id="DejaVuSans-65" d="M 3597 1894
L 3597 1613
L 953 1613
Q 991 1019 1311 708
Q 1631 397 2203 397
Q 2534 397 2845 478
Q 3156 559 3463 722
L 3463 178
Q 3153 47 2828 -22
Q 2503 -91 2169 -91
Q 1331 -91 842 396
Q 353 884 353 1716
Q 353 2575 817 3079
Q 1281 3584 2069 3584
Q 2775 3584 3186 3129
Q 3597 2675 3597 1894
z
M 3022 2063
Q 3016 2534 2758 2815
Q 2500 3097 2075 3097
Q 1594 3097 1305 2825
Q 1016 2553 972 2059
L 3022 2063
z
" transform="scale(0.015625)"/>
        <path id="DejaVuSans-73" d="M 2834 3397
L 2834 2853
Q 2591 2978 2328 3040
Q 2066 3103 1784 3103
Q 1356 3103 1142 2972
Q 928 2841 928 2578
Q 928 2378 1081 2264
Q 1234 2150 1697 2047
L 1894 2003
Q 2506 1872 2764 1633
Q 3022 1394 3022 966
Q 3022 478 2636 193
Q 2250 -91 1575 -91
Q 1294 -91 989 -36
Q 684 19 347 128
L 347 722
Q 666 556 975 473
Q 1284 391 1588 391
Q 1994 391 2212 530
Q 2431 669 2431 922
Q 2431 1156 2273 1281
Q 2116 1406 1581 1522
L 1381 1569
Q 847 1681 609 1914
Q 372 2147 372 2553
Q 372 3047 722 3315
Q 1072 3584 1716 3584
Q 2034 3584 2315 3537
Q 2597 3491 2834 3397
z
" transform="scale(0.015625)"/>
        <path id="DejaVuSans-20" transform="scale(0.015625)"/>
        <path id="DejaVuSans-64" d="M 2906 2969
L 2906 4863
L 3481 4863
L 3481 0
L 2906 0
L 2906 525
Q 2725 213 2448 61
Q 2172 -91 1784 -91
Q 1150 -91 751 415
Q 353 922 353 1747
Q 353 2572 751 3078
Q 1150 3584 1784 3584
Q 2172 3584 2448 3432
Q 2725 3281 2906 2969
z
M 947 1747
Q 947 1113 1208 752
Q 1469 391 1925 391
Q 2381 391 2643 752
Q 2906 1113 2906 1747
Q 2906 2381 2643 2742
Q 2381 3103 1925 3103
Q 1469 3103 1208 2742
Q 947 2381 947 1747
z
" transform="scale(0.015625)"/>
       </defs>
       <use xlink:href="#DejaVuSans-70"/>
       <use xlink:href="#DejaVuSans-72" transform="translate(63.476562 0)"/>
       <use xlink:href="#DejaVuSans-6f" transform="translate(102.339844 0)"/>
       <use xlink:href="#DejaVuSans-63" transform="translate(163.521484 0)"/>
       <use xlink:href="#DejaVuSans-65" transform="translate(218.501953 0)"/>
       <use xlink:href="#DejaVuSans-73" transform="translate(280.025391 0)"/>
       <use xlink:href="#DejaVuSans-73" transform="translate(332.125 0)"/>
       <use xlink:href="#DejaVuSans-20" transform="translate(384.224609 0)"/>
       <use xlink:href="#DejaVuSans-64" transform="translate(416.011719 0)"/>
       <use xlink:href="#DejaVuSans-31" transform="translate(479.488281 0)"/>
      </g>
     </g>
    </g>
    <g id="ytick_2">
     <g id="line2d_9">
      <path d="M 53.134 301.271693
L 513.216 301.271693
" clip-path="url(#pc68076282b)" style="fill: none; stroke: #e6e6e6; stroke-width: 0.35; stroke-linecap: square"/>
     </g>
     <g id="line2d_10">
      <path d="M 53.134 301.271693
" style="fill: none; stroke: #333333; stroke-width: 1.5; stroke-linecap: square"/>
      <g>
       <use xlink:href="#m6aef6e59a5" x="53.134" y="301.271693" style="fill: #333333; stroke: #333333"/>
      </g>
     </g>
     <g id="text_5">
      <!-- freq d1 -->
      <g style="fill: #4d4d4d" transform="translate(19.9965 304.311068) scale(0.08 -0.08)">
       <defs>
        <path id="DejaVuSans-66" d="M 2375 4863
L 2375 4384
L 1825 4384
Q 1516 4384 1395 4259
Q 1275 4134 1275 3809
L 1275 3500
L 2222 3500
L 2222 3053
L 1275 3053
L 1275 0
L 697 0
L 697 3053
L 147 3053
L 147 3500
L 697 3500
L 697 3744
Q 697 4328 969 4595
Q 1241 4863 1831 4863
L 2375 4863
z
" transform="scale(0.015625)"/>
        <path id="DejaVuSans-71" d="M 947 1747
Q 947 1113 1208 752
Q 1469 391 1925 391
Q 2381 391 2643 752
Q 2906 1113 2906 1747
Q 2906 2381 2643 2742
Q 2381 3103 1925 3103
Q 1469 3103 1208 2742
Q 947 2381 947 1747
z
M 2906 525
Q 2725 213 2448 61
Q 2172 -91 1784 -91
Q 1150 -91 751 415
Q 353 922 353 1747
Q 353 2572 751 3078
Q 1150 3584 1784 3584
Q 2172 3584 2448 3432
Q 2725 3281 2906 2969
L 2906 3500
L 3481 3500
L 3481 -1331
L 2906 -1331
L 2906 525
z
" transform="scale(0.015625)"/>
       </defs>
       <use xlink:href="#DejaVuSans-66"/>
       <use xlink:href="#DejaVuSans-72" transform="translate(35.205078 0)"/>
       <use xlink:href="#DejaVuSans-65" transform="translate(74.068359 0)"/>
       <use xlink:href="#DejaVuSans-71" transform="translate(135.591797 0)"/>
       <use xlink:href="#DejaVuSans-20" transform="translate(199.068359 0)"/>
       <use xlink:href="#DejaVuSans-64" transform="translate(230.855469 0)"/>
       <use xlink:href="#DejaVuSans-31" transform="translate(294.332031 0)"/>
      </g>
     </g>
    </g>
    <g id="ytick_3">
     <g id="line2d_11">
      <path d="M 53.134 275.746892
L 513.216 275.746892
" clip-path="url(#pc68076282b)" style="fill: none; stroke: #e6e6e6; stroke-width: 0.35; stroke-linecap: square"/>
     </g>
     <g id="line2d_12">
      <path d="M 53.134 275.746892
" style="fill: none; stroke: #333333; stroke-width: 1.5; stroke-linecap: square"/>
      <g>
       <use xlink:href="#m6aef6e59a5" x="53.134" y="275.746892" style="fill: #333333; stroke: #333333"/>
      </g>
     </g>
     <g id="text_6">
      <!-- freq d2 -->
      <g style="fill: #4d4d4d" transform="translate(19.9965 278.786267) scale(0.08 -0.08)">
       <defs>
        <path id="DejaVuSans-32" d="M 1228 531
L 3431 531
L 3431 0
L 469 0
L 469 531
Q 828 903 1448 1529
Q 2069 2156 2228 2338
Q 2531 2678 2651 2914
Q 2772 3150 2772 3378
Q 2772 3750 2511 3984
Q 2250 4219 1831 4219
Q 1534 4219 1204 4116
Q 875 4013 500 3803
L 500 4441
Q 881 4594 1212 4672
Q 1544 4750 1819 4750
Q 2544 4750 2975 4387
Q 3406 4025 3406 3419
Q 3406 3131 3298 2873
Q 3191 2616 2906 2266
Q 2828 2175 2409 1742
Q 1991 1309 1228 531
z
" transform="scale(0.015625)"/>
       </defs>
       <use xlink:href="#DejaVuSans-66"/>
       <use xlink:href="#DejaVuSans-72" transform="translate(35.205078 0)"/>
       <use xlink:href="#DejaVuSans-65" transform="translate(74.068359 0)"/>
       <use xlink:href="#DejaVuSans-71" transform="translate(135.591797 0)"/>
       <use xlink:href="#DejaVuSans-20" transform="translate(199.068359 0)"/>
       <use xlink:href="#DejaVuSans-64" transform="translate(230.855469 0)"/>
       <use xlink:href="#DejaVuSans-32" transform="translate(294.332031 0)"/>
      </g>
     </g>
    </g>
    <g id="ytick_4">
     <g id="line2d_13">
      <path d="M 53.134 250.222091
L 513.216 250.222091
" clip-path="url(#pc68076282b)" style="fill: none; stroke: #e6e6e6; stroke-width: 0.35; stroke-linecap: square"/>
     </g>
     <g id="line2d_14">
      <path d="M 53.134 250.222091
" style="fill: none; stroke: #333333; stroke-width: 1.5; stroke-linecap: square"/>
      <g>
       <use xlink:href="#m6aef6e59a5" x="53.134" y="250.222091" style="fill: #333333; stroke: #333333"/>
      </g>
     </g>
     <g id="text_7">
      <!-- freq d5 -->
      <g style="fill: #4d4d4d" transform="translate(19.9965 253.261466) scale(0.08 -0.08)">
       <use xlink:href="#DejaVuSans-66"/>
       <use xlink:href="#DejaVuSans-72" transform="translate(35.205078 0)"/>
       <use xlink:href="#DejaVuSans-65" transform="translate(74.068359 0)"/>
       <use xlink:href="#DejaVuSans-71" transform="translate(135.591797 0)"/>
       <use xlink:href="#DejaVuSans-20" transform="translate(199.068359 0)"/>
       <use xlink:href="#DejaVuSans-64" transform="translate(230.855469 0)"/>
       <use xlink:href="#DejaVuSans-35" transform="translate(294.332031 0)"/>
      </g>
     </g>
    </g>
    <g id="ytick_5">
     <g id="line2d_15">
      <path d="M 53.134 224.69729
L 513.216 224.69729
" clip-path="url(#pc68076282b)" style="fill: none; stroke: #e6e6e6; stroke-width: 0.35; stroke-linecap: square"/>
     </g>
     <g id="line2d_16">
      <path d="M 53.134 224.69729
" style="fill: none; stroke: #333333; stroke-width: 1.5; stroke-linecap: square"/>
      <g>
       <use xlink:href="#m6aef6e59a5" x="53.134" y="224.69729" style="fill: #333333; stroke: #333333"/>
      </g>
     </g>
     <g id="text_8">
      <!-- freq d10 -->
      <g style="fill: #4d4d4d" transform="translate(14.9065 227.736665) scale(0.08 -0.08)">
       <defs>
        <path id="DejaVuSans-30" d="M 2034 4250
Q 1547 4250 1301 3770
Q 1056 3291 1056 2328
Q 1056 1369 1301 889
Q 1547 409 2034 409
Q 2525 409 2770 889
Q 3016 1369 3016 2328
Q 3016 3291 2770 3770
Q 2525 4250 2034 4250
z
M 2034 4750
Q 2819 4750 3233 4129
Q 3647 3509 3647 2328
Q 3647 1150 3233 529
Q 2819 -91 2034 -91
Q 1250 -91 836 529
Q 422 1150 422 2328
Q 422 3509 836 4129
Q 1250 4750 2034 4750
z
" transform="scale(0.015625)"/>
       </defs>
       <use xlink:href="#DejaVuSans-66"/>
       <use xlink:href="#DejaVuSans-72" transform="translate(35.205078 0)"/>
       <use xlink:href="#DejaVuSans-65" transform="translate(74.068359 0)"/>
       <use xlink:href="#DejaVuSans-71" transform="translate(135.591797 0)"/>
       <use xlink:href="#DejaVuSans-20" transform="translate(199.068359 0)"/>
       <use xlink:href="#DejaVuSans-64" transform="translate(230.855469 0)"/>
       <use xlink:href="#DejaVuSans-31" transform="translate(294.332031 0)"/>
       <use xlink:href="#DejaVuSans-30" transform="translate(357.955078 0)"/>
      </g>
     </g>
    </g>
    <g id="ytick_6">
     <g id="line2d_17">
      <path d="M 53.134 199.172489
L 513.216 199.172489
" clip-path="url(#pc68076282b)" style="fill: none; stroke: #e6e6e6; stroke-width: 0.35; stroke-linecap: square"/>
     </g>
     <g id="line2d_18">
      <path d="M 53.134 199.172489
" style="fill: none; stroke: #333333; stroke-width: 1.5; stroke-linecap: square"/>
      <g>
       <use xlink:href="#m6aef6e59a5" x="53.134" y="199.172489" style="fill: #333333; stroke: #333333"/>
      </g>
     </g>
     <g id="text_9">
      <!-- distrib d1 -->
      <g style="fill: #4d4d4d" transform="translate(10.72775 202.211864) scale(0.08 -0.08)">
       <defs>
        <path id="DejaVuSans-69" d="M 603 3500
L 1178 3500
L 1178 0
L 603 0
L 603 3500
z
M 603 4863
L 1178 4863
L 1178 4134
L 603 4134
L 603 4863
z
" transform="scale(0.015625)"/>
        <path id="DejaVuSans-74" d="M 1172 4494
L 1172 3500
L 2356 3500
L 2356 3053
L 1172 3053
L 1172 1153
Q 1172 725 1289 603
Q 1406 481 1766 481
L 2356 481
L 2356 0
L 1766 0
Q 1100 0 847 248
Q 594 497 594 1153
L 594 3053
L 172 3053
L 172 3500
L 594 3500
L 594 4494
L 1172 4494
z
" transform="scale(0.015625)"/>
        <path id="DejaVuSans-62" d="M 3116 1747
Q 3116 2381 2855 2742
Q 2594 3103 2138 3103
Q 1681 3103 1420 2742
Q 1159 2381 1159 1747
Q 1159 1113 1420 752
Q 1681 391 2138 391
Q 2594 391 2855 752
Q 3116 1113 3116 1747
z
M 1159 2969
Q 1341 3281 1617 3432
Q 1894 3584 2278 3584
Q 2916 3584 3314 3078
Q 3713 2572 3713 1747
Q 3713 922 3314 415
Q 2916 -91 2278 -91
Q 1894 -91 1617 61
Q 1341 213 1159 525
L 1159 0
L 581 0
L 581 4863
L 1159 4863
L 1159 2969
z
" transform="scale(0.015625)"/>
       </defs>
       <use xlink:href="#DejaVuSans-64"/>
       <use xlink:href="#DejaVuSans-69" transform="translate(63.476562 0)"/>
       <use xlink:href="#DejaVuSans-73" transform="translate(91.259766 0)"/>
       <use xlink:href="#DejaVuSans-74" transform="translate(143.359375 0)"/>
       <use xlink:href="#DejaVuSans-72" transform="translate(182.568359 0)"/>
       <use xlink:href="#DejaVuSans-69" transform="translate(223.681641 0)"/>
       <use xlink:href="#DejaVuSans-62" transform="translate(251.464844 0)"/>
       <use xlink:href="#DejaVuSans-20" transform="translate(314.941406 0)"/>
       <use xlink:href="#DejaVuSans-64" transform="translate(346.728516 0)"/>
       <use xlink:href="#DejaVuSans-31" transform="translate(410.205078 0)"/>
      </g>
     </g>
    </g>
    <g id="ytick_7">
     <g id="line2d_19">
      <path d="M 53.134 173.647688
L 513.216 173.647688
" clip-path="url(#pc68076282b)" style="fill: none; stroke: #e6e6e6; stroke-width: 0.35; stroke-linecap: square"/>
     </g>
     <g id="line2d_20">
      <path d="M 53.134 173.647688
" style="fill: none; stroke: #333333; stroke-width: 1.5; stroke-linecap: square"/>
      <g>
       <use xlink:href="#m6aef6e59a5" x="53.134" y="173.647688" style="fill: #333333; stroke: #333333"/>
      </g>
     </g>
     <g id="text_10">
      <!-- distrib d2 -->
      <g style="fill: #4d4d4d" transform="translate(10.72775 176.687063) scale(0.08 -0.08)">
       <use xlink:href="#DejaVuSans-64"/>
       <use xlink:href="#DejaVuSans-69" transform="translate(63.476562 0)"/>
       <use xlink:href="#DejaVuSans-73" transform="translate(91.259766 0)"/>
       <use xlink:href="#DejaVuSans-74" transform="translate(143.359375 0)"/>
       <use xlink:href="#DejaVuSans-72" transform="translate(182.568359 0)"/>
       <use xlink:href="#DejaVuSans-69" transform="translate(223.681641 0)"/>
       <use xlink:href="#DejaVuSans-62" transform="translate(251.464844 0)"/>
       <use xlink:href="#DejaVuSans-20" transform="translate(314.941406 0)"/>
       <use xlink:href="#DejaVuSans-64" transform="translate(346.728516 0)"/>
       <use xlink:href="#DejaVuSans-32" transform="translate(410.205078 0)"/>
      </g>
     </g>
    </g>
    <g id="ytick_8">
     <g id="line2d_21">
      <path d="M 53.134 148.122886
L 513.216 148.122886
" clip-path="url(#pc68076282b)" style="fill: none; stroke: #e6e6e6; stroke-width: 0.35; stroke-linecap: square"/>
     </g>
     <g id="line2d_22">
      <path d="M 53.134 148.122886
" style="fill: none; stroke: #333333; stroke-width: 1.5; stroke-linecap: square"/>
      <g>
       <use xlink:href="#m6aef6e59a5" x="53.134" y="148.122886" style="fill: #333333; stroke: #333333"/>
      </g>
     </g>
     <g id="text_11">
      <!-- distrib d5 -->
      <g style="fill: #4d4d4d" transform="translate(10.72775 151.162261) scale(0.08 -0.08)">
       <use xlink:href="#DejaVuSans-64"/>
       <use xlink:href="#DejaVuSans-69" transform="translate(63.476562 0)"/>
       <use xlink:href="#DejaVuSans-73" transform="translate(91.259766 0)"/>
       <use xlink:href="#DejaVuSans-74" transform="translate(143.359375 0)"/>
       <use xlink:href="#DejaVuSans-72" transform="translate(182.568359 0)"/>
       <use xlink:href="#DejaVuSans-69" transform="translate(223.681641 0)"/>
       <use xlink:href="#DejaVuSans-62" transform="translate(251.464844 0)"/>
       <use xlink:href="#DejaVuSans-20" transform="translate(314.941406 0)"/>
       <use xlink:href="#DejaVuSans-64" transform="translate(346.728516 0)"/>
       <use xlink:href="#DejaVuSans-35" transform="translate(410.205078 0)"/>
      </g>
     </g>
    </g>
    <g id="ytick_9">
     <g id="line2d_23">
      <path d="M 53.134 122.598085
L 513.216 122.598085
" clip-path="url(#pc68076282b)" style="fill: none; stroke: #e6e6e6; stroke-width: 0.35; stroke-linecap: square"/>
     </g>
     <g id="line2d_24">
      <path d="M 53.134 122.598085
" style="fill: none; stroke: #333333; stroke-width: 1.5; stroke-linecap: square"/>
      <g>
       <use xlink:href="#m6aef6e59a5" x="53.134" y="122.598085" style="fill: #333333; stroke: #333333"/>
      </g>
     </g>
     <g id="text_12">
      <!-- distrib d10 -->
      <g style="fill: #4d4d4d" transform="translate(5.63775 125.63746) scale(0.08 -0.08)">
       <use xlink:href="#DejaVuSans-64"/>
       <use xlink:href="#DejaVuSans-69" transform="translate(63.476562 0)"/>
       <use xlink:href="#DejaVuSans-73" transform="translate(91.259766 0)"/>
       <use xlink:href="#DejaVuSans-74" transform="translate(143.359375 0)"/>
       <use xlink:href="#DejaVuSans-72" transform="translate(182.568359 0)"/>
       <use xlink:href="#DejaVuSans-69" transform="translate(223.681641 0)"/>
       <use xlink:href="#DejaVuSans-62" transform="translate(251.464844 0)"/>
       <use xlink:href="#DejaVuSans-20" transform="translate(314.941406 0)"/>
       <use xlink:href="#DejaVuSans-64" transform="translate(346.728516 0)"/>
       <use xlink:href="#DejaVuSans-31" transform="translate(410.205078 0)"/>
       <use xlink:href="#DejaVuSans-30" transform="translate(473.828125 0)"/>
      </g>
     </g>
    </g>
    <g id="ytick_10">
     <g id="line2d_25">
      <path d="M 53.134 97.073284
L 513.216 97.073284
" clip-path="url(#pc68076282b)" style="fill: none; stroke: #e6e6e6; stroke-width: 0.35; stroke-linecap: square"/>
     </g>
     <g id="line2d_26">
      <path d="M 53.134 97.073284
" style="fill: none; stroke: #333333; stroke-width: 1.5; stroke-linecap: square"/>
      <g>
       <use xlink:href="#m6aef6e59a5" x="53.134" y="97.073284" style="fill: #333333; stroke: #333333"/>
      </g>
     </g>
     <g id="text_13">
      <!-- signif d1 -->
      <g style="fill: #4d4d4d" transform="translate(14.34525 100.112659) scale(0.08 -0.08)">
       <defs>
        <path id="DejaVuSans-67" d="M 2906 1791
Q 2906 2416 2648 2759
Q 2391 3103 1925 3103
Q 1463 3103 1205 2759
Q 947 2416 947 1791
Q 947 1169 1205 825
Q 1463 481 1925 481
Q 2391 481 2648 825
Q 2906 1169 2906 1791
z
M 3481 434
Q 3481 -459 3084 -895
Q 2688 -1331 1869 -1331
Q 1566 -1331 1297 -1286
Q 1028 -1241 775 -1147
L 775 -588
Q 1028 -725 1275 -790
Q 1522 -856 1778 -856
Q 2344 -856 2625 -561
Q 2906 -266 2906 331
L 2906 616
Q 2728 306 2450 153
Q 2172 0 1784 0
Q 1141 0 747 490
Q 353 981 353 1791
Q 353 2603 747 3093
Q 1141 3584 1784 3584
Q 2172 3584 2450 3431
Q 2728 3278 2906 2969
L 2906 3500
L 3481 3500
L 3481 434
z
" transform="scale(0.015625)"/>
        <path id="DejaVuSans-6e" d="M 3513 2113
L 3513 0
L 2938 0
L 2938 2094
Q 2938 2591 2744 2837
Q 2550 3084 2163 3084
Q 1697 3084 1428 2787
Q 1159 2491 1159 1978
L 1159 0
L 581 0
L 581 3500
L 1159 3500
L 1159 2956
Q 1366 3272 1645 3428
Q 1925 3584 2291 3584
Q 2894 3584 3203 3211
Q 3513 2838 3513 2113
z
" transform="scale(0.015625)"/>
       </defs>
       <use xlink:href="#DejaVuSans-73"/>
       <use xlink:href="#DejaVuSans-69" transform="translate(52.099609 0)"/>
       <use xlink:href="#DejaVuSans-67" transform="translate(79.882812 0)"/>
       <use xlink:href="#DejaVuSans-6e" transform="translate(143.359375 0)"/>
       <use xlink:href="#DejaVuSans-69" transform="translate(206.738281 0)"/>
       <use xlink:href="#DejaVuSans-66" transform="translate(234.521484 0)"/>
       <use xlink:href="#DejaVuSans-20" transform="translate(269.726562 0)"/>
       <use xlink:href="#DejaVuSans-64" transform="translate(301.513672 0)"/>
       <use xlink:href="#DejaVuSans-31" transform="translate(364.990234 0)"/>
      </g>
     </g>
    </g>
    <g id="ytick_11">
     <g id="line2d_27">
      <path d="M 53.134 71.548483
L 513.216 71.548483
" clip-path="url(#pc68076282b)" style="fill: none; stroke: #e6e6e6; stroke-width: 0.35; stroke-linecap: square"/>
     </g>
     <g id="line2d_28">
      <path d="M 53.134 71.548483
" style="fill: none; stroke: #333333; stroke-width: 1.5; stroke-linecap: square"/>
      <g>
       <use xlink:href="#m6aef6e59a5" x="53.134" y="71.548483" style="fill: #333333; stroke: #333333"/>
      </g>
     </g>
     <g id="text_14">
      <!-- signif d2 -->
      <g style="fill: #4d4d4d" transform="translate(14.34525 74.587858) scale(0.08 -0.08)">
       <use xlink:href="#DejaVuSans-73"/>
       <use xlink:href="#DejaVuSans-69" transform="translate(52.099609 0)"/>
       <use xlink:href="#DejaVuSans-67" transform="translate(79.882812 0)"/>
       <use xlink:href="#DejaVuSans-6e" transform="translate(143.359375 0)"/>
       <use xlink:href="#DejaVuSans-69" transform="translate(206.738281 0)"/>
       <use xlink:href="#DejaVuSans-66" transform="translate(234.521484 0)"/>
       <use xlink:href="#DejaVuSans-20" transform="translate(269.726562 0)"/>
       <use xlink:href="#DejaVuSans-64" transform="translate(301.513672 0)"/>
       <use xlink:href="#DejaVuSans-32" transform="translate(364.990234 0)"/>
      </g>
     </g>
    </g>
    <g id="ytick_12">
     <g id="line2d_29">
      <path d="M 53.134 46.023682
L 513.216 46.023682
" clip-path="url(#pc68076282b)" style="fill: none; stroke: #e6e6e6; stroke-width: 0.35; stroke-linecap: square"/>
     </g>
     <g id="line2d_30">
      <path d="M 53.134 46.023682
" style="fill: none; stroke: #333333; stroke-width: 1.5; stroke-linecap: square"/>
      <g>
       <use xlink:href="#m6aef6e59a5" x="53.134" y="46.023682" style="fill: #333333; stroke: #333333"/>
      </g>
     </g>
     <g id="text_15">
      <!-- signif d5 -->
      <g style="fill: #4d4d4d" transform="translate(14.34525 49.063057) scale(0.08 -0.08)">
       <use xlink:href="#DejaVuSans-73"/>
       <use xlink:href="#DejaVuSans-69" transform="translate(52.099609 0)"/>
       <use xlink:href="#DejaVuSans-67" transform="translate(79.882812 0)"/>
       <use xlink:href="#DejaVuSans-6e" transform="translate(143.359375 0)"/>
       <use xlink:href="#DejaVuSans-69" transform="translate(206.738281 0)"/>
       <use xlink:href="#DejaVuSans-66" transform="translate(234.521484 0)"/>
       <use xlink:href="#DejaVuSans-20" transform="translate(269.726562 0)"/>
       <use xlink:href="#DejaVuSans-64" transform="translate(301.513672 0)"/>
       <use xlink:href="#DejaVuSans-35" transform="translate(364.990234 0)"/>
      </g>
     </g>
    </g>
    <g id="ytick_13">
     <g id="line2d_31">
      <path d="M 53.134 20.498881
L 513.216 20.498881
" clip-path="url(#pc68076282b)" style="fill: none; stroke: #e6e6e6; stroke-width: 0.35; stroke-linecap: square"/>
     </g>
     <g id="line2d_32">
      <path d="M 53.134 20.498881
" style="fill: none; stroke: #333333; stroke-width: 1.5; stroke-linecap: square"/>
      <g>
       <use xlink:href="#m6aef6e59a5" x="53.134" y="20.498881" style="fill: #333333; stroke: #333333"/>
      </g>
     </g>
     <g id="text_16">
      <!-- signif d10 -->
      <g style="fill: #4d4d4d" transform="translate(9.25525 23.538256) scale(0.08 -0.08)">
       <use xlink:href="#DejaVuSans-73"/>
       <use xlink:href="#DejaVuSans-69" transform="translate(52.099609 0)"/>
       <use xlink:href="#DejaVuSans-67" transform="translate(79.882812 0)"/>
       <use xlink:href="#DejaVuSans-6e" transform="translate(143.359375 0)"/>
       <use xlink:href="#DejaVuSans-69" transform="translate(206.738281 0)"/>
       <use xlink:href="#DejaVuSans-66" transform="translate(234.521484 0)"/>
       <use xlink:href="#DejaVuSans-20" transform="translate(269.726562 0)"/>
       <use xlink:href="#DejaVuSans-64" transform="translate(301.513672 0)"/>
       <use xlink:href="#DejaVuSans-31" transform="translate(364.990234 0)"/>
       <use xlink:href="#DejaVuSans-30" transform="translate(428.613281 0)"/>
      </g>
     </g>
    </g>
   </g>
   <g id="LineCollection_1">
    <path d="M 166.729119 326.796494
L 272.252905 326.796494
" clip-path="url(#pc68076282b)" style="fill: none; stroke: #004d40; stroke-width: 2.215567"/>
   </g>
   <g id="LineCollection_2">
    <path d="M 393.733368 301.271693
L 453.389545 301.271693
" clip-path="url(#pc68076282b)" style="fill: none; stroke: #004d40; stroke-width: 2.215567"/>
   </g>
   <g id="LineCollection_3">
    <path d="M 342.051256 275.746892
L 408.162578 275.746892
" clip-path="url(#pc68076282b)" style="fill: none; stroke: #004d40; stroke-width: 2.215567"/>
   </g>
   <g id="LineCollection_4">
    <path d="M 355.487715 250.222091
L 409.269464 250.222091
" clip-path="url(#pc68076282b)" style="fill: none; stroke: #004d40; stroke-width: 2.215567"/>
   </g>
   <g id="LineCollection_5">
    <path d="M 346.228418 224.69729
L 406.929108 224.69729
" clip-path="url(#pc68076282b)" style="fill: none; stroke: #004d40; stroke-width: 2.215567"/>
   </g>
   <g id="LineCollection_6">
    <path d="M 434.987149 199.172489
L 476.014567 199.172489
" clip-path="url(#pc68076282b)" style="fill: none; stroke: #004d40; stroke-width: 2.215567"/>
   </g>
   <g id="LineCollection_7">
    <path d="M 403.337922 173.647688
L 450.668988 173.647688
" clip-path="url(#pc68076282b)" style="fill: none; stroke: #004d40; stroke-width: 2.215567"/>
   </g>
   <g id="LineCollection_8">
    <path d="M 405.926211 148.122886
L 451.326632 148.122886
" clip-path="url(#pc68076282b)" style="fill: none; stroke: #004d40; stroke-width: 2.215567"/>
   </g>
   <g id="LineCollection_9">
    <path d="M 433.101163 122.598085
L 492.303182 122.598085
" clip-path="url(#pc68076282b)" style="fill: none; stroke: #004d40; stroke-width: 2.215567"/>
   </g>
   <g id="LineCollection_10">
    <path d="M 125.88149 97.073284
L 163.507535 97.073284
" clip-path="url(#pc68076282b)" style="fill: none; stroke: #004d40; stroke-width: 2.215567"/>
   </g>
   <g id="LineCollection_11">
    <path d="M 114.394119 71.548483
L 156.154379 71.548483
" clip-path="url(#pc68076282b)" style="fill: none; stroke: #004d40; stroke-width: 2.215567"/>
   </g>
   <g id="LineCollection_12">
    <path d="M 112.935331 46.023682
L 157.162724 46.023682
" clip-path="url(#pc68076282b)" style="fill: none; stroke: #004d40; stroke-width: 2.215567"/>
   </g>
   <g id="LineCollection_13">
    <path d="M 112.939115 20.498881
L 151.299468 20.498881
" clip-path="url(#pc68076282b)" style="fill: none; stroke: #004d40; stroke-width: 2.215567"/>
   </g>
   <g id="PathCollection_1">
    <path d="M 201.768912 329.366552
C 202.450499 329.366552 203.104262 329.095755 203.586217 328.6138
C 204.068172 328.131845 204.33897 327.478082 204.33897 326.796494
C 204.33897 326.114907 204.068172 325.461144 203.586217 324.979189
C 203.104262 324.497234 202.450499 324.226436 201.768912 324.226436
C 201.087324 324.226436 200.433561 324.497234 199.951606 324.979189
C 199.469651 325.461144 199.198854 326.114907 199.198854 326.796494
C 199.198854 327.478082 199.469651 328.131845 199.951606 328.6138
C 200.433561 329.095755 201.087324 329.366552 201.768912 329.366552
z
" clip-path="url(#pc68076282b)" style="fill: #d81b60; stroke: #d81b60; stroke-width: 0.886227"/>
    <path d="M 427.616156 303.841751
C 428.297743 303.841751 428.951506 303.570954 429.433461 303.088999
C 429.915416 302.607044 430.186214 301.953281 430.186214 301.271693
C 430.186214 300.590106 429.915416 299.936343 429.433461 299.454388
C 428.951506 298.972433 428.297743 298.701635 427.616156 298.701635
C 426.934568 298.701635 426.280805 298.972433 425.79885 299.454388
C 425.316895 299.936343 425.046097 300.590106 425.046097 301.271693
C 425.046097 301.953281 425.316895 302.607044 425.79885 303.088999
C 426.280805 303.570954 426.934568 303.841751 427.616156 303.841751
z
" clip-path="url(#pc68076282b)" style="fill: #d81b60; stroke: #d81b60; stroke-width: 0.886227"/>
    <path d="M 380.661836 278.31695
C 381.343423 278.31695 381.997186 278.046153 382.479141 277.564198
C 382.961097 277.082242 383.231894 276.428479 383.231894 275.746892
C 383.231894 275.065305 382.961097 274.411542 382.479141 273.929587
C 381.997186 273.447631 381.343423 273.176834 380.661836 273.176834
C 379.980249 273.176834 379.326486 273.447631 378.84453 273.929587
C 378.362575 274.411542 378.091778 275.065305 378.091778 275.746892
C 378.091778 276.428479 378.362575 277.082242 378.84453 277.564198
C 379.326486 278.046153 379.980249 278.31695 380.661836 278.31695
z
" clip-path="url(#pc68076282b)" style="fill: #d81b60; stroke: #d81b60; stroke-width: 0.886227"/>
    <path d="M 384.695026 252.792149
C 385.376614 252.792149 386.030377 252.521351 386.512332 252.039396
C 386.994287 251.557441 387.265084 250.903678 387.265084 250.222091
C 387.265084 249.540504 386.994287 248.88674 386.512332 248.404785
C 386.030377 247.92283 385.376614 247.652033 384.695026 247.652033
C 384.013439 247.652033 383.359676 247.92283 382.877721 248.404785
C 382.395766 248.88674 382.124968 249.540504 382.124968 250.222091
C 382.124968 250.903678 382.395766 251.557441 382.877721 252.039396
C 383.359676 252.521351 384.013439 252.792149 384.695026 252.792149
z
" clip-path="url(#pc68076282b)" style="fill: #d81b60; stroke: #d81b60; stroke-width: 0.886227"/>
    <path d="M 381.530595 227.267348
C 382.212183 227.267348 382.865946 226.99655 383.347901 226.514595
C 383.829856 226.03264 384.100654 225.378877 384.100654 224.69729
C 384.100654 224.015702 383.829856 223.361939 383.347901 222.879984
C 382.865946 222.398029 382.212183 222.127232 381.530595 222.127232
C 380.849008 222.127232 380.195245 222.398029 379.71329 222.879984
C 379.231335 223.361939 378.960537 224.015702 378.960537 224.69729
C 378.960537 225.378877 379.231335 226.03264 379.71329 226.514595
C 380.195245 226.99655 380.849008 227.267348 381.530595 227.267348
z
" clip-path="url(#pc68076282b)" style="fill: #d81b60; stroke: #d81b60; stroke-width: 0.886227"/>
    <path d="M 459.912904 201.742547
C 460.594492 201.742547 461.248255 201.471749 461.73021 200.989794
C 462.212165 200.507839 462.482962 199.854076 462.482962 199.172489
C 462.482962 198.490901 462.212165 197.837138 461.73021 197.355183
C 461.248255 196.873228 460.594492 196.602431 459.912904 196.602431
C 459.231317 196.602431 458.577554 196.873228 458.095599 197.355183
C 457.613644 197.837138 457.342846 198.490901 457.342846 199.172489
C 457.342846 199.854076 457.613644 200.507839 458.095599 200.989794
C 458.577554 201.471749 459.231317 201.742547 459.912904 201.742547
z
" clip-path="url(#pc68076282b)" style="fill: #d81b60; stroke: #d81b60; stroke-width: 0.886227"/>
    <path d="M 431.700155 176.217746
C 432.381743 176.217746 433.035506 175.946948 433.517461 175.464993
C 433.999416 174.983038 434.270213 174.329275 434.270213 173.647688
C 434.270213 172.9661 433.999416 172.312337 433.517461 171.830382
C 433.035506 171.348427 432.381743 171.077629 431.700155 171.077629
C 431.018568 171.077629 430.364805 171.348427 429.88285 171.830382
C 429.400895 172.312337 429.130097 172.9661 429.130097 173.647688
C 429.130097 174.329275 429.400895 174.983038 429.88285 175.464993
C 430.364805 175.946948 431.018568 176.217746 431.700155 176.217746
z
" clip-path="url(#pc68076282b)" style="fill: #d81b60; stroke: #d81b60; stroke-width: 0.886227"/>
    <path d="M 432.687805 150.692944
C 433.369393 150.692944 434.023156 150.422147 434.505111 149.940192
C 434.987066 149.458237 435.257863 148.804474 435.257863 148.122886
C 435.257863 147.441299 434.987066 146.787536 434.505111 146.305581
C 434.023156 145.823626 433.369393 145.552828 432.687805 145.552828
C 432.006218 145.552828 431.352455 145.823626 430.8705 146.305581
C 430.388545 146.787536 430.117747 147.441299 430.117747 148.122886
C 430.117747 148.804474 430.388545 149.458237 430.8705 149.940192
C 431.352455 150.422147 432.006218 150.692944 432.687805 150.692944
z
" clip-path="url(#pc68076282b)" style="fill: #d81b60; stroke: #d81b60; stroke-width: 0.886227"/>
    <path d="M 452.581567 125.168143
C 453.263155 125.168143 453.916918 124.897346 454.398873 124.415391
C 454.880828 123.933436 455.151625 123.279673 455.151625 122.598085
C 455.151625 121.916498 454.880828 121.262735 454.398873 120.78078
C 453.916918 120.298825 453.263155 120.028027 452.581567 120.028027
C 451.89998 120.028027 451.246217 120.298825 450.764262 120.78078
C 450.282307 121.262735 450.011509 121.916498 450.011509 122.598085
C 450.011509 123.279673 450.282307 123.933436 450.764262 124.415391
C 451.246217 124.897346 451.89998 125.168143 452.581567 125.168143
z
" clip-path="url(#pc68076282b)" style="fill: #d81b60; stroke: #d81b60; stroke-width: 0.886227"/>
    <path d="M 145.815769 99.643342
C 146.497356 99.643342 147.151119 99.372545 147.633074 98.89059
C 148.115029 98.408635 148.385827 97.754871 148.385827 97.073284
C 148.385827 96.391697 148.115029 95.737934 147.633074 95.255979
C 147.151119 94.774024 146.497356 94.503226 145.815769 94.503226
C 145.134181 94.503226 144.480418 94.774024 143.998463 95.255979
C 143.516508 95.737934 143.245711 96.391697 143.245711 97.073284
C 143.245711 97.754871 143.516508 98.408635 143.998463 98.89059
C 144.480418 99.372545 145.134181 99.643342 145.815769 99.643342
z
" clip-path="url(#pc68076282b)" style="fill: #d81b60; stroke: #d81b60; stroke-width: 0.886227"/>
    <path d="M 135.316414 74.118541
C 135.998001 74.118541 136.651765 73.847744 137.13372 73.365788
C 137.615675 72.883833 137.886472 72.23007 137.886472 71.548483
C 137.886472 70.866896 137.615675 70.213133 137.13372 69.731177
C 136.651765 69.249222 135.998001 68.978425 135.316414 68.978425
C 134.634827 68.978425 133.981064 69.249222 133.499109 69.731177
C 133.017154 70.213133 132.746356 70.866896 132.746356 71.548483
C 132.746356 72.23007 133.017154 72.883833 133.499109 73.365788
C 133.981064 73.847744 134.634827 74.118541 135.316414 74.118541
z
" clip-path="url(#pc68076282b)" style="fill: #d81b60; stroke: #d81b60; stroke-width: 0.886227"/>
    <path d="M 137.267952 48.59374
C 137.94954 48.59374 138.603303 48.322942 139.085258 47.840987
C 139.567213 47.359032 139.83801 46.705269 139.83801 46.023682
C 139.83801 45.342094 139.567213 44.688331 139.085258 44.206376
C 138.603303 43.724421 137.94954 43.453624 137.267952 43.453624
C 136.586365 43.453624 135.932602 43.724421 135.450647 44.206376
C 134.968692 44.688331 134.697894 45.342094 134.697894 46.023682
C 134.697894 46.705269 134.968692 47.359032 135.450647 47.840987
C 135.932602 48.322942 136.586365 48.59374 137.267952 48.59374
z
" clip-path="url(#pc68076282b)" style="fill: #d81b60; stroke: #d81b60; stroke-width: 0.886227"/>
    <path d="M 136.070771 23.068939
C 136.752358 23.068939 137.406121 22.798141 137.888077 22.316186
C 138.370032 21.834231 138.640829 21.180468 138.640829 20.498881
C 138.640829 19.817293 138.370032 19.16353 137.888077 18.681575
C 137.406121 18.19962 136.752358 17.928823 136.070771 17.928823
C 135.389184 17.928823 134.735421 18.19962 134.253466 18.681575
C 133.77151 19.16353 133.500713 19.817293 133.500713 20.498881
C 133.500713 21.180468 133.77151 21.834231 134.253466 22.316186
C 134.735421 22.798141 135.389184 23.068939 136.070771 23.068939
z
" clip-path="url(#pc68076282b)" style="fill: #d81b60; stroke: #d81b60; stroke-width: 0.886227"/>
   </g>
   <g id="PathCollection_2">
    <path d="M 454.696884 199.711103
C 455.213951 199.711103 455.709909 199.50567 456.07553 199.140049
C 456.441151 198.774428 456.646584 198.27847 456.646584 197.761404
C 456.646584 197.244337 456.441151 196.748379 456.07553 196.382758
C 455.709909 196.017137 455.213951 195.811705 454.696884 195.811705
C 454.179818 195.811705 453.68386 196.017137 453.318239 196.382758
C 452.952618 196.748379 452.747185 197.244337 452.747185 197.761404
C 452.747185 198.27847 452.952618 198.774428 453.318239 199.140049
C 453.68386 199.50567 454.179818 199.711103 454.696884 199.711103
z
" clip-path="url(#pc68076282b)" style="fill: #ff655d; fill-opacity: 0.678431; stroke: #ff655d; stroke-opacity: 0.678431; stroke-width: 0.886227"/>
    <path d="M 428.137469 175.268778
C 428.654535 175.268778 429.150494 175.063345 429.516115 174.697724
C 429.881736 174.332103 430.087168 173.836145 430.087168 173.319078
C 430.087168 172.802012 429.881736 172.306054 429.516115 171.940433
C 429.150494 171.574812 428.654535 171.369379 428.137469 171.369379
C 427.620403 171.369379 427.124445 171.574812 426.758824 171.940433
C 426.393203 172.306054 426.18777 172.802012 426.18777 173.319078
C 426.18777 173.836145 426.393203 174.332103 426.758824 174.697724
C 427.124445 175.063345 427.620403 175.268778 428.137469 175.268778
z
" clip-path="url(#pc68076282b)" style="fill: #ff655d; fill-opacity: 0.678431; stroke: #ff655d; stroke-opacity: 0.678431; stroke-width: 0.886227"/>
    <path d="M 426.072454 152.488975
C 426.58952 152.488975 427.085478 152.283543 427.451099 151.917922
C 427.81672 151.5523 428.022153 151.056342 428.022153 150.539276
C 428.022153 150.02221 427.81672 149.526252 427.451099 149.16063
C 427.085478 148.795009 426.58952 148.589577 426.072454 148.589577
C 425.555388 148.589577 425.059429 148.795009 424.693808 149.16063
C 424.328187 149.526252 424.122755 150.02221 424.122755 150.539276
C 424.122755 151.056342 424.328187 151.5523 424.693808 151.917922
C 425.059429 152.283543 425.555388 152.488975 426.072454 152.488975
z
" clip-path="url(#pc68076282b)" style="fill: #ff655d; fill-opacity: 0.678431; stroke: #ff655d; stroke-opacity: 0.678431; stroke-width: 0.886227"/>
    <path d="M 433.101163 123.438515
C 433.61823 123.438515 434.114188 123.233082 434.479809 122.867461
C 434.84543 122.50184 435.050863 122.005882 435.050863 121.488816
C 435.050863 120.97175 434.84543 120.475791 434.479809 120.11017
C 434.114188 119.744549 433.61823 119.539117 433.101163 119.539117
C 432.584097 119.539117 432.088139 119.744549 431.722518 120.11017
C 431.356897 120.475791 431.151464 120.97175 431.151464 121.488816
C 431.151464 122.005882 431.356897 122.50184 431.722518 122.867461
C 432.088139 123.233082 432.584097 123.438515 433.101163 123.438515
z
" clip-path="url(#pc68076282b)" style="fill: #ff655d; fill-opacity: 0.678431; stroke: #ff655d; stroke-opacity: 0.678431; stroke-width: 0.886227"/>
    <path d="M 411.339735 304.877765
C 411.856801 304.877765 412.352759 304.672333 412.71838 304.306712
C 413.084002 303.941091 413.289434 303.445132 413.289434 302.928066
C 413.289434 302.411 413.084002 301.915042 412.71838 301.549421
C 412.352759 301.183799 411.856801 300.978367 411.339735 300.978367
C 410.822669 300.978367 410.32671 301.183799 409.961089 301.549421
C 409.595468 301.915042 409.390036 302.411 409.390036 302.928066
C 409.390036 303.445132 409.595468 303.941091 409.961089 304.306712
C 410.32671 304.672333 410.822669 304.877765 411.339735 304.877765
z
" clip-path="url(#pc68076282b)" style="fill: #ff655d; fill-opacity: 0.678431; stroke: #ff655d; stroke-opacity: 0.678431; stroke-width: 0.886227"/>
    <path d="M 365.084341 275.44711
C 365.601407 275.44711 366.097365 275.241677 366.462986 274.876056
C 366.828607 274.510435 367.03404 274.014477 367.03404 273.49741
C 367.03404 272.980344 366.828607 272.484386 366.462986 272.118765
C 366.097365 271.753144 365.601407 271.547711 365.084341 271.547711
C 364.567274 271.547711 364.071316 271.753144 363.705695 272.118765
C 363.340074 272.484386 363.134641 272.980344 363.134641 273.49741
C 363.134641 274.014477 363.340074 274.510435 363.705695 274.876056
C 364.071316 275.241677 364.567274 275.44711 365.084341 275.44711
z
" clip-path="url(#pc68076282b)" style="fill: #ff655d; fill-opacity: 0.678431; stroke: #ff655d; stroke-opacity: 0.678431; stroke-width: 0.886227"/>
    <path d="M 366.74131 252.59539
C 367.258377 252.59539 367.754335 252.389958 368.119956 252.024337
C 368.485577 251.658716 368.691009 251.162757 368.691009 250.645691
C 368.691009 250.128625 368.485577 249.632667 368.119956 249.267046
C 367.754335 248.901424 367.258377 248.695992 366.74131 248.695992
C 366.224244 248.695992 365.728286 248.901424 365.362665 249.267046
C 364.997044 249.632667 364.791611 250.128625 364.791611 250.645691
C 364.791611 251.162757 364.997044 251.658716 365.362665 252.024337
C 365.728286 252.389958 366.224244 252.59539 366.74131 252.59539
z
" clip-path="url(#pc68076282b)" style="fill: #ff655d; fill-opacity: 0.678431; stroke: #ff655d; stroke-opacity: 0.678431; stroke-width: 0.886227"/>
    <path d="M 368.962289 228.657891
C 369.479355 228.657891 369.975313 228.452458 370.340934 228.086837
C 370.706555 227.721216 370.911988 227.225258 370.911988 226.708191
C 370.911988 226.191125 370.706555 225.695167 370.340934 225.329546
C 369.975313 224.963925 369.479355 224.758492 368.962289 224.758492
C 368.445223 224.758492 367.949264 224.963925 367.583643 225.329546
C 367.218022 225.695167 367.01259 226.191125 367.01259 226.708191
C 367.01259 227.225258 367.218022 227.721216 367.583643 228.086837
C 367.949264 228.452458 368.445223 228.657891 368.962289 228.657891
z
" clip-path="url(#pc68076282b)" style="fill: #ff655d; fill-opacity: 0.678431; stroke: #ff655d; stroke-opacity: 0.678431; stroke-width: 0.886227"/>
    <path d="M 272.252905 328.735056
C 272.769971 328.735056 273.265929 328.529623 273.63155 328.164002
C 273.997171 327.798381 274.202604 327.302423 274.202604 326.785356
C 274.202604 326.26829 273.997171 325.772332 273.63155 325.406711
C 273.265929 325.04109 272.769971 324.835657 272.252905 324.835657
C 271.735838 324.835657 271.23988 325.04109 270.874259 325.406711
C 270.508638 325.772332 270.303205 326.26829 270.303205 326.785356
C 270.303205 327.302423 270.508638 327.798381 270.874259 328.164002
C 271.23988 328.529623 271.735838 328.735056 272.252905 328.735056
z
" clip-path="url(#pc68076282b)" style="fill: #ff655d; fill-opacity: 0.678431; stroke: #ff655d; stroke-opacity: 0.678431; stroke-width: 0.886227"/>
    <path d="M 142.598389 101.316884
C 143.115456 101.316884 143.611414 101.111451 143.977035 100.74583
C 144.342656 100.380209 144.548089 99.884251 144.548089 99.367184
C 144.548089 98.850118 144.342656 98.35416 143.977035 97.988539
C 143.611414 97.622918 143.115456 97.417485 142.598389 97.417485
C 142.081323 97.417485 141.585365 97.622918 141.219744 97.988539
C 140.854123 98.35416 140.64869 98.850118 140.64869 99.367184
C 140.64869 99.884251 140.854123 100.380209 141.219744 100.74583
C 141.585365 101.111451 142.081323 101.316884 142.598389 101.316884
z
" clip-path="url(#pc68076282b)" style="fill: #ff655d; fill-opacity: 0.678431; stroke: #ff655d; stroke-opacity: 0.678431; stroke-width: 0.886227"/>
    <path d="M 125.927993 74.077585
C 126.44506 74.077585 126.941018 73.872152 127.306639 73.506531
C 127.67226 73.14091 127.877693 72.644952 127.877693 72.127886
C 127.877693 71.610819 127.67226 71.114861 127.306639 70.74924
C 126.941018 70.383619 126.44506 70.178186 125.927993 70.178186
C 125.410927 70.178186 124.914969 70.383619 124.549348 70.74924
C 124.183727 71.114861 123.978294 71.610819 123.978294 72.127886
C 123.978294 72.644952 124.183727 73.14091 124.549348 73.506531
C 124.914969 73.872152 125.410927 74.077585 125.927993 74.077585
z
" clip-path="url(#pc68076282b)" style="fill: #ff655d; fill-opacity: 0.678431; stroke: #ff655d; stroke-opacity: 0.678431; stroke-width: 0.886227"/>
    <path d="M 128.128387 47.40988
C 128.645453 47.40988 129.141411 47.204447 129.507032 46.838826
C 129.872653 46.473205 130.078086 45.977247 130.078086 45.46018
C 130.078086 44.943114 129.872653 44.447156 129.507032 44.081535
C 129.141411 43.715914 128.645453 43.510481 128.128387 43.510481
C 127.61132 43.510481 127.115362 43.715914 126.749741 44.081535
C 126.38412 44.447156 126.178688 44.943114 126.178688 45.46018
C 126.178688 45.977247 126.38412 46.473205 126.749741 46.838826
C 127.115362 47.204447 127.61132 47.40988 128.128387 47.40988
z
" clip-path="url(#pc68076282b)" style="fill: #ff655d; fill-opacity: 0.678431; stroke: #ff655d; stroke-opacity: 0.678431; stroke-width: 0.886227"/>
    <path d="M 132.237645 22.710042
C 132.754711 22.710042 133.250669 22.50461 133.61629 22.138989
C 133.981911 21.773368 134.187344 21.27741 134.187344 20.760343
C 134.187344 20.243277 133.981911 19.747319 133.61629 19.381698
C 133.250669 19.016077 132.754711 18.810644 132.237645 18.810644
C 131.720579 18.810644 131.22462 19.016077 130.858999 19.381698
C 130.493378 19.747319 130.287946 20.243277 130.287946 20.760343
C 130.287946 21.27741 130.493378 21.773368 130.858999 22.138989
C 131.22462 22.50461 131.720579 22.710042 132.237645 22.710042
z
" clip-path="url(#pc68076282b)" style="fill: #ff655d; fill-opacity: 0.678431; stroke: #ff655d; stroke-opacity: 0.678431; stroke-width: 0.886227"/>
    <path d="M 473.953016 198.740832
C 474.470083 198.740832 474.966041 198.535399 475.331662 198.169778
C 475.697283 197.804157 475.902715 197.308199 475.902715 196.791133
C 475.902715 196.274067 475.697283 195.778108 475.331662 195.412487
C 474.966041 195.046866 474.470083 194.841434 473.953016 194.841434
C 473.43595 194.841434 472.939992 195.046866 472.574371 195.412487
C 472.20875 195.778108 472.003317 196.274067 472.003317 196.791133
C 472.003317 197.308199 472.20875 197.804157 472.574371 198.169778
C 472.939992 198.535399 473.43595 198.740832 473.953016 198.740832
z
" clip-path="url(#pc68076282b)" style="fill: #ff655d; fill-opacity: 0.678431; stroke: #ff655d; stroke-opacity: 0.678431; stroke-width: 0.886227"/>
    <path d="M 444.656241 176.587331
C 445.173308 176.587331 445.669266 176.381898 446.034887 176.016277
C 446.400508 175.650656 446.605941 175.154698 446.605941 174.637632
C 446.605941 174.120566 446.400508 173.624607 446.034887 173.258986
C 445.669266 172.893365 445.173308 172.687933 444.656241 172.687933
C 444.139175 172.687933 443.643217 172.893365 443.277596 173.258986
C 442.911975 173.624607 442.706542 174.120566 442.706542 174.637632
C 442.706542 175.154698 442.911975 175.650656 443.277596 176.016277
C 443.643217 176.381898 444.139175 176.587331 444.656241 176.587331
z
" clip-path="url(#pc68076282b)" style="fill: #ff655d; fill-opacity: 0.678431; stroke: #ff655d; stroke-opacity: 0.678431; stroke-width: 0.886227"/>
    <path d="M 447.425924 150.897878
C 447.94299 150.897878 448.438949 150.692446 448.80457 150.326825
C 449.170191 149.961204 449.375623 149.465245 449.375623 148.948179
C 449.375623 148.431113 449.170191 147.935155 448.80457 147.569534
C 448.438949 147.203913 447.94299 146.99848 447.425924 146.99848
C 446.908858 146.99848 446.4129 147.203913 446.047279 147.569534
C 445.681657 147.935155 445.476225 148.431113 445.476225 148.948179
C 445.476225 149.465245 445.681657 149.961204 446.047279 150.326825
C 446.4129 150.692446 446.908858 150.897878 447.425924 150.897878
z
" clip-path="url(#pc68076282b)" style="fill: #ff655d; fill-opacity: 0.678431; stroke: #ff655d; stroke-opacity: 0.678431; stroke-width: 0.886227"/>
    <path d="M 447.618546 123.251876
C 448.135612 123.251876 448.63157 123.046443 448.997191 122.680822
C 449.362813 122.315201 449.568245 121.819243 449.568245 121.302176
C 449.568245 120.78511 449.362813 120.289152 448.997191 119.923531
C 448.63157 119.55791 448.135612 119.352477 447.618546 119.352477
C 447.10148 119.352477 446.605521 119.55791 446.2399 119.923531
C 445.874279 120.289152 445.668847 120.78511 445.668847 121.302176
C 445.668847 121.819243 445.874279 122.315201 446.2399 122.680822
C 446.605521 123.046443 447.10148 123.251876 447.618546 123.251876
z
" clip-path="url(#pc68076282b)" style="fill: #ff655d; fill-opacity: 0.678431; stroke: #ff655d; stroke-opacity: 0.678431; stroke-width: 0.886227"/>
    <path d="M 452.001974 300.767819
C 452.51904 300.767819 453.014999 300.562387 453.38062 300.196766
C 453.746241 299.831144 453.951673 299.335186 453.951673 298.81812
C 453.951673 298.301054 453.746241 297.805095 453.38062 297.439474
C 453.014999 297.073853 452.51904 296.868421 452.001974 296.868421
C 451.484908 296.868421 450.98895 297.073853 450.623329 297.439474
C 450.257708 297.805095 450.052275 298.301054 450.052275 298.81812
C 450.052275 299.335186 450.257708 299.831144 450.623329 300.196766
C 450.98895 300.562387 451.484908 300.767819 452.001974 300.767819
z
" clip-path="url(#pc68076282b)" style="fill: #ff655d; fill-opacity: 0.678431; stroke: #ff655d; stroke-opacity: 0.678431; stroke-width: 0.886227"/>
    <path d="M 407.34917 276.810509
C 407.866236 276.810509 408.362194 276.605077 408.727815 276.239456
C 409.093437 275.873835 409.298869 275.377876 409.298869 274.86081
C 409.298869 274.343744 409.093437 273.847786 408.727815 273.482165
C 408.362194 273.116543 407.866236 272.911111 407.34917 272.911111
C 406.832104 272.911111 406.336145 273.116543 405.970524 273.482165
C 405.604903 273.847786 405.399471 274.343744 405.399471 274.86081
C 405.399471 275.377876 405.604903 275.873835 405.970524 276.239456
C 406.336145 276.605077 406.832104 276.810509 407.34917 276.810509
z
" clip-path="url(#pc68076282b)" style="fill: #ff655d; fill-opacity: 0.678431; stroke: #ff655d; stroke-opacity: 0.678431; stroke-width: 0.886227"/>
    <path d="M 407.281616 252.345281
C 407.798682 252.345281 408.29464 252.139849 408.660261 251.774227
C 409.025882 251.408606 409.231315 250.912648 409.231315 250.395582
C 409.231315 249.878516 409.025882 249.382557 408.660261 249.016936
C 408.29464 248.651315 407.798682 248.445883 407.281616 248.445883
C 406.764549 248.445883 406.268591 248.651315 405.90297 249.016936
C 405.537349 249.382557 405.331916 249.878516 405.331916 250.395582
C 405.331916 250.912648 405.537349 251.408606 405.90297 251.774227
C 406.268591 252.139849 406.764549 252.345281 407.281616 252.345281
z
" clip-path="url(#pc68076282b)" style="fill: #ff655d; fill-opacity: 0.678431; stroke: #ff655d; stroke-opacity: 0.678431; stroke-width: 0.886227"/>
    <path d="M 406.929108 224.756359
C 407.446174 224.756359 407.942133 224.550927 408.307754 224.185305
C 408.673375 223.819684 408.878807 223.323726 408.878807 222.80666
C 408.878807 222.289594 408.673375 221.793635 408.307754 221.428014
C 407.942133 221.062393 407.446174 220.856961 406.929108 220.856961
C 406.412042 220.856961 405.916084 221.062393 405.550463 221.428014
C 405.184842 221.793635 404.979409 222.289594 404.979409 222.80666
C 404.979409 223.323726 405.184842 223.819684 405.550463 224.185305
C 405.916084 224.550927 406.412042 224.756359 406.929108 224.756359
z
" clip-path="url(#pc68076282b)" style="fill: #ff655d; fill-opacity: 0.678431; stroke: #ff655d; stroke-opacity: 0.678431; stroke-width: 0.886227"/>
    <path d="M 170.118221 329.653738
C 170.635288 329.653738 171.131246 329.448305 171.496867 329.082684
C 171.862488 328.717063 172.067921 328.221105 172.067921 327.704038
C 172.067921 327.186972 171.862488 326.691014 171.496867 326.325393
C 171.131246 325.959772 170.635288 325.754339 170.118221 325.754339
C 169.601155 325.754339 169.105197 325.959772 168.739576 326.325393
C 168.373955 326.691014 168.168522 327.186972 168.168522 327.704038
C 168.168522 328.221105 168.373955 328.717063 168.739576 329.082684
C 169.105197 329.448305 169.601155 329.653738 170.118221 329.653738
z
" clip-path="url(#pc68076282b)" style="fill: #ff655d; fill-opacity: 0.678431; stroke: #ff655d; stroke-opacity: 0.678431; stroke-width: 0.886227"/>
    <path d="M 163.507535 101.309851
C 164.024602 101.309851 164.52056 101.104418 164.886181 100.738797
C 165.251802 100.373176 165.457234 99.877218 165.457234 99.360152
C 165.457234 98.843085 165.251802 98.347127 164.886181 97.981506
C 164.52056 97.615885 164.024602 97.410453 163.507535 97.410453
C 162.990469 97.410453 162.494511 97.615885 162.12889 97.981506
C 161.763269 98.347127 161.557836 98.843085 161.557836 99.360152
C 161.557836 99.877218 161.763269 100.373176 162.12889 100.738797
C 162.494511 101.104418 162.990469 101.309851 163.507535 101.309851
z
" clip-path="url(#pc68076282b)" style="fill: #ff655d; fill-opacity: 0.678431; stroke: #ff655d; stroke-opacity: 0.678431; stroke-width: 0.886227"/>
    <path d="M 156.154379 76.457652
C 156.671445 76.457652 157.167403 76.252219 157.533025 75.886598
C 157.898646 75.520977 158.104078 75.025019 158.104078 74.507953
C 158.104078 73.990886 157.898646 73.494928 157.533025 73.129307
C 157.167403 72.763686 156.671445 72.558253 156.154379 72.558253
C 155.637313 72.558253 155.141355 72.763686 154.775733 73.129307
C 154.410112 73.494928 154.20468 73.990886 154.20468 74.507953
C 154.20468 75.025019 154.410112 75.520977 154.775733 75.886598
C 155.141355 76.252219 155.637313 76.457652 156.154379 76.457652
z
" clip-path="url(#pc68076282b)" style="fill: #ff655d; fill-opacity: 0.678431; stroke: #ff655d; stroke-opacity: 0.678431; stroke-width: 0.886227"/>
    <path d="M 157.162724 50.834175
C 157.679791 50.834175 158.175749 50.628742 158.54137 50.263121
C 158.906991 49.8975 159.112424 49.401542 159.112424 48.884475
C 159.112424 48.367409 158.906991 47.871451 158.54137 47.50583
C 158.175749 47.140209 157.679791 46.934776 157.162724 46.934776
C 156.645658 46.934776 156.1497 47.140209 155.784079 47.50583
C 155.418458 47.871451 155.213025 48.367409 155.213025 48.884475
C 155.213025 49.401542 155.418458 49.8975 155.784079 50.263121
C 156.1497 50.628742 156.645658 50.834175 157.162724 50.834175
z
" clip-path="url(#pc68076282b)" style="fill: #ff655d; fill-opacity: 0.678431; stroke: #ff655d; stroke-opacity: 0.678431; stroke-width: 0.886227"/>
    <path d="M 151.299468 25.456083
C 151.816534 25.456083 152.312492 25.25065 152.678113 24.885029
C 153.043734 24.519408 153.249167 24.02345 153.249167 23.506384
C 153.249167 22.989317 153.043734 22.493359 152.678113 22.127738
C 152.312492 21.762117 151.816534 21.556684 151.299468 21.556684
C 150.782401 21.556684 150.286443 21.762117 149.920822 22.127738
C 149.555201 22.493359 149.349768 22.989317 149.349768 23.506384
C 149.349768 24.02345 149.555201 24.519408 149.920822 24.885029
C 150.286443 25.25065 150.782401 25.456083 151.299468 25.456083
z
" clip-path="url(#pc68076282b)" style="fill: #ff655d; fill-opacity: 0.678431; stroke: #ff655d; stroke-opacity: 0.678431; stroke-width: 0.886227"/>
    <path d="M 434.987149 203.81907
C 435.504215 203.81907 436.000173 203.613638 436.365795 203.248017
C 436.731416 202.882395 436.936848 202.386437 436.936848 201.869371
C 436.936848 201.352305 436.731416 200.856347 436.365795 200.490725
C 436.000173 200.125104 435.504215 199.919672 434.987149 199.919672
C 434.470083 199.919672 433.974125 200.125104 433.608503 200.490725
C 433.242882 200.856347 433.03745 201.352305 433.03745 201.869371
C 433.03745 202.386437 433.242882 202.882395 433.608503 203.248017
C 433.974125 203.613638 434.470083 203.81907 434.987149 203.81907
z
" clip-path="url(#pc68076282b)" style="fill: #ff655d; fill-opacity: 0.678431; stroke: #ff655d; stroke-opacity: 0.678431; stroke-width: 0.886227"/>
    <path d="M 403.337922 178.575162
C 403.854989 178.575162 404.350947 178.36973 404.716568 178.004109
C 405.082189 177.638488 405.287622 177.142529 405.287622 176.625463
C 405.287622 176.108397 405.082189 175.612439 404.716568 175.246818
C 404.350947 174.881197 403.854989 174.675764 403.337922 174.675764
C 402.820856 174.675764 402.324898 174.881197 401.959277 175.246818
C 401.593656 175.612439 401.388223 176.108397 401.388223 176.625463
C 401.388223 177.142529 401.593656 177.638488 401.959277 178.004109
C 402.324898 178.36973 402.820856 178.575162 403.337922 178.575162
z
" clip-path="url(#pc68076282b)" style="fill: #ff655d; fill-opacity: 0.678431; stroke: #ff655d; stroke-opacity: 0.678431; stroke-width: 0.886227"/>
    <path d="M 405.926211 148.203633
C 406.443277 148.203633 406.939236 147.9982 407.304857 147.632579
C 407.670478 147.266958 407.87591 146.771 407.87591 146.253934
C 407.87591 145.736867 407.670478 145.240909 407.304857 144.875288
C 406.939236 144.509667 406.443277 144.304234 405.926211 144.304234
C 405.409145 144.304234 404.913187 144.509667 404.547566 144.875288
C 404.181944 145.240909 403.976512 145.736867 403.976512 146.253934
C 403.976512 146.771 404.181944 147.266958 404.547566 147.632579
C 404.913187 147.9982 405.409145 148.203633 405.926211 148.203633
z
" clip-path="url(#pc68076282b)" style="fill: #ff655d; fill-opacity: 0.678431; stroke: #ff655d; stroke-opacity: 0.678431; stroke-width: 0.886227"/>
    <path d="M 492.303182 127.437373
C 492.820248 127.437373 493.316206 127.23194 493.681827 126.866319
C 494.047448 126.500698 494.252881 126.00474 494.252881 125.487673
C 494.252881 124.970607 494.047448 124.474649 493.681827 124.109028
C 493.316206 123.743407 492.820248 123.537974 492.303182 123.537974
C 491.786116 123.537974 491.290157 123.743407 490.924536 124.109028
C 490.558915 124.474649 490.353483 124.970607 490.353483 125.487673
C 490.353483 126.00474 490.558915 126.500698 490.924536 126.866319
C 491.290157 127.23194 491.786116 127.437373 492.303182 127.437373
z
" clip-path="url(#pc68076282b)" style="fill: #ff655d; fill-opacity: 0.678431; stroke: #ff655d; stroke-opacity: 0.678431; stroke-width: 0.886227"/>
    <path d="M 393.733368 304.899257
C 394.250434 304.899257 394.746392 304.693824 395.112013 304.328203
C 395.477634 303.962582 395.683067 303.466624 395.683067 302.949558
C 395.683067 302.432491 395.477634 301.936533 395.112013 301.570912
C 394.746392 301.205291 394.250434 300.999858 393.733368 300.999858
C 393.216301 300.999858 392.720343 301.205291 392.354722 301.570912
C 391.989101 301.936533 391.783668 302.432491 391.783668 302.949558
C 391.783668 303.466624 391.989101 303.962582 392.354722 304.328203
C 392.720343 304.693824 393.216301 304.899257 393.733368 304.899257
z
" clip-path="url(#pc68076282b)" style="fill: #ff655d; fill-opacity: 0.678431; stroke: #ff655d; stroke-opacity: 0.678431; stroke-width: 0.886227"/>
    <path d="M 342.051256 278.696928
C 342.568322 278.696928 343.06428 278.491495 343.429901 278.125874
C 343.795522 277.760253 344.000955 277.264295 344.000955 276.747229
C 344.000955 276.230162 343.795522 275.734204 343.429901 275.368583
C 343.06428 275.002962 342.568322 274.797529 342.051256 274.797529
C 341.534189 274.797529 341.038231 275.002962 340.67261 275.368583
C 340.306989 275.734204 340.101556 276.230162 340.101556 276.747229
C 340.101556 277.264295 340.306989 277.760253 340.67261 278.125874
C 341.038231 278.491495 341.534189 278.696928 342.051256 278.696928
z
" clip-path="url(#pc68076282b)" style="fill: #ff655d; fill-opacity: 0.678431; stroke: #ff655d; stroke-opacity: 0.678431; stroke-width: 0.886227"/>
    <path d="M 355.487715 251.879612
C 356.004781 251.879612 356.500739 251.674179 356.86636 251.308558
C 357.231981 250.942937 357.437414 250.446979 357.437414 249.929913
C 357.437414 249.412846 357.231981 248.916888 356.86636 248.551267
C 356.500739 248.185646 356.004781 247.980213 355.487715 247.980213
C 354.970649 247.980213 354.47469 248.185646 354.109069 248.551267
C 353.743448 248.916888 353.538016 249.412846 353.538016 249.929913
C 353.538016 250.446979 353.743448 250.942937 354.109069 251.308558
C 354.47469 251.674179 354.970649 251.879612 355.487715 251.879612
z
" clip-path="url(#pc68076282b)" style="fill: #ff655d; fill-opacity: 0.678431; stroke: #ff655d; stroke-opacity: 0.678431; stroke-width: 0.886227"/>
    <path d="M 346.228418 228.646316
C 346.745484 228.646316 347.241442 228.440883 347.607064 228.075262
C 347.972685 227.709641 348.178117 227.213683 348.178117 226.696617
C 348.178117 226.179551 347.972685 225.683592 347.607064 225.317971
C 347.241442 224.95235 346.745484 224.746918 346.228418 224.746918
C 345.711352 224.746918 345.215394 224.95235 344.849772 225.317971
C 344.484151 225.683592 344.278719 226.179551 344.278719 226.696617
C 344.278719 227.213683 344.484151 227.709641 344.849772 228.075262
C 345.215394 228.440883 345.711352 228.646316 346.228418 228.646316
z
" clip-path="url(#pc68076282b)" style="fill: #ff655d; fill-opacity: 0.678431; stroke: #ff655d; stroke-opacity: 0.678431; stroke-width: 0.886227"/>
    <path d="M 197.975402 331.587296
C 198.492468 331.587296 198.988426 331.381863 199.354048 331.016242
C 199.719669 330.650621 199.925101 330.154663 199.925101 329.637597
C 199.925101 329.12053 199.719669 328.624572 199.354048 328.258951
C 198.988426 327.89333 198.492468 327.687898 197.975402 327.687898
C 197.458336 327.687898 196.962377 327.89333 196.596756 328.258951
C 196.231135 328.624572 196.025703 329.12053 196.025703 329.637597
C 196.025703 330.154663 196.231135 330.650621 196.596756 331.016242
C 196.962377 331.381863 197.458336 331.587296 197.975402 331.587296
z
" clip-path="url(#pc68076282b)" style="fill: #ff655d; fill-opacity: 0.678431; stroke: #ff655d; stroke-opacity: 0.678431; stroke-width: 0.886227"/>
    <path d="M 125.88149 97.423765
C 126.398556 97.423765 126.894515 97.218333 127.260136 96.852712
C 127.625757 96.48709 127.831189 95.991132 127.831189 95.474066
C 127.831189 94.957 127.625757 94.461042 127.260136 94.09542
C 126.894515 93.729799 126.398556 93.524367 125.88149 93.524367
C 125.364424 93.524367 124.868466 93.729799 124.502845 94.09542
C 124.137224 94.461042 123.931791 94.957 123.931791 95.474066
C 123.931791 95.991132 124.137224 96.48709 124.502845 96.852712
C 124.868466 97.218333 125.364424 97.423765 125.88149 97.423765
z
" clip-path="url(#pc68076282b)" style="fill: #ff655d; fill-opacity: 0.678431; stroke: #ff655d; stroke-opacity: 0.678431; stroke-width: 0.886227"/>
    <path d="M 114.394119 75.458399
C 114.911185 75.458399 115.407143 75.252966 115.772764 74.887345
C 116.138385 74.521724 116.343818 74.025766 116.343818 73.508699
C 116.343818 72.991633 116.138385 72.495675 115.772764 72.130054
C 115.407143 71.764433 114.911185 71.559 114.394119 71.559
C 113.877052 71.559 113.381094 71.764433 113.015473 72.130054
C 112.649852 72.495675 112.444419 72.991633 112.444419 73.508699
C 112.444419 74.025766 112.649852 74.521724 113.015473 74.887345
C 113.381094 75.252966 113.877052 75.458399 114.394119 75.458399
z
" clip-path="url(#pc68076282b)" style="fill: #ff655d; fill-opacity: 0.678431; stroke: #ff655d; stroke-opacity: 0.678431; stroke-width: 0.886227"/>
    <path d="M 112.935331 45.710224
C 113.452397 45.710224 113.948355 45.504791 114.313977 45.13917
C 114.679598 44.773549 114.88503 44.277591 114.88503 43.760525
C 114.88503 43.243458 114.679598 42.7475 114.313977 42.381879
C 113.948355 42.016258 113.452397 41.810826 112.935331 41.810826
C 112.418265 41.810826 111.922307 42.016258 111.556685 42.381879
C 111.191064 42.7475 110.985632 43.243458 110.985632 43.760525
C 110.985632 44.277591 111.191064 44.773549 111.556685 45.13917
C 111.922307 45.504791 112.418265 45.710224 112.935331 45.710224
z
" clip-path="url(#pc68076282b)" style="fill: #ff655d; fill-opacity: 0.678431; stroke: #ff655d; stroke-opacity: 0.678431; stroke-width: 0.886227"/>
    <path d="M 112.939115 25.27501
C 113.456182 25.27501 113.95214 25.069577 114.317761 24.703956
C 114.683382 24.338335 114.888815 23.842377 114.888815 23.325311
C 114.888815 22.808244 114.683382 22.312286 114.317761 21.946665
C 113.95214 21.581044 113.456182 21.375611 112.939115 21.375611
C 112.422049 21.375611 111.926091 21.581044 111.56047 21.946665
C 111.194849 22.312286 110.989416 22.808244 110.989416 23.325311
C 110.989416 23.842377 111.194849 24.338335 111.56047 24.703956
C 111.926091 25.069577 112.422049 25.27501 112.939115 25.27501
z
" clip-path="url(#pc68076282b)" style="fill: #ff655d; fill-opacity: 0.678431; stroke: #ff655d; stroke-opacity: 0.678431; stroke-width: 0.886227"/>
    <path d="M 476.014567 201.481255
C 476.531633 201.481255 477.027592 201.275822 477.393213 200.910201
C 477.758834 200.54458 477.964266 200.048622 477.964266 199.531556
C 477.964266 199.01449 477.758834 198.518531 477.393213 198.15291
C 477.027592 197.787289 476.531633 197.581857 476.014567 197.581857
C 475.497501 197.581857 475.001543 197.787289 474.635922 198.15291
C 474.2703 198.518531 474.064868 199.01449 474.064868 199.531556
C 474.064868 200.048622 474.2703 200.54458 474.635922 200.910201
C 475.001543 201.275822 475.497501 201.481255 476.014567 201.481255
z
" clip-path="url(#pc68076282b)" style="fill: #ff655d; fill-opacity: 0.678431; stroke: #ff655d; stroke-opacity: 0.678431; stroke-width: 0.886227"/>
    <path d="M 450.668988 175.93751
C 451.186054 175.93751 451.682013 175.732078 452.047634 175.366457
C 452.413255 175.000836 452.618687 174.504877 452.618687 173.987811
C 452.618687 173.470745 452.413255 172.974787 452.047634 172.609166
C 451.682013 172.243544 451.186054 172.038112 450.668988 172.038112
C 450.151922 172.038112 449.655964 172.243544 449.290343 172.609166
C 448.924721 172.974787 448.719289 173.470745 448.719289 173.987811
C 448.719289 174.504877 448.924721 175.000836 449.290343 175.366457
C 449.655964 175.732078 450.151922 175.93751 450.668988 175.93751
z
" clip-path="url(#pc68076282b)" style="fill: #ff655d; fill-opacity: 0.678431; stroke: #ff655d; stroke-opacity: 0.678431; stroke-width: 0.886227"/>
    <path d="M 451.326632 149.910543
C 451.843698 149.910543 452.339656 149.70511 452.705277 149.339489
C 453.070898 148.973868 453.276331 148.47791 453.276331 147.960844
C 453.276331 147.443777 453.070898 146.947819 452.705277 146.582198
C 452.339656 146.216577 451.843698 146.011144 451.326632 146.011144
C 450.809565 146.011144 450.313607 146.216577 449.947986 146.582198
C 449.582365 146.947819 449.376932 147.443777 449.376932 147.960844
C 449.376932 148.47791 449.582365 148.973868 449.947986 149.339489
C 450.313607 149.70511 450.809565 149.910543 451.326632 149.910543
z
" clip-path="url(#pc68076282b)" style="fill: #ff655d; fill-opacity: 0.678431; stroke: #ff655d; stroke-opacity: 0.678431; stroke-width: 0.886227"/>
    <path d="M 437.303378 121.841452
C 437.820444 121.841452 438.316403 121.636019 438.682024 121.270398
C 439.047645 120.904777 439.253077 120.408819 439.253077 119.891752
C 439.253077 119.374686 439.047645 118.878728 438.682024 118.513107
C 438.316403 118.147486 437.820444 117.942053 437.303378 117.942053
C 436.786312 117.942053 436.290354 118.147486 435.924733 118.513107
C 435.559112 118.878728 435.353679 119.374686 435.353679 119.891752
C 435.353679 120.408819 435.559112 120.904777 435.924733 121.270398
C 436.290354 121.636019 436.786312 121.841452 437.303378 121.841452
z
" clip-path="url(#pc68076282b)" style="fill: #ff655d; fill-opacity: 0.678431; stroke: #ff655d; stroke-opacity: 0.678431; stroke-width: 0.886227"/>
    <path d="M 453.389545 302.087544
C 453.906612 302.087544 454.40257 301.882112 454.768191 301.516491
C 455.133812 301.15087 455.339245 300.654911 455.339245 300.137845
C 455.339245 299.620779 455.133812 299.124821 454.768191 298.759199
C 454.40257 298.393578 453.906612 298.188146 453.389545 298.188146
C 452.872479 298.188146 452.376521 298.393578 452.0109 298.759199
C 451.645279 299.124821 451.439846 299.620779 451.439846 300.137845
C 451.439846 300.654911 451.645279 301.15087 452.0109 301.516491
C 452.376521 301.882112 452.872479 302.087544 453.389545 302.087544
z
" clip-path="url(#pc68076282b)" style="fill: #ff655d; fill-opacity: 0.678431; stroke: #ff655d; stroke-opacity: 0.678431; stroke-width: 0.886227"/>
    <path d="M 408.162578 276.100579
C 408.679644 276.100579 409.175602 275.895147 409.541223 275.529526
C 409.906844 275.163905 410.112277 274.667947 410.112277 274.15088
C 410.112277 273.633814 409.906844 273.137856 409.541223 272.772235
C 409.175602 272.406614 408.679644 272.201181 408.162578 272.201181
C 407.645511 272.201181 407.149553 272.406614 406.783932 272.772235
C 406.418311 273.137856 406.212878 273.633814 406.212878 274.15088
C 406.212878 274.667947 406.418311 275.163905 406.783932 275.529526
C 407.149553 275.895147 407.645511 276.100579 408.162578 276.100579
z
" clip-path="url(#pc68076282b)" style="fill: #ff655d; fill-opacity: 0.678431; stroke: #ff655d; stroke-opacity: 0.678431; stroke-width: 0.886227"/>
    <path d="M 409.269464 251.409685
C 409.78653 251.409685 410.282488 251.204253 410.64811 250.838632
C 411.013731 250.47301 411.219163 249.977052 411.219163 249.459986
C 411.219163 248.94292 411.013731 248.446962 410.64811 248.08134
C 410.282488 247.715719 409.78653 247.510287 409.269464 247.510287
C 408.752398 247.510287 408.25644 247.715719 407.890818 248.08134
C 407.525197 248.446962 407.319765 248.94292 407.319765 249.459986
C 407.319765 249.977052 407.525197 250.47301 407.890818 250.838632
C 408.25644 251.204253 408.752398 251.409685 409.269464 251.409685
z
" clip-path="url(#pc68076282b)" style="fill: #ff655d; fill-opacity: 0.678431; stroke: #ff655d; stroke-opacity: 0.678431; stroke-width: 0.886227"/>
    <path d="M 404.002567 228.171296
C 404.519633 228.171296 405.015591 227.965863 405.381213 227.600242
C 405.746834 227.234621 405.952266 226.738663 405.952266 226.221597
C 405.952266 225.70453 405.746834 225.208572 405.381213 224.842951
C 405.015591 224.47733 404.519633 224.271897 404.002567 224.271897
C 403.485501 224.271897 402.989542 224.47733 402.623921 224.842951
C 402.2583 225.208572 402.052868 225.70453 402.052868 226.221597
C 402.052868 226.738663 402.2583 227.234621 402.623921 227.600242
C 402.989542 227.965863 403.485501 228.171296 404.002567 228.171296
z
" clip-path="url(#pc68076282b)" style="fill: #ff655d; fill-opacity: 0.678431; stroke: #ff655d; stroke-opacity: 0.678431; stroke-width: 0.886227"/>
    <path d="M 166.729119 327.899879
C 167.246186 327.899879 167.742144 327.694446 168.107765 327.328825
C 168.473386 326.963204 168.678819 326.467246 168.678819 325.95018
C 168.678819 325.433113 168.473386 324.937155 168.107765 324.571534
C 167.742144 324.205913 167.246186 324.00048 166.729119 324.00048
C 166.212053 324.00048 165.716095 324.205913 165.350474 324.571534
C 164.984853 324.937155 164.77942 325.433113 164.77942 325.95018
C 164.77942 326.467246 164.984853 326.963204 165.350474 327.328825
C 165.716095 327.694446 166.212053 327.899879 166.729119 327.899879
z
" clip-path="url(#pc68076282b)" style="fill: #ff655d; fill-opacity: 0.678431; stroke: #ff655d; stroke-opacity: 0.678431; stroke-width: 0.886227"/>
    <path d="M 151.27566 96.646815
C 151.792727 96.646815 152.288685 96.441382 152.654306 96.075761
C 153.019927 95.71014 153.22536 95.214182 153.22536 94.697116
C 153.22536 94.180049 153.019927 93.684091 152.654306 93.31847
C 152.288685 92.952849 151.792727 92.747416 151.27566 92.747416
C 150.758594 92.747416 150.262636 92.952849 149.897015 93.31847
C 149.531394 93.684091 149.325961 94.180049 149.325961 94.697116
C 149.325961 95.214182 149.531394 95.71014 149.897015 96.075761
C 150.262636 96.441382 150.758594 96.646815 151.27566 96.646815
z
" clip-path="url(#pc68076282b)" style="fill: #ff655d; fill-opacity: 0.678431; stroke: #ff655d; stroke-opacity: 0.678431; stroke-width: 0.886227"/>
    <path d="M 144.789165 74.615662
C 145.306232 74.615662 145.80219 74.41023 146.167811 74.044608
C 146.533432 73.678987 146.738865 73.183029 146.738865 72.665963
C 146.738865 72.148897 146.533432 71.652938 146.167811 71.287317
C 145.80219 70.921696 145.306232 70.716264 144.789165 70.716264
C 144.272099 70.716264 143.776141 70.921696 143.41052 71.287317
C 143.044899 71.652938 142.839466 72.148897 142.839466 72.665963
C 142.839466 73.183029 143.044899 73.678987 143.41052 74.044608
C 143.776141 74.41023 144.272099 74.615662 144.789165 74.615662
z
" clip-path="url(#pc68076282b)" style="fill: #ff655d; fill-opacity: 0.678431; stroke: #ff655d; stroke-opacity: 0.678431; stroke-width: 0.886227"/>
    <path d="M 150.845367 48.521818
C 151.362433 48.521818 151.858391 48.316386 152.224012 47.950765
C 152.589633 47.585144 152.795066 47.089185 152.795066 46.572119
C 152.795066 46.055053 152.589633 45.559095 152.224012 45.193474
C 151.858391 44.827853 151.362433 44.62242 150.845367 44.62242
C 150.328301 44.62242 149.832342 44.827853 149.466721 45.193474
C 149.1011 45.559095 148.895668 46.055053 148.895668 46.572119
C 148.895668 47.089185 149.1011 47.585144 149.466721 47.950765
C 149.832342 48.316386 150.328301 48.521818 150.845367 48.521818
z
" clip-path="url(#pc68076282b)" style="fill: #ff655d; fill-opacity: 0.678431; stroke: #ff655d; stroke-opacity: 0.678431; stroke-width: 0.886227"/>
    <path d="M 147.806856 21.329295
C 148.323923 21.329295 148.819881 21.123862 149.185502 20.758241
C 149.551123 20.39262 149.756556 19.896662 149.756556 19.379596
C 149.756556 18.862529 149.551123 18.366571 149.185502 18.00095
C 148.819881 17.635329 148.323923 17.429896 147.806856 17.429896
C 147.28979 17.429896 146.793832 17.635329 146.428211 18.00095
C 146.06259 18.366571 145.857157 18.862529 145.857157 19.379596
C 145.857157 19.896662 146.06259 20.39262 146.428211 20.758241
C 146.793832 21.123862 147.28979 21.329295 147.806856 21.329295
z
" clip-path="url(#pc68076282b)" style="fill: #ff655d; fill-opacity: 0.678431; stroke: #ff655d; stroke-opacity: 0.678431; stroke-width: 0.886227"/>
   </g>
   <g id="LineCollection_14">
    <path d="M 74.046818 342.111375
L 74.046818 5.184
" clip-path="url(#pc68076282b)" style="fill: none; stroke-dasharray: 2.295328,0.992574; stroke-dashoffset: 0; stroke: #444444; stroke-width: 0.620359"/>
   </g>
  </g>
  <g id="patch_4">
   <path d="M 53.134 342.111375
L 513.216 342.111375
L 513.216 5.184
L 53.134 5.184
L 53.134 342.111375
z
" style="fill: none; stroke: #7f7f7f; stroke-linejoin: miter"/>
  </g>
  <g id="text_17">
   <!-- C++ RADSex / rsx elapsed time (log10) -->
   <g transform="translate(184.05625 367.136313) scale(0.1 -0.1)">
    <defs>
     <path id="DejaVuSans-43" d="M 4122 4306
L 4122 3641
Q 3803 3938 3442 4084
Q 3081 4231 2675 4231
Q 1875 4231 1450 3742
Q 1025 3253 1025 2328
Q 1025 1406 1450 917
Q 1875 428 2675 428
Q 3081 428 3442 575
Q 3803 722 4122 1019
L 4122 359
Q 3791 134 3420 21
Q 3050 -91 2638 -91
Q 1578 -91 968 557
Q 359 1206 359 2328
Q 359 3453 968 4101
Q 1578 4750 2638 4750
Q 3056 4750 3426 4639
Q 3797 4528 4122 4306
z
" transform="scale(0.015625)"/>
     <path id="DejaVuSans-2b" d="M 2944 4013
L 2944 2272
L 4684 2272
L 4684 1741
L 2944 1741
L 2944 0
L 2419 0
L 2419 1741
L 678 1741
L 678 2272
L 2419 2272
L 2419 4013
L 2944 4013
z
" transform="scale(0.015625)"/>
     <path id="DejaVuSans-52" d="M 2841 2188
Q 3044 2119 3236 1894
Q 3428 1669 3622 1275
L 4263 0
L 3584 0
L 2988 1197
Q 2756 1666 2539 1819
Q 2322 1972 1947 1972
L 1259 1972
L 1259 0
L 628 0
L 628 4666
L 2053 4666
Q 2853 4666 3247 4331
Q 3641 3997 3641 3322
Q 3641 2881 3436 2590
Q 3231 2300 2841 2188
z
M 1259 4147
L 1259 2491
L 2053 2491
Q 2509 2491 2742 2702
Q 2975 2913 2975 3322
Q 2975 3731 2742 3939
Q 2509 4147 2053 4147
L 1259 4147
z
" transform="scale(0.015625)"/>
     <path id="DejaVuSans-41" d="M 2188 4044
L 1331 1722
L 3047 1722
L 2188 4044
z
M 1831 4666
L 2547 4666
L 4325 0
L 3669 0
L 3244 1197
L 1141 1197
L 716 0
L 50 0
L 1831 4666
z
" transform="scale(0.015625)"/>
     <path id="DejaVuSans-44" d="M 1259 4147
L 1259 519
L 2022 519
Q 2988 519 3436 956
Q 3884 1394 3884 2338
Q 3884 3275 3436 3711
Q 2988 4147 2022 4147
L 1259 4147
z
M 628 4666
L 1925 4666
Q 3281 4666 3915 4102
Q 4550 3538 4550 2338
Q 4550 1131 3912 565
Q 3275 0 1925 0
L 628 0
L 628 4666
z
" transform="scale(0.015625)"/>
     <path id="DejaVuSans-53" d="M 3425 4513
L 3425 3897
Q 3066 4069 2747 4153
Q 2428 4238 2131 4238
Q 1616 4238 1336 4038
Q 1056 3838 1056 3469
Q 1056 3159 1242 3001
Q 1428 2844 1947 2747
L 2328 2669
Q 3034 2534 3370 2195
Q 3706 1856 3706 1288
Q 3706 609 3251 259
Q 2797 -91 1919 -91
Q 1588 -91 1214 -16
Q 841 59 441 206
L 441 856
Q 825 641 1194 531
Q 1563 422 1919 422
Q 2459 422 2753 634
Q 3047 847 3047 1241
Q 3047 1584 2836 1778
Q 2625 1972 2144 2069
L 1759 2144
Q 1053 2284 737 2584
Q 422 2884 422 3419
Q 422 4038 858 4394
Q 1294 4750 2059 4750
Q 2388 4750 2728 4690
Q 3069 4631 3425 4513
z
" transform="scale(0.015625)"/>
     <path id="DejaVuSans-78" d="M 3513 3500
L 2247 1797
L 3578 0
L 2900 0
L 1881 1375
L 863 0
L 184 0
L 1544 1831
L 300 3500
L 978 3500
L 1906 2253
L 2834 3500
L 3513 3500
z
" transform="scale(0.015625)"/>
     <path id="DejaVuSans-2f" d="M 1625 4666
L 2156 4666
L 531 -594
L 0 -594
L 1625 4666
z
" transform="scale(0.015625)"/>
     <path id="DejaVuSans-6c" d="M 603 4863
L 1178 4863
L 1178 0
L 603 0
L 603 4863
z
" transform="scale(0.015625)"/>
     <path id="DejaVuSans-61" d="M 2194 1759
Q 1497 1759 1228 1600
Q 959 1441 959 1056
Q 959 750 1161 570
Q 1363 391 1709 391
Q 2188 391 2477 730
Q 2766 1069 2766 1631
L 2766 1759
L 2194 1759
z
M 3341 1997
L 3341 0
L 2766 0
L 2766 531
Q 2569 213 2275 61
Q 1981 -91 1556 -91
Q 1019 -91 701 211
Q 384 513 384 1019
Q 384 1609 779 1909
Q 1175 2209 1959 2209
L 2766 2209
L 2766 2266
Q 2766 2663 2505 2880
Q 2244 3097 1772 3097
Q 1472 3097 1187 3025
Q 903 2953 641 2809
L 641 3341
Q 956 3463 1253 3523
Q 1550 3584 1831 3584
Q 2591 3584 2966 3190
Q 3341 2797 3341 1997
z
" transform="scale(0.015625)"/>
     <path id="DejaVuSans-6d" d="M 3328 2828
Q 3544 3216 3844 3400
Q 4144 3584 4550 3584
Q 5097 3584 5394 3201
Q 5691 2819 5691 2113
L 5691 0
L 5113 0
L 5113 2094
Q 5113 2597 4934 2840
Q 4756 3084 4391 3084
Q 3944 3084 3684 2787
Q 3425 2491 3425 1978
L 3425 0
L 2847 0
L 2847 2094
Q 2847 2600 2669 2842
Q 2491 3084 2119 3084
Q 1678 3084 1418 2786
Q 1159 2488 1159 1978
L 1159 0
L 581 0
L 581 3500
L 1159 3500
L 1159 2956
Q 1356 3278 1631 3431
Q 1906 3584 2284 3584
Q 2666 3584 2933 3390
Q 3200 3197 3328 2828
z
" transform="scale(0.015625)"/>
     <path id="DejaVuSans-28" d="M 1984 4856
Q 1566 4138 1362 3434
Q 1159 2731 1159 2009
Q 1159 1288 1364 580
Q 1569 -128 1984 -844
L 1484 -844
Q 1016 -109 783 600
Q 550 1309 550 2009
Q 550 2706 781 3412
Q 1013 4119 1484 4856
L 1984 4856
z
" transform="scale(0.015625)"/>
     <path id="DejaVuSans-29" d="M 513 4856
L 1013 4856
Q 1481 4119 1714 3412
Q 1947 2706 1947 2009
Q 1947 1309 1714 600
Q 1481 -109 1013 -844
L 513 -844
Q 928 -128 1133 580
Q 1338 1288 1338 2009
Q 1338 2731 1133 3434
Q 928 4138 513 4856
z
" transform="scale(0.015625)"/>
    </defs>
    <use xlink:href="#DejaVuSans-43"/>
    <use xlink:href="#DejaVuSans-2b" transform="translate(69.824219 0)"/>
    <use xlink:href="#DejaVuSans-2b" transform="translate(153.613281 0)"/>
    <use xlink:href="#DejaVuSans-20" transform="translate(237.402344 0)"/>
    <use xlink:href="#DejaVuSans-52" transform="translate(269.189453 0)"/>
    <use xlink:href="#DejaVuSans-41" transform="translate(334.671875 0)"/>
    <use xlink:href="#DejaVuSans-44" transform="translate(403.080078 0)"/>
    <use xlink:href="#DejaVuSans-53" transform="translate(480.082031 0)"/>
    <use xlink:href="#DejaVuSans-65" transform="translate(543.558594 0)"/>
    <use xlink:href="#DejaVuSans-78" transform="translate(603.332031 0)"/>
    <use xlink:href="#DejaVuSans-20" transform="translate(662.511719 0)"/>
    <use xlink:href="#DejaVuSans-2f" transform="translate(694.298828 0)"/>
    <use xlink:href="#DejaVuSans-20" transform="translate(727.990234 0)"/>
    <use xlink:href="#DejaVuSans-72" transform="translate(759.777344 0)"/>
    <use xlink:href="#DejaVuSans-73" transform="translate(800.890625 0)"/>
    <use xlink:href="#DejaVuSans-78" transform="translate(852.990234 0)"/>
    <use xlink:href="#DejaVuSans-20" transform="translate(912.169922 0)"/>
    <use xlink:href="#DejaVuSans-65" transform="translate(943.957031 0)"/>
    <use xlink:href="#DejaVuSans-6c" transform="translate(1005.480469 0)"/>
    <use xlink:href="#DejaVuSans-61" transform="translate(1033.263672 0)"/>
    <use xlink:href="#DejaVuSans-70" transform="translate(1094.542969 0)"/>
    <use xlink:href="#DejaVuSans-73" transform="translate(1158.019531 0)"/>
    <use xlink:href="#DejaVuSans-65" transform="translate(1210.119141 0)"/>
    <use xlink:href="#DejaVuSans-64" transform="translate(1271.642578 0)"/>
    <use xlink:href="#DejaVuSans-20" transform="translate(1335.119141 0)"/>
    <use xlink:href="#DejaVuSans-74" transform="translate(1366.90625 0)"/>
    <use xlink:href="#DejaVuSans-69" transform="translate(1406.115234 0)"/>
    <use xlink:href="#DejaVuSans-6d" transform="translate(1433.898438 0)"/>
    <use xlink:href="#DejaVuSans-65" transform="translate(1531.310547 0)"/>
    <use xlink:href="#DejaVuSans-20" transform="translate(1592.833984 0)"/>
    <use xlink:href="#DejaVuSans-28" transform="translate(1624.621094 0)"/>
    <use xlink:href="#DejaVuSans-6c" transform="translate(1663.634766 0)"/>
    <use xlink:href="#DejaVuSans-6f" transform="translate(1691.417969 0)"/>
    <use xlink:href="#DejaVuSans-67" transform="translate(1752.599609 0)"/>
    <use xlink:href="#DejaVuSans-31" transform="translate(1816.076172 0)"/>
    <use xlink:href="#DejaVuSans-30" transform="translate(1879.699219 0)"/>
    <use xlink:href="#DejaVuSans-29" transform="translate(1943.322266 0)"/>
   </g>
  </g>
 </g>
 <defs>
  <clipPath id="pc68076282b">
   <rect x="53.134" y="5.184" width="460.082" height="336.927375"/>
  </clipPath>
 </defs>
</svg>
