<?xml version="1.0" encoding="utf-8" standalone="no"?>
<!DOCTYPE svg PUBLIC "-//W3C//DTD SVG 1.1//EN"
  "http://www.w3.org/Graphics/SVG/1.1/DTD/svg11.dtd">
<svg xmlns:xlink="http://www.w3.org/1999/xlink" width="518.4pt" height="374.4pt" viewBox="0 0 518.4 374.4" xmlns="http://www.w3.org/2000/svg" version="1.1">
 <metadata>
  <rdf:RDF xmlns:dc="http://purl.org/dc/elements/1.1/" xmlns:cc="http://creativecommons.org/ns#" xmlns:rdf="http://www.w3.org/1999/02/22-rdf-syntax-ns#">
   <cc:Work>
    <dc:type rdf:resource="http://purl.org/dc/dcmitype/StillImage"/>
    <dc:date>2026-05-17T09:24:59.368563</dc:date>
    <dc:format>image/svg+xml</dc:format>
    <dc:creator>
     <cc:Agent>
      <dc:title>Matplotlib v3.10.9, https://matplotlib.org/</dc:title>
     </cc:Agent>
    </dc:creator>
   </cc:Work>
  </rdf:RDF>
 </metadata>
 <defs>
  <style type="text/css">*{stroke-linejoin: round; stroke-linecap: butt}</style>
 </defs>
 <g id="figure_1">
  <g id="patch_1">
   <path d="M 0 374.4
L 518.4 374.4
L 518.4 0
L 0 0
z
" style="fill: #ffffff"/>
  </g>
  <g id="patch_2">
   <path d="M 0 374.4
L 518.4 374.4
L 518.4 0
L 0 0
L 0 374.4
z
" style="fill: none; stroke: #ffffff; stroke-linejoin: miter"/>
  </g>
  <g id="axes_1">
   <g id="patch_3">
    <path d="M 53.134 342.111375
L 513.216 342.111375
L 513.216 5.184
L 53.134 5.184
z
" style="fill: #ffffff"/>
   </g>
   <g id="matplotlib.axis_1">
    <g id="xtick_1">
     <g id="line2d_1">
      <path d="M 74.046818 342.111375
L 74.046818 5.184
" clip-path="url(#p7719124dc6)" style="fill: none; stroke: #e6e6e6; stroke-width: 0.35; stroke-linecap: square"/>
     </g>
     <g id="line2d_2">
      <path d="M 74.046818 342.111375
" style="fill: none; stroke: #333333; stroke-width: 1.5; stroke-linecap: square"/>
      <defs>
       <path id="m241ad5eadc" d="M 0 0
L 0 2.5
" style="stroke: #333333"/>
      </defs>
      <g>
       <use xlink:href="#m241ad5eadc" x="74.046818" y="342.111375" style="fill: #333333; stroke: #333333"/>
      </g>
     </g>
     <g id="text_1">
      <!-- 1 -->
      <g style="fill: #4d4d4d" transform="translate(71.501818 352.690125) scale(0.08 -0.08)">
       <defs>
        <path id="DejaVuSans-31" d="M 794 531
L 1825 531
L 1825 4091
L 703 3866
L 703 4441
L 1819 4666
L 2450 4666
L 2450 531
L 3481 531
L 3481 0
L 794 0
L 794 531
z
" transform="scale(0.015625)"/>
       </defs>
       <use xlink:href="#DejaVuSans-31"/>
      </g>
     </g>
    </g>
    <g id="xtick_2">
     <g id="line2d_3">
      <path d="M 305.226703 342.111375
L 305.226703 5.184
" clip-path="url(#p7719124dc6)" style="fill: none; stroke: #e6e6e6; stroke-width: 0.35; stroke-linecap: square"/>
     </g>
     <g id="line2d_4">
      <path d="M 305.226703 342.111375
" style="fill: none; stroke: #333333; stroke-width: 1.5; stroke-linecap: square"/>
      <g>
       <use xlink:href="#m241ad5eadc" x="305.226703" y="342.111375" style="fill: #333333; stroke: #333333"/>
      </g>
     </g>
     <g id="text_2">
      <!-- 3 -->
      <g style="fill: #4d4d4d" transform="translate(302.681703 352.690125) scale(0.08 -0.08)">
       <defs>
        <path id="DejaVuSans-33" d="M 2597 2516
Q 3050 2419 3304 2112
Q 3559 1806 3559 1356
Q 3559 666 3084 287
Q 2609 -91 1734 -91
Q 1441 -91 1130 -33
Q 819 25 488 141
L 488 750
Q 750 597 1062 519
Q 1375 441 1716 441
Q 2309 441 2620 675
Q 2931 909 2931 1356
Q 2931 1769 2642 2001
Q 2353 2234 1838 2234
L 1294 2234
L 1294 2753
L 1863 2753
Q 2328 2753 2575 2939
Q 2822 3125 2822 3475
Q 2822 3834 2567 4026
Q 2313 4219 1838 4219
Q 1578 4219 1281 4162
Q 984 4106 628 3988
L 628 4550
Q 988 4650 1302 4700
Q 1616 4750 1894 4750
Q 2613 4750 3031 4423
Q 3450 4097 3450 3541
Q 3450 3153 3228 2886
Q 3006 2619 2597 2516
z
" transform="scale(0.015625)"/>
       </defs>
       <use xlink:href="#DejaVuSans-33"/>
      </g>
     </g>
    </g>
    <g id="xtick_3">
     <g id="line2d_5">
      <path d="M 412.719227 342.111375
L 412.719227 5.184
" clip-path="url(#p7719124dc6)" style="fill: none; stroke: #e6e6e6; stroke-width: 0.35; stroke-linecap: square"/>
     </g>
     <g id="line2d_6">
      <path d="M 412.719227 342.111375
" style="fill: none; stroke: #333333; stroke-width: 1.5; stroke-linecap: square"/>
      <g>
       <use xlink:href="#m241ad5eadc" x="412.719227" y="342.111375" style="fill: #333333; stroke: #333333"/>
      </g>
     </g>
     <g id="text_3">
      <!-- 5 -->
      <g style="fill: #4d4d4d" transform="translate(410.174227 352.690125) scale(0.08 -0.08)">
       <defs>
        <path id="DejaVuSans-35" d="M 691 4666
L 3169 4666
L 3169 4134
L 1269 4134
L 1269 2991
Q 1406 3038 1543 3061
Q 1681 3084 1819 3084
Q 2600 3084 3056 2656
Q 3513 2228 3513 1497
Q 3513 744 3044 326
Q 2575 -91 1722 -91
Q 1428 -91 1123 -41
Q 819 9 494 109
L 494 744
Q 775 591 1075 516
Q 1375 441 1709 441
Q 2250 441 2565 725
Q 2881 1009 2881 1497
Q 2881 1984 2565 2268
Q 2250 2553 1709 2553
Q 1456 2553 1204 2497
Q 953 2441 691 2322
L 691 4666
z
" transform="scale(0.015625)"/>
       </defs>
       <use xlink:href="#DejaVuSans-35"/>
      </g>
     </g>
    </g>
    <g id="xtick_4"/>
    <g id="xtick_5"/>
    <g id="xtick_6"/>
    <g id="xtick_7"/>
    <g id="xtick_8"/>
    <g id="xtick_9"/>
    <g id="xtick_10"/>
    <g id="xtick_11"/>
    <g id="xtick_12"/>
    <g id="xtick_13"/>
    <g id="xtick_14"/>
    <g id="xtick_15"/>
    <g id="xtick_16"/>
    <g id="xtick_17"/>
    <g id="xtick_18"/>
    <g id="xtick_19"/>
    <g id="xtick_20"/>
    <g id="xtick_21"/>
    <g id="xtick_22"/>
    <g id="xtick_23"/>
    <g id="xtick_24"/>
    <g id="xtick_25"/>
   </g>
   <g id="matplotlib.axis_2">
    <g id="ytick_1">
     <g id="line2d_7">
      <path d="M 53.134 326.796494
L 513.216 326.796494
" clip-path="url(#p7719124dc6)" style="fill: none; stroke: #e6e6e6; stroke-width: 0.35; stroke-linecap: square"/>
     </g>
     <g id="line2d_8">
      <path d="M 53.134 326.796494
" style="fill: none; stroke: #333333; stroke-width: 1.5; stroke-linecap: square"/>
      <defs>
       <path id="m4ed9eec6f3" d="M 0 0
L -2.5 0
" style="stroke: #333333"/>
      </defs>
      <g>
       <use xlink:href="#m4ed9eec6f3" x="53.134" y="326.796494" style="fill: #333333; stroke: #333333"/>
      </g>
     </g>
     <g id="text_4">
      <!-- process d1 -->
      <g style="fill: #4d4d4d" transform="translate(5.184 329.835869) scale(0.08 -0.08)">
       <defs>
        <path id="DejaVuSans-70" d="M 1159 525
L 1159 -1331
L 581 -1331
L 581 3500
L 1159 3500
L 1159 2969
Q 1341 3281 1617 3432
Q 1894 3584 2278 3584
Q 2916 3584 3314 3078
Q 3713 2572 3713 1747
Q 3713 922 3314 415
Q 2916 -91 2278 -91
Q 1894 -91 1617 61
Q 1341 213 1159 525
z
M 3116 1747
Q 3116 2381 2855 2742
Q 2594 3103 2138 3103
Q 1681 3103 1420 2742
Q 1159 2381 1159 1747
Q 1159 1113 1420 752
Q 1681 391 2138 391
Q 2594 391 2855 752
Q 3116 1113 3116 1747
z
" transform="scale(0.015625)"/>
        <path id="DejaVuSans-72" d="M 2631 2963
Q 2534 3019 2420 3045
Q 2306 3072 2169 3072
Q 1681 3072 1420 2755
Q 1159 2438 1159 1844
L 1159 0
L 581 0
L 581 3500
L 1159 3500
L 1159 2956
Q 1341 3275 1631 3429
Q 1922 3584 2338 3584
Q 2397 3584 2469 3576
Q 2541 3569 2628 3553
L 2631 2963
z
" transform="scale(0.015625)"/>
        <path id="DejaVuSans-6f" d="M 1959 3097
Q 1497 3097 1228 2736
Q 959 2375 959 1747
Q 959 1119 1226 758
Q 1494 397 1959 397
Q 2419 397 2687 759
Q 2956 1122 2956 1747
Q 2956 2369 2687 2733
Q 2419 3097 1959 3097
z
M 1959 3584
Q 2709 3584 3137 3096
Q 3566 2609 3566 1747
Q 3566 888 3137 398
Q 2709 -91 1959 -91
Q 1206 -91 779 398
Q 353 888 353 1747
Q 353 2609 779 3096
Q 1206 3584 1959 3584
z
" transform="scale(0.015625)"/>
        <path id="DejaVuSans-63" d="M 3122 3366
L 3122 2828
Q 2878 2963 2633 3030
Q 2388 3097 2138 3097
Q 1578 3097 1268 2742
Q 959 2388 959 1747
Q 959 1106 1268 751
Q 1578 397 2138 397
Q 2388 397 2633 464
Q 2878 531 3122 666
L 3122 134
Q 2881 22 2623 -34
Q 2366 -91 2075 -91
Q 1284 -91 818 406
Q 353 903 353 1747
Q 353 2603 823 3093
Q 1294 3584 2113 3584
Q 2378 3584 2631 3529
Q 2884 3475 3122 3366
z
" transform="scale(0.015625)"/>
        <path id="DejaVuSans-65" d="M 3597 1894
L 3597 1613
L 953 1613
Q 991 1019 1311 708
Q 1631 397 2203 397
Q 2534 397 2845 478
Q 3156 559 3463 722
L 3463 178
Q 3153 47 2828 -22
Q 2503 -91 2169 -91
Q 1331 -91 842 396
Q 353 884 353 1716
Q 353 2575 817 3079
Q 1281 3584 2069 3584
Q 2775 3584 3186 3129
Q 3597 2675 3597 1894
z
M 3022 2063
Q 3016 2534 2758 2815
Q 2500 3097 2075 3097
Q 1594 3097 1305 2825
Q 1016 2553 972 2059
L 3022 2063
z
" transform="scale(0.015625)"/>
        <path id="DejaVuSans-73" d="M 2834 3397
L 2834 2853
Q 2591 2978 2328 3040
Q 2066 3103 1784 3103
Q 1356 3103 1142 2972
Q 928 2841 928 2578
Q 928 2378 1081 2264
Q 1234 2150 1697 2047
L 1894 2003
Q 2506 1872 2764 1633
Q 3022 1394 3022 966
Q 3022 478 2636 193
Q 2250 -91 1575 -91
Q 1294 -91 989 -36
Q 684 19 347 128
L 347 722
Q 666 556 975 473
Q 1284 391 1588 391
Q 1994 391 2212 530
Q 2431 669 2431 922
Q 2431 1156 2273 1281
Q 2116 1406 1581 1522
L 1381 1569
Q 847 1681 609 1914
Q 372 2147 372 2553
Q 372 3047 722 3315
Q 1072 3584 1716 3584
Q 2034 3584 2315 3537
Q 2597 3491 2834 3397
z
" transform="scale(0.015625)"/>
        <path id="DejaVuSans-20" transform="scale(0.015625)"/>
        <path id="DejaVuSans-64" d="M 2906 2969
L 2906 4863
L 3481 4863
L 3481 0
L 2906 0
L 2906 525
Q 2725 213 2448 61
Q 2172 -91 1784 -91
Q 1150 -91 751 415
Q 353 922 353 1747
Q 353 2572 751 3078
Q 1150 3584 1784 3584
Q 2172 3584 2448 3432
Q 2725 3281 2906 2969
z
M 947 1747
Q 947 1113 1208 752
Q 1469 391 1925 391
Q 2381 391 2643 752
Q 2906 1113 2906 1747
Q 2906 2381 2643 2742
Q 2381 3103 1925 3103
Q 1469 3103 1208 2742
Q 947 2381 947 1747
z
" transform="scale(0.015625)"/>
       </defs>
       <use xlink:href="#DejaVuSans-70"/>
       <use xlink:href="#DejaVuSans-72" transform="translate(63.476562 0)"/>
       <use xlink:href="#DejaVuSans-6f" transform="translate(102.339844 0)"/>
       <use xlink:href="#DejaVuSans-63" transform="translate(163.521484 0)"/>
       <use xlink:href="#DejaVuSans-65" transform="translate(218.501953 0)"/>
       <use xlink:href="#DejaVuSans-73" transform="translate(280.025391 0)"/>
       <use xlink:href="#DejaVuSans-73" transform="translate(332.125 0)"/>
       <use xlink:href="#DejaVuSans-20" transform="translate(384.224609 0)"/>
       <use xlink:href="#DejaVuSans-64" transform="translate(416.011719 0)"/>
       <use xlink:href="#DejaVuSans-31" transform="translate(479.488281 0)"/>
      </g>
     </g>
    </g>
    <g id="ytick_2">
     <g id="line2d_9">
      <path d="M 53.134 301.271693
L 513.216 301.271693
" clip-path="url(#p7719124dc6)" style="fill: none; stroke: #e6e6e6; stroke-width: 0.35; stroke-linecap: square"/>
     </g>
     <g id="line2d_10">
      <path d="M 53.134 301.271693
" style="fill: none; stroke: #333333; stroke-width: 1.5; stroke-linecap: square"/>
      <g>
       <use xlink:href="#m4ed9eec6f3" x="53.134" y="301.271693" style="fill: #333333; stroke: #333333"/>
      </g>
     </g>
     <g id="text_5">
      <!-- freq d1 -->
      <g style="fill: #4d4d4d" transform="translate(19.9965 304.311068) scale(0.08 -0.08)">
       <defs>
        <path id="DejaVuSans-66" d="M 2375 4863
L 2375 4384
L 1825 4384
Q 1516 4384 1395 4259
Q 1275 4134 1275 3809
L 1275 3500
L 2222 3500
L 2222 3053
L 1275 3053
L 1275 0
L 697 0
L 697 3053
L 147 3053
L 147 3500
L 697 3500
L 697 3744
Q 697 4328 969 4595
Q 1241 4863 1831 4863
L 2375 4863
z
" transform="scale(0.015625)"/>
        <path id="DejaVuSans-71" d="M 947 1747
Q 947 1113 1208 752
Q 1469 391 1925 391
Q 2381 391 2643 752
Q 2906 1113 2906 1747
Q 2906 2381 2643 2742
Q 2381 3103 1925 3103
Q 1469 3103 1208 2742
Q 947 2381 947 1747
z
M 2906 525
Q 2725 213 2448 61
Q 2172 -91 1784 -91
Q 1150 -91 751 415
Q 353 922 353 1747
Q 353 2572 751 3078
Q 1150 3584 1784 3584
Q 2172 3584 2448 3432
Q 2725 3281 2906 2969
L 2906 3500
L 3481 3500
L 3481 -1331
L 2906 -1331
L 2906 525
z
" transform="scale(0.015625)"/>
       </defs>
       <use xlink:href="#DejaVuSans-66"/>
       <use xlink:href="#DejaVuSans-72" transform="translate(35.205078 0)"/>
       <use xlink:href="#DejaVuSans-65" transform="translate(74.068359 0)"/>
       <use xlink:href="#DejaVuSans-71" transform="translate(135.591797 0)"/>
       <use xlink:href="#DejaVuSans-20" transform="translate(199.068359 0)"/>
       <use xlink:href="#DejaVuSans-64" transform="translate(230.855469 0)"/>
       <use xlink:href="#DejaVuSans-31" transform="translate(294.332031 0)"/>
      </g>
     </g>
    </g>
    <g id="ytick_3">
     <g id="line2d_11">
      <path d="M 53.134 275.746892
L 513.216 275.746892
" clip-path="url(#p7719124dc6)" style="fill: none; stroke: #e6e6e6; stroke-width: 0.35; stroke-linecap: square"/>
     </g>
     <g id="line2d_12">
      <path d="M 53.134 275.746892
" style="fill: none; stroke: #333333; stroke-width: 1.5; stroke-linecap: square"/>
      <g>
       <use xlink:href="#m4ed9eec6f3" x="53.134" y="275.746892" style="fill: #333333; stroke: #333333"/>
      </g>
     </g>
     <g id="text_6">
      <!-- freq d2 -->
      <g style="fill: #4d4d4d" transform="translate(19.9965 278.786267) scale(0.08 -0.08)">
       <defs>
        <path id="DejaVuSans-32" d="M 1228 531
L 3431 531
L 3431 0
L 469 0
L 469 531
Q 828 903 1448 1529
Q 2069 2156 2228 2338
Q 2531 2678 2651 2914
Q 2772 3150 2772 3378
Q 2772 3750 2511 3984
Q 2250 4219 1831 4219
Q 1534 4219 1204 4116
Q 875 4013 500 3803
L 500 4441
Q 881 4594 1212 4672
Q 1544 4750 1819 4750
Q 2544 4750 2975 4387
Q 3406 4025 3406 3419
Q 3406 3131 3298 2873
Q 3191 2616 2906 2266
Q 2828 2175 2409 1742
Q 1991 1309 1228 531
z
" transform="scale(0.015625)"/>
       </defs>
       <use xlink:href="#DejaVuSans-66"/>
       <use xlink:href="#DejaVuSans-72" transform="translate(35.205078 0)"/>
       <use xlink:href="#DejaVuSans-65" transform="translate(74.068359 0)"/>
       <use xlink:href="#DejaVuSans-71" transform="translate(135.591797 0)"/>
       <use xlink:href="#DejaVuSans-20" transform="translate(199.068359 0)"/>
       <use xlink:href="#DejaVuSans-64" transform="translate(230.855469 0)"/>
       <use xlink:href="#DejaVuSans-32" transform="translate(294.332031 0)"/>
      </g>
     </g>
    </g>
    <g id="ytick_4">
     <g id="line2d_13">
      <path d="M 53.134 250.222091
L 513.216 250.222091
" clip-path="url(#p7719124dc6)" style="fill: none; stroke: #e6e6e6; stroke-width: 0.35; stroke-linecap: square"/>
     </g>
     <g id="line2d_14">
      <path d="M 53.134 250.222091
" style="fill: none; stroke: #333333; stroke-width: 1.5; stroke-linecap: square"/>
      <g>
       <use xlink:href="#m4ed9eec6f3" x="53.134" y="250.222091" style="fill: #333333; stroke: #333333"/>
      </g>
     </g>
     <g id="text_7">
      <!-- freq d5 -->
      <g style="fill: #4d4d4d" transform="translate(19.9965 253.261466) scale(0.08 -0.08)">
       <use xlink:href="#DejaVuSans-66"/>
       <use xlink:href="#DejaVuSans-72" transform="translate(35.205078 0)"/>
       <use xlink:href="#DejaVuSans-65" transform="translate(74.068359 0)"/>
       <use xlink:href="#DejaVuSans-71" transform="translate(135.591797 0)"/>
       <use xlink:href="#DejaVuSans-20" transform="translate(199.068359 0)"/>
       <use xlink:href="#DejaVuSans-64" transform="translate(230.855469 0)"/>
       <use xlink:href="#DejaVuSans-35" transform="translate(294.332031 0)"/>
      </g>
     </g>
    </g>
    <g id="ytick_5">
     <g id="line2d_15">
      <path d="M 53.134 224.69729
L 513.216 224.69729
" clip-path="url(#p7719124dc6)" style="fill: none; stroke: #e6e6e6; stroke-width: 0.35; stroke-linecap: square"/>
     </g>
     <g id="line2d_16">
      <path d="M 53.134 224.69729
" style="fill: none; stroke: #333333; stroke-width: 1.5; stroke-linecap: square"/>
      <g>
       <use xlink:href="#m4ed9eec6f3" x="53.134" y="224.69729" style="fill: #333333; stroke: #333333"/>
      </g>
     </g>
     <g id="text_8">
      <!-- freq d10 -->
      <g style="fill: #4d4d4d" transform="translate(14.9065 227.736665) scale(0.08 -0.08)">
       <defs>
        <path id="DejaVuSans-30" d="M 2034 4250
Q 1547 4250 1301 3770
Q 1056 3291 1056 2328
Q 1056 1369 1301 889
Q 1547 409 2034 409
Q 2525 409 2770 889
Q 3016 1369 3016 2328
Q 3016 3291 2770 3770
Q 2525 4250 2034 4250
z
M 2034 4750
Q 2819 4750 3233 4129
Q 3647 3509 3647 2328
Q 3647 1150 3233 529
Q 2819 -91 2034 -91
Q 1250 -91 836 529
Q 422 1150 422 2328
Q 422 3509 836 4129
Q 1250 4750 2034 4750
z
" transform="scale(0.015625)"/>
       </defs>
       <use xlink:href="#DejaVuSans-66"/>
       <use xlink:href="#DejaVuSans-72" transform="translate(35.205078 0)"/>
       <use xlink:href="#DejaVuSans-65" transform="translate(74.068359 0)"/>
       <use xlink:href="#DejaVuSans-71" transform="translate(135.591797 0)"/>
       <use xlink:href="#DejaVuSans-20" transform="translate(199.068359 0)"/>
       <use xlink:href="#DejaVuSans-64" transform="translate(230.855469 0)"/>
       <use xlink:href="#DejaVuSans-31" transform="translate(294.332031 0)"/>
       <use xlink:href="#DejaVuSans-30" transform="translate(357.955078 0)"/>
      </g>
     </g>
    </g>
    <g id="ytick_6">
     <g id="line2d_17">
      <path d="M 53.134 199.172489
L 513.216 199.172489
" clip-path="url(#p7719124dc6)" style="fill: none; stroke: #e6e6e6; stroke-width: 0.35; stroke-linecap: square"/>
     </g>
     <g id="line2d_18">
      <path d="M 53.134 199.172489
" style="fill: none; stroke: #333333; stroke-width: 1.5; stroke-linecap: square"/>
      <g>
       <use xlink:href="#m4ed9eec6f3" x="53.134" y="199.172489" style="fill: #333333; stroke: #333333"/>
      </g>
     </g>
     <g id="text_9">
      <!-- distrib d1 -->
      <g style="fill: #4d4d4d" transform="translate(10.72775 202.211864) scale(0.08 -0.08)">
       <defs>
        <path id="DejaVuSans-69" d="M 603 3500
L 1178 3500
L 1178 0
L 603 0
L 603 3500
z
M 603 4863
L 1178 4863
L 1178 4134
L 603 4134
L 603 4863
z
" transform="scale(0.015625)"/>
        <path id="DejaVuSans-74" d="M 1172 4494
L 1172 3500
L 2356 3500
L 2356 3053
L 1172 3053
L 1172 1153
Q 1172 725 1289 603
Q 1406 481 1766 481
L 2356 481
L 2356 0
L 1766 0
Q 1100 0 847 248
Q 594 497 594 1153
L 594 3053
L 172 3053
L 172 3500
L 594 3500
L 594 4494
L 1172 4494
z
" transform="scale(0.015625)"/>
        <path id="DejaVuSans-62" d="M 3116 1747
Q 3116 2381 2855 2742
Q 2594 3103 2138 3103
Q 1681 3103 1420 2742
Q 1159 2381 1159 1747
Q 1159 1113 1420 752
Q 1681 391 2138 391
Q 2594 391 2855 752
Q 3116 1113 3116 1747
z
M 1159 2969
Q 1341 3281 1617 3432
Q 1894 3584 2278 3584
Q 2916 3584 3314 3078
Q 3713 2572 3713 1747
Q 3713 922 3314 415
Q 2916 -91 2278 -91
Q 1894 -91 1617 61
Q 1341 213 1159 525
L 1159 0
L 581 0
L 581 4863
L 1159 4863
L 1159 2969
z
" transform="scale(0.015625)"/>
       </defs>
       <use xlink:href="#DejaVuSans-64"/>
       <use xlink:href="#DejaVuSans-69" transform="translate(63.476562 0)"/>
       <use xlink:href="#DejaVuSans-73" transform="translate(91.259766 0)"/>
       <use xlink:href="#DejaVuSans-74" transform="translate(143.359375 0)"/>
       <use xlink:href="#DejaVuSans-72" transform="translate(182.568359 0)"/>
       <use xlink:href="#DejaVuSans-69" transform="translate(223.681641 0)"/>
       <use xlink:href="#DejaVuSans-62" transform="translate(251.464844 0)"/>
       <use xlink:href="#DejaVuSans-20" transform="translate(314.941406 0)"/>
       <use xlink:href="#DejaVuSans-64" transform="translate(346.728516 0)"/>
       <use xlink:href="#DejaVuSans-31" transform="translate(410.205078 0)"/>
      </g>
     </g>
    </g>
    <g id="ytick_7">
     <g id="line2d_19">
      <path d="M 53.134 173.647688
L 513.216 173.647688
" clip-path="url(#p7719124dc6)" style="fill: none; stroke: #e6e6e6; stroke-width: 0.35; stroke-linecap: square"/>
     </g>
     <g id="line2d_20">
      <path d="M 53.134 173.647688
" style="fill: none; stroke: #333333; stroke-width: 1.5; stroke-linecap: square"/>
      <g>
       <use xlink:href="#m4ed9eec6f3" x="53.134" y="173.647688" style="fill: #333333; stroke: #333333"/>
      </g>
     </g>
     <g id="text_10">
      <!-- distrib d2 -->
      <g style="fill: #4d4d4d" transform="translate(10.72775 176.687063) scale(0.08 -0.08)">
       <use xlink:href="#DejaVuSans-64"/>
       <use xlink:href="#DejaVuSans-69" transform="translate(63.476562 0)"/>
       <use xlink:href="#DejaVuSans-73" transform="translate(91.259766 0)"/>
       <use xlink:href="#DejaVuSans-74" transform="translate(143.359375 0)"/>
       <use xlink:href="#DejaVuSans-72" transform="translate(182.568359 0)"/>
       <use xlink:href="#DejaVuSans-69" transform="translate(223.681641 0)"/>
       <use xlink:href="#DejaVuSans-62" transform="translate(251.464844 0)"/>
       <use xlink:href="#DejaVuSans-20" transform="translate(314.941406 0)"/>
       <use xlink:href="#DejaVuSans-64" transform="translate(346.728516 0)"/>
       <use xlink:href="#DejaVuSans-32" transform="translate(410.205078 0)"/>
      </g>
     </g>
    </g>
    <g id="ytick_8">
     <g id="line2d_21">
      <path d="M 53.134 148.122886
L 513.216 148.122886
" clip-path="url(#p7719124dc6)" style="fill: none; stroke: #e6e6e6; stroke-width: 0.35; stroke-linecap: square"/>
     </g>
     <g id="line2d_22">
      <path d="M 53.134 148.122886
" style="fill: none; stroke: #333333; stroke-width: 1.5; stroke-linecap: square"/>
      <g>
       <use xlink:href="#m4ed9eec6f3" x="53.134" y="148.122886" style="fill: #333333; stroke: #333333"/>
      </g>
     </g>
     <g id="text_11">
      <!-- distrib d5 -->
      <g style="fill: #4d4d4d" transform="translate(10.72775 151.162261) scale(0.08 -0.08)">
       <use xlink:href="#DejaVuSans-64"/>
       <use xlink:href="#DejaVuSans-69" transform="translate(63.476562 0)"/>
       <use xlink:href="#DejaVuSans-73" transform="translate(91.259766 0)"/>
       <use xlink:href="#DejaVuSans-74" transform="translate(143.359375 0)"/>
       <use xlink:href="#DejaVuSans-72" transform="translate(182.568359 0)"/>
       <use xlink:href="#DejaVuSans-69" transform="translate(223.681641 0)"/>
       <use xlink:href="#DejaVuSans-62" transform="translate(251.464844 0)"/>
       <use xlink:href="#DejaVuSans-20" transform="translate(314.941406 0)"/>
       <use xlink:href="#DejaVuSans-64" transform="translate(346.728516 0)"/>
       <use xlink:href="#DejaVuSans-35" transform="translate(410.205078 0)"/>
      </g>
     </g>
    </g>
    <g id="ytick_9">
     <g id="line2d_23">
      <path d="M 53.134 122.598085
L 513.216 122.598085
" clip-path="url(#p7719124dc6)" style="fill: none; stroke: #e6e6e6; stroke-width: 0.35; stroke-linecap: square"/>
     </g>
     <g id="line2d_24">
      <path d="M 53.134 122.598085
" style="fill: none; stroke: #333333; stroke-width: 1.5; stroke-linecap: square"/>
      <g>
       <use xlink:href="#m4ed9eec6f3" x="53.134" y="122.598085" style="fill: #333333; stroke: #333333"/>
      </g>
     </g>
     <g id="text_12">
      <!-- distrib d10 -->
      <g style="fill: #4d4d4d" transform="translate(5.63775 125.63746) scale(0.08 -0.08)">
       <use xlink:href="#DejaVuSans-64"/>
       <use xlink:href="#DejaVuSans-69" transform="translate(63.476562 0)"/>
       <use xlink:href="#DejaVuSans-73" transform="translate(91.259766 0)"/>
       <use xlink:href="#DejaVuSans-74" transform="translate(143.359375 0)"/>
       <use xlink:href="#DejaVuSans-72" transform="translate(182.568359 0)"/>
       <use xlink:href="#DejaVuSans-69" transform="translate(223.681641 0)"/>
       <use xlink:href="#DejaVuSans-62" transform="translate(251.464844 0)"/>
       <use xlink:href="#DejaVuSans-20" transform="translate(314.941406 0)"/>
       <use xlink:href="#DejaVuSans-64" transform="translate(346.728516 0)"/>
       <use xlink:href="#DejaVuSans-31" transform="translate(410.205078 0)"/>
       <use xlink:href="#DejaVuSans-30" transform="translate(473.828125 0)"/>
      </g>
     </g>
    </g>
    <g id="ytick_10">
     <g id="line2d_25">
      <path d="M 53.134 97.073284
L 513.216 97.073284
" clip-path="url(#p7719124dc6)" style="fill: none; stroke: #e6e6e6; stroke-width: 0.35; stroke-linecap: square"/>
     </g>
     <g id="line2d_26">
      <path d="M 53.134 97.073284
" style="fill: none; stroke: #333333; stroke-width: 1.5; stroke-linecap: square"/>
      <g>
       <use xlink:href="#m4ed9eec6f3" x="53.134" y="97.073284" style="fill: #333333; stroke: #333333"/>
      </g>
     </g>
     <g id="text_13">
      <!-- signif d1 -->
      <g style="fill: #4d4d4d" transform="translate(14.34525 100.112659) scale(0.08 -0.08)">
       <defs>
        <path id="DejaVuSans-67" d="M 2906 1791
Q 2906 2416 2648 2759
Q 2391 3103 1925 3103
Q 1463 3103 1205 2759
Q 947 2416 947 1791
Q 947 1169 1205 825
Q 1463 481 1925 481
Q 2391 481 2648 825
Q 2906 1169 2906 1791
z
M 3481 434
Q 3481 -459 3084 -895
Q 2688 -1331 1869 -1331
Q 1566 -1331 1297 -1286
Q 1028 -1241 775 -1147
L 775 -588
Q 1028 -725 1275 -790
Q 1522 -856 1778 -856
Q 2344 -856 2625 -561
Q 2906 -266 2906 331
L 2906 616
Q 2728 306 2450 153
Q 2172 0 1784 0
Q 1141 0 747 490
Q 353 981 353 1791
Q 353 2603 747 3093
Q 1141 3584 1784 3584
Q 2172 3584 2450 3431
Q 2728 3278 2906 2969
L 2906 3500
L 3481 3500
L 3481 434
z
" transform="scale(0.015625)"/>
        <path id="DejaVuSans-6e" d="M 3513 2113
L 3513 0
L 2938 0
L 2938 2094
Q 2938 2591 2744 2837
Q 2550 3084 2163 3084
Q 1697 3084 1428 2787
Q 1159 2491 1159 1978
L 1159 0
L 581 0
L 581 3500
L 1159 3500
L 1159 2956
Q 1366 3272 1645 3428
Q 1925 3584 2291 3584
Q 2894 3584 3203 3211
Q 3513 2838 3513 2113
z
" transform="scale(0.015625)"/>
       </defs>
       <use xlink:href="#DejaVuSans-73"/>
       <use xlink:href="#DejaVuSans-69" transform="translate(52.099609 0)"/>
       <use xlink:href="#DejaVuSans-67" transform="translate(79.882812 0)"/>
       <use xlink:href="#DejaVuSans-6e" transform="translate(143.359375 0)"/>
       <use xlink:href="#DejaVuSans-69" transform="translate(206.738281 0)"/>
       <use xlink:href="#DejaVuSans-66" transform="translate(234.521484 0)"/>
       <use xlink:href="#DejaVuSans-20" transform="translate(269.726562 0)"/>
       <use xlink:href="#DejaVuSans-64" transform="translate(301.513672 0)"/>
       <use xlink:href="#DejaVuSans-31" transform="translate(364.990234 0)"/>
      </g>
     </g>
    </g>
    <g id="ytick_11">
     <g id="line2d_27">
      <path d="M 53.134 71.548483
L 513.216 71.548483
" clip-path="url(#p7719124dc6)" style="fill: none; stroke: #e6e6e6; stroke-width: 0.35; stroke-linecap: square"/>
     </g>
     <g id="line2d_28">
      <path d="M 53.134 71.548483
" style="fill: none; stroke: #333333; stroke-width: 1.5; stroke-linecap: square"/>
      <g>
       <use xlink:href="#m4ed9eec6f3" x="53.134" y="71.548483" style="fill: #333333; stroke: #333333"/>
      </g>
     </g>
     <g id="text_14">
      <!-- signif d2 -->
      <g style="fill: #4d4d4d" transform="translate(14.34525 74.587858) scale(0.08 -0.08)">
       <use xlink:href="#DejaVuSans-73"/>
       <use xlink:href="#DejaVuSans-69" transform="translate(52.099609 0)"/>
       <use xlink:href="#DejaVuSans-67" transform="translate(79.882812 0)"/>
       <use xlink:href="#DejaVuSans-6e" transform="translate(143.359375 0)"/>
       <use xlink:href="#DejaVuSans-69" transform="translate(206.738281 0)"/>
       <use xlink:href="#DejaVuSans-66" transform="translate(234.521484 0)"/>
       <use xlink:href="#DejaVuSans-20" transform="translate(269.726562 0)"/>
       <use xlink:href="#DejaVuSans-64" transform="translate(301.513672 0)"/>
       <use xlink:href="#DejaVuSans-32" transform="translate(364.990234 0)"/>
      </g>
     </g>
    </g>
    <g id="ytick_12">
     <g id="line2d_29">
      <path d="M 53.134 46.023682
L 513.216 46.023682
" clip-path="url(#p7719124dc6)" style="fill: none; stroke: #e6e6e6; stroke-width: 0.35; stroke-linecap: square"/>
     </g>
     <g id="line2d_30">
      <path d="M 53.134 46.023682
" style="fill: none; stroke: #333333; stroke-width: 1.5; stroke-linecap: square"/>
      <g>
       <use xlink:href="#m4ed9eec6f3" x="53.134" y="46.023682" style="fill: #333333; stroke: #333333"/>
      </g>
     </g>
     <g id="text_15">
      <!-- signif d5 -->
      <g style="fill: #4d4d4d" transform="translate(14.34525 49.063057) scale(0.08 -0.08)">
       <use xlink:href="#DejaVuSans-73"/>
       <use xlink:href="#DejaVuSans-69" transform="translate(52.099609 0)"/>
       <use xlink:href="#DejaVuSans-67" transform="translate(79.882812 0)"/>
       <use xlink:href="#DejaVuSans-6e" transform="translate(143.359375 0)"/>
       <use xlink:href="#DejaVuSans-69" transform="translate(206.738281 0)"/>
       <use xlink:href="#DejaVuSans-66" transform="translate(234.521484 0)"/>
       <use xlink:href="#DejaVuSans-20" transform="translate(269.726562 0)"/>
       <use xlink:href="#DejaVuSans-64" transform="translate(301.513672 0)"/>
       <use xlink:href="#DejaVuSans-35" transform="translate(364.990234 0)"/>
      </g>
     </g>
    </g>
    <g id="ytick_13">
     <g id="line2d_31">
      <path d="M 53.134 20.498881
L 513.216 20.498881
" clip-path="url(#p7719124dc6)" style="fill: none; stroke: #e6e6e6; stroke-width: 0.35; stroke-linecap: square"/>
     </g>
     <g id="line2d_32">
      <path d="M 53.134 20.498881
" style="fill: none; stroke: #333333; stroke-width: 1.5; stroke-linecap: square"/>
      <g>
       <use xlink:href="#m4ed9eec6f3" x="53.134" y="20.498881" style="fill: #333333; stroke: #333333"/>
      </g>
     </g>
     <g id="text_16">
      <!-- signif d10 -->
      <g style="fill: #4d4d4d" transform="translate(9.25525 23.538256) scale(0.08 -0.08)">
       <use xlink:href="#DejaVuSans-73"/>
       <use xlink:href="#DejaVuSans-69" transform="translate(52.099609 0)"/>
       <use xlink:href="#DejaVuSans-67" transform="translate(79.882812 0)"/>
       <use xlink:href="#DejaVuSans-6e" transform="translate(143.359375 0)"/>
       <use xlink:href="#DejaVuSans-69" transform="translate(206.738281 0)"/>
       <use xlink:href="#DejaVuSans-66" transform="translate(234.521484 0)"/>
       <use xlink:href="#DejaVuSans-20" transform="translate(269.726562 0)"/>
       <use xlink:href="#DejaVuSans-64" transform="translate(301.513672 0)"/>
       <use xlink:href="#DejaVuSans-31" transform="translate(364.990234 0)"/>
       <use xlink:href="#DejaVuSans-30" transform="translate(428.613281 0)"/>
      </g>
     </g>
    </g>
   </g>
   <g id="LineCollection_1">
    <path d="M 166.729119 326.796494
L 272.252905 326.796494
" clip-path="url(#p7719124dc6)" style="fill: none; stroke: #004d40; stroke-width: 2.215567"/>
   </g>
   <g id="LineCollection_2">
    <path d="M 393.733368 301.271693
L 453.389545 301.271693
" clip-path="url(#p7719124dc6)" style="fill: none; stroke: #004d40; stroke-width: 2.215567"/>
   </g>
   <g id="LineCollection_3">
    <path d="M 342.051256 275.746892
L 408.162578 275.746892
" clip-path="url(#p7719124dc6)" style="fill: none; stroke: #004d40; stroke-width: 2.215567"/>
   </g>
   <g id="LineCollection_4">
    <path d="M 355.487715 250.222091
L 409.269464 250.222091
" clip-path="url(#p7719124dc6)" style="fill: none; stroke: #004d40; stroke-width: 2.215567"/>
   </g>
   <g id="LineCollection_5">
    <path d="M 346.228418 224.69729
L 406.929108 224.69729
" clip-path="url(#p7719124dc6)" style="fill: none; stroke: #004d40; stroke-width: 2.215567"/>
   </g>
   <g id="LineCollection_6">
    <path d="M 434.987149 199.172489
L 476.014567 199.172489
" clip-path="url(#p7719124dc6)" style="fill: none; stroke: #004d40; stroke-width: 2.215567"/>
   </g>
   <g id="LineCollection_7">
    <path d="M 403.337922 173.647688
L 450.668988 173.647688
" clip-path="url(#p7719124dc6)" style="fill: none; stroke: #004d40; stroke-width: 2.215567"/>
   </g>
   <g id="LineCollection_8">
    <path d="M 405.926211 148.122886
L 451.326632 148.122886
" clip-path="url(#p7719124dc6)" style="fill: none; stroke: #004d40; stroke-width: 2.215567"/>
   </g>
   <g id="LineCollection_9">
    <path d="M 433.101163 122.598085
L 492.303182 122.598085
" clip-path="url(#p7719124dc6)" style="fill: none; stroke: #004d40; stroke-width: 2.215567"/>
   </g>
   <g id="LineCollection_10">
    <path d="M 125.88149 97.073284
L 163.507535 97.073284
" clip-path="url(#p7719124dc6)" style="fill: none; stroke: #004d40; stroke-width: 2.215567"/>
   </g>
   <g id="LineCollection_11">
    <path d="M 114.394119 71.548483
L 156.154379 71.548483
" clip-path="url(#p7719124dc6)" style="fill: none; stroke: #004d40; stroke-width: 2.215567"/>
   </g>
   <g id="LineCollection_12">
    <path d="M 112.935331 46.023682
L 157.162724 46.023682
" clip-path="url(#p7719124dc6)" style="fill: none; stroke: #004d40; stroke-width: 2.215567"/>
   </g>
   <g id="LineCollection_13">
    <path d="M 112.939115 20.498881
L 151.299468 20.498881
" clip-path="url(#p7719124dc6)" style="fill: none; stroke: #004d40; stroke-width: 2.215567"/>
   </g>
   <g id="PathCollection_1">
    <path d="M 201.768912 329.366552
C 202.450499 329.366552 203.104262 329.095755 203.586217 328.6138
C 204.068172 328.131845 204.33897 327.478082 204.33897 326.796494
C 204.33897 326.114907 204.068172 325.461144 203.586217 324.979189
C 203.104262 324.497234 202.450499 324.226436 201.768912 324.226436
C 201.087324 324.226436 200.433561 324.497234 199.951606 324.979189
C 199.469651 325.461144 199.198854 326.114907 199.198854 326.796494
C 199.198854 327.478082 199.469651 328.131845 199.951606 328.6138
C 200.433561 329.095755 201.087324 329.366552 201.768912 329.366552
z
" clip-path="url(#p7719124dc6)" style="fill: #d81b60; stroke: #d81b60; stroke-width: 0.886227"/>
    <path d="M 427.616156 303.841751
C 428.297743 303.841751 428.951506 303.570954 429.433461 303.088999
C 429.915416 302.607044 430.186214 301.953281 430.186214 301.271693
C 430.186214 300.590106 429.915416 299.936343 429.433461 299.454388
C 428.951506 298.972433 428.297743 298.701635 427.616156 298.701635
C 426.934568 298.701635 426.280805 298.972433 425.79885 299.454388
C 425.316895 299.936343 425.046097 300.590106 425.046097 301.271693
C 425.046097 301.953281 425.316895 302.607044 425.79885 303.088999
C 426.280805 303.570954 426.934568 303.841751 427.616156 303.841751
z
" clip-path="url(#p7719124dc6)" style="fill: #d81b60; stroke: #d81b60; stroke-width: 0.886227"/>
    <path d="M 380.661836 278.31695
C 381.343423 278.31695 381.997186 278.046153 382.479141 277.564198
C 382.961097 277.082242 383.231894 276.428479 383.231894 275.746892
C 383.231894 275.065305 382.961097 274.411542 382.479141 273.929587
C 381.997186 273.447631 381.343423 273.176834 380.661836 273.176834
C 379.980249 273.176834 379.326486 273.447631 378.84453 273.929587
C 378.362575 274.411542 378.091778 275.065305 378.091778 275.746892
C 378.091778 276.428479 378.362575 277.082242 378.84453 277.564198
C 379.326486 278.046153 379.980249 278.31695 380.661836 278.31695
z
" clip-path="url(#p7719124dc6)" style="fill: #d81b60; stroke: #d81b60; stroke-width: 0.886227"/>
    <path d="M 384.695026 252.792149
C 385.376614 252.792149 386.030377 252.521351 386.512332 252.039396
C 386.994287 251.557441 387.265084 250.903678 387.265084 250.222091
C 387.265084 249.540504 386.994287 248.88674 386.512332 248.404785
C 386.030377 247.92283 385.376614 247.652033 384.695026 247.652033
C 384.013439 247.652033 383.359676 247.92283 382.877721 248.404785
C 382.395766 248.88674 382.124968 249.540504 382.124968 250.222091
C 382.124968 250.903678 382.395766 251.557441 382.877721 252.039396
C 383.359676 252.521351 384.013439 252.792149 384.695026 252.792149
z
" clip-path="url(#p7719124dc6)" style="fill: #d81b60; stroke: #d81b60; stroke-width: 0.886227"/>
    <path d="M 381.530595 227.267348
C 382.212183 227.267348 382.865946 226.99655 383.347901 226.514595
C 383.829856 226.03264 384.100654 225.378877 384.100654 224.69729
C 384.100654 224.015702 383.829856 223.361939 383.347901 222.879984
C 382.865946 222.398029 382.212183 222.127232 381.530595 222.127232
C 380.849008 222.127232 380.195245 222.398029 379.71329 222.879984
C 379.231335 223.361939 378.960537 224.015702 378.960537 224.69729
C 378.960537 225.378877 379.231335 226.03264 379.71329 226.514595
C 380.195245 226.99655 380.849008 227.267348 381.530595 227.267348
z
" clip-path="url(#p7719124dc6)" style="fill: #d81b60; stroke: #d81b60; stroke-width: 0.886227"/>
    <path d="M 459.912904 201.742547
C 460.594492 201.742547 461.248255 201.471749 461.73021 200.989794
C 462.212165 200.507839 462.482962 199.854076 462.482962 199.172489
C 462.482962 198.490901 462.212165 197.837138 461.73021 197.355183
C 461.248255 196.873228 460.594492 196.602431 459.912904 196.602431
C 459.231317 196.602431 458.577554 196.873228 458.095599 197.355183
C 457.613644 197.837138 457.342846 198.490901 457.342846 199.172489
C 457.342846 199.854076 457.613644 200.507839 458.095599 200.989794
C 458.577554 201.471749 459.231317 201.742547 459.912904 201.742547
z
" clip-path="url(#p7719124dc6)" style="fill: #d81b60; stroke: #d81b60; stroke-width: 0.886227"/>
    <path d="M 431.700155 176.217746
C 432.381743 176.217746 433.035506 175.946948 433.517461 175.464993
C 433.999416 174.983038 434.270213 174.329275 434.270213 173.647688
C 434.270213 172.9661 433.999416 172.312337 433.517461 171.830382
C 433.035506 171.348427 432.381743 171.077629 431.700155 171.077629
C 431.018568 171.077629 430.364805 171.348427 429.88285 171.830382
C 429.400895 172.312337 429.130097 172.9661 429.130097 173.647688
C 429.130097 174.329275 429.400895 174.983038 429.88285 175.464993
C 430.364805 175.946948 431.018568 176.217746 431.700155 176.217746
z
" clip-path="url(#p7719124dc6)" style="fill: #d81b60; stroke: #d81b60; stroke-width: 0.886227"/>
    <path d="M 432.687805 150.692944
C 433.369393 150.692944 434.023156 150.422147 434.505111 149.940192
C 434.987066 149.458237 435.257863 148.804474 435.257863 148.122886
C 435.257863 147.441299 434.987066 146.787536 434.505111 146.305581
C 434.023156 145.823626 433.369393 145.552828 432.687805 145.552828
C 432.006218 145.552828 431.352455 145.823626 430.8705 146.305581
C 430.388545 146.787536 430.117747 147.441299 430.117747 148.122886
C 430.117747 148.804474 430.388545 149.458237 430.8705 149.940192
C 431.352455 150.422147 432.006218 150.692944 432.687805 150.692944
z
" clip-path="url(#p7719124dc6)" style="fill: #d81b60; stroke: #d81b60; stroke-width: 0.886227"/>
    <path d="M 452.581567 125.168143
C 453.263155 125.168143 453.916918 124.897346 454.398873 124.415391
C 454.880828 123.933436 455.151625 123.279673 455.151625 122.598085
C 455.151625 121.916498 454.880828 121.262735 454.398873 120.78078
C 453.916918 120.298825 453.263155 120.028027 452.581567 120.028027
C 451.89998 120.028027 451.246217 120.298825 450.764262 120.78078
C 450.282307 121.262735 450.011509 121.916498 450.011509 122.598085
C 450.011509 123.279673 450.282307 123.933436 450.764262 124.415391
C 451.246217 124.897346 451.89998 125.168143 452.581567 125.168143
z
" clip-path="url(#p7719124dc6)" style="fill: #d81b60; stroke: #d81b60; stroke-width: 0.886227"/>
    <path d="M 145.815769 99.643342
C 146.497356 99.643342 147.151119 99.372545 147.633074 98.89059
C 148.115029 98.408635 148.385827 97.754871 148.385827 97.073284
C 148.385827 96.391697 148.115029 95.737934 147.633074 95.255979
C 147.151119 94.774024 146.497356 94.503226 145.815769 94.503226
C 145.134181 94.503226 144.480418 94.774024 143.998463 95.255979
C 143.516508 95.737934 143.245711 96.391697 143.245711 97.073284
C 143.245711 97.754871 143.516508 98.408635 143.998463 98.89059
C 144.480418 99.372545 145.134181 99.643342 145.815769 99.643342
z
" clip-path="url(#p7719124dc6)" style="fill: #d81b60; stroke: #d81b60; stroke-width: 0.886227"/>
    <path d="M 135.316414 74.118541
C 135.998001 74.118541 136.651765 73.847744 137.13372 73.365788
C 137.615675 72.883833 137.886472 72.23007 137.886472 71.548483
C 137.886472 70.866896 137.615675 70.213133 137.13372 69.731177
C 136.651765 69.249222 135.998001 68.978425 135.316414 68.978425
C 134.634827 68.978425 133.981064 69.249222 133.499109 69.731177
C 133.017154 70.213133 132.746356 70.866896 132.746356 71.548483
C 132.746356 72.23007 133.017154 72.883833 133.499109 73.365788
C 133.981064 73.847744 134.634827 74.118541 135.316414 74.118541
z
" clip-path="url(#p7719124dc6)" style="fill: #d81b60; stroke: #d81b60; stroke-width: 0.886227"/>
    <path d="M 137.267952 48.59374
C 137.94954 48.59374 138.603303 48.322942 139.085258 47.840987
C 139.567213 47.359032 139.83801 46.705269 139.83801 46.023682
C 139.83801 45.342094 139.567213 44.688331 139.085258 44.206376
C 138.603303 43.724421 137.94954 43.453624 137.267952 43.453624
C 136.586365 43.453624 135.932602 43.724421 135.450647 44.206376
C 134.968692 44.688331 134.697894 45.342094 134.697894 46.023682
C 134.697894 46.705269 134.968692 47.359032 135.450647 47.840987
C 135.932602 48.322942 136.586365 48.59374 137.267952 48.59374
z
" clip-path="url(#p7719124dc6)" style="fill: #d81b60; stroke: #d81b60; stroke-width: 0.886227"/>
    <path d="M 136.070771 23.068939
C 136.752358 23.068939 137.406121 22.798141 137.888077 22.316186
C 138.370032 21.834231 138.640829 21.180468 138.640829 20.498881
C 138.640829 19.817293 138.370032 19.16353 137.888077 18.681575
C 137.406121 18.19962 136.752358 17.928823 136.070771 17.928823
C 135.389184 17.928823 134.735421 18.19962 134.253466 18.681575
C 133.77151 19.16353 133.500713 19.817293 133.500713 20.498881
C 133.500713 21.180468 133.77151 21.834231 134.253466 22.316186
C 134.735421 22.798141 135.389184 23.068939 136.070771 23.068939
z
" clip-path="url(#p7719124dc6)" style="fill: #d81b60; stroke: #d81b60; stroke-width: 0.886227"/>
   </g>
   <g id="PathCollection_2">
    <path d="M 454.696884 199.920882
C 455.213951 199.920882 455.709909 199.715449 456.07553 199.349828
C 456.441151 198.984207 456.646584 198.488249 456.646584 197.971182
C 456.646584 197.454116 456.441151 196.958158 456.07553 196.592537
C 455.709909 196.226916 455.213951 196.021483 454.696884 196.021483
C 454.179818 196.021483 453.68386 196.226916 453.318239 196.592537
C 452.952618 196.958158 452.747185 197.454116 452.747185 197.971182
C 452.747185 198.488249 452.952618 198.984207 453.318239 199.349828
C 453.68386 199.715449 454.179818 199.920882 454.696884 199.920882
z
" clip-path="url(#p7719124dc6)" style="fill: #ff655d; fill-opacity: 0.678431; stroke: #ff655d; stroke-opacity: 0.678431; stroke-width: 0.886227"/>
    <path d="M 428.137469 174.354898
C 428.654535 174.354898 429.150494 174.149465 429.516115 173.783844
C 429.881736 173.418223 430.087168 172.922265 430.087168 172.405199
C 430.087168 171.888132 429.881736 171.392174 429.516115 171.026553
C 429.150494 170.660932 428.654535 170.4555 428.137469 170.4555
C 427.620403 170.4555 427.124445 170.660932 426.758824 171.026553
C 426.393203 171.392174 426.18777 171.888132 426.18777 172.405199
C 426.18777 172.922265 426.393203 173.418223 426.758824 173.783844
C 427.124445 174.149465 427.620403 174.354898 428.137469 174.354898
z
" clip-path="url(#p7719124dc6)" style="fill: #ff655d; fill-opacity: 0.678431; stroke: #ff655d; stroke-opacity: 0.678431; stroke-width: 0.886227"/>
    <path d="M 426.072454 151.499571
C 426.58952 151.499571 427.085478 151.294138 427.451099 150.928517
C 427.81672 150.562896 428.022153 150.066938 428.022153 149.549871
C 428.022153 149.032805 427.81672 148.536847 427.451099 148.171226
C 427.085478 147.805605 426.58952 147.600172 426.072454 147.600172
C 425.555388 147.600172 425.059429 147.805605 424.693808 148.171226
C 424.328187 148.536847 424.122755 149.032805 424.122755 149.549871
C 424.122755 150.066938 424.328187 150.562896 424.693808 150.928517
C 425.059429 151.294138 425.555388 151.499571 426.072454 151.499571
z
" clip-path="url(#p7719124dc6)" style="fill: #ff655d; fill-opacity: 0.678431; stroke: #ff655d; stroke-opacity: 0.678431; stroke-width: 0.886227"/>
    <path d="M 433.101163 127.177986
C 433.61823 127.177986 434.114188 126.972554 434.479809 126.606933
C 434.84543 126.241312 435.050863 125.745353 435.050863 125.228287
C 435.050863 124.711221 434.84543 124.215263 434.479809 123.849641
C 434.114188 123.48402 433.61823 123.278588 433.101163 123.278588
C 432.584097 123.278588 432.088139 123.48402 431.722518 123.849641
C 431.356897 124.215263 431.151464 124.711221 431.151464 125.228287
C 431.151464 125.745353 431.356897 126.241312 431.722518 126.606933
C 432.088139 126.972554 432.584097 127.177986 433.101163 127.177986
z
" clip-path="url(#p7719124dc6)" style="fill: #ff655d; fill-opacity: 0.678431; stroke: #ff655d; stroke-opacity: 0.678431; stroke-width: 0.886227"/>
    <path d="M 411.339735 301.459218
C 411.856801 301.459218 412.352759 301.253785 412.71838 300.888164
C 413.084002 300.522543 413.289434 300.026585 413.289434 299.509518
C 413.289434 298.992452 413.084002 298.496494 412.71838 298.130873
C 412.352759 297.765252 411.856801 297.559819 411.339735 297.559819
C 410.822669 297.559819 410.32671 297.765252 409.961089 298.130873
C 409.595468 298.496494 409.390036 298.992452 409.390036 299.509518
C 409.390036 300.026585 409.595468 300.522543 409.961089 300.888164
C 410.32671 301.253785 410.822669 301.459218 411.339735 301.459218
z
" clip-path="url(#p7719124dc6)" style="fill: #ff655d; fill-opacity: 0.678431; stroke: #ff655d; stroke-opacity: 0.678431; stroke-width: 0.886227"/>
    <path d="M 365.084341 277.413146
C 365.601407 277.413146 366.097365 277.207714 366.462986 276.842093
C 366.828607 276.476472 367.03404 275.980514 367.03404 275.463447
C 367.03404 274.946381 366.828607 274.450423 366.462986 274.084802
C 366.097365 273.719181 365.601407 273.513748 365.084341 273.513748
C 364.567274 273.513748 364.071316 273.719181 363.705695 274.084802
C 363.340074 274.450423 363.134641 274.946381 363.134641 275.463447
C 363.134641 275.980514 363.340074 276.476472 363.705695 276.842093
C 364.071316 277.207714 364.567274 277.413146 365.084341 277.413146
z
" clip-path="url(#p7719124dc6)" style="fill: #ff655d; fill-opacity: 0.678431; stroke: #ff655d; stroke-opacity: 0.678431; stroke-width: 0.886227"/>
    <path d="M 366.74131 254.359937
C 367.258377 254.359937 367.754335 254.154505 368.119956 253.788884
C 368.485577 253.423263 368.691009 252.927304 368.691009 252.410238
C 368.691009 251.893172 368.485577 251.397214 368.119956 251.031593
C 367.754335 250.665972 367.258377 250.460539 366.74131 250.460539
C 366.224244 250.460539 365.728286 250.665972 365.362665 251.031593
C 364.997044 251.397214 364.791611 251.893172 364.791611 252.410238
C 364.791611 252.927304 364.997044 253.423263 365.362665 253.788884
C 365.728286 254.154505 366.224244 254.359937 366.74131 254.359937
z
" clip-path="url(#p7719124dc6)" style="fill: #ff655d; fill-opacity: 0.678431; stroke: #ff655d; stroke-opacity: 0.678431; stroke-width: 0.886227"/>
    <path d="M 368.962289 225.320733
C 369.479355 225.320733 369.975313 225.1153 370.340934 224.749679
C 370.706555 224.384058 370.911988 223.8881 370.911988 223.371033
C 370.911988 222.853967 370.706555 222.358009 370.340934 221.992388
C 369.975313 221.626767 369.479355 221.421334 368.962289 221.421334
C 368.445223 221.421334 367.949264 221.626767 367.583643 221.992388
C 367.218022 222.358009 367.01259 222.853967 367.01259 223.371033
C 367.01259 223.8881 367.218022 224.384058 367.583643 224.749679
C 367.949264 225.1153 368.445223 225.320733 368.962289 225.320733
z
" clip-path="url(#p7719124dc6)" style="fill: #ff655d; fill-opacity: 0.678431; stroke: #ff655d; stroke-opacity: 0.678431; stroke-width: 0.886227"/>
    <path d="M 272.252905 331.07243
C 272.769971 331.07243 273.265929 330.866998 273.63155 330.501377
C 273.997171 330.135755 274.202604 329.639797 274.202604 329.122731
C 274.202604 328.605665 273.997171 328.109707 273.63155 327.744085
C 273.265929 327.378464 272.769971 327.173032 272.252905 327.173032
C 271.735838 327.173032 271.23988 327.378464 270.874259 327.744085
C 270.508638 328.109707 270.303205 328.605665 270.303205 329.122731
C 270.303205 329.639797 270.508638 330.135755 270.874259 330.501377
C 271.23988 330.866998 271.735838 331.07243 272.252905 331.07243
z
" clip-path="url(#p7719124dc6)" style="fill: #ff655d; fill-opacity: 0.678431; stroke: #ff655d; stroke-opacity: 0.678431; stroke-width: 0.886227"/>
    <path d="M 142.598389 96.576996
C 143.115456 96.576996 143.611414 96.371563 143.977035 96.005942
C 144.342656 95.640321 144.548089 95.144363 144.548089 94.627297
C 144.548089 94.11023 144.342656 93.614272 143.977035 93.248651
C 143.611414 92.88303 143.115456 92.677598 142.598389 92.677598
C 142.081323 92.677598 141.585365 92.88303 141.219744 93.248651
C 140.854123 93.614272 140.64869 94.11023 140.64869 94.627297
C 140.64869 95.144363 140.854123 95.640321 141.219744 96.005942
C 141.585365 96.371563 142.081323 96.576996 142.598389 96.576996
z
" clip-path="url(#p7719124dc6)" style="fill: #ff655d; fill-opacity: 0.678431; stroke: #ff655d; stroke-opacity: 0.678431; stroke-width: 0.886227"/>
    <path d="M 125.927993 75.574352
C 126.44506 75.574352 126.941018 75.368919 127.306639 75.003298
C 127.67226 74.637677 127.877693 74.141719 127.877693 73.624653
C 127.877693 73.107587 127.67226 72.611628 127.306639 72.246007
C 126.941018 71.880386 126.44506 71.674954 125.927993 71.674954
C 125.410927 71.674954 124.914969 71.880386 124.549348 72.246007
C 124.183727 72.611628 123.978294 73.107587 123.978294 73.624653
C 123.978294 74.141719 124.183727 74.637677 124.549348 75.003298
C 124.914969 75.368919 125.410927 75.574352 125.927993 75.574352
z
" clip-path="url(#p7719124dc6)" style="fill: #ff655d; fill-opacity: 0.678431; stroke: #ff655d; stroke-opacity: 0.678431; stroke-width: 0.886227"/>
    <path d="M 128.128387 48.924894
C 128.645453 48.924894 129.141411 48.719461 129.507032 48.35384
C 129.872653 47.988219 130.078086 47.492261 130.078086 46.975195
C 130.078086 46.458129 129.872653 45.96217 129.507032 45.596549
C 129.141411 45.230928 128.645453 45.025496 128.128387 45.025496
C 127.61132 45.025496 127.115362 45.230928 126.749741 45.596549
C 126.38412 45.96217 126.178688 46.458129 126.178688 46.975195
C 126.178688 47.492261 126.38412 47.988219 126.749741 48.35384
C 127.115362 48.719461 127.61132 48.924894 128.128387 48.924894
z
" clip-path="url(#p7719124dc6)" style="fill: #ff655d; fill-opacity: 0.678431; stroke: #ff655d; stroke-opacity: 0.678431; stroke-width: 0.886227"/>
    <path d="M 132.237645 23.988008
C 132.754711 23.988008 133.250669 23.782576 133.61629 23.416955
C 133.981911 23.051334 134.187344 22.555376 134.187344 22.038309
C 134.187344 21.521243 133.981911 21.025285 133.61629 20.659664
C 133.250669 20.294043 132.754711 20.08861 132.237645 20.08861
C 131.720579 20.08861 131.22462 20.294043 130.858999 20.659664
C 130.493378 21.025285 130.287946 21.521243 130.287946 22.038309
C 130.287946 22.555376 130.493378 23.051334 130.858999 23.416955
C 131.22462 23.782576 131.720579 23.988008 132.237645 23.988008
z
" clip-path="url(#p7719124dc6)" style="fill: #ff655d; fill-opacity: 0.678431; stroke: #ff655d; stroke-opacity: 0.678431; stroke-width: 0.886227"/>
    <path d="M 473.953016 202.492385
C 474.470083 202.492385 474.966041 202.286953 475.331662 201.921332
C 475.697283 201.555711 475.902715 201.059752 475.902715 200.542686
C 475.902715 200.02562 475.697283 199.529662 475.331662 199.164041
C 474.966041 198.79842 474.470083 198.592987 473.953016 198.592987
C 473.43595 198.592987 472.939992 198.79842 472.574371 199.164041
C 472.20875 199.529662 472.003317 200.02562 472.003317 200.542686
C 472.003317 201.059752 472.20875 201.555711 472.574371 201.921332
C 472.939992 202.286953 473.43595 202.492385 473.953016 202.492385
z
" clip-path="url(#p7719124dc6)" style="fill: #ff655d; fill-opacity: 0.678431; stroke: #ff655d; stroke-opacity: 0.678431; stroke-width: 0.886227"/>
    <path d="M 444.656241 175.887045
C 445.173308 175.887045 445.669266 175.681613 446.034887 175.315991
C 446.400508 174.95037 446.605941 174.454412 446.605941 173.937346
C 446.605941 173.42028 446.400508 172.924321 446.034887 172.5587
C 445.669266 172.193079 445.173308 171.987647 444.656241 171.987647
C 444.139175 171.987647 443.643217 172.193079 443.277596 172.5587
C 442.911975 172.924321 442.706542 173.42028 442.706542 173.937346
C 442.706542 174.454412 442.911975 174.95037 443.277596 175.315991
C 443.643217 175.681613 444.139175 175.887045 444.656241 175.887045
z
" clip-path="url(#p7719124dc6)" style="fill: #ff655d; fill-opacity: 0.678431; stroke: #ff655d; stroke-opacity: 0.678431; stroke-width: 0.886227"/>
    <path d="M 447.425924 148.435097
C 447.94299 148.435097 448.438949 148.229664 448.80457 147.864043
C 449.170191 147.498422 449.375623 147.002464 449.375623 146.485398
C 449.375623 145.968331 449.170191 145.472373 448.80457 145.106752
C 448.438949 144.741131 447.94299 144.535698 447.425924 144.535698
C 446.908858 144.535698 446.4129 144.741131 446.047279 145.106752
C 445.681657 145.472373 445.476225 145.968331 445.476225 146.485398
C 445.476225 147.002464 445.681657 147.498422 446.047279 147.864043
C 446.4129 148.229664 446.908858 148.435097 447.425924 148.435097
z
" clip-path="url(#p7719124dc6)" style="fill: #ff655d; fill-opacity: 0.678431; stroke: #ff655d; stroke-opacity: 0.678431; stroke-width: 0.886227"/>
    <path d="M 447.618546 125.813926
C 448.135612 125.813926 448.63157 125.608494 448.997191 125.242873
C 449.362813 124.877251 449.568245 124.381293 449.568245 123.864227
C 449.568245 123.347161 449.362813 122.851203 448.997191 122.485581
C 448.63157 122.11996 448.135612 121.914528 447.618546 121.914528
C 447.10148 121.914528 446.605521 122.11996 446.2399 122.485581
C 445.874279 122.851203 445.668847 123.347161 445.668847 123.864227
C 445.668847 124.381293 445.874279 124.877251 446.2399 125.242873
C 446.605521 125.608494 447.10148 125.813926 447.618546 125.813926
z
" clip-path="url(#p7719124dc6)" style="fill: #ff655d; fill-opacity: 0.678431; stroke: #ff655d; stroke-opacity: 0.678431; stroke-width: 0.886227"/>
    <path d="M 452.001974 305.87674
C 452.51904 305.87674 453.014999 305.671307 453.38062 305.305686
C 453.746241 304.940065 453.951673 304.444107 453.951673 303.92704
C 453.951673 303.409974 453.746241 302.914016 453.38062 302.548395
C 453.014999 302.182774 452.51904 301.977341 452.001974 301.977341
C 451.484908 301.977341 450.98895 302.182774 450.623329 302.548395
C 450.257708 302.914016 450.052275 303.409974 450.052275 303.92704
C 450.052275 304.444107 450.257708 304.940065 450.623329 305.305686
C 450.98895 305.671307 451.484908 305.87674 452.001974 305.87674
z
" clip-path="url(#p7719124dc6)" style="fill: #ff655d; fill-opacity: 0.678431; stroke: #ff655d; stroke-opacity: 0.678431; stroke-width: 0.886227"/>
    <path d="M 407.34917 277.857543
C 407.866236 277.857543 408.362194 277.65211 408.727815 277.286489
C 409.093437 276.920868 409.298869 276.42491 409.298869 275.907843
C 409.298869 275.390777 409.093437 274.894819 408.727815 274.529198
C 408.362194 274.163577 407.866236 273.958144 407.34917 273.958144
C 406.832104 273.958144 406.336145 274.163577 405.970524 274.529198
C 405.604903 274.894819 405.399471 275.390777 405.399471 275.907843
C 405.399471 276.42491 405.604903 276.920868 405.970524 277.286489
C 406.336145 277.65211 406.832104 277.857543 407.34917 277.857543
z
" clip-path="url(#p7719124dc6)" style="fill: #ff655d; fill-opacity: 0.678431; stroke: #ff655d; stroke-opacity: 0.678431; stroke-width: 0.886227"/>
    <path d="M 407.281616 252.077741
C 407.798682 252.077741 408.29464 251.872309 408.660261 251.506688
C 409.025882 251.141067 409.231315 250.645109 409.231315 250.128042
C 409.231315 249.610976 409.025882 249.115018 408.660261 248.749397
C 408.29464 248.383776 407.798682 248.178343 407.281616 248.178343
C 406.764549 248.178343 406.268591 248.383776 405.90297 248.749397
C 405.537349 249.115018 405.331916 249.610976 405.331916 250.128042
C 405.331916 250.645109 405.537349 251.141067 405.90297 251.506688
C 406.268591 251.872309 406.764549 252.077741 407.281616 252.077741
z
" clip-path="url(#p7719124dc6)" style="fill: #ff655d; fill-opacity: 0.678431; stroke: #ff655d; stroke-opacity: 0.678431; stroke-width: 0.886227"/>
    <path d="M 406.929108 228.7501
C 407.446174 228.7501 407.942133 228.544667 408.307754 228.179046
C 408.673375 227.813425 408.878807 227.317467 408.878807 226.800401
C 408.878807 226.283334 408.673375 225.787376 408.307754 225.421755
C 407.942133 225.056134 407.446174 224.850701 406.929108 224.850701
C 406.412042 224.850701 405.916084 225.056134 405.550463 225.421755
C 405.184842 225.787376 404.979409 226.283334 404.979409 226.800401
C 404.979409 227.317467 405.184842 227.813425 405.550463 228.179046
C 405.916084 228.544667 406.412042 228.7501 406.929108 228.7501
z
" clip-path="url(#p7719124dc6)" style="fill: #ff655d; fill-opacity: 0.678431; stroke: #ff655d; stroke-opacity: 0.678431; stroke-width: 0.886227"/>
    <path d="M 170.118221 326.685822
C 170.635288 326.685822 171.131246 326.480389 171.496867 326.114768
C 171.862488 325.749147 172.067921 325.253189 172.067921 324.736123
C 172.067921 324.219056 171.862488 323.723098 171.496867 323.357477
C 171.131246 322.991856 170.635288 322.786423 170.118221 322.786423
C 169.601155 322.786423 169.105197 322.991856 168.739576 323.357477
C 168.373955 323.723098 168.168522 324.219056 168.168522 324.736123
C 168.168522 325.253189 168.373955 325.749147 168.739576 326.114768
C 169.105197 326.480389 169.601155 326.685822 170.118221 326.685822
z
" clip-path="url(#p7719124dc6)" style="fill: #ff655d; fill-opacity: 0.678431; stroke: #ff655d; stroke-opacity: 0.678431; stroke-width: 0.886227"/>
    <path d="M 163.507535 96.394724
C 164.024602 96.394724 164.52056 96.189291 164.886181 95.82367
C 165.251802 95.458049 165.457234 94.962091 165.457234 94.445025
C 165.457234 93.927959 165.251802 93.432 164.886181 93.066379
C 164.52056 92.700758 164.024602 92.495326 163.507535 92.495326
C 162.990469 92.495326 162.494511 92.700758 162.12889 93.066379
C 161.763269 93.432 161.557836 93.927959 161.557836 94.445025
C 161.557836 94.962091 161.763269 95.458049 162.12889 95.82367
C 162.494511 96.189291 162.990469 96.394724 163.507535 96.394724
z
" clip-path="url(#p7719124dc6)" style="fill: #ff655d; fill-opacity: 0.678431; stroke: #ff655d; stroke-opacity: 0.678431; stroke-width: 0.886227"/>
    <path d="M 156.154379 72.704607
C 156.671445 72.704607 157.167403 72.499174 157.533025 72.133553
C 157.898646 71.767932 158.104078 71.271974 158.104078 70.754907
C 158.104078 70.237841 157.898646 69.741883 157.533025 69.376262
C 157.167403 69.010641 156.671445 68.805208 156.154379 68.805208
C 155.637313 68.805208 155.141355 69.010641 154.775733 69.376262
C 154.410112 69.741883 154.20468 70.237841 154.20468 70.754907
C 154.20468 71.271974 154.410112 71.767932 154.775733 72.133553
C 155.141355 72.499174 155.637313 72.704607 156.154379 72.704607
z
" clip-path="url(#p7719124dc6)" style="fill: #ff655d; fill-opacity: 0.678431; stroke: #ff655d; stroke-opacity: 0.678431; stroke-width: 0.886227"/>
    <path d="M 157.162724 50.723533
C 157.679791 50.723533 158.175749 50.518101 158.54137 50.15248
C 158.906991 49.786859 159.112424 49.290901 159.112424 48.773834
C 159.112424 48.256768 158.906991 47.76081 158.54137 47.395189
C 158.175749 47.029568 157.679791 46.824135 157.162724 46.824135
C 156.645658 46.824135 156.1497 47.029568 155.784079 47.395189
C 155.418458 47.76081 155.213025 48.256768 155.213025 48.773834
C 155.213025 49.290901 155.418458 49.786859 155.784079 50.15248
C 156.1497 50.518101 156.645658 50.723533 157.162724 50.723533
z
" clip-path="url(#p7719124dc6)" style="fill: #ff655d; fill-opacity: 0.678431; stroke: #ff655d; stroke-opacity: 0.678431; stroke-width: 0.886227"/>
    <path d="M 151.299468 19.454442
C 151.816534 19.454442 152.312492 19.249009 152.678113 18.883388
C 153.043734 18.517767 153.249167 18.021809 153.249167 17.504742
C 153.249167 16.987676 153.043734 16.491718 152.678113 16.126097
C 152.312492 15.760476 151.816534 15.555043 151.299468 15.555043
C 150.782401 15.555043 150.286443 15.760476 149.920822 16.126097
C 149.555201 16.491718 149.349768 16.987676 149.349768 17.504742
C 149.349768 18.021809 149.555201 18.517767 149.920822 18.883388
C 150.286443 19.249009 150.782401 19.454442 151.299468 19.454442
z
" clip-path="url(#p7719124dc6)" style="fill: #ff655d; fill-opacity: 0.678431; stroke: #ff655d; stroke-opacity: 0.678431; stroke-width: 0.886227"/>
    <path d="M 434.987149 202.037796
C 435.504215 202.037796 436.000173 201.832364 436.365795 201.466743
C 436.731416 201.101122 436.936848 200.605163 436.936848 200.088097
C 436.936848 199.571031 436.731416 199.075073 436.365795 198.709452
C 436.000173 198.34383 435.504215 198.138398 434.987149 198.138398
C 434.470083 198.138398 433.974125 198.34383 433.608503 198.709452
C 433.242882 199.075073 433.03745 199.571031 433.03745 200.088097
C 433.03745 200.605163 433.242882 201.101122 433.608503 201.466743
C 433.974125 201.832364 434.470083 202.037796 434.987149 202.037796
z
" clip-path="url(#p7719124dc6)" style="fill: #ff655d; fill-opacity: 0.678431; stroke: #ff655d; stroke-opacity: 0.678431; stroke-width: 0.886227"/>
    <path d="M 403.337922 177.675423
C 403.854989 177.675423 404.350947 177.46999 404.716568 177.104369
C 405.082189 176.738748 405.287622 176.24279 405.287622 175.725723
C 405.287622 175.208657 405.082189 174.712699 404.716568 174.347078
C 404.350947 173.981457 403.854989 173.776024 403.337922 173.776024
C 402.820856 173.776024 402.324898 173.981457 401.959277 174.347078
C 401.593656 174.712699 401.388223 175.208657 401.388223 175.725723
C 401.388223 176.24279 401.593656 176.738748 401.959277 177.104369
C 402.324898 177.46999 402.820856 177.675423 403.337922 177.675423
z
" clip-path="url(#p7719124dc6)" style="fill: #ff655d; fill-opacity: 0.678431; stroke: #ff655d; stroke-opacity: 0.678431; stroke-width: 0.886227"/>
    <path d="M 405.926211 152.036175
C 406.443277 152.036175 406.939236 151.830742 407.304857 151.465121
C 407.670478 151.0995 407.87591 150.603542 407.87591 150.086475
C 407.87591 149.569409 407.670478 149.073451 407.304857 148.70783
C 406.939236 148.342209 406.443277 148.136776 405.926211 148.136776
C 405.409145 148.136776 404.913187 148.342209 404.547566 148.70783
C 404.181944 149.073451 403.976512 149.569409 403.976512 150.086475
C 403.976512 150.603542 404.181944 151.0995 404.547566 151.465121
C 404.913187 151.830742 405.409145 152.036175 405.926211 152.036175
z
" clip-path="url(#p7719124dc6)" style="fill: #ff655d; fill-opacity: 0.678431; stroke: #ff655d; stroke-opacity: 0.678431; stroke-width: 0.886227"/>
    <path d="M 492.303182 126.304145
C 492.820248 126.304145 493.316206 126.098713 493.681827 125.733092
C 494.047448 125.367471 494.252881 124.871512 494.252881 124.354446
C 494.252881 123.83738 494.047448 123.341422 493.681827 122.9758
C 493.316206 122.610179 492.820248 122.404747 492.303182 122.404747
C 491.786116 122.404747 491.290157 122.610179 490.924536 122.9758
C 490.558915 123.341422 490.353483 123.83738 490.353483 124.354446
C 490.353483 124.871512 490.558915 125.367471 490.924536 125.733092
C 491.290157 126.098713 491.786116 126.304145 492.303182 126.304145
z
" clip-path="url(#p7719124dc6)" style="fill: #ff655d; fill-opacity: 0.678431; stroke: #ff655d; stroke-opacity: 0.678431; stroke-width: 0.886227"/>
    <path d="M 393.733368 305.792443
C 394.250434 305.792443 394.746392 305.58701 395.112013 305.221389
C 395.477634 304.855768 395.683067 304.35981 395.683067 303.842744
C 395.683067 303.325678 395.477634 302.829719 395.112013 302.464098
C 394.746392 302.098477 394.250434 301.893045 393.733368 301.893045
C 393.216301 301.893045 392.720343 302.098477 392.354722 302.464098
C 391.989101 302.829719 391.783668 303.325678 391.783668 303.842744
C 391.783668 304.35981 391.989101 304.855768 392.354722 305.221389
C 392.720343 305.58701 393.216301 305.792443 393.733368 305.792443
z
" clip-path="url(#p7719124dc6)" style="fill: #ff655d; fill-opacity: 0.678431; stroke: #ff655d; stroke-opacity: 0.678431; stroke-width: 0.886227"/>
    <path d="M 342.051256 280.04964
C 342.568322 280.04964 343.06428 279.844208 343.429901 279.478587
C 343.795522 279.112966 344.000955 278.617007 344.000955 278.099941
C 344.000955 277.582875 343.795522 277.086917 343.429901 276.721296
C 343.06428 276.355675 342.568322 276.150242 342.051256 276.150242
C 341.534189 276.150242 341.038231 276.355675 340.67261 276.721296
C 340.306989 277.086917 340.101556 277.582875 340.101556 278.099941
C 340.101556 278.617007 340.306989 279.112966 340.67261 279.478587
C 341.038231 279.844208 341.534189 280.04964 342.051256 280.04964
z
" clip-path="url(#p7719124dc6)" style="fill: #ff655d; fill-opacity: 0.678431; stroke: #ff655d; stroke-opacity: 0.678431; stroke-width: 0.886227"/>
    <path d="M 355.487715 252.803023
C 356.004781 252.803023 356.500739 252.59759 356.86636 252.231969
C 357.231981 251.866348 357.437414 251.37039 357.437414 250.853324
C 357.437414 250.336258 357.231981 249.840299 356.86636 249.474678
C 356.500739 249.109057 356.004781 248.903625 355.487715 248.903625
C 354.970649 248.903625 354.47469 249.109057 354.109069 249.474678
C 353.743448 249.840299 353.538016 250.336258 353.538016 250.853324
C 353.538016 251.37039 353.743448 251.866348 354.109069 252.231969
C 354.47469 252.59759 354.970649 252.803023 355.487715 252.803023
z
" clip-path="url(#p7719124dc6)" style="fill: #ff655d; fill-opacity: 0.678431; stroke: #ff655d; stroke-opacity: 0.678431; stroke-width: 0.886227"/>
    <path d="M 346.228418 224.434304
C 346.745484 224.434304 347.241442 224.228872 347.607064 223.863251
C 347.972685 223.49763 348.178117 223.001671 348.178117 222.484605
C 348.178117 221.967539 347.972685 221.471581 347.607064 221.10596
C 347.241442 220.740338 346.745484 220.534906 346.228418 220.534906
C 345.711352 220.534906 345.215394 220.740338 344.849772 221.10596
C 344.484151 221.471581 344.278719 221.967539 344.278719 222.484605
C 344.278719 223.001671 344.484151 223.49763 344.849772 223.863251
C 345.215394 224.228872 345.711352 224.434304 346.228418 224.434304
z
" clip-path="url(#p7719124dc6)" style="fill: #ff655d; fill-opacity: 0.678431; stroke: #ff655d; stroke-opacity: 0.678431; stroke-width: 0.886227"/>
    <path d="M 197.975402 330.250991
C 198.492468 330.250991 198.988426 330.045559 199.354048 329.679938
C 199.719669 329.314317 199.925101 328.818358 199.925101 328.301292
C 199.925101 327.784226 199.719669 327.288268 199.354048 326.922647
C 198.988426 326.557026 198.492468 326.351593 197.975402 326.351593
C 197.458336 326.351593 196.962377 326.557026 196.596756 326.922647
C 196.231135 327.288268 196.025703 327.784226 196.025703 328.301292
C 196.025703 328.818358 196.231135 329.314317 196.596756 329.679938
C 196.962377 330.045559 197.458336 330.250991 197.975402 330.250991
z
" clip-path="url(#p7719124dc6)" style="fill: #ff655d; fill-opacity: 0.678431; stroke: #ff655d; stroke-opacity: 0.678431; stroke-width: 0.886227"/>
    <path d="M 125.88149 99.990565
C 126.398556 99.990565 126.894515 99.785132 127.260136 99.419511
C 127.625757 99.05389 127.831189 98.557932 127.831189 98.040865
C 127.831189 97.523799 127.625757 97.027841 127.260136 96.66222
C 126.894515 96.296599 126.398556 96.091166 125.88149 96.091166
C 125.364424 96.091166 124.868466 96.296599 124.502845 96.66222
C 124.137224 97.027841 123.931791 97.523799 123.931791 98.040865
C 123.931791 98.557932 124.137224 99.05389 124.502845 99.419511
C 124.868466 99.785132 125.364424 99.990565 125.88149 99.990565
z
" clip-path="url(#p7719124dc6)" style="fill: #ff655d; fill-opacity: 0.678431; stroke: #ff655d; stroke-opacity: 0.678431; stroke-width: 0.886227"/>
    <path d="M 114.394119 75.602815
C 114.911185 75.602815 115.407143 75.397382 115.772764 75.031761
C 116.138385 74.66614 116.343818 74.170182 116.343818 73.653116
C 116.343818 73.136049 116.138385 72.640091 115.772764 72.27447
C 115.407143 71.908849 114.911185 71.703416 114.394119 71.703416
C 113.877052 71.703416 113.381094 71.908849 113.015473 72.27447
C 112.649852 72.640091 112.444419 73.136049 112.444419 73.653116
C 112.444419 74.170182 112.649852 74.66614 113.015473 75.031761
C 113.381094 75.397382 113.877052 75.602815 114.394119 75.602815
z
" clip-path="url(#p7719124dc6)" style="fill: #ff655d; fill-opacity: 0.678431; stroke: #ff655d; stroke-opacity: 0.678431; stroke-width: 0.886227"/>
    <path d="M 112.935331 45.109593
C 113.452397 45.109593 113.948355 44.904161 114.313977 44.53854
C 114.679598 44.172919 114.88503 43.67696 114.88503 43.159894
C 114.88503 42.642828 114.679598 42.14687 114.313977 41.781249
C 113.948355 41.415627 113.452397 41.210195 112.935331 41.210195
C 112.418265 41.210195 111.922307 41.415627 111.556685 41.781249
C 111.191064 42.14687 110.985632 42.642828 110.985632 43.159894
C 110.985632 43.67696 111.191064 44.172919 111.556685 44.53854
C 111.922307 44.904161 112.418265 45.109593 112.935331 45.109593
z
" clip-path="url(#p7719124dc6)" style="fill: #ff655d; fill-opacity: 0.678431; stroke: #ff655d; stroke-opacity: 0.678431; stroke-width: 0.886227"/>
    <path d="M 112.939115 22.11824
C 113.456182 22.11824 113.95214 21.912807 114.317761 21.547186
C 114.683382 21.181565 114.888815 20.685607 114.888815 20.16854
C 114.888815 19.651474 114.683382 19.155516 114.317761 18.789895
C 113.95214 18.424274 113.456182 18.218841 112.939115 18.218841
C 112.422049 18.218841 111.926091 18.424274 111.56047 18.789895
C 111.194849 19.155516 110.989416 19.651474 110.989416 20.16854
C 110.989416 20.685607 111.194849 21.181565 111.56047 21.547186
C 111.926091 21.912807 112.422049 22.11824 112.939115 22.11824
z
" clip-path="url(#p7719124dc6)" style="fill: #ff655d; fill-opacity: 0.678431; stroke: #ff655d; stroke-opacity: 0.678431; stroke-width: 0.886227"/>
    <path d="M 476.014567 199.001778
C 476.531633 199.001778 477.027592 198.796346 477.393213 198.430725
C 477.758834 198.065104 477.964266 197.569145 477.964266 197.052079
C 477.964266 196.535013 477.758834 196.039055 477.393213 195.673434
C 477.027592 195.307813 476.531633 195.10238 476.014567 195.10238
C 475.497501 195.10238 475.001543 195.307813 474.635922 195.673434
C 474.2703 196.039055 474.064868 196.535013 474.064868 197.052079
C 474.064868 197.569145 474.2703 198.065104 474.635922 198.430725
C 475.001543 198.796346 475.497501 199.001778 476.014567 199.001778
z
" clip-path="url(#p7719124dc6)" style="fill: #ff655d; fill-opacity: 0.678431; stroke: #ff655d; stroke-opacity: 0.678431; stroke-width: 0.886227"/>
    <path d="M 450.668988 175.533661
C 451.186054 175.533661 451.682013 175.328228 452.047634 174.962607
C 452.413255 174.596986 452.618687 174.101028 452.618687 173.583961
C 452.618687 173.066895 452.413255 172.570937 452.047634 172.205316
C 451.682013 171.839695 451.186054 171.634262 450.668988 171.634262
C 450.151922 171.634262 449.655964 171.839695 449.290343 172.205316
C 448.924721 172.570937 448.719289 173.066895 448.719289 173.583961
C 448.719289 174.101028 448.924721 174.596986 449.290343 174.962607
C 449.655964 175.328228 450.151922 175.533661 450.668988 175.533661
z
" clip-path="url(#p7719124dc6)" style="fill: #ff655d; fill-opacity: 0.678431; stroke: #ff655d; stroke-opacity: 0.678431; stroke-width: 0.886227"/>
    <path d="M 451.326632 148.725135
C 451.843698 148.725135 452.339656 148.519702 452.705277 148.154081
C 453.070898 147.78846 453.276331 147.292502 453.276331 146.775436
C 453.276331 146.258369 453.070898 145.762411 452.705277 145.39679
C 452.339656 145.031169 451.843698 144.825737 451.326632 144.825737
C 450.809565 144.825737 450.313607 145.031169 449.947986 145.39679
C 449.582365 145.762411 449.376932 146.258369 449.376932 146.775436
C 449.376932 147.292502 449.582365 147.78846 449.947986 148.154081
C 450.313607 148.519702 450.809565 148.725135 451.326632 148.725135
z
" clip-path="url(#p7719124dc6)" style="fill: #ff655d; fill-opacity: 0.678431; stroke: #ff655d; stroke-opacity: 0.678431; stroke-width: 0.886227"/>
    <path d="M 437.303378 127.499792
C 437.820444 127.499792 438.316403 127.29436 438.682024 126.928739
C 439.047645 126.563118 439.253077 126.06716 439.253077 125.550093
C 439.253077 125.033027 439.047645 124.537069 438.682024 124.171448
C 438.316403 123.805827 437.820444 123.600394 437.303378 123.600394
C 436.786312 123.600394 436.290354 123.805827 435.924733 124.171448
C 435.559112 124.537069 435.353679 125.033027 435.353679 125.550093
C 435.353679 126.06716 435.559112 126.563118 435.924733 126.928739
C 436.290354 127.29436 436.786312 127.499792 437.303378 127.499792
z
" clip-path="url(#p7719124dc6)" style="fill: #ff655d; fill-opacity: 0.678431; stroke: #ff655d; stroke-opacity: 0.678431; stroke-width: 0.886227"/>
    <path d="M 453.389545 303.406207
C 453.906612 303.406207 454.40257 303.200774 454.768191 302.835153
C 455.133812 302.469532 455.339245 301.973574 455.339245 301.456507
C 455.339245 300.939441 455.133812 300.443483 454.768191 300.077862
C 454.40257 299.712241 453.906612 299.506808 453.389545 299.506808
C 452.872479 299.506808 452.376521 299.712241 452.0109 300.077862
C 451.645279 300.443483 451.439846 300.939441 451.439846 301.456507
C 451.439846 301.973574 451.645279 302.469532 452.0109 302.835153
C 452.376521 303.200774 452.872479 303.406207 453.389545 303.406207
z
" clip-path="url(#p7719124dc6)" style="fill: #ff655d; fill-opacity: 0.678431; stroke: #ff655d; stroke-opacity: 0.678431; stroke-width: 0.886227"/>
    <path d="M 408.162578 279.413008
C 408.679644 279.413008 409.175602 279.207576 409.541223 278.841954
C 409.906844 278.476333 410.112277 277.980375 410.112277 277.463309
C 410.112277 276.946243 409.906844 276.450284 409.541223 276.084663
C 409.175602 275.719042 408.679644 275.51361 408.162578 275.51361
C 407.645511 275.51361 407.149553 275.719042 406.783932 276.084663
C 406.418311 276.450284 406.212878 276.946243 406.212878 277.463309
C 406.212878 277.980375 406.418311 278.476333 406.783932 278.841954
C 407.149553 279.207576 407.645511 279.413008 408.162578 279.413008
z
" clip-path="url(#p7719124dc6)" style="fill: #ff655d; fill-opacity: 0.678431; stroke: #ff655d; stroke-opacity: 0.678431; stroke-width: 0.886227"/>
    <path d="M 409.269464 253.484373
C 409.78653 253.484373 410.282488 253.27894 410.64811 252.913319
C 411.013731 252.547698 411.219163 252.05174 411.219163 251.534673
C 411.219163 251.017607 411.013731 250.521649 410.64811 250.156028
C 410.282488 249.790407 409.78653 249.584974 409.269464 249.584974
C 408.752398 249.584974 408.25644 249.790407 407.890818 250.156028
C 407.525197 250.521649 407.319765 251.017607 407.319765 251.534673
C 407.319765 252.05174 407.525197 252.547698 407.890818 252.913319
C 408.25644 253.27894 408.752398 253.484373 409.269464 253.484373
z
" clip-path="url(#p7719124dc6)" style="fill: #ff655d; fill-opacity: 0.678431; stroke: #ff655d; stroke-opacity: 0.678431; stroke-width: 0.886227"/>
    <path d="M 404.002567 228.363348
C 404.519633 228.363348 405.015591 228.157915 405.381213 227.792294
C 405.746834 227.426673 405.952266 226.930715 405.952266 226.413648
C 405.952266 225.896582 405.746834 225.400624 405.381213 225.035003
C 405.015591 224.669382 404.519633 224.463949 404.002567 224.463949
C 403.485501 224.463949 402.989542 224.669382 402.623921 225.035003
C 402.2583 225.400624 402.052868 225.896582 402.052868 226.413648
C 402.052868 226.930715 402.2583 227.426673 402.623921 227.792294
C 402.989542 228.157915 403.485501 228.363348 404.002567 228.363348
z
" clip-path="url(#p7719124dc6)" style="fill: #ff655d; fill-opacity: 0.678431; stroke: #ff655d; stroke-opacity: 0.678431; stroke-width: 0.886227"/>
    <path d="M 166.729119 327.741085
C 167.246186 327.741085 167.742144 327.535652 168.107765 327.170031
C 168.473386 326.80441 168.678819 326.308452 168.678819 325.791385
C 168.678819 325.274319 168.473386 324.778361 168.107765 324.41274
C 167.742144 324.047119 167.246186 323.841686 166.729119 323.841686
C 166.212053 323.841686 165.716095 324.047119 165.350474 324.41274
C 164.984853 324.778361 164.77942 325.274319 164.77942 325.791385
C 164.77942 326.308452 164.984853 326.80441 165.350474 327.170031
C 165.716095 327.535652 166.212053 327.741085 166.729119 327.741085
z
" clip-path="url(#p7719124dc6)" style="fill: #ff655d; fill-opacity: 0.678431; stroke: #ff655d; stroke-opacity: 0.678431; stroke-width: 0.886227"/>
    <path d="M 151.27566 101.857879
C 151.792727 101.857879 152.288685 101.652446 152.654306 101.286825
C 153.019927 100.921204 153.22536 100.425246 153.22536 99.908179
C 153.22536 99.391113 153.019927 98.895155 152.654306 98.529534
C 152.288685 98.163913 151.792727 97.95848 151.27566 97.95848
C 150.758594 97.95848 150.262636 98.163913 149.897015 98.529534
C 149.531394 98.895155 149.325961 99.391113 149.325961 99.908179
C 149.325961 100.425246 149.531394 100.921204 149.897015 101.286825
C 150.262636 101.652446 150.758594 101.857879 151.27566 101.857879
z
" clip-path="url(#p7719124dc6)" style="fill: #ff655d; fill-opacity: 0.678431; stroke: #ff655d; stroke-opacity: 0.678431; stroke-width: 0.886227"/>
    <path d="M 144.789165 70.851487
C 145.306232 70.851487 145.80219 70.646055 146.167811 70.280434
C 146.533432 69.914813 146.738865 69.418854 146.738865 68.901788
C 146.738865 68.384722 146.533432 67.888764 146.167811 67.523143
C 145.80219 67.157522 145.306232 66.952089 144.789165 66.952089
C 144.272099 66.952089 143.776141 67.157522 143.41052 67.523143
C 143.044899 67.888764 142.839466 68.384722 142.839466 68.901788
C 142.839466 69.418854 143.044899 69.914813 143.41052 70.280434
C 143.776141 70.646055 144.272099 70.851487 144.789165 70.851487
z
" clip-path="url(#p7719124dc6)" style="fill: #ff655d; fill-opacity: 0.678431; stroke: #ff655d; stroke-opacity: 0.678431; stroke-width: 0.886227"/>
    <path d="M 150.845367 45.269531
C 151.362433 45.269531 151.858391 45.064098 152.224012 44.698477
C 152.589633 44.332856 152.795066 43.836898 152.795066 43.319832
C 152.795066 42.802765 152.589633 42.306807 152.224012 41.941186
C 151.858391 41.575565 151.362433 41.370132 150.845367 41.370132
C 150.328301 41.370132 149.832342 41.575565 149.466721 41.941186
C 149.1011 42.306807 148.895668 42.802765 148.895668 43.319832
C 148.895668 43.836898 149.1011 44.332856 149.466721 44.698477
C 149.832342 45.064098 150.328301 45.269531 150.845367 45.269531
z
" clip-path="url(#p7719124dc6)" style="fill: #ff655d; fill-opacity: 0.678431; stroke: #ff655d; stroke-opacity: 0.678431; stroke-width: 0.886227"/>
    <path d="M 147.806856 22.327197
C 148.323923 22.327197 148.819881 22.121764 149.185502 21.756143
C 149.551123 21.390522 149.756556 20.894564 149.756556 20.377498
C 149.756556 19.860432 149.551123 19.364473 149.185502 18.998852
C 148.819881 18.633231 148.323923 18.427799 147.806856 18.427799
C 147.28979 18.427799 146.793832 18.633231 146.428211 18.998852
C 146.06259 19.364473 145.857157 19.860432 145.857157 20.377498
C 145.857157 20.894564 146.06259 21.390522 146.428211 21.756143
C 146.793832 22.121764 147.28979 22.327197 147.806856 22.327197
z
" clip-path="url(#p7719124dc6)" style="fill: #ff655d; fill-opacity: 0.678431; stroke: #ff655d; stroke-opacity: 0.678431; stroke-width: 0.886227"/>
   </g>
   <g id="LineCollection_14">
    <path d="M 74.046818 342.111375
L 74.046818 5.184
" clip-path="url(#p7719124dc6)" style="fill: none; stroke-dasharray: 2.295328,0.992574; stroke-dashoffset: 0; stroke: #444444; stroke-width: 0.620359"/>
   </g>
  </g>
  <g id="patch_4">
   <path d="M 53.134 342.111375
L 513.216 342.111375
L 513.216 5.184
L 53.134 5.184
L 53.134 342.111375
z
" style="fill: none; stroke: #7f7f7f; stroke-linejoin: miter"/>
  </g>
  <g id="text_17">
   <!-- C++ RADSex / rsx elapsed time (log10) -->
   <g transform="translate(184.05625 367.136313) scale(0.1 -0.1)">
    <defs>
     <path id="DejaVuSans-43" d="M 4122 4306
L 4122 3641
Q 3803 3938 3442 4084
Q 3081 4231 2675 4231
Q 1875 4231 1450 3742
Q 1025 3253 1025 2328
Q 1025 1406 1450 917
Q 1875 428 2675 428
Q 3081 428 3442 575
Q 3803 722 4122 1019
L 4122 359
Q 3791 134 3420 21
Q 3050 -91 2638 -91
Q 1578 -91 968 557
Q 359 1206 359 2328
Q 359 3453 968 4101
Q 1578 4750 2638 4750
Q 3056 4750 3426 4639
Q 3797 4528 4122 4306
z
" transform="scale(0.015625)"/>
     <path id="DejaVuSans-2b" d="M 2944 4013
L 2944 2272
L 4684 2272
L 4684 1741
L 2944 1741
L 2944 0
L 2419 0
L 2419 1741
L 678 1741
L 678 2272
L 2419 2272
L 2419 4013
L 2944 4013
z
" transform="scale(0.015625)"/>
     <path id="DejaVuSans-52" d="M 2841 2188
Q 3044 2119 3236 1894
Q 3428 1669 3622 1275
L 4263 0
L 3584 0
L 2988 1197
Q 2756 1666 2539 1819
Q 2322 1972 1947 1972
L 1259 1972
L 1259 0
L 628 0
L 628 4666
L 2053 4666
Q 2853 4666 3247 4331
Q 3641 3997 3641 3322
Q 3641 2881 3436 2590
Q 3231 2300 2841 2188
z
M 1259 4147
L 1259 2491
L 2053 2491
Q 2509 2491 2742 2702
Q 2975 2913 2975 3322
Q 2975 3731 2742 3939
Q 2509 4147 2053 4147
L 1259 4147
z
" transform="scale(0.015625)"/>
     <path id="DejaVuSans-41" d="M 2188 4044
L 1331 1722
L 3047 1722
L 2188 4044
z
M 1831 4666
L 2547 4666
L 4325 0
L 3669 0
L 3244 1197
L 1141 1197
L 716 0
L 50 0
L 1831 4666
z
" transform="scale(0.015625)"/>
     <path id="DejaVuSans-44" d="M 1259 4147
L 1259 519
L 2022 519
Q 2988 519 3436 956
Q 3884 1394 3884 2338
Q 3884 3275 3436 3711
Q 2988 4147 2022 4147
L 1259 4147
z
M 628 4666
L 1925 4666
Q 3281 4666 3915 4102
Q 4550 3538 4550 2338
Q 4550 1131 3912 565
Q 3275 0 1925 0
L 628 0
L 628 4666
z
" transform="scale(0.015625)"/>
     <path id="DejaVuSans-53" d="M 3425 4513
L 3425 3897
Q 3066 4069 2747 4153
Q 2428 4238 2131 4238
Q 1616 4238 1336 4038
Q 1056 3838 1056 3469
Q 1056 3159 1242 3001
Q 1428 2844 1947 2747
L 2328 2669
Q 3034 2534 3370 2195
Q 3706 1856 3706 1288
Q 3706 609 3251 259
Q 2797 -91 1919 -91
Q 1588 -91 1214 -16
Q 841 59 441 206
L 441 856
Q 825 641 1194 531
Q 1563 422 1919 422
Q 2459 422 2753 634
Q 3047 847 3047 1241
Q 3047 1584 2836 1778
Q 2625 1972 2144 2069
L 1759 2144
Q 1053 2284 737 2584
Q 422 2884 422 3419
Q 422 4038 858 4394
Q 1294 4750 2059 4750
Q 2388 4750 2728 4690
Q 3069 4631 3425 4513
z
" transform="scale(0.015625)"/>
     <path id="DejaVuSans-78" d="M 3513 3500
L 2247 1797
L 3578 0
L 2900 0
L 1881 1375
L 863 0
L 184 0
L 1544 1831
L 300 3500
L 978 3500
L 1906 2253
L 2834 3500
L 3513 3500
z
" transform="scale(0.015625)"/>
     <path id="DejaVuSans-2f" d="M 1625 4666
L 2156 4666
L 531 -594
L 0 -594
L 1625 4666
z
" transform="scale(0.015625)"/>
     <path id="DejaVuSans-6c" d="M 603 4863
L 1178 4863
L 1178 0
L 603 0
L 603 4863
z
" transform="scale(0.015625)"/>
     <path id="DejaVuSans-61" d="M 2194 1759
Q 1497 1759 1228 1600
Q 959 1441 959 1056
Q 959 750 1161 570
Q 1363 391 1709 391
Q 2188 391 2477 730
Q 2766 1069 2766 1631
L 2766 1759
L 2194 1759
z
M 3341 1997
L 3341 0
L 2766 0
L 2766 531
Q 2569 213 2275 61
Q 1981 -91 1556 -91
Q 1019 -91 701 211
Q 384 513 384 1019
Q 384 1609 779 1909
Q 1175 2209 1959 2209
L 2766 2209
L 2766 2266
Q 2766 2663 2505 2880
Q 2244 3097 1772 3097
Q 1472 3097 1187 3025
Q 903 2953 641 2809
L 641 3341
Q 956 3463 1253 3523
Q 1550 3584 1831 3584
Q 2591 3584 2966 3190
Q 3341 2797 3341 1997
z
" transform="scale(0.015625)"/>
     <path id="DejaVuSans-6d" d="M 3328 2828
Q 3544 3216 3844 3400
Q 4144 3584 4550 3584
Q 5097 3584 5394 3201
Q 5691 2819 5691 2113
L 5691 0
L 5113 0
L 5113 2094
Q 5113 2597 4934 2840
Q 4756 3084 4391 3084
Q 3944 3084 3684 2787
Q 3425 2491 3425 1978
L 3425 0
L 2847 0
L 2847 2094
Q 2847 2600 2669 2842
Q 2491 3084 2119 3084
Q 1678 3084 1418 2786
Q 1159 2488 1159 1978
L 1159 0
L 581 0
L 581 3500
L 1159 3500
L 1159 2956
Q 1356 3278 1631 3431
Q 1906 3584 2284 3584
Q 2666 3584 2933 3390
Q 3200 3197 3328 2828
z
" transform="scale(0.015625)"/>
     <path id="DejaVuSans-28" d="M 1984 4856
Q 1566 4138 1362 3434
Q 1159 2731 1159 2009
Q 1159 1288 1364 580
Q 1569 -128 1984 -844
L 1484 -844
Q 1016 -109 783 600
Q 550 1309 550 2009
Q 550 2706 781 3412
Q 1013 4119 1484 4856
L 1984 4856
z
" transform="scale(0.015625)"/>
     <path id="DejaVuSans-29" d="M 513 4856
L 1013 4856
Q 1481 4119 1714 3412
Q 1947 2706 1947 2009
Q 1947 1309 1714 600
Q 1481 -109 1013 -844
L 513 -844
Q 928 -128 1133 580
Q 1338 1288 1338 2009
Q 1338 2731 1133 3434
Q 928 4138 513 4856
z
" transform="scale(0.015625)"/>
    </defs>
    <use xlink:href="#DejaVuSans-43"/>
    <use xlink:href="#DejaVuSans-2b" transform="translate(69.824219 0)"/>
    <use xlink:href="#DejaVuSans-2b" transform="translate(153.613281 0)"/>
    <use xlink:href="#DejaVuSans-20" transform="translate(237.402344 0)"/>
    <use xlink:href="#DejaVuSans-52" transform="translate(269.189453 0)"/>
    <use xlink:href="#DejaVuSans-41" transform="translate(334.671875 0)"/>
    <use xlink:href="#DejaVuSans-44" transform="translate(403.080078 0)"/>
    <use xlink:href="#DejaVuSans-53" transform="translate(480.082031 0)"/>
    <use xlink:href="#DejaVuSans-65" transform="translate(543.558594 0)"/>
    <use xlink:href="#DejaVuSans-78" transform="translate(603.332031 0)"/>
    <use xlink:href="#DejaVuSans-20" transform="translate(662.511719 0)"/>
    <use xlink:href="#DejaVuSans-2f" transform="translate(694.298828 0)"/>
    <use xlink:href="#DejaVuSans-20" transform="translate(727.990234 0)"/>
    <use xlink:href="#DejaVuSans-72" transform="translate(759.777344 0)"/>
    <use xlink:href="#DejaVuSans-73" transform="translate(800.890625 0)"/>
    <use xlink:href="#DejaVuSans-78" transform="translate(852.990234 0)"/>
    <use xlink:href="#DejaVuSans-20" transform="translate(912.169922 0)"/>
    <use xlink:href="#DejaVuSans-65" transform="translate(943.957031 0)"/>
    <use xlink:href="#DejaVuSans-6c" transform="translate(1005.480469 0)"/>
    <use xlink:href="#DejaVuSans-61" transform="translate(1033.263672 0)"/>
    <use xlink:href="#DejaVuSans-70" transform="translate(1094.542969 0)"/>
    <use xlink:href="#DejaVuSans-73" transform="translate(1158.019531 0)"/>
    <use xlink:href="#DejaVuSans-65" transform="translate(1210.119141 0)"/>
    <use xlink:href="#DejaVuSans-64" transform="translate(1271.642578 0)"/>
    <use xlink:href="#DejaVuSans-20" transform="translate(1335.119141 0)"/>
    <use xlink:href="#DejaVuSans-74" transform="translate(1366.90625 0)"/>
    <use xlink:href="#DejaVuSans-69" transform="translate(1406.115234 0)"/>
    <use xlink:href="#DejaVuSans-6d" transform="translate(1433.898438 0)"/>
    <use xlink:href="#DejaVuSans-65" transform="translate(1531.310547 0)"/>
    <use xlink:href="#DejaVuSans-20" transform="translate(1592.833984 0)"/>
    <use xlink:href="#DejaVuSans-28" transform="translate(1624.621094 0)"/>
    <use xlink:href="#DejaVuSans-6c" transform="translate(1663.634766 0)"/>
    <use xlink:href="#DejaVuSans-6f" transform="translate(1691.417969 0)"/>
    <use xlink:href="#DejaVuSans-67" transform="translate(1752.599609 0)"/>
    <use xlink:href="#DejaVuSans-31" transform="translate(1816.076172 0)"/>
    <use xlink:href="#DejaVuSans-30" transform="translate(1879.699219 0)"/>
    <use xlink:href="#DejaVuSans-29" transform="translate(1943.322266 0)"/>
   </g>
  </g>
 </g>
 <defs>
  <clipPath id="p7719124dc6">
   <rect x="53.134" y="5.184" width="460.082" height="336.927375"/>
  </clipPath>
 </defs>
</svg>
