<?xml version="1.0" encoding="utf-8" standalone="no"?>
<!DOCTYPE svg PUBLIC "-//W3C//DTD SVG 1.1//EN"
  "http://www.w3.org/Graphics/SVG/1.1/DTD/svg11.dtd">
<svg xmlns:xlink="http://www.w3.org/1999/xlink" width="518.4pt" height="331.2pt" viewBox="0 0 518.4 331.2" xmlns="http://www.w3.org/2000/svg" version="1.1">
 <metadata>
  <rdf:RDF xmlns:dc="http://purl.org/dc/elements/1.1/" xmlns:cc="http://creativecommons.org/ns#" xmlns:rdf="http://www.w3.org/1999/02/22-rdf-syntax-ns#">
   <cc:Work>
    <dc:type rdf:resource="http://purl.org/dc/dcmitype/StillImage"/>
    <dc:date>2026-05-21T11:53:56.354627</dc:date>
    <dc:format>image/svg+xml</dc:format>
    <dc:creator>
     <cc:Agent>
      <dc:title>Matplotlib v3.10.9, https://matplotlib.org/</dc:title>
     </cc:Agent>
    </dc:creator>
   </cc:Work>
  </rdf:RDF>
 </metadata>
 <defs>
  <style type="text/css">*{stroke-linejoin: round; stroke-linecap: butt}</style>
 </defs>
 <g id="figure_1">
  <g id="patch_1">
   <path d="M 0 331.2
L 518.4 331.2
L 518.4 0
L 0 0
z
" style="fill: #ffffff"/>
  </g>
  <g id="patch_2">
   <path d="M 0 331.2
L 518.4 331.2
L 518.4 0
L 0 0
L 0 331.2
z
" style="fill: none; stroke: #ffffff; stroke-linejoin: miter"/>
  </g>
  <g id="axes_1">
   <g id="patch_3">
    <path d="M 37.268625 298.911375
L 142.211583 298.911375
L 142.211583 20.669
L 37.268625 20.669
z
" style="fill: #ffffff"/>
   </g>
   <g id="matplotlib.axis_1">
    <g id="xtick_1">
     <g id="line2d_1">
      <path d="M 57.939208 298.911375
L 57.939208 20.669
" clip-path="url(#pf4ae606c73)" style="fill: none; stroke: #e6e6e6; stroke-width: 0.35; stroke-linecap: square"/>
     </g>
     <g id="line2d_2">
      <path d="M 57.939208 298.911375
" style="fill: none; stroke: #333333; stroke-width: 1.5; stroke-linecap: square"/>
      <defs>
       <path id="m5b89c8e52a" d="M 0 0
L 0 2.5
" style="stroke: #333333"/>
      </defs>
      <g>
       <use xlink:href="#m5b89c8e52a" x="57.939208" y="298.911375" style="fill: #333333; stroke: #333333"/>
      </g>
     </g>
     <g id="text_1">
      <!-- 2.5 -->
      <g style="fill: #4d4d4d" transform="translate(51.577958 309.490125) scale(0.08 -0.08)">
       <defs>
        <path id="DejaVuSans-32" d="M 1228 531
L 3431 531
L 3431 0
L 469 0
L 469 531
Q 828 903 1448 1529
Q 2069 2156 2228 2338
Q 2531 2678 2651 2914
Q 2772 3150 2772 3378
Q 2772 3750 2511 3984
Q 2250 4219 1831 4219
Q 1534 4219 1204 4116
Q 875 4013 500 3803
L 500 4441
Q 881 4594 1212 4672
Q 1544 4750 1819 4750
Q 2544 4750 2975 4387
Q 3406 4025 3406 3419
Q 3406 3131 3298 2873
Q 3191 2616 2906 2266
Q 2828 2175 2409 1742
Q 1991 1309 1228 531
z
" transform="scale(0.015625)"/>
        <path id="DejaVuSans-2e" d="M 684 794
L 1344 794
L 1344 0
L 684 0
L 684 794
z
" transform="scale(0.015625)"/>
        <path id="DejaVuSans-35" d="M 691 4666
L 3169 4666
L 3169 4134
L 1269 4134
L 1269 2991
Q 1406 3038 1543 3061
Q 1681 3084 1819 3084
Q 2600 3084 3056 2656
Q 3513 2228 3513 1497
Q 3513 744 3044 326
Q 2575 -91 1722 -91
Q 1428 -91 1123 -41
Q 819 9 494 109
L 494 744
Q 775 591 1075 516
Q 1375 441 1709 441
Q 2250 441 2565 725
Q 2881 1009 2881 1497
Q 2881 1984 2565 2268
Q 2250 2553 1709 2553
Q 1456 2553 1204 2497
Q 953 2441 691 2322
L 691 4666
z
" transform="scale(0.015625)"/>
       </defs>
       <use xlink:href="#DejaVuSans-32"/>
       <use xlink:href="#DejaVuSans-2e" transform="translate(63.623047 0)"/>
       <use xlink:href="#DejaVuSans-35" transform="translate(95.410156 0)"/>
      </g>
     </g>
    </g>
    <g id="xtick_2">
     <g id="line2d_3">
      <path d="M 84.439955 298.911375
L 84.439955 20.669
" clip-path="url(#pf4ae606c73)" style="fill: none; stroke: #e6e6e6; stroke-width: 0.35; stroke-linecap: square"/>
     </g>
     <g id="line2d_4">
      <path d="M 84.439955 298.911375
" style="fill: none; stroke: #333333; stroke-width: 1.5; stroke-linecap: square"/>
      <g>
       <use xlink:href="#m5b89c8e52a" x="84.439955" y="298.911375" style="fill: #333333; stroke: #333333"/>
      </g>
     </g>
     <g id="text_2">
      <!-- 5.0 -->
      <g style="fill: #4d4d4d" transform="translate(78.078705 309.490125) scale(0.08 -0.08)">
       <defs>
        <path id="DejaVuSans-30" d="M 2034 4250
Q 1547 4250 1301 3770
Q 1056 3291 1056 2328
Q 1056 1369 1301 889
Q 1547 409 2034 409
Q 2525 409 2770 889
Q 3016 1369 3016 2328
Q 3016 3291 2770 3770
Q 2525 4250 2034 4250
z
M 2034 4750
Q 2819 4750 3233 4129
Q 3647 3509 3647 2328
Q 3647 1150 3233 529
Q 2819 -91 2034 -91
Q 1250 -91 836 529
Q 422 1150 422 2328
Q 422 3509 836 4129
Q 1250 4750 2034 4750
z
" transform="scale(0.015625)"/>
       </defs>
       <use xlink:href="#DejaVuSans-35"/>
       <use xlink:href="#DejaVuSans-2e" transform="translate(63.623047 0)"/>
       <use xlink:href="#DejaVuSans-30" transform="translate(95.410156 0)"/>
      </g>
     </g>
    </g>
    <g id="xtick_3">
     <g id="line2d_5">
      <path d="M 110.940702 298.911375
L 110.940702 20.669
" clip-path="url(#pf4ae606c73)" style="fill: none; stroke: #e6e6e6; stroke-width: 0.35; stroke-linecap: square"/>
     </g>
     <g id="line2d_6">
      <path d="M 110.940702 298.911375
" style="fill: none; stroke: #333333; stroke-width: 1.5; stroke-linecap: square"/>
      <g>
       <use xlink:href="#m5b89c8e52a" x="110.940702" y="298.911375" style="fill: #333333; stroke: #333333"/>
      </g>
     </g>
     <g id="text_3">
      <!-- 7.5 -->
      <g style="fill: #4d4d4d" transform="translate(104.579452 309.490125) scale(0.08 -0.08)">
       <defs>
        <path id="DejaVuSans-37" d="M 525 4666
L 3525 4666
L 3525 4397
L 1831 0
L 1172 0
L 2766 4134
L 525 4134
L 525 4666
z
" transform="scale(0.015625)"/>
       </defs>
       <use xlink:href="#DejaVuSans-37"/>
       <use xlink:href="#DejaVuSans-2e" transform="translate(63.623047 0)"/>
       <use xlink:href="#DejaVuSans-35" transform="translate(95.410156 0)"/>
      </g>
     </g>
    </g>
    <g id="xtick_4">
     <g id="line2d_7">
      <path d="M 137.441449 298.911375
L 137.441449 20.669
" clip-path="url(#pf4ae606c73)" style="fill: none; stroke: #e6e6e6; stroke-width: 0.35; stroke-linecap: square"/>
     </g>
     <g id="line2d_8">
      <path d="M 137.441449 298.911375
" style="fill: none; stroke: #333333; stroke-width: 1.5; stroke-linecap: square"/>
      <g>
       <use xlink:href="#m5b89c8e52a" x="137.441449" y="298.911375" style="fill: #333333; stroke: #333333"/>
      </g>
     </g>
     <g id="text_4">
      <!-- 10.0 -->
      <g style="fill: #4d4d4d" transform="translate(128.535199 309.490125) scale(0.08 -0.08)">
       <defs>
        <path id="DejaVuSans-31" d="M 794 531
L 1825 531
L 1825 4091
L 703 3866
L 703 4441
L 1819 4666
L 2450 4666
L 2450 531
L 3481 531
L 3481 0
L 794 0
L 794 531
z
" transform="scale(0.015625)"/>
       </defs>
       <use xlink:href="#DejaVuSans-31"/>
       <use xlink:href="#DejaVuSans-30" transform="translate(63.623047 0)"/>
       <use xlink:href="#DejaVuSans-2e" transform="translate(127.246094 0)"/>
       <use xlink:href="#DejaVuSans-30" transform="translate(159.033203 0)"/>
      </g>
     </g>
    </g>
    <g id="xtick_5"/>
    <g id="xtick_6"/>
    <g id="xtick_7"/>
    <g id="xtick_8"/>
   </g>
   <g id="matplotlib.axis_2">
    <g id="ytick_1">
     <g id="line2d_9">
      <path d="M 37.268625 244.348744
L 142.211583 244.348744
" clip-path="url(#pf4ae606c73)" style="fill: none; stroke: #e6e6e6; stroke-width: 0.35; stroke-linecap: square"/>
     </g>
     <g id="line2d_10">
      <path d="M 37.268625 244.348744
" style="fill: none; stroke: #333333; stroke-width: 1.5; stroke-linecap: square"/>
      <defs>
       <path id="mb39957beb2" d="M 0 0
L -2.5 0
" style="stroke: #333333"/>
      </defs>
      <g>
       <use xlink:href="#mb39957beb2" x="37.268625" y="244.348744" style="fill: #333333; stroke: #333333"/>
      </g>
     </g>
     <g id="text_5">
      <!-- 0.3 -->
      <g style="fill: #4d4d4d" transform="translate(20.046125 247.388119) scale(0.08 -0.08)">
       <defs>
        <path id="DejaVuSans-33" d="M 2597 2516
Q 3050 2419 3304 2112
Q 3559 1806 3559 1356
Q 3559 666 3084 287
Q 2609 -91 1734 -91
Q 1441 -91 1130 -33
Q 819 25 488 141
L 488 750
Q 750 597 1062 519
Q 1375 441 1716 441
Q 2309 441 2620 675
Q 2931 909 2931 1356
Q 2931 1769 2642 2001
Q 2353 2234 1838 2234
L 1294 2234
L 1294 2753
L 1863 2753
Q 2328 2753 2575 2939
Q 2822 3125 2822 3475
Q 2822 3834 2567 4026
Q 2313 4219 1838 4219
Q 1578 4219 1281 4162
Q 984 4106 628 3988
L 628 4550
Q 988 4650 1302 4700
Q 1616 4750 1894 4750
Q 2613 4750 3031 4423
Q 3450 4097 3450 3541
Q 3450 3153 3228 2886
Q 3006 2619 2597 2516
z
" transform="scale(0.015625)"/>
       </defs>
       <use xlink:href="#DejaVuSans-30"/>
       <use xlink:href="#DejaVuSans-2e" transform="translate(63.623047 0)"/>
       <use xlink:href="#DejaVuSans-33" transform="translate(95.410156 0)"/>
      </g>
     </g>
    </g>
    <g id="ytick_2">
     <g id="line2d_11">
      <path d="M 37.268625 185.304151
L 142.211583 185.304151
" clip-path="url(#pf4ae606c73)" style="fill: none; stroke: #e6e6e6; stroke-width: 0.35; stroke-linecap: square"/>
     </g>
     <g id="line2d_12">
      <path d="M 37.268625 185.304151
" style="fill: none; stroke: #333333; stroke-width: 1.5; stroke-linecap: square"/>
      <g>
       <use xlink:href="#mb39957beb2" x="37.268625" y="185.304151" style="fill: #333333; stroke: #333333"/>
      </g>
     </g>
     <g id="text_6">
      <!-- 0.5 -->
      <g style="fill: #4d4d4d" transform="translate(20.046125 188.343526) scale(0.08 -0.08)">
       <use xlink:href="#DejaVuSans-30"/>
       <use xlink:href="#DejaVuSans-2e" transform="translate(63.623047 0)"/>
       <use xlink:href="#DejaVuSans-35" transform="translate(95.410156 0)"/>
      </g>
     </g>
    </g>
    <g id="ytick_3">
     <g id="line2d_13">
      <path d="M 37.268625 105.185632
L 142.211583 105.185632
" clip-path="url(#pf4ae606c73)" style="fill: none; stroke: #e6e6e6; stroke-width: 0.35; stroke-linecap: square"/>
     </g>
     <g id="line2d_14">
      <path d="M 37.268625 105.185632
" style="fill: none; stroke: #333333; stroke-width: 1.5; stroke-linecap: square"/>
      <g>
       <use xlink:href="#mb39957beb2" x="37.268625" y="105.185632" style="fill: #333333; stroke: #333333"/>
      </g>
     </g>
     <g id="text_7">
      <!-- 1 -->
      <g style="fill: #4d4d4d" transform="translate(27.678625 108.225007) scale(0.08 -0.08)">
       <use xlink:href="#DejaVuSans-31"/>
      </g>
     </g>
    </g>
    <g id="ytick_4"/>
    <g id="ytick_5"/>
    <g id="ytick_6"/>
    <g id="ytick_7"/>
    <g id="ytick_8"/>
    <g id="ytick_9"/>
    <g id="ytick_10"/>
    <g id="ytick_11"/>
    <g id="ytick_12"/>
    <g id="ytick_13"/>
    <g id="ytick_14"/>
    <g id="ytick_15"/>
    <g id="ytick_16"/>
    <g id="ytick_17"/>
    <g id="ytick_18"/>
    <g id="ytick_19"/>
    <g id="ytick_20"/>
    <g id="ytick_21"/>
    <g id="ytick_22"/>
    <g id="ytick_23"/>
    <g id="ytick_24"/>
    <g id="ytick_25"/>
    <g id="ytick_26"/>
    <g id="ytick_27"/>
    <g id="ytick_28"/>
   </g>
   <g id="line2d_15">
    <path d="M 42.038759 286.263994
L 52.639058 280.166975
L 84.439955 279.400033
L 137.441449 279.268099
" clip-path="url(#pf4ae606c73)" style="fill: none; stroke: #004d40; stroke-width: 1.240718"/>
   </g>
   <g id="line2d_16">
    <path d="M 42.038759 247.033947
L 52.639058 235.680194
L 84.439955 232.725355
L 137.441449 233.377708
" clip-path="url(#pf4ae606c73)" style="fill: none; stroke: #1e88e5; stroke-width: 1.240718"/>
   </g>
   <g id="line2d_17">
    <path d="M 42.038759 164.10007
L 52.639058 138.178736
L 84.439955 228.038451
L 137.441449 226.507217
" clip-path="url(#pf4ae606c73)" style="fill: none; stroke: #ff655d; stroke-width: 1.240718"/>
   </g>
   <g id="line2d_18">
    <path d="M 42.038759 103.416548
L 52.639058 33.316381
L 84.439955 59.354572
L 137.441449 86.531524
" clip-path="url(#pf4ae606c73)" style="fill: none; stroke: #d81b60; stroke-width: 1.240718"/>
   </g>
   <g id="PathCollection_1">
    <path d="M 42.038759 105.543492
C 42.602832 105.543492 43.143877 105.319384 43.542736 104.920525
C 43.941596 104.521665 44.165704 103.98062 44.165704 103.416548
C 44.165704 102.852475 43.941596 102.31143 43.542736 101.912571
C 43.143877 101.513711 42.602832 101.289603 42.038759 101.289603
C 41.474687 101.289603 40.933642 101.513711 40.534783 101.912571
C 40.135923 102.31143 39.911815 102.852475 39.911815 103.416548
C 39.911815 103.98062 40.135923 104.521665 40.534783 104.920525
C 40.933642 105.319384 41.474687 105.543492 42.038759 105.543492
z
" clip-path="url(#pf4ae606c73)" style="fill: #d81b60; stroke: #d81b60; stroke-width: 0.886227"/>
    <path d="M 52.639058 35.443325
C 53.203131 35.443325 53.744176 35.219217 54.143035 34.820358
C 54.541895 34.421498 54.766003 33.880453 54.766003 33.316381
C 54.766003 32.752308 54.541895 32.211263 54.143035 31.812404
C 53.744176 31.413544 53.203131 31.189436 52.639058 31.189436
C 52.074986 31.189436 51.533941 31.413544 51.135081 31.812404
C 50.736222 32.211263 50.512114 32.752308 50.512114 33.316381
C 50.512114 33.880453 50.736222 34.421498 51.135081 34.820358
C 51.533941 35.219217 52.074986 35.443325 52.639058 35.443325
z
" clip-path="url(#pf4ae606c73)" style="fill: #d81b60; stroke: #d81b60; stroke-width: 0.886227"/>
    <path d="M 84.439955 61.481517
C 85.004027 61.481517 85.545072 61.257409 85.943932 60.858549
C 86.342791 60.45969 86.566899 59.918645 86.566899 59.354572
C 86.566899 58.7905 86.342791 58.249455 85.943932 57.850595
C 85.545072 57.451736 85.004027 57.227628 84.439955 57.227628
C 83.875882 57.227628 83.334837 57.451736 82.935978 57.850595
C 82.537118 58.249455 82.31301 58.7905 82.31301 59.354572
C 82.31301 59.918645 82.537118 60.45969 82.935978 60.858549
C 83.334837 61.257409 83.875882 61.481517 84.439955 61.481517
z
" clip-path="url(#pf4ae606c73)" style="fill: #d81b60; stroke: #d81b60; stroke-width: 0.886227"/>
    <path d="M 137.441449 88.658469
C 138.005521 88.658469 138.546566 88.43436 138.945426 88.035501
C 139.344285 87.636642 139.568393 87.095596 139.568393 86.531524
C 139.568393 85.967452 139.344285 85.426406 138.945426 85.027547
C 138.546566 84.628688 138.005521 84.404579 137.441449 84.404579
C 136.877377 84.404579 136.336331 84.628688 135.937472 85.027547
C 135.538613 85.426406 135.314504 85.967452 135.314504 86.531524
C 135.314504 87.095596 135.538613 87.636642 135.937472 88.035501
C 136.336331 88.43436 136.877377 88.658469 137.441449 88.658469
z
" clip-path="url(#pf4ae606c73)" style="fill: #d81b60; stroke: #d81b60; stroke-width: 0.886227"/>
    <path d="M 42.038759 166.227015
C 42.602832 166.227015 43.143877 166.002906 43.542736 165.604047
C 43.941596 165.205188 44.165704 164.664142 44.165704 164.10007
C 44.165704 163.535998 43.941596 162.994952 43.542736 162.596093
C 43.143877 162.197234 42.602832 161.973125 42.038759 161.973125
C 41.474687 161.973125 40.933642 162.197234 40.534783 162.596093
C 40.135923 162.994952 39.911815 163.535998 39.911815 164.10007
C 39.911815 164.664142 40.135923 165.205188 40.534783 165.604047
C 40.933642 166.002906 41.474687 166.227015 42.038759 166.227015
z
" clip-path="url(#pf4ae606c73)" style="fill: #ff655d; stroke: #ff655d; stroke-width: 0.886227"/>
    <path d="M 52.639058 140.305681
C 53.203131 140.305681 53.744176 140.081573 54.143035 139.682713
C 54.541895 139.283854 54.766003 138.742809 54.766003 138.178736
C 54.766003 137.614664 54.541895 137.073619 54.143035 136.674759
C 53.744176 136.2759 53.203131 136.051792 52.639058 136.051792
C 52.074986 136.051792 51.533941 136.2759 51.135081 136.674759
C 50.736222 137.073619 50.512114 137.614664 50.512114 138.178736
C 50.512114 138.742809 50.736222 139.283854 51.135081 139.682713
C 51.533941 140.081573 52.074986 140.305681 52.639058 140.305681
z
" clip-path="url(#pf4ae606c73)" style="fill: #ff655d; stroke: #ff655d; stroke-width: 0.886227"/>
    <path d="M 84.439955 230.165396
C 85.004027 230.165396 85.545072 229.941288 85.943932 229.542428
C 86.342791 229.143569 86.566899 228.602524 86.566899 228.038451
C 86.566899 227.474379 86.342791 226.933334 85.943932 226.534474
C 85.545072 226.135615 85.004027 225.911507 84.439955 225.911507
C 83.875882 225.911507 83.334837 226.135615 82.935978 226.534474
C 82.537118 226.933334 82.31301 227.474379 82.31301 228.038451
C 82.31301 228.602524 82.537118 229.143569 82.935978 229.542428
C 83.334837 229.941288 83.875882 230.165396 84.439955 230.165396
z
" clip-path="url(#pf4ae606c73)" style="fill: #ff655d; stroke: #ff655d; stroke-width: 0.886227"/>
    <path d="M 137.441449 228.634161
C 138.005521 228.634161 138.546566 228.410053 138.945426 228.011194
C 139.344285 227.612334 139.568393 227.071289 139.568393 226.507217
C 139.568393 225.943144 139.344285 225.402099 138.945426 225.00324
C 138.546566 224.60438 138.005521 224.380272 137.441449 224.380272
C 136.877377 224.380272 136.336331 224.60438 135.937472 225.00324
C 135.538613 225.402099 135.314504 225.943144 135.314504 226.507217
C 135.314504 227.071289 135.538613 227.612334 135.937472 228.011194
C 136.336331 228.410053 136.877377 228.634161 137.441449 228.634161
z
" clip-path="url(#pf4ae606c73)" style="fill: #ff655d; stroke: #ff655d; stroke-width: 0.886227"/>
    <path d="M 42.038759 249.160892
C 42.602832 249.160892 43.143877 248.936783 43.542736 248.537924
C 43.941596 248.139065 44.165704 247.598019 44.165704 247.033947
C 44.165704 246.469875 43.941596 245.928829 43.542736 245.52997
C 43.143877 245.131111 42.602832 244.907002 42.038759 244.907002
C 41.474687 244.907002 40.933642 245.131111 40.534783 245.52997
C 40.135923 245.928829 39.911815 246.469875 39.911815 247.033947
C 39.911815 247.598019 40.135923 248.139065 40.534783 248.537924
C 40.933642 248.936783 41.474687 249.160892 42.038759 249.160892
z
" clip-path="url(#pf4ae606c73)" style="fill: #1e88e5; stroke: #1e88e5; stroke-width: 0.886227"/>
    <path d="M 52.639058 237.807139
C 53.203131 237.807139 53.744176 237.583031 54.143035 237.184171
C 54.541895 236.785312 54.766003 236.244267 54.766003 235.680194
C 54.766003 235.116122 54.541895 234.575077 54.143035 234.176217
C 53.744176 233.777358 53.203131 233.55325 52.639058 233.55325
C 52.074986 233.55325 51.533941 233.777358 51.135081 234.176217
C 50.736222 234.575077 50.512114 235.116122 50.512114 235.680194
C 50.512114 236.244267 50.736222 236.785312 51.135081 237.184171
C 51.533941 237.583031 52.074986 237.807139 52.639058 237.807139
z
" clip-path="url(#pf4ae606c73)" style="fill: #1e88e5; stroke: #1e88e5; stroke-width: 0.886227"/>
    <path d="M 84.439955 234.852299
C 85.004027 234.852299 85.545072 234.628191 85.943932 234.229332
C 86.342791 233.830472 86.566899 233.289427 86.566899 232.725355
C 86.566899 232.161282 86.342791 231.620237 85.943932 231.221378
C 85.545072 230.822518 85.004027 230.59841 84.439955 230.59841
C 83.875882 230.59841 83.334837 230.822518 82.935978 231.221378
C 82.537118 231.620237 82.31301 232.161282 82.31301 232.725355
C 82.31301 233.289427 82.537118 233.830472 82.935978 234.229332
C 83.334837 234.628191 83.875882 234.852299 84.439955 234.852299
z
" clip-path="url(#pf4ae606c73)" style="fill: #1e88e5; stroke: #1e88e5; stroke-width: 0.886227"/>
    <path d="M 137.441449 235.504653
C 138.005521 235.504653 138.546566 235.280544 138.945426 234.881685
C 139.344285 234.482825 139.568393 233.94178 139.568393 233.377708
C 139.568393 232.813636 139.344285 232.27259 138.945426 231.873731
C 138.546566 231.474872 138.005521 231.250763 137.441449 231.250763
C 136.877377 231.250763 136.336331 231.474872 135.937472 231.873731
C 135.538613 232.27259 135.314504 232.813636 135.314504 233.377708
C 135.314504 233.94178 135.538613 234.482825 135.937472 234.881685
C 136.336331 235.280544 136.877377 235.504653 137.441449 235.504653
z
" clip-path="url(#pf4ae606c73)" style="fill: #1e88e5; stroke: #1e88e5; stroke-width: 0.886227"/>
    <path d="M 42.038759 288.390939
C 42.602832 288.390939 43.143877 288.166831 43.542736 287.767971
C 43.941596 287.369112 44.165704 286.828067 44.165704 286.263994
C 44.165704 285.699922 43.941596 285.158877 43.542736 284.760017
C 43.143877 284.361158 42.602832 284.13705 42.038759 284.13705
C 41.474687 284.13705 40.933642 284.361158 40.534783 284.760017
C 40.135923 285.158877 39.911815 285.699922 39.911815 286.263994
C 39.911815 286.828067 40.135923 287.369112 40.534783 287.767971
C 40.933642 288.166831 41.474687 288.390939 42.038759 288.390939
z
" clip-path="url(#pf4ae606c73)" style="fill: #004d40; stroke: #004d40; stroke-width: 0.886227"/>
    <path d="M 52.639058 282.293919
C 53.203131 282.293919 53.744176 282.069811 54.143035 281.670952
C 54.541895 281.272092 54.766003 280.731047 54.766003 280.166975
C 54.766003 279.602903 54.541895 279.061857 54.143035 278.662998
C 53.744176 278.264139 53.203131 278.04003 52.639058 278.04003
C 52.074986 278.04003 51.533941 278.264139 51.135081 278.662998
C 50.736222 279.061857 50.512114 279.602903 50.512114 280.166975
C 50.512114 280.731047 50.736222 281.272092 51.135081 281.670952
C 51.533941 282.069811 52.074986 282.293919 52.639058 282.293919
z
" clip-path="url(#pf4ae606c73)" style="fill: #004d40; stroke: #004d40; stroke-width: 0.886227"/>
    <path d="M 84.439955 281.526978
C 85.004027 281.526978 85.545072 281.302869 85.943932 280.90401
C 86.342791 280.505151 86.566899 279.964105 86.566899 279.400033
C 86.566899 278.835961 86.342791 278.294916 85.943932 277.896056
C 85.545072 277.497197 85.004027 277.273089 84.439955 277.273089
C 83.875882 277.273089 83.334837 277.497197 82.935978 277.896056
C 82.537118 278.294916 82.31301 278.835961 82.31301 279.400033
C 82.31301 279.964105 82.537118 280.505151 82.935978 280.90401
C 83.334837 281.302869 83.875882 281.526978 84.439955 281.526978
z
" clip-path="url(#pf4ae606c73)" style="fill: #004d40; stroke: #004d40; stroke-width: 0.886227"/>
    <path d="M 137.441449 281.395044
C 138.005521 281.395044 138.546566 281.170935 138.945426 280.772076
C 139.344285 280.373217 139.568393 279.832171 139.568393 279.268099
C 139.568393 278.704027 139.344285 278.162981 138.945426 277.764122
C 138.546566 277.365263 138.005521 277.141154 137.441449 277.141154
C 136.877377 277.141154 136.336331 277.365263 135.937472 277.764122
C 135.538613 278.162981 135.314504 278.704027 135.314504 279.268099
C 135.314504 279.832171 135.538613 280.373217 135.937472 280.772076
C 136.336331 281.170935 136.877377 281.395044 137.441449 281.395044
z
" clip-path="url(#pf4ae606c73)" style="fill: #004d40; stroke: #004d40; stroke-width: 0.886227"/>
   </g>
  </g>
  <g id="axes_2">
   <g id="patch_4">
    <path d="M 162.618083 298.911375
L 267.561042 298.911375
L 267.561042 20.669
L 162.618083 20.669
z
" style="fill: #ffffff"/>
   </g>
   <g id="matplotlib.axis_3">
    <g id="xtick_9">
     <g id="line2d_19">
      <path d="M 183.288666 298.911375
L 183.288666 20.669
" clip-path="url(#p80969a699a)" style="fill: none; stroke: #e6e6e6; stroke-width: 0.35; stroke-linecap: square"/>
     </g>
     <g id="line2d_20">
      <path d="M 183.288666 298.911375
" style="fill: none; stroke: #333333; stroke-width: 1.5; stroke-linecap: square"/>
      <g>
       <use xlink:href="#m5b89c8e52a" x="183.288666" y="298.911375" style="fill: #333333; stroke: #333333"/>
      </g>
     </g>
     <g id="text_8">
      <!-- 2.5 -->
      <g style="fill: #4d4d4d" transform="translate(176.927416 309.490125) scale(0.08 -0.08)">
       <use xlink:href="#DejaVuSans-32"/>
       <use xlink:href="#DejaVuSans-2e" transform="translate(63.623047 0)"/>
       <use xlink:href="#DejaVuSans-35" transform="translate(95.410156 0)"/>
      </g>
     </g>
    </g>
    <g id="xtick_10">
     <g id="line2d_21">
      <path d="M 209.789413 298.911375
L 209.789413 20.669
" clip-path="url(#p80969a699a)" style="fill: none; stroke: #e6e6e6; stroke-width: 0.35; stroke-linecap: square"/>
     </g>
     <g id="line2d_22">
      <path d="M 209.789413 298.911375
" style="fill: none; stroke: #333333; stroke-width: 1.5; stroke-linecap: square"/>
      <g>
       <use xlink:href="#m5b89c8e52a" x="209.789413" y="298.911375" style="fill: #333333; stroke: #333333"/>
      </g>
     </g>
     <g id="text_9">
      <!-- 5.0 -->
      <g style="fill: #4d4d4d" transform="translate(203.428163 309.490125) scale(0.08 -0.08)">
       <use xlink:href="#DejaVuSans-35"/>
       <use xlink:href="#DejaVuSans-2e" transform="translate(63.623047 0)"/>
       <use xlink:href="#DejaVuSans-30" transform="translate(95.410156 0)"/>
      </g>
     </g>
    </g>
    <g id="xtick_11">
     <g id="line2d_23">
      <path d="M 236.29016 298.911375
L 236.29016 20.669
" clip-path="url(#p80969a699a)" style="fill: none; stroke: #e6e6e6; stroke-width: 0.35; stroke-linecap: square"/>
     </g>
     <g id="line2d_24">
      <path d="M 236.29016 298.911375
" style="fill: none; stroke: #333333; stroke-width: 1.5; stroke-linecap: square"/>
      <g>
       <use xlink:href="#m5b89c8e52a" x="236.29016" y="298.911375" style="fill: #333333; stroke: #333333"/>
      </g>
     </g>
     <g id="text_10">
      <!-- 7.5 -->
      <g style="fill: #4d4d4d" transform="translate(229.92891 309.490125) scale(0.08 -0.08)">
       <use xlink:href="#DejaVuSans-37"/>
       <use xlink:href="#DejaVuSans-2e" transform="translate(63.623047 0)"/>
       <use xlink:href="#DejaVuSans-35" transform="translate(95.410156 0)"/>
      </g>
     </g>
    </g>
    <g id="xtick_12">
     <g id="line2d_25">
      <path d="M 262.790907 298.911375
L 262.790907 20.669
" clip-path="url(#p80969a699a)" style="fill: none; stroke: #e6e6e6; stroke-width: 0.35; stroke-linecap: square"/>
     </g>
     <g id="line2d_26">
      <path d="M 262.790907 298.911375
" style="fill: none; stroke: #333333; stroke-width: 1.5; stroke-linecap: square"/>
      <g>
       <use xlink:href="#m5b89c8e52a" x="262.790907" y="298.911375" style="fill: #333333; stroke: #333333"/>
      </g>
     </g>
     <g id="text_11">
      <!-- 10.0 -->
      <g style="fill: #4d4d4d" transform="translate(253.884657 309.490125) scale(0.08 -0.08)">
       <use xlink:href="#DejaVuSans-31"/>
       <use xlink:href="#DejaVuSans-30" transform="translate(63.623047 0)"/>
       <use xlink:href="#DejaVuSans-2e" transform="translate(127.246094 0)"/>
       <use xlink:href="#DejaVuSans-30" transform="translate(159.033203 0)"/>
      </g>
     </g>
    </g>
    <g id="xtick_13"/>
    <g id="xtick_14"/>
    <g id="xtick_15"/>
    <g id="xtick_16"/>
   </g>
   <g id="matplotlib.axis_4">
    <g id="ytick_29">
     <g id="line2d_27">
      <path d="M 162.618083 239.833124
L 267.561042 239.833124
" clip-path="url(#p80969a699a)" style="fill: none; stroke: #e6e6e6; stroke-width: 0.35; stroke-linecap: square"/>
     </g>
     <g id="line2d_28">
      <path d="M 162.618083 239.833124
" style="fill: none; stroke: #333333; stroke-width: 1.5; stroke-linecap: square"/>
      <g>
       <use xlink:href="#mb39957beb2" x="162.618083" y="239.833124" style="fill: #333333; stroke: #333333"/>
      </g>
     </g>
     <g id="text_12">
      <!-- 0.3 -->
      <g style="fill: #4d4d4d" transform="translate(145.395583 242.872499) scale(0.08 -0.08)">
       <use xlink:href="#DejaVuSans-30"/>
       <use xlink:href="#DejaVuSans-2e" transform="translate(63.623047 0)"/>
       <use xlink:href="#DejaVuSans-33" transform="translate(95.410156 0)"/>
      </g>
     </g>
    </g>
    <g id="ytick_30">
     <g id="line2d_29">
      <path d="M 162.618083 180.607165
L 267.561042 180.607165
" clip-path="url(#p80969a699a)" style="fill: none; stroke: #e6e6e6; stroke-width: 0.35; stroke-linecap: square"/>
     </g>
     <g id="line2d_30">
      <path d="M 162.618083 180.607165
" style="fill: none; stroke: #333333; stroke-width: 1.5; stroke-linecap: square"/>
      <g>
       <use xlink:href="#mb39957beb2" x="162.618083" y="180.607165" style="fill: #333333; stroke: #333333"/>
      </g>
     </g>
     <g id="text_13">
      <!-- 0.5 -->
      <g style="fill: #4d4d4d" transform="translate(145.395583 183.64654) scale(0.08 -0.08)">
       <use xlink:href="#DejaVuSans-30"/>
       <use xlink:href="#DejaVuSans-2e" transform="translate(63.623047 0)"/>
       <use xlink:href="#DejaVuSans-35" transform="translate(95.410156 0)"/>
      </g>
     </g>
    </g>
    <g id="ytick_31">
     <g id="line2d_31">
      <path d="M 162.618083 100.242546
L 267.561042 100.242546
" clip-path="url(#p80969a699a)" style="fill: none; stroke: #e6e6e6; stroke-width: 0.35; stroke-linecap: square"/>
     </g>
     <g id="line2d_32">
      <path d="M 162.618083 100.242546
" style="fill: none; stroke: #333333; stroke-width: 1.5; stroke-linecap: square"/>
      <g>
       <use xlink:href="#mb39957beb2" x="162.618083" y="100.242546" style="fill: #333333; stroke: #333333"/>
      </g>
     </g>
     <g id="text_14">
      <!-- 1 -->
      <g style="fill: #4d4d4d" transform="translate(153.028083 103.281921) scale(0.08 -0.08)">
       <use xlink:href="#DejaVuSans-31"/>
      </g>
     </g>
    </g>
    <g id="ytick_32"/>
    <g id="ytick_33"/>
    <g id="ytick_34"/>
    <g id="ytick_35"/>
    <g id="ytick_36"/>
    <g id="ytick_37"/>
    <g id="ytick_38"/>
    <g id="ytick_39"/>
    <g id="ytick_40"/>
    <g id="ytick_41"/>
    <g id="ytick_42"/>
    <g id="ytick_43"/>
    <g id="ytick_44"/>
    <g id="ytick_45"/>
    <g id="ytick_46"/>
    <g id="ytick_47"/>
    <g id="ytick_48"/>
    <g id="ytick_49"/>
    <g id="ytick_50"/>
    <g id="ytick_51"/>
    <g id="ytick_52"/>
    <g id="ytick_53"/>
    <g id="ytick_54"/>
    <g id="ytick_55"/>
    <g id="ytick_56"/>
   </g>
   <g id="line2d_33">
    <path d="M 167.388218 286.263994
L 177.988517 271.038103
L 209.789413 270.881401
L 262.790907 271.098819
" clip-path="url(#p80969a699a)" style="fill: none; stroke: #004d40; stroke-width: 1.240718"/>
   </g>
   <g id="line2d_34">
    <path d="M 167.388218 241.310315
L 177.988517 230.392774
L 209.789413 228.753548
L 262.790907 229.791558
" clip-path="url(#p80969a699a)" style="fill: none; stroke: #1e88e5; stroke-width: 1.240718"/>
   </g>
   <g id="line2d_35">
    <path d="M 167.388218 193.757215
L 177.988517 150.976266
L 209.789413 222.959379
L 262.790907 223.499248
" clip-path="url(#p80969a699a)" style="fill: none; stroke: #ff655d; stroke-width: 1.240718"/>
   </g>
   <g id="line2d_36">
    <path d="M 167.388218 100.510914
L 177.988517 36.74608
L 209.789413 33.316381
L 262.790907 84.322673
" clip-path="url(#p80969a699a)" style="fill: none; stroke: #d81b60; stroke-width: 1.240718"/>
   </g>
   <g id="PathCollection_2">
    <path d="M 167.388218 102.637858
C 167.95229 102.637858 168.493335 102.41375 168.892195 102.014891
C 169.291054 101.616031 169.515162 101.074986 169.515162 100.510914
C 169.515162 99.946842 169.291054 99.405796 168.892195 99.006937
C 168.493335 98.608078 167.95229 98.383969 167.388218 98.383969
C 166.824145 98.383969 166.2831 98.608078 165.884241 99.006937
C 165.485381 99.405796 165.261273 99.946842 165.261273 100.510914
C 165.261273 101.074986 165.485381 101.616031 165.884241 102.014891
C 166.2831 102.41375 166.824145 102.637858 167.388218 102.637858
z
" clip-path="url(#p80969a699a)" style="fill: #d81b60; stroke: #d81b60; stroke-width: 0.886227"/>
    <path d="M 177.988517 38.873025
C 178.552589 38.873025 179.093634 38.648917 179.492494 38.250057
C 179.891353 37.851198 180.115461 37.310153 180.115461 36.74608
C 180.115461 36.182008 179.891353 35.640963 179.492494 35.242103
C 179.093634 34.843244 178.552589 34.619136 177.988517 34.619136
C 177.424444 34.619136 176.883399 34.843244 176.48454 35.242103
C 176.08568 35.640963 175.861572 36.182008 175.861572 36.74608
C 175.861572 37.310153 176.08568 37.851198 176.48454 38.250057
C 176.883399 38.648917 177.424444 38.873025 177.988517 38.873025
z
" clip-path="url(#p80969a699a)" style="fill: #d81b60; stroke: #d81b60; stroke-width: 0.886227"/>
    <path d="M 209.789413 35.443325
C 210.353485 35.443325 210.894531 35.219217 211.29339 34.820358
C 211.692249 34.421498 211.916358 33.880453 211.916358 33.316381
C 211.916358 32.752308 211.692249 32.211263 211.29339 31.812404
C 210.894531 31.413544 210.353485 31.189436 209.789413 31.189436
C 209.225341 31.189436 208.684295 31.413544 208.285436 31.812404
C 207.886577 32.211263 207.662468 32.752308 207.662468 33.316381
C 207.662468 33.880453 207.886577 34.421498 208.285436 34.820358
C 208.684295 35.219217 209.225341 35.443325 209.789413 35.443325
z
" clip-path="url(#p80969a699a)" style="fill: #d81b60; stroke: #d81b60; stroke-width: 0.886227"/>
    <path d="M 262.790907 86.449618
C 263.35498 86.449618 263.896025 86.225509 264.294884 85.82665
C 264.693744 85.427791 264.917852 84.886745 264.917852 84.322673
C 264.917852 83.758601 264.693744 83.217556 264.294884 82.818696
C 263.896025 82.419837 263.35498 82.195729 262.790907 82.195729
C 262.226835 82.195729 261.68579 82.419837 261.28693 82.818696
C 260.888071 83.217556 260.663963 83.758601 260.663963 84.322673
C 260.663963 84.886745 260.888071 85.427791 261.28693 85.82665
C 261.68579 86.225509 262.226835 86.449618 262.790907 86.449618
z
" clip-path="url(#p80969a699a)" style="fill: #d81b60; stroke: #d81b60; stroke-width: 0.886227"/>
    <path d="M 167.388218 195.88416
C 167.95229 195.88416 168.493335 195.660052 168.892195 195.261192
C 169.291054 194.862333 169.515162 194.321288 169.515162 193.757215
C 169.515162 193.193143 169.291054 192.652098 168.892195 192.253238
C 168.493335 191.854379 167.95229 191.630271 167.388218 191.630271
C 166.824145 191.630271 166.2831 191.854379 165.884241 192.253238
C 165.485381 192.652098 165.261273 193.193143 165.261273 193.757215
C 165.261273 194.321288 165.485381 194.862333 165.884241 195.261192
C 166.2831 195.660052 166.824145 195.88416 167.388218 195.88416
z
" clip-path="url(#p80969a699a)" style="fill: #ff655d; stroke: #ff655d; stroke-width: 0.886227"/>
    <path d="M 177.988517 153.10321
C 178.552589 153.10321 179.093634 152.879102 179.492494 152.480242
C 179.891353 152.081383 180.115461 151.540338 180.115461 150.976266
C 180.115461 150.412193 179.891353 149.871148 179.492494 149.472289
C 179.093634 149.073429 178.552589 148.849321 177.988517 148.849321
C 177.424444 148.849321 176.883399 149.073429 176.48454 149.472289
C 176.08568 149.871148 175.861572 150.412193 175.861572 150.976266
C 175.861572 151.540338 176.08568 152.081383 176.48454 152.480242
C 176.883399 152.879102 177.424444 153.10321 177.988517 153.10321
z
" clip-path="url(#p80969a699a)" style="fill: #ff655d; stroke: #ff655d; stroke-width: 0.886227"/>
    <path d="M 209.789413 225.086323
C 210.353485 225.086323 210.894531 224.862215 211.29339 224.463356
C 211.692249 224.064496 211.916358 223.523451 211.916358 222.959379
C 211.916358 222.395306 211.692249 221.854261 211.29339 221.455402
C 210.894531 221.056542 210.353485 220.832434 209.789413 220.832434
C 209.225341 220.832434 208.684295 221.056542 208.285436 221.455402
C 207.886577 221.854261 207.662468 222.395306 207.662468 222.959379
C 207.662468 223.523451 207.886577 224.064496 208.285436 224.463356
C 208.684295 224.862215 209.225341 225.086323 209.789413 225.086323
z
" clip-path="url(#p80969a699a)" style="fill: #ff655d; stroke: #ff655d; stroke-width: 0.886227"/>
    <path d="M 262.790907 225.626192
C 263.35498 225.626192 263.896025 225.402084 264.294884 225.003225
C 264.693744 224.604365 264.917852 224.06332 264.917852 223.499248
C 264.917852 222.935175 264.693744 222.39413 264.294884 221.995271
C 263.896025 221.596411 263.35498 221.372303 262.790907 221.372303
C 262.226835 221.372303 261.68579 221.596411 261.28693 221.995271
C 260.888071 222.39413 260.663963 222.935175 260.663963 223.499248
C 260.663963 224.06332 260.888071 224.604365 261.28693 225.003225
C 261.68579 225.402084 262.226835 225.626192 262.790907 225.626192
z
" clip-path="url(#p80969a699a)" style="fill: #ff655d; stroke: #ff655d; stroke-width: 0.886227"/>
    <path d="M 167.388218 243.43726
C 167.95229 243.43726 168.493335 243.213151 168.892195 242.814292
C 169.291054 242.415433 169.515162 241.874387 169.515162 241.310315
C 169.515162 240.746243 169.291054 240.205198 168.892195 239.806338
C 168.493335 239.407479 167.95229 239.183371 167.388218 239.183371
C 166.824145 239.183371 166.2831 239.407479 165.884241 239.806338
C 165.485381 240.205198 165.261273 240.746243 165.261273 241.310315
C 165.261273 241.874387 165.485381 242.415433 165.884241 242.814292
C 166.2831 243.213151 166.824145 243.43726 167.388218 243.43726
z
" clip-path="url(#p80969a699a)" style="fill: #1e88e5; stroke: #1e88e5; stroke-width: 0.886227"/>
    <path d="M 177.988517 232.519718
C 178.552589 232.519718 179.093634 232.29561 179.492494 231.896751
C 179.891353 231.497891 180.115461 230.956846 180.115461 230.392774
C 180.115461 229.828701 179.891353 229.287656 179.492494 228.888797
C 179.093634 228.489937 178.552589 228.265829 177.988517 228.265829
C 177.424444 228.265829 176.883399 228.489937 176.48454 228.888797
C 176.08568 229.287656 175.861572 229.828701 175.861572 230.392774
C 175.861572 230.956846 176.08568 231.497891 176.48454 231.896751
C 176.883399 232.29561 177.424444 232.519718 177.988517 232.519718
z
" clip-path="url(#p80969a699a)" style="fill: #1e88e5; stroke: #1e88e5; stroke-width: 0.886227"/>
    <path d="M 209.789413 230.880493
C 210.353485 230.880493 210.894531 230.656384 211.29339 230.257525
C 211.692249 229.858666 211.916358 229.31762 211.916358 228.753548
C 211.916358 228.189476 211.692249 227.64843 211.29339 227.249571
C 210.894531 226.850712 210.353485 226.626603 209.789413 226.626603
C 209.225341 226.626603 208.684295 226.850712 208.285436 227.249571
C 207.886577 227.64843 207.662468 228.189476 207.662468 228.753548
C 207.662468 229.31762 207.886577 229.858666 208.285436 230.257525
C 208.684295 230.656384 209.225341 230.880493 209.789413 230.880493
z
" clip-path="url(#p80969a699a)" style="fill: #1e88e5; stroke: #1e88e5; stroke-width: 0.886227"/>
    <path d="M 262.790907 231.918503
C 263.35498 231.918503 263.896025 231.694394 264.294884 231.295535
C 264.693744 230.896676 264.917852 230.35563 264.917852 229.791558
C 264.917852 229.227486 264.693744 228.68644 264.294884 228.287581
C 263.896025 227.888722 263.35498 227.664613 262.790907 227.664613
C 262.226835 227.664613 261.68579 227.888722 261.28693 228.287581
C 260.888071 228.68644 260.663963 229.227486 260.663963 229.791558
C 260.663963 230.35563 260.888071 230.896676 261.28693 231.295535
C 261.68579 231.694394 262.226835 231.918503 262.790907 231.918503
z
" clip-path="url(#p80969a699a)" style="fill: #1e88e5; stroke: #1e88e5; stroke-width: 0.886227"/>
    <path d="M 167.388218 288.390939
C 167.95229 288.390939 168.493335 288.166831 168.892195 287.767971
C 169.291054 287.369112 169.515162 286.828067 169.515162 286.263994
C 169.515162 285.699922 169.291054 285.158877 168.892195 284.760017
C 168.493335 284.361158 167.95229 284.13705 167.388218 284.13705
C 166.824145 284.13705 166.2831 284.361158 165.884241 284.760017
C 165.485381 285.158877 165.261273 285.699922 165.261273 286.263994
C 165.261273 286.828067 165.485381 287.369112 165.884241 287.767971
C 166.2831 288.166831 166.824145 288.390939 167.388218 288.390939
z
" clip-path="url(#p80969a699a)" style="fill: #004d40; stroke: #004d40; stroke-width: 0.886227"/>
    <path d="M 177.988517 273.165048
C 178.552589 273.165048 179.093634 272.94094 179.492494 272.54208
C 179.891353 272.143221 180.115461 271.602175 180.115461 271.038103
C 180.115461 270.474031 179.891353 269.932986 179.492494 269.534126
C 179.093634 269.135267 178.552589 268.911159 177.988517 268.911159
C 177.424444 268.911159 176.883399 269.135267 176.48454 269.534126
C 176.08568 269.932986 175.861572 270.474031 175.861572 271.038103
C 175.861572 271.602175 176.08568 272.143221 176.48454 272.54208
C 176.883399 272.94094 177.424444 273.165048 177.988517 273.165048
z
" clip-path="url(#p80969a699a)" style="fill: #004d40; stroke: #004d40; stroke-width: 0.886227"/>
    <path d="M 209.789413 273.008346
C 210.353485 273.008346 210.894531 272.784238 211.29339 272.385378
C 211.692249 271.986519 211.916358 271.445474 211.916358 270.881401
C 211.916358 270.317329 211.692249 269.776284 211.29339 269.377424
C 210.894531 268.978565 210.353485 268.754457 209.789413 268.754457
C 209.225341 268.754457 208.684295 268.978565 208.285436 269.377424
C 207.886577 269.776284 207.662468 270.317329 207.662468 270.881401
C 207.662468 271.445474 207.886577 271.986519 208.285436 272.385378
C 208.684295 272.784238 209.225341 273.008346 209.789413 273.008346
z
" clip-path="url(#p80969a699a)" style="fill: #004d40; stroke: #004d40; stroke-width: 0.886227"/>
    <path d="M 262.790907 273.225763
C 263.35498 273.225763 263.896025 273.001655 264.294884 272.602796
C 264.693744 272.203936 264.917852 271.662891 264.917852 271.098819
C 264.917852 270.534747 264.693744 269.993701 264.294884 269.594842
C 263.896025 269.195983 263.35498 268.971874 262.790907 268.971874
C 262.226835 268.971874 261.68579 269.195983 261.28693 269.594842
C 260.888071 269.993701 260.663963 270.534747 260.663963 271.098819
C 260.663963 271.662891 260.888071 272.203936 261.28693 272.602796
C 261.68579 273.001655 262.226835 273.225763 262.790907 273.225763
z
" clip-path="url(#p80969a699a)" style="fill: #004d40; stroke: #004d40; stroke-width: 0.886227"/>
   </g>
  </g>
  <g id="axes_3">
   <g id="patch_5">
    <path d="M 287.967542 298.911375
L 392.9105 298.911375
L 392.9105 20.669
L 287.967542 20.669
z
" style="fill: #ffffff"/>
   </g>
   <g id="matplotlib.axis_5">
    <g id="xtick_17">
     <g id="line2d_37">
      <path d="M 308.638124 298.911375
L 308.638124 20.669
" clip-path="url(#pdcc5b2f7b1)" style="fill: none; stroke: #e6e6e6; stroke-width: 0.35; stroke-linecap: square"/>
     </g>
     <g id="line2d_38">
      <path d="M 308.638124 298.911375
" style="fill: none; stroke: #333333; stroke-width: 1.5; stroke-linecap: square"/>
      <g>
       <use xlink:href="#m5b89c8e52a" x="308.638124" y="298.911375" style="fill: #333333; stroke: #333333"/>
      </g>
     </g>
     <g id="text_15">
      <!-- 2.5 -->
      <g style="fill: #4d4d4d" transform="translate(302.276874 309.490125) scale(0.08 -0.08)">
       <use xlink:href="#DejaVuSans-32"/>
       <use xlink:href="#DejaVuSans-2e" transform="translate(63.623047 0)"/>
       <use xlink:href="#DejaVuSans-35" transform="translate(95.410156 0)"/>
      </g>
     </g>
    </g>
    <g id="xtick_18">
     <g id="line2d_39">
      <path d="M 335.138871 298.911375
L 335.138871 20.669
" clip-path="url(#pdcc5b2f7b1)" style="fill: none; stroke: #e6e6e6; stroke-width: 0.35; stroke-linecap: square"/>
     </g>
     <g id="line2d_40">
      <path d="M 335.138871 298.911375
" style="fill: none; stroke: #333333; stroke-width: 1.5; stroke-linecap: square"/>
      <g>
       <use xlink:href="#m5b89c8e52a" x="335.138871" y="298.911375" style="fill: #333333; stroke: #333333"/>
      </g>
     </g>
     <g id="text_16">
      <!-- 5.0 -->
      <g style="fill: #4d4d4d" transform="translate(328.777621 309.490125) scale(0.08 -0.08)">
       <use xlink:href="#DejaVuSans-35"/>
       <use xlink:href="#DejaVuSans-2e" transform="translate(63.623047 0)"/>
       <use xlink:href="#DejaVuSans-30" transform="translate(95.410156 0)"/>
      </g>
     </g>
    </g>
    <g id="xtick_19">
     <g id="line2d_41">
      <path d="M 361.639618 298.911375
L 361.639618 20.669
" clip-path="url(#pdcc5b2f7b1)" style="fill: none; stroke: #e6e6e6; stroke-width: 0.35; stroke-linecap: square"/>
     </g>
     <g id="line2d_42">
      <path d="M 361.639618 298.911375
" style="fill: none; stroke: #333333; stroke-width: 1.5; stroke-linecap: square"/>
      <g>
       <use xlink:href="#m5b89c8e52a" x="361.639618" y="298.911375" style="fill: #333333; stroke: #333333"/>
      </g>
     </g>
     <g id="text_17">
      <!-- 7.5 -->
      <g style="fill: #4d4d4d" transform="translate(355.278368 309.490125) scale(0.08 -0.08)">
       <use xlink:href="#DejaVuSans-37"/>
       <use xlink:href="#DejaVuSans-2e" transform="translate(63.623047 0)"/>
       <use xlink:href="#DejaVuSans-35" transform="translate(95.410156 0)"/>
      </g>
     </g>
    </g>
    <g id="xtick_20">
     <g id="line2d_43">
      <path d="M 388.140366 298.911375
L 388.140366 20.669
" clip-path="url(#pdcc5b2f7b1)" style="fill: none; stroke: #e6e6e6; stroke-width: 0.35; stroke-linecap: square"/>
     </g>
     <g id="line2d_44">
      <path d="M 388.140366 298.911375
" style="fill: none; stroke: #333333; stroke-width: 1.5; stroke-linecap: square"/>
      <g>
       <use xlink:href="#m5b89c8e52a" x="388.140366" y="298.911375" style="fill: #333333; stroke: #333333"/>
      </g>
     </g>
     <g id="text_18">
      <!-- 10.0 -->
      <g style="fill: #4d4d4d" transform="translate(379.234116 309.490125) scale(0.08 -0.08)">
       <use xlink:href="#DejaVuSans-31"/>
       <use xlink:href="#DejaVuSans-30" transform="translate(63.623047 0)"/>
       <use xlink:href="#DejaVuSans-2e" transform="translate(127.246094 0)"/>
       <use xlink:href="#DejaVuSans-30" transform="translate(159.033203 0)"/>
      </g>
     </g>
    </g>
    <g id="xtick_21"/>
    <g id="xtick_22"/>
    <g id="xtick_23"/>
    <g id="xtick_24"/>
   </g>
   <g id="matplotlib.axis_6">
    <g id="ytick_57">
     <g id="line2d_45">
      <path d="M 287.967542 212.010054
L 392.9105 212.010054
" clip-path="url(#pdcc5b2f7b1)" style="fill: none; stroke: #e6e6e6; stroke-width: 0.35; stroke-linecap: square"/>
     </g>
     <g id="line2d_46">
      <path d="M 287.967542 212.010054
" style="fill: none; stroke: #333333; stroke-width: 1.5; stroke-linecap: square"/>
      <g>
       <use xlink:href="#mb39957beb2" x="287.967542" y="212.010054" style="fill: #333333; stroke: #333333"/>
      </g>
     </g>
     <g id="text_19">
      <!-- 10 -->
      <g style="fill: #4d4d4d" transform="translate(273.287542 215.049429) scale(0.08 -0.08)">
       <use xlink:href="#DejaVuSans-31"/>
       <use xlink:href="#DejaVuSans-30" transform="translate(63.623047 0)"/>
      </g>
     </g>
    </g>
    <g id="ytick_58">
     <g id="line2d_47">
      <path d="M 287.967542 117.768948
L 392.9105 117.768948
" clip-path="url(#pdcc5b2f7b1)" style="fill: none; stroke: #e6e6e6; stroke-width: 0.35; stroke-linecap: square"/>
     </g>
     <g id="line2d_48">
      <path d="M 287.967542 117.768948
" style="fill: none; stroke: #333333; stroke-width: 1.5; stroke-linecap: square"/>
      <g>
       <use xlink:href="#mb39957beb2" x="287.967542" y="117.768948" style="fill: #333333; stroke: #333333"/>
      </g>
     </g>
     <g id="text_20">
      <!-- 20 -->
      <g style="fill: #4d4d4d" transform="translate(273.287542 120.808323) scale(0.08 -0.08)">
       <use xlink:href="#DejaVuSans-32"/>
       <use xlink:href="#DejaVuSans-30" transform="translate(63.623047 0)"/>
      </g>
     </g>
    </g>
    <g id="ytick_59">
     <g id="line2d_49">
      <path d="M 287.967542 62.641434
L 392.9105 62.641434
" clip-path="url(#pdcc5b2f7b1)" style="fill: none; stroke: #e6e6e6; stroke-width: 0.35; stroke-linecap: square"/>
     </g>
     <g id="line2d_50">
      <path d="M 287.967542 62.641434
" style="fill: none; stroke: #333333; stroke-width: 1.5; stroke-linecap: square"/>
      <g>
       <use xlink:href="#mb39957beb2" x="287.967542" y="62.641434" style="fill: #333333; stroke: #333333"/>
      </g>
     </g>
     <g id="text_21">
      <!-- 30 -->
      <g style="fill: #4d4d4d" transform="translate(273.287542 65.680809) scale(0.08 -0.08)">
       <use xlink:href="#DejaVuSans-33"/>
       <use xlink:href="#DejaVuSans-30" transform="translate(63.623047 0)"/>
      </g>
     </g>
    </g>
    <g id="ytick_60"/>
    <g id="ytick_61"/>
    <g id="ytick_62"/>
    <g id="ytick_63"/>
    <g id="ytick_64"/>
    <g id="ytick_65"/>
    <g id="ytick_66"/>
    <g id="ytick_67"/>
    <g id="ytick_68"/>
    <g id="ytick_69"/>
    <g id="ytick_70"/>
    <g id="ytick_71"/>
    <g id="ytick_72"/>
    <g id="ytick_73"/>
    <g id="ytick_74"/>
    <g id="ytick_75"/>
    <g id="ytick_76"/>
    <g id="ytick_77"/>
    <g id="ytick_78"/>
    <g id="ytick_79"/>
    <g id="ytick_80"/>
    <g id="ytick_81"/>
    <g id="ytick_82"/>
    <g id="ytick_83"/>
    <g id="ytick_84"/>
    <g id="ytick_85"/>
    <g id="ytick_86"/>
    <g id="ytick_87"/>
   </g>
   <g id="line2d_51">
    <path d="M 292.737676 278.181363
L 303.337975 284.858852
L 335.138871 285.789624
L 388.140366 286.263994
" clip-path="url(#pdcc5b2f7b1)" style="fill: none; stroke: #004d40; stroke-width: 1.240718"/>
   </g>
   <g id="line2d_52">
    <path d="M 292.737676 223.156931
L 303.337975 225.588234
L 335.138871 228.937091
L 388.140366 229.409373
" clip-path="url(#pdcc5b2f7b1)" style="fill: none; stroke: #1e88e5; stroke-width: 1.240718"/>
   </g>
   <g id="line2d_53">
    <path d="M 292.737676 177.96867
L 303.337975 205.548605
L 335.138871 219.430665
L 388.140366 220.307145
" clip-path="url(#pdcc5b2f7b1)" style="fill: none; stroke: #ff655d; stroke-width: 1.240718"/>
   </g>
   <g id="line2d_54">
    <path d="M 292.737676 33.316381
L 303.337975 48.139215
L 335.138871 40.109674
L 388.140366 42.217445
" clip-path="url(#pdcc5b2f7b1)" style="fill: none; stroke: #d81b60; stroke-width: 1.240718"/>
   </g>
   <g id="PathCollection_3">
    <path d="M 292.737676 35.443325
C 293.301748 35.443325 293.842794 35.219217 294.241653 34.820358
C 294.640512 34.421498 294.864621 33.880453 294.864621 33.316381
C 294.864621 32.752308 294.640512 32.211263 294.241653 31.812404
C 293.842794 31.413544 293.301748 31.189436 292.737676 31.189436
C 292.173604 31.189436 291.632559 31.413544 291.233699 31.812404
C 290.83484 32.211263 290.610732 32.752308 290.610732 33.316381
C 290.610732 33.880453 290.83484 34.421498 291.233699 34.820358
C 291.632559 35.219217 292.173604 35.443325 292.737676 35.443325
z
" clip-path="url(#pdcc5b2f7b1)" style="fill: #d81b60; stroke: #d81b60; stroke-width: 0.886227"/>
    <path d="M 303.337975 50.26616
C 303.902047 50.26616 304.443093 50.042051 304.841952 49.643192
C 305.240811 49.244333 305.46492 48.703287 305.46492 48.139215
C 305.46492 47.575143 305.240811 47.034097 304.841952 46.635238
C 304.443093 46.236379 303.902047 46.01227 303.337975 46.01227
C 302.773903 46.01227 302.232857 46.236379 301.833998 46.635238
C 301.435139 47.034097 301.21103 47.575143 301.21103 48.139215
C 301.21103 48.703287 301.435139 49.244333 301.833998 49.643192
C 302.232857 50.042051 302.773903 50.26616 303.337975 50.26616
z
" clip-path="url(#pdcc5b2f7b1)" style="fill: #d81b60; stroke: #d81b60; stroke-width: 0.886227"/>
    <path d="M 335.138871 42.236619
C 335.702944 42.236619 336.243989 42.012511 336.642848 41.613651
C 337.041708 41.214792 337.265816 40.673746 337.265816 40.109674
C 337.265816 39.545602 337.041708 39.004557 336.642848 38.605697
C 336.243989 38.206838 335.702944 37.98273 335.138871 37.98273
C 334.574799 37.98273 334.033754 38.206838 333.634894 38.605697
C 333.236035 39.004557 333.011927 39.545602 333.011927 40.109674
C 333.011927 40.673746 333.236035 41.214792 333.634894 41.613651
C 334.033754 42.012511 334.574799 42.236619 335.138871 42.236619
z
" clip-path="url(#pdcc5b2f7b1)" style="fill: #d81b60; stroke: #d81b60; stroke-width: 0.886227"/>
    <path d="M 388.140366 44.34439
C 388.704438 44.34439 389.245483 44.120281 389.644342 43.721422
C 390.043202 43.322563 390.26731 42.781517 390.26731 42.217445
C 390.26731 41.653373 390.043202 41.112327 389.644342 40.713468
C 389.245483 40.314609 388.704438 40.0905 388.140366 40.0905
C 387.576293 40.0905 387.035248 40.314609 386.636389 40.713468
C 386.237529 41.112327 386.013421 41.653373 386.013421 42.217445
C 386.013421 42.781517 386.237529 43.322563 386.636389 43.721422
C 387.035248 44.120281 387.576293 44.34439 388.140366 44.34439
z
" clip-path="url(#pdcc5b2f7b1)" style="fill: #d81b60; stroke: #d81b60; stroke-width: 0.886227"/>
    <path d="M 292.737676 180.095615
C 293.301748 180.095615 293.842794 179.871507 294.241653 179.472647
C 294.640512 179.073788 294.864621 178.532743 294.864621 177.96867
C 294.864621 177.404598 294.640512 176.863553 294.241653 176.464693
C 293.842794 176.065834 293.301748 175.841726 292.737676 175.841726
C 292.173604 175.841726 291.632559 176.065834 291.233699 176.464693
C 290.83484 176.863553 290.610732 177.404598 290.610732 177.96867
C 290.610732 178.532743 290.83484 179.073788 291.233699 179.472647
C 291.632559 179.871507 292.173604 180.095615 292.737676 180.095615
z
" clip-path="url(#pdcc5b2f7b1)" style="fill: #ff655d; stroke: #ff655d; stroke-width: 0.886227"/>
    <path d="M 303.337975 207.67555
C 303.902047 207.67555 304.443093 207.451441 304.841952 207.052582
C 305.240811 206.653723 305.46492 206.112677 305.46492 205.548605
C 305.46492 204.984533 305.240811 204.443487 304.841952 204.044628
C 304.443093 203.645769 303.902047 203.42166 303.337975 203.42166
C 302.773903 203.42166 302.232857 203.645769 301.833998 204.044628
C 301.435139 204.443487 301.21103 204.984533 301.21103 205.548605
C 301.21103 206.112677 301.435139 206.653723 301.833998 207.052582
C 302.232857 207.451441 302.773903 207.67555 303.337975 207.67555
z
" clip-path="url(#pdcc5b2f7b1)" style="fill: #ff655d; stroke: #ff655d; stroke-width: 0.886227"/>
    <path d="M 335.138871 221.55761
C 335.702944 221.55761 336.243989 221.333501 336.642848 220.934642
C 337.041708 220.535783 337.265816 219.994737 337.265816 219.430665
C 337.265816 218.866593 337.041708 218.325547 336.642848 217.926688
C 336.243989 217.527829 335.702944 217.30372 335.138871 217.30372
C 334.574799 217.30372 334.033754 217.527829 333.634894 217.926688
C 333.236035 218.325547 333.011927 218.866593 333.011927 219.430665
C 333.011927 219.994737 333.236035 220.535783 333.634894 220.934642
C 334.033754 221.333501 334.574799 221.55761 335.138871 221.55761
z
" clip-path="url(#pdcc5b2f7b1)" style="fill: #ff655d; stroke: #ff655d; stroke-width: 0.886227"/>
    <path d="M 388.140366 222.43409
C 388.704438 222.43409 389.245483 222.209982 389.644342 221.811122
C 390.043202 221.412263 390.26731 220.871218 390.26731 220.307145
C 390.26731 219.743073 390.043202 219.202028 389.644342 218.803168
C 389.245483 218.404309 388.704438 218.180201 388.140366 218.180201
C 387.576293 218.180201 387.035248 218.404309 386.636389 218.803168
C 386.237529 219.202028 386.013421 219.743073 386.013421 220.307145
C 386.013421 220.871218 386.237529 221.412263 386.636389 221.811122
C 387.035248 222.209982 387.576293 222.43409 388.140366 222.43409
z
" clip-path="url(#pdcc5b2f7b1)" style="fill: #ff655d; stroke: #ff655d; stroke-width: 0.886227"/>
    <path d="M 292.737676 225.283876
C 293.301748 225.283876 293.842794 225.059767 294.241653 224.660908
C 294.640512 224.262049 294.864621 223.721003 294.864621 223.156931
C 294.864621 222.592859 294.640512 222.051813 294.241653 221.652954
C 293.842794 221.254095 293.301748 221.029986 292.737676 221.029986
C 292.173604 221.029986 291.632559 221.254095 291.233699 221.652954
C 290.83484 222.051813 290.610732 222.592859 290.610732 223.156931
C 290.610732 223.721003 290.83484 224.262049 291.233699 224.660908
C 291.632559 225.059767 292.173604 225.283876 292.737676 225.283876
z
" clip-path="url(#pdcc5b2f7b1)" style="fill: #1e88e5; stroke: #1e88e5; stroke-width: 0.886227"/>
    <path d="M 303.337975 227.715179
C 303.902047 227.715179 304.443093 227.491071 304.841952 227.092211
C 305.240811 226.693352 305.46492 226.152307 305.46492 225.588234
C 305.46492 225.024162 305.240811 224.483117 304.841952 224.084257
C 304.443093 223.685398 303.902047 223.46129 303.337975 223.46129
C 302.773903 223.46129 302.232857 223.685398 301.833998 224.084257
C 301.435139 224.483117 301.21103 225.024162 301.21103 225.588234
C 301.21103 226.152307 301.435139 226.693352 301.833998 227.092211
C 302.232857 227.491071 302.773903 227.715179 303.337975 227.715179
z
" clip-path="url(#pdcc5b2f7b1)" style="fill: #1e88e5; stroke: #1e88e5; stroke-width: 0.886227"/>
    <path d="M 335.138871 231.064036
C 335.702944 231.064036 336.243989 230.839928 336.642848 230.441068
C 337.041708 230.042209 337.265816 229.501164 337.265816 228.937091
C 337.265816 228.373019 337.041708 227.831974 336.642848 227.433114
C 336.243989 227.034255 335.702944 226.810147 335.138871 226.810147
C 334.574799 226.810147 334.033754 227.034255 333.634894 227.433114
C 333.236035 227.831974 333.011927 228.373019 333.011927 228.937091
C 333.011927 229.501164 333.236035 230.042209 333.634894 230.441068
C 334.033754 230.839928 334.574799 231.064036 335.138871 231.064036
z
" clip-path="url(#pdcc5b2f7b1)" style="fill: #1e88e5; stroke: #1e88e5; stroke-width: 0.886227"/>
    <path d="M 388.140366 231.536317
C 388.704438 231.536317 389.245483 231.312209 389.644342 230.91335
C 390.043202 230.51449 390.26731 229.973445 390.26731 229.409373
C 390.26731 228.8453 390.043202 228.304255 389.644342 227.905396
C 389.245483 227.506536 388.704438 227.282428 388.140366 227.282428
C 387.576293 227.282428 387.035248 227.506536 386.636389 227.905396
C 386.237529 228.304255 386.013421 228.8453 386.013421 229.409373
C 386.013421 229.973445 386.237529 230.51449 386.636389 230.91335
C 387.035248 231.312209 387.576293 231.536317 388.140366 231.536317
z
" clip-path="url(#pdcc5b2f7b1)" style="fill: #1e88e5; stroke: #1e88e5; stroke-width: 0.886227"/>
    <path d="M 292.737676 280.308308
C 293.301748 280.308308 293.842794 280.0842 294.241653 279.68534
C 294.640512 279.286481 294.864621 278.745436 294.864621 278.181363
C 294.864621 277.617291 294.640512 277.076246 294.241653 276.677386
C 293.842794 276.278527 293.301748 276.054419 292.737676 276.054419
C 292.173604 276.054419 291.632559 276.278527 291.233699 276.677386
C 290.83484 277.076246 290.610732 277.617291 290.610732 278.181363
C 290.610732 278.745436 290.83484 279.286481 291.233699 279.68534
C 291.632559 280.0842 292.173604 280.308308 292.737676 280.308308
z
" clip-path="url(#pdcc5b2f7b1)" style="fill: #004d40; stroke: #004d40; stroke-width: 0.886227"/>
    <path d="M 303.337975 286.985797
C 303.902047 286.985797 304.443093 286.761688 304.841952 286.362829
C 305.240811 285.96397 305.46492 285.422924 305.46492 284.858852
C 305.46492 284.29478 305.240811 283.753734 304.841952 283.354875
C 304.443093 282.956016 303.902047 282.731907 303.337975 282.731907
C 302.773903 282.731907 302.232857 282.956016 301.833998 283.354875
C 301.435139 283.753734 301.21103 284.29478 301.21103 284.858852
C 301.21103 285.422924 301.435139 285.96397 301.833998 286.362829
C 302.232857 286.761688 302.773903 286.985797 303.337975 286.985797
z
" clip-path="url(#pdcc5b2f7b1)" style="fill: #004d40; stroke: #004d40; stroke-width: 0.886227"/>
    <path d="M 335.138871 287.916568
C 335.702944 287.916568 336.243989 287.69246 336.642848 287.293601
C 337.041708 286.894741 337.265816 286.353696 337.265816 285.789624
C 337.265816 285.225551 337.041708 284.684506 336.642848 284.285647
C 336.243989 283.886787 335.702944 283.662679 335.138871 283.662679
C 334.574799 283.662679 334.033754 283.886787 333.634894 284.285647
C 333.236035 284.684506 333.011927 285.225551 333.011927 285.789624
C 333.011927 286.353696 333.236035 286.894741 333.634894 287.293601
C 334.033754 287.69246 334.574799 287.916568 335.138871 287.916568
z
" clip-path="url(#pdcc5b2f7b1)" style="fill: #004d40; stroke: #004d40; stroke-width: 0.886227"/>
    <path d="M 388.140366 288.390939
C 388.704438 288.390939 389.245483 288.166831 389.644342 287.767971
C 390.043202 287.369112 390.26731 286.828067 390.26731 286.263994
C 390.26731 285.699922 390.043202 285.158877 389.644342 284.760017
C 389.245483 284.361158 388.704438 284.13705 388.140366 284.13705
C 387.576293 284.13705 387.035248 284.361158 386.636389 284.760017
C 386.237529 285.158877 386.013421 285.699922 386.013421 286.263994
C 386.013421 286.828067 386.237529 287.369112 386.636389 287.767971
C 387.035248 288.166831 387.576293 288.390939 388.140366 288.390939
z
" clip-path="url(#pdcc5b2f7b1)" style="fill: #004d40; stroke: #004d40; stroke-width: 0.886227"/>
   </g>
  </g>
  <g id="patch_6">
   <path d="M 37.268625 298.911375
L 142.211583 298.911375
L 142.211583 20.669
L 37.268625 20.669
L 37.268625 298.911375
z
" style="fill: none; stroke: #7f7f7f; stroke-linejoin: miter"/>
  </g>
  <g id="patch_7">
   <path d="M 162.618083 298.911375
L 267.561042 298.911375
L 267.561042 20.669
L 162.618083 20.669
L 162.618083 298.911375
z
" style="fill: none; stroke: #7f7f7f; stroke-linejoin: miter"/>
  </g>
  <g id="patch_8">
   <path d="M 287.967542 298.911375
L 392.9105 298.911375
L 392.9105 20.669
L 287.967542 20.669
L 287.967542 298.911375
z
" style="fill: none; stroke: #7f7f7f; stroke-linejoin: miter"/>
  </g>
  <g id="text_22">
   <!-- Minimum depth -->
   <g transform="translate(175.776281 323.936312) scale(0.1 -0.1)">
    <defs>
     <path id="DejaVuSans-4d" d="M 628 4666
L 1569 4666
L 2759 1491
L 3956 4666
L 4897 4666
L 4897 0
L 4281 0
L 4281 4097
L 3078 897
L 2444 897
L 1241 4097
L 1241 0
L 628 0
L 628 4666
z
" transform="scale(0.015625)"/>
     <path id="DejaVuSans-69" d="M 603 3500
L 1178 3500
L 1178 0
L 603 0
L 603 3500
z
M 603 4863
L 1178 4863
L 1178 4134
L 603 4134
L 603 4863
z
" transform="scale(0.015625)"/>
     <path id="DejaVuSans-6e" d="M 3513 2113
L 3513 0
L 2938 0
L 2938 2094
Q 2938 2591 2744 2837
Q 2550 3084 2163 3084
Q 1697 3084 1428 2787
Q 1159 2491 1159 1978
L 1159 0
L 581 0
L 581 3500
L 1159 3500
L 1159 2956
Q 1366 3272 1645 3428
Q 1925 3584 2291 3584
Q 2894 3584 3203 3211
Q 3513 2838 3513 2113
z
" transform="scale(0.015625)"/>
     <path id="DejaVuSans-6d" d="M 3328 2828
Q 3544 3216 3844 3400
Q 4144 3584 4550 3584
Q 5097 3584 5394 3201
Q 5691 2819 5691 2113
L 5691 0
L 5113 0
L 5113 2094
Q 5113 2597 4934 2840
Q 4756 3084 4391 3084
Q 3944 3084 3684 2787
Q 3425 2491 3425 1978
L 3425 0
L 2847 0
L 2847 2094
Q 2847 2600 2669 2842
Q 2491 3084 2119 3084
Q 1678 3084 1418 2786
Q 1159 2488 1159 1978
L 1159 0
L 581 0
L 581 3500
L 1159 3500
L 1159 2956
Q 1356 3278 1631 3431
Q 1906 3584 2284 3584
Q 2666 3584 2933 3390
Q 3200 3197 3328 2828
z
" transform="scale(0.015625)"/>
     <path id="DejaVuSans-75" d="M 544 1381
L 544 3500
L 1119 3500
L 1119 1403
Q 1119 906 1312 657
Q 1506 409 1894 409
Q 2359 409 2629 706
Q 2900 1003 2900 1516
L 2900 3500
L 3475 3500
L 3475 0
L 2900 0
L 2900 538
Q 2691 219 2414 64
Q 2138 -91 1772 -91
Q 1169 -91 856 284
Q 544 659 544 1381
z
M 1991 3584
L 1991 3584
z
" transform="scale(0.015625)"/>
     <path id="DejaVuSans-20" transform="scale(0.015625)"/>
     <path id="DejaVuSans-64" d="M 2906 2969
L 2906 4863
L 3481 4863
L 3481 0
L 2906 0
L 2906 525
Q 2725 213 2448 61
Q 2172 -91 1784 -91
Q 1150 -91 751 415
Q 353 922 353 1747
Q 353 2572 751 3078
Q 1150 3584 1784 3584
Q 2172 3584 2448 3432
Q 2725 3281 2906 2969
z
M 947 1747
Q 947 1113 1208 752
Q 1469 391 1925 391
Q 2381 391 2643 752
Q 2906 1113 2906 1747
Q 2906 2381 2643 2742
Q 2381 3103 1925 3103
Q 1469 3103 1208 2742
Q 947 2381 947 1747
z
" transform="scale(0.015625)"/>
     <path id="DejaVuSans-65" d="M 3597 1894
L 3597 1613
L 953 1613
Q 991 1019 1311 708
Q 1631 397 2203 397
Q 2534 397 2845 478
Q 3156 559 3463 722
L 3463 178
Q 3153 47 2828 -22
Q 2503 -91 2169 -91
Q 1331 -91 842 396
Q 353 884 353 1716
Q 353 2575 817 3079
Q 1281 3584 2069 3584
Q 2775 3584 3186 3129
Q 3597 2675 3597 1894
z
M 3022 2063
Q 3016 2534 2758 2815
Q 2500 3097 2075 3097
Q 1594 3097 1305 2825
Q 1016 2553 972 2059
L 3022 2063
z
" transform="scale(0.015625)"/>
     <path id="DejaVuSans-70" d="M 1159 525
L 1159 -1331
L 581 -1331
L 581 3500
L 1159 3500
L 1159 2969
Q 1341 3281 1617 3432
Q 1894 3584 2278 3584
Q 2916 3584 3314 3078
Q 3713 2572 3713 1747
Q 3713 922 3314 415
Q 2916 -91 2278 -91
Q 1894 -91 1617 61
Q 1341 213 1159 525
z
M 3116 1747
Q 3116 2381 2855 2742
Q 2594 3103 2138 3103
Q 1681 3103 1420 2742
Q 1159 2381 1159 1747
Q 1159 1113 1420 752
Q 1681 391 2138 391
Q 2594 391 2855 752
Q 3116 1113 3116 1747
z
" transform="scale(0.015625)"/>
     <path id="DejaVuSans-74" d="M 1172 4494
L 1172 3500
L 2356 3500
L 2356 3053
L 1172 3053
L 1172 1153
Q 1172 725 1289 603
Q 1406 481 1766 481
L 2356 481
L 2356 0
L 1766 0
Q 1100 0 847 248
Q 594 497 594 1153
L 594 3053
L 172 3053
L 172 3500
L 594 3500
L 594 4494
L 1172 4494
z
" transform="scale(0.015625)"/>
     <path id="DejaVuSans-68" d="M 3513 2113
L 3513 0
L 2938 0
L 2938 2094
Q 2938 2591 2744 2837
Q 2550 3084 2163 3084
Q 1697 3084 1428 2787
Q 1159 2491 1159 1978
L 1159 0
L 581 0
L 581 4863
L 1159 4863
L 1159 2956
Q 1366 3272 1645 3428
Q 1925 3584 2291 3584
Q 2894 3584 3203 3211
Q 3513 2838 3513 2113
z
" transform="scale(0.015625)"/>
    </defs>
    <use xlink:href="#DejaVuSans-4d"/>
    <use xlink:href="#DejaVuSans-69" transform="translate(86.279297 0)"/>
    <use xlink:href="#DejaVuSans-6e" transform="translate(114.0625 0)"/>
    <use xlink:href="#DejaVuSans-69" transform="translate(177.441406 0)"/>
    <use xlink:href="#DejaVuSans-6d" transform="translate(205.224609 0)"/>
    <use xlink:href="#DejaVuSans-75" transform="translate(302.636719 0)"/>
    <use xlink:href="#DejaVuSans-6d" transform="translate(366.015625 0)"/>
    <use xlink:href="#DejaVuSans-20" transform="translate(463.427734 0)"/>
    <use xlink:href="#DejaVuSans-64" transform="translate(495.214844 0)"/>
    <use xlink:href="#DejaVuSans-65" transform="translate(558.691406 0)"/>
    <use xlink:href="#DejaVuSans-70" transform="translate(620.214844 0)"/>
    <use xlink:href="#DejaVuSans-74" transform="translate(683.691406 0)"/>
    <use xlink:href="#DejaVuSans-68" transform="translate(722.900391 0)"/>
   </g>
  </g>
  <g id="text_23">
   <!-- Elapsed seconds (log10) -->
   <g transform="translate(12.782438 220.934719) rotate(-90) scale(0.1 -0.1)">
    <defs>
     <path id="DejaVuSans-45" d="M 628 4666
L 3578 4666
L 3578 4134
L 1259 4134
L 1259 2753
L 3481 2753
L 3481 2222
L 1259 2222
L 1259 531
L 3634 531
L 3634 0
L 628 0
L 628 4666
z
" transform="scale(0.015625)"/>
     <path id="DejaVuSans-6c" d="M 603 4863
L 1178 4863
L 1178 0
L 603 0
L 603 4863
z
" transform="scale(0.015625)"/>
     <path id="DejaVuSans-61" d="M 2194 1759
Q 1497 1759 1228 1600
Q 959 1441 959 1056
Q 959 750 1161 570
Q 1363 391 1709 391
Q 2188 391 2477 730
Q 2766 1069 2766 1631
L 2766 1759
L 2194 1759
z
M 3341 1997
L 3341 0
L 2766 0
L 2766 531
Q 2569 213 2275 61
Q 1981 -91 1556 -91
Q 1019 -91 701 211
Q 384 513 384 1019
Q 384 1609 779 1909
Q 1175 2209 1959 2209
L 2766 2209
L 2766 2266
Q 2766 2663 2505 2880
Q 2244 3097 1772 3097
Q 1472 3097 1187 3025
Q 903 2953 641 2809
L 641 3341
Q 956 3463 1253 3523
Q 1550 3584 1831 3584
Q 2591 3584 2966 3190
Q 3341 2797 3341 1997
z
" transform="scale(0.015625)"/>
     <path id="DejaVuSans-73" d="M 2834 3397
L 2834 2853
Q 2591 2978 2328 3040
Q 2066 3103 1784 3103
Q 1356 3103 1142 2972
Q 928 2841 928 2578
Q 928 2378 1081 2264
Q 1234 2150 1697 2047
L 1894 2003
Q 2506 1872 2764 1633
Q 3022 1394 3022 966
Q 3022 478 2636 193
Q 2250 -91 1575 -91
Q 1294 -91 989 -36
Q 684 19 347 128
L 347 722
Q 666 556 975 473
Q 1284 391 1588 391
Q 1994 391 2212 530
Q 2431 669 2431 922
Q 2431 1156 2273 1281
Q 2116 1406 1581 1522
L 1381 1569
Q 847 1681 609 1914
Q 372 2147 372 2553
Q 372 3047 722 3315
Q 1072 3584 1716 3584
Q 2034 3584 2315 3537
Q 2597 3491 2834 3397
z
" transform="scale(0.015625)"/>
     <path id="DejaVuSans-63" d="M 3122 3366
L 3122 2828
Q 2878 2963 2633 3030
Q 2388 3097 2138 3097
Q 1578 3097 1268 2742
Q 959 2388 959 1747
Q 959 1106 1268 751
Q 1578 397 2138 397
Q 2388 397 2633 464
Q 2878 531 3122 666
L 3122 134
Q 2881 22 2623 -34
Q 2366 -91 2075 -91
Q 1284 -91 818 406
Q 353 903 353 1747
Q 353 2603 823 3093
Q 1294 3584 2113 3584
Q 2378 3584 2631 3529
Q 2884 3475 3122 3366
z
" transform="scale(0.015625)"/>
     <path id="DejaVuSans-6f" d="M 1959 3097
Q 1497 3097 1228 2736
Q 959 2375 959 1747
Q 959 1119 1226 758
Q 1494 397 1959 397
Q 2419 397 2687 759
Q 2956 1122 2956 1747
Q 2956 2369 2687 2733
Q 2419 3097 1959 3097
z
M 1959 3584
Q 2709 3584 3137 3096
Q 3566 2609 3566 1747
Q 3566 888 3137 398
Q 2709 -91 1959 -91
Q 1206 -91 779 398
Q 353 888 353 1747
Q 353 2609 779 3096
Q 1206 3584 1959 3584
z
" transform="scale(0.015625)"/>
     <path id="DejaVuSans-28" d="M 1984 4856
Q 1566 4138 1362 3434
Q 1159 2731 1159 2009
Q 1159 1288 1364 580
Q 1569 -128 1984 -844
L 1484 -844
Q 1016 -109 783 600
Q 550 1309 550 2009
Q 550 2706 781 3412
Q 1013 4119 1484 4856
L 1984 4856
z
" transform="scale(0.015625)"/>
     <path id="DejaVuSans-67" d="M 2906 1791
Q 2906 2416 2648 2759
Q 2391 3103 1925 3103
Q 1463 3103 1205 2759
Q 947 2416 947 1791
Q 947 1169 1205 825
Q 1463 481 1925 481
Q 2391 481 2648 825
Q 2906 1169 2906 1791
z
M 3481 434
Q 3481 -459 3084 -895
Q 2688 -1331 1869 -1331
Q 1566 -1331 1297 -1286
Q 1028 -1241 775 -1147
L 775 -588
Q 1028 -725 1275 -790
Q 1522 -856 1778 -856
Q 2344 -856 2625 -561
Q 2906 -266 2906 331
L 2906 616
Q 2728 306 2450 153
Q 2172 0 1784 0
Q 1141 0 747 490
Q 353 981 353 1791
Q 353 2603 747 3093
Q 1141 3584 1784 3584
Q 2172 3584 2450 3431
Q 2728 3278 2906 2969
L 2906 3500
L 3481 3500
L 3481 434
z
" transform="scale(0.015625)"/>
     <path id="DejaVuSans-29" d="M 513 4856
L 1013 4856
Q 1481 4119 1714 3412
Q 1947 2706 1947 2009
Q 1947 1309 1714 600
Q 1481 -109 1013 -844
L 513 -844
Q 928 -128 1133 580
Q 1338 1288 1338 2009
Q 1338 2731 1133 3434
Q 928 4138 513 4856
z
" transform="scale(0.015625)"/>
    </defs>
    <use xlink:href="#DejaVuSans-45"/>
    <use xlink:href="#DejaVuSans-6c" transform="translate(63.183594 0)"/>
    <use xlink:href="#DejaVuSans-61" transform="translate(90.966797 0)"/>
    <use xlink:href="#DejaVuSans-70" transform="translate(152.246094 0)"/>
    <use xlink:href="#DejaVuSans-73" transform="translate(215.722656 0)"/>
    <use xlink:href="#DejaVuSans-65" transform="translate(267.822266 0)"/>
    <use xlink:href="#DejaVuSans-64" transform="translate(329.345703 0)"/>
    <use xlink:href="#DejaVuSans-20" transform="translate(392.822266 0)"/>
    <use xlink:href="#DejaVuSans-73" transform="translate(424.609375 0)"/>
    <use xlink:href="#DejaVuSans-65" transform="translate(476.708984 0)"/>
    <use xlink:href="#DejaVuSans-63" transform="translate(538.232422 0)"/>
    <use xlink:href="#DejaVuSans-6f" transform="translate(593.212891 0)"/>
    <use xlink:href="#DejaVuSans-6e" transform="translate(654.394531 0)"/>
    <use xlink:href="#DejaVuSans-64" transform="translate(717.773438 0)"/>
    <use xlink:href="#DejaVuSans-73" transform="translate(781.25 0)"/>
    <use xlink:href="#DejaVuSans-20" transform="translate(833.349609 0)"/>
    <use xlink:href="#DejaVuSans-28" transform="translate(865.136719 0)"/>
    <use xlink:href="#DejaVuSans-6c" transform="translate(904.150391 0)"/>
    <use xlink:href="#DejaVuSans-6f" transform="translate(931.933594 0)"/>
    <use xlink:href="#DejaVuSans-67" transform="translate(993.115234 0)"/>
    <use xlink:href="#DejaVuSans-31" transform="translate(1056.591797 0)"/>
    <use xlink:href="#DejaVuSans-30" transform="translate(1120.214844 0)"/>
    <use xlink:href="#DejaVuSans-29" transform="translate(1183.837891 0)"/>
   </g>
  </g>
  <g id="patch_9">
   <path d="M 37.268625 20.669
L 142.211583 20.669
L 142.211583 5.184
L 37.268625 5.184
z
" style="fill: #f7f7f7; stroke: #cccccc; stroke-linejoin: miter"/>
  </g>
  <g id="text_24">
   <!-- distrib -->
   <g style="fill: #1a1a1a" transform="translate(77.142604 15.965875) scale(0.08 -0.08)">
    <defs>
     <path id="DejaVuSans-72" d="M 2631 2963
Q 2534 3019 2420 3045
Q 2306 3072 2169 3072
Q 1681 3072 1420 2755
Q 1159 2438 1159 1844
L 1159 0
L 581 0
L 581 3500
L 1159 3500
L 1159 2956
Q 1341 3275 1631 3429
Q 1922 3584 2338 3584
Q 2397 3584 2469 3576
Q 2541 3569 2628 3553
L 2631 2963
z
" transform="scale(0.015625)"/>
     <path id="DejaVuSans-62" d="M 3116 1747
Q 3116 2381 2855 2742
Q 2594 3103 2138 3103
Q 1681 3103 1420 2742
Q 1159 2381 1159 1747
Q 1159 1113 1420 752
Q 1681 391 2138 391
Q 2594 391 2855 752
Q 3116 1113 3116 1747
z
M 1159 2969
Q 1341 3281 1617 3432
Q 1894 3584 2278 3584
Q 2916 3584 3314 3078
Q 3713 2572 3713 1747
Q 3713 922 3314 415
Q 2916 -91 2278 -91
Q 1894 -91 1617 61
Q 1341 213 1159 525
L 1159 0
L 581 0
L 581 4863
L 1159 4863
L 1159 2969
z
" transform="scale(0.015625)"/>
    </defs>
    <use xlink:href="#DejaVuSans-64"/>
    <use xlink:href="#DejaVuSans-69" transform="translate(63.476562 0)"/>
    <use xlink:href="#DejaVuSans-73" transform="translate(91.259766 0)"/>
    <use xlink:href="#DejaVuSans-74" transform="translate(143.359375 0)"/>
    <use xlink:href="#DejaVuSans-72" transform="translate(182.568359 0)"/>
    <use xlink:href="#DejaVuSans-69" transform="translate(223.681641 0)"/>
    <use xlink:href="#DejaVuSans-62" transform="translate(251.464844 0)"/>
   </g>
  </g>
  <g id="patch_10">
   <path d="M 162.618083 20.669
L 267.561042 20.669
L 267.561042 5.184
L 162.618083 5.184
z
" style="fill: #f7f7f7; stroke: #cccccc; stroke-linejoin: miter"/>
  </g>
  <g id="text_25">
   <!-- freq -->
   <g style="fill: #1a1a1a" transform="translate(207.126438 15.965875) scale(0.08 -0.08)">
    <defs>
     <path id="DejaVuSans-66" d="M 2375 4863
L 2375 4384
L 1825 4384
Q 1516 4384 1395 4259
Q 1275 4134 1275 3809
L 1275 3500
L 2222 3500
L 2222 3053
L 1275 3053
L 1275 0
L 697 0
L 697 3053
L 147 3053
L 147 3500
L 697 3500
L 697 3744
Q 697 4328 969 4595
Q 1241 4863 1831 4863
L 2375 4863
z
" transform="scale(0.015625)"/>
     <path id="DejaVuSans-71" d="M 947 1747
Q 947 1113 1208 752
Q 1469 391 1925 391
Q 2381 391 2643 752
Q 2906 1113 2906 1747
Q 2906 2381 2643 2742
Q 2381 3103 1925 3103
Q 1469 3103 1208 2742
Q 947 2381 947 1747
z
M 2906 525
Q 2725 213 2448 61
Q 2172 -91 1784 -91
Q 1150 -91 751 415
Q 353 922 353 1747
Q 353 2572 751 3078
Q 1150 3584 1784 3584
Q 2172 3584 2448 3432
Q 2725 3281 2906 2969
L 2906 3500
L 3481 3500
L 3481 -1331
L 2906 -1331
L 2906 525
z
" transform="scale(0.015625)"/>
    </defs>
    <use xlink:href="#DejaVuSans-66"/>
    <use xlink:href="#DejaVuSans-72" transform="translate(35.205078 0)"/>
    <use xlink:href="#DejaVuSans-65" transform="translate(74.068359 0)"/>
    <use xlink:href="#DejaVuSans-71" transform="translate(135.591797 0)"/>
   </g>
  </g>
  <g id="patch_11">
   <path d="M 287.967542 20.669
L 392.9105 20.669
L 392.9105 5.184
L 287.967542 5.184
z
" style="fill: #f7f7f7; stroke: #cccccc; stroke-linejoin: miter"/>
  </g>
  <g id="text_26">
   <!-- signif -->
   <g style="fill: #1a1a1a" transform="translate(329.650271 15.965875) scale(0.08 -0.08)">
    <use xlink:href="#DejaVuSans-73"/>
    <use xlink:href="#DejaVuSans-69" transform="translate(52.099609 0)"/>
    <use xlink:href="#DejaVuSans-67" transform="translate(79.882812 0)"/>
    <use xlink:href="#DejaVuSans-6e" transform="translate(143.359375 0)"/>
    <use xlink:href="#DejaVuSans-69" transform="translate(206.738281 0)"/>
    <use xlink:href="#DejaVuSans-66" transform="translate(234.521484 0)"/>
   </g>
  </g>
  <g id="patch_12">
   <path d="M 408.4625 197.773344
L 513.216 197.773344
L 513.216 121.807031
L 408.4625 121.807031
z
" style="fill: #ffffff"/>
  </g>
  <g id="patch_13">
   <path d="M 409.4625 147.573344
L 423.8625 147.573344
L 423.8625 133.173344
L 409.4625 133.173344
z
" clip-path="url(#p98493f667c)" style="fill: #ffffff"/>
  </g>
  <g id="line2d_55">
   <path d="M 409.4625 140.373344
L 423.8625 140.373344
" clip-path="url(#p98493f667c)" style="fill: none; stroke: #004d40; stroke-width: 1.240718"/>
  </g>
  <g id="line2d_56">
   <path d="M 416.6625 140.373344
" clip-path="url(#p98493f667c)" style="fill: none; stroke: #1f77b4; stroke-width: 1.5; stroke-linecap: square"/>
   <defs>
    <path id="md6f4809bdf" d="M 0 2.126945
C 0.564072 2.126945 1.105118 1.902836 1.503977 1.503977
C 1.902836 1.105118 2.126945 0.564072 2.126945 0
C 2.126945 -0.564072 1.902836 -1.105118 1.503977 -1.503977
C 1.105118 -1.902836 0.564072 -2.126945 0 -2.126945
C -0.564072 -2.126945 -1.105118 -1.902836 -1.503977 -1.503977
C -1.902836 -1.105118 -2.126945 -0.564072 -2.126945 0
C -2.126945 0.564072 -1.902836 1.105118 -1.503977 1.503977
C -1.105118 1.902836 -0.564072 2.126945 0 2.126945
z
" style="stroke: #004d40; stroke-width: 0.886227"/>
   </defs>
   <g clip-path="url(#p98493f667c)">
    <use xlink:href="#md6f4809bdf" x="416.6625" y="140.373344" style="fill: #004d40; stroke: #004d40; stroke-width: 0.886227"/>
   </g>
  </g>
  <g id="text_27">
   <!-- Tinca Tinca -->
   <g transform="translate(427.3185 142.580844) scale(0.08 -0.08)">
    <defs>
     <path id="DejaVuSans-54" d="M -19 4666
L 3928 4666
L 3928 4134
L 2272 4134
L 2272 0
L 1638 0
L 1638 4134
L -19 4134
L -19 4666
z
" transform="scale(0.015625)"/>
    </defs>
    <use xlink:href="#DejaVuSans-54"/>
    <use xlink:href="#DejaVuSans-69" transform="translate(57.958984 0)"/>
    <use xlink:href="#DejaVuSans-6e" transform="translate(85.742188 0)"/>
    <use xlink:href="#DejaVuSans-63" transform="translate(149.121094 0)"/>
    <use xlink:href="#DejaVuSans-61" transform="translate(204.101562 0)"/>
    <use xlink:href="#DejaVuSans-20" transform="translate(265.380859 0)"/>
    <use xlink:href="#DejaVuSans-54" transform="translate(297.167969 0)"/>
    <use xlink:href="#DejaVuSans-69" transform="translate(355.126953 0)"/>
    <use xlink:href="#DejaVuSans-6e" transform="translate(382.910156 0)"/>
    <use xlink:href="#DejaVuSans-63" transform="translate(446.289062 0)"/>
    <use xlink:href="#DejaVuSans-61" transform="translate(501.269531 0)"/>
   </g>
  </g>
  <g id="patch_14">
   <path d="M 409.4625 163.973344
L 423.8625 163.973344
L 423.8625 149.573344
L 409.4625 149.573344
z
" clip-path="url(#p4d03b4736b)" style="fill: #ffffff"/>
  </g>
  <g id="line2d_57">
   <path d="M 409.4625 156.773344
L 423.8625 156.773344
" clip-path="url(#p4d03b4736b)" style="fill: none; stroke: #1e88e5; stroke-width: 1.240718"/>
  </g>
  <g id="line2d_58">
   <path d="M 416.6625 156.773344
" clip-path="url(#p4d03b4736b)" style="fill: none; stroke: #1f77b4; stroke-width: 1.5; stroke-linecap: square"/>
   <defs>
    <path id="mac8888c49f" d="M 0 2.126945
C 0.564072 2.126945 1.105118 1.902836 1.503977 1.503977
C 1.902836 1.105118 2.126945 0.564072 2.126945 0
C 2.126945 -0.564072 1.902836 -1.105118 1.503977 -1.503977
C 1.105118 -1.902836 0.564072 -2.126945 0 -2.126945
C -0.564072 -2.126945 -1.105118 -1.902836 -1.503977 -1.503977
C -1.902836 -1.105118 -2.126945 -0.564072 -2.126945 0
C -2.126945 0.564072 -1.902836 1.105118 -1.503977 1.503977
C -1.105118 1.902836 -0.564072 2.126945 0 2.126945
z
" style="stroke: #1e88e5; stroke-width: 0.886227"/>
   </defs>
   <g clip-path="url(#p4d03b4736b)">
    <use xlink:href="#mac8888c49f" x="416.6625" y="156.773344" style="fill: #1e88e5; stroke: #1e88e5; stroke-width: 0.886227"/>
   </g>
  </g>
  <g id="text_28">
   <!-- Plecoglossus Altivelis -->
   <g transform="translate(427.3185 158.980844) scale(0.08 -0.08)">
    <defs>
     <path id="DejaVuSans-50" d="M 1259 4147
L 1259 2394
L 2053 2394
Q 2494 2394 2734 2622
Q 2975 2850 2975 3272
Q 2975 3691 2734 3919
Q 2494 4147 2053 4147
L 1259 4147
z
M 628 4666
L 2053 4666
Q 2838 4666 3239 4311
Q 3641 3956 3641 3272
Q 3641 2581 3239 2228
Q 2838 1875 2053 1875
L 1259 1875
L 1259 0
L 628 0
L 628 4666
z
" transform="scale(0.015625)"/>
     <path id="DejaVuSans-41" d="M 2188 4044
L 1331 1722
L 3047 1722
L 2188 4044
z
M 1831 4666
L 2547 4666
L 4325 0
L 3669 0
L 3244 1197
L 1141 1197
L 716 0
L 50 0
L 1831 4666
z
" transform="scale(0.015625)"/>
     <path id="DejaVuSans-76" d="M 191 3500
L 800 3500
L 1894 563
L 2988 3500
L 3597 3500
L 2284 0
L 1503 0
L 191 3500
z
" transform="scale(0.015625)"/>
    </defs>
    <use xlink:href="#DejaVuSans-50"/>
    <use xlink:href="#DejaVuSans-6c" transform="translate(60.302734 0)"/>
    <use xlink:href="#DejaVuSans-65" transform="translate(88.085938 0)"/>
    <use xlink:href="#DejaVuSans-63" transform="translate(149.609375 0)"/>
    <use xlink:href="#DejaVuSans-6f" transform="translate(204.589844 0)"/>
    <use xlink:href="#DejaVuSans-67" transform="translate(265.771484 0)"/>
    <use xlink:href="#DejaVuSans-6c" transform="translate(329.248047 0)"/>
    <use xlink:href="#DejaVuSans-6f" transform="translate(357.03125 0)"/>
    <use xlink:href="#DejaVuSans-73" transform="translate(418.212891 0)"/>
    <use xlink:href="#DejaVuSans-73" transform="translate(470.3125 0)"/>
    <use xlink:href="#DejaVuSans-75" transform="translate(522.412109 0)"/>
    <use xlink:href="#DejaVuSans-73" transform="translate(585.791016 0)"/>
    <use xlink:href="#DejaVuSans-20" transform="translate(637.890625 0)"/>
    <use xlink:href="#DejaVuSans-41" transform="translate(669.677734 0)"/>
    <use xlink:href="#DejaVuSans-6c" transform="translate(738.085938 0)"/>
    <use xlink:href="#DejaVuSans-74" transform="translate(765.869141 0)"/>
    <use xlink:href="#DejaVuSans-69" transform="translate(805.078125 0)"/>
    <use xlink:href="#DejaVuSans-76" transform="translate(832.861328 0)"/>
    <use xlink:href="#DejaVuSans-65" transform="translate(892.041016 0)"/>
    <use xlink:href="#DejaVuSans-6c" transform="translate(953.564453 0)"/>
    <use xlink:href="#DejaVuSans-69" transform="translate(981.347656 0)"/>
    <use xlink:href="#DejaVuSans-73" transform="translate(1009.130859 0)"/>
   </g>
  </g>
  <g id="patch_15">
   <path d="M 409.4625 180.373344
L 423.8625 180.373344
L 423.8625 165.973344
L 409.4625 165.973344
z
" clip-path="url(#p063e5dc212)" style="fill: #ffffff"/>
  </g>
  <g id="line2d_59">
   <path d="M 409.4625 173.173344
L 423.8625 173.173344
" clip-path="url(#p063e5dc212)" style="fill: none; stroke: #ff655d; stroke-width: 1.240718"/>
  </g>
  <g id="line2d_60">
   <path d="M 416.6625 173.173344
" clip-path="url(#p063e5dc212)" style="fill: none; stroke: #1f77b4; stroke-width: 1.5; stroke-linecap: square"/>
   <defs>
    <path id="m8870ba216c" d="M 0 2.126945
C 0.564072 2.126945 1.105118 1.902836 1.503977 1.503977
C 1.902836 1.105118 2.126945 0.564072 2.126945 0
C 2.126945 -0.564072 1.902836 -1.105118 1.503977 -1.503977
C 1.105118 -1.902836 0.564072 -2.126945 0 -2.126945
C -0.564072 -2.126945 -1.105118 -1.902836 -1.503977 -1.503977
C -1.902836 -1.105118 -2.126945 -0.564072 -2.126945 0
C -2.126945 0.564072 -1.902836 1.105118 -1.503977 1.503977
C -1.105118 1.902836 -0.564072 2.126945 0 2.126945
z
" style="stroke: #ff655d; stroke-width: 0.886227"/>
   </defs>
   <g clip-path="url(#p063e5dc212)">
    <use xlink:href="#m8870ba216c" x="416.6625" y="173.173344" style="fill: #ff655d; stroke: #ff655d; stroke-width: 0.886227"/>
   </g>
  </g>
  <g id="text_29">
   <!-- Notothenia Rossii -->
   <g transform="translate(427.3185 175.380844) scale(0.08 -0.08)">
    <defs>
     <path id="DejaVuSans-4e" d="M 628 4666
L 1478 4666
L 3547 763
L 3547 4666
L 4159 4666
L 4159 0
L 3309 0
L 1241 3903
L 1241 0
L 628 0
L 628 4666
z
" transform="scale(0.015625)"/>
     <path id="DejaVuSans-52" d="M 2841 2188
Q 3044 2119 3236 1894
Q 3428 1669 3622 1275
L 4263 0
L 3584 0
L 2988 1197
Q 2756 1666 2539 1819
Q 2322 1972 1947 1972
L 1259 1972
L 1259 0
L 628 0
L 628 4666
L 2053 4666
Q 2853 4666 3247 4331
Q 3641 3997 3641 3322
Q 3641 2881 3436 2590
Q 3231 2300 2841 2188
z
M 1259 4147
L 1259 2491
L 2053 2491
Q 2509 2491 2742 2702
Q 2975 2913 2975 3322
Q 2975 3731 2742 3939
Q 2509 4147 2053 4147
L 1259 4147
z
" transform="scale(0.015625)"/>
    </defs>
    <use xlink:href="#DejaVuSans-4e"/>
    <use xlink:href="#DejaVuSans-6f" transform="translate(74.804688 0)"/>
    <use xlink:href="#DejaVuSans-74" transform="translate(135.986328 0)"/>
    <use xlink:href="#DejaVuSans-6f" transform="translate(175.195312 0)"/>
    <use xlink:href="#DejaVuSans-74" transform="translate(236.376953 0)"/>
    <use xlink:href="#DejaVuSans-68" transform="translate(275.585938 0)"/>
    <use xlink:href="#DejaVuSans-65" transform="translate(338.964844 0)"/>
    <use xlink:href="#DejaVuSans-6e" transform="translate(400.488281 0)"/>
    <use xlink:href="#DejaVuSans-69" transform="translate(463.867188 0)"/>
    <use xlink:href="#DejaVuSans-61" transform="translate(491.650391 0)"/>
    <use xlink:href="#DejaVuSans-20" transform="translate(552.929688 0)"/>
    <use xlink:href="#DejaVuSans-52" transform="translate(584.716797 0)"/>
    <use xlink:href="#DejaVuSans-6f" transform="translate(649.699219 0)"/>
    <use xlink:href="#DejaVuSans-73" transform="translate(710.880859 0)"/>
    <use xlink:href="#DejaVuSans-73" transform="translate(762.980469 0)"/>
    <use xlink:href="#DejaVuSans-69" transform="translate(815.080078 0)"/>
    <use xlink:href="#DejaVuSans-69" transform="translate(842.863281 0)"/>
   </g>
  </g>
  <g id="patch_16">
   <path d="M 409.4625 196.773344
L 423.8625 196.773344
L 423.8625 182.373344
L 409.4625 182.373344
z
" clip-path="url(#pb072cb63e0)" style="fill: #ffffff"/>
  </g>
  <g id="line2d_61">
   <path d="M 409.4625 189.573344
L 423.8625 189.573344
" clip-path="url(#pb072cb63e0)" style="fill: none; stroke: #d81b60; stroke-width: 1.240718"/>
  </g>
  <g id="line2d_62">
   <path d="M 416.6625 189.573344
" clip-path="url(#pb072cb63e0)" style="fill: none; stroke: #1f77b4; stroke-width: 1.5; stroke-linecap: square"/>
   <defs>
    <path id="me32dac4452" d="M 0 2.126945
C 0.564072 2.126945 1.105118 1.902836 1.503977 1.503977
C 1.902836 1.105118 2.126945 0.564072 2.126945 0
C 2.126945 -0.564072 1.902836 -1.105118 1.503977 -1.503977
C 1.105118 -1.902836 0.564072 -2.126945 0 -2.126945
C -0.564072 -2.126945 -1.105118 -1.902836 -1.503977 -1.503977
C -1.902836 -1.105118 -2.126945 -0.564072 -2.126945 0
C -2.126945 0.564072 -1.902836 1.105118 -1.503977 1.503977
C -1.105118 1.902836 -0.564072 2.126945 0 2.126945
z
" style="stroke: #d81b60; stroke-width: 0.886227"/>
   </defs>
   <g clip-path="url(#pb072cb63e0)">
    <use xlink:href="#me32dac4452" x="416.6625" y="189.573344" style="fill: #d81b60; stroke: #d81b60; stroke-width: 0.886227"/>
   </g>
  </g>
  <g id="text_30">
   <!-- Danio Albolineatus -->
   <g transform="translate(427.3185 191.780844) scale(0.08 -0.08)">
    <defs>
     <path id="DejaVuSans-44" d="M 1259 4147
L 1259 519
L 2022 519
Q 2988 519 3436 956
Q 3884 1394 3884 2338
Q 3884 3275 3436 3711
Q 2988 4147 2022 4147
L 1259 4147
z
M 628 4666
L 1925 4666
Q 3281 4666 3915 4102
Q 4550 3538 4550 2338
Q 4550 1131 3912 565
Q 3275 0 1925 0
L 628 0
L 628 4666
z
" transform="scale(0.015625)"/>
    </defs>
    <use xlink:href="#DejaVuSans-44"/>
    <use xlink:href="#DejaVuSans-61" transform="translate(77.001953 0)"/>
    <use xlink:href="#DejaVuSans-6e" transform="translate(138.28125 0)"/>
    <use xlink:href="#DejaVuSans-69" transform="translate(201.660156 0)"/>
    <use xlink:href="#DejaVuSans-6f" transform="translate(229.443359 0)"/>
    <use xlink:href="#DejaVuSans-20" transform="translate(290.625 0)"/>
    <use xlink:href="#DejaVuSans-41" transform="translate(322.412109 0)"/>
    <use xlink:href="#DejaVuSans-6c" transform="translate(390.820312 0)"/>
    <use xlink:href="#DejaVuSans-62" transform="translate(418.603516 0)"/>
    <use xlink:href="#DejaVuSans-6f" transform="translate(482.080078 0)"/>
    <use xlink:href="#DejaVuSans-6c" transform="translate(543.261719 0)"/>
    <use xlink:href="#DejaVuSans-69" transform="translate(571.044922 0)"/>
    <use xlink:href="#DejaVuSans-6e" transform="translate(598.828125 0)"/>
    <use xlink:href="#DejaVuSans-65" transform="translate(662.207031 0)"/>
    <use xlink:href="#DejaVuSans-61" transform="translate(723.730469 0)"/>
    <use xlink:href="#DejaVuSans-74" transform="translate(785.009766 0)"/>
    <use xlink:href="#DejaVuSans-75" transform="translate(824.21875 0)"/>
    <use xlink:href="#DejaVuSans-73" transform="translate(887.597656 0)"/>
   </g>
  </g>
 </g>
 <defs>
  <clipPath id="pf4ae606c73">
   <rect x="37.268625" y="20.669" width="104.942958" height="278.242375"/>
  </clipPath>
  <clipPath id="p80969a699a">
   <rect x="162.618083" y="20.669" width="104.942958" height="278.242375"/>
  </clipPath>
  <clipPath id="pdcc5b2f7b1">
   <rect x="287.967542" y="20.669" width="104.942958" height="278.242375"/>
  </clipPath>
  <clipPath id="p98493f667c">
   <path d="M 409.4625 147.573344
L 409.4625 133.173344
L 423.8625 133.173344
L 423.8625 147.573344
"/>
  </clipPath>
  <clipPath id="p4d03b4736b">
   <path d="M 409.4625 163.973344
L 409.4625 149.573344
L 423.8625 149.573344
L 423.8625 163.973344
"/>
  </clipPath>
  <clipPath id="p063e5dc212">
   <path d="M 409.4625 180.373344
L 409.4625 165.973344
L 423.8625 165.973344
L 423.8625 180.373344
"/>
  </clipPath>
  <clipPath id="pb072cb63e0">
   <path d="M 409.4625 196.773344
L 409.4625 182.373344
L 423.8625 182.373344
L 423.8625 196.773344
"/>
  </clipPath>
 </defs>
</svg>
