<?xml version="1.0" encoding="utf-8" standalone="no"?>
<!DOCTYPE svg PUBLIC "-//W3C//DTD SVG 1.1//EN"
  "http://www.w3.org/Graphics/SVG/1.1/DTD/svg11.dtd">
<svg xmlns:xlink="http://www.w3.org/1999/xlink" width="518.4pt" height="374.4pt" viewBox="0 0 518.4 374.4" xmlns="http://www.w3.org/2000/svg" version="1.1">
 <metadata>
  <rdf:RDF xmlns:dc="http://purl.org/dc/elements/1.1/" xmlns:cc="http://creativecommons.org/ns#" xmlns:rdf="http://www.w3.org/1999/02/22-rdf-syntax-ns#">
   <cc:Work>
    <dc:type rdf:resource="http://purl.org/dc/dcmitype/StillImage"/>
    <dc:date>2026-05-17T04:39:25.415068</dc:date>
    <dc:format>image/svg+xml</dc:format>
    <dc:creator>
     <cc:Agent>
      <dc:title>Matplotlib v3.10.9, https://matplotlib.org/</dc:title>
     </cc:Agent>
    </dc:creator>
   </cc:Work>
  </rdf:RDF>
 </metadata>
 <defs>
  <style type="text/css">*{stroke-linejoin: round; stroke-linecap: butt}</style>
 </defs>
 <g id="figure_1">
  <g id="patch_1">
   <path d="M 0 374.4 
L 518.4 374.4 
L 518.4 0 
L 0 0 
z
" style="fill: #ffffff"/>
  </g>
  <g id="patch_2">
   <path d="M 0 374.4 
L 518.4 374.4 
L 518.4 0 
L 0 0 
L 0 374.4 
z
" style="fill: none; stroke: #ffffff; stroke-linejoin: miter"/>
  </g>
  <g id="axes_1">
   <g id="patch_3">
    <path d="M 53.134 342.111375 
L 513.216 342.111375 
L 513.216 5.184 
L 53.134 5.184 
z
" style="fill: #ffffff"/>
   </g>
   <g id="matplotlib.axis_1">
    <g id="xtick_1">
     <g id="line2d_1">
      <path d="M 88.372757 342.111375 
L 88.372757 5.184 
" clip-path="url(#pfdc58f051e)" style="fill: none; stroke: #e6e6e6; stroke-width: 0.35; stroke-linecap: square"/>
     </g>
     <g id="line2d_2">
      <path d="M 88.372757 342.111375 
" style="fill: none; stroke: #333333; stroke-width: 1.5; stroke-linecap: square"/>
      <defs>
       <path id="mb56959cd83" d="M 0 0 
L 0 2.5 
" style="stroke: #333333"/>
      </defs>
      <g>
       <use xlink:href="#mb56959cd83" x="88.372757" y="342.111375" style="fill: #333333; stroke: #333333"/>
      </g>
     </g>
     <g id="text_1">
      <!-- 1 -->
      <g style="fill: #4d4d4d" transform="translate(85.827757 352.690125) scale(0.08 -0.08)">
       <defs>
        <path id="DejaVuSans-31" d="M 794 531 
L 1825 531 
L 1825 4091 
L 703 3866 
L 703 4441 
L 1819 4666 
L 2450 4666 
L 2450 531 
L 3481 531 
L 3481 0 
L 794 0 
L 794 531 
z
" transform="scale(0.015625)"/>
       </defs>
       <use xlink:href="#DejaVuSans-31"/>
      </g>
     </g>
    </g>
    <g id="xtick_2">
     <g id="line2d_3">
      <path d="M 210.333704 342.111375 
L 210.333704 5.184 
" clip-path="url(#pfdc58f051e)" style="fill: none; stroke: #e6e6e6; stroke-width: 0.35; stroke-linecap: square"/>
     </g>
     <g id="line2d_4">
      <path d="M 210.333704 342.111375 
" style="fill: none; stroke: #333333; stroke-width: 1.5; stroke-linecap: square"/>
      <g>
       <use xlink:href="#mb56959cd83" x="210.333704" y="342.111375" style="fill: #333333; stroke: #333333"/>
      </g>
     </g>
     <g id="text_2">
      <!-- 3 -->
      <g style="fill: #4d4d4d" transform="translate(207.788704 352.690125) scale(0.08 -0.08)">
       <defs>
        <path id="DejaVuSans-33" d="M 2597 2516 
Q 3050 2419 3304 2112 
Q 3559 1806 3559 1356 
Q 3559 666 3084 287 
Q 2609 -91 1734 -91 
Q 1441 -91 1130 -33 
Q 819 25 488 141 
L 488 750 
Q 750 597 1062 519 
Q 1375 441 1716 441 
Q 2309 441 2620 675 
Q 2931 909 2931 1356 
Q 2931 1769 2642 2001 
Q 2353 2234 1838 2234 
L 1294 2234 
L 1294 2753 
L 1863 2753 
Q 2328 2753 2575 2939 
Q 2822 3125 2822 3475 
Q 2822 3834 2567 4026 
Q 2313 4219 1838 4219 
Q 1578 4219 1281 4162 
Q 984 4106 628 3988 
L 628 4550 
Q 988 4650 1302 4700 
Q 1616 4750 1894 4750 
Q 2613 4750 3031 4423 
Q 3450 4097 3450 3541 
Q 3450 3153 3228 2886 
Q 3006 2619 2597 2516 
z
" transform="scale(0.015625)"/>
       </defs>
       <use xlink:href="#DejaVuSans-33"/>
      </g>
     </g>
    </g>
    <g id="xtick_3">
     <g id="line2d_5">
      <path d="M 343.991106 342.111375 
L 343.991106 5.184 
" clip-path="url(#pfdc58f051e)" style="fill: none; stroke: #e6e6e6; stroke-width: 0.35; stroke-linecap: square"/>
     </g>
     <g id="line2d_6">
      <path d="M 343.991106 342.111375 
" style="fill: none; stroke: #333333; stroke-width: 1.5; stroke-linecap: square"/>
      <g>
       <use xlink:href="#mb56959cd83" x="343.991106" y="342.111375" style="fill: #333333; stroke: #333333"/>
      </g>
     </g>
     <g id="text_3">
      <!-- 10 -->
      <g style="fill: #4d4d4d" transform="translate(338.901106 352.690125) scale(0.08 -0.08)">
       <defs>
        <path id="DejaVuSans-30" d="M 2034 4250 
Q 1547 4250 1301 3770 
Q 1056 3291 1056 2328 
Q 1056 1369 1301 889 
Q 1547 409 2034 409 
Q 2525 409 2770 889 
Q 3016 1369 3016 2328 
Q 3016 3291 2770 3770 
Q 2525 4250 2034 4250 
z
M 2034 4750 
Q 2819 4750 3233 4129 
Q 3647 3509 3647 2328 
Q 3647 1150 3233 529 
Q 2819 -91 2034 -91 
Q 1250 -91 836 529 
Q 422 1150 422 2328 
Q 422 3509 836 4129 
Q 1250 4750 2034 4750 
z
" transform="scale(0.015625)"/>
       </defs>
       <use xlink:href="#DejaVuSans-31"/>
       <use xlink:href="#DejaVuSans-30" transform="translate(63.623047 0)"/>
      </g>
     </g>
    </g>
    <g id="xtick_4">
     <g id="line2d_7">
      <path d="M 465.952053 342.111375 
L 465.952053 5.184 
" clip-path="url(#pfdc58f051e)" style="fill: none; stroke: #e6e6e6; stroke-width: 0.35; stroke-linecap: square"/>
     </g>
     <g id="line2d_8">
      <path d="M 465.952053 342.111375 
" style="fill: none; stroke: #333333; stroke-width: 1.5; stroke-linecap: square"/>
      <g>
       <use xlink:href="#mb56959cd83" x="465.952053" y="342.111375" style="fill: #333333; stroke: #333333"/>
      </g>
     </g>
     <g id="text_4">
      <!-- 30 -->
      <g style="fill: #4d4d4d" transform="translate(460.862053 352.690125) scale(0.08 -0.08)">
       <use xlink:href="#DejaVuSans-33"/>
       <use xlink:href="#DejaVuSans-30" transform="translate(63.623047 0)"/>
      </g>
     </g>
    </g>
    <g id="xtick_5"/>
    <g id="xtick_6"/>
    <g id="xtick_7"/>
    <g id="xtick_8"/>
    <g id="xtick_9"/>
    <g id="xtick_10"/>
    <g id="xtick_11"/>
    <g id="xtick_12"/>
    <g id="xtick_13"/>
    <g id="xtick_14"/>
    <g id="xtick_15"/>
    <g id="xtick_16"/>
    <g id="xtick_17"/>
    <g id="xtick_18"/>
    <g id="xtick_19"/>
    <g id="xtick_20"/>
    <g id="xtick_21"/>
    <g id="xtick_22"/>
    <g id="xtick_23"/>
    <g id="xtick_24"/>
    <g id="xtick_25"/>
    <g id="xtick_26"/>
    <g id="xtick_27"/>
    <g id="xtick_28"/>
    <g id="xtick_29"/>
    <g id="xtick_30"/>
    <g id="xtick_31"/>
    <g id="xtick_32"/>
    <g id="xtick_33"/>
   </g>
   <g id="matplotlib.axis_2">
    <g id="ytick_1">
     <g id="line2d_9">
      <path d="M 53.134 326.796494 
L 513.216 326.796494 
" clip-path="url(#pfdc58f051e)" style="fill: none; stroke: #e6e6e6; stroke-width: 0.35; stroke-linecap: square"/>
     </g>
     <g id="line2d_10">
      <path d="M 53.134 326.796494 
" style="fill: none; stroke: #333333; stroke-width: 1.5; stroke-linecap: square"/>
      <defs>
       <path id="m50e3b3274d" d="M 0 0 
L -2.5 0 
" style="stroke: #333333"/>
      </defs>
      <g>
       <use xlink:href="#m50e3b3274d" x="53.134" y="326.796494" style="fill: #333333; stroke: #333333"/>
      </g>
     </g>
     <g id="text_5">
      <!-- process d1 -->
      <g style="fill: #4d4d4d" transform="translate(5.184 329.835869) scale(0.08 -0.08)">
       <defs>
        <path id="DejaVuSans-70" d="M 1159 525 
L 1159 -1331 
L 581 -1331 
L 581 3500 
L 1159 3500 
L 1159 2969 
Q 1341 3281 1617 3432 
Q 1894 3584 2278 3584 
Q 2916 3584 3314 3078 
Q 3713 2572 3713 1747 
Q 3713 922 3314 415 
Q 2916 -91 2278 -91 
Q 1894 -91 1617 61 
Q 1341 213 1159 525 
z
M 3116 1747 
Q 3116 2381 2855 2742 
Q 2594 3103 2138 3103 
Q 1681 3103 1420 2742 
Q 1159 2381 1159 1747 
Q 1159 1113 1420 752 
Q 1681 391 2138 391 
Q 2594 391 2855 752 
Q 3116 1113 3116 1747 
z
" transform="scale(0.015625)"/>
        <path id="DejaVuSans-72" d="M 2631 2963 
Q 2534 3019 2420 3045 
Q 2306 3072 2169 3072 
Q 1681 3072 1420 2755 
Q 1159 2438 1159 1844 
L 1159 0 
L 581 0 
L 581 3500 
L 1159 3500 
L 1159 2956 
Q 1341 3275 1631 3429 
Q 1922 3584 2338 3584 
Q 2397 3584 2469 3576 
Q 2541 3569 2628 3553 
L 2631 2963 
z
" transform="scale(0.015625)"/>
        <path id="DejaVuSans-6f" d="M 1959 3097 
Q 1497 3097 1228 2736 
Q 959 2375 959 1747 
Q 959 1119 1226 758 
Q 1494 397 1959 397 
Q 2419 397 2687 759 
Q 2956 1122 2956 1747 
Q 2956 2369 2687 2733 
Q 2419 3097 1959 3097 
z
M 1959 3584 
Q 2709 3584 3137 3096 
Q 3566 2609 3566 1747 
Q 3566 888 3137 398 
Q 2709 -91 1959 -91 
Q 1206 -91 779 398 
Q 353 888 353 1747 
Q 353 2609 779 3096 
Q 1206 3584 1959 3584 
z
" transform="scale(0.015625)"/>
        <path id="DejaVuSans-63" d="M 3122 3366 
L 3122 2828 
Q 2878 2963 2633 3030 
Q 2388 3097 2138 3097 
Q 1578 3097 1268 2742 
Q 959 2388 959 1747 
Q 959 1106 1268 751 
Q 1578 397 2138 397 
Q 2388 397 2633 464 
Q 2878 531 3122 666 
L 3122 134 
Q 2881 22 2623 -34 
Q 2366 -91 2075 -91 
Q 1284 -91 818 406 
Q 353 903 353 1747 
Q 353 2603 823 3093 
Q 1294 3584 2113 3584 
Q 2378 3584 2631 3529 
Q 2884 3475 3122 3366 
z
" transform="scale(0.015625)"/>
        <path id="DejaVuSans-65" d="M 3597 1894 
L 3597 1613 
L 953 1613 
Q 991 1019 1311 708 
Q 1631 397 2203 397 
Q 2534 397 2845 478 
Q 3156 559 3463 722 
L 3463 178 
Q 3153 47 2828 -22 
Q 2503 -91 2169 -91 
Q 1331 -91 842 396 
Q 353 884 353 1716 
Q 353 2575 817 3079 
Q 1281 3584 2069 3584 
Q 2775 3584 3186 3129 
Q 3597 2675 3597 1894 
z
M 3022 2063 
Q 3016 2534 2758 2815 
Q 2500 3097 2075 3097 
Q 1594 3097 1305 2825 
Q 1016 2553 972 2059 
L 3022 2063 
z
" transform="scale(0.015625)"/>
        <path id="DejaVuSans-73" d="M 2834 3397 
L 2834 2853 
Q 2591 2978 2328 3040 
Q 2066 3103 1784 3103 
Q 1356 3103 1142 2972 
Q 928 2841 928 2578 
Q 928 2378 1081 2264 
Q 1234 2150 1697 2047 
L 1894 2003 
Q 2506 1872 2764 1633 
Q 3022 1394 3022 966 
Q 3022 478 2636 193 
Q 2250 -91 1575 -91 
Q 1294 -91 989 -36 
Q 684 19 347 128 
L 347 722 
Q 666 556 975 473 
Q 1284 391 1588 391 
Q 1994 391 2212 530 
Q 2431 669 2431 922 
Q 2431 1156 2273 1281 
Q 2116 1406 1581 1522 
L 1381 1569 
Q 847 1681 609 1914 
Q 372 2147 372 2553 
Q 372 3047 722 3315 
Q 1072 3584 1716 3584 
Q 2034 3584 2315 3537 
Q 2597 3491 2834 3397 
z
" transform="scale(0.015625)"/>
        <path id="DejaVuSans-20" transform="scale(0.015625)"/>
        <path id="DejaVuSans-64" d="M 2906 2969 
L 2906 4863 
L 3481 4863 
L 3481 0 
L 2906 0 
L 2906 525 
Q 2725 213 2448 61 
Q 2172 -91 1784 -91 
Q 1150 -91 751 415 
Q 353 922 353 1747 
Q 353 2572 751 3078 
Q 1150 3584 1784 3584 
Q 2172 3584 2448 3432 
Q 2725 3281 2906 2969 
z
M 947 1747 
Q 947 1113 1208 752 
Q 1469 391 1925 391 
Q 2381 391 2643 752 
Q 2906 1113 2906 1747 
Q 2906 2381 2643 2742 
Q 2381 3103 1925 3103 
Q 1469 3103 1208 2742 
Q 947 2381 947 1747 
z
" transform="scale(0.015625)"/>
       </defs>
       <use xlink:href="#DejaVuSans-70"/>
       <use xlink:href="#DejaVuSans-72" transform="translate(63.476562 0)"/>
       <use xlink:href="#DejaVuSans-6f" transform="translate(102.339844 0)"/>
       <use xlink:href="#DejaVuSans-63" transform="translate(163.521484 0)"/>
       <use xlink:href="#DejaVuSans-65" transform="translate(218.501953 0)"/>
       <use xlink:href="#DejaVuSans-73" transform="translate(280.025391 0)"/>
       <use xlink:href="#DejaVuSans-73" transform="translate(332.125 0)"/>
       <use xlink:href="#DejaVuSans-20" transform="translate(384.224609 0)"/>
       <use xlink:href="#DejaVuSans-64" transform="translate(416.011719 0)"/>
       <use xlink:href="#DejaVuSans-31" transform="translate(479.488281 0)"/>
      </g>
     </g>
    </g>
    <g id="ytick_2">
     <g id="line2d_11">
      <path d="M 53.134 301.271693 
L 513.216 301.271693 
" clip-path="url(#pfdc58f051e)" style="fill: none; stroke: #e6e6e6; stroke-width: 0.35; stroke-linecap: square"/>
     </g>
     <g id="line2d_12">
      <path d="M 53.134 301.271693 
" style="fill: none; stroke: #333333; stroke-width: 1.5; stroke-linecap: square"/>
      <g>
       <use xlink:href="#m50e3b3274d" x="53.134" y="301.271693" style="fill: #333333; stroke: #333333"/>
      </g>
     </g>
     <g id="text_6">
      <!-- freq d1 -->
      <g style="fill: #4d4d4d" transform="translate(19.9965 304.311068) scale(0.08 -0.08)">
       <defs>
        <path id="DejaVuSans-66" d="M 2375 4863 
L 2375 4384 
L 1825 4384 
Q 1516 4384 1395 4259 
Q 1275 4134 1275 3809 
L 1275 3500 
L 2222 3500 
L 2222 3053 
L 1275 3053 
L 1275 0 
L 697 0 
L 697 3053 
L 147 3053 
L 147 3500 
L 697 3500 
L 697 3744 
Q 697 4328 969 4595 
Q 1241 4863 1831 4863 
L 2375 4863 
z
" transform="scale(0.015625)"/>
        <path id="DejaVuSans-71" d="M 947 1747 
Q 947 1113 1208 752 
Q 1469 391 1925 391 
Q 2381 391 2643 752 
Q 2906 1113 2906 1747 
Q 2906 2381 2643 2742 
Q 2381 3103 1925 3103 
Q 1469 3103 1208 2742 
Q 947 2381 947 1747 
z
M 2906 525 
Q 2725 213 2448 61 
Q 2172 -91 1784 -91 
Q 1150 -91 751 415 
Q 353 922 353 1747 
Q 353 2572 751 3078 
Q 1150 3584 1784 3584 
Q 2172 3584 2448 3432 
Q 2725 3281 2906 2969 
L 2906 3500 
L 3481 3500 
L 3481 -1331 
L 2906 -1331 
L 2906 525 
z
" transform="scale(0.015625)"/>
       </defs>
       <use xlink:href="#DejaVuSans-66"/>
       <use xlink:href="#DejaVuSans-72" transform="translate(35.205078 0)"/>
       <use xlink:href="#DejaVuSans-65" transform="translate(74.068359 0)"/>
       <use xlink:href="#DejaVuSans-71" transform="translate(135.591797 0)"/>
       <use xlink:href="#DejaVuSans-20" transform="translate(199.068359 0)"/>
       <use xlink:href="#DejaVuSans-64" transform="translate(230.855469 0)"/>
       <use xlink:href="#DejaVuSans-31" transform="translate(294.332031 0)"/>
      </g>
     </g>
    </g>
    <g id="ytick_3">
     <g id="line2d_13">
      <path d="M 53.134 275.746892 
L 513.216 275.746892 
" clip-path="url(#pfdc58f051e)" style="fill: none; stroke: #e6e6e6; stroke-width: 0.35; stroke-linecap: square"/>
     </g>
     <g id="line2d_14">
      <path d="M 53.134 275.746892 
" style="fill: none; stroke: #333333; stroke-width: 1.5; stroke-linecap: square"/>
      <g>
       <use xlink:href="#m50e3b3274d" x="53.134" y="275.746892" style="fill: #333333; stroke: #333333"/>
      </g>
     </g>
     <g id="text_7">
      <!-- freq d2 -->
      <g style="fill: #4d4d4d" transform="translate(19.9965 278.786267) scale(0.08 -0.08)">
       <defs>
        <path id="DejaVuSans-32" d="M 1228 531 
L 3431 531 
L 3431 0 
L 469 0 
L 469 531 
Q 828 903 1448 1529 
Q 2069 2156 2228 2338 
Q 2531 2678 2651 2914 
Q 2772 3150 2772 3378 
Q 2772 3750 2511 3984 
Q 2250 4219 1831 4219 
Q 1534 4219 1204 4116 
Q 875 4013 500 3803 
L 500 4441 
Q 881 4594 1212 4672 
Q 1544 4750 1819 4750 
Q 2544 4750 2975 4387 
Q 3406 4025 3406 3419 
Q 3406 3131 3298 2873 
Q 3191 2616 2906 2266 
Q 2828 2175 2409 1742 
Q 1991 1309 1228 531 
z
" transform="scale(0.015625)"/>
       </defs>
       <use xlink:href="#DejaVuSans-66"/>
       <use xlink:href="#DejaVuSans-72" transform="translate(35.205078 0)"/>
       <use xlink:href="#DejaVuSans-65" transform="translate(74.068359 0)"/>
       <use xlink:href="#DejaVuSans-71" transform="translate(135.591797 0)"/>
       <use xlink:href="#DejaVuSans-20" transform="translate(199.068359 0)"/>
       <use xlink:href="#DejaVuSans-64" transform="translate(230.855469 0)"/>
       <use xlink:href="#DejaVuSans-32" transform="translate(294.332031 0)"/>
      </g>
     </g>
    </g>
    <g id="ytick_4">
     <g id="line2d_15">
      <path d="M 53.134 250.222091 
L 513.216 250.222091 
" clip-path="url(#pfdc58f051e)" style="fill: none; stroke: #e6e6e6; stroke-width: 0.35; stroke-linecap: square"/>
     </g>
     <g id="line2d_16">
      <path d="M 53.134 250.222091 
" style="fill: none; stroke: #333333; stroke-width: 1.5; stroke-linecap: square"/>
      <g>
       <use xlink:href="#m50e3b3274d" x="53.134" y="250.222091" style="fill: #333333; stroke: #333333"/>
      </g>
     </g>
     <g id="text_8">
      <!-- freq d5 -->
      <g style="fill: #4d4d4d" transform="translate(19.9965 253.261466) scale(0.08 -0.08)">
       <defs>
        <path id="DejaVuSans-35" d="M 691 4666 
L 3169 4666 
L 3169 4134 
L 1269 4134 
L 1269 2991 
Q 1406 3038 1543 3061 
Q 1681 3084 1819 3084 
Q 2600 3084 3056 2656 
Q 3513 2228 3513 1497 
Q 3513 744 3044 326 
Q 2575 -91 1722 -91 
Q 1428 -91 1123 -41 
Q 819 9 494 109 
L 494 744 
Q 775 591 1075 516 
Q 1375 441 1709 441 
Q 2250 441 2565 725 
Q 2881 1009 2881 1497 
Q 2881 1984 2565 2268 
Q 2250 2553 1709 2553 
Q 1456 2553 1204 2497 
Q 953 2441 691 2322 
L 691 4666 
z
" transform="scale(0.015625)"/>
       </defs>
       <use xlink:href="#DejaVuSans-66"/>
       <use xlink:href="#DejaVuSans-72" transform="translate(35.205078 0)"/>
       <use xlink:href="#DejaVuSans-65" transform="translate(74.068359 0)"/>
       <use xlink:href="#DejaVuSans-71" transform="translate(135.591797 0)"/>
       <use xlink:href="#DejaVuSans-20" transform="translate(199.068359 0)"/>
       <use xlink:href="#DejaVuSans-64" transform="translate(230.855469 0)"/>
       <use xlink:href="#DejaVuSans-35" transform="translate(294.332031 0)"/>
      </g>
     </g>
    </g>
    <g id="ytick_5">
     <g id="line2d_17">
      <path d="M 53.134 224.69729 
L 513.216 224.69729 
" clip-path="url(#pfdc58f051e)" style="fill: none; stroke: #e6e6e6; stroke-width: 0.35; stroke-linecap: square"/>
     </g>
     <g id="line2d_18">
      <path d="M 53.134 224.69729 
" style="fill: none; stroke: #333333; stroke-width: 1.5; stroke-linecap: square"/>
      <g>
       <use xlink:href="#m50e3b3274d" x="53.134" y="224.69729" style="fill: #333333; stroke: #333333"/>
      </g>
     </g>
     <g id="text_9">
      <!-- freq d10 -->
      <g style="fill: #4d4d4d" transform="translate(14.9065 227.736665) scale(0.08 -0.08)">
       <use xlink:href="#DejaVuSans-66"/>
       <use xlink:href="#DejaVuSans-72" transform="translate(35.205078 0)"/>
       <use xlink:href="#DejaVuSans-65" transform="translate(74.068359 0)"/>
       <use xlink:href="#DejaVuSans-71" transform="translate(135.591797 0)"/>
       <use xlink:href="#DejaVuSans-20" transform="translate(199.068359 0)"/>
       <use xlink:href="#DejaVuSans-64" transform="translate(230.855469 0)"/>
       <use xlink:href="#DejaVuSans-31" transform="translate(294.332031 0)"/>
       <use xlink:href="#DejaVuSans-30" transform="translate(357.955078 0)"/>
      </g>
     </g>
    </g>
    <g id="ytick_6">
     <g id="line2d_19">
      <path d="M 53.134 199.172489 
L 513.216 199.172489 
" clip-path="url(#pfdc58f051e)" style="fill: none; stroke: #e6e6e6; stroke-width: 0.35; stroke-linecap: square"/>
     </g>
     <g id="line2d_20">
      <path d="M 53.134 199.172489 
" style="fill: none; stroke: #333333; stroke-width: 1.5; stroke-linecap: square"/>
      <g>
       <use xlink:href="#m50e3b3274d" x="53.134" y="199.172489" style="fill: #333333; stroke: #333333"/>
      </g>
     </g>
     <g id="text_10">
      <!-- distrib d1 -->
      <g style="fill: #4d4d4d" transform="translate(10.72775 202.211864) scale(0.08 -0.08)">
       <defs>
        <path id="DejaVuSans-69" d="M 603 3500 
L 1178 3500 
L 1178 0 
L 603 0 
L 603 3500 
z
M 603 4863 
L 1178 4863 
L 1178 4134 
L 603 4134 
L 603 4863 
z
" transform="scale(0.015625)"/>
        <path id="DejaVuSans-74" d="M 1172 4494 
L 1172 3500 
L 2356 3500 
L 2356 3053 
L 1172 3053 
L 1172 1153 
Q 1172 725 1289 603 
Q 1406 481 1766 481 
L 2356 481 
L 2356 0 
L 1766 0 
Q 1100 0 847 248 
Q 594 497 594 1153 
L 594 3053 
L 172 3053 
L 172 3500 
L 594 3500 
L 594 4494 
L 1172 4494 
z
" transform="scale(0.015625)"/>
        <path id="DejaVuSans-62" d="M 3116 1747 
Q 3116 2381 2855 2742 
Q 2594 3103 2138 3103 
Q 1681 3103 1420 2742 
Q 1159 2381 1159 1747 
Q 1159 1113 1420 752 
Q 1681 391 2138 391 
Q 2594 391 2855 752 
Q 3116 1113 3116 1747 
z
M 1159 2969 
Q 1341 3281 1617 3432 
Q 1894 3584 2278 3584 
Q 2916 3584 3314 3078 
Q 3713 2572 3713 1747 
Q 3713 922 3314 415 
Q 2916 -91 2278 -91 
Q 1894 -91 1617 61 
Q 1341 213 1159 525 
L 1159 0 
L 581 0 
L 581 4863 
L 1159 4863 
L 1159 2969 
z
" transform="scale(0.015625)"/>
       </defs>
       <use xlink:href="#DejaVuSans-64"/>
       <use xlink:href="#DejaVuSans-69" transform="translate(63.476562 0)"/>
       <use xlink:href="#DejaVuSans-73" transform="translate(91.259766 0)"/>
       <use xlink:href="#DejaVuSans-74" transform="translate(143.359375 0)"/>
       <use xlink:href="#DejaVuSans-72" transform="translate(182.568359 0)"/>
       <use xlink:href="#DejaVuSans-69" transform="translate(223.681641 0)"/>
       <use xlink:href="#DejaVuSans-62" transform="translate(251.464844 0)"/>
       <use xlink:href="#DejaVuSans-20" transform="translate(314.941406 0)"/>
       <use xlink:href="#DejaVuSans-64" transform="translate(346.728516 0)"/>
       <use xlink:href="#DejaVuSans-31" transform="translate(410.205078 0)"/>
      </g>
     </g>
    </g>
    <g id="ytick_7">
     <g id="line2d_21">
      <path d="M 53.134 173.647688 
L 513.216 173.647688 
" clip-path="url(#pfdc58f051e)" style="fill: none; stroke: #e6e6e6; stroke-width: 0.35; stroke-linecap: square"/>
     </g>
     <g id="line2d_22">
      <path d="M 53.134 173.647688 
" style="fill: none; stroke: #333333; stroke-width: 1.5; stroke-linecap: square"/>
      <g>
       <use xlink:href="#m50e3b3274d" x="53.134" y="173.647688" style="fill: #333333; stroke: #333333"/>
      </g>
     </g>
     <g id="text_11">
      <!-- distrib d2 -->
      <g style="fill: #4d4d4d" transform="translate(10.72775 176.687063) scale(0.08 -0.08)">
       <use xlink:href="#DejaVuSans-64"/>
       <use xlink:href="#DejaVuSans-69" transform="translate(63.476562 0)"/>
       <use xlink:href="#DejaVuSans-73" transform="translate(91.259766 0)"/>
       <use xlink:href="#DejaVuSans-74" transform="translate(143.359375 0)"/>
       <use xlink:href="#DejaVuSans-72" transform="translate(182.568359 0)"/>
       <use xlink:href="#DejaVuSans-69" transform="translate(223.681641 0)"/>
       <use xlink:href="#DejaVuSans-62" transform="translate(251.464844 0)"/>
       <use xlink:href="#DejaVuSans-20" transform="translate(314.941406 0)"/>
       <use xlink:href="#DejaVuSans-64" transform="translate(346.728516 0)"/>
       <use xlink:href="#DejaVuSans-32" transform="translate(410.205078 0)"/>
      </g>
     </g>
    </g>
    <g id="ytick_8">
     <g id="line2d_23">
      <path d="M 53.134 148.122886 
L 513.216 148.122886 
" clip-path="url(#pfdc58f051e)" style="fill: none; stroke: #e6e6e6; stroke-width: 0.35; stroke-linecap: square"/>
     </g>
     <g id="line2d_24">
      <path d="M 53.134 148.122886 
" style="fill: none; stroke: #333333; stroke-width: 1.5; stroke-linecap: square"/>
      <g>
       <use xlink:href="#m50e3b3274d" x="53.134" y="148.122886" style="fill: #333333; stroke: #333333"/>
      </g>
     </g>
     <g id="text_12">
      <!-- distrib d5 -->
      <g style="fill: #4d4d4d" transform="translate(10.72775 151.162261) scale(0.08 -0.08)">
       <use xlink:href="#DejaVuSans-64"/>
       <use xlink:href="#DejaVuSans-69" transform="translate(63.476562 0)"/>
       <use xlink:href="#DejaVuSans-73" transform="translate(91.259766 0)"/>
       <use xlink:href="#DejaVuSans-74" transform="translate(143.359375 0)"/>
       <use xlink:href="#DejaVuSans-72" transform="translate(182.568359 0)"/>
       <use xlink:href="#DejaVuSans-69" transform="translate(223.681641 0)"/>
       <use xlink:href="#DejaVuSans-62" transform="translate(251.464844 0)"/>
       <use xlink:href="#DejaVuSans-20" transform="translate(314.941406 0)"/>
       <use xlink:href="#DejaVuSans-64" transform="translate(346.728516 0)"/>
       <use xlink:href="#DejaVuSans-35" transform="translate(410.205078 0)"/>
      </g>
     </g>
    </g>
    <g id="ytick_9">
     <g id="line2d_25">
      <path d="M 53.134 122.598085 
L 513.216 122.598085 
" clip-path="url(#pfdc58f051e)" style="fill: none; stroke: #e6e6e6; stroke-width: 0.35; stroke-linecap: square"/>
     </g>
     <g id="line2d_26">
      <path d="M 53.134 122.598085 
" style="fill: none; stroke: #333333; stroke-width: 1.5; stroke-linecap: square"/>
      <g>
       <use xlink:href="#m50e3b3274d" x="53.134" y="122.598085" style="fill: #333333; stroke: #333333"/>
      </g>
     </g>
     <g id="text_13">
      <!-- distrib d10 -->
      <g style="fill: #4d4d4d" transform="translate(5.63775 125.63746) scale(0.08 -0.08)">
       <use xlink:href="#DejaVuSans-64"/>
       <use xlink:href="#DejaVuSans-69" transform="translate(63.476562 0)"/>
       <use xlink:href="#DejaVuSans-73" transform="translate(91.259766 0)"/>
       <use xlink:href="#DejaVuSans-74" transform="translate(143.359375 0)"/>
       <use xlink:href="#DejaVuSans-72" transform="translate(182.568359 0)"/>
       <use xlink:href="#DejaVuSans-69" transform="translate(223.681641 0)"/>
       <use xlink:href="#DejaVuSans-62" transform="translate(251.464844 0)"/>
       <use xlink:href="#DejaVuSans-20" transform="translate(314.941406 0)"/>
       <use xlink:href="#DejaVuSans-64" transform="translate(346.728516 0)"/>
       <use xlink:href="#DejaVuSans-31" transform="translate(410.205078 0)"/>
       <use xlink:href="#DejaVuSans-30" transform="translate(473.828125 0)"/>
      </g>
     </g>
    </g>
    <g id="ytick_10">
     <g id="line2d_27">
      <path d="M 53.134 97.073284 
L 513.216 97.073284 
" clip-path="url(#pfdc58f051e)" style="fill: none; stroke: #e6e6e6; stroke-width: 0.35; stroke-linecap: square"/>
     </g>
     <g id="line2d_28">
      <path d="M 53.134 97.073284 
" style="fill: none; stroke: #333333; stroke-width: 1.5; stroke-linecap: square"/>
      <g>
       <use xlink:href="#m50e3b3274d" x="53.134" y="97.073284" style="fill: #333333; stroke: #333333"/>
      </g>
     </g>
     <g id="text_14">
      <!-- signif d1 -->
      <g style="fill: #4d4d4d" transform="translate(14.34525 100.112659) scale(0.08 -0.08)">
       <defs>
        <path id="DejaVuSans-67" d="M 2906 1791 
Q 2906 2416 2648 2759 
Q 2391 3103 1925 3103 
Q 1463 3103 1205 2759 
Q 947 2416 947 1791 
Q 947 1169 1205 825 
Q 1463 481 1925 481 
Q 2391 481 2648 825 
Q 2906 1169 2906 1791 
z
M 3481 434 
Q 3481 -459 3084 -895 
Q 2688 -1331 1869 -1331 
Q 1566 -1331 1297 -1286 
Q 1028 -1241 775 -1147 
L 775 -588 
Q 1028 -725 1275 -790 
Q 1522 -856 1778 -856 
Q 2344 -856 2625 -561 
Q 2906 -266 2906 331 
L 2906 616 
Q 2728 306 2450 153 
Q 2172 0 1784 0 
Q 1141 0 747 490 
Q 353 981 353 1791 
Q 353 2603 747 3093 
Q 1141 3584 1784 3584 
Q 2172 3584 2450 3431 
Q 2728 3278 2906 2969 
L 2906 3500 
L 3481 3500 
L 3481 434 
z
" transform="scale(0.015625)"/>
        <path id="DejaVuSans-6e" d="M 3513 2113 
L 3513 0 
L 2938 0 
L 2938 2094 
Q 2938 2591 2744 2837 
Q 2550 3084 2163 3084 
Q 1697 3084 1428 2787 
Q 1159 2491 1159 1978 
L 1159 0 
L 581 0 
L 581 3500 
L 1159 3500 
L 1159 2956 
Q 1366 3272 1645 3428 
Q 1925 3584 2291 3584 
Q 2894 3584 3203 3211 
Q 3513 2838 3513 2113 
z
" transform="scale(0.015625)"/>
       </defs>
       <use xlink:href="#DejaVuSans-73"/>
       <use xlink:href="#DejaVuSans-69" transform="translate(52.099609 0)"/>
       <use xlink:href="#DejaVuSans-67" transform="translate(79.882812 0)"/>
       <use xlink:href="#DejaVuSans-6e" transform="translate(143.359375 0)"/>
       <use xlink:href="#DejaVuSans-69" transform="translate(206.738281 0)"/>
       <use xlink:href="#DejaVuSans-66" transform="translate(234.521484 0)"/>
       <use xlink:href="#DejaVuSans-20" transform="translate(269.726562 0)"/>
       <use xlink:href="#DejaVuSans-64" transform="translate(301.513672 0)"/>
       <use xlink:href="#DejaVuSans-31" transform="translate(364.990234 0)"/>
      </g>
     </g>
    </g>
    <g id="ytick_11">
     <g id="line2d_29">
      <path d="M 53.134 71.548483 
L 513.216 71.548483 
" clip-path="url(#pfdc58f051e)" style="fill: none; stroke: #e6e6e6; stroke-width: 0.35; stroke-linecap: square"/>
     </g>
     <g id="line2d_30">
      <path d="M 53.134 71.548483 
" style="fill: none; stroke: #333333; stroke-width: 1.5; stroke-linecap: square"/>
      <g>
       <use xlink:href="#m50e3b3274d" x="53.134" y="71.548483" style="fill: #333333; stroke: #333333"/>
      </g>
     </g>
     <g id="text_15">
      <!-- signif d2 -->
      <g style="fill: #4d4d4d" transform="translate(14.34525 74.587858) scale(0.08 -0.08)">
       <use xlink:href="#DejaVuSans-73"/>
       <use xlink:href="#DejaVuSans-69" transform="translate(52.099609 0)"/>
       <use xlink:href="#DejaVuSans-67" transform="translate(79.882812 0)"/>
       <use xlink:href="#DejaVuSans-6e" transform="translate(143.359375 0)"/>
       <use xlink:href="#DejaVuSans-69" transform="translate(206.738281 0)"/>
       <use xlink:href="#DejaVuSans-66" transform="translate(234.521484 0)"/>
       <use xlink:href="#DejaVuSans-20" transform="translate(269.726562 0)"/>
       <use xlink:href="#DejaVuSans-64" transform="translate(301.513672 0)"/>
       <use xlink:href="#DejaVuSans-32" transform="translate(364.990234 0)"/>
      </g>
     </g>
    </g>
    <g id="ytick_12">
     <g id="line2d_31">
      <path d="M 53.134 46.023682 
L 513.216 46.023682 
" clip-path="url(#pfdc58f051e)" style="fill: none; stroke: #e6e6e6; stroke-width: 0.35; stroke-linecap: square"/>
     </g>
     <g id="line2d_32">
      <path d="M 53.134 46.023682 
" style="fill: none; stroke: #333333; stroke-width: 1.5; stroke-linecap: square"/>
      <g>
       <use xlink:href="#m50e3b3274d" x="53.134" y="46.023682" style="fill: #333333; stroke: #333333"/>
      </g>
     </g>
     <g id="text_16">
      <!-- signif d5 -->
      <g style="fill: #4d4d4d" transform="translate(14.34525 49.063057) scale(0.08 -0.08)">
       <use xlink:href="#DejaVuSans-73"/>
       <use xlink:href="#DejaVuSans-69" transform="translate(52.099609 0)"/>
       <use xlink:href="#DejaVuSans-67" transform="translate(79.882812 0)"/>
       <use xlink:href="#DejaVuSans-6e" transform="translate(143.359375 0)"/>
       <use xlink:href="#DejaVuSans-69" transform="translate(206.738281 0)"/>
       <use xlink:href="#DejaVuSans-66" transform="translate(234.521484 0)"/>
       <use xlink:href="#DejaVuSans-20" transform="translate(269.726562 0)"/>
       <use xlink:href="#DejaVuSans-64" transform="translate(301.513672 0)"/>
       <use xlink:href="#DejaVuSans-35" transform="translate(364.990234 0)"/>
      </g>
     </g>
    </g>
    <g id="ytick_13">
     <g id="line2d_33">
      <path d="M 53.134 20.498881 
L 513.216 20.498881 
" clip-path="url(#pfdc58f051e)" style="fill: none; stroke: #e6e6e6; stroke-width: 0.35; stroke-linecap: square"/>
     </g>
     <g id="line2d_34">
      <path d="M 53.134 20.498881 
" style="fill: none; stroke: #333333; stroke-width: 1.5; stroke-linecap: square"/>
      <g>
       <use xlink:href="#m50e3b3274d" x="53.134" y="20.498881" style="fill: #333333; stroke: #333333"/>
      </g>
     </g>
     <g id="text_17">
      <!-- signif d10 -->
      <g style="fill: #4d4d4d" transform="translate(9.25525 23.538256) scale(0.08 -0.08)">
       <use xlink:href="#DejaVuSans-73"/>
       <use xlink:href="#DejaVuSans-69" transform="translate(52.099609 0)"/>
       <use xlink:href="#DejaVuSans-67" transform="translate(79.882812 0)"/>
       <use xlink:href="#DejaVuSans-6e" transform="translate(143.359375 0)"/>
       <use xlink:href="#DejaVuSans-69" transform="translate(206.738281 0)"/>
       <use xlink:href="#DejaVuSans-66" transform="translate(234.521484 0)"/>
       <use xlink:href="#DejaVuSans-20" transform="translate(269.726562 0)"/>
       <use xlink:href="#DejaVuSans-64" transform="translate(301.513672 0)"/>
       <use xlink:href="#DejaVuSans-31" transform="translate(364.990234 0)"/>
       <use xlink:href="#DejaVuSans-30" transform="translate(428.613281 0)"/>
      </g>
     </g>
    </g>
   </g>
   <g id="LineCollection_1">
    <path d="M 146.42157 326.796494 
L 206.705967 326.796494 
" clip-path="url(#pfdc58f051e)" style="fill: none; stroke: #004d40; stroke-width: 2.215567"/>
   </g>
   <g id="LineCollection_2">
    <path d="M 430.200543 301.271693 
L 492.303182 301.271693 
" clip-path="url(#pfdc58f051e)" style="fill: none; stroke: #004d40; stroke-width: 2.215567"/>
   </g>
   <g id="LineCollection_3">
    <path d="M 409.520503 275.746892 
L 480.487971 275.746892 
" clip-path="url(#pfdc58f051e)" style="fill: none; stroke: #004d40; stroke-width: 2.215567"/>
   </g>
   <g id="LineCollection_4">
    <path d="M 411.012793 250.222091 
L 478.762087 250.222091 
" clip-path="url(#pfdc58f051e)" style="fill: none; stroke: #004d40; stroke-width: 2.215567"/>
   </g>
   <g id="LineCollection_5">
    <path d="M 412.403115 224.69729 
L 481.545887 224.69729 
" clip-path="url(#pfdc58f051e)" style="fill: none; stroke: #004d40; stroke-width: 2.215567"/>
   </g>
   <g id="LineCollection_6">
    <path d="M 463.82815 199.172489 
L 476.973224 199.172489 
" clip-path="url(#pfdc58f051e)" style="fill: none; stroke: #004d40; stroke-width: 2.215567"/>
   </g>
   <g id="LineCollection_7">
    <path d="M 445.086891 173.647688 
L 489.905852 173.647688 
" clip-path="url(#pfdc58f051e)" style="fill: none; stroke: #004d40; stroke-width: 2.215567"/>
   </g>
   <g id="LineCollection_8">
    <path d="M 434.446306 148.122886 
L 484.506875 148.122886 
" clip-path="url(#pfdc58f051e)" style="fill: none; stroke: #004d40; stroke-width: 2.215567"/>
   </g>
   <g id="LineCollection_9">
    <path d="M 431.984588 122.598085 
L 491.422099 122.598085 
" clip-path="url(#pfdc58f051e)" style="fill: none; stroke: #004d40; stroke-width: 2.215567"/>
   </g>
   <g id="LineCollection_10">
    <path d="M 100.008617 97.073284 
L 157.359217 97.073284 
" clip-path="url(#pfdc58f051e)" style="fill: none; stroke: #004d40; stroke-width: 2.215567"/>
   </g>
   <g id="LineCollection_11">
    <path d="M 74.046818 71.548483 
L 143.497093 71.548483 
" clip-path="url(#pfdc58f051e)" style="fill: none; stroke: #004d40; stroke-width: 2.215567"/>
   </g>
   <g id="LineCollection_12">
    <path d="M 84.234048 46.023682 
L 140.321389 46.023682 
" clip-path="url(#pfdc58f051e)" style="fill: none; stroke: #004d40; stroke-width: 2.215567"/>
   </g>
   <g id="LineCollection_13">
    <path d="M 100.974612 20.498881 
L 128.865256 20.498881 
" clip-path="url(#pfdc58f051e)" style="fill: none; stroke: #004d40; stroke-width: 2.215567"/>
   </g>
   <g id="PathCollection_1">
    <path d="M 170.312371 329.366552 
C 170.993958 329.366552 171.647721 329.095755 172.129676 328.6138 
C 172.611631 328.131845 172.882429 327.478082 172.882429 326.796494 
C 172.882429 326.114907 172.611631 325.461144 172.129676 324.979189 
C 171.647721 324.497234 170.993958 324.226436 170.312371 324.226436 
C 169.630783 324.226436 168.97702 324.497234 168.495065 324.979189 
C 168.01311 325.461144 167.742313 326.114907 167.742313 326.796494 
C 167.742313 327.478082 168.01311 328.131845 168.495065 328.6138 
C 168.97702 329.095755 169.630783 329.366552 170.312371 329.366552 
z
" clip-path="url(#pfdc58f051e)" style="fill: #d81b60; stroke: #d81b60; stroke-width: 0.886227"/>
    <path d="M 461.02446 303.841751 
C 461.706048 303.841751 462.359811 303.570954 462.841766 303.088999 
C 463.323721 302.607044 463.594518 301.953281 463.594518 301.271693 
C 463.594518 300.590106 463.323721 299.936343 462.841766 299.454388 
C 462.359811 298.972433 461.706048 298.701635 461.02446 298.701635 
C 460.342873 298.701635 459.68911 298.972433 459.207155 299.454388 
C 458.7252 299.936343 458.454402 300.590106 458.454402 301.271693 
C 458.454402 301.953281 458.7252 302.607044 459.207155 303.088999 
C 459.68911 303.570954 460.342873 303.841751 461.02446 303.841751 
z
" clip-path="url(#pfdc58f051e)" style="fill: #d81b60; stroke: #d81b60; stroke-width: 0.886227"/>
    <path d="M 445.592004 278.31695 
C 446.273591 278.31695 446.927355 278.046153 447.40931 277.564198 
C 447.891265 277.082242 448.162062 276.428479 448.162062 275.746892 
C 448.162062 275.065305 447.891265 274.411542 447.40931 273.929587 
C 446.927355 273.447631 446.273591 273.176834 445.592004 273.176834 
C 444.910417 273.176834 444.256654 273.447631 443.774699 273.929587 
C 443.292744 274.411542 443.021946 275.065305 443.021946 275.746892 
C 443.021946 276.428479 443.292744 277.082242 443.774699 277.564198 
C 444.256654 278.046153 444.910417 278.31695 445.592004 278.31695 
z
" clip-path="url(#pfdc58f051e)" style="fill: #d81b60; stroke: #d81b60; stroke-width: 0.886227"/>
    <path d="M 448.870938 252.792149 
C 449.552525 252.792149 450.206288 252.521351 450.688243 252.039396 
C 451.170198 251.557441 451.440996 250.903678 451.440996 250.222091 
C 451.440996 249.540504 451.170198 248.88674 450.688243 248.404785 
C 450.206288 247.92283 449.552525 247.652033 448.870938 247.652033 
C 448.18935 247.652033 447.535587 247.92283 447.053632 248.404785 
C 446.571677 248.88674 446.30088 249.540504 446.30088 250.222091 
C 446.30088 250.903678 446.571677 251.557441 447.053632 252.039396 
C 447.535587 252.521351 448.18935 252.792149 448.870938 252.792149 
z
" clip-path="url(#pfdc58f051e)" style="fill: #d81b60; stroke: #d81b60; stroke-width: 0.886227"/>
    <path d="M 450.682395 227.267348 
C 451.363983 227.267348 452.017746 226.99655 452.499701 226.514595 
C 452.981656 226.03264 453.252453 225.378877 453.252453 224.69729 
C 453.252453 224.015702 452.981656 223.361939 452.499701 222.879984 
C 452.017746 222.398029 451.363983 222.127232 450.682395 222.127232 
C 450.000808 222.127232 449.347045 222.398029 448.86509 222.879984 
C 448.383135 223.361939 448.112337 224.015702 448.112337 224.69729 
C 448.112337 225.378877 448.383135 226.03264 448.86509 226.514595 
C 449.347045 226.99655 450.000808 227.267348 450.682395 227.267348 
z
" clip-path="url(#pfdc58f051e)" style="fill: #d81b60; stroke: #d81b60; stroke-width: 0.886227"/>
    <path d="M 469.433759 201.742547 
C 470.115346 201.742547 470.769109 201.471749 471.251064 200.989794 
C 471.733019 200.507839 472.003817 199.854076 472.003817 199.172489 
C 472.003817 198.490901 471.733019 197.837138 471.251064 197.355183 
C 470.769109 196.873228 470.115346 196.602431 469.433759 196.602431 
C 468.752171 196.602431 468.098408 196.873228 467.616453 197.355183 
C 467.134498 197.837138 466.863701 198.490901 466.863701 199.172489 
C 466.863701 199.854076 467.134498 200.507839 467.616453 200.989794 
C 468.098408 201.471749 468.752171 201.742547 469.433759 201.742547 
z
" clip-path="url(#pfdc58f051e)" style="fill: #d81b60; stroke: #d81b60; stroke-width: 0.886227"/>
    <path d="M 466.213677 176.217746 
C 466.895264 176.217746 467.549027 175.946948 468.030982 175.464993 
C 468.512937 174.983038 468.783735 174.329275 468.783735 173.647688 
C 468.783735 172.9661 468.512937 172.312337 468.030982 171.830382 
C 467.549027 171.348427 466.895264 171.077629 466.213677 171.077629 
C 465.532089 171.077629 464.878326 171.348427 464.396371 171.830382 
C 463.914416 172.312337 463.643619 172.9661 463.643619 173.647688 
C 463.643619 174.329275 463.914416 174.983038 464.396371 175.464993 
C 464.878326 175.946948 465.532089 176.217746 466.213677 176.217746 
z
" clip-path="url(#pfdc58f051e)" style="fill: #d81b60; stroke: #d81b60; stroke-width: 0.886227"/>
    <path d="M 457.897003 150.692944 
C 458.578591 150.692944 459.232354 150.422147 459.714309 149.940192 
C 460.196264 149.458237 460.467061 148.804474 460.467061 148.122886 
C 460.467061 147.441299 460.196264 146.787536 459.714309 146.305581 
C 459.232354 145.823626 458.578591 145.552828 457.897003 145.552828 
C 457.215416 145.552828 456.561653 145.823626 456.079698 146.305581 
C 455.597743 146.787536 455.326945 147.441299 455.326945 148.122886 
C 455.326945 148.804474 455.597743 149.458237 456.079698 149.940192 
C 456.561653 150.422147 457.215416 150.692944 457.897003 150.692944 
z
" clip-path="url(#pfdc58f051e)" style="fill: #d81b60; stroke: #d81b60; stroke-width: 0.886227"/>
    <path d="M 466.639442 125.168143 
C 467.321029 125.168143 467.974792 124.897346 468.456747 124.415391 
C 468.938703 123.933436 469.2095 123.279673 469.2095 122.598085 
C 469.2095 121.916498 468.938703 121.262735 468.456747 120.78078 
C 467.974792 120.298825 467.321029 120.028027 466.639442 120.028027 
C 465.957855 120.028027 465.304092 120.298825 464.822136 120.78078 
C 464.340181 121.262735 464.069384 121.916498 464.069384 122.598085 
C 464.069384 123.279673 464.340181 123.933436 464.822136 124.415391 
C 465.304092 124.897346 465.957855 125.168143 466.639442 125.168143 
z
" clip-path="url(#pfdc58f051e)" style="fill: #d81b60; stroke: #d81b60; stroke-width: 0.886227"/>
    <path d="M 134.946561 99.643342 
C 135.628149 99.643342 136.281912 99.372545 136.763867 98.89059 
C 137.245822 98.408635 137.516619 97.754871 137.516619 97.073284 
C 137.516619 96.391697 137.245822 95.737934 136.763867 95.255979 
C 136.281912 94.774024 135.628149 94.503226 134.946561 94.503226 
C 134.264974 94.503226 133.611211 94.774024 133.129256 95.255979 
C 132.647301 95.737934 132.376503 96.391697 132.376503 97.073284 
C 132.376503 97.754871 132.647301 98.408635 133.129256 98.89059 
C 133.611211 99.372545 134.264974 99.643342 134.946561 99.643342 
z
" clip-path="url(#pfdc58f051e)" style="fill: #d81b60; stroke: #d81b60; stroke-width: 0.886227"/>
    <path d="M 118.424172 74.118541 
C 119.105759 74.118541 119.759522 73.847744 120.241477 73.365788 
C 120.723432 72.883833 120.99423 72.23007 120.99423 71.548483 
C 120.99423 70.866896 120.723432 70.213133 120.241477 69.731177 
C 119.759522 69.249222 119.105759 68.978425 118.424172 68.978425 
C 117.742584 68.978425 117.088821 69.249222 116.606866 69.731177 
C 116.124911 70.213133 115.854114 70.866896 115.854114 71.548483 
C 115.854114 72.23007 116.124911 72.883833 116.606866 73.365788 
C 117.088821 73.847744 117.742584 74.118541 118.424172 74.118541 
z
" clip-path="url(#pfdc58f051e)" style="fill: #d81b60; stroke: #d81b60; stroke-width: 0.886227"/>
    <path d="M 123.747585 48.59374 
C 124.429173 48.59374 125.082936 48.322942 125.564891 47.840987 
C 126.046846 47.359032 126.317643 46.705269 126.317643 46.023682 
C 126.317643 45.342094 126.046846 44.688331 125.564891 44.206376 
C 125.082936 43.724421 124.429173 43.453624 123.747585 43.453624 
C 123.065998 43.453624 122.412235 43.724421 121.93028 44.206376 
C 121.448325 44.688331 121.177527 45.342094 121.177527 46.023682 
C 121.177527 46.705269 121.448325 47.359032 121.93028 47.840987 
C 122.412235 48.322942 123.065998 48.59374 123.747585 48.59374 
z
" clip-path="url(#pfdc58f051e)" style="fill: #d81b60; stroke: #d81b60; stroke-width: 0.886227"/>
    <path d="M 118.177469 23.068939 
C 118.859057 23.068939 119.51282 22.798141 119.994775 22.316186 
C 120.47673 21.834231 120.747527 21.180468 120.747527 20.498881 
C 120.747527 19.817293 120.47673 19.16353 119.994775 18.681575 
C 119.51282 18.19962 118.859057 17.928823 118.177469 17.928823 
C 117.495882 17.928823 116.842119 18.19962 116.360164 18.681575 
C 115.878209 19.16353 115.607411 19.817293 115.607411 20.498881 
C 115.607411 21.180468 115.878209 21.834231 116.360164 22.316186 
C 116.842119 22.798141 117.495882 23.068939 118.177469 23.068939 
z
" clip-path="url(#pfdc58f051e)" style="fill: #d81b60; stroke: #d81b60; stroke-width: 0.886227"/>
   </g>
   <g id="PathCollection_2">
    <path d="M 471.167906 203.459755 
C 471.684972 203.459755 472.18093 203.254323 472.546551 202.888701 
C 472.912172 202.52308 473.117605 202.027122 473.117605 201.510056 
C 473.117605 200.99299 472.912172 200.497031 472.546551 200.13141 
C 472.18093 199.765789 471.684972 199.560357 471.167906 199.560357 
C 470.65084 199.560357 470.154881 199.765789 469.78926 200.13141 
C 469.423639 200.497031 469.218207 200.99299 469.218207 201.510056 
C 469.218207 202.027122 469.423639 202.52308 469.78926 202.888701 
C 470.154881 203.254323 470.65084 203.459755 471.167906 203.459755 
z
" clip-path="url(#pfdc58f051e)" style="fill: #ff655d; fill-opacity: 0.678431; stroke: #ff655d; stroke-opacity: 0.678431; stroke-width: 0.886227"/>
    <path d="M 469.341542 174.932562 
C 469.858608 174.932562 470.354566 174.72713 470.720187 174.361509 
C 471.085808 173.995887 471.291241 173.499929 471.291241 172.982863 
C 471.291241 172.465797 471.085808 171.969838 470.720187 171.604217 
C 470.354566 171.238596 469.858608 171.033164 469.341542 171.033164 
C 468.824475 171.033164 468.328517 171.238596 467.962896 171.604217 
C 467.597275 171.969838 467.391842 172.465797 467.391842 172.982863 
C 467.391842 173.499929 467.597275 173.995887 467.962896 174.361509 
C 468.328517 174.72713 468.824475 174.932562 469.341542 174.932562 
z
" clip-path="url(#pfdc58f051e)" style="fill: #ff655d; fill-opacity: 0.678431; stroke: #ff655d; stroke-opacity: 0.678431; stroke-width: 0.886227"/>
    <path d="M 449.199247 147.970028 
C 449.716313 147.970028 450.212271 147.764595 450.577892 147.398974 
C 450.943513 147.033353 451.148946 146.537395 451.148946 146.020329 
C 451.148946 145.503262 450.943513 145.007304 450.577892 144.641683 
C 450.212271 144.276062 449.716313 144.070629 449.199247 144.070629 
C 448.68218 144.070629 448.186222 144.276062 447.820601 144.641683 
C 447.45498 145.007304 447.249547 145.503262 447.249547 146.020329 
C 447.249547 146.537395 447.45498 147.033353 447.820601 147.398974 
C 448.186222 147.764595 448.68218 147.970028 449.199247 147.970028 
z
" clip-path="url(#pfdc58f051e)" style="fill: #ff655d; fill-opacity: 0.678431; stroke: #ff655d; stroke-opacity: 0.678431; stroke-width: 0.886227"/>
    <path d="M 461.012612 123.160707 
C 461.529679 123.160707 462.025637 122.955274 462.391258 122.589653 
C 462.756879 122.224032 462.962311 121.728074 462.962311 121.211008 
C 462.962311 120.693941 462.756879 120.197983 462.391258 119.832362 
C 462.025637 119.466741 461.529679 119.261308 461.012612 119.261308 
C 460.495546 119.261308 459.999588 119.466741 459.633967 119.832362 
C 459.268346 120.197983 459.062913 120.693941 459.062913 121.211008 
C 459.062913 121.728074 459.268346 122.224032 459.633967 122.589653 
C 459.999588 122.955274 460.495546 123.160707 461.012612 123.160707 
z
" clip-path="url(#pfdc58f051e)" style="fill: #ff655d; fill-opacity: 0.678431; stroke: #ff655d; stroke-opacity: 0.678431; stroke-width: 0.886227"/>
    <path d="M 450.810188 304.58467 
C 451.327254 304.58467 451.823212 304.379238 452.188833 304.013617 
C 452.554454 303.647996 452.759887 303.152037 452.759887 302.634971 
C 452.759887 302.117905 452.554454 301.621947 452.188833 301.256326 
C 451.823212 300.890704 451.327254 300.685272 450.810188 300.685272 
C 450.293121 300.685272 449.797163 300.890704 449.431542 301.256326 
C 449.065921 301.621947 448.860488 302.117905 448.860488 302.634971 
C 448.860488 303.152037 449.065921 303.647996 449.431542 304.013617 
C 449.797163 304.379238 450.293121 304.58467 450.810188 304.58467 
z
" clip-path="url(#pfdc58f051e)" style="fill: #ff655d; fill-opacity: 0.678431; stroke: #ff655d; stroke-opacity: 0.678431; stroke-width: 0.886227"/>
    <path d="M 435.974829 275.656756 
C 436.491895 275.656756 436.987853 275.451323 437.353474 275.085702 
C 437.719095 274.720081 437.924528 274.224123 437.924528 273.707057 
C 437.924528 273.18999 437.719095 272.694032 437.353474 272.328411 
C 436.987853 271.96279 436.491895 271.757357 435.974829 271.757357 
C 435.457763 271.757357 434.961804 271.96279 434.596183 272.328411 
C 434.230562 272.694032 434.02513 273.18999 434.02513 273.707057 
C 434.02513 274.224123 434.230562 274.720081 434.596183 275.085702 
C 434.961804 275.451323 435.457763 275.656756 435.974829 275.656756 
z
" clip-path="url(#pfdc58f051e)" style="fill: #ff655d; fill-opacity: 0.678431; stroke: #ff655d; stroke-opacity: 0.678431; stroke-width: 0.886227"/>
    <path d="M 443.03971 255.216743 
C 443.556777 255.216743 444.052735 255.01131 444.418356 254.645689 
C 444.783977 254.280068 444.98941 253.78411 444.98941 253.267044 
C 444.98941 252.749977 444.783977 252.254019 444.418356 251.888398 
C 444.052735 251.522777 443.556777 251.317344 443.03971 251.317344 
C 442.522644 251.317344 442.026686 251.522777 441.661065 251.888398 
C 441.295444 252.254019 441.090011 252.749977 441.090011 253.267044 
C 441.090011 253.78411 441.295444 254.280068 441.661065 254.645689 
C 442.026686 255.01131 442.522644 255.216743 443.03971 255.216743 
z
" clip-path="url(#pfdc58f051e)" style="fill: #ff655d; fill-opacity: 0.678431; stroke: #ff655d; stroke-opacity: 0.678431; stroke-width: 0.886227"/>
    <path d="M 437.487247 225.028119 
C 438.004313 225.028119 438.500272 224.822686 438.865893 224.457065 
C 439.231514 224.091444 439.436946 223.595486 439.436946 223.07842 
C 439.436946 222.561353 439.231514 222.065395 438.865893 221.699774 
C 438.500272 221.334153 438.004313 221.12872 437.487247 221.12872 
C 436.970181 221.12872 436.474223 221.334153 436.108602 221.699774 
C 435.74298 222.065395 435.537548 222.561353 435.537548 223.07842 
C 435.537548 223.595486 435.74298 224.091444 436.108602 224.457065 
C 436.474223 224.822686 436.970181 225.028119 437.487247 225.028119 
z
" clip-path="url(#pfdc58f051e)" style="fill: #ff655d; fill-opacity: 0.678431; stroke: #ff655d; stroke-opacity: 0.678431; stroke-width: 0.886227"/>
    <path d="M 206.705967 326.806115 
C 207.223033 326.806115 207.718991 326.600682 208.084613 326.235061 
C 208.450234 325.86944 208.655666 325.373482 208.655666 324.856415 
C 208.655666 324.339349 208.450234 323.843391 208.084613 323.47777 
C 207.718991 323.112149 207.223033 322.906716 206.705967 322.906716 
C 206.188901 322.906716 205.692942 323.112149 205.327321 323.47777 
C 204.9617 323.843391 204.756268 324.339349 204.756268 324.856415 
C 204.756268 325.373482 204.9617 325.86944 205.327321 326.235061 
C 205.692942 326.600682 206.188901 326.806115 206.705967 326.806115 
z
" clip-path="url(#pfdc58f051e)" style="fill: #ff655d; fill-opacity: 0.678431; stroke: #ff655d; stroke-opacity: 0.678431; stroke-width: 0.886227"/>
    <path d="M 148.081428 101.050789 
C 148.598494 101.050789 149.094452 100.845357 149.460073 100.479736 
C 149.825694 100.114114 150.031127 99.618156 150.031127 99.10109 
C 150.031127 98.584024 149.825694 98.088066 149.460073 97.722444 
C 149.094452 97.356823 148.598494 97.151391 148.081428 97.151391 
C 147.564361 97.151391 147.068403 97.356823 146.702782 97.722444 
C 146.337161 98.088066 146.131728 98.584024 146.131728 99.10109 
C 146.131728 99.618156 146.337161 100.114114 146.702782 100.479736 
C 147.068403 100.845357 147.564361 101.050789 148.081428 101.050789 
z
" clip-path="url(#pfdc58f051e)" style="fill: #ff655d; fill-opacity: 0.678431; stroke: #ff655d; stroke-opacity: 0.678431; stroke-width: 0.886227"/>
    <path d="M 132.464854 71.974087 
C 132.98192 71.974087 133.477879 71.768655 133.8435 71.403034 
C 134.209121 71.037412 134.414553 70.541454 134.414553 70.024388 
C 134.414553 69.507322 134.209121 69.011363 133.8435 68.645742 
C 133.477879 68.280121 132.98192 68.074689 132.464854 68.074689 
C 131.947788 68.074689 131.45183 68.280121 131.086209 68.645742 
C 130.720588 69.011363 130.515155 69.507322 130.515155 70.024388 
C 130.515155 70.541454 130.720588 71.037412 131.086209 71.403034 
C 131.45183 71.768655 131.947788 71.974087 132.464854 71.974087 
z
" clip-path="url(#pfdc58f051e)" style="fill: #ff655d; fill-opacity: 0.678431; stroke: #ff655d; stroke-opacity: 0.678431; stroke-width: 0.886227"/>
    <path d="M 140.321389 45.442503 
C 140.838455 45.442503 141.334413 45.23707 141.700034 44.871449 
C 142.065655 44.505828 142.271088 44.00987 142.271088 43.492803 
C 142.271088 42.975737 142.065655 42.479779 141.700034 42.114158 
C 141.334413 41.748537 140.838455 41.543104 140.321389 41.543104 
C 139.804322 41.543104 139.308364 41.748537 138.942743 42.114158 
C 138.577122 42.479779 138.371689 42.975737 138.371689 43.492803 
C 138.371689 44.00987 138.577122 44.505828 138.942743 44.871449 
C 139.308364 45.23707 139.804322 45.442503 140.321389 45.442503 
z
" clip-path="url(#pfdc58f051e)" style="fill: #ff655d; fill-opacity: 0.678431; stroke: #ff655d; stroke-opacity: 0.678431; stroke-width: 0.886227"/>
    <path d="M 122.36899 23.216812 
C 122.886056 23.216812 123.382014 23.011379 123.747635 22.645758 
C 124.113256 22.280137 124.318689 21.784179 124.318689 21.267113 
C 124.318689 20.750046 124.113256 20.254088 123.747635 19.888467 
C 123.382014 19.522846 122.886056 19.317413 122.36899 19.317413 
C 121.851923 19.317413 121.355965 19.522846 120.990344 19.888467 
C 120.624723 20.254088 120.41929 20.750046 120.41929 21.267113 
C 120.41929 21.784179 120.624723 22.280137 120.990344 22.645758 
C 121.355965 23.011379 121.851923 23.216812 122.36899 23.216812 
z
" clip-path="url(#pfdc58f051e)" style="fill: #ff655d; fill-opacity: 0.678431; stroke: #ff655d; stroke-opacity: 0.678431; stroke-width: 0.886227"/>
    <path d="M 476.973224 199.190663 
C 477.49029 199.190663 477.986249 198.98523 478.35187 198.619609 
C 478.717491 198.253988 478.922923 197.75803 478.922923 197.240963 
C 478.922923 196.723897 478.717491 196.227939 478.35187 195.862318 
C 477.986249 195.496697 477.49029 195.291264 476.973224 195.291264 
C 476.456158 195.291264 475.9602 195.496697 475.594579 195.862318 
C 475.228957 196.227939 475.023525 196.723897 475.023525 197.240963 
C 475.023525 197.75803 475.228957 198.253988 475.594579 198.619609 
C 475.9602 198.98523 476.456158 199.190663 476.973224 199.190663 
z
" clip-path="url(#pfdc58f051e)" style="fill: #ff655d; fill-opacity: 0.678431; stroke: #ff655d; stroke-opacity: 0.678431; stroke-width: 0.886227"/>
    <path d="M 460.520421 176.000044 
C 461.037488 176.000044 461.533446 175.794611 461.899067 175.42899 
C 462.264688 175.063369 462.470121 174.567411 462.470121 174.050345 
C 462.470121 173.533278 462.264688 173.03732 461.899067 172.671699 
C 461.533446 172.306078 461.037488 172.100645 460.520421 172.100645 
C 460.003355 172.100645 459.507397 172.306078 459.141776 172.671699 
C 458.776155 173.03732 458.570722 173.533278 458.570722 174.050345 
C 458.570722 174.567411 458.776155 175.063369 459.141776 175.42899 
C 459.507397 175.794611 460.003355 176.000044 460.520421 176.000044 
z
" clip-path="url(#pfdc58f051e)" style="fill: #ff655d; fill-opacity: 0.678431; stroke: #ff655d; stroke-opacity: 0.678431; stroke-width: 0.886227"/>
    <path d="M 463.435586 151.730728 
C 463.952653 151.730728 464.448611 151.525296 464.814232 151.159675 
C 465.179853 150.794054 465.385286 150.298095 465.385286 149.781029 
C 465.385286 149.263963 465.179853 148.768005 464.814232 148.402384 
C 464.448611 148.036762 463.952653 147.83133 463.435586 147.83133 
C 462.91852 147.83133 462.422562 148.036762 462.056941 148.402384 
C 461.69132 148.768005 461.485887 149.263963 461.485887 149.781029 
C 461.485887 150.298095 461.69132 150.794054 462.056941 151.159675 
C 462.422562 151.525296 462.91852 151.730728 463.435586 151.730728 
z
" clip-path="url(#pfdc58f051e)" style="fill: #ff655d; fill-opacity: 0.678431; stroke: #ff655d; stroke-opacity: 0.678431; stroke-width: 0.886227"/>
    <path d="M 491.422099 125.31842 
C 491.939166 125.31842 492.435124 125.112987 492.800745 124.747366 
C 493.166366 124.381745 493.371799 123.885787 493.371799 123.36872 
C 493.371799 122.851654 493.166366 122.355696 492.800745 121.990075 
C 492.435124 121.624454 491.939166 121.419021 491.422099 121.419021 
C 490.905033 121.419021 490.409075 121.624454 490.043454 121.990075 
C 489.677833 122.355696 489.4724 122.851654 489.4724 123.36872 
C 489.4724 123.885787 489.677833 124.381745 490.043454 124.747366 
C 490.409075 125.112987 490.905033 125.31842 491.422099 125.31842 
z
" clip-path="url(#pfdc58f051e)" style="fill: #ff655d; fill-opacity: 0.678431; stroke: #ff655d; stroke-opacity: 0.678431; stroke-width: 0.886227"/>
    <path d="M 470.783929 302.875717 
C 471.300996 302.875717 471.796954 302.670284 472.162575 302.304663 
C 472.528196 301.939042 472.733628 301.443084 472.733628 300.926018 
C 472.733628 300.408951 472.528196 299.912993 472.162575 299.547372 
C 471.796954 299.181751 471.300996 298.976318 470.783929 298.976318 
C 470.266863 298.976318 469.770905 299.181751 469.405284 299.547372 
C 469.039663 299.912993 468.83423 300.408951 468.83423 300.926018 
C 468.83423 301.443084 469.039663 301.939042 469.405284 302.304663 
C 469.770905 302.670284 470.266863 302.875717 470.783929 302.875717 
z
" clip-path="url(#pfdc58f051e)" style="fill: #ff655d; fill-opacity: 0.678431; stroke: #ff655d; stroke-opacity: 0.678431; stroke-width: 0.886227"/>
    <path d="M 456.384713 274.950713 
C 456.90178 274.950713 457.397738 274.74528 457.763359 274.379659 
C 458.12898 274.014038 458.334412 273.51808 458.334412 273.001014 
C 458.334412 272.483947 458.12898 271.987989 457.763359 271.622368 
C 457.397738 271.256747 456.90178 271.051314 456.384713 271.051314 
C 455.867647 271.051314 455.371689 271.256747 455.006068 271.622368 
C 454.640447 271.987989 454.435014 272.483947 454.435014 273.001014 
C 454.435014 273.51808 454.640447 274.014038 455.006068 274.379659 
C 455.371689 274.74528 455.867647 274.950713 456.384713 274.950713 
z
" clip-path="url(#pfdc58f051e)" style="fill: #ff655d; fill-opacity: 0.678431; stroke: #ff655d; stroke-opacity: 0.678431; stroke-width: 0.886227"/>
    <path d="M 462.66916 254.026324 
C 463.186227 254.026324 463.682185 253.820892 464.047806 253.455271 
C 464.413427 253.08965 464.61886 252.593691 464.61886 252.076625 
C 464.61886 251.559559 464.413427 251.063601 464.047806 250.69798 
C 463.682185 250.332359 463.186227 250.126926 462.66916 250.126926 
C 462.152094 250.126926 461.656136 250.332359 461.290515 250.69798 
C 460.924894 251.063601 460.719461 251.559559 460.719461 252.076625 
C 460.719461 252.593691 460.924894 253.08965 461.290515 253.455271 
C 461.656136 253.820892 462.152094 254.026324 462.66916 254.026324 
z
" clip-path="url(#pfdc58f051e)" style="fill: #ff655d; fill-opacity: 0.678431; stroke: #ff655d; stroke-opacity: 0.678431; stroke-width: 0.886227"/>
    <path d="M 471.293332 229.594718 
C 471.810399 229.594718 472.306357 229.389286 472.671978 229.023665 
C 473.037599 228.658044 473.243032 228.162085 473.243032 227.645019 
C 473.243032 227.127953 473.037599 226.631995 472.671978 226.266374 
C 472.306357 225.900753 471.810399 225.69532 471.293332 225.69532 
C 470.776266 225.69532 470.280308 225.900753 469.914687 226.266374 
C 469.549066 226.631995 469.343633 227.127953 469.343633 227.645019 
C 469.343633 228.162085 469.549066 228.658044 469.914687 229.023665 
C 470.280308 229.389286 470.776266 229.594718 471.293332 229.594718 
z
" clip-path="url(#pfdc58f051e)" style="fill: #ff655d; fill-opacity: 0.678431; stroke: #ff655d; stroke-opacity: 0.678431; stroke-width: 0.886227"/>
    <path d="M 146.42157 326.411249 
C 146.938636 326.411249 147.434594 326.205816 147.800215 325.840195 
C 148.165836 325.474574 148.371269 324.978616 148.371269 324.461549 
C 148.371269 323.944483 148.165836 323.448525 147.800215 323.082904 
C 147.434594 322.717283 146.938636 322.51185 146.42157 322.51185 
C 145.904503 322.51185 145.408545 322.717283 145.042924 323.082904 
C 144.677303 323.448525 144.47187 323.944483 144.47187 324.461549 
C 144.47187 324.978616 144.677303 325.474574 145.042924 325.840195 
C 145.408545 326.205816 145.904503 326.411249 146.42157 326.411249 
z
" clip-path="url(#pfdc58f051e)" style="fill: #ff655d; fill-opacity: 0.678431; stroke: #ff655d; stroke-opacity: 0.678431; stroke-width: 0.886227"/>
    <path d="M 157.359217 96.240864 
C 157.876283 96.240864 158.372241 96.035431 158.737862 95.66981 
C 159.103483 95.304189 159.308916 94.808231 159.308916 94.291164 
C 159.308916 93.774098 159.103483 93.27814 158.737862 92.912519 
C 158.372241 92.546898 157.876283 92.341465 157.359217 92.341465 
C 156.84215 92.341465 156.346192 92.546898 155.980571 92.912519 
C 155.61495 93.27814 155.409517 93.774098 155.409517 94.291164 
C 155.409517 94.808231 155.61495 95.304189 155.980571 95.66981 
C 156.346192 96.035431 156.84215 96.240864 157.359217 96.240864 
z
" clip-path="url(#pfdc58f051e)" style="fill: #ff655d; fill-opacity: 0.678431; stroke: #ff655d; stroke-opacity: 0.678431; stroke-width: 0.886227"/>
    <path d="M 123.687921 75.822528 
C 124.204988 75.822528 124.700946 75.617096 125.066567 75.251475 
C 125.432188 74.885854 125.63762 74.389896 125.63762 73.872829 
C 125.63762 73.355763 125.432188 72.859805 125.066567 72.494184 
C 124.700946 72.128563 124.204988 71.92313 123.687921 71.92313 
C 123.170855 71.92313 122.674897 72.128563 122.309276 72.494184 
C 121.943655 72.859805 121.738222 73.355763 121.738222 73.872829 
C 121.738222 74.389896 121.943655 74.885854 122.309276 75.251475 
C 122.674897 75.617096 123.170855 75.822528 123.687921 75.822528 
z
" clip-path="url(#pfdc58f051e)" style="fill: #ff655d; fill-opacity: 0.678431; stroke: #ff655d; stroke-opacity: 0.678431; stroke-width: 0.886227"/>
    <path d="M 135.363261 48.206913 
C 135.880327 48.206913 136.376285 48.00148 136.741907 47.635859 
C 137.107528 47.270238 137.31296 46.77428 137.31296 46.257214 
C 137.31296 45.740147 137.107528 45.244189 136.741907 44.878568 
C 136.376285 44.512947 135.880327 44.307514 135.363261 44.307514 
C 134.846195 44.307514 134.350237 44.512947 133.984615 44.878568 
C 133.618994 45.244189 133.413562 45.740147 133.413562 46.257214 
C 133.413562 46.77428 133.618994 47.270238 133.984615 47.635859 
C 134.350237 48.00148 134.846195 48.206913 135.363261 48.206913 
z
" clip-path="url(#pfdc58f051e)" style="fill: #ff655d; fill-opacity: 0.678431; stroke: #ff655d; stroke-opacity: 0.678431; stroke-width: 0.886227"/>
    <path d="M 128.865256 24.807939 
C 129.382322 24.807939 129.878281 24.602507 130.243902 24.236885 
C 130.609523 23.871264 130.814955 23.375306 130.814955 22.85824 
C 130.814955 22.341174 130.609523 21.845215 130.243902 21.479594 
C 129.878281 21.113973 129.382322 20.908541 128.865256 20.908541 
C 128.34819 20.908541 127.852232 21.113973 127.486611 21.479594 
C 127.12099 21.845215 126.915557 22.341174 126.915557 22.85824 
C 126.915557 23.375306 127.12099 23.871264 127.486611 24.236885 
C 127.852232 24.602507 128.34819 24.807939 128.865256 24.807939 
z
" clip-path="url(#pfdc58f051e)" style="fill: #ff655d; fill-opacity: 0.678431; stroke: #ff655d; stroke-opacity: 0.678431; stroke-width: 0.886227"/>
    <path d="M 463.82815 198.661614 
C 464.345217 198.661614 464.841175 198.456182 465.206796 198.090561 
C 465.572417 197.72494 465.777849 197.228981 465.777849 196.711915 
C 465.777849 196.194849 465.572417 195.698891 465.206796 195.33327 
C 464.841175 194.967648 464.345217 194.762216 463.82815 194.762216 
C 463.311084 194.762216 462.815126 194.967648 462.449505 195.33327 
C 462.083884 195.698891 461.878451 196.194849 461.878451 196.711915 
C 461.878451 197.228981 462.083884 197.72494 462.449505 198.090561 
C 462.815126 198.456182 463.311084 198.661614 463.82815 198.661614 
z
" clip-path="url(#pfdc58f051e)" style="fill: #ff655d; fill-opacity: 0.678431; stroke: #ff655d; stroke-opacity: 0.678431; stroke-width: 0.886227"/>
    <path d="M 445.086891 172.998631 
C 445.603957 172.998631 446.099916 172.793198 446.465537 172.427577 
C 446.831158 172.061956 447.03659 171.565998 447.03659 171.048931 
C 447.03659 170.531865 446.831158 170.035907 446.465537 169.670286 
C 446.099916 169.304665 445.603957 169.099232 445.086891 169.099232 
C 444.569825 169.099232 444.073867 169.304665 443.708246 169.670286 
C 443.342624 170.035907 443.137192 170.531865 443.137192 171.048931 
C 443.137192 171.565998 443.342624 172.061956 443.708246 172.427577 
C 444.073867 172.793198 444.569825 172.998631 445.086891 172.998631 
z
" clip-path="url(#pfdc58f051e)" style="fill: #ff655d; fill-opacity: 0.678431; stroke: #ff655d; stroke-opacity: 0.678431; stroke-width: 0.886227"/>
    <path d="M 434.446306 151.851457 
C 434.963372 151.851457 435.45933 151.646024 435.824951 151.280403 
C 436.190572 150.914782 436.396005 150.418824 436.396005 149.901757 
C 436.396005 149.384691 436.190572 148.888733 435.824951 148.523112 
C 435.45933 148.157491 434.963372 147.952058 434.446306 147.952058 
C 433.929239 147.952058 433.433281 148.157491 433.06766 148.523112 
C 432.702039 148.888733 432.496606 149.384691 432.496606 149.901757 
C 432.496606 150.418824 432.702039 150.914782 433.06766 151.280403 
C 433.433281 151.646024 433.929239 151.851457 434.446306 151.851457 
z
" clip-path="url(#pfdc58f051e)" style="fill: #ff655d; fill-opacity: 0.678431; stroke: #ff655d; stroke-opacity: 0.678431; stroke-width: 0.886227"/>
    <path d="M 431.984588 122.811447 
C 432.501654 122.811447 432.997613 122.606015 433.363234 122.240394 
C 433.728855 121.874773 433.934287 121.378814 433.934287 120.861748 
C 433.934287 120.344682 433.728855 119.848724 433.363234 119.483103 
C 432.997613 119.117482 432.501654 118.912049 431.984588 118.912049 
C 431.467522 118.912049 430.971564 119.117482 430.605943 119.483103 
C 430.240322 119.848724 430.034889 120.344682 430.034889 120.861748 
C 430.034889 121.378814 430.240322 121.874773 430.605943 122.240394 
C 430.971564 122.606015 431.467522 122.811447 431.984588 122.811447 
z
" clip-path="url(#pfdc58f051e)" style="fill: #ff655d; fill-opacity: 0.678431; stroke: #ff655d; stroke-opacity: 0.678431; stroke-width: 0.886227"/>
    <path d="M 430.200543 302.366906 
C 430.717609 302.366906 431.213567 302.161473 431.579188 301.795852 
C 431.94481 301.430231 432.150242 300.934273 432.150242 300.417207 
C 432.150242 299.900141 431.94481 299.404182 431.579188 299.038561 
C 431.213567 298.67294 430.717609 298.467508 430.200543 298.467508 
C 429.683477 298.467508 429.187518 298.67294 428.821897 299.038561 
C 428.456276 299.404182 428.250844 299.900141 428.250844 300.417207 
C 428.250844 300.934273 428.456276 301.430231 428.821897 301.795852 
C 429.187518 302.161473 429.683477 302.366906 430.200543 302.366906 
z
" clip-path="url(#pfdc58f051e)" style="fill: #ff655d; fill-opacity: 0.678431; stroke: #ff655d; stroke-opacity: 0.678431; stroke-width: 0.886227"/>
    <path d="M 409.520503 278.519752 
C 410.037569 278.519752 410.533528 278.314319 410.899149 277.948698 
C 411.26477 277.583077 411.470202 277.087119 411.470202 276.570053 
C 411.470202 276.052986 411.26477 275.557028 410.899149 275.191407 
C 410.533528 274.825786 410.037569 274.620353 409.520503 274.620353 
C 409.003437 274.620353 408.507479 274.825786 408.141858 275.191407 
C 407.776237 275.557028 407.570804 276.052986 407.570804 276.570053 
C 407.570804 277.087119 407.776237 277.583077 408.141858 277.948698 
C 408.507479 278.314319 409.003437 278.519752 409.520503 278.519752 
z
" clip-path="url(#pfdc58f051e)" style="fill: #ff655d; fill-opacity: 0.678431; stroke: #ff655d; stroke-opacity: 0.678431; stroke-width: 0.886227"/>
    <path d="M 411.012793 251.889834 
C 411.529859 251.889834 412.025817 251.684401 412.391438 251.31878 
C 412.757059 250.953159 412.962492 250.457201 412.962492 249.940135 
C 412.962492 249.423068 412.757059 248.92711 412.391438 248.561489 
C 412.025817 248.195868 411.529859 247.990435 411.012793 247.990435 
C 410.495726 247.990435 409.999768 248.195868 409.634147 248.561489 
C 409.268526 248.92711 409.063093 249.423068 409.063093 249.940135 
C 409.063093 250.457201 409.268526 250.953159 409.634147 251.31878 
C 409.999768 251.684401 410.495726 251.889834 411.012793 251.889834 
z
" clip-path="url(#pfdc58f051e)" style="fill: #ff655d; fill-opacity: 0.678431; stroke: #ff655d; stroke-opacity: 0.678431; stroke-width: 0.886227"/>
    <path d="M 412.403115 225.441113 
C 412.920182 225.441113 413.41614 225.235681 413.781761 224.87006 
C 414.147382 224.504439 414.352815 224.008481 414.352815 223.491414 
C 414.352815 222.974348 414.147382 222.47839 413.781761 222.112769 
C 413.41614 221.747148 412.920182 221.541715 412.403115 221.541715 
C 411.886049 221.541715 411.390091 221.747148 411.02447 222.112769 
C 410.658849 222.47839 410.453416 222.974348 410.453416 223.491414 
C 410.453416 224.008481 410.658849 224.504439 411.02447 224.87006 
C 411.390091 225.235681 411.886049 225.441113 412.403115 225.441113 
z
" clip-path="url(#pfdc58f051e)" style="fill: #ff655d; fill-opacity: 0.678431; stroke: #ff655d; stroke-opacity: 0.678431; stroke-width: 0.886227"/>
    <path d="M 173.767963 330.960017 
C 174.28503 330.960017 174.780988 330.754584 175.146609 330.388963 
C 175.51223 330.023342 175.717663 329.527384 175.717663 329.010317 
C 175.717663 328.493251 175.51223 327.997293 175.146609 327.631672 
C 174.780988 327.266051 174.28503 327.060618 173.767963 327.060618 
C 173.250897 327.060618 172.754939 327.266051 172.389318 327.631672 
C 172.023697 327.997293 171.818264 328.493251 171.818264 329.010317 
C 171.818264 329.527384 172.023697 330.023342 172.389318 330.388963 
C 172.754939 330.754584 173.250897 330.960017 173.767963 330.960017 
z
" clip-path="url(#pfdc58f051e)" style="fill: #ff655d; fill-opacity: 0.678431; stroke: #ff655d; stroke-opacity: 0.678431; stroke-width: 0.886227"/>
    <path d="M 100.008617 96.644981 
C 100.525684 96.644981 101.021642 96.439549 101.387263 96.073928 
C 101.752884 95.708306 101.958317 95.212348 101.958317 94.695282 
C 101.958317 94.178216 101.752884 93.682258 101.387263 93.316636 
C 101.021642 92.951015 100.525684 92.745583 100.008617 92.745583 
C 99.491551 92.745583 98.995593 92.951015 98.629972 93.316636 
C 98.264351 93.682258 98.058918 94.178216 98.058918 94.695282 
C 98.058918 95.212348 98.264351 95.708306 98.629972 96.073928 
C 98.995593 96.439549 99.491551 96.644981 100.008617 96.644981 
z
" clip-path="url(#pfdc58f051e)" style="fill: #ff655d; fill-opacity: 0.678431; stroke: #ff655d; stroke-opacity: 0.678431; stroke-width: 0.886227"/>
    <path d="M 74.046818 71.774713 
C 74.563884 71.774713 75.059843 71.569281 75.425464 71.20366 
C 75.791085 70.838039 75.996517 70.34208 75.996517 69.825014 
C 75.996517 69.307948 75.791085 68.81199 75.425464 68.446369 
C 75.059843 68.080748 74.563884 67.875315 74.046818 67.875315 
C 73.529752 67.875315 73.033794 68.080748 72.668173 68.446369 
C 72.302552 68.81199 72.097119 69.307948 72.097119 69.825014 
C 72.097119 70.34208 72.302552 70.838039 72.668173 71.20366 
C 73.033794 71.569281 73.529752 71.774713 74.046818 71.774713 
z
" clip-path="url(#pfdc58f051e)" style="fill: #ff655d; fill-opacity: 0.678431; stroke: #ff655d; stroke-opacity: 0.678431; stroke-width: 0.886227"/>
    <path d="M 84.234048 47.688788 
C 84.751114 47.688788 85.247072 47.483355 85.612693 47.117734 
C 85.978315 46.752113 86.183747 46.256155 86.183747 45.739088 
C 86.183747 45.222022 85.978315 44.726064 85.612693 44.360443 
C 85.247072 43.994822 84.751114 43.789389 84.234048 43.789389 
C 83.716982 43.789389 83.221023 43.994822 82.855402 44.360443 
C 82.489781 44.726064 82.284349 45.222022 82.284349 45.739088 
C 82.284349 46.256155 82.489781 46.752113 82.855402 47.117734 
C 83.221023 47.483355 83.716982 47.688788 84.234048 47.688788 
z
" clip-path="url(#pfdc58f051e)" style="fill: #ff655d; fill-opacity: 0.678431; stroke: #ff655d; stroke-opacity: 0.678431; stroke-width: 0.886227"/>
    <path d="M 100.974612 21.932089 
C 101.491678 21.932089 101.987636 21.726656 102.353257 21.361035 
C 102.718879 20.995414 102.924311 20.499456 102.924311 19.98239 
C 102.924311 19.465323 102.718879 18.969365 102.353257 18.603744 
C 101.987636 18.238123 101.491678 18.03269 100.974612 18.03269 
C 100.457546 18.03269 99.961587 18.238123 99.595966 18.603744 
C 99.230345 18.969365 99.024913 19.465323 99.024913 19.98239 
C 99.024913 20.499456 99.230345 20.995414 99.595966 21.361035 
C 99.961587 21.726656 100.457546 21.932089 100.974612 21.932089 
z
" clip-path="url(#pfdc58f051e)" style="fill: #ff655d; fill-opacity: 0.678431; stroke: #ff655d; stroke-opacity: 0.678431; stroke-width: 0.886227"/>
    <path d="M 465.765755 202.563775 
C 466.282821 202.563775 466.778779 202.358342 467.1444 201.992721 
C 467.510021 201.6271 467.715454 201.131142 467.715454 200.614076 
C 467.715454 200.097009 467.510021 199.601051 467.1444 199.23543 
C 466.778779 198.869809 466.282821 198.664376 465.765755 198.664376 
C 465.248689 198.664376 464.75273 198.869809 464.387109 199.23543 
C 464.021488 199.601051 463.816056 200.097009 463.816056 200.614076 
C 463.816056 201.131142 464.021488 201.6271 464.387109 201.992721 
C 464.75273 202.358342 465.248689 202.563775 465.765755 202.563775 
z
" clip-path="url(#pfdc58f051e)" style="fill: #ff655d; fill-opacity: 0.678431; stroke: #ff655d; stroke-opacity: 0.678431; stroke-width: 0.886227"/>
    <path d="M 489.905852 174.535992 
C 490.422919 174.535992 490.918877 174.330559 491.284498 173.964938 
C 491.650119 173.599317 491.855552 173.103359 491.855552 172.586292 
C 491.855552 172.069226 491.650119 171.573268 491.284498 171.207647 
C 490.918877 170.842026 490.422919 170.636593 489.905852 170.636593 
C 489.388786 170.636593 488.892828 170.842026 488.527207 171.207647 
C 488.161586 171.573268 487.956153 172.069226 487.956153 172.586292 
C 487.956153 173.103359 488.161586 173.599317 488.527207 173.964938 
C 488.892828 174.330559 489.388786 174.535992 489.905852 174.535992 
z
" clip-path="url(#pfdc58f051e)" style="fill: #ff655d; fill-opacity: 0.678431; stroke: #ff655d; stroke-opacity: 0.678431; stroke-width: 0.886227"/>
    <path d="M 484.506875 152.574898 
C 485.023941 152.574898 485.5199 152.369466 485.885521 152.003844 
C 486.251142 151.638223 486.456574 151.142265 486.456574 150.625199 
C 486.456574 150.108133 486.251142 149.612174 485.885521 149.246553 
C 485.5199 148.880932 485.023941 148.6755 484.506875 148.6755 
C 483.989809 148.6755 483.493851 148.880932 483.12823 149.246553 
C 482.762608 149.612174 482.557176 150.108133 482.557176 150.625199 
C 482.557176 151.142265 482.762608 151.638223 483.12823 152.003844 
C 483.493851 152.369466 483.989809 152.574898 484.506875 152.574898 
z
" clip-path="url(#pfdc58f051e)" style="fill: #ff655d; fill-opacity: 0.678431; stroke: #ff655d; stroke-opacity: 0.678431; stroke-width: 0.886227"/>
    <path d="M 482.138468 124.701815 
C 482.655534 124.701815 483.151493 124.496383 483.517114 124.130762 
C 483.882735 123.76514 484.088167 123.269182 484.088167 122.752116 
C 484.088167 122.23505 483.882735 121.739091 483.517114 121.37347 
C 483.151493 121.007849 482.655534 120.802417 482.138468 120.802417 
C 481.621402 120.802417 481.125444 121.007849 480.759823 121.37347 
C 480.394201 121.739091 480.188769 122.23505 480.188769 122.752116 
C 480.188769 123.269182 480.394201 123.76514 480.759823 124.130762 
C 481.125444 124.496383 481.621402 124.701815 482.138468 124.701815 
z
" clip-path="url(#pfdc58f051e)" style="fill: #ff655d; fill-opacity: 0.678431; stroke: #ff655d; stroke-opacity: 0.678431; stroke-width: 0.886227"/>
    <path d="M 492.303182 303.936054 
C 492.820248 303.936054 493.316206 303.730621 493.681827 303.365 
C 494.047448 302.999379 494.252881 302.503421 494.252881 301.986355 
C 494.252881 301.469289 494.047448 300.97333 493.681827 300.607709 
C 493.316206 300.242088 492.820248 300.036656 492.303182 300.036656 
C 491.786116 300.036656 491.290157 300.242088 490.924536 300.607709 
C 490.558915 300.97333 490.353483 301.469289 490.353483 301.986355 
C 490.353483 302.503421 490.558915 302.999379 490.924536 303.365 
C 491.290157 303.730621 491.786116 303.936054 492.303182 303.936054 
z
" clip-path="url(#pfdc58f051e)" style="fill: #ff655d; fill-opacity: 0.678431; stroke: #ff655d; stroke-opacity: 0.678431; stroke-width: 0.886227"/>
    <path d="M 480.487971 276.316273 
C 481.005037 276.316273 481.500996 276.11084 481.866617 275.745219 
C 482.232238 275.379598 482.43767 274.88364 482.43767 274.366573 
C 482.43767 273.849507 482.232238 273.353549 481.866617 272.987928 
C 481.500996 272.622307 481.005037 272.416874 480.487971 272.416874 
C 479.970905 272.416874 479.474947 272.622307 479.109326 272.987928 
C 478.743704 273.353549 478.538272 273.849507 478.538272 274.366573 
C 478.538272 274.88364 478.743704 275.379598 479.109326 275.745219 
C 479.474947 276.11084 479.970905 276.316273 480.487971 276.316273 
z
" clip-path="url(#pfdc58f051e)" style="fill: #ff655d; fill-opacity: 0.678431; stroke: #ff655d; stroke-opacity: 0.678431; stroke-width: 0.886227"/>
    <path d="M 478.762087 253.495356 
C 479.279154 253.495356 479.775112 253.289924 480.140733 252.924302 
C 480.506354 252.558681 480.711787 252.062723 480.711787 251.545657 
C 480.711787 251.028591 480.506354 250.532632 480.140733 250.167011 
C 479.775112 249.80139 479.279154 249.595958 478.762087 249.595958 
C 478.245021 249.595958 477.749063 249.80139 477.383442 250.167011 
C 477.017821 250.532632 476.812388 251.028591 476.812388 251.545657 
C 476.812388 252.062723 477.017821 252.558681 477.383442 252.924302 
C 477.749063 253.289924 478.245021 253.495356 478.762087 253.495356 
z
" clip-path="url(#pfdc58f051e)" style="fill: #ff655d; fill-opacity: 0.678431; stroke: #ff655d; stroke-opacity: 0.678431; stroke-width: 0.886227"/>
    <path d="M 481.545887 227.049156 
C 482.062953 227.049156 482.558911 226.843723 482.924532 226.478102 
C 483.290153 226.112481 483.495586 225.616523 483.495586 225.099457 
C 483.495586 224.58239 483.290153 224.086432 482.924532 223.720811 
C 482.558911 223.35519 482.062953 223.149757 481.545887 223.149757 
C 481.028821 223.149757 480.532862 223.35519 480.167241 223.720811 
C 479.80162 224.086432 479.596188 224.58239 479.596188 225.099457 
C 479.596188 225.616523 479.80162 226.112481 480.167241 226.478102 
C 480.532862 226.843723 481.028821 227.049156 481.545887 227.049156 
z
" clip-path="url(#pfdc58f051e)" style="fill: #ff655d; fill-opacity: 0.678431; stroke: #ff655d; stroke-opacity: 0.678431; stroke-width: 0.886227"/>
    <path d="M 154.353983 327.222758 
C 154.871049 327.222758 155.367007 327.017325 155.732628 326.651704 
C 156.098249 326.286083 156.303682 325.790125 156.303682 325.273058 
C 156.303682 324.755992 156.098249 324.260034 155.732628 323.894413 
C 155.367007 323.528792 154.871049 323.323359 154.353983 323.323359 
C 153.836916 323.323359 153.340958 323.528792 152.975337 323.894413 
C 152.609716 324.260034 152.404283 324.755992 152.404283 325.273058 
C 152.404283 325.790125 152.609716 326.286083 152.975337 326.651704 
C 153.340958 327.017325 153.836916 327.222758 154.353983 327.222758 
z
" clip-path="url(#pfdc58f051e)" style="fill: #ff655d; fill-opacity: 0.678431; stroke: #ff655d; stroke-opacity: 0.678431; stroke-width: 0.886227"/>
    <path d="M 134.336984 98.074484 
C 134.85405 98.074484 135.350008 97.869052 135.715629 97.503431 
C 136.08125 97.13781 136.286683 96.641851 136.286683 96.124785 
C 136.286683 95.607719 136.08125 95.111761 135.715629 94.74614 
C 135.350008 94.380519 134.85405 94.175086 134.336984 94.175086 
C 133.819917 94.175086 133.323959 94.380519 132.958338 94.74614 
C 132.592717 95.111761 132.387285 95.607719 132.387285 96.124785 
C 132.387285 96.641851 132.592717 97.13781 132.958338 97.503431 
C 133.323959 97.869052 133.819917 98.074484 134.336984 98.074484 
z
" clip-path="url(#pfdc58f051e)" style="fill: #ff655d; fill-opacity: 0.678431; stroke: #ff655d; stroke-opacity: 0.678431; stroke-width: 0.886227"/>
    <path d="M 143.497093 74.665181 
C 144.014159 74.665181 144.510117 74.459748 144.875738 74.094127 
C 145.241359 73.728506 145.446792 73.232548 145.446792 72.715482 
C 145.446792 72.198415 145.241359 71.702457 144.875738 71.336836 
C 144.510117 70.971215 144.014159 70.765782 143.497093 70.765782 
C 142.980027 70.765782 142.484068 70.971215 142.118447 71.336836 
C 141.752826 71.702457 141.547394 72.198415 141.547394 72.715482 
C 141.547394 73.232548 141.752826 73.728506 142.118447 74.094127 
C 142.484068 74.459748 142.980027 74.665181 143.497093 74.665181 
z
" clip-path="url(#pfdc58f051e)" style="fill: #ff655d; fill-opacity: 0.678431; stroke: #ff655d; stroke-opacity: 0.678431; stroke-width: 0.886227"/>
    <path d="M 135.071644 45.681812 
C 135.58871 45.681812 136.084668 45.47638 136.450289 45.110759 
C 136.81591 44.745138 137.021343 44.249179 137.021343 43.732113 
C 137.021343 43.215047 136.81591 42.719089 136.450289 42.353468 
C 136.084668 41.987847 135.58871 41.782414 135.071644 41.782414 
C 134.554577 41.782414 134.058619 41.987847 133.692998 42.353468 
C 133.327377 42.719089 133.121944 43.215047 133.121944 43.732113 
C 133.121944 44.249179 133.327377 44.745138 133.692998 45.110759 
C 134.058619 45.47638 134.554577 45.681812 135.071644 45.681812 
z
" clip-path="url(#pfdc58f051e)" style="fill: #ff655d; fill-opacity: 0.678431; stroke: #ff655d; stroke-opacity: 0.678431; stroke-width: 0.886227"/>
    <path d="M 120.501019 21.382345 
C 121.018086 21.382345 121.514044 21.176912 121.879665 20.811291 
C 122.245286 20.44567 122.450719 19.949712 122.450719 19.432645 
C 122.450719 18.915579 122.245286 18.419621 121.879665 18.054 
C 121.514044 17.688379 121.018086 17.482946 120.501019 17.482946 
C 119.983953 17.482946 119.487995 17.688379 119.122374 18.054 
C 118.756753 18.419621 118.55132 18.915579 118.55132 19.432645 
C 118.55132 19.949712 118.756753 20.44567 119.122374 20.811291 
C 119.487995 21.176912 119.983953 21.382345 120.501019 21.382345 
z
" clip-path="url(#pfdc58f051e)" style="fill: #ff655d; fill-opacity: 0.678431; stroke: #ff655d; stroke-opacity: 0.678431; stroke-width: 0.886227"/>
   </g>
   <g id="LineCollection_14">
    <path d="M 88.372757 342.111375 
L 88.372757 5.184 
" clip-path="url(#pfdc58f051e)" style="fill: none; stroke-dasharray: 2.295328,0.992574; stroke-dashoffset: 0; stroke: #444444; stroke-width: 0.620359"/>
   </g>
  </g>
  <g id="patch_4">
   <path d="M 53.134 342.111375 
L 513.216 342.111375 
L 513.216 5.184 
L 53.134 5.184 
L 53.134 342.111375 
z
" style="fill: none; stroke: #7f7f7f; stroke-linejoin: miter"/>
  </g>
  <g id="text_18">
   <!-- C++ RADSex / rsx elapsed time (log10) -->
   <g transform="translate(184.05625 367.136313) scale(0.1 -0.1)">
    <defs>
     <path id="DejaVuSans-43" d="M 4122 4306 
L 4122 3641 
Q 3803 3938 3442 4084 
Q 3081 4231 2675 4231 
Q 1875 4231 1450 3742 
Q 1025 3253 1025 2328 
Q 1025 1406 1450 917 
Q 1875 428 2675 428 
Q 3081 428 3442 575 
Q 3803 722 4122 1019 
L 4122 359 
Q 3791 134 3420 21 
Q 3050 -91 2638 -91 
Q 1578 -91 968 557 
Q 359 1206 359 2328 
Q 359 3453 968 4101 
Q 1578 4750 2638 4750 
Q 3056 4750 3426 4639 
Q 3797 4528 4122 4306 
z
" transform="scale(0.015625)"/>
     <path id="DejaVuSans-2b" d="M 2944 4013 
L 2944 2272 
L 4684 2272 
L 4684 1741 
L 2944 1741 
L 2944 0 
L 2419 0 
L 2419 1741 
L 678 1741 
L 678 2272 
L 2419 2272 
L 2419 4013 
L 2944 4013 
z
" transform="scale(0.015625)"/>
     <path id="DejaVuSans-52" d="M 2841 2188 
Q 3044 2119 3236 1894 
Q 3428 1669 3622 1275 
L 4263 0 
L 3584 0 
L 2988 1197 
Q 2756 1666 2539 1819 
Q 2322 1972 1947 1972 
L 1259 1972 
L 1259 0 
L 628 0 
L 628 4666 
L 2053 4666 
Q 2853 4666 3247 4331 
Q 3641 3997 3641 3322 
Q 3641 2881 3436 2590 
Q 3231 2300 2841 2188 
z
M 1259 4147 
L 1259 2491 
L 2053 2491 
Q 2509 2491 2742 2702 
Q 2975 2913 2975 3322 
Q 2975 3731 2742 3939 
Q 2509 4147 2053 4147 
L 1259 4147 
z
" transform="scale(0.015625)"/>
     <path id="DejaVuSans-41" d="M 2188 4044 
L 1331 1722 
L 3047 1722 
L 2188 4044 
z
M 1831 4666 
L 2547 4666 
L 4325 0 
L 3669 0 
L 3244 1197 
L 1141 1197 
L 716 0 
L 50 0 
L 1831 4666 
z
" transform="scale(0.015625)"/>
     <path id="DejaVuSans-44" d="M 1259 4147 
L 1259 519 
L 2022 519 
Q 2988 519 3436 956 
Q 3884 1394 3884 2338 
Q 3884 3275 3436 3711 
Q 2988 4147 2022 4147 
L 1259 4147 
z
M 628 4666 
L 1925 4666 
Q 3281 4666 3915 4102 
Q 4550 3538 4550 2338 
Q 4550 1131 3912 565 
Q 3275 0 1925 0 
L 628 0 
L 628 4666 
z
" transform="scale(0.015625)"/>
     <path id="DejaVuSans-53" d="M 3425 4513 
L 3425 3897 
Q 3066 4069 2747 4153 
Q 2428 4238 2131 4238 
Q 1616 4238 1336 4038 
Q 1056 3838 1056 3469 
Q 1056 3159 1242 3001 
Q 1428 2844 1947 2747 
L 2328 2669 
Q 3034 2534 3370 2195 
Q 3706 1856 3706 1288 
Q 3706 609 3251 259 
Q 2797 -91 1919 -91 
Q 1588 -91 1214 -16 
Q 841 59 441 206 
L 441 856 
Q 825 641 1194 531 
Q 1563 422 1919 422 
Q 2459 422 2753 634 
Q 3047 847 3047 1241 
Q 3047 1584 2836 1778 
Q 2625 1972 2144 2069 
L 1759 2144 
Q 1053 2284 737 2584 
Q 422 2884 422 3419 
Q 422 4038 858 4394 
Q 1294 4750 2059 4750 
Q 2388 4750 2728 4690 
Q 3069 4631 3425 4513 
z
" transform="scale(0.015625)"/>
     <path id="DejaVuSans-78" d="M 3513 3500 
L 2247 1797 
L 3578 0 
L 2900 0 
L 1881 1375 
L 863 0 
L 184 0 
L 1544 1831 
L 300 3500 
L 978 3500 
L 1906 2253 
L 2834 3500 
L 3513 3500 
z
" transform="scale(0.015625)"/>
     <path id="DejaVuSans-2f" d="M 1625 4666 
L 2156 4666 
L 531 -594 
L 0 -594 
L 1625 4666 
z
" transform="scale(0.015625)"/>
     <path id="DejaVuSans-6c" d="M 603 4863 
L 1178 4863 
L 1178 0 
L 603 0 
L 603 4863 
z
" transform="scale(0.015625)"/>
     <path id="DejaVuSans-61" d="M 2194 1759 
Q 1497 1759 1228 1600 
Q 959 1441 959 1056 
Q 959 750 1161 570 
Q 1363 391 1709 391 
Q 2188 391 2477 730 
Q 2766 1069 2766 1631 
L 2766 1759 
L 2194 1759 
z
M 3341 1997 
L 3341 0 
L 2766 0 
L 2766 531 
Q 2569 213 2275 61 
Q 1981 -91 1556 -91 
Q 1019 -91 701 211 
Q 384 513 384 1019 
Q 384 1609 779 1909 
Q 1175 2209 1959 2209 
L 2766 2209 
L 2766 2266 
Q 2766 2663 2505 2880 
Q 2244 3097 1772 3097 
Q 1472 3097 1187 3025 
Q 903 2953 641 2809 
L 641 3341 
Q 956 3463 1253 3523 
Q 1550 3584 1831 3584 
Q 2591 3584 2966 3190 
Q 3341 2797 3341 1997 
z
" transform="scale(0.015625)"/>
     <path id="DejaVuSans-6d" d="M 3328 2828 
Q 3544 3216 3844 3400 
Q 4144 3584 4550 3584 
Q 5097 3584 5394 3201 
Q 5691 2819 5691 2113 
L 5691 0 
L 5113 0 
L 5113 2094 
Q 5113 2597 4934 2840 
Q 4756 3084 4391 3084 
Q 3944 3084 3684 2787 
Q 3425 2491 3425 1978 
L 3425 0 
L 2847 0 
L 2847 2094 
Q 2847 2600 2669 2842 
Q 2491 3084 2119 3084 
Q 1678 3084 1418 2786 
Q 1159 2488 1159 1978 
L 1159 0 
L 581 0 
L 581 3500 
L 1159 3500 
L 1159 2956 
Q 1356 3278 1631 3431 
Q 1906 3584 2284 3584 
Q 2666 3584 2933 3390 
Q 3200 3197 3328 2828 
z
" transform="scale(0.015625)"/>
     <path id="DejaVuSans-28" d="M 1984 4856 
Q 1566 4138 1362 3434 
Q 1159 2731 1159 2009 
Q 1159 1288 1364 580 
Q 1569 -128 1984 -844 
L 1484 -844 
Q 1016 -109 783 600 
Q 550 1309 550 2009 
Q 550 2706 781 3412 
Q 1013 4119 1484 4856 
L 1984 4856 
z
" transform="scale(0.015625)"/>
     <path id="DejaVuSans-29" d="M 513 4856 
L 1013 4856 
Q 1481 4119 1714 3412 
Q 1947 2706 1947 2009 
Q 1947 1309 1714 600 
Q 1481 -109 1013 -844 
L 513 -844 
Q 928 -128 1133 580 
Q 1338 1288 1338 2009 
Q 1338 2731 1133 3434 
Q 928 4138 513 4856 
z
" transform="scale(0.015625)"/>
    </defs>
    <use xlink:href="#DejaVuSans-43"/>
    <use xlink:href="#DejaVuSans-2b" transform="translate(69.824219 0)"/>
    <use xlink:href="#DejaVuSans-2b" transform="translate(153.613281 0)"/>
    <use xlink:href="#DejaVuSans-20" transform="translate(237.402344 0)"/>
    <use xlink:href="#DejaVuSans-52" transform="translate(269.189453 0)"/>
    <use xlink:href="#DejaVuSans-41" transform="translate(334.671875 0)"/>
    <use xlink:href="#DejaVuSans-44" transform="translate(403.080078 0)"/>
    <use xlink:href="#DejaVuSans-53" transform="translate(480.082031 0)"/>
    <use xlink:href="#DejaVuSans-65" transform="translate(543.558594 0)"/>
    <use xlink:href="#DejaVuSans-78" transform="translate(603.332031 0)"/>
    <use xlink:href="#DejaVuSans-20" transform="translate(662.511719 0)"/>
    <use xlink:href="#DejaVuSans-2f" transform="translate(694.298828 0)"/>
    <use xlink:href="#DejaVuSans-20" transform="translate(727.990234 0)"/>
    <use xlink:href="#DejaVuSans-72" transform="translate(759.777344 0)"/>
    <use xlink:href="#DejaVuSans-73" transform="translate(800.890625 0)"/>
    <use xlink:href="#DejaVuSans-78" transform="translate(852.990234 0)"/>
    <use xlink:href="#DejaVuSans-20" transform="translate(912.169922 0)"/>
    <use xlink:href="#DejaVuSans-65" transform="translate(943.957031 0)"/>
    <use xlink:href="#DejaVuSans-6c" transform="translate(1005.480469 0)"/>
    <use xlink:href="#DejaVuSans-61" transform="translate(1033.263672 0)"/>
    <use xlink:href="#DejaVuSans-70" transform="translate(1094.542969 0)"/>
    <use xlink:href="#DejaVuSans-73" transform="translate(1158.019531 0)"/>
    <use xlink:href="#DejaVuSans-65" transform="translate(1210.119141 0)"/>
    <use xlink:href="#DejaVuSans-64" transform="translate(1271.642578 0)"/>
    <use xlink:href="#DejaVuSans-20" transform="translate(1335.119141 0)"/>
    <use xlink:href="#DejaVuSans-74" transform="translate(1366.90625 0)"/>
    <use xlink:href="#DejaVuSans-69" transform="translate(1406.115234 0)"/>
    <use xlink:href="#DejaVuSans-6d" transform="translate(1433.898438 0)"/>
    <use xlink:href="#DejaVuSans-65" transform="translate(1531.310547 0)"/>
    <use xlink:href="#DejaVuSans-20" transform="translate(1592.833984 0)"/>
    <use xlink:href="#DejaVuSans-28" transform="translate(1624.621094 0)"/>
    <use xlink:href="#DejaVuSans-6c" transform="translate(1663.634766 0)"/>
    <use xlink:href="#DejaVuSans-6f" transform="translate(1691.417969 0)"/>
    <use xlink:href="#DejaVuSans-67" transform="translate(1752.599609 0)"/>
    <use xlink:href="#DejaVuSans-31" transform="translate(1816.076172 0)"/>
    <use xlink:href="#DejaVuSans-30" transform="translate(1879.699219 0)"/>
    <use xlink:href="#DejaVuSans-29" transform="translate(1943.322266 0)"/>
   </g>
  </g>
 </g>
 <defs>
  <clipPath id="pfdc58f051e">
   <rect x="53.134" y="5.184" width="460.082" height="336.927375"/>
  </clipPath>
 </defs>
</svg>
