<?xml version="1.0" encoding="utf-8" standalone="no"?>
<!DOCTYPE svg PUBLIC "-//W3C//DTD SVG 1.1//EN"
  "http://www.w3.org/Graphics/SVG/1.1/DTD/svg11.dtd">
<svg xmlns:xlink="http://www.w3.org/1999/xlink" width="518.4pt" height="331.2pt" viewBox="0 0 518.4 331.2" xmlns="http://www.w3.org/2000/svg" version="1.1">
 <metadata>
  <rdf:RDF xmlns:dc="http://purl.org/dc/elements/1.1/" xmlns:cc="http://creativecommons.org/ns#" xmlns:rdf="http://www.w3.org/1999/02/22-rdf-syntax-ns#">
   <cc:Work>
    <dc:type rdf:resource="http://purl.org/dc/dcmitype/StillImage"/>
    <dc:date>2026-05-17T06:03:16.150908</dc:date>
    <dc:format>image/svg+xml</dc:format>
    <dc:creator>
     <cc:Agent>
      <dc:title>Matplotlib v3.10.9, https://matplotlib.org/</dc:title>
     </cc:Agent>
    </dc:creator>
   </cc:Work>
  </rdf:RDF>
 </metadata>
 <defs>
  <style type="text/css">*{stroke-linejoin: round; stroke-linecap: butt}</style>
 </defs>
 <g id="figure_1">
  <g id="patch_1">
   <path d="M 0 331.2
L 518.4 331.2
L 518.4 0
L 0 0
z
" style="fill: #ffffff"/>
  </g>
  <g id="patch_2">
   <path d="M 0 331.2
L 518.4 331.2
L 518.4 0
L 0 0
L 0 331.2
z
" style="fill: none; stroke: #ffffff; stroke-linejoin: miter"/>
  </g>
  <g id="axes_1">
   <g id="patch_3">
    <path d="M 37.268625 298.911375
L 142.211583 298.911375
L 142.211583 20.669
L 37.268625 20.669
z
" style="fill: #ffffff"/>
   </g>
   <g id="matplotlib.axis_1">
    <g id="xtick_1">
     <g id="line2d_1">
      <path d="M 57.939208 298.911375
L 57.939208 20.669
" clip-path="url(#pd2b23d1000)" style="fill: none; stroke: #e6e6e6; stroke-width: 0.35; stroke-linecap: square"/>
     </g>
     <g id="line2d_2">
      <path d="M 57.939208 298.911375
" style="fill: none; stroke: #333333; stroke-width: 1.5; stroke-linecap: square"/>
      <defs>
       <path id="mb81e542758" d="M 0 0
L 0 2.5
" style="stroke: #333333"/>
      </defs>
      <g>
       <use xlink:href="#mb81e542758" x="57.939208" y="298.911375" style="fill: #333333; stroke: #333333"/>
      </g>
     </g>
     <g id="text_1">
      <!-- 2.5 -->
      <g style="fill: #4d4d4d" transform="translate(51.577958 309.490125) scale(0.08 -0.08)">
       <defs>
        <path id="DejaVuSans-32" d="M 1228 531
L 3431 531
L 3431 0
L 469 0
L 469 531
Q 828 903 1448 1529
Q 2069 2156 2228 2338
Q 2531 2678 2651 2914
Q 2772 3150 2772 3378
Q 2772 3750 2511 3984
Q 2250 4219 1831 4219
Q 1534 4219 1204 4116
Q 875 4013 500 3803
L 500 4441
Q 881 4594 1212 4672
Q 1544 4750 1819 4750
Q 2544 4750 2975 4387
Q 3406 4025 3406 3419
Q 3406 3131 3298 2873
Q 3191 2616 2906 2266
Q 2828 2175 2409 1742
Q 1991 1309 1228 531
z
" transform="scale(0.015625)"/>
        <path id="DejaVuSans-2e" d="M 684 794
L 1344 794
L 1344 0
L 684 0
L 684 794
z
" transform="scale(0.015625)"/>
        <path id="DejaVuSans-35" d="M 691 4666
L 3169 4666
L 3169 4134
L 1269 4134
L 1269 2991
Q 1406 3038 1543 3061
Q 1681 3084 1819 3084
Q 2600 3084 3056 2656
Q 3513 2228 3513 1497
Q 3513 744 3044 326
Q 2575 -91 1722 -91
Q 1428 -91 1123 -41
Q 819 9 494 109
L 494 744
Q 775 591 1075 516
Q 1375 441 1709 441
Q 2250 441 2565 725
Q 2881 1009 2881 1497
Q 2881 1984 2565 2268
Q 2250 2553 1709 2553
Q 1456 2553 1204 2497
Q 953 2441 691 2322
L 691 4666
z
" transform="scale(0.015625)"/>
       </defs>
       <use xlink:href="#DejaVuSans-32"/>
       <use xlink:href="#DejaVuSans-2e" transform="translate(63.623047 0)"/>
       <use xlink:href="#DejaVuSans-35" transform="translate(95.410156 0)"/>
      </g>
     </g>
    </g>
    <g id="xtick_2">
     <g id="line2d_3">
      <path d="M 84.439955 298.911375
L 84.439955 20.669
" clip-path="url(#pd2b23d1000)" style="fill: none; stroke: #e6e6e6; stroke-width: 0.35; stroke-linecap: square"/>
     </g>
     <g id="line2d_4">
      <path d="M 84.439955 298.911375
" style="fill: none; stroke: #333333; stroke-width: 1.5; stroke-linecap: square"/>
      <g>
       <use xlink:href="#mb81e542758" x="84.439955" y="298.911375" style="fill: #333333; stroke: #333333"/>
      </g>
     </g>
     <g id="text_2">
      <!-- 5.0 -->
      <g style="fill: #4d4d4d" transform="translate(78.078705 309.490125) scale(0.08 -0.08)">
       <defs>
        <path id="DejaVuSans-30" d="M 2034 4250
Q 1547 4250 1301 3770
Q 1056 3291 1056 2328
Q 1056 1369 1301 889
Q 1547 409 2034 409
Q 2525 409 2770 889
Q 3016 1369 3016 2328
Q 3016 3291 2770 3770
Q 2525 4250 2034 4250
z
M 2034 4750
Q 2819 4750 3233 4129
Q 3647 3509 3647 2328
Q 3647 1150 3233 529
Q 2819 -91 2034 -91
Q 1250 -91 836 529
Q 422 1150 422 2328
Q 422 3509 836 4129
Q 1250 4750 2034 4750
z
" transform="scale(0.015625)"/>
       </defs>
       <use xlink:href="#DejaVuSans-35"/>
       <use xlink:href="#DejaVuSans-2e" transform="translate(63.623047 0)"/>
       <use xlink:href="#DejaVuSans-30" transform="translate(95.410156 0)"/>
      </g>
     </g>
    </g>
    <g id="xtick_3">
     <g id="line2d_5">
      <path d="M 110.940702 298.911375
L 110.940702 20.669
" clip-path="url(#pd2b23d1000)" style="fill: none; stroke: #e6e6e6; stroke-width: 0.35; stroke-linecap: square"/>
     </g>
     <g id="line2d_6">
      <path d="M 110.940702 298.911375
" style="fill: none; stroke: #333333; stroke-width: 1.5; stroke-linecap: square"/>
      <g>
       <use xlink:href="#mb81e542758" x="110.940702" y="298.911375" style="fill: #333333; stroke: #333333"/>
      </g>
     </g>
     <g id="text_3">
      <!-- 7.5 -->
      <g style="fill: #4d4d4d" transform="translate(104.579452 309.490125) scale(0.08 -0.08)">
       <defs>
        <path id="DejaVuSans-37" d="M 525 4666
L 3525 4666
L 3525 4397
L 1831 0
L 1172 0
L 2766 4134
L 525 4134
L 525 4666
z
" transform="scale(0.015625)"/>
       </defs>
       <use xlink:href="#DejaVuSans-37"/>
       <use xlink:href="#DejaVuSans-2e" transform="translate(63.623047 0)"/>
       <use xlink:href="#DejaVuSans-35" transform="translate(95.410156 0)"/>
      </g>
     </g>
    </g>
    <g id="xtick_4">
     <g id="line2d_7">
      <path d="M 137.441449 298.911375
L 137.441449 20.669
" clip-path="url(#pd2b23d1000)" style="fill: none; stroke: #e6e6e6; stroke-width: 0.35; stroke-linecap: square"/>
     </g>
     <g id="line2d_8">
      <path d="M 137.441449 298.911375
" style="fill: none; stroke: #333333; stroke-width: 1.5; stroke-linecap: square"/>
      <g>
       <use xlink:href="#mb81e542758" x="137.441449" y="298.911375" style="fill: #333333; stroke: #333333"/>
      </g>
     </g>
     <g id="text_4">
      <!-- 10.0 -->
      <g style="fill: #4d4d4d" transform="translate(128.535199 309.490125) scale(0.08 -0.08)">
       <defs>
        <path id="DejaVuSans-31" d="M 794 531
L 1825 531
L 1825 4091
L 703 3866
L 703 4441
L 1819 4666
L 2450 4666
L 2450 531
L 3481 531
L 3481 0
L 794 0
L 794 531
z
" transform="scale(0.015625)"/>
       </defs>
       <use xlink:href="#DejaVuSans-31"/>
       <use xlink:href="#DejaVuSans-30" transform="translate(63.623047 0)"/>
       <use xlink:href="#DejaVuSans-2e" transform="translate(127.246094 0)"/>
       <use xlink:href="#DejaVuSans-30" transform="translate(159.033203 0)"/>
      </g>
     </g>
    </g>
    <g id="xtick_5"/>
    <g id="xtick_6"/>
    <g id="xtick_7"/>
    <g id="xtick_8"/>
   </g>
   <g id="matplotlib.axis_2">
    <g id="ytick_1">
     <g id="line2d_9">
      <path d="M 37.268625 290.654648
L 142.211583 290.654648
" clip-path="url(#pd2b23d1000)" style="fill: none; stroke: #e6e6e6; stroke-width: 0.35; stroke-linecap: square"/>
     </g>
     <g id="line2d_10">
      <path d="M 37.268625 290.654648
" style="fill: none; stroke: #333333; stroke-width: 1.5; stroke-linecap: square"/>
      <defs>
       <path id="md290fcaeeb" d="M 0 0
L -2.5 0
" style="stroke: #333333"/>
      </defs>
      <g>
       <use xlink:href="#md290fcaeeb" x="37.268625" y="290.654648" style="fill: #333333; stroke: #333333"/>
      </g>
     </g>
     <g id="text_5">
      <!-- 0.3 -->
      <g style="fill: #4d4d4d" transform="translate(20.046125 293.694023) scale(0.08 -0.08)">
       <defs>
        <path id="DejaVuSans-33" d="M 2597 2516
Q 3050 2419 3304 2112
Q 3559 1806 3559 1356
Q 3559 666 3084 287
Q 2609 -91 1734 -91
Q 1441 -91 1130 -33
Q 819 25 488 141
L 488 750
Q 750 597 1062 519
Q 1375 441 1716 441
Q 2309 441 2620 675
Q 2931 909 2931 1356
Q 2931 1769 2642 2001
Q 2353 2234 1838 2234
L 1294 2234
L 1294 2753
L 1863 2753
Q 2328 2753 2575 2939
Q 2822 3125 2822 3475
Q 2822 3834 2567 4026
Q 2313 4219 1838 4219
Q 1578 4219 1281 4162
Q 984 4106 628 3988
L 628 4550
Q 988 4650 1302 4700
Q 1616 4750 1894 4750
Q 2613 4750 3031 4423
Q 3450 4097 3450 3541
Q 3450 3153 3228 2886
Q 3006 2619 2597 2516
z
" transform="scale(0.015625)"/>
       </defs>
       <use xlink:href="#DejaVuSans-30"/>
       <use xlink:href="#DejaVuSans-2e" transform="translate(63.623047 0)"/>
       <use xlink:href="#DejaVuSans-33" transform="translate(95.410156 0)"/>
      </g>
     </g>
    </g>
    <g id="ytick_2">
     <g id="line2d_11">
      <path d="M 37.268625 158.918389
L 142.211583 158.918389
" clip-path="url(#pd2b23d1000)" style="fill: none; stroke: #e6e6e6; stroke-width: 0.35; stroke-linecap: square"/>
     </g>
     <g id="line2d_12">
      <path d="M 37.268625 158.918389
" style="fill: none; stroke: #333333; stroke-width: 1.5; stroke-linecap: square"/>
      <g>
       <use xlink:href="#md290fcaeeb" x="37.268625" y="158.918389" style="fill: #333333; stroke: #333333"/>
      </g>
     </g>
     <g id="text_6">
      <!-- 1 -->
      <g style="fill: #4d4d4d" transform="translate(27.678625 161.957764) scale(0.08 -0.08)">
       <use xlink:href="#DejaVuSans-31"/>
      </g>
     </g>
    </g>
    <g id="ytick_3">
     <g id="line2d_13">
      <path d="M 37.268625 38.710465
L 142.211583 38.710465
" clip-path="url(#pd2b23d1000)" style="fill: none; stroke: #e6e6e6; stroke-width: 0.35; stroke-linecap: square"/>
     </g>
     <g id="line2d_14">
      <path d="M 37.268625 38.710465
" style="fill: none; stroke: #333333; stroke-width: 1.5; stroke-linecap: square"/>
      <g>
       <use xlink:href="#md290fcaeeb" x="37.268625" y="38.710465" style="fill: #333333; stroke: #333333"/>
      </g>
     </g>
     <g id="text_7">
      <!-- 3 -->
      <g style="fill: #4d4d4d" transform="translate(27.678625 41.74984) scale(0.08 -0.08)">
       <use xlink:href="#DejaVuSans-33"/>
      </g>
     </g>
    </g>
    <g id="ytick_4"/>
    <g id="ytick_5"/>
    <g id="ytick_6"/>
    <g id="ytick_7"/>
    <g id="ytick_8"/>
    <g id="ytick_9"/>
    <g id="ytick_10"/>
    <g id="ytick_11"/>
    <g id="ytick_12"/>
    <g id="ytick_13"/>
    <g id="ytick_14"/>
    <g id="ytick_15"/>
    <g id="ytick_16"/>
    <g id="ytick_17"/>
    <g id="ytick_18"/>
    <g id="ytick_19"/>
   </g>
   <g id="line2d_15">
    <path d="M 42.038759 267.129658
L 52.639058 263.134007
L 84.439955 259.962484
L 137.441449 266.072253
" clip-path="url(#pd2b23d1000)" style="fill: none; stroke: #004d40; stroke-width: 1.240718"/>
   </g>
   <g id="line2d_16">
    <path d="M 42.038759 286.263994
L 52.639058 268.377542
L 84.439955 280.830128
L 137.441449 277.418782
" clip-path="url(#pd2b23d1000)" style="fill: none; stroke: #1e88e5; stroke-width: 1.240718"/>
   </g>
   <g id="line2d_17">
    <path d="M 42.038759 264.766147
L 52.639058 248.548908
L 84.439955 238.593428
L 137.441449 260.847427
" clip-path="url(#pd2b23d1000)" style="fill: none; stroke: #ff655d; stroke-width: 1.240718"/>
   </g>
   <g id="line2d_18">
    <path d="M 42.038759 143.596906
L 52.639058 57.245112
L 84.439955 33.316381
L 137.441449 124.942746
" clip-path="url(#pd2b23d1000)" style="fill: none; stroke: #d81b60; stroke-width: 1.240718"/>
   </g>
   <g id="PathCollection_1">
    <path d="M 42.038759 288.390939
C 42.602832 288.390939 43.143877 288.166831 43.542736 287.767971
C 43.941596 287.369112 44.165704 286.828067 44.165704 286.263994
C 44.165704 285.699922 43.941596 285.158877 43.542736 284.760017
C 43.143877 284.361158 42.602832 284.13705 42.038759 284.13705
C 41.474687 284.13705 40.933642 284.361158 40.534783 284.760017
C 40.135923 285.158877 39.911815 285.699922 39.911815 286.263994
C 39.911815 286.828067 40.135923 287.369112 40.534783 287.767971
C 40.933642 288.166831 41.474687 288.390939 42.038759 288.390939
z
" clip-path="url(#pd2b23d1000)" style="fill: #1e88e5; stroke: #1e88e5; stroke-width: 0.886227"/>
    <path d="M 52.639058 270.504487
C 53.203131 270.504487 53.744176 270.280378 54.143035 269.881519
C 54.541895 269.48266 54.766003 268.941614 54.766003 268.377542
C 54.766003 267.81347 54.541895 267.272424 54.143035 266.873565
C 53.744176 266.474706 53.203131 266.250597 52.639058 266.250597
C 52.074986 266.250597 51.533941 266.474706 51.135081 266.873565
C 50.736222 267.272424 50.512114 267.81347 50.512114 268.377542
C 50.512114 268.941614 50.736222 269.48266 51.135081 269.881519
C 51.533941 270.280378 52.074986 270.504487 52.639058 270.504487
z
" clip-path="url(#pd2b23d1000)" style="fill: #1e88e5; stroke: #1e88e5; stroke-width: 0.886227"/>
    <path d="M 84.439955 282.957073
C 85.004027 282.957073 85.545072 282.732965 85.943932 282.334105
C 86.342791 281.935246 86.566899 281.394201 86.566899 280.830128
C 86.566899 280.266056 86.342791 279.725011 85.943932 279.326151
C 85.545072 278.927292 85.004027 278.703184 84.439955 278.703184
C 83.875882 278.703184 83.334837 278.927292 82.935978 279.326151
C 82.537118 279.725011 82.31301 280.266056 82.31301 280.830128
C 82.31301 281.394201 82.537118 281.935246 82.935978 282.334105
C 83.334837 282.732965 83.875882 282.957073 84.439955 282.957073
z
" clip-path="url(#pd2b23d1000)" style="fill: #1e88e5; stroke: #1e88e5; stroke-width: 0.886227"/>
    <path d="M 137.441449 279.545726
C 138.005521 279.545726 138.546566 279.321618 138.945426 278.922758
C 139.344285 278.523899 139.568393 277.982854 139.568393 277.418782
C 139.568393 276.854709 139.344285 276.313664 138.945426 275.914805
C 138.546566 275.515945 138.005521 275.291837 137.441449 275.291837
C 136.877377 275.291837 136.336331 275.515945 135.937472 275.914805
C 135.538613 276.313664 135.314504 276.854709 135.314504 277.418782
C 135.314504 277.982854 135.538613 278.523899 135.937472 278.922758
C 136.336331 279.321618 136.877377 279.545726 137.441449 279.545726
z
" clip-path="url(#pd2b23d1000)" style="fill: #1e88e5; stroke: #1e88e5; stroke-width: 0.886227"/>
    <path d="M 42.038759 145.723851
C 42.602832 145.723851 43.143877 145.499742 43.542736 145.100883
C 43.941596 144.702024 44.165704 144.160978 44.165704 143.596906
C 44.165704 143.032834 43.941596 142.491788 43.542736 142.092929
C 43.143877 141.69407 42.602832 141.469961 42.038759 141.469961
C 41.474687 141.469961 40.933642 141.69407 40.534783 142.092929
C 40.135923 142.491788 39.911815 143.032834 39.911815 143.596906
C 39.911815 144.160978 40.135923 144.702024 40.534783 145.100883
C 40.933642 145.499742 41.474687 145.723851 42.038759 145.723851
z
" clip-path="url(#pd2b23d1000)" style="fill: #d81b60; stroke: #d81b60; stroke-width: 0.886227"/>
    <path d="M 52.639058 59.372057
C 53.203131 59.372057 53.744176 59.147949 54.143035 58.749089
C 54.541895 58.35023 54.766003 57.809185 54.766003 57.245112
C 54.766003 56.68104 54.541895 56.139995 54.143035 55.741136
C 53.744176 55.342276 53.203131 55.118168 52.639058 55.118168
C 52.074986 55.118168 51.533941 55.342276 51.135081 55.741136
C 50.736222 56.139995 50.512114 56.68104 50.512114 57.245112
C 50.512114 57.809185 50.736222 58.35023 51.135081 58.749089
C 51.533941 59.147949 52.074986 59.372057 52.639058 59.372057
z
" clip-path="url(#pd2b23d1000)" style="fill: #d81b60; stroke: #d81b60; stroke-width: 0.886227"/>
    <path d="M 84.439955 35.443325
C 85.004027 35.443325 85.545072 35.219217 85.943932 34.820358
C 86.342791 34.421498 86.566899 33.880453 86.566899 33.316381
C 86.566899 32.752308 86.342791 32.211263 85.943932 31.812404
C 85.545072 31.413544 85.004027 31.189436 84.439955 31.189436
C 83.875882 31.189436 83.334837 31.413544 82.935978 31.812404
C 82.537118 32.211263 82.31301 32.752308 82.31301 33.316381
C 82.31301 33.880453 82.537118 34.421498 82.935978 34.820358
C 83.334837 35.219217 83.875882 35.443325 84.439955 35.443325
z
" clip-path="url(#pd2b23d1000)" style="fill: #d81b60; stroke: #d81b60; stroke-width: 0.886227"/>
    <path d="M 137.441449 127.069691
C 138.005521 127.069691 138.546566 126.845583 138.945426 126.446723
C 139.344285 126.047864 139.568393 125.506819 139.568393 124.942746
C 139.568393 124.378674 139.344285 123.837629 138.945426 123.438769
C 138.546566 123.03991 138.005521 122.815802 137.441449 122.815802
C 136.877377 122.815802 136.336331 123.03991 135.937472 123.438769
C 135.538613 123.837629 135.314504 124.378674 135.314504 124.942746
C 135.314504 125.506819 135.538613 126.047864 135.937472 126.446723
C 136.336331 126.845583 136.877377 127.069691 137.441449 127.069691
z
" clip-path="url(#pd2b23d1000)" style="fill: #d81b60; stroke: #d81b60; stroke-width: 0.886227"/>
    <path d="M 42.038759 269.256602
C 42.602832 269.256602 43.143877 269.032494 43.542736 268.633635
C 43.941596 268.234775 44.165704 267.69373 44.165704 267.129658
C 44.165704 266.565586 43.941596 266.02454 43.542736 265.625681
C 43.143877 265.226821 42.602832 265.002713 42.038759 265.002713
C 41.474687 265.002713 40.933642 265.226821 40.534783 265.625681
C 40.135923 266.02454 39.911815 266.565586 39.911815 267.129658
C 39.911815 267.69373 40.135923 268.234775 40.534783 268.633635
C 40.933642 269.032494 41.474687 269.256602 42.038759 269.256602
z
" clip-path="url(#pd2b23d1000)" style="fill: #004d40; stroke: #004d40; stroke-width: 0.886227"/>
    <path d="M 52.639058 265.260951
C 53.203131 265.260951 53.744176 265.036843 54.143035 264.637983
C 54.541895 264.239124 54.766003 263.698079 54.766003 263.134007
C 54.766003 262.569934 54.541895 262.028889 54.143035 261.63003
C 53.744176 261.23117 53.203131 261.007062 52.639058 261.007062
C 52.074986 261.007062 51.533941 261.23117 51.135081 261.63003
C 50.736222 262.028889 50.512114 262.569934 50.512114 263.134007
C 50.512114 263.698079 50.736222 264.239124 51.135081 264.637983
C 51.533941 265.036843 52.074986 265.260951 52.639058 265.260951
z
" clip-path="url(#pd2b23d1000)" style="fill: #004d40; stroke: #004d40; stroke-width: 0.886227"/>
    <path d="M 84.439955 262.089429
C 85.004027 262.089429 85.545072 261.86532 85.943932 261.466461
C 86.342791 261.067602 86.566899 260.526556 86.566899 259.962484
C 86.566899 259.398412 86.342791 258.857366 85.943932 258.458507
C 85.545072 258.059648 85.004027 257.835539 84.439955 257.835539
C 83.875882 257.835539 83.334837 258.059648 82.935978 258.458507
C 82.537118 258.857366 82.31301 259.398412 82.31301 259.962484
C 82.31301 260.526556 82.537118 261.067602 82.935978 261.466461
C 83.334837 261.86532 83.875882 262.089429 84.439955 262.089429
z
" clip-path="url(#pd2b23d1000)" style="fill: #004d40; stroke: #004d40; stroke-width: 0.886227"/>
    <path d="M 137.441449 268.199198
C 138.005521 268.199198 138.546566 267.97509 138.945426 267.57623
C 139.344285 267.177371 139.568393 266.636326 139.568393 266.072253
C 139.568393 265.508181 139.344285 264.967136 138.945426 264.568276
C 138.546566 264.169417 138.005521 263.945309 137.441449 263.945309
C 136.877377 263.945309 136.336331 264.169417 135.937472 264.568276
C 135.538613 264.967136 135.314504 265.508181 135.314504 266.072253
C 135.314504 266.636326 135.538613 267.177371 135.937472 267.57623
C 136.336331 267.97509 136.877377 268.199198 137.441449 268.199198
z
" clip-path="url(#pd2b23d1000)" style="fill: #004d40; stroke: #004d40; stroke-width: 0.886227"/>
    <path d="M 42.038759 266.893092
C 42.602832 266.893092 43.143877 266.668983 43.542736 266.270124
C 43.941596 265.871265 44.165704 265.330219 44.165704 264.766147
C 44.165704 264.202075 43.941596 263.661029 43.542736 263.26217
C 43.143877 262.863311 42.602832 262.639202 42.038759 262.639202
C 41.474687 262.639202 40.933642 262.863311 40.534783 263.26217
C 40.135923 263.661029 39.911815 264.202075 39.911815 264.766147
C 39.911815 265.330219 40.135923 265.871265 40.534783 266.270124
C 40.933642 266.668983 41.474687 266.893092 42.038759 266.893092
z
" clip-path="url(#pd2b23d1000)" style="fill: #ff655d; stroke: #ff655d; stroke-width: 0.886227"/>
    <path d="M 52.639058 250.675852
C 53.203131 250.675852 53.744176 250.451744 54.143035 250.052885
C 54.541895 249.654025 54.766003 249.11298 54.766003 248.548908
C 54.766003 247.984835 54.541895 247.44379 54.143035 247.044931
C 53.744176 246.646071 53.203131 246.421963 52.639058 246.421963
C 52.074986 246.421963 51.533941 246.646071 51.135081 247.044931
C 50.736222 247.44379 50.512114 247.984835 50.512114 248.548908
C 50.512114 249.11298 50.736222 249.654025 51.135081 250.052885
C 51.533941 250.451744 52.074986 250.675852 52.639058 250.675852
z
" clip-path="url(#pd2b23d1000)" style="fill: #ff655d; stroke: #ff655d; stroke-width: 0.886227"/>
    <path d="M 84.439955 240.720373
C 85.004027 240.720373 85.545072 240.496264 85.943932 240.097405
C 86.342791 239.698546 86.566899 239.1575 86.566899 238.593428
C 86.566899 238.029356 86.342791 237.488311 85.943932 237.089451
C 85.545072 236.690592 85.004027 236.466484 84.439955 236.466484
C 83.875882 236.466484 83.334837 236.690592 82.935978 237.089451
C 82.537118 237.488311 82.31301 238.029356 82.31301 238.593428
C 82.31301 239.1575 82.537118 239.698546 82.935978 240.097405
C 83.334837 240.496264 83.875882 240.720373 84.439955 240.720373
z
" clip-path="url(#pd2b23d1000)" style="fill: #ff655d; stroke: #ff655d; stroke-width: 0.886227"/>
    <path d="M 137.441449 262.974372
C 138.005521 262.974372 138.546566 262.750264 138.945426 262.351404
C 139.344285 261.952545 139.568393 261.4115 139.568393 260.847427
C 139.568393 260.283355 139.344285 259.74231 138.945426 259.34345
C 138.546566 258.944591 138.005521 258.720483 137.441449 258.720483
C 136.877377 258.720483 136.336331 258.944591 135.937472 259.34345
C 135.538613 259.74231 135.314504 260.283355 135.314504 260.847427
C 135.314504 261.4115 135.538613 261.952545 135.937472 262.351404
C 136.336331 262.750264 136.877377 262.974372 137.441449 262.974372
z
" clip-path="url(#pd2b23d1000)" style="fill: #ff655d; stroke: #ff655d; stroke-width: 0.886227"/>
   </g>
  </g>
  <g id="axes_2">
   <g id="patch_4">
    <path d="M 162.618083 298.911375
L 267.561042 298.911375
L 267.561042 20.669
L 162.618083 20.669
z
" style="fill: #ffffff"/>
   </g>
   <g id="matplotlib.axis_3">
    <g id="xtick_9">
     <g id="line2d_19">
      <path d="M 183.288666 298.911375
L 183.288666 20.669
" clip-path="url(#p01f0c57421)" style="fill: none; stroke: #e6e6e6; stroke-width: 0.35; stroke-linecap: square"/>
     </g>
     <g id="line2d_20">
      <path d="M 183.288666 298.911375
" style="fill: none; stroke: #333333; stroke-width: 1.5; stroke-linecap: square"/>
      <g>
       <use xlink:href="#mb81e542758" x="183.288666" y="298.911375" style="fill: #333333; stroke: #333333"/>
      </g>
     </g>
     <g id="text_8">
      <!-- 2.5 -->
      <g style="fill: #4d4d4d" transform="translate(176.927416 309.490125) scale(0.08 -0.08)">
       <use xlink:href="#DejaVuSans-32"/>
       <use xlink:href="#DejaVuSans-2e" transform="translate(63.623047 0)"/>
       <use xlink:href="#DejaVuSans-35" transform="translate(95.410156 0)"/>
      </g>
     </g>
    </g>
    <g id="xtick_10">
     <g id="line2d_21">
      <path d="M 209.789413 298.911375
L 209.789413 20.669
" clip-path="url(#p01f0c57421)" style="fill: none; stroke: #e6e6e6; stroke-width: 0.35; stroke-linecap: square"/>
     </g>
     <g id="line2d_22">
      <path d="M 209.789413 298.911375
" style="fill: none; stroke: #333333; stroke-width: 1.5; stroke-linecap: square"/>
      <g>
       <use xlink:href="#mb81e542758" x="209.789413" y="298.911375" style="fill: #333333; stroke: #333333"/>
      </g>
     </g>
     <g id="text_9">
      <!-- 5.0 -->
      <g style="fill: #4d4d4d" transform="translate(203.428163 309.490125) scale(0.08 -0.08)">
       <use xlink:href="#DejaVuSans-35"/>
       <use xlink:href="#DejaVuSans-2e" transform="translate(63.623047 0)"/>
       <use xlink:href="#DejaVuSans-30" transform="translate(95.410156 0)"/>
      </g>
     </g>
    </g>
    <g id="xtick_11">
     <g id="line2d_23">
      <path d="M 236.29016 298.911375
L 236.29016 20.669
" clip-path="url(#p01f0c57421)" style="fill: none; stroke: #e6e6e6; stroke-width: 0.35; stroke-linecap: square"/>
     </g>
     <g id="line2d_24">
      <path d="M 236.29016 298.911375
" style="fill: none; stroke: #333333; stroke-width: 1.5; stroke-linecap: square"/>
      <g>
       <use xlink:href="#mb81e542758" x="236.29016" y="298.911375" style="fill: #333333; stroke: #333333"/>
      </g>
     </g>
     <g id="text_10">
      <!-- 7.5 -->
      <g style="fill: #4d4d4d" transform="translate(229.92891 309.490125) scale(0.08 -0.08)">
       <use xlink:href="#DejaVuSans-37"/>
       <use xlink:href="#DejaVuSans-2e" transform="translate(63.623047 0)"/>
       <use xlink:href="#DejaVuSans-35" transform="translate(95.410156 0)"/>
      </g>
     </g>
    </g>
    <g id="xtick_12">
     <g id="line2d_25">
      <path d="M 262.790907 298.911375
L 262.790907 20.669
" clip-path="url(#p01f0c57421)" style="fill: none; stroke: #e6e6e6; stroke-width: 0.35; stroke-linecap: square"/>
     </g>
     <g id="line2d_26">
      <path d="M 262.790907 298.911375
" style="fill: none; stroke: #333333; stroke-width: 1.5; stroke-linecap: square"/>
      <g>
       <use xlink:href="#mb81e542758" x="262.790907" y="298.911375" style="fill: #333333; stroke: #333333"/>
      </g>
     </g>
     <g id="text_11">
      <!-- 10.0 -->
      <g style="fill: #4d4d4d" transform="translate(253.884657 309.490125) scale(0.08 -0.08)">
       <use xlink:href="#DejaVuSans-31"/>
       <use xlink:href="#DejaVuSans-30" transform="translate(63.623047 0)"/>
       <use xlink:href="#DejaVuSans-2e" transform="translate(127.246094 0)"/>
       <use xlink:href="#DejaVuSans-30" transform="translate(159.033203 0)"/>
      </g>
     </g>
    </g>
    <g id="xtick_13"/>
    <g id="xtick_14"/>
    <g id="xtick_15"/>
    <g id="xtick_16"/>
   </g>
   <g id="matplotlib.axis_4">
    <g id="ytick_20">
     <g id="line2d_27">
      <path d="M 162.618083 285.145463
L 267.561042 285.145463
" clip-path="url(#p01f0c57421)" style="fill: none; stroke: #e6e6e6; stroke-width: 0.35; stroke-linecap: square"/>
     </g>
     <g id="line2d_28">
      <path d="M 162.618083 285.145463
" style="fill: none; stroke: #333333; stroke-width: 1.5; stroke-linecap: square"/>
      <g>
       <use xlink:href="#md290fcaeeb" x="162.618083" y="285.145463" style="fill: #333333; stroke: #333333"/>
      </g>
     </g>
     <g id="text_12">
      <!-- 0.3 -->
      <g style="fill: #4d4d4d" transform="translate(145.395583 288.184838) scale(0.08 -0.08)">
       <use xlink:href="#DejaVuSans-30"/>
       <use xlink:href="#DejaVuSans-2e" transform="translate(63.623047 0)"/>
       <use xlink:href="#DejaVuSans-33" transform="translate(95.410156 0)"/>
      </g>
     </g>
    </g>
    <g id="ytick_21">
     <g id="line2d_29">
      <path d="M 162.618083 225.392248
L 267.561042 225.392248
" clip-path="url(#p01f0c57421)" style="fill: none; stroke: #e6e6e6; stroke-width: 0.35; stroke-linecap: square"/>
     </g>
     <g id="line2d_30">
      <path d="M 162.618083 225.392248
" style="fill: none; stroke: #333333; stroke-width: 1.5; stroke-linecap: square"/>
      <g>
       <use xlink:href="#md290fcaeeb" x="162.618083" y="225.392248" style="fill: #333333; stroke: #333333"/>
      </g>
     </g>
     <g id="text_13">
      <!-- 0.5 -->
      <g style="fill: #4d4d4d" transform="translate(145.395583 228.431623) scale(0.08 -0.08)">
       <use xlink:href="#DejaVuSans-30"/>
       <use xlink:href="#DejaVuSans-2e" transform="translate(63.623047 0)"/>
       <use xlink:href="#DejaVuSans-35" transform="translate(95.410156 0)"/>
      </g>
     </g>
    </g>
    <g id="ytick_22">
     <g id="line2d_31">
      <path d="M 162.618083 144.312188
L 267.561042 144.312188
" clip-path="url(#p01f0c57421)" style="fill: none; stroke: #e6e6e6; stroke-width: 0.35; stroke-linecap: square"/>
     </g>
     <g id="line2d_32">
      <path d="M 162.618083 144.312188
" style="fill: none; stroke: #333333; stroke-width: 1.5; stroke-linecap: square"/>
      <g>
       <use xlink:href="#md290fcaeeb" x="162.618083" y="144.312188" style="fill: #333333; stroke: #333333"/>
      </g>
     </g>
     <g id="text_14">
      <!-- 1 -->
      <g style="fill: #4d4d4d" transform="translate(153.028083 147.351563) scale(0.08 -0.08)">
       <use xlink:href="#DejaVuSans-31"/>
      </g>
     </g>
    </g>
    <g id="ytick_23"/>
    <g id="ytick_24"/>
    <g id="ytick_25"/>
    <g id="ytick_26"/>
    <g id="ytick_27"/>
    <g id="ytick_28"/>
    <g id="ytick_29"/>
    <g id="ytick_30"/>
    <g id="ytick_31"/>
    <g id="ytick_32"/>
    <g id="ytick_33"/>
    <g id="ytick_34"/>
    <g id="ytick_35"/>
    <g id="ytick_36"/>
    <g id="ytick_37"/>
    <g id="ytick_38"/>
    <g id="ytick_39"/>
    <g id="ytick_40"/>
    <g id="ytick_41"/>
    <g id="ytick_42"/>
    <g id="ytick_43"/>
    <g id="ytick_44"/>
    <g id="ytick_45"/>
    <g id="ytick_46"/>
    <g id="ytick_47"/>
   </g>
   <g id="line2d_33">
    <path d="M 167.388218 258.002569
L 177.988517 257.958367
L 209.789413 263.720855
L 262.790907 251.643434
" clip-path="url(#p01f0c57421)" style="fill: none; stroke: #004d40; stroke-width: 1.240718"/>
   </g>
   <g id="line2d_34">
    <path d="M 167.388218 286.263994
L 177.988517 263.169592
L 209.789413 271.282704
L 262.790907 269.930486
" clip-path="url(#p01f0c57421)" style="fill: none; stroke: #1e88e5; stroke-width: 1.240718"/>
   </g>
   <g id="line2d_35">
    <path d="M 167.388218 257.056644
L 177.988517 244.004023
L 209.789413 250.004124
L 262.790907 252.222575
" clip-path="url(#p01f0c57421)" style="fill: none; stroke: #ff655d; stroke-width: 1.240718"/>
   </g>
   <g id="line2d_36">
    <path d="M 167.388218 137.862092
L 177.988517 53.838334
L 209.789413 33.316381
L 262.790907 109.58386
" clip-path="url(#p01f0c57421)" style="fill: none; stroke: #d81b60; stroke-width: 1.240718"/>
   </g>
   <g id="PathCollection_2">
    <path d="M 167.388218 288.390939
C 167.95229 288.390939 168.493335 288.166831 168.892195 287.767971
C 169.291054 287.369112 169.515162 286.828067 169.515162 286.263994
C 169.515162 285.699922 169.291054 285.158877 168.892195 284.760017
C 168.493335 284.361158 167.95229 284.13705 167.388218 284.13705
C 166.824145 284.13705 166.2831 284.361158 165.884241 284.760017
C 165.485381 285.158877 165.261273 285.699922 165.261273 286.263994
C 165.261273 286.828067 165.485381 287.369112 165.884241 287.767971
C 166.2831 288.166831 166.824145 288.390939 167.388218 288.390939
z
" clip-path="url(#p01f0c57421)" style="fill: #1e88e5; stroke: #1e88e5; stroke-width: 0.886227"/>
    <path d="M 177.988517 265.296537
C 178.552589 265.296537 179.093634 265.072428 179.492494 264.673569
C 179.891353 264.27471 180.115461 263.733664 180.115461 263.169592
C 180.115461 262.60552 179.891353 262.064474 179.492494 261.665615
C 179.093634 261.266756 178.552589 261.042647 177.988517 261.042647
C 177.424444 261.042647 176.883399 261.266756 176.48454 261.665615
C 176.08568 262.064474 175.861572 262.60552 175.861572 263.169592
C 175.861572 263.733664 176.08568 264.27471 176.48454 264.673569
C 176.883399 265.072428 177.424444 265.296537 177.988517 265.296537
z
" clip-path="url(#p01f0c57421)" style="fill: #1e88e5; stroke: #1e88e5; stroke-width: 0.886227"/>
    <path d="M 209.789413 273.409648
C 210.353485 273.409648 210.894531 273.18554 211.29339 272.786681
C 211.692249 272.387821 211.916358 271.846776 211.916358 271.282704
C 211.916358 270.718631 211.692249 270.177586 211.29339 269.778727
C 210.894531 269.379867 210.353485 269.155759 209.789413 269.155759
C 209.225341 269.155759 208.684295 269.379867 208.285436 269.778727
C 207.886577 270.177586 207.662468 270.718631 207.662468 271.282704
C 207.662468 271.846776 207.886577 272.387821 208.285436 272.786681
C 208.684295 273.18554 209.225341 273.409648 209.789413 273.409648
z
" clip-path="url(#p01f0c57421)" style="fill: #1e88e5; stroke: #1e88e5; stroke-width: 0.886227"/>
    <path d="M 262.790907 272.057431
C 263.35498 272.057431 263.896025 271.833322 264.294884 271.434463
C 264.693744 271.035604 264.917852 270.494558 264.917852 269.930486
C 264.917852 269.366414 264.693744 268.825368 264.294884 268.426509
C 263.896025 268.02765 263.35498 267.803541 262.790907 267.803541
C 262.226835 267.803541 261.68579 268.02765 261.28693 268.426509
C 260.888071 268.825368 260.663963 269.366414 260.663963 269.930486
C 260.663963 270.494558 260.888071 271.035604 261.28693 271.434463
C 261.68579 271.833322 262.226835 272.057431 262.790907 272.057431
z
" clip-path="url(#p01f0c57421)" style="fill: #1e88e5; stroke: #1e88e5; stroke-width: 0.886227"/>
    <path d="M 167.388218 139.989036
C 167.95229 139.989036 168.493335 139.764928 168.892195 139.366068
C 169.291054 138.967209 169.515162 138.426164 169.515162 137.862092
C 169.515162 137.298019 169.291054 136.756974 168.892195 136.358115
C 168.493335 135.959255 167.95229 135.735147 167.388218 135.735147
C 166.824145 135.735147 166.2831 135.959255 165.884241 136.358115
C 165.485381 136.756974 165.261273 137.298019 165.261273 137.862092
C 165.261273 138.426164 165.485381 138.967209 165.884241 139.366068
C 166.2831 139.764928 166.824145 139.989036 167.388218 139.989036
z
" clip-path="url(#p01f0c57421)" style="fill: #d81b60; stroke: #d81b60; stroke-width: 0.886227"/>
    <path d="M 177.988517 55.965278
C 178.552589 55.965278 179.093634 55.74117 179.492494 55.342311
C 179.891353 54.943451 180.115461 54.402406 180.115461 53.838334
C 180.115461 53.274261 179.891353 52.733216 179.492494 52.334357
C 179.093634 51.935497 178.552589 51.711389 177.988517 51.711389
C 177.424444 51.711389 176.883399 51.935497 176.48454 52.334357
C 176.08568 52.733216 175.861572 53.274261 175.861572 53.838334
C 175.861572 54.402406 176.08568 54.943451 176.48454 55.342311
C 176.883399 55.74117 177.424444 55.965278 177.988517 55.965278
z
" clip-path="url(#p01f0c57421)" style="fill: #d81b60; stroke: #d81b60; stroke-width: 0.886227"/>
    <path d="M 209.789413 35.443325
C 210.353485 35.443325 210.894531 35.219217 211.29339 34.820358
C 211.692249 34.421498 211.916358 33.880453 211.916358 33.316381
C 211.916358 32.752308 211.692249 32.211263 211.29339 31.812404
C 210.894531 31.413544 210.353485 31.189436 209.789413 31.189436
C 209.225341 31.189436 208.684295 31.413544 208.285436 31.812404
C 207.886577 32.211263 207.662468 32.752308 207.662468 33.316381
C 207.662468 33.880453 207.886577 34.421498 208.285436 34.820358
C 208.684295 35.219217 209.225341 35.443325 209.789413 35.443325
z
" clip-path="url(#p01f0c57421)" style="fill: #d81b60; stroke: #d81b60; stroke-width: 0.886227"/>
    <path d="M 262.790907 111.710805
C 263.35498 111.710805 263.896025 111.486696 264.294884 111.087837
C 264.693744 110.688978 264.917852 110.147932 264.917852 109.58386
C 264.917852 109.019788 264.693744 108.478742 264.294884 108.079883
C 263.896025 107.681024 263.35498 107.456915 262.790907 107.456915
C 262.226835 107.456915 261.68579 107.681024 261.28693 108.079883
C 260.888071 108.478742 260.663963 109.019788 260.663963 109.58386
C 260.663963 110.147932 260.888071 110.688978 261.28693 111.087837
C 261.68579 111.486696 262.226835 111.710805 262.790907 111.710805
z
" clip-path="url(#p01f0c57421)" style="fill: #d81b60; stroke: #d81b60; stroke-width: 0.886227"/>
    <path d="M 167.388218 260.129514
C 167.95229 260.129514 168.493335 259.905406 168.892195 259.506546
C 169.291054 259.107687 169.515162 258.566642 169.515162 258.002569
C 169.515162 257.438497 169.291054 256.897452 168.892195 256.498592
C 168.493335 256.099733 167.95229 255.875625 167.388218 255.875625
C 166.824145 255.875625 166.2831 256.099733 165.884241 256.498592
C 165.485381 256.897452 165.261273 257.438497 165.261273 258.002569
C 165.261273 258.566642 165.485381 259.107687 165.884241 259.506546
C 166.2831 259.905406 166.824145 260.129514 167.388218 260.129514
z
" clip-path="url(#p01f0c57421)" style="fill: #004d40; stroke: #004d40; stroke-width: 0.886227"/>
    <path d="M 177.988517 260.085311
C 178.552589 260.085311 179.093634 259.861203 179.492494 259.462344
C 179.891353 259.063484 180.115461 258.522439 180.115461 257.958367
C 180.115461 257.394294 179.891353 256.853249 179.492494 256.45439
C 179.093634 256.05553 178.552589 255.831422 177.988517 255.831422
C 177.424444 255.831422 176.883399 256.05553 176.48454 256.45439
C 176.08568 256.853249 175.861572 257.394294 175.861572 257.958367
C 175.861572 258.522439 176.08568 259.063484 176.48454 259.462344
C 176.883399 259.861203 177.424444 260.085311 177.988517 260.085311
z
" clip-path="url(#p01f0c57421)" style="fill: #004d40; stroke: #004d40; stroke-width: 0.886227"/>
    <path d="M 209.789413 265.8478
C 210.353485 265.8478 210.894531 265.623692 211.29339 265.224832
C 211.692249 264.825973 211.916358 264.284928 211.916358 263.720855
C 211.916358 263.156783 211.692249 262.615738 211.29339 262.216878
C 210.894531 261.818019 210.353485 261.593911 209.789413 261.593911
C 209.225341 261.593911 208.684295 261.818019 208.285436 262.216878
C 207.886577 262.615738 207.662468 263.156783 207.662468 263.720855
C 207.662468 264.284928 207.886577 264.825973 208.285436 265.224832
C 208.684295 265.623692 209.225341 265.8478 209.789413 265.8478
z
" clip-path="url(#p01f0c57421)" style="fill: #004d40; stroke: #004d40; stroke-width: 0.886227"/>
    <path d="M 262.790907 253.770379
C 263.35498 253.770379 263.896025 253.546271 264.294884 253.147411
C 264.693744 252.748552 264.917852 252.207507 264.917852 251.643434
C 264.917852 251.079362 264.693744 250.538317 264.294884 250.139457
C 263.896025 249.740598 263.35498 249.51649 262.790907 249.51649
C 262.226835 249.51649 261.68579 249.740598 261.28693 250.139457
C 260.888071 250.538317 260.663963 251.079362 260.663963 251.643434
C 260.663963 252.207507 260.888071 252.748552 261.28693 253.147411
C 261.68579 253.546271 262.226835 253.770379 262.790907 253.770379
z
" clip-path="url(#p01f0c57421)" style="fill: #004d40; stroke: #004d40; stroke-width: 0.886227"/>
    <path d="M 167.388218 259.183589
C 167.95229 259.183589 168.493335 258.959481 168.892195 258.560621
C 169.291054 258.161762 169.515162 257.620717 169.515162 257.056644
C 169.515162 256.492572 169.291054 255.951527 168.892195 255.552667
C 168.493335 255.153808 167.95229 254.9297 167.388218 254.9297
C 166.824145 254.9297 166.2831 255.153808 165.884241 255.552667
C 165.485381 255.951527 165.261273 256.492572 165.261273 257.056644
C 165.261273 257.620717 165.485381 258.161762 165.884241 258.560621
C 166.2831 258.959481 166.824145 259.183589 167.388218 259.183589
z
" clip-path="url(#p01f0c57421)" style="fill: #ff655d; stroke: #ff655d; stroke-width: 0.886227"/>
    <path d="M 177.988517 246.130968
C 178.552589 246.130968 179.093634 245.906859 179.492494 245.508
C 179.891353 245.109141 180.115461 244.568095 180.115461 244.004023
C 180.115461 243.439951 179.891353 242.898905 179.492494 242.500046
C 179.093634 242.101187 178.552589 241.877078 177.988517 241.877078
C 177.424444 241.877078 176.883399 242.101187 176.48454 242.500046
C 176.08568 242.898905 175.861572 243.439951 175.861572 244.004023
C 175.861572 244.568095 176.08568 245.109141 176.48454 245.508
C 176.883399 245.906859 177.424444 246.130968 177.988517 246.130968
z
" clip-path="url(#p01f0c57421)" style="fill: #ff655d; stroke: #ff655d; stroke-width: 0.886227"/>
    <path d="M 209.789413 252.131069
C 210.353485 252.131069 210.894531 251.906961 211.29339 251.508101
C 211.692249 251.109242 211.916358 250.568197 211.916358 250.004124
C 211.916358 249.440052 211.692249 248.899007 211.29339 248.500148
C 210.894531 248.101288 210.353485 247.87718 209.789413 247.87718
C 209.225341 247.87718 208.684295 248.101288 208.285436 248.500148
C 207.886577 248.899007 207.662468 249.440052 207.662468 250.004124
C 207.662468 250.568197 207.886577 251.109242 208.285436 251.508101
C 208.684295 251.906961 209.225341 252.131069 209.789413 252.131069
z
" clip-path="url(#p01f0c57421)" style="fill: #ff655d; stroke: #ff655d; stroke-width: 0.886227"/>
    <path d="M 262.790907 254.34952
C 263.35498 254.34952 263.896025 254.125412 264.294884 253.726552
C 264.693744 253.327693 264.917852 252.786648 264.917852 252.222575
C 264.917852 251.658503 264.693744 251.117458 264.294884 250.718598
C 263.896025 250.319739 263.35498 250.095631 262.790907 250.095631
C 262.226835 250.095631 261.68579 250.319739 261.28693 250.718598
C 260.888071 251.117458 260.663963 251.658503 260.663963 252.222575
C 260.663963 252.786648 260.888071 253.327693 261.28693 253.726552
C 261.68579 254.125412 262.226835 254.34952 262.790907 254.34952
z
" clip-path="url(#p01f0c57421)" style="fill: #ff655d; stroke: #ff655d; stroke-width: 0.886227"/>
   </g>
  </g>
  <g id="axes_3">
   <g id="patch_5">
    <path d="M 287.967542 298.911375
L 392.9105 298.911375
L 392.9105 20.669
L 287.967542 20.669
z
" style="fill: #ffffff"/>
   </g>
   <g id="matplotlib.axis_5">
    <g id="xtick_17">
     <g id="line2d_37">
      <path d="M 308.638124 298.911375
L 308.638124 20.669
" clip-path="url(#p5596fef29a)" style="fill: none; stroke: #e6e6e6; stroke-width: 0.35; stroke-linecap: square"/>
     </g>
     <g id="line2d_38">
      <path d="M 308.638124 298.911375
" style="fill: none; stroke: #333333; stroke-width: 1.5; stroke-linecap: square"/>
      <g>
       <use xlink:href="#mb81e542758" x="308.638124" y="298.911375" style="fill: #333333; stroke: #333333"/>
      </g>
     </g>
     <g id="text_15">
      <!-- 2.5 -->
      <g style="fill: #4d4d4d" transform="translate(302.276874 309.490125) scale(0.08 -0.08)">
       <use xlink:href="#DejaVuSans-32"/>
       <use xlink:href="#DejaVuSans-2e" transform="translate(63.623047 0)"/>
       <use xlink:href="#DejaVuSans-35" transform="translate(95.410156 0)"/>
      </g>
     </g>
    </g>
    <g id="xtick_18">
     <g id="line2d_39">
      <path d="M 335.138871 298.911375
L 335.138871 20.669
" clip-path="url(#p5596fef29a)" style="fill: none; stroke: #e6e6e6; stroke-width: 0.35; stroke-linecap: square"/>
     </g>
     <g id="line2d_40">
      <path d="M 335.138871 298.911375
" style="fill: none; stroke: #333333; stroke-width: 1.5; stroke-linecap: square"/>
      <g>
       <use xlink:href="#mb81e542758" x="335.138871" y="298.911375" style="fill: #333333; stroke: #333333"/>
      </g>
     </g>
     <g id="text_16">
      <!-- 5.0 -->
      <g style="fill: #4d4d4d" transform="translate(328.777621 309.490125) scale(0.08 -0.08)">
       <use xlink:href="#DejaVuSans-35"/>
       <use xlink:href="#DejaVuSans-2e" transform="translate(63.623047 0)"/>
       <use xlink:href="#DejaVuSans-30" transform="translate(95.410156 0)"/>
      </g>
     </g>
    </g>
    <g id="xtick_19">
     <g id="line2d_41">
      <path d="M 361.639618 298.911375
L 361.639618 20.669
" clip-path="url(#p5596fef29a)" style="fill: none; stroke: #e6e6e6; stroke-width: 0.35; stroke-linecap: square"/>
     </g>
     <g id="line2d_42">
      <path d="M 361.639618 298.911375
" style="fill: none; stroke: #333333; stroke-width: 1.5; stroke-linecap: square"/>
      <g>
       <use xlink:href="#mb81e542758" x="361.639618" y="298.911375" style="fill: #333333; stroke: #333333"/>
      </g>
     </g>
     <g id="text_17">
      <!-- 7.5 -->
      <g style="fill: #4d4d4d" transform="translate(355.278368 309.490125) scale(0.08 -0.08)">
       <use xlink:href="#DejaVuSans-37"/>
       <use xlink:href="#DejaVuSans-2e" transform="translate(63.623047 0)"/>
       <use xlink:href="#DejaVuSans-35" transform="translate(95.410156 0)"/>
      </g>
     </g>
    </g>
    <g id="xtick_20">
     <g id="line2d_43">
      <path d="M 388.140366 298.911375
L 388.140366 20.669
" clip-path="url(#p5596fef29a)" style="fill: none; stroke: #e6e6e6; stroke-width: 0.35; stroke-linecap: square"/>
     </g>
     <g id="line2d_44">
      <path d="M 388.140366 298.911375
" style="fill: none; stroke: #333333; stroke-width: 1.5; stroke-linecap: square"/>
      <g>
       <use xlink:href="#mb81e542758" x="388.140366" y="298.911375" style="fill: #333333; stroke: #333333"/>
      </g>
     </g>
     <g id="text_18">
      <!-- 10.0 -->
      <g style="fill: #4d4d4d" transform="translate(379.234116 309.490125) scale(0.08 -0.08)">
       <use xlink:href="#DejaVuSans-31"/>
       <use xlink:href="#DejaVuSans-30" transform="translate(63.623047 0)"/>
       <use xlink:href="#DejaVuSans-2e" transform="translate(127.246094 0)"/>
       <use xlink:href="#DejaVuSans-30" transform="translate(159.033203 0)"/>
      </g>
     </g>
    </g>
    <g id="xtick_21"/>
    <g id="xtick_22"/>
    <g id="xtick_23"/>
    <g id="xtick_24"/>
   </g>
   <g id="matplotlib.axis_6">
    <g id="ytick_48">
     <g id="line2d_45">
      <path d="M 287.967542 229.764379
L 392.9105 229.764379
" clip-path="url(#p5596fef29a)" style="fill: none; stroke: #e6e6e6; stroke-width: 0.35; stroke-linecap: square"/>
     </g>
     <g id="line2d_46">
      <path d="M 287.967542 229.764379
" style="fill: none; stroke: #333333; stroke-width: 1.5; stroke-linecap: square"/>
      <g>
       <use xlink:href="#md290fcaeeb" x="287.967542" y="229.764379" style="fill: #333333; stroke: #333333"/>
      </g>
     </g>
     <g id="text_19">
      <!-- 10 -->
      <g style="fill: #4d4d4d" transform="translate(273.287542 232.803754) scale(0.08 -0.08)">
       <use xlink:href="#DejaVuSans-31"/>
       <use xlink:href="#DejaVuSans-30" transform="translate(63.623047 0)"/>
      </g>
     </g>
    </g>
    <g id="ytick_49">
     <g id="line2d_47">
      <path d="M 287.967542 138.971034
L 392.9105 138.971034
" clip-path="url(#p5596fef29a)" style="fill: none; stroke: #e6e6e6; stroke-width: 0.35; stroke-linecap: square"/>
     </g>
     <g id="line2d_48">
      <path d="M 287.967542 138.971034
" style="fill: none; stroke: #333333; stroke-width: 1.5; stroke-linecap: square"/>
      <g>
       <use xlink:href="#md290fcaeeb" x="287.967542" y="138.971034" style="fill: #333333; stroke: #333333"/>
      </g>
     </g>
     <g id="text_20">
      <!-- 20 -->
      <g style="fill: #4d4d4d" transform="translate(273.287542 142.010409) scale(0.08 -0.08)">
       <use xlink:href="#DejaVuSans-32"/>
       <use xlink:href="#DejaVuSans-30" transform="translate(63.623047 0)"/>
      </g>
     </g>
    </g>
    <g id="ytick_50">
     <g id="line2d_49">
      <path d="M 287.967542 85.860332
L 392.9105 85.860332
" clip-path="url(#p5596fef29a)" style="fill: none; stroke: #e6e6e6; stroke-width: 0.35; stroke-linecap: square"/>
     </g>
     <g id="line2d_50">
      <path d="M 287.967542 85.860332
" style="fill: none; stroke: #333333; stroke-width: 1.5; stroke-linecap: square"/>
      <g>
       <use xlink:href="#md290fcaeeb" x="287.967542" y="85.860332" style="fill: #333333; stroke: #333333"/>
      </g>
     </g>
     <g id="text_21">
      <!-- 30 -->
      <g style="fill: #4d4d4d" transform="translate(273.287542 88.899707) scale(0.08 -0.08)">
       <use xlink:href="#DejaVuSans-33"/>
       <use xlink:href="#DejaVuSans-30" transform="translate(63.623047 0)"/>
      </g>
     </g>
    </g>
    <g id="ytick_51"/>
    <g id="ytick_52"/>
    <g id="ytick_53"/>
    <g id="ytick_54"/>
    <g id="ytick_55"/>
    <g id="ytick_56"/>
    <g id="ytick_57"/>
    <g id="ytick_58"/>
    <g id="ytick_59"/>
    <g id="ytick_60"/>
    <g id="ytick_61"/>
    <g id="ytick_62"/>
    <g id="ytick_63"/>
    <g id="ytick_64"/>
    <g id="ytick_65"/>
    <g id="ytick_66"/>
    <g id="ytick_67"/>
    <g id="ytick_68"/>
    <g id="ytick_69"/>
    <g id="ytick_70"/>
    <g id="ytick_71"/>
    <g id="ytick_72"/>
    <g id="ytick_73"/>
    <g id="ytick_74"/>
    <g id="ytick_75"/>
    <g id="ytick_76"/>
    <g id="ytick_77"/>
    <g id="ytick_78"/>
    <g id="ytick_79"/>
    <g id="ytick_80"/>
    <g id="ytick_81"/>
   </g>
   <g id="line2d_51">
    <path d="M 292.737676 283.517547
L 303.337975 283.217555
L 335.138871 285.089696
L 388.140366 286.263994
" clip-path="url(#p5596fef29a)" style="fill: none; stroke: #004d40; stroke-width: 1.240718"/>
   </g>
   <g id="line2d_52">
    <path d="M 292.737676 251.806993
L 303.337975 244.863852
L 335.138871 245.643605
L 388.140366 245.365316
" clip-path="url(#p5596fef29a)" style="fill: none; stroke: #1e88e5; stroke-width: 1.240718"/>
   </g>
   <g id="line2d_53">
    <path d="M 292.737676 254.005124
L 303.337975 247.071837
L 335.138871 248.569904
L 388.140366 231.71741
" clip-path="url(#p5596fef29a)" style="fill: none; stroke: #ff655d; stroke-width: 1.240718"/>
   </g>
   <g id="line2d_54">
    <path d="M 292.737676 50.626439
L 303.337975 33.316381
L 335.138871 59.399784
L 388.140366 73.322317
" clip-path="url(#p5596fef29a)" style="fill: none; stroke: #d81b60; stroke-width: 1.240718"/>
   </g>
   <g id="PathCollection_3">
    <path d="M 292.737676 253.933938
C 293.301748 253.933938 293.842794 253.709829 294.241653 253.31097
C 294.640512 252.912111 294.864621 252.371065 294.864621 251.806993
C 294.864621 251.242921 294.640512 250.701875 294.241653 250.303016
C 293.842794 249.904157 293.301748 249.680048 292.737676 249.680048
C 292.173604 249.680048 291.632559 249.904157 291.233699 250.303016
C 290.83484 250.701875 290.610732 251.242921 290.610732 251.806993
C 290.610732 252.371065 290.83484 252.912111 291.233699 253.31097
C 291.632559 253.709829 292.173604 253.933938 292.737676 253.933938
z
" clip-path="url(#p5596fef29a)" style="fill: #1e88e5; stroke: #1e88e5; stroke-width: 0.886227"/>
    <path d="M 303.337975 246.990796
C 303.902047 246.990796 304.443093 246.766688 304.841952 246.367829
C 305.240811 245.968969 305.46492 245.427924 305.46492 244.863852
C 305.46492 244.299779 305.240811 243.758734 304.841952 243.359875
C 304.443093 242.961015 303.902047 242.736907 303.337975 242.736907
C 302.773903 242.736907 302.232857 242.961015 301.833998 243.359875
C 301.435139 243.758734 301.21103 244.299779 301.21103 244.863852
C 301.21103 245.427924 301.435139 245.968969 301.833998 246.367829
C 302.232857 246.766688 302.773903 246.990796 303.337975 246.990796
z
" clip-path="url(#p5596fef29a)" style="fill: #1e88e5; stroke: #1e88e5; stroke-width: 0.886227"/>
    <path d="M 335.138871 247.77055
C 335.702944 247.77055 336.243989 247.546441 336.642848 247.147582
C 337.041708 246.748723 337.265816 246.207677 337.265816 245.643605
C 337.265816 245.079533 337.041708 244.538487 336.642848 244.139628
C 336.243989 243.740769 335.702944 243.51666 335.138871 243.51666
C 334.574799 243.51666 334.033754 243.740769 333.634894 244.139628
C 333.236035 244.538487 333.011927 245.079533 333.011927 245.643605
C 333.011927 246.207677 333.236035 246.748723 333.634894 247.147582
C 334.033754 247.546441 334.574799 247.77055 335.138871 247.77055
z
" clip-path="url(#p5596fef29a)" style="fill: #1e88e5; stroke: #1e88e5; stroke-width: 0.886227"/>
    <path d="M 388.140366 247.49226
C 388.704438 247.49226 389.245483 247.268152 389.644342 246.869293
C 390.043202 246.470433 390.26731 245.929388 390.26731 245.365316
C 390.26731 244.801243 390.043202 244.260198 389.644342 243.861339
C 389.245483 243.462479 388.704438 243.238371 388.140366 243.238371
C 387.576293 243.238371 387.035248 243.462479 386.636389 243.861339
C 386.237529 244.260198 386.013421 244.801243 386.013421 245.365316
C 386.013421 245.929388 386.237529 246.470433 386.636389 246.869293
C 387.035248 247.268152 387.576293 247.49226 388.140366 247.49226
z
" clip-path="url(#p5596fef29a)" style="fill: #1e88e5; stroke: #1e88e5; stroke-width: 0.886227"/>
    <path d="M 292.737676 52.753383
C 293.301748 52.753383 293.842794 52.529275 294.241653 52.130416
C 294.640512 51.731556 294.864621 51.190511 294.864621 50.626439
C 294.864621 50.062366 294.640512 49.521321 294.241653 49.122462
C 293.842794 48.723602 293.301748 48.499494 292.737676 48.499494
C 292.173604 48.499494 291.632559 48.723602 291.233699 49.122462
C 290.83484 49.521321 290.610732 50.062366 290.610732 50.626439
C 290.610732 51.190511 290.83484 51.731556 291.233699 52.130416
C 291.632559 52.529275 292.173604 52.753383 292.737676 52.753383
z
" clip-path="url(#p5596fef29a)" style="fill: #d81b60; stroke: #d81b60; stroke-width: 0.886227"/>
    <path d="M 303.337975 35.443325
C 303.902047 35.443325 304.443093 35.219217 304.841952 34.820358
C 305.240811 34.421498 305.46492 33.880453 305.46492 33.316381
C 305.46492 32.752308 305.240811 32.211263 304.841952 31.812404
C 304.443093 31.413544 303.902047 31.189436 303.337975 31.189436
C 302.773903 31.189436 302.232857 31.413544 301.833998 31.812404
C 301.435139 32.211263 301.21103 32.752308 301.21103 33.316381
C 301.21103 33.880453 301.435139 34.421498 301.833998 34.820358
C 302.232857 35.219217 302.773903 35.443325 303.337975 35.443325
z
" clip-path="url(#p5596fef29a)" style="fill: #d81b60; stroke: #d81b60; stroke-width: 0.886227"/>
    <path d="M 335.138871 61.526729
C 335.702944 61.526729 336.243989 61.302621 336.642848 60.903761
C 337.041708 60.504902 337.265816 59.963857 337.265816 59.399784
C 337.265816 58.835712 337.041708 58.294667 336.642848 57.895807
C 336.243989 57.496948 335.702944 57.27284 335.138871 57.27284
C 334.574799 57.27284 334.033754 57.496948 333.634894 57.895807
C 333.236035 58.294667 333.011927 58.835712 333.011927 59.399784
C 333.011927 59.963857 333.236035 60.504902 333.634894 60.903761
C 334.033754 61.302621 334.574799 61.526729 335.138871 61.526729
z
" clip-path="url(#p5596fef29a)" style="fill: #d81b60; stroke: #d81b60; stroke-width: 0.886227"/>
    <path d="M 388.140366 75.449261
C 388.704438 75.449261 389.245483 75.225153 389.644342 74.826293
C 390.043202 74.427434 390.26731 73.886389 390.26731 73.322317
C 390.26731 72.758244 390.043202 72.217199 389.644342 71.81834
C 389.245483 71.41948 388.704438 71.195372 388.140366 71.195372
C 387.576293 71.195372 387.035248 71.41948 386.636389 71.81834
C 386.237529 72.217199 386.013421 72.758244 386.013421 73.322317
C 386.013421 73.886389 386.237529 74.427434 386.636389 74.826293
C 387.035248 75.225153 387.576293 75.449261 388.140366 75.449261
z
" clip-path="url(#p5596fef29a)" style="fill: #d81b60; stroke: #d81b60; stroke-width: 0.886227"/>
    <path d="M 292.737676 285.644492
C 293.301748 285.644492 293.842794 285.420384 294.241653 285.021524
C 294.640512 284.622665 294.864621 284.08162 294.864621 283.517547
C 294.864621 282.953475 294.640512 282.41243 294.241653 282.013571
C 293.842794 281.614711 293.301748 281.390603 292.737676 281.390603
C 292.173604 281.390603 291.632559 281.614711 291.233699 282.013571
C 290.83484 282.41243 290.610732 282.953475 290.610732 283.517547
C 290.610732 284.08162 290.83484 284.622665 291.233699 285.021524
C 291.632559 285.420384 292.173604 285.644492 292.737676 285.644492
z
" clip-path="url(#p5596fef29a)" style="fill: #004d40; stroke: #004d40; stroke-width: 0.886227"/>
    <path d="M 303.337975 285.3445
C 303.902047 285.3445 304.443093 285.120391 304.841952 284.721532
C 305.240811 284.322673 305.46492 283.781627 305.46492 283.217555
C 305.46492 282.653483 305.240811 282.112437 304.841952 281.713578
C 304.443093 281.314719 303.902047 281.09061 303.337975 281.09061
C 302.773903 281.09061 302.232857 281.314719 301.833998 281.713578
C 301.435139 282.112437 301.21103 282.653483 301.21103 283.217555
C 301.21103 283.781627 301.435139 284.322673 301.833998 284.721532
C 302.232857 285.120391 302.773903 285.3445 303.337975 285.3445
z
" clip-path="url(#p5596fef29a)" style="fill: #004d40; stroke: #004d40; stroke-width: 0.886227"/>
    <path d="M 335.138871 287.216641
C 335.702944 287.216641 336.243989 286.992532 336.642848 286.593673
C 337.041708 286.194814 337.265816 285.653768 337.265816 285.089696
C 337.265816 284.525624 337.041708 283.984578 336.642848 283.585719
C 336.243989 283.18686 335.702944 282.962751 335.138871 282.962751
C 334.574799 282.962751 334.033754 283.18686 333.634894 283.585719
C 333.236035 283.984578 333.011927 284.525624 333.011927 285.089696
C 333.011927 285.653768 333.236035 286.194814 333.634894 286.593673
C 334.033754 286.992532 334.574799 287.216641 335.138871 287.216641
z
" clip-path="url(#p5596fef29a)" style="fill: #004d40; stroke: #004d40; stroke-width: 0.886227"/>
    <path d="M 388.140366 288.390939
C 388.704438 288.390939 389.245483 288.166831 389.644342 287.767971
C 390.043202 287.369112 390.26731 286.828067 390.26731 286.263994
C 390.26731 285.699922 390.043202 285.158877 389.644342 284.760017
C 389.245483 284.361158 388.704438 284.13705 388.140366 284.13705
C 387.576293 284.13705 387.035248 284.361158 386.636389 284.760017
C 386.237529 285.158877 386.013421 285.699922 386.013421 286.263994
C 386.013421 286.828067 386.237529 287.369112 386.636389 287.767971
C 387.035248 288.166831 387.576293 288.390939 388.140366 288.390939
z
" clip-path="url(#p5596fef29a)" style="fill: #004d40; stroke: #004d40; stroke-width: 0.886227"/>
    <path d="M 292.737676 256.132069
C 293.301748 256.132069 293.842794 255.90796 294.241653 255.509101
C 294.640512 255.110242 294.864621 254.569196 294.864621 254.005124
C 294.864621 253.441052 294.640512 252.900006 294.241653 252.501147
C 293.842794 252.102288 293.301748 251.878179 292.737676 251.878179
C 292.173604 251.878179 291.632559 252.102288 291.233699 252.501147
C 290.83484 252.900006 290.610732 253.441052 290.610732 254.005124
C 290.610732 254.569196 290.83484 255.110242 291.233699 255.509101
C 291.632559 255.90796 292.173604 256.132069 292.737676 256.132069
z
" clip-path="url(#p5596fef29a)" style="fill: #ff655d; stroke: #ff655d; stroke-width: 0.886227"/>
    <path d="M 303.337975 249.198781
C 303.902047 249.198781 304.443093 248.974673 304.841952 248.575814
C 305.240811 248.176954 305.46492 247.635909 305.46492 247.071837
C 305.46492 246.507764 305.240811 245.966719 304.841952 245.56786
C 304.443093 245.169 303.902047 244.944892 303.337975 244.944892
C 302.773903 244.944892 302.232857 245.169 301.833998 245.56786
C 301.435139 245.966719 301.21103 246.507764 301.21103 247.071837
C 301.21103 247.635909 301.435139 248.176954 301.833998 248.575814
C 302.232857 248.974673 302.773903 249.198781 303.337975 249.198781
z
" clip-path="url(#p5596fef29a)" style="fill: #ff655d; stroke: #ff655d; stroke-width: 0.886227"/>
    <path d="M 335.138871 250.696849
C 335.702944 250.696849 336.243989 250.472741 336.642848 250.073881
C 337.041708 249.675022 337.265816 249.133977 337.265816 248.569904
C 337.265816 248.005832 337.041708 247.464787 336.642848 247.065927
C 336.243989 246.667068 335.702944 246.44296 335.138871 246.44296
C 334.574799 246.44296 334.033754 246.667068 333.634894 247.065927
C 333.236035 247.464787 333.011927 248.005832 333.011927 248.569904
C 333.011927 249.133977 333.236035 249.675022 333.634894 250.073881
C 334.033754 250.472741 334.574799 250.696849 335.138871 250.696849
z
" clip-path="url(#p5596fef29a)" style="fill: #ff655d; stroke: #ff655d; stroke-width: 0.886227"/>
    <path d="M 388.140366 233.844355
C 388.704438 233.844355 389.245483 233.620247 389.644342 233.221387
C 390.043202 232.822528 390.26731 232.281483 390.26731 231.71741
C 390.26731 231.153338 390.043202 230.612293 389.644342 230.213433
C 389.245483 229.814574 388.704438 229.590466 388.140366 229.590466
C 387.576293 229.590466 387.035248 229.814574 386.636389 230.213433
C 386.237529 230.612293 386.013421 231.153338 386.013421 231.71741
C 386.013421 232.281483 386.237529 232.822528 386.636389 233.221387
C 387.035248 233.620247 387.576293 233.844355 388.140366 233.844355
z
" clip-path="url(#p5596fef29a)" style="fill: #ff655d; stroke: #ff655d; stroke-width: 0.886227"/>
   </g>
  </g>
  <g id="patch_6">
   <path d="M 37.268625 298.911375
L 142.211583 298.911375
L 142.211583 20.669
L 37.268625 20.669
L 37.268625 298.911375
z
" style="fill: none; stroke: #7f7f7f; stroke-linejoin: miter"/>
  </g>
  <g id="patch_7">
   <path d="M 162.618083 298.911375
L 267.561042 298.911375
L 267.561042 20.669
L 162.618083 20.669
L 162.618083 298.911375
z
" style="fill: none; stroke: #7f7f7f; stroke-linejoin: miter"/>
  </g>
  <g id="patch_8">
   <path d="M 287.967542 298.911375
L 392.9105 298.911375
L 392.9105 20.669
L 287.967542 20.669
L 287.967542 298.911375
z
" style="fill: none; stroke: #7f7f7f; stroke-linejoin: miter"/>
  </g>
  <g id="text_22">
   <!-- Minimum depth -->
   <g transform="translate(175.776281 323.936312) scale(0.1 -0.1)">
    <defs>
     <path id="DejaVuSans-4d" d="M 628 4666
L 1569 4666
L 2759 1491
L 3956 4666
L 4897 4666
L 4897 0
L 4281 0
L 4281 4097
L 3078 897
L 2444 897
L 1241 4097
L 1241 0
L 628 0
L 628 4666
z
" transform="scale(0.015625)"/>
     <path id="DejaVuSans-69" d="M 603 3500
L 1178 3500
L 1178 0
L 603 0
L 603 3500
z
M 603 4863
L 1178 4863
L 1178 4134
L 603 4134
L 603 4863
z
" transform="scale(0.015625)"/>
     <path id="DejaVuSans-6e" d="M 3513 2113
L 3513 0
L 2938 0
L 2938 2094
Q 2938 2591 2744 2837
Q 2550 3084 2163 3084
Q 1697 3084 1428 2787
Q 1159 2491 1159 1978
L 1159 0
L 581 0
L 581 3500
L 1159 3500
L 1159 2956
Q 1366 3272 1645 3428
Q 1925 3584 2291 3584
Q 2894 3584 3203 3211
Q 3513 2838 3513 2113
z
" transform="scale(0.015625)"/>
     <path id="DejaVuSans-6d" d="M 3328 2828
Q 3544 3216 3844 3400
Q 4144 3584 4550 3584
Q 5097 3584 5394 3201
Q 5691 2819 5691 2113
L 5691 0
L 5113 0
L 5113 2094
Q 5113 2597 4934 2840
Q 4756 3084 4391 3084
Q 3944 3084 3684 2787
Q 3425 2491 3425 1978
L 3425 0
L 2847 0
L 2847 2094
Q 2847 2600 2669 2842
Q 2491 3084 2119 3084
Q 1678 3084 1418 2786
Q 1159 2488 1159 1978
L 1159 0
L 581 0
L 581 3500
L 1159 3500
L 1159 2956
Q 1356 3278 1631 3431
Q 1906 3584 2284 3584
Q 2666 3584 2933 3390
Q 3200 3197 3328 2828
z
" transform="scale(0.015625)"/>
     <path id="DejaVuSans-75" d="M 544 1381
L 544 3500
L 1119 3500
L 1119 1403
Q 1119 906 1312 657
Q 1506 409 1894 409
Q 2359 409 2629 706
Q 2900 1003 2900 1516
L 2900 3500
L 3475 3500
L 3475 0
L 2900 0
L 2900 538
Q 2691 219 2414 64
Q 2138 -91 1772 -91
Q 1169 -91 856 284
Q 544 659 544 1381
z
M 1991 3584
L 1991 3584
z
" transform="scale(0.015625)"/>
     <path id="DejaVuSans-20" transform="scale(0.015625)"/>
     <path id="DejaVuSans-64" d="M 2906 2969
L 2906 4863
L 3481 4863
L 3481 0
L 2906 0
L 2906 525
Q 2725 213 2448 61
Q 2172 -91 1784 -91
Q 1150 -91 751 415
Q 353 922 353 1747
Q 353 2572 751 3078
Q 1150 3584 1784 3584
Q 2172 3584 2448 3432
Q 2725 3281 2906 2969
z
M 947 1747
Q 947 1113 1208 752
Q 1469 391 1925 391
Q 2381 391 2643 752
Q 2906 1113 2906 1747
Q 2906 2381 2643 2742
Q 2381 3103 1925 3103
Q 1469 3103 1208 2742
Q 947 2381 947 1747
z
" transform="scale(0.015625)"/>
     <path id="DejaVuSans-65" d="M 3597 1894
L 3597 1613
L 953 1613
Q 991 1019 1311 708
Q 1631 397 2203 397
Q 2534 397 2845 478
Q 3156 559 3463 722
L 3463 178
Q 3153 47 2828 -22
Q 2503 -91 2169 -91
Q 1331 -91 842 396
Q 353 884 353 1716
Q 353 2575 817 3079
Q 1281 3584 2069 3584
Q 2775 3584 3186 3129
Q 3597 2675 3597 1894
z
M 3022 2063
Q 3016 2534 2758 2815
Q 2500 3097 2075 3097
Q 1594 3097 1305 2825
Q 1016 2553 972 2059
L 3022 2063
z
" transform="scale(0.015625)"/>
     <path id="DejaVuSans-70" d="M 1159 525
L 1159 -1331
L 581 -1331
L 581 3500
L 1159 3500
L 1159 2969
Q 1341 3281 1617 3432
Q 1894 3584 2278 3584
Q 2916 3584 3314 3078
Q 3713 2572 3713 1747
Q 3713 922 3314 415
Q 2916 -91 2278 -91
Q 1894 -91 1617 61
Q 1341 213 1159 525
z
M 3116 1747
Q 3116 2381 2855 2742
Q 2594 3103 2138 3103
Q 1681 3103 1420 2742
Q 1159 2381 1159 1747
Q 1159 1113 1420 752
Q 1681 391 2138 391
Q 2594 391 2855 752
Q 3116 1113 3116 1747
z
" transform="scale(0.015625)"/>
     <path id="DejaVuSans-74" d="M 1172 4494
L 1172 3500
L 2356 3500
L 2356 3053
L 1172 3053
L 1172 1153
Q 1172 725 1289 603
Q 1406 481 1766 481
L 2356 481
L 2356 0
L 1766 0
Q 1100 0 847 248
Q 594 497 594 1153
L 594 3053
L 172 3053
L 172 3500
L 594 3500
L 594 4494
L 1172 4494
z
" transform="scale(0.015625)"/>
     <path id="DejaVuSans-68" d="M 3513 2113
L 3513 0
L 2938 0
L 2938 2094
Q 2938 2591 2744 2837
Q 2550 3084 2163 3084
Q 1697 3084 1428 2787
Q 1159 2491 1159 1978
L 1159 0
L 581 0
L 581 4863
L 1159 4863
L 1159 2956
Q 1366 3272 1645 3428
Q 1925 3584 2291 3584
Q 2894 3584 3203 3211
Q 3513 2838 3513 2113
z
" transform="scale(0.015625)"/>
    </defs>
    <use xlink:href="#DejaVuSans-4d"/>
    <use xlink:href="#DejaVuSans-69" transform="translate(86.279297 0)"/>
    <use xlink:href="#DejaVuSans-6e" transform="translate(114.0625 0)"/>
    <use xlink:href="#DejaVuSans-69" transform="translate(177.441406 0)"/>
    <use xlink:href="#DejaVuSans-6d" transform="translate(205.224609 0)"/>
    <use xlink:href="#DejaVuSans-75" transform="translate(302.636719 0)"/>
    <use xlink:href="#DejaVuSans-6d" transform="translate(366.015625 0)"/>
    <use xlink:href="#DejaVuSans-20" transform="translate(463.427734 0)"/>
    <use xlink:href="#DejaVuSans-64" transform="translate(495.214844 0)"/>
    <use xlink:href="#DejaVuSans-65" transform="translate(558.691406 0)"/>
    <use xlink:href="#DejaVuSans-70" transform="translate(620.214844 0)"/>
    <use xlink:href="#DejaVuSans-74" transform="translate(683.691406 0)"/>
    <use xlink:href="#DejaVuSans-68" transform="translate(722.900391 0)"/>
   </g>
  </g>
  <g id="text_23">
   <!-- Elapsed seconds (log10) -->
   <g transform="translate(12.782438 220.934719) rotate(-90) scale(0.1 -0.1)">
    <defs>
     <path id="DejaVuSans-45" d="M 628 4666
L 3578 4666
L 3578 4134
L 1259 4134
L 1259 2753
L 3481 2753
L 3481 2222
L 1259 2222
L 1259 531
L 3634 531
L 3634 0
L 628 0
L 628 4666
z
" transform="scale(0.015625)"/>
     <path id="DejaVuSans-6c" d="M 603 4863
L 1178 4863
L 1178 0
L 603 0
L 603 4863
z
" transform="scale(0.015625)"/>
     <path id="DejaVuSans-61" d="M 2194 1759
Q 1497 1759 1228 1600
Q 959 1441 959 1056
Q 959 750 1161 570
Q 1363 391 1709 391
Q 2188 391 2477 730
Q 2766 1069 2766 1631
L 2766 1759
L 2194 1759
z
M 3341 1997
L 3341 0
L 2766 0
L 2766 531
Q 2569 213 2275 61
Q 1981 -91 1556 -91
Q 1019 -91 701 211
Q 384 513 384 1019
Q 384 1609 779 1909
Q 1175 2209 1959 2209
L 2766 2209
L 2766 2266
Q 2766 2663 2505 2880
Q 2244 3097 1772 3097
Q 1472 3097 1187 3025
Q 903 2953 641 2809
L 641 3341
Q 956 3463 1253 3523
Q 1550 3584 1831 3584
Q 2591 3584 2966 3190
Q 3341 2797 3341 1997
z
" transform="scale(0.015625)"/>
     <path id="DejaVuSans-73" d="M 2834 3397
L 2834 2853
Q 2591 2978 2328 3040
Q 2066 3103 1784 3103
Q 1356 3103 1142 2972
Q 928 2841 928 2578
Q 928 2378 1081 2264
Q 1234 2150 1697 2047
L 1894 2003
Q 2506 1872 2764 1633
Q 3022 1394 3022 966
Q 3022 478 2636 193
Q 2250 -91 1575 -91
Q 1294 -91 989 -36
Q 684 19 347 128
L 347 722
Q 666 556 975 473
Q 1284 391 1588 391
Q 1994 391 2212 530
Q 2431 669 2431 922
Q 2431 1156 2273 1281
Q 2116 1406 1581 1522
L 1381 1569
Q 847 1681 609 1914
Q 372 2147 372 2553
Q 372 3047 722 3315
Q 1072 3584 1716 3584
Q 2034 3584 2315 3537
Q 2597 3491 2834 3397
z
" transform="scale(0.015625)"/>
     <path id="DejaVuSans-63" d="M 3122 3366
L 3122 2828
Q 2878 2963 2633 3030
Q 2388 3097 2138 3097
Q 1578 3097 1268 2742
Q 959 2388 959 1747
Q 959 1106 1268 751
Q 1578 397 2138 397
Q 2388 397 2633 464
Q 2878 531 3122 666
L 3122 134
Q 2881 22 2623 -34
Q 2366 -91 2075 -91
Q 1284 -91 818 406
Q 353 903 353 1747
Q 353 2603 823 3093
Q 1294 3584 2113 3584
Q 2378 3584 2631 3529
Q 2884 3475 3122 3366
z
" transform="scale(0.015625)"/>
     <path id="DejaVuSans-6f" d="M 1959 3097
Q 1497 3097 1228 2736
Q 959 2375 959 1747
Q 959 1119 1226 758
Q 1494 397 1959 397
Q 2419 397 2687 759
Q 2956 1122 2956 1747
Q 2956 2369 2687 2733
Q 2419 3097 1959 3097
z
M 1959 3584
Q 2709 3584 3137 3096
Q 3566 2609 3566 1747
Q 3566 888 3137 398
Q 2709 -91 1959 -91
Q 1206 -91 779 398
Q 353 888 353 1747
Q 353 2609 779 3096
Q 1206 3584 1959 3584
z
" transform="scale(0.015625)"/>
     <path id="DejaVuSans-28" d="M 1984 4856
Q 1566 4138 1362 3434
Q 1159 2731 1159 2009
Q 1159 1288 1364 580
Q 1569 -128 1984 -844
L 1484 -844
Q 1016 -109 783 600
Q 550 1309 550 2009
Q 550 2706 781 3412
Q 1013 4119 1484 4856
L 1984 4856
z
" transform="scale(0.015625)"/>
     <path id="DejaVuSans-67" d="M 2906 1791
Q 2906 2416 2648 2759
Q 2391 3103 1925 3103
Q 1463 3103 1205 2759
Q 947 2416 947 1791
Q 947 1169 1205 825
Q 1463 481 1925 481
Q 2391 481 2648 825
Q 2906 1169 2906 1791
z
M 3481 434
Q 3481 -459 3084 -895
Q 2688 -1331 1869 -1331
Q 1566 -1331 1297 -1286
Q 1028 -1241 775 -1147
L 775 -588
Q 1028 -725 1275 -790
Q 1522 -856 1778 -856
Q 2344 -856 2625 -561
Q 2906 -266 2906 331
L 2906 616
Q 2728 306 2450 153
Q 2172 0 1784 0
Q 1141 0 747 490
Q 353 981 353 1791
Q 353 2603 747 3093
Q 1141 3584 1784 3584
Q 2172 3584 2450 3431
Q 2728 3278 2906 2969
L 2906 3500
L 3481 3500
L 3481 434
z
" transform="scale(0.015625)"/>
     <path id="DejaVuSans-29" d="M 513 4856
L 1013 4856
Q 1481 4119 1714 3412
Q 1947 2706 1947 2009
Q 1947 1309 1714 600
Q 1481 -109 1013 -844
L 513 -844
Q 928 -128 1133 580
Q 1338 1288 1338 2009
Q 1338 2731 1133 3434
Q 928 4138 513 4856
z
" transform="scale(0.015625)"/>
    </defs>
    <use xlink:href="#DejaVuSans-45"/>
    <use xlink:href="#DejaVuSans-6c" transform="translate(63.183594 0)"/>
    <use xlink:href="#DejaVuSans-61" transform="translate(90.966797 0)"/>
    <use xlink:href="#DejaVuSans-70" transform="translate(152.246094 0)"/>
    <use xlink:href="#DejaVuSans-73" transform="translate(215.722656 0)"/>
    <use xlink:href="#DejaVuSans-65" transform="translate(267.822266 0)"/>
    <use xlink:href="#DejaVuSans-64" transform="translate(329.345703 0)"/>
    <use xlink:href="#DejaVuSans-20" transform="translate(392.822266 0)"/>
    <use xlink:href="#DejaVuSans-73" transform="translate(424.609375 0)"/>
    <use xlink:href="#DejaVuSans-65" transform="translate(476.708984 0)"/>
    <use xlink:href="#DejaVuSans-63" transform="translate(538.232422 0)"/>
    <use xlink:href="#DejaVuSans-6f" transform="translate(593.212891 0)"/>
    <use xlink:href="#DejaVuSans-6e" transform="translate(654.394531 0)"/>
    <use xlink:href="#DejaVuSans-64" transform="translate(717.773438 0)"/>
    <use xlink:href="#DejaVuSans-73" transform="translate(781.25 0)"/>
    <use xlink:href="#DejaVuSans-20" transform="translate(833.349609 0)"/>
    <use xlink:href="#DejaVuSans-28" transform="translate(865.136719 0)"/>
    <use xlink:href="#DejaVuSans-6c" transform="translate(904.150391 0)"/>
    <use xlink:href="#DejaVuSans-6f" transform="translate(931.933594 0)"/>
    <use xlink:href="#DejaVuSans-67" transform="translate(993.115234 0)"/>
    <use xlink:href="#DejaVuSans-31" transform="translate(1056.591797 0)"/>
    <use xlink:href="#DejaVuSans-30" transform="translate(1120.214844 0)"/>
    <use xlink:href="#DejaVuSans-29" transform="translate(1183.837891 0)"/>
   </g>
  </g>
  <g id="patch_9">
   <path d="M 37.268625 20.669
L 142.211583 20.669
L 142.211583 5.184
L 37.268625 5.184
z
" style="fill: #f7f7f7; stroke: #cccccc; stroke-linejoin: miter"/>
  </g>
  <g id="text_24">
   <!-- distrib -->
   <g style="fill: #1a1a1a" transform="translate(77.142604 15.965875) scale(0.08 -0.08)">
    <defs>
     <path id="DejaVuSans-72" d="M 2631 2963
Q 2534 3019 2420 3045
Q 2306 3072 2169 3072
Q 1681 3072 1420 2755
Q 1159 2438 1159 1844
L 1159 0
L 581 0
L 581 3500
L 1159 3500
L 1159 2956
Q 1341 3275 1631 3429
Q 1922 3584 2338 3584
Q 2397 3584 2469 3576
Q 2541 3569 2628 3553
L 2631 2963
z
" transform="scale(0.015625)"/>
     <path id="DejaVuSans-62" d="M 3116 1747
Q 3116 2381 2855 2742
Q 2594 3103 2138 3103
Q 1681 3103 1420 2742
Q 1159 2381 1159 1747
Q 1159 1113 1420 752
Q 1681 391 2138 391
Q 2594 391 2855 752
Q 3116 1113 3116 1747
z
M 1159 2969
Q 1341 3281 1617 3432
Q 1894 3584 2278 3584
Q 2916 3584 3314 3078
Q 3713 2572 3713 1747
Q 3713 922 3314 415
Q 2916 -91 2278 -91
Q 1894 -91 1617 61
Q 1341 213 1159 525
L 1159 0
L 581 0
L 581 4863
L 1159 4863
L 1159 2969
z
" transform="scale(0.015625)"/>
    </defs>
    <use xlink:href="#DejaVuSans-64"/>
    <use xlink:href="#DejaVuSans-69" transform="translate(63.476562 0)"/>
    <use xlink:href="#DejaVuSans-73" transform="translate(91.259766 0)"/>
    <use xlink:href="#DejaVuSans-74" transform="translate(143.359375 0)"/>
    <use xlink:href="#DejaVuSans-72" transform="translate(182.568359 0)"/>
    <use xlink:href="#DejaVuSans-69" transform="translate(223.681641 0)"/>
    <use xlink:href="#DejaVuSans-62" transform="translate(251.464844 0)"/>
   </g>
  </g>
  <g id="patch_10">
   <path d="M 162.618083 20.669
L 267.561042 20.669
L 267.561042 5.184
L 162.618083 5.184
z
" style="fill: #f7f7f7; stroke: #cccccc; stroke-linejoin: miter"/>
  </g>
  <g id="text_25">
   <!-- freq -->
   <g style="fill: #1a1a1a" transform="translate(207.126438 15.965875) scale(0.08 -0.08)">
    <defs>
     <path id="DejaVuSans-66" d="M 2375 4863
L 2375 4384
L 1825 4384
Q 1516 4384 1395 4259
Q 1275 4134 1275 3809
L 1275 3500
L 2222 3500
L 2222 3053
L 1275 3053
L 1275 0
L 697 0
L 697 3053
L 147 3053
L 147 3500
L 697 3500
L 697 3744
Q 697 4328 969 4595
Q 1241 4863 1831 4863
L 2375 4863
z
" transform="scale(0.015625)"/>
     <path id="DejaVuSans-71" d="M 947 1747
Q 947 1113 1208 752
Q 1469 391 1925 391
Q 2381 391 2643 752
Q 2906 1113 2906 1747
Q 2906 2381 2643 2742
Q 2381 3103 1925 3103
Q 1469 3103 1208 2742
Q 947 2381 947 1747
z
M 2906 525
Q 2725 213 2448 61
Q 2172 -91 1784 -91
Q 1150 -91 751 415
Q 353 922 353 1747
Q 353 2572 751 3078
Q 1150 3584 1784 3584
Q 2172 3584 2448 3432
Q 2725 3281 2906 2969
L 2906 3500
L 3481 3500
L 3481 -1331
L 2906 -1331
L 2906 525
z
" transform="scale(0.015625)"/>
    </defs>
    <use xlink:href="#DejaVuSans-66"/>
    <use xlink:href="#DejaVuSans-72" transform="translate(35.205078 0)"/>
    <use xlink:href="#DejaVuSans-65" transform="translate(74.068359 0)"/>
    <use xlink:href="#DejaVuSans-71" transform="translate(135.591797 0)"/>
   </g>
  </g>
  <g id="patch_11">
   <path d="M 287.967542 20.669
L 392.9105 20.669
L 392.9105 5.184
L 287.967542 5.184
z
" style="fill: #f7f7f7; stroke: #cccccc; stroke-linejoin: miter"/>
  </g>
  <g id="text_26">
   <!-- signif -->
   <g style="fill: #1a1a1a" transform="translate(329.650271 15.965875) scale(0.08 -0.08)">
    <use xlink:href="#DejaVuSans-73"/>
    <use xlink:href="#DejaVuSans-69" transform="translate(52.099609 0)"/>
    <use xlink:href="#DejaVuSans-67" transform="translate(79.882812 0)"/>
    <use xlink:href="#DejaVuSans-6e" transform="translate(143.359375 0)"/>
    <use xlink:href="#DejaVuSans-69" transform="translate(206.738281 0)"/>
    <use xlink:href="#DejaVuSans-66" transform="translate(234.521484 0)"/>
   </g>
  </g>
  <g id="patch_12">
   <path d="M 408.4625 197.773344
L 513.216 197.773344
L 513.216 121.807031
L 408.4625 121.807031
z
" style="fill: #ffffff"/>
  </g>
  <g id="patch_13">
   <path d="M 409.4625 147.573344
L 423.8625 147.573344
L 423.8625 133.173344
L 409.4625 133.173344
z
" clip-path="url(#p93ebebd8b7)" style="fill: #ffffff"/>
  </g>
  <g id="line2d_55">
   <path d="M 409.4625 140.373344
L 423.8625 140.373344
" clip-path="url(#p93ebebd8b7)" style="fill: none; stroke: #004d40; stroke-width: 1.240718"/>
  </g>
  <g id="line2d_56">
   <path d="M 416.6625 140.373344
" clip-path="url(#p93ebebd8b7)" style="fill: none; stroke: #1f77b4; stroke-width: 1.5; stroke-linecap: square"/>
   <defs>
    <path id="meca37a08ee" d="M 0 2.126945
C 0.564072 2.126945 1.105118 1.902836 1.503977 1.503977
C 1.902836 1.105118 2.126945 0.564072 2.126945 0
C 2.126945 -0.564072 1.902836 -1.105118 1.503977 -1.503977
C 1.105118 -1.902836 0.564072 -2.126945 0 -2.126945
C -0.564072 -2.126945 -1.105118 -1.902836 -1.503977 -1.503977
C -1.902836 -1.105118 -2.126945 -0.564072 -2.126945 0
C -2.126945 0.564072 -1.902836 1.105118 -1.503977 1.503977
C -1.105118 1.902836 -0.564072 2.126945 0 2.126945
z
" style="stroke: #004d40; stroke-width: 0.886227"/>
   </defs>
   <g clip-path="url(#p93ebebd8b7)">
    <use xlink:href="#meca37a08ee" x="416.6625" y="140.373344" style="fill: #004d40; stroke: #004d40; stroke-width: 0.886227"/>
   </g>
  </g>
  <g id="text_27">
   <!-- Tinca Tinca -->
   <g transform="translate(427.3185 142.580844) scale(0.08 -0.08)">
    <defs>
     <path id="DejaVuSans-54" d="M -19 4666
L 3928 4666
L 3928 4134
L 2272 4134
L 2272 0
L 1638 0
L 1638 4134
L -19 4134
L -19 4666
z
" transform="scale(0.015625)"/>
    </defs>
    <use xlink:href="#DejaVuSans-54"/>
    <use xlink:href="#DejaVuSans-69" transform="translate(57.958984 0)"/>
    <use xlink:href="#DejaVuSans-6e" transform="translate(85.742188 0)"/>
    <use xlink:href="#DejaVuSans-63" transform="translate(149.121094 0)"/>
    <use xlink:href="#DejaVuSans-61" transform="translate(204.101562 0)"/>
    <use xlink:href="#DejaVuSans-20" transform="translate(265.380859 0)"/>
    <use xlink:href="#DejaVuSans-54" transform="translate(297.167969 0)"/>
    <use xlink:href="#DejaVuSans-69" transform="translate(355.126953 0)"/>
    <use xlink:href="#DejaVuSans-6e" transform="translate(382.910156 0)"/>
    <use xlink:href="#DejaVuSans-63" transform="translate(446.289062 0)"/>
    <use xlink:href="#DejaVuSans-61" transform="translate(501.269531 0)"/>
   </g>
  </g>
  <g id="patch_14">
   <path d="M 409.4625 163.973344
L 423.8625 163.973344
L 423.8625 149.573344
L 409.4625 149.573344
z
" clip-path="url(#p51a52e3168)" style="fill: #ffffff"/>
  </g>
  <g id="line2d_57">
   <path d="M 409.4625 156.773344
L 423.8625 156.773344
" clip-path="url(#p51a52e3168)" style="fill: none; stroke: #1e88e5; stroke-width: 1.240718"/>
  </g>
  <g id="line2d_58">
   <path d="M 416.6625 156.773344
" clip-path="url(#p51a52e3168)" style="fill: none; stroke: #1f77b4; stroke-width: 1.5; stroke-linecap: square"/>
   <defs>
    <path id="m3f2660d014" d="M 0 2.126945
C 0.564072 2.126945 1.105118 1.902836 1.503977 1.503977
C 1.902836 1.105118 2.126945 0.564072 2.126945 0
C 2.126945 -0.564072 1.902836 -1.105118 1.503977 -1.503977
C 1.105118 -1.902836 0.564072 -2.126945 0 -2.126945
C -0.564072 -2.126945 -1.105118 -1.902836 -1.503977 -1.503977
C -1.902836 -1.105118 -2.126945 -0.564072 -2.126945 0
C -2.126945 0.564072 -1.902836 1.105118 -1.503977 1.503977
C -1.105118 1.902836 -0.564072 2.126945 0 2.126945
z
" style="stroke: #1e88e5; stroke-width: 0.886227"/>
   </defs>
   <g clip-path="url(#p51a52e3168)">
    <use xlink:href="#m3f2660d014" x="416.6625" y="156.773344" style="fill: #1e88e5; stroke: #1e88e5; stroke-width: 0.886227"/>
   </g>
  </g>
  <g id="text_28">
   <!-- Notothenia Rossii -->
   <g transform="translate(427.3185 158.980844) scale(0.08 -0.08)">
    <defs>
     <path id="DejaVuSans-4e" d="M 628 4666
L 1478 4666
L 3547 763
L 3547 4666
L 4159 4666
L 4159 0
L 3309 0
L 1241 3903
L 1241 0
L 628 0
L 628 4666
z
" transform="scale(0.015625)"/>
     <path id="DejaVuSans-52" d="M 2841 2188
Q 3044 2119 3236 1894
Q 3428 1669 3622 1275
L 4263 0
L 3584 0
L 2988 1197
Q 2756 1666 2539 1819
Q 2322 1972 1947 1972
L 1259 1972
L 1259 0
L 628 0
L 628 4666
L 2053 4666
Q 2853 4666 3247 4331
Q 3641 3997 3641 3322
Q 3641 2881 3436 2590
Q 3231 2300 2841 2188
z
M 1259 4147
L 1259 2491
L 2053 2491
Q 2509 2491 2742 2702
Q 2975 2913 2975 3322
Q 2975 3731 2742 3939
Q 2509 4147 2053 4147
L 1259 4147
z
" transform="scale(0.015625)"/>
    </defs>
    <use xlink:href="#DejaVuSans-4e"/>
    <use xlink:href="#DejaVuSans-6f" transform="translate(74.804688 0)"/>
    <use xlink:href="#DejaVuSans-74" transform="translate(135.986328 0)"/>
    <use xlink:href="#DejaVuSans-6f" transform="translate(175.195312 0)"/>
    <use xlink:href="#DejaVuSans-74" transform="translate(236.376953 0)"/>
    <use xlink:href="#DejaVuSans-68" transform="translate(275.585938 0)"/>
    <use xlink:href="#DejaVuSans-65" transform="translate(338.964844 0)"/>
    <use xlink:href="#DejaVuSans-6e" transform="translate(400.488281 0)"/>
    <use xlink:href="#DejaVuSans-69" transform="translate(463.867188 0)"/>
    <use xlink:href="#DejaVuSans-61" transform="translate(491.650391 0)"/>
    <use xlink:href="#DejaVuSans-20" transform="translate(552.929688 0)"/>
    <use xlink:href="#DejaVuSans-52" transform="translate(584.716797 0)"/>
    <use xlink:href="#DejaVuSans-6f" transform="translate(649.699219 0)"/>
    <use xlink:href="#DejaVuSans-73" transform="translate(710.880859 0)"/>
    <use xlink:href="#DejaVuSans-73" transform="translate(762.980469 0)"/>
    <use xlink:href="#DejaVuSans-69" transform="translate(815.080078 0)"/>
    <use xlink:href="#DejaVuSans-69" transform="translate(842.863281 0)"/>
   </g>
  </g>
  <g id="patch_15">
   <path d="M 409.4625 180.373344
L 423.8625 180.373344
L 423.8625 165.973344
L 409.4625 165.973344
z
" clip-path="url(#p4fb2c43805)" style="fill: #ffffff"/>
  </g>
  <g id="line2d_59">
   <path d="M 409.4625 173.173344
L 423.8625 173.173344
" clip-path="url(#p4fb2c43805)" style="fill: none; stroke: #ff655d; stroke-width: 1.240718"/>
  </g>
  <g id="line2d_60">
   <path d="M 416.6625 173.173344
" clip-path="url(#p4fb2c43805)" style="fill: none; stroke: #1f77b4; stroke-width: 1.5; stroke-linecap: square"/>
   <defs>
    <path id="m25081dcf4e" d="M 0 2.126945
C 0.564072 2.126945 1.105118 1.902836 1.503977 1.503977
C 1.902836 1.105118 2.126945 0.564072 2.126945 0
C 2.126945 -0.564072 1.902836 -1.105118 1.503977 -1.503977
C 1.105118 -1.902836 0.564072 -2.126945 0 -2.126945
C -0.564072 -2.126945 -1.105118 -1.902836 -1.503977 -1.503977
C -1.902836 -1.105118 -2.126945 -0.564072 -2.126945 0
C -2.126945 0.564072 -1.902836 1.105118 -1.503977 1.503977
C -1.105118 1.902836 -0.564072 2.126945 0 2.126945
z
" style="stroke: #ff655d; stroke-width: 0.886227"/>
   </defs>
   <g clip-path="url(#p4fb2c43805)">
    <use xlink:href="#m25081dcf4e" x="416.6625" y="173.173344" style="fill: #ff655d; stroke: #ff655d; stroke-width: 0.886227"/>
   </g>
  </g>
  <g id="text_29">
   <!-- Plecoglossus Altivelis -->
   <g transform="translate(427.3185 175.380844) scale(0.08 -0.08)">
    <defs>
     <path id="DejaVuSans-50" d="M 1259 4147
L 1259 2394
L 2053 2394
Q 2494 2394 2734 2622
Q 2975 2850 2975 3272
Q 2975 3691 2734 3919
Q 2494 4147 2053 4147
L 1259 4147
z
M 628 4666
L 2053 4666
Q 2838 4666 3239 4311
Q 3641 3956 3641 3272
Q 3641 2581 3239 2228
Q 2838 1875 2053 1875
L 1259 1875
L 1259 0
L 628 0
L 628 4666
z
" transform="scale(0.015625)"/>
     <path id="DejaVuSans-41" d="M 2188 4044
L 1331 1722
L 3047 1722
L 2188 4044
z
M 1831 4666
L 2547 4666
L 4325 0
L 3669 0
L 3244 1197
L 1141 1197
L 716 0
L 50 0
L 1831 4666
z
" transform="scale(0.015625)"/>
     <path id="DejaVuSans-76" d="M 191 3500
L 800 3500
L 1894 563
L 2988 3500
L 3597 3500
L 2284 0
L 1503 0
L 191 3500
z
" transform="scale(0.015625)"/>
    </defs>
    <use xlink:href="#DejaVuSans-50"/>
    <use xlink:href="#DejaVuSans-6c" transform="translate(60.302734 0)"/>
    <use xlink:href="#DejaVuSans-65" transform="translate(88.085938 0)"/>
    <use xlink:href="#DejaVuSans-63" transform="translate(149.609375 0)"/>
    <use xlink:href="#DejaVuSans-6f" transform="translate(204.589844 0)"/>
    <use xlink:href="#DejaVuSans-67" transform="translate(265.771484 0)"/>
    <use xlink:href="#DejaVuSans-6c" transform="translate(329.248047 0)"/>
    <use xlink:href="#DejaVuSans-6f" transform="translate(357.03125 0)"/>
    <use xlink:href="#DejaVuSans-73" transform="translate(418.212891 0)"/>
    <use xlink:href="#DejaVuSans-73" transform="translate(470.3125 0)"/>
    <use xlink:href="#DejaVuSans-75" transform="translate(522.412109 0)"/>
    <use xlink:href="#DejaVuSans-73" transform="translate(585.791016 0)"/>
    <use xlink:href="#DejaVuSans-20" transform="translate(637.890625 0)"/>
    <use xlink:href="#DejaVuSans-41" transform="translate(669.677734 0)"/>
    <use xlink:href="#DejaVuSans-6c" transform="translate(738.085938 0)"/>
    <use xlink:href="#DejaVuSans-74" transform="translate(765.869141 0)"/>
    <use xlink:href="#DejaVuSans-69" transform="translate(805.078125 0)"/>
    <use xlink:href="#DejaVuSans-76" transform="translate(832.861328 0)"/>
    <use xlink:href="#DejaVuSans-65" transform="translate(892.041016 0)"/>
    <use xlink:href="#DejaVuSans-6c" transform="translate(953.564453 0)"/>
    <use xlink:href="#DejaVuSans-69" transform="translate(981.347656 0)"/>
    <use xlink:href="#DejaVuSans-73" transform="translate(1009.130859 0)"/>
   </g>
  </g>
  <g id="patch_16">
   <path d="M 409.4625 196.773344
L 423.8625 196.773344
L 423.8625 182.373344
L 409.4625 182.373344
z
" clip-path="url(#p3e5e56d366)" style="fill: #ffffff"/>
  </g>
  <g id="line2d_61">
   <path d="M 409.4625 189.573344
L 423.8625 189.573344
" clip-path="url(#p3e5e56d366)" style="fill: none; stroke: #d81b60; stroke-width: 1.240718"/>
  </g>
  <g id="line2d_62">
   <path d="M 416.6625 189.573344
" clip-path="url(#p3e5e56d366)" style="fill: none; stroke: #1f77b4; stroke-width: 1.5; stroke-linecap: square"/>
   <defs>
    <path id="ma053f22ff8" d="M 0 2.126945
C 0.564072 2.126945 1.105118 1.902836 1.503977 1.503977
C 1.902836 1.105118 2.126945 0.564072 2.126945 0
C 2.126945 -0.564072 1.902836 -1.105118 1.503977 -1.503977
C 1.105118 -1.902836 0.564072 -2.126945 0 -2.126945
C -0.564072 -2.126945 -1.105118 -1.902836 -1.503977 -1.503977
C -1.902836 -1.105118 -2.126945 -0.564072 -2.126945 0
C -2.126945 0.564072 -1.902836 1.105118 -1.503977 1.503977
C -1.105118 1.902836 -0.564072 2.126945 0 2.126945
z
" style="stroke: #d81b60; stroke-width: 0.886227"/>
   </defs>
   <g clip-path="url(#p3e5e56d366)">
    <use xlink:href="#ma053f22ff8" x="416.6625" y="189.573344" style="fill: #d81b60; stroke: #d81b60; stroke-width: 0.886227"/>
   </g>
  </g>
  <g id="text_30">
   <!-- Danio Albolineatus -->
   <g transform="translate(427.3185 191.780844) scale(0.08 -0.08)">
    <defs>
     <path id="DejaVuSans-44" d="M 1259 4147
L 1259 519
L 2022 519
Q 2988 519 3436 956
Q 3884 1394 3884 2338
Q 3884 3275 3436 3711
Q 2988 4147 2022 4147
L 1259 4147
z
M 628 4666
L 1925 4666
Q 3281 4666 3915 4102
Q 4550 3538 4550 2338
Q 4550 1131 3912 565
Q 3275 0 1925 0
L 628 0
L 628 4666
z
" transform="scale(0.015625)"/>
    </defs>
    <use xlink:href="#DejaVuSans-44"/>
    <use xlink:href="#DejaVuSans-61" transform="translate(77.001953 0)"/>
    <use xlink:href="#DejaVuSans-6e" transform="translate(138.28125 0)"/>
    <use xlink:href="#DejaVuSans-69" transform="translate(201.660156 0)"/>
    <use xlink:href="#DejaVuSans-6f" transform="translate(229.443359 0)"/>
    <use xlink:href="#DejaVuSans-20" transform="translate(290.625 0)"/>
    <use xlink:href="#DejaVuSans-41" transform="translate(322.412109 0)"/>
    <use xlink:href="#DejaVuSans-6c" transform="translate(390.820312 0)"/>
    <use xlink:href="#DejaVuSans-62" transform="translate(418.603516 0)"/>
    <use xlink:href="#DejaVuSans-6f" transform="translate(482.080078 0)"/>
    <use xlink:href="#DejaVuSans-6c" transform="translate(543.261719 0)"/>
    <use xlink:href="#DejaVuSans-69" transform="translate(571.044922 0)"/>
    <use xlink:href="#DejaVuSans-6e" transform="translate(598.828125 0)"/>
    <use xlink:href="#DejaVuSans-65" transform="translate(662.207031 0)"/>
    <use xlink:href="#DejaVuSans-61" transform="translate(723.730469 0)"/>
    <use xlink:href="#DejaVuSans-74" transform="translate(785.009766 0)"/>
    <use xlink:href="#DejaVuSans-75" transform="translate(824.21875 0)"/>
    <use xlink:href="#DejaVuSans-73" transform="translate(887.597656 0)"/>
   </g>
  </g>
 </g>
 <defs>
  <clipPath id="pd2b23d1000">
   <rect x="37.268625" y="20.669" width="104.942958" height="278.242375"/>
  </clipPath>
  <clipPath id="p01f0c57421">
   <rect x="162.618083" y="20.669" width="104.942958" height="278.242375"/>
  </clipPath>
  <clipPath id="p5596fef29a">
   <rect x="287.967542" y="20.669" width="104.942958" height="278.242375"/>
  </clipPath>
  <clipPath id="p93ebebd8b7">
   <path d="M 409.4625 147.573344
L 409.4625 133.173344
L 423.8625 133.173344
L 423.8625 147.573344
"/>
  </clipPath>
  <clipPath id="p51a52e3168">
   <path d="M 409.4625 163.973344
L 409.4625 149.573344
L 423.8625 149.573344
L 423.8625 163.973344
"/>
  </clipPath>
  <clipPath id="p4fb2c43805">
   <path d="M 409.4625 180.373344
L 409.4625 165.973344
L 423.8625 165.973344
L 423.8625 180.373344
"/>
  </clipPath>
  <clipPath id="p3e5e56d366">
   <path d="M 409.4625 196.773344
L 409.4625 182.373344
L 423.8625 182.373344
L 423.8625 196.773344
"/>
  </clipPath>
 </defs>
</svg>
