<?xml version="1.0" encoding="utf-8" standalone="no"?>
<!DOCTYPE svg PUBLIC "-//W3C//DTD SVG 1.1//EN"
  "http://www.w3.org/Graphics/SVG/1.1/DTD/svg11.dtd">
<svg xmlns:xlink="http://www.w3.org/1999/xlink" width="518.4pt" height="374.4pt" viewBox="0 0 518.4 374.4" xmlns="http://www.w3.org/2000/svg" version="1.1">
 <metadata>
  <rdf:RDF xmlns:dc="http://purl.org/dc/elements/1.1/" xmlns:cc="http://creativecommons.org/ns#" xmlns:rdf="http://www.w3.org/1999/02/22-rdf-syntax-ns#">
   <cc:Work>
    <dc:type rdf:resource="http://purl.org/dc/dcmitype/StillImage"/>
    <dc:date>2026-05-17T06:03:35.966656</dc:date>
    <dc:format>image/svg+xml</dc:format>
    <dc:creator>
     <cc:Agent>
      <dc:title>Matplotlib v3.10.9, https://matplotlib.org/</dc:title>
     </cc:Agent>
    </dc:creator>
   </cc:Work>
  </rdf:RDF>
 </metadata>
 <defs>
  <style type="text/css">*{stroke-linejoin: round; stroke-linecap: butt}</style>
 </defs>
 <g id="figure_1">
  <g id="patch_1">
   <path d="M 0 374.4
L 518.4 374.4
L 518.4 0
L 0 0
z
" style="fill: #ffffff"/>
  </g>
  <g id="patch_2">
   <path d="M 0 374.4
L 518.4 374.4
L 518.4 0
L 0 0
L 0 374.4
z
" style="fill: none; stroke: #ffffff; stroke-linejoin: miter"/>
  </g>
  <g id="axes_1">
   <g id="patch_3">
    <path d="M 53.134 342.111375
L 513.216 342.111375
L 513.216 5.184
L 53.134 5.184
z
" style="fill: #ffffff"/>
   </g>
   <g id="matplotlib.axis_1">
    <g id="xtick_1">
     <g id="line2d_1">
      <path d="M 88.372757 342.111375
L 88.372757 5.184
" clip-path="url(#p07f2122984)" style="fill: none; stroke: #e6e6e6; stroke-width: 0.35; stroke-linecap: square"/>
     </g>
     <g id="line2d_2">
      <path d="M 88.372757 342.111375
" style="fill: none; stroke: #333333; stroke-width: 1.5; stroke-linecap: square"/>
      <defs>
       <path id="m5d5986345a" d="M 0 0
L 0 2.5
" style="stroke: #333333"/>
      </defs>
      <g>
       <use xlink:href="#m5d5986345a" x="88.372757" y="342.111375" style="fill: #333333; stroke: #333333"/>
      </g>
     </g>
     <g id="text_1">
      <!-- 1 -->
      <g style="fill: #4d4d4d" transform="translate(85.827757 352.690125) scale(0.08 -0.08)">
       <defs>
        <path id="DejaVuSans-31" d="M 794 531
L 1825 531
L 1825 4091
L 703 3866
L 703 4441
L 1819 4666
L 2450 4666
L 2450 531
L 3481 531
L 3481 0
L 794 0
L 794 531
z
" transform="scale(0.015625)"/>
       </defs>
       <use xlink:href="#DejaVuSans-31"/>
      </g>
     </g>
    </g>
    <g id="xtick_2">
     <g id="line2d_3">
      <path d="M 210.333704 342.111375
L 210.333704 5.184
" clip-path="url(#p07f2122984)" style="fill: none; stroke: #e6e6e6; stroke-width: 0.35; stroke-linecap: square"/>
     </g>
     <g id="line2d_4">
      <path d="M 210.333704 342.111375
" style="fill: none; stroke: #333333; stroke-width: 1.5; stroke-linecap: square"/>
      <g>
       <use xlink:href="#m5d5986345a" x="210.333704" y="342.111375" style="fill: #333333; stroke: #333333"/>
      </g>
     </g>
     <g id="text_2">
      <!-- 3 -->
      <g style="fill: #4d4d4d" transform="translate(207.788704 352.690125) scale(0.08 -0.08)">
       <defs>
        <path id="DejaVuSans-33" d="M 2597 2516
Q 3050 2419 3304 2112
Q 3559 1806 3559 1356
Q 3559 666 3084 287
Q 2609 -91 1734 -91
Q 1441 -91 1130 -33
Q 819 25 488 141
L 488 750
Q 750 597 1062 519
Q 1375 441 1716 441
Q 2309 441 2620 675
Q 2931 909 2931 1356
Q 2931 1769 2642 2001
Q 2353 2234 1838 2234
L 1294 2234
L 1294 2753
L 1863 2753
Q 2328 2753 2575 2939
Q 2822 3125 2822 3475
Q 2822 3834 2567 4026
Q 2313 4219 1838 4219
Q 1578 4219 1281 4162
Q 984 4106 628 3988
L 628 4550
Q 988 4650 1302 4700
Q 1616 4750 1894 4750
Q 2613 4750 3031 4423
Q 3450 4097 3450 3541
Q 3450 3153 3228 2886
Q 3006 2619 2597 2516
z
" transform="scale(0.015625)"/>
       </defs>
       <use xlink:href="#DejaVuSans-33"/>
      </g>
     </g>
    </g>
    <g id="xtick_3">
     <g id="line2d_5">
      <path d="M 343.991106 342.111375
L 343.991106 5.184
" clip-path="url(#p07f2122984)" style="fill: none; stroke: #e6e6e6; stroke-width: 0.35; stroke-linecap: square"/>
     </g>
     <g id="line2d_6">
      <path d="M 343.991106 342.111375
" style="fill: none; stroke: #333333; stroke-width: 1.5; stroke-linecap: square"/>
      <g>
       <use xlink:href="#m5d5986345a" x="343.991106" y="342.111375" style="fill: #333333; stroke: #333333"/>
      </g>
     </g>
     <g id="text_3">
      <!-- 10 -->
      <g style="fill: #4d4d4d" transform="translate(338.901106 352.690125) scale(0.08 -0.08)">
       <defs>
        <path id="DejaVuSans-30" d="M 2034 4250
Q 1547 4250 1301 3770
Q 1056 3291 1056 2328
Q 1056 1369 1301 889
Q 1547 409 2034 409
Q 2525 409 2770 889
Q 3016 1369 3016 2328
Q 3016 3291 2770 3770
Q 2525 4250 2034 4250
z
M 2034 4750
Q 2819 4750 3233 4129
Q 3647 3509 3647 2328
Q 3647 1150 3233 529
Q 2819 -91 2034 -91
Q 1250 -91 836 529
Q 422 1150 422 2328
Q 422 3509 836 4129
Q 1250 4750 2034 4750
z
" transform="scale(0.015625)"/>
       </defs>
       <use xlink:href="#DejaVuSans-31"/>
       <use xlink:href="#DejaVuSans-30" transform="translate(63.623047 0)"/>
      </g>
     </g>
    </g>
    <g id="xtick_4">
     <g id="line2d_7">
      <path d="M 465.952053 342.111375
L 465.952053 5.184
" clip-path="url(#p07f2122984)" style="fill: none; stroke: #e6e6e6; stroke-width: 0.35; stroke-linecap: square"/>
     </g>
     <g id="line2d_8">
      <path d="M 465.952053 342.111375
" style="fill: none; stroke: #333333; stroke-width: 1.5; stroke-linecap: square"/>
      <g>
       <use xlink:href="#m5d5986345a" x="465.952053" y="342.111375" style="fill: #333333; stroke: #333333"/>
      </g>
     </g>
     <g id="text_4">
      <!-- 30 -->
      <g style="fill: #4d4d4d" transform="translate(460.862053 352.690125) scale(0.08 -0.08)">
       <use xlink:href="#DejaVuSans-33"/>
       <use xlink:href="#DejaVuSans-30" transform="translate(63.623047 0)"/>
      </g>
     </g>
    </g>
    <g id="xtick_5"/>
    <g id="xtick_6"/>
    <g id="xtick_7"/>
    <g id="xtick_8"/>
    <g id="xtick_9"/>
    <g id="xtick_10"/>
    <g id="xtick_11"/>
    <g id="xtick_12"/>
    <g id="xtick_13"/>
    <g id="xtick_14"/>
    <g id="xtick_15"/>
    <g id="xtick_16"/>
    <g id="xtick_17"/>
    <g id="xtick_18"/>
    <g id="xtick_19"/>
    <g id="xtick_20"/>
    <g id="xtick_21"/>
    <g id="xtick_22"/>
    <g id="xtick_23"/>
    <g id="xtick_24"/>
    <g id="xtick_25"/>
    <g id="xtick_26"/>
    <g id="xtick_27"/>
    <g id="xtick_28"/>
    <g id="xtick_29"/>
    <g id="xtick_30"/>
    <g id="xtick_31"/>
    <g id="xtick_32"/>
    <g id="xtick_33"/>
   </g>
   <g id="matplotlib.axis_2">
    <g id="ytick_1">
     <g id="line2d_9">
      <path d="M 53.134 326.796494
L 513.216 326.796494
" clip-path="url(#p07f2122984)" style="fill: none; stroke: #e6e6e6; stroke-width: 0.35; stroke-linecap: square"/>
     </g>
     <g id="line2d_10">
      <path d="M 53.134 326.796494
" style="fill: none; stroke: #333333; stroke-width: 1.5; stroke-linecap: square"/>
      <defs>
       <path id="m08da335c79" d="M 0 0
L -2.5 0
" style="stroke: #333333"/>
      </defs>
      <g>
       <use xlink:href="#m08da335c79" x="53.134" y="326.796494" style="fill: #333333; stroke: #333333"/>
      </g>
     </g>
     <g id="text_5">
      <!-- process d1 -->
      <g style="fill: #4d4d4d" transform="translate(5.184 329.835869) scale(0.08 -0.08)">
       <defs>
        <path id="DejaVuSans-70" d="M 1159 525
L 1159 -1331
L 581 -1331
L 581 3500
L 1159 3500
L 1159 2969
Q 1341 3281 1617 3432
Q 1894 3584 2278 3584
Q 2916 3584 3314 3078
Q 3713 2572 3713 1747
Q 3713 922 3314 415
Q 2916 -91 2278 -91
Q 1894 -91 1617 61
Q 1341 213 1159 525
z
M 3116 1747
Q 3116 2381 2855 2742
Q 2594 3103 2138 3103
Q 1681 3103 1420 2742
Q 1159 2381 1159 1747
Q 1159 1113 1420 752
Q 1681 391 2138 391
Q 2594 391 2855 752
Q 3116 1113 3116 1747
z
" transform="scale(0.015625)"/>
        <path id="DejaVuSans-72" d="M 2631 2963
Q 2534 3019 2420 3045
Q 2306 3072 2169 3072
Q 1681 3072 1420 2755
Q 1159 2438 1159 1844
L 1159 0
L 581 0
L 581 3500
L 1159 3500
L 1159 2956
Q 1341 3275 1631 3429
Q 1922 3584 2338 3584
Q 2397 3584 2469 3576
Q 2541 3569 2628 3553
L 2631 2963
z
" transform="scale(0.015625)"/>
        <path id="DejaVuSans-6f" d="M 1959 3097
Q 1497 3097 1228 2736
Q 959 2375 959 1747
Q 959 1119 1226 758
Q 1494 397 1959 397
Q 2419 397 2687 759
Q 2956 1122 2956 1747
Q 2956 2369 2687 2733
Q 2419 3097 1959 3097
z
M 1959 3584
Q 2709 3584 3137 3096
Q 3566 2609 3566 1747
Q 3566 888 3137 398
Q 2709 -91 1959 -91
Q 1206 -91 779 398
Q 353 888 353 1747
Q 353 2609 779 3096
Q 1206 3584 1959 3584
z
" transform="scale(0.015625)"/>
        <path id="DejaVuSans-63" d="M 3122 3366
L 3122 2828
Q 2878 2963 2633 3030
Q 2388 3097 2138 3097
Q 1578 3097 1268 2742
Q 959 2388 959 1747
Q 959 1106 1268 751
Q 1578 397 2138 397
Q 2388 397 2633 464
Q 2878 531 3122 666
L 3122 134
Q 2881 22 2623 -34
Q 2366 -91 2075 -91
Q 1284 -91 818 406
Q 353 903 353 1747
Q 353 2603 823 3093
Q 1294 3584 2113 3584
Q 2378 3584 2631 3529
Q 2884 3475 3122 3366
z
" transform="scale(0.015625)"/>
        <path id="DejaVuSans-65" d="M 3597 1894
L 3597 1613
L 953 1613
Q 991 1019 1311 708
Q 1631 397 2203 397
Q 2534 397 2845 478
Q 3156 559 3463 722
L 3463 178
Q 3153 47 2828 -22
Q 2503 -91 2169 -91
Q 1331 -91 842 396
Q 353 884 353 1716
Q 353 2575 817 3079
Q 1281 3584 2069 3584
Q 2775 3584 3186 3129
Q 3597 2675 3597 1894
z
M 3022 2063
Q 3016 2534 2758 2815
Q 2500 3097 2075 3097
Q 1594 3097 1305 2825
Q 1016 2553 972 2059
L 3022 2063
z
" transform="scale(0.015625)"/>
        <path id="DejaVuSans-73" d="M 2834 3397
L 2834 2853
Q 2591 2978 2328 3040
Q 2066 3103 1784 3103
Q 1356 3103 1142 2972
Q 928 2841 928 2578
Q 928 2378 1081 2264
Q 1234 2150 1697 2047
L 1894 2003
Q 2506 1872 2764 1633
Q 3022 1394 3022 966
Q 3022 478 2636 193
Q 2250 -91 1575 -91
Q 1294 -91 989 -36
Q 684 19 347 128
L 347 722
Q 666 556 975 473
Q 1284 391 1588 391
Q 1994 391 2212 530
Q 2431 669 2431 922
Q 2431 1156 2273 1281
Q 2116 1406 1581 1522
L 1381 1569
Q 847 1681 609 1914
Q 372 2147 372 2553
Q 372 3047 722 3315
Q 1072 3584 1716 3584
Q 2034 3584 2315 3537
Q 2597 3491 2834 3397
z
" transform="scale(0.015625)"/>
        <path id="DejaVuSans-20" transform="scale(0.015625)"/>
        <path id="DejaVuSans-64" d="M 2906 2969
L 2906 4863
L 3481 4863
L 3481 0
L 2906 0
L 2906 525
Q 2725 213 2448 61
Q 2172 -91 1784 -91
Q 1150 -91 751 415
Q 353 922 353 1747
Q 353 2572 751 3078
Q 1150 3584 1784 3584
Q 2172 3584 2448 3432
Q 2725 3281 2906 2969
z
M 947 1747
Q 947 1113 1208 752
Q 1469 391 1925 391
Q 2381 391 2643 752
Q 2906 1113 2906 1747
Q 2906 2381 2643 2742
Q 2381 3103 1925 3103
Q 1469 3103 1208 2742
Q 947 2381 947 1747
z
" transform="scale(0.015625)"/>
       </defs>
       <use xlink:href="#DejaVuSans-70"/>
       <use xlink:href="#DejaVuSans-72" transform="translate(63.476562 0)"/>
       <use xlink:href="#DejaVuSans-6f" transform="translate(102.339844 0)"/>
       <use xlink:href="#DejaVuSans-63" transform="translate(163.521484 0)"/>
       <use xlink:href="#DejaVuSans-65" transform="translate(218.501953 0)"/>
       <use xlink:href="#DejaVuSans-73" transform="translate(280.025391 0)"/>
       <use xlink:href="#DejaVuSans-73" transform="translate(332.125 0)"/>
       <use xlink:href="#DejaVuSans-20" transform="translate(384.224609 0)"/>
       <use xlink:href="#DejaVuSans-64" transform="translate(416.011719 0)"/>
       <use xlink:href="#DejaVuSans-31" transform="translate(479.488281 0)"/>
      </g>
     </g>
    </g>
    <g id="ytick_2">
     <g id="line2d_11">
      <path d="M 53.134 301.271693
L 513.216 301.271693
" clip-path="url(#p07f2122984)" style="fill: none; stroke: #e6e6e6; stroke-width: 0.35; stroke-linecap: square"/>
     </g>
     <g id="line2d_12">
      <path d="M 53.134 301.271693
" style="fill: none; stroke: #333333; stroke-width: 1.5; stroke-linecap: square"/>
      <g>
       <use xlink:href="#m08da335c79" x="53.134" y="301.271693" style="fill: #333333; stroke: #333333"/>
      </g>
     </g>
     <g id="text_6">
      <!-- freq d1 -->
      <g style="fill: #4d4d4d" transform="translate(19.9965 304.311068) scale(0.08 -0.08)">
       <defs>
        <path id="DejaVuSans-66" d="M 2375 4863
L 2375 4384
L 1825 4384
Q 1516 4384 1395 4259
Q 1275 4134 1275 3809
L 1275 3500
L 2222 3500
L 2222 3053
L 1275 3053
L 1275 0
L 697 0
L 697 3053
L 147 3053
L 147 3500
L 697 3500
L 697 3744
Q 697 4328 969 4595
Q 1241 4863 1831 4863
L 2375 4863
z
" transform="scale(0.015625)"/>
        <path id="DejaVuSans-71" d="M 947 1747
Q 947 1113 1208 752
Q 1469 391 1925 391
Q 2381 391 2643 752
Q 2906 1113 2906 1747
Q 2906 2381 2643 2742
Q 2381 3103 1925 3103
Q 1469 3103 1208 2742
Q 947 2381 947 1747
z
M 2906 525
Q 2725 213 2448 61
Q 2172 -91 1784 -91
Q 1150 -91 751 415
Q 353 922 353 1747
Q 353 2572 751 3078
Q 1150 3584 1784 3584
Q 2172 3584 2448 3432
Q 2725 3281 2906 2969
L 2906 3500
L 3481 3500
L 3481 -1331
L 2906 -1331
L 2906 525
z
" transform="scale(0.015625)"/>
       </defs>
       <use xlink:href="#DejaVuSans-66"/>
       <use xlink:href="#DejaVuSans-72" transform="translate(35.205078 0)"/>
       <use xlink:href="#DejaVuSans-65" transform="translate(74.068359 0)"/>
       <use xlink:href="#DejaVuSans-71" transform="translate(135.591797 0)"/>
       <use xlink:href="#DejaVuSans-20" transform="translate(199.068359 0)"/>
       <use xlink:href="#DejaVuSans-64" transform="translate(230.855469 0)"/>
       <use xlink:href="#DejaVuSans-31" transform="translate(294.332031 0)"/>
      </g>
     </g>
    </g>
    <g id="ytick_3">
     <g id="line2d_13">
      <path d="M 53.134 275.746892
L 513.216 275.746892
" clip-path="url(#p07f2122984)" style="fill: none; stroke: #e6e6e6; stroke-width: 0.35; stroke-linecap: square"/>
     </g>
     <g id="line2d_14">
      <path d="M 53.134 275.746892
" style="fill: none; stroke: #333333; stroke-width: 1.5; stroke-linecap: square"/>
      <g>
       <use xlink:href="#m08da335c79" x="53.134" y="275.746892" style="fill: #333333; stroke: #333333"/>
      </g>
     </g>
     <g id="text_7">
      <!-- freq d2 -->
      <g style="fill: #4d4d4d" transform="translate(19.9965 278.786267) scale(0.08 -0.08)">
       <defs>
        <path id="DejaVuSans-32" d="M 1228 531
L 3431 531
L 3431 0
L 469 0
L 469 531
Q 828 903 1448 1529
Q 2069 2156 2228 2338
Q 2531 2678 2651 2914
Q 2772 3150 2772 3378
Q 2772 3750 2511 3984
Q 2250 4219 1831 4219
Q 1534 4219 1204 4116
Q 875 4013 500 3803
L 500 4441
Q 881 4594 1212 4672
Q 1544 4750 1819 4750
Q 2544 4750 2975 4387
Q 3406 4025 3406 3419
Q 3406 3131 3298 2873
Q 3191 2616 2906 2266
Q 2828 2175 2409 1742
Q 1991 1309 1228 531
z
" transform="scale(0.015625)"/>
       </defs>
       <use xlink:href="#DejaVuSans-66"/>
       <use xlink:href="#DejaVuSans-72" transform="translate(35.205078 0)"/>
       <use xlink:href="#DejaVuSans-65" transform="translate(74.068359 0)"/>
       <use xlink:href="#DejaVuSans-71" transform="translate(135.591797 0)"/>
       <use xlink:href="#DejaVuSans-20" transform="translate(199.068359 0)"/>
       <use xlink:href="#DejaVuSans-64" transform="translate(230.855469 0)"/>
       <use xlink:href="#DejaVuSans-32" transform="translate(294.332031 0)"/>
      </g>
     </g>
    </g>
    <g id="ytick_4">
     <g id="line2d_15">
      <path d="M 53.134 250.222091
L 513.216 250.222091
" clip-path="url(#p07f2122984)" style="fill: none; stroke: #e6e6e6; stroke-width: 0.35; stroke-linecap: square"/>
     </g>
     <g id="line2d_16">
      <path d="M 53.134 250.222091
" style="fill: none; stroke: #333333; stroke-width: 1.5; stroke-linecap: square"/>
      <g>
       <use xlink:href="#m08da335c79" x="53.134" y="250.222091" style="fill: #333333; stroke: #333333"/>
      </g>
     </g>
     <g id="text_8">
      <!-- freq d5 -->
      <g style="fill: #4d4d4d" transform="translate(19.9965 253.261466) scale(0.08 -0.08)">
       <defs>
        <path id="DejaVuSans-35" d="M 691 4666
L 3169 4666
L 3169 4134
L 1269 4134
L 1269 2991
Q 1406 3038 1543 3061
Q 1681 3084 1819 3084
Q 2600 3084 3056 2656
Q 3513 2228 3513 1497
Q 3513 744 3044 326
Q 2575 -91 1722 -91
Q 1428 -91 1123 -41
Q 819 9 494 109
L 494 744
Q 775 591 1075 516
Q 1375 441 1709 441
Q 2250 441 2565 725
Q 2881 1009 2881 1497
Q 2881 1984 2565 2268
Q 2250 2553 1709 2553
Q 1456 2553 1204 2497
Q 953 2441 691 2322
L 691 4666
z
" transform="scale(0.015625)"/>
       </defs>
       <use xlink:href="#DejaVuSans-66"/>
       <use xlink:href="#DejaVuSans-72" transform="translate(35.205078 0)"/>
       <use xlink:href="#DejaVuSans-65" transform="translate(74.068359 0)"/>
       <use xlink:href="#DejaVuSans-71" transform="translate(135.591797 0)"/>
       <use xlink:href="#DejaVuSans-20" transform="translate(199.068359 0)"/>
       <use xlink:href="#DejaVuSans-64" transform="translate(230.855469 0)"/>
       <use xlink:href="#DejaVuSans-35" transform="translate(294.332031 0)"/>
      </g>
     </g>
    </g>
    <g id="ytick_5">
     <g id="line2d_17">
      <path d="M 53.134 224.69729
L 513.216 224.69729
" clip-path="url(#p07f2122984)" style="fill: none; stroke: #e6e6e6; stroke-width: 0.35; stroke-linecap: square"/>
     </g>
     <g id="line2d_18">
      <path d="M 53.134 224.69729
" style="fill: none; stroke: #333333; stroke-width: 1.5; stroke-linecap: square"/>
      <g>
       <use xlink:href="#m08da335c79" x="53.134" y="224.69729" style="fill: #333333; stroke: #333333"/>
      </g>
     </g>
     <g id="text_9">
      <!-- freq d10 -->
      <g style="fill: #4d4d4d" transform="translate(14.9065 227.736665) scale(0.08 -0.08)">
       <use xlink:href="#DejaVuSans-66"/>
       <use xlink:href="#DejaVuSans-72" transform="translate(35.205078 0)"/>
       <use xlink:href="#DejaVuSans-65" transform="translate(74.068359 0)"/>
       <use xlink:href="#DejaVuSans-71" transform="translate(135.591797 0)"/>
       <use xlink:href="#DejaVuSans-20" transform="translate(199.068359 0)"/>
       <use xlink:href="#DejaVuSans-64" transform="translate(230.855469 0)"/>
       <use xlink:href="#DejaVuSans-31" transform="translate(294.332031 0)"/>
       <use xlink:href="#DejaVuSans-30" transform="translate(357.955078 0)"/>
      </g>
     </g>
    </g>
    <g id="ytick_6">
     <g id="line2d_19">
      <path d="M 53.134 199.172489
L 513.216 199.172489
" clip-path="url(#p07f2122984)" style="fill: none; stroke: #e6e6e6; stroke-width: 0.35; stroke-linecap: square"/>
     </g>
     <g id="line2d_20">
      <path d="M 53.134 199.172489
" style="fill: none; stroke: #333333; stroke-width: 1.5; stroke-linecap: square"/>
      <g>
       <use xlink:href="#m08da335c79" x="53.134" y="199.172489" style="fill: #333333; stroke: #333333"/>
      </g>
     </g>
     <g id="text_10">
      <!-- distrib d1 -->
      <g style="fill: #4d4d4d" transform="translate(10.72775 202.211864) scale(0.08 -0.08)">
       <defs>
        <path id="DejaVuSans-69" d="M 603 3500
L 1178 3500
L 1178 0
L 603 0
L 603 3500
z
M 603 4863
L 1178 4863
L 1178 4134
L 603 4134
L 603 4863
z
" transform="scale(0.015625)"/>
        <path id="DejaVuSans-74" d="M 1172 4494
L 1172 3500
L 2356 3500
L 2356 3053
L 1172 3053
L 1172 1153
Q 1172 725 1289 603
Q 1406 481 1766 481
L 2356 481
L 2356 0
L 1766 0
Q 1100 0 847 248
Q 594 497 594 1153
L 594 3053
L 172 3053
L 172 3500
L 594 3500
L 594 4494
L 1172 4494
z
" transform="scale(0.015625)"/>
        <path id="DejaVuSans-62" d="M 3116 1747
Q 3116 2381 2855 2742
Q 2594 3103 2138 3103
Q 1681 3103 1420 2742
Q 1159 2381 1159 1747
Q 1159 1113 1420 752
Q 1681 391 2138 391
Q 2594 391 2855 752
Q 3116 1113 3116 1747
z
M 1159 2969
Q 1341 3281 1617 3432
Q 1894 3584 2278 3584
Q 2916 3584 3314 3078
Q 3713 2572 3713 1747
Q 3713 922 3314 415
Q 2916 -91 2278 -91
Q 1894 -91 1617 61
Q 1341 213 1159 525
L 1159 0
L 581 0
L 581 4863
L 1159 4863
L 1159 2969
z
" transform="scale(0.015625)"/>
       </defs>
       <use xlink:href="#DejaVuSans-64"/>
       <use xlink:href="#DejaVuSans-69" transform="translate(63.476562 0)"/>
       <use xlink:href="#DejaVuSans-73" transform="translate(91.259766 0)"/>
       <use xlink:href="#DejaVuSans-74" transform="translate(143.359375 0)"/>
       <use xlink:href="#DejaVuSans-72" transform="translate(182.568359 0)"/>
       <use xlink:href="#DejaVuSans-69" transform="translate(223.681641 0)"/>
       <use xlink:href="#DejaVuSans-62" transform="translate(251.464844 0)"/>
       <use xlink:href="#DejaVuSans-20" transform="translate(314.941406 0)"/>
       <use xlink:href="#DejaVuSans-64" transform="translate(346.728516 0)"/>
       <use xlink:href="#DejaVuSans-31" transform="translate(410.205078 0)"/>
      </g>
     </g>
    </g>
    <g id="ytick_7">
     <g id="line2d_21">
      <path d="M 53.134 173.647688
L 513.216 173.647688
" clip-path="url(#p07f2122984)" style="fill: none; stroke: #e6e6e6; stroke-width: 0.35; stroke-linecap: square"/>
     </g>
     <g id="line2d_22">
      <path d="M 53.134 173.647688
" style="fill: none; stroke: #333333; stroke-width: 1.5; stroke-linecap: square"/>
      <g>
       <use xlink:href="#m08da335c79" x="53.134" y="173.647688" style="fill: #333333; stroke: #333333"/>
      </g>
     </g>
     <g id="text_11">
      <!-- distrib d2 -->
      <g style="fill: #4d4d4d" transform="translate(10.72775 176.687063) scale(0.08 -0.08)">
       <use xlink:href="#DejaVuSans-64"/>
       <use xlink:href="#DejaVuSans-69" transform="translate(63.476562 0)"/>
       <use xlink:href="#DejaVuSans-73" transform="translate(91.259766 0)"/>
       <use xlink:href="#DejaVuSans-74" transform="translate(143.359375 0)"/>
       <use xlink:href="#DejaVuSans-72" transform="translate(182.568359 0)"/>
       <use xlink:href="#DejaVuSans-69" transform="translate(223.681641 0)"/>
       <use xlink:href="#DejaVuSans-62" transform="translate(251.464844 0)"/>
       <use xlink:href="#DejaVuSans-20" transform="translate(314.941406 0)"/>
       <use xlink:href="#DejaVuSans-64" transform="translate(346.728516 0)"/>
       <use xlink:href="#DejaVuSans-32" transform="translate(410.205078 0)"/>
      </g>
     </g>
    </g>
    <g id="ytick_8">
     <g id="line2d_23">
      <path d="M 53.134 148.122886
L 513.216 148.122886
" clip-path="url(#p07f2122984)" style="fill: none; stroke: #e6e6e6; stroke-width: 0.35; stroke-linecap: square"/>
     </g>
     <g id="line2d_24">
      <path d="M 53.134 148.122886
" style="fill: none; stroke: #333333; stroke-width: 1.5; stroke-linecap: square"/>
      <g>
       <use xlink:href="#m08da335c79" x="53.134" y="148.122886" style="fill: #333333; stroke: #333333"/>
      </g>
     </g>
     <g id="text_12">
      <!-- distrib d5 -->
      <g style="fill: #4d4d4d" transform="translate(10.72775 151.162261) scale(0.08 -0.08)">
       <use xlink:href="#DejaVuSans-64"/>
       <use xlink:href="#DejaVuSans-69" transform="translate(63.476562 0)"/>
       <use xlink:href="#DejaVuSans-73" transform="translate(91.259766 0)"/>
       <use xlink:href="#DejaVuSans-74" transform="translate(143.359375 0)"/>
       <use xlink:href="#DejaVuSans-72" transform="translate(182.568359 0)"/>
       <use xlink:href="#DejaVuSans-69" transform="translate(223.681641 0)"/>
       <use xlink:href="#DejaVuSans-62" transform="translate(251.464844 0)"/>
       <use xlink:href="#DejaVuSans-20" transform="translate(314.941406 0)"/>
       <use xlink:href="#DejaVuSans-64" transform="translate(346.728516 0)"/>
       <use xlink:href="#DejaVuSans-35" transform="translate(410.205078 0)"/>
      </g>
     </g>
    </g>
    <g id="ytick_9">
     <g id="line2d_25">
      <path d="M 53.134 122.598085
L 513.216 122.598085
" clip-path="url(#p07f2122984)" style="fill: none; stroke: #e6e6e6; stroke-width: 0.35; stroke-linecap: square"/>
     </g>
     <g id="line2d_26">
      <path d="M 53.134 122.598085
" style="fill: none; stroke: #333333; stroke-width: 1.5; stroke-linecap: square"/>
      <g>
       <use xlink:href="#m08da335c79" x="53.134" y="122.598085" style="fill: #333333; stroke: #333333"/>
      </g>
     </g>
     <g id="text_13">
      <!-- distrib d10 -->
      <g style="fill: #4d4d4d" transform="translate(5.63775 125.63746) scale(0.08 -0.08)">
       <use xlink:href="#DejaVuSans-64"/>
       <use xlink:href="#DejaVuSans-69" transform="translate(63.476562 0)"/>
       <use xlink:href="#DejaVuSans-73" transform="translate(91.259766 0)"/>
       <use xlink:href="#DejaVuSans-74" transform="translate(143.359375 0)"/>
       <use xlink:href="#DejaVuSans-72" transform="translate(182.568359 0)"/>
       <use xlink:href="#DejaVuSans-69" transform="translate(223.681641 0)"/>
       <use xlink:href="#DejaVuSans-62" transform="translate(251.464844 0)"/>
       <use xlink:href="#DejaVuSans-20" transform="translate(314.941406 0)"/>
       <use xlink:href="#DejaVuSans-64" transform="translate(346.728516 0)"/>
       <use xlink:href="#DejaVuSans-31" transform="translate(410.205078 0)"/>
       <use xlink:href="#DejaVuSans-30" transform="translate(473.828125 0)"/>
      </g>
     </g>
    </g>
    <g id="ytick_10">
     <g id="line2d_27">
      <path d="M 53.134 97.073284
L 513.216 97.073284
" clip-path="url(#p07f2122984)" style="fill: none; stroke: #e6e6e6; stroke-width: 0.35; stroke-linecap: square"/>
     </g>
     <g id="line2d_28">
      <path d="M 53.134 97.073284
" style="fill: none; stroke: #333333; stroke-width: 1.5; stroke-linecap: square"/>
      <g>
       <use xlink:href="#m08da335c79" x="53.134" y="97.073284" style="fill: #333333; stroke: #333333"/>
      </g>
     </g>
     <g id="text_14">
      <!-- signif d1 -->
      <g style="fill: #4d4d4d" transform="translate(14.34525 100.112659) scale(0.08 -0.08)">
       <defs>
        <path id="DejaVuSans-67" d="M 2906 1791
Q 2906 2416 2648 2759
Q 2391 3103 1925 3103
Q 1463 3103 1205 2759
Q 947 2416 947 1791
Q 947 1169 1205 825
Q 1463 481 1925 481
Q 2391 481 2648 825
Q 2906 1169 2906 1791
z
M 3481 434
Q 3481 -459 3084 -895
Q 2688 -1331 1869 -1331
Q 1566 -1331 1297 -1286
Q 1028 -1241 775 -1147
L 775 -588
Q 1028 -725 1275 -790
Q 1522 -856 1778 -856
Q 2344 -856 2625 -561
Q 2906 -266 2906 331
L 2906 616
Q 2728 306 2450 153
Q 2172 0 1784 0
Q 1141 0 747 490
Q 353 981 353 1791
Q 353 2603 747 3093
Q 1141 3584 1784 3584
Q 2172 3584 2450 3431
Q 2728 3278 2906 2969
L 2906 3500
L 3481 3500
L 3481 434
z
" transform="scale(0.015625)"/>
        <path id="DejaVuSans-6e" d="M 3513 2113
L 3513 0
L 2938 0
L 2938 2094
Q 2938 2591 2744 2837
Q 2550 3084 2163 3084
Q 1697 3084 1428 2787
Q 1159 2491 1159 1978
L 1159 0
L 581 0
L 581 3500
L 1159 3500
L 1159 2956
Q 1366 3272 1645 3428
Q 1925 3584 2291 3584
Q 2894 3584 3203 3211
Q 3513 2838 3513 2113
z
" transform="scale(0.015625)"/>
       </defs>
       <use xlink:href="#DejaVuSans-73"/>
       <use xlink:href="#DejaVuSans-69" transform="translate(52.099609 0)"/>
       <use xlink:href="#DejaVuSans-67" transform="translate(79.882812 0)"/>
       <use xlink:href="#DejaVuSans-6e" transform="translate(143.359375 0)"/>
       <use xlink:href="#DejaVuSans-69" transform="translate(206.738281 0)"/>
       <use xlink:href="#DejaVuSans-66" transform="translate(234.521484 0)"/>
       <use xlink:href="#DejaVuSans-20" transform="translate(269.726562 0)"/>
       <use xlink:href="#DejaVuSans-64" transform="translate(301.513672 0)"/>
       <use xlink:href="#DejaVuSans-31" transform="translate(364.990234 0)"/>
      </g>
     </g>
    </g>
    <g id="ytick_11">
     <g id="line2d_29">
      <path d="M 53.134 71.548483
L 513.216 71.548483
" clip-path="url(#p07f2122984)" style="fill: none; stroke: #e6e6e6; stroke-width: 0.35; stroke-linecap: square"/>
     </g>
     <g id="line2d_30">
      <path d="M 53.134 71.548483
" style="fill: none; stroke: #333333; stroke-width: 1.5; stroke-linecap: square"/>
      <g>
       <use xlink:href="#m08da335c79" x="53.134" y="71.548483" style="fill: #333333; stroke: #333333"/>
      </g>
     </g>
     <g id="text_15">
      <!-- signif d2 -->
      <g style="fill: #4d4d4d" transform="translate(14.34525 74.587858) scale(0.08 -0.08)">
       <use xlink:href="#DejaVuSans-73"/>
       <use xlink:href="#DejaVuSans-69" transform="translate(52.099609 0)"/>
       <use xlink:href="#DejaVuSans-67" transform="translate(79.882812 0)"/>
       <use xlink:href="#DejaVuSans-6e" transform="translate(143.359375 0)"/>
       <use xlink:href="#DejaVuSans-69" transform="translate(206.738281 0)"/>
       <use xlink:href="#DejaVuSans-66" transform="translate(234.521484 0)"/>
       <use xlink:href="#DejaVuSans-20" transform="translate(269.726562 0)"/>
       <use xlink:href="#DejaVuSans-64" transform="translate(301.513672 0)"/>
       <use xlink:href="#DejaVuSans-32" transform="translate(364.990234 0)"/>
      </g>
     </g>
    </g>
    <g id="ytick_12">
     <g id="line2d_31">
      <path d="M 53.134 46.023682
L 513.216 46.023682
" clip-path="url(#p07f2122984)" style="fill: none; stroke: #e6e6e6; stroke-width: 0.35; stroke-linecap: square"/>
     </g>
     <g id="line2d_32">
      <path d="M 53.134 46.023682
" style="fill: none; stroke: #333333; stroke-width: 1.5; stroke-linecap: square"/>
      <g>
       <use xlink:href="#m08da335c79" x="53.134" y="46.023682" style="fill: #333333; stroke: #333333"/>
      </g>
     </g>
     <g id="text_16">
      <!-- signif d5 -->
      <g style="fill: #4d4d4d" transform="translate(14.34525 49.063057) scale(0.08 -0.08)">
       <use xlink:href="#DejaVuSans-73"/>
       <use xlink:href="#DejaVuSans-69" transform="translate(52.099609 0)"/>
       <use xlink:href="#DejaVuSans-67" transform="translate(79.882812 0)"/>
       <use xlink:href="#DejaVuSans-6e" transform="translate(143.359375 0)"/>
       <use xlink:href="#DejaVuSans-69" transform="translate(206.738281 0)"/>
       <use xlink:href="#DejaVuSans-66" transform="translate(234.521484 0)"/>
       <use xlink:href="#DejaVuSans-20" transform="translate(269.726562 0)"/>
       <use xlink:href="#DejaVuSans-64" transform="translate(301.513672 0)"/>
       <use xlink:href="#DejaVuSans-35" transform="translate(364.990234 0)"/>
      </g>
     </g>
    </g>
    <g id="ytick_13">
     <g id="line2d_33">
      <path d="M 53.134 20.498881
L 513.216 20.498881
" clip-path="url(#p07f2122984)" style="fill: none; stroke: #e6e6e6; stroke-width: 0.35; stroke-linecap: square"/>
     </g>
     <g id="line2d_34">
      <path d="M 53.134 20.498881
" style="fill: none; stroke: #333333; stroke-width: 1.5; stroke-linecap: square"/>
      <g>
       <use xlink:href="#m08da335c79" x="53.134" y="20.498881" style="fill: #333333; stroke: #333333"/>
      </g>
     </g>
     <g id="text_17">
      <!-- signif d10 -->
      <g style="fill: #4d4d4d" transform="translate(9.25525 23.538256) scale(0.08 -0.08)">
       <use xlink:href="#DejaVuSans-73"/>
       <use xlink:href="#DejaVuSans-69" transform="translate(52.099609 0)"/>
       <use xlink:href="#DejaVuSans-67" transform="translate(79.882812 0)"/>
       <use xlink:href="#DejaVuSans-6e" transform="translate(143.359375 0)"/>
       <use xlink:href="#DejaVuSans-69" transform="translate(206.738281 0)"/>
       <use xlink:href="#DejaVuSans-66" transform="translate(234.521484 0)"/>
       <use xlink:href="#DejaVuSans-20" transform="translate(269.726562 0)"/>
       <use xlink:href="#DejaVuSans-64" transform="translate(301.513672 0)"/>
       <use xlink:href="#DejaVuSans-31" transform="translate(364.990234 0)"/>
       <use xlink:href="#DejaVuSans-30" transform="translate(428.613281 0)"/>
      </g>
     </g>
    </g>
   </g>
   <g id="LineCollection_1">
    <path d="M 146.42157 326.796494
L 206.705967 326.796494
" clip-path="url(#p07f2122984)" style="fill: none; stroke: #004d40; stroke-width: 2.215567"/>
   </g>
   <g id="LineCollection_2">
    <path d="M 430.200543 301.271693
L 492.303182 301.271693
" clip-path="url(#p07f2122984)" style="fill: none; stroke: #004d40; stroke-width: 2.215567"/>
   </g>
   <g id="LineCollection_3">
    <path d="M 409.520503 275.746892
L 480.487971 275.746892
" clip-path="url(#p07f2122984)" style="fill: none; stroke: #004d40; stroke-width: 2.215567"/>
   </g>
   <g id="LineCollection_4">
    <path d="M 411.012793 250.222091
L 478.762087 250.222091
" clip-path="url(#p07f2122984)" style="fill: none; stroke: #004d40; stroke-width: 2.215567"/>
   </g>
   <g id="LineCollection_5">
    <path d="M 412.403115 224.69729
L 481.545887 224.69729
" clip-path="url(#p07f2122984)" style="fill: none; stroke: #004d40; stroke-width: 2.215567"/>
   </g>
   <g id="LineCollection_6">
    <path d="M 463.82815 199.172489
L 476.973224 199.172489
" clip-path="url(#p07f2122984)" style="fill: none; stroke: #004d40; stroke-width: 2.215567"/>
   </g>
   <g id="LineCollection_7">
    <path d="M 445.086891 173.647688
L 489.905852 173.647688
" clip-path="url(#p07f2122984)" style="fill: none; stroke: #004d40; stroke-width: 2.215567"/>
   </g>
   <g id="LineCollection_8">
    <path d="M 434.446306 148.122886
L 484.506875 148.122886
" clip-path="url(#p07f2122984)" style="fill: none; stroke: #004d40; stroke-width: 2.215567"/>
   </g>
   <g id="LineCollection_9">
    <path d="M 431.984588 122.598085
L 491.422099 122.598085
" clip-path="url(#p07f2122984)" style="fill: none; stroke: #004d40; stroke-width: 2.215567"/>
   </g>
   <g id="LineCollection_10">
    <path d="M 100.008617 97.073284
L 157.359217 97.073284
" clip-path="url(#p07f2122984)" style="fill: none; stroke: #004d40; stroke-width: 2.215567"/>
   </g>
   <g id="LineCollection_11">
    <path d="M 74.046818 71.548483
L 143.497093 71.548483
" clip-path="url(#p07f2122984)" style="fill: none; stroke: #004d40; stroke-width: 2.215567"/>
   </g>
   <g id="LineCollection_12">
    <path d="M 84.234048 46.023682
L 140.321389 46.023682
" clip-path="url(#p07f2122984)" style="fill: none; stroke: #004d40; stroke-width: 2.215567"/>
   </g>
   <g id="LineCollection_13">
    <path d="M 100.974612 20.498881
L 128.865256 20.498881
" clip-path="url(#p07f2122984)" style="fill: none; stroke: #004d40; stroke-width: 2.215567"/>
   </g>
   <g id="PathCollection_1">
    <path d="M 170.312371 329.366552
C 170.993958 329.366552 171.647721 329.095755 172.129676 328.6138
C 172.611631 328.131845 172.882429 327.478082 172.882429 326.796494
C 172.882429 326.114907 172.611631 325.461144 172.129676 324.979189
C 171.647721 324.497234 170.993958 324.226436 170.312371 324.226436
C 169.630783 324.226436 168.97702 324.497234 168.495065 324.979189
C 168.01311 325.461144 167.742313 326.114907 167.742313 326.796494
C 167.742313 327.478082 168.01311 328.131845 168.495065 328.6138
C 168.97702 329.095755 169.630783 329.366552 170.312371 329.366552
z
" clip-path="url(#p07f2122984)" style="fill: #d81b60; stroke: #d81b60; stroke-width: 0.886227"/>
    <path d="M 461.02446 303.841751
C 461.706048 303.841751 462.359811 303.570954 462.841766 303.088999
C 463.323721 302.607044 463.594518 301.953281 463.594518 301.271693
C 463.594518 300.590106 463.323721 299.936343 462.841766 299.454388
C 462.359811 298.972433 461.706048 298.701635 461.02446 298.701635
C 460.342873 298.701635 459.68911 298.972433 459.207155 299.454388
C 458.7252 299.936343 458.454402 300.590106 458.454402 301.271693
C 458.454402 301.953281 458.7252 302.607044 459.207155 303.088999
C 459.68911 303.570954 460.342873 303.841751 461.02446 303.841751
z
" clip-path="url(#p07f2122984)" style="fill: #d81b60; stroke: #d81b60; stroke-width: 0.886227"/>
    <path d="M 445.592004 278.31695
C 446.273591 278.31695 446.927355 278.046153 447.40931 277.564198
C 447.891265 277.082242 448.162062 276.428479 448.162062 275.746892
C 448.162062 275.065305 447.891265 274.411542 447.40931 273.929587
C 446.927355 273.447631 446.273591 273.176834 445.592004 273.176834
C 444.910417 273.176834 444.256654 273.447631 443.774699 273.929587
C 443.292744 274.411542 443.021946 275.065305 443.021946 275.746892
C 443.021946 276.428479 443.292744 277.082242 443.774699 277.564198
C 444.256654 278.046153 444.910417 278.31695 445.592004 278.31695
z
" clip-path="url(#p07f2122984)" style="fill: #d81b60; stroke: #d81b60; stroke-width: 0.886227"/>
    <path d="M 448.870938 252.792149
C 449.552525 252.792149 450.206288 252.521351 450.688243 252.039396
C 451.170198 251.557441 451.440996 250.903678 451.440996 250.222091
C 451.440996 249.540504 451.170198 248.88674 450.688243 248.404785
C 450.206288 247.92283 449.552525 247.652033 448.870938 247.652033
C 448.18935 247.652033 447.535587 247.92283 447.053632 248.404785
C 446.571677 248.88674 446.30088 249.540504 446.30088 250.222091
C 446.30088 250.903678 446.571677 251.557441 447.053632 252.039396
C 447.535587 252.521351 448.18935 252.792149 448.870938 252.792149
z
" clip-path="url(#p07f2122984)" style="fill: #d81b60; stroke: #d81b60; stroke-width: 0.886227"/>
    <path d="M 450.682395 227.267348
C 451.363983 227.267348 452.017746 226.99655 452.499701 226.514595
C 452.981656 226.03264 453.252453 225.378877 453.252453 224.69729
C 453.252453 224.015702 452.981656 223.361939 452.499701 222.879984
C 452.017746 222.398029 451.363983 222.127232 450.682395 222.127232
C 450.000808 222.127232 449.347045 222.398029 448.86509 222.879984
C 448.383135 223.361939 448.112337 224.015702 448.112337 224.69729
C 448.112337 225.378877 448.383135 226.03264 448.86509 226.514595
C 449.347045 226.99655 450.000808 227.267348 450.682395 227.267348
z
" clip-path="url(#p07f2122984)" style="fill: #d81b60; stroke: #d81b60; stroke-width: 0.886227"/>
    <path d="M 469.433759 201.742547
C 470.115346 201.742547 470.769109 201.471749 471.251064 200.989794
C 471.733019 200.507839 472.003817 199.854076 472.003817 199.172489
C 472.003817 198.490901 471.733019 197.837138 471.251064 197.355183
C 470.769109 196.873228 470.115346 196.602431 469.433759 196.602431
C 468.752171 196.602431 468.098408 196.873228 467.616453 197.355183
C 467.134498 197.837138 466.863701 198.490901 466.863701 199.172489
C 466.863701 199.854076 467.134498 200.507839 467.616453 200.989794
C 468.098408 201.471749 468.752171 201.742547 469.433759 201.742547
z
" clip-path="url(#p07f2122984)" style="fill: #d81b60; stroke: #d81b60; stroke-width: 0.886227"/>
    <path d="M 466.213677 176.217746
C 466.895264 176.217746 467.549027 175.946948 468.030982 175.464993
C 468.512937 174.983038 468.783735 174.329275 468.783735 173.647688
C 468.783735 172.9661 468.512937 172.312337 468.030982 171.830382
C 467.549027 171.348427 466.895264 171.077629 466.213677 171.077629
C 465.532089 171.077629 464.878326 171.348427 464.396371 171.830382
C 463.914416 172.312337 463.643619 172.9661 463.643619 173.647688
C 463.643619 174.329275 463.914416 174.983038 464.396371 175.464993
C 464.878326 175.946948 465.532089 176.217746 466.213677 176.217746
z
" clip-path="url(#p07f2122984)" style="fill: #d81b60; stroke: #d81b60; stroke-width: 0.886227"/>
    <path d="M 457.897003 150.692944
C 458.578591 150.692944 459.232354 150.422147 459.714309 149.940192
C 460.196264 149.458237 460.467061 148.804474 460.467061 148.122886
C 460.467061 147.441299 460.196264 146.787536 459.714309 146.305581
C 459.232354 145.823626 458.578591 145.552828 457.897003 145.552828
C 457.215416 145.552828 456.561653 145.823626 456.079698 146.305581
C 455.597743 146.787536 455.326945 147.441299 455.326945 148.122886
C 455.326945 148.804474 455.597743 149.458237 456.079698 149.940192
C 456.561653 150.422147 457.215416 150.692944 457.897003 150.692944
z
" clip-path="url(#p07f2122984)" style="fill: #d81b60; stroke: #d81b60; stroke-width: 0.886227"/>
    <path d="M 466.639442 125.168143
C 467.321029 125.168143 467.974792 124.897346 468.456747 124.415391
C 468.938703 123.933436 469.2095 123.279673 469.2095 122.598085
C 469.2095 121.916498 468.938703 121.262735 468.456747 120.78078
C 467.974792 120.298825 467.321029 120.028027 466.639442 120.028027
C 465.957855 120.028027 465.304092 120.298825 464.822136 120.78078
C 464.340181 121.262735 464.069384 121.916498 464.069384 122.598085
C 464.069384 123.279673 464.340181 123.933436 464.822136 124.415391
C 465.304092 124.897346 465.957855 125.168143 466.639442 125.168143
z
" clip-path="url(#p07f2122984)" style="fill: #d81b60; stroke: #d81b60; stroke-width: 0.886227"/>
    <path d="M 134.946561 99.643342
C 135.628149 99.643342 136.281912 99.372545 136.763867 98.89059
C 137.245822 98.408635 137.516619 97.754871 137.516619 97.073284
C 137.516619 96.391697 137.245822 95.737934 136.763867 95.255979
C 136.281912 94.774024 135.628149 94.503226 134.946561 94.503226
C 134.264974 94.503226 133.611211 94.774024 133.129256 95.255979
C 132.647301 95.737934 132.376503 96.391697 132.376503 97.073284
C 132.376503 97.754871 132.647301 98.408635 133.129256 98.89059
C 133.611211 99.372545 134.264974 99.643342 134.946561 99.643342
z
" clip-path="url(#p07f2122984)" style="fill: #d81b60; stroke: #d81b60; stroke-width: 0.886227"/>
    <path d="M 118.424172 74.118541
C 119.105759 74.118541 119.759522 73.847744 120.241477 73.365788
C 120.723432 72.883833 120.99423 72.23007 120.99423 71.548483
C 120.99423 70.866896 120.723432 70.213133 120.241477 69.731177
C 119.759522 69.249222 119.105759 68.978425 118.424172 68.978425
C 117.742584 68.978425 117.088821 69.249222 116.606866 69.731177
C 116.124911 70.213133 115.854114 70.866896 115.854114 71.548483
C 115.854114 72.23007 116.124911 72.883833 116.606866 73.365788
C 117.088821 73.847744 117.742584 74.118541 118.424172 74.118541
z
" clip-path="url(#p07f2122984)" style="fill: #d81b60; stroke: #d81b60; stroke-width: 0.886227"/>
    <path d="M 123.747585 48.59374
C 124.429173 48.59374 125.082936 48.322942 125.564891 47.840987
C 126.046846 47.359032 126.317643 46.705269 126.317643 46.023682
C 126.317643 45.342094 126.046846 44.688331 125.564891 44.206376
C 125.082936 43.724421 124.429173 43.453624 123.747585 43.453624
C 123.065998 43.453624 122.412235 43.724421 121.93028 44.206376
C 121.448325 44.688331 121.177527 45.342094 121.177527 46.023682
C 121.177527 46.705269 121.448325 47.359032 121.93028 47.840987
C 122.412235 48.322942 123.065998 48.59374 123.747585 48.59374
z
" clip-path="url(#p07f2122984)" style="fill: #d81b60; stroke: #d81b60; stroke-width: 0.886227"/>
    <path d="M 118.177469 23.068939
C 118.859057 23.068939 119.51282 22.798141 119.994775 22.316186
C 120.47673 21.834231 120.747527 21.180468 120.747527 20.498881
C 120.747527 19.817293 120.47673 19.16353 119.994775 18.681575
C 119.51282 18.19962 118.859057 17.928823 118.177469 17.928823
C 117.495882 17.928823 116.842119 18.19962 116.360164 18.681575
C 115.878209 19.16353 115.607411 19.817293 115.607411 20.498881
C 115.607411 21.180468 115.878209 21.834231 116.360164 22.316186
C 116.842119 22.798141 117.495882 23.068939 118.177469 23.068939
z
" clip-path="url(#p07f2122984)" style="fill: #d81b60; stroke: #d81b60; stroke-width: 0.886227"/>
   </g>
   <g id="PathCollection_2">
    <path d="M 471.167906 200.461326
C 471.684972 200.461326 472.18093 200.255894 472.546551 199.890272
C 472.912172 199.524651 473.117605 199.028693 473.117605 198.511627
C 473.117605 197.994561 472.912172 197.498602 472.546551 197.132981
C 472.18093 196.76736 471.684972 196.561928 471.167906 196.561928
C 470.65084 196.561928 470.154881 196.76736 469.78926 197.132981
C 469.423639 197.498602 469.218207 197.994561 469.218207 198.511627
C 469.218207 199.028693 469.423639 199.524651 469.78926 199.890272
C 470.154881 200.255894 470.65084 200.461326 471.167906 200.461326
z
" clip-path="url(#p07f2122984)" style="fill: #ff655d; fill-opacity: 0.678431; stroke: #ff655d; stroke-opacity: 0.678431; stroke-width: 0.886227"/>
    <path d="M 469.341542 173.571961
C 469.858608 173.571961 470.354566 173.366529 470.720187 173.000907
C 471.085808 172.635286 471.291241 172.139328 471.291241 171.622262
C 471.291241 171.105196 471.085808 170.609237 470.720187 170.243616
C 470.354566 169.877995 469.858608 169.672563 469.341542 169.672563
C 468.824475 169.672563 468.328517 169.877995 467.962896 170.243616
C 467.597275 170.609237 467.391842 171.105196 467.391842 171.622262
C 467.391842 172.139328 467.597275 172.635286 467.962896 173.000907
C 468.328517 173.366529 468.824475 173.571961 469.341542 173.571961
z
" clip-path="url(#p07f2122984)" style="fill: #ff655d; fill-opacity: 0.678431; stroke: #ff655d; stroke-opacity: 0.678431; stroke-width: 0.886227"/>
    <path d="M 449.199247 150.272661
C 449.716313 150.272661 450.212271 150.067228 450.577892 149.701607
C 450.943513 149.335986 451.148946 148.840028 451.148946 148.322961
C 451.148946 147.805895 450.943513 147.309937 450.577892 146.944316
C 450.212271 146.578695 449.716313 146.373262 449.199247 146.373262
C 448.68218 146.373262 448.186222 146.578695 447.820601 146.944316
C 447.45498 147.309937 447.249547 147.805895 447.249547 148.322961
C 447.249547 148.840028 447.45498 149.335986 447.820601 149.701607
C 448.186222 150.067228 448.68218 150.272661 449.199247 150.272661
z
" clip-path="url(#p07f2122984)" style="fill: #ff655d; fill-opacity: 0.678431; stroke: #ff655d; stroke-opacity: 0.678431; stroke-width: 0.886227"/>
    <path d="M 461.012612 122.637804
C 461.529679 122.637804 462.025637 122.432372 462.391258 122.066751
C 462.756879 121.70113 462.962311 121.205171 462.962311 120.688105
C 462.962311 120.171039 462.756879 119.675081 462.391258 119.30946
C 462.025637 118.943839 461.529679 118.738406 461.012612 118.738406
C 460.495546 118.738406 459.999588 118.943839 459.633967 119.30946
C 459.268346 119.675081 459.062913 120.171039 459.062913 120.688105
C 459.062913 121.205171 459.268346 121.70113 459.633967 122.066751
C 459.999588 122.432372 460.495546 122.637804 461.012612 122.637804
z
" clip-path="url(#p07f2122984)" style="fill: #ff655d; fill-opacity: 0.678431; stroke: #ff655d; stroke-opacity: 0.678431; stroke-width: 0.886227"/>
    <path d="M 450.810188 306.072058
C 451.327254 306.072058 451.823212 305.866625 452.188833 305.501004
C 452.554454 305.135383 452.759887 304.639425 452.759887 304.122358
C 452.759887 303.605292 452.554454 303.109334 452.188833 302.743713
C 451.823212 302.378092 451.327254 302.172659 450.810188 302.172659
C 450.293121 302.172659 449.797163 302.378092 449.431542 302.743713
C 449.065921 303.109334 448.860488 303.605292 448.860488 304.122358
C 448.860488 304.639425 449.065921 305.135383 449.431542 305.501004
C 449.797163 305.866625 450.293121 306.072058 450.810188 306.072058
z
" clip-path="url(#p07f2122984)" style="fill: #ff655d; fill-opacity: 0.678431; stroke: #ff655d; stroke-opacity: 0.678431; stroke-width: 0.886227"/>
    <path d="M 435.974829 279.166416
C 436.491895 279.166416 436.987853 278.960983 437.353474 278.595362
C 437.719095 278.229741 437.924528 277.733783 437.924528 277.216717
C 437.924528 276.69965 437.719095 276.203692 437.353474 275.838071
C 436.987853 275.47245 436.491895 275.267017 435.974829 275.267017
C 435.457763 275.267017 434.961804 275.47245 434.596183 275.838071
C 434.230562 276.203692 434.02513 276.69965 434.02513 277.216717
C 434.02513 277.733783 434.230562 278.229741 434.596183 278.595362
C 434.961804 278.960983 435.457763 279.166416 435.974829 279.166416
z
" clip-path="url(#p07f2122984)" style="fill: #ff655d; fill-opacity: 0.678431; stroke: #ff655d; stroke-opacity: 0.678431; stroke-width: 0.886227"/>
    <path d="M 443.03971 251.72725
C 443.556777 251.72725 444.052735 251.521818 444.418356 251.156197
C 444.783977 250.790576 444.98941 250.294617 444.98941 249.777551
C 444.98941 249.260485 444.783977 248.764527 444.418356 248.398906
C 444.052735 248.033284 443.556777 247.827852 443.03971 247.827852
C 442.522644 247.827852 442.026686 248.033284 441.661065 248.398906
C 441.295444 248.764527 441.090011 249.260485 441.090011 249.777551
C 441.090011 250.294617 441.295444 250.790576 441.661065 251.156197
C 442.026686 251.521818 442.522644 251.72725 443.03971 251.72725
z
" clip-path="url(#p07f2122984)" style="fill: #ff655d; fill-opacity: 0.678431; stroke: #ff655d; stroke-opacity: 0.678431; stroke-width: 0.886227"/>
    <path d="M 437.487247 227.402775
C 438.004313 227.402775 438.500272 227.197343 438.865893 226.831722
C 439.231514 226.4661 439.436946 225.970142 439.436946 225.453076
C 439.436946 224.93601 439.231514 224.440052 438.865893 224.07443
C 438.500272 223.708809 438.004313 223.503377 437.487247 223.503377
C 436.970181 223.503377 436.474223 223.708809 436.108602 224.07443
C 435.74298 224.440052 435.537548 224.93601 435.537548 225.453076
C 435.537548 225.970142 435.74298 226.4661 436.108602 226.831722
C 436.474223 227.197343 436.970181 227.402775 437.487247 227.402775
z
" clip-path="url(#p07f2122984)" style="fill: #ff655d; fill-opacity: 0.678431; stroke: #ff655d; stroke-opacity: 0.678431; stroke-width: 0.886227"/>
    <path d="M 206.705967 326.868686
C 207.223033 326.868686 207.718991 326.663253 208.084613 326.297632
C 208.450234 325.932011 208.655666 325.436053 208.655666 324.918986
C 208.655666 324.40192 208.450234 323.905962 208.084613 323.540341
C 207.718991 323.17472 207.223033 322.969287 206.705967 322.969287
C 206.188901 322.969287 205.692942 323.17472 205.327321 323.540341
C 204.9617 323.905962 204.756268 324.40192 204.756268 324.918986
C 204.756268 325.436053 204.9617 325.932011 205.327321 326.297632
C 205.692942 326.663253 206.188901 326.868686 206.705967 326.868686
z
" clip-path="url(#p07f2122984)" style="fill: #ff655d; fill-opacity: 0.678431; stroke: #ff655d; stroke-opacity: 0.678431; stroke-width: 0.886227"/>
    <path d="M 148.081428 99.448828
C 148.598494 99.448828 149.094452 99.243395 149.460073 98.877774
C 149.825694 98.512153 150.031127 98.016195 150.031127 97.499129
C 150.031127 96.982062 149.825694 96.486104 149.460073 96.120483
C 149.094452 95.754862 148.598494 95.549429 148.081428 95.549429
C 147.564361 95.549429 147.068403 95.754862 146.702782 96.120483
C 146.337161 96.486104 146.131728 96.982062 146.131728 97.499129
C 146.131728 98.016195 146.337161 98.512153 146.702782 98.877774
C 147.068403 99.243395 147.564361 99.448828 148.081428 99.448828
z
" clip-path="url(#p07f2122984)" style="fill: #ff655d; fill-opacity: 0.678431; stroke: #ff655d; stroke-opacity: 0.678431; stroke-width: 0.886227"/>
    <path d="M 132.464854 75.726032
C 132.98192 75.726032 133.477879 75.520599 133.8435 75.154978
C 134.209121 74.789357 134.414553 74.293399 134.414553 73.776332
C 134.414553 73.259266 134.209121 72.763308 133.8435 72.397687
C 133.477879 72.032066 132.98192 71.826633 132.464854 71.826633
C 131.947788 71.826633 131.45183 72.032066 131.086209 72.397687
C 130.720588 72.763308 130.515155 73.259266 130.515155 73.776332
C 130.515155 74.293399 130.720588 74.789357 131.086209 75.154978
C 131.45183 75.520599 131.947788 75.726032 132.464854 75.726032
z
" clip-path="url(#p07f2122984)" style="fill: #ff655d; fill-opacity: 0.678431; stroke: #ff655d; stroke-opacity: 0.678431; stroke-width: 0.886227"/>
    <path d="M 140.321389 46.24513
C 140.838455 46.24513 141.334413 46.039697 141.700034 45.674076
C 142.065655 45.308455 142.271088 44.812497 142.271088 44.295431
C 142.271088 43.778364 142.065655 43.282406 141.700034 42.916785
C 141.334413 42.551164 140.838455 42.345731 140.321389 42.345731
C 139.804322 42.345731 139.308364 42.551164 138.942743 42.916785
C 138.577122 43.282406 138.371689 43.778364 138.371689 44.295431
C 138.371689 44.812497 138.577122 45.308455 138.942743 45.674076
C 139.308364 46.039697 139.804322 46.24513 140.321389 46.24513
z
" clip-path="url(#p07f2122984)" style="fill: #ff655d; fill-opacity: 0.678431; stroke: #ff655d; stroke-opacity: 0.678431; stroke-width: 0.886227"/>
    <path d="M 122.36899 21.999414
C 122.886056 21.999414 123.382014 21.793981 123.747635 21.42836
C 124.113256 21.062739 124.318689 20.566781 124.318689 20.049714
C 124.318689 19.532648 124.113256 19.03669 123.747635 18.671069
C 123.382014 18.305448 122.886056 18.100015 122.36899 18.100015
C 121.851923 18.100015 121.355965 18.305448 120.990344 18.671069
C 120.624723 19.03669 120.41929 19.532648 120.41929 20.049714
C 120.41929 20.566781 120.624723 21.062739 120.990344 21.42836
C 121.355965 21.793981 121.851923 21.999414 122.36899 21.999414
z
" clip-path="url(#p07f2122984)" style="fill: #ff655d; fill-opacity: 0.678431; stroke: #ff655d; stroke-opacity: 0.678431; stroke-width: 0.886227"/>
    <path d="M 476.973224 198.189873
C 477.49029 198.189873 477.986249 197.984441 478.35187 197.61882
C 478.717491 197.253199 478.922923 196.75724 478.922923 196.240174
C 478.922923 195.723108 478.717491 195.22715 478.35187 194.861529
C 477.986249 194.495907 477.49029 194.290475 476.973224 194.290475
C 476.456158 194.290475 475.9602 194.495907 475.594579 194.861529
C 475.228957 195.22715 475.023525 195.723108 475.023525 196.240174
C 475.023525 196.75724 475.228957 197.253199 475.594579 197.61882
C 475.9602 197.984441 476.456158 198.189873 476.973224 198.189873
z
" clip-path="url(#p07f2122984)" style="fill: #ff655d; fill-opacity: 0.678431; stroke: #ff655d; stroke-opacity: 0.678431; stroke-width: 0.886227"/>
    <path d="M 460.520421 174.29603
C 461.037488 174.29603 461.533446 174.090598 461.899067 173.724977
C 462.264688 173.359356 462.470121 172.863397 462.470121 172.346331
C 462.470121 171.829265 462.264688 171.333307 461.899067 170.967685
C 461.533446 170.602064 461.037488 170.396632 460.520421 170.396632
C 460.003355 170.396632 459.507397 170.602064 459.141776 170.967685
C 458.776155 171.333307 458.570722 171.829265 458.570722 172.346331
C 458.570722 172.863397 458.776155 173.359356 459.141776 173.724977
C 459.507397 174.090598 460.003355 174.29603 460.520421 174.29603
z
" clip-path="url(#p07f2122984)" style="fill: #ff655d; fill-opacity: 0.678431; stroke: #ff655d; stroke-opacity: 0.678431; stroke-width: 0.886227"/>
    <path d="M 463.435586 147.094323
C 463.952653 147.094323 464.448611 146.888891 464.814232 146.52327
C 465.179853 146.157649 465.385286 145.661691 465.385286 145.144624
C 465.385286 144.627558 465.179853 144.1316 464.814232 143.765979
C 464.448611 143.400358 463.952653 143.194925 463.435586 143.194925
C 462.91852 143.194925 462.422562 143.400358 462.056941 143.765979
C 461.69132 144.1316 461.485887 144.627558 461.485887 145.144624
C 461.485887 145.661691 461.69132 146.157649 462.056941 146.52327
C 462.422562 146.888891 462.91852 147.094323 463.435586 147.094323
z
" clip-path="url(#p07f2122984)" style="fill: #ff655d; fill-opacity: 0.678431; stroke: #ff655d; stroke-opacity: 0.678431; stroke-width: 0.886227"/>
    <path d="M 491.422099 126.923771
C 491.939166 126.923771 492.435124 126.718338 492.800745 126.352717
C 493.166366 125.987096 493.371799 125.491138 493.371799 124.974072
C 493.371799 124.457005 493.166366 123.961047 492.800745 123.595426
C 492.435124 123.229805 491.939166 123.024372 491.422099 123.024372
C 490.905033 123.024372 490.409075 123.229805 490.043454 123.595426
C 489.677833 123.961047 489.4724 124.457005 489.4724 124.974072
C 489.4724 125.491138 489.677833 125.987096 490.043454 126.352717
C 490.409075 126.718338 490.905033 126.923771 491.422099 126.923771
z
" clip-path="url(#p07f2122984)" style="fill: #ff655d; fill-opacity: 0.678431; stroke: #ff655d; stroke-opacity: 0.678431; stroke-width: 0.886227"/>
    <path d="M 470.783929 303.887376
C 471.300996 303.887376 471.796954 303.681943 472.162575 303.316322
C 472.528196 302.950701 472.733628 302.454743 472.733628 301.937677
C 472.733628 301.42061 472.528196 300.924652 472.162575 300.559031
C 471.796954 300.19341 471.300996 299.987978 470.783929 299.987978
C 470.266863 299.987978 469.770905 300.19341 469.405284 300.559031
C 469.039663 300.924652 468.83423 301.42061 468.83423 301.937677
C 468.83423 302.454743 469.039663 302.950701 469.405284 303.316322
C 469.770905 303.681943 470.266863 303.887376 470.783929 303.887376
z
" clip-path="url(#p07f2122984)" style="fill: #ff655d; fill-opacity: 0.678431; stroke: #ff655d; stroke-opacity: 0.678431; stroke-width: 0.886227"/>
    <path d="M 456.384713 280.426828
C 456.90178 280.426828 457.397738 280.221395 457.763359 279.855774
C 458.12898 279.490153 458.334412 278.994195 458.334412 278.477129
C 458.334412 277.960062 458.12898 277.464104 457.763359 277.098483
C 457.397738 276.732862 456.90178 276.527429 456.384713 276.527429
C 455.867647 276.527429 455.371689 276.732862 455.006068 277.098483
C 454.640447 277.464104 454.435014 277.960062 454.435014 278.477129
C 454.435014 278.994195 454.640447 279.490153 455.006068 279.855774
C 455.371689 280.221395 455.867647 280.426828 456.384713 280.426828
z
" clip-path="url(#p07f2122984)" style="fill: #ff655d; fill-opacity: 0.678431; stroke: #ff655d; stroke-opacity: 0.678431; stroke-width: 0.886227"/>
    <path d="M 462.66916 254.95369
C 463.186227 254.95369 463.682185 254.748258 464.047806 254.382637
C 464.413427 254.017016 464.61886 253.521057 464.61886 253.003991
C 464.61886 252.486925 464.413427 251.990967 464.047806 251.625346
C 463.682185 251.259724 463.186227 251.054292 462.66916 251.054292
C 462.152094 251.054292 461.656136 251.259724 461.290515 251.625346
C 460.924894 251.990967 460.719461 252.486925 460.719461 253.003991
C 460.719461 253.521057 460.924894 254.017016 461.290515 254.382637
C 461.656136 254.748258 462.152094 254.95369 462.66916 254.95369
z
" clip-path="url(#p07f2122984)" style="fill: #ff655d; fill-opacity: 0.678431; stroke: #ff655d; stroke-opacity: 0.678431; stroke-width: 0.886227"/>
    <path d="M 471.293332 228.197052
C 471.810399 228.197052 472.306357 227.991619 472.671978 227.625998
C 473.037599 227.260377 473.243032 226.764419 473.243032 226.247353
C 473.243032 225.730287 473.037599 225.234328 472.671978 224.868707
C 472.306357 224.503086 471.810399 224.297654 471.293332 224.297654
C 470.776266 224.297654 470.280308 224.503086 469.914687 224.868707
C 469.549066 225.234328 469.343633 225.730287 469.343633 226.247353
C 469.343633 226.764419 469.549066 227.260377 469.914687 227.625998
C 470.280308 227.991619 470.776266 228.197052 471.293332 228.197052
z
" clip-path="url(#p07f2122984)" style="fill: #ff655d; fill-opacity: 0.678431; stroke: #ff655d; stroke-opacity: 0.678431; stroke-width: 0.886227"/>
    <path d="M 146.42157 329.671192
C 146.938636 329.671192 147.434594 329.465759 147.800215 329.100138
C 148.165836 328.734517 148.371269 328.238559 148.371269 327.721492
C 148.371269 327.204426 148.165836 326.708468 147.800215 326.342847
C 147.434594 325.977226 146.938636 325.771793 146.42157 325.771793
C 145.904503 325.771793 145.408545 325.977226 145.042924 326.342847
C 144.677303 326.708468 144.47187 327.204426 144.47187 327.721492
C 144.47187 328.238559 144.677303 328.734517 145.042924 329.100138
C 145.408545 329.465759 145.904503 329.671192 146.42157 329.671192
z
" clip-path="url(#p07f2122984)" style="fill: #ff655d; fill-opacity: 0.678431; stroke: #ff655d; stroke-opacity: 0.678431; stroke-width: 0.886227"/>
    <path d="M 157.359217 97.848452
C 157.876283 97.848452 158.372241 97.64302 158.737862 97.277399
C 159.103483 96.911778 159.308916 96.415819 159.308916 95.898753
C 159.308916 95.381687 159.103483 94.885729 158.737862 94.520108
C 158.372241 94.154487 157.876283 93.949054 157.359217 93.949054
C 156.84215 93.949054 156.346192 94.154487 155.980571 94.520108
C 155.61495 94.885729 155.409517 95.381687 155.409517 95.898753
C 155.409517 96.415819 155.61495 96.911778 155.980571 97.277399
C 156.346192 97.64302 156.84215 97.848452 157.359217 97.848452
z
" clip-path="url(#p07f2122984)" style="fill: #ff655d; fill-opacity: 0.678431; stroke: #ff655d; stroke-opacity: 0.678431; stroke-width: 0.886227"/>
    <path d="M 123.687921 76.339704
C 124.204988 76.339704 124.700946 76.134272 125.066567 75.76865
C 125.432188 75.403029 125.63762 74.907071 125.63762 74.390005
C 125.63762 73.872939 125.432188 73.37698 125.066567 73.011359
C 124.700946 72.645738 124.204988 72.440306 123.687921 72.440306
C 123.170855 72.440306 122.674897 72.645738 122.309276 73.011359
C 121.943655 73.37698 121.738222 73.872939 121.738222 74.390005
C 121.738222 74.907071 121.943655 75.403029 122.309276 75.76865
C 122.674897 76.134272 123.170855 76.339704 123.687921 76.339704
z
" clip-path="url(#p07f2122984)" style="fill: #ff655d; fill-opacity: 0.678431; stroke: #ff655d; stroke-opacity: 0.678431; stroke-width: 0.886227"/>
    <path d="M 135.363261 49.377037
C 135.880327 49.377037 136.376285 49.171604 136.741907 48.805983
C 137.107528 48.440362 137.31296 47.944404 137.31296 47.427337
C 137.31296 46.910271 137.107528 46.414313 136.741907 46.048692
C 136.376285 45.683071 135.880327 45.477638 135.363261 45.477638
C 134.846195 45.477638 134.350237 45.683071 133.984615 46.048692
C 133.618994 46.414313 133.413562 46.910271 133.413562 47.427337
C 133.413562 47.944404 133.618994 48.440362 133.984615 48.805983
C 134.350237 49.171604 134.846195 49.377037 135.363261 49.377037
z
" clip-path="url(#p07f2122984)" style="fill: #ff655d; fill-opacity: 0.678431; stroke: #ff655d; stroke-opacity: 0.678431; stroke-width: 0.886227"/>
    <path d="M 128.865256 21.956441
C 129.382322 21.956441 129.878281 21.751008 130.243902 21.385387
C 130.609523 21.019766 130.814955 20.523808 130.814955 20.006742
C 130.814955 19.489675 130.609523 18.993717 130.243902 18.628096
C 129.878281 18.262475 129.382322 18.057042 128.865256 18.057042
C 128.34819 18.057042 127.852232 18.262475 127.486611 18.628096
C 127.12099 18.993717 126.915557 19.489675 126.915557 20.006742
C 126.915557 20.523808 127.12099 21.019766 127.486611 21.385387
C 127.852232 21.751008 128.34819 21.956441 128.865256 21.956441
z
" clip-path="url(#p07f2122984)" style="fill: #ff655d; fill-opacity: 0.678431; stroke: #ff655d; stroke-opacity: 0.678431; stroke-width: 0.886227"/>
    <path d="M 463.82815 202.270584
C 464.345217 202.270584 464.841175 202.065151 465.206796 201.69953
C 465.572417 201.333909 465.777849 200.837951 465.777849 200.320884
C 465.777849 199.803818 465.572417 199.30786 465.206796 198.942239
C 464.841175 198.576618 464.345217 198.371185 463.82815 198.371185
C 463.311084 198.371185 462.815126 198.576618 462.449505 198.942239
C 462.083884 199.30786 461.878451 199.803818 461.878451 200.320884
C 461.878451 200.837951 462.083884 201.333909 462.449505 201.69953
C 462.815126 202.065151 463.311084 202.270584 463.82815 202.270584
z
" clip-path="url(#p07f2122984)" style="fill: #ff655d; fill-opacity: 0.678431; stroke: #ff655d; stroke-opacity: 0.678431; stroke-width: 0.886227"/>
    <path d="M 445.086891 177.58388
C 445.603957 177.58388 446.099916 177.378448 446.465537 177.012827
C 446.831158 176.647206 447.03659 176.151247 447.03659 175.634181
C 447.03659 175.117115 446.831158 174.621157 446.465537 174.255536
C 446.099916 173.889914 445.603957 173.684482 445.086891 173.684482
C 444.569825 173.684482 444.073867 173.889914 443.708246 174.255536
C 443.342624 174.621157 443.137192 175.117115 443.137192 175.634181
C 443.137192 176.151247 443.342624 176.647206 443.708246 177.012827
C 444.073867 177.378448 444.569825 177.58388 445.086891 177.58388
z
" clip-path="url(#p07f2122984)" style="fill: #ff655d; fill-opacity: 0.678431; stroke: #ff655d; stroke-opacity: 0.678431; stroke-width: 0.886227"/>
    <path d="M 434.446306 148.856964
C 434.963372 148.856964 435.45933 148.651531 435.824951 148.28591
C 436.190572 147.920289 436.396005 147.424331 436.396005 146.907265
C 436.396005 146.390198 436.190572 145.89424 435.824951 145.528619
C 435.45933 145.162998 434.963372 144.957566 434.446306 144.957566
C 433.929239 144.957566 433.433281 145.162998 433.06766 145.528619
C 432.702039 145.89424 432.496606 146.390198 432.496606 146.907265
C 432.496606 147.424331 432.702039 147.920289 433.06766 148.28591
C 433.433281 148.651531 433.929239 148.856964 434.446306 148.856964
z
" clip-path="url(#p07f2122984)" style="fill: #ff655d; fill-opacity: 0.678431; stroke: #ff655d; stroke-opacity: 0.678431; stroke-width: 0.886227"/>
    <path d="M 431.984588 123.456
C 432.501654 123.456 432.997613 123.250567 433.363234 122.884946
C 433.728855 122.519325 433.934287 122.023367 433.934287 121.5063
C 433.934287 120.989234 433.728855 120.493276 433.363234 120.127655
C 432.997613 119.762034 432.501654 119.556601 431.984588 119.556601
C 431.467522 119.556601 430.971564 119.762034 430.605943 120.127655
C 430.240322 120.493276 430.034889 120.989234 430.034889 121.5063
C 430.034889 122.023367 430.240322 122.519325 430.605943 122.884946
C 430.971564 123.250567 431.467522 123.456 431.984588 123.456
z
" clip-path="url(#p07f2122984)" style="fill: #ff655d; fill-opacity: 0.678431; stroke: #ff655d; stroke-opacity: 0.678431; stroke-width: 0.886227"/>
    <path d="M 430.200543 303.671309
C 430.717609 303.671309 431.213567 303.465877 431.579188 303.100256
C 431.94481 302.734635 432.150242 302.238676 432.150242 301.72161
C 432.150242 301.204544 431.94481 300.708586 431.579188 300.342965
C 431.213567 299.977344 430.717609 299.771911 430.200543 299.771911
C 429.683477 299.771911 429.187518 299.977344 428.821897 300.342965
C 428.456276 300.708586 428.250844 301.204544 428.250844 301.72161
C 428.250844 302.238676 428.456276 302.734635 428.821897 303.100256
C 429.187518 303.465877 429.683477 303.671309 430.200543 303.671309
z
" clip-path="url(#p07f2122984)" style="fill: #ff655d; fill-opacity: 0.678431; stroke: #ff655d; stroke-opacity: 0.678431; stroke-width: 0.886227"/>
    <path d="M 409.520503 278.349997
C 410.037569 278.349997 410.533528 278.144564 410.899149 277.778943
C 411.26477 277.413322 411.470202 276.917364 411.470202 276.400298
C 411.470202 275.883231 411.26477 275.387273 410.899149 275.021652
C 410.533528 274.656031 410.037569 274.450599 409.520503 274.450599
C 409.003437 274.450599 408.507479 274.656031 408.141858 275.021652
C 407.776237 275.387273 407.570804 275.883231 407.570804 276.400298
C 407.570804 276.917364 407.776237 277.413322 408.141858 277.778943
C 408.507479 278.144564 409.003437 278.349997 409.520503 278.349997
z
" clip-path="url(#p07f2122984)" style="fill: #ff655d; fill-opacity: 0.678431; stroke: #ff655d; stroke-opacity: 0.678431; stroke-width: 0.886227"/>
    <path d="M 411.012793 251.284053
C 411.529859 251.284053 412.025817 251.078621 412.391438 250.713
C 412.757059 250.347379 412.962492 249.85142 412.962492 249.334354
C 412.962492 248.817288 412.757059 248.32133 412.391438 247.955709
C 412.025817 247.590087 411.529859 247.384655 411.012793 247.384655
C 410.495726 247.384655 409.999768 247.590087 409.634147 247.955709
C 409.268526 248.32133 409.063093 248.817288 409.063093 249.334354
C 409.063093 249.85142 409.268526 250.347379 409.634147 250.713
C 409.999768 251.078621 410.495726 251.284053 411.012793 251.284053
z
" clip-path="url(#p07f2122984)" style="fill: #ff655d; fill-opacity: 0.678431; stroke: #ff655d; stroke-opacity: 0.678431; stroke-width: 0.886227"/>
    <path d="M 412.403115 224.014837
C 412.920182 224.014837 413.41614 223.809404 413.781761 223.443783
C 414.147382 223.078162 414.352815 222.582204 414.352815 222.065138
C 414.352815 221.548071 414.147382 221.052113 413.781761 220.686492
C 413.41614 220.320871 412.920182 220.115438 412.403115 220.115438
C 411.886049 220.115438 411.390091 220.320871 411.02447 220.686492
C 410.658849 221.052113 410.453416 221.548071 410.453416 222.065138
C 410.453416 222.582204 410.658849 223.078162 411.02447 223.443783
C 411.390091 223.809404 411.886049 224.014837 412.403115 224.014837
z
" clip-path="url(#p07f2122984)" style="fill: #ff655d; fill-opacity: 0.678431; stroke: #ff655d; stroke-opacity: 0.678431; stroke-width: 0.886227"/>
    <path d="M 173.767963 325.849201
C 174.28503 325.849201 174.780988 325.643768 175.146609 325.278147
C 175.51223 324.912526 175.717663 324.416568 175.717663 323.899501
C 175.717663 323.382435 175.51223 322.886477 175.146609 322.520856
C 174.780988 322.155235 174.28503 321.949802 173.767963 321.949802
C 173.250897 321.949802 172.754939 322.155235 172.389318 322.520856
C 172.023697 322.886477 171.818264 323.382435 171.818264 323.899501
C 171.818264 324.416568 172.023697 324.912526 172.389318 325.278147
C 172.754939 325.643768 173.250897 325.849201 173.767963 325.849201
z
" clip-path="url(#p07f2122984)" style="fill: #ff655d; fill-opacity: 0.678431; stroke: #ff655d; stroke-opacity: 0.678431; stroke-width: 0.886227"/>
    <path d="M 100.008617 96.919274
C 100.525684 96.919274 101.021642 96.713842 101.387263 96.348221
C 101.752884 95.9826 101.958317 95.486641 101.958317 94.969575
C 101.958317 94.452509 101.752884 93.956551 101.387263 93.59093
C 101.021642 93.225308 100.525684 93.019876 100.008617 93.019876
C 99.491551 93.019876 98.995593 93.225308 98.629972 93.59093
C 98.264351 93.956551 98.058918 94.452509 98.058918 94.969575
C 98.058918 95.486641 98.264351 95.9826 98.629972 96.348221
C 98.995593 96.713842 99.491551 96.919274 100.008617 96.919274
z
" clip-path="url(#p07f2122984)" style="fill: #ff655d; fill-opacity: 0.678431; stroke: #ff655d; stroke-opacity: 0.678431; stroke-width: 0.886227"/>
    <path d="M 74.046818 74.325412
C 74.563884 74.325412 75.059843 74.119979 75.425464 73.754358
C 75.791085 73.388737 75.996517 72.892779 75.996517 72.375713
C 75.996517 71.858646 75.791085 71.362688 75.425464 70.997067
C 75.059843 70.631446 74.563884 70.426013 74.046818 70.426013
C 73.529752 70.426013 73.033794 70.631446 72.668173 70.997067
C 72.302552 71.362688 72.097119 71.858646 72.097119 72.375713
C 72.097119 72.892779 72.302552 73.388737 72.668173 73.754358
C 73.033794 74.119979 73.529752 74.325412 74.046818 74.325412
z
" clip-path="url(#p07f2122984)" style="fill: #ff655d; fill-opacity: 0.678431; stroke: #ff655d; stroke-opacity: 0.678431; stroke-width: 0.886227"/>
    <path d="M 84.234048 46.169586
C 84.751114 46.169586 85.247072 45.964153 85.612693 45.598532
C 85.978315 45.232911 86.183747 44.736953 86.183747 44.219886
C 86.183747 43.70282 85.978315 43.206862 85.612693 42.841241
C 85.247072 42.47562 84.751114 42.270187 84.234048 42.270187
C 83.716982 42.270187 83.221023 42.47562 82.855402 42.841241
C 82.489781 43.206862 82.284349 43.70282 82.284349 44.219886
C 82.284349 44.736953 82.489781 45.232911 82.855402 45.598532
C 83.221023 45.964153 83.716982 46.169586 84.234048 46.169586
z
" clip-path="url(#p07f2122984)" style="fill: #ff655d; fill-opacity: 0.678431; stroke: #ff655d; stroke-opacity: 0.678431; stroke-width: 0.886227"/>
    <path d="M 100.974612 20.541313
C 101.491678 20.541313 101.987636 20.33588 102.353257 19.970259
C 102.718879 19.604638 102.924311 19.10868 102.924311 18.591614
C 102.924311 18.074548 102.718879 17.578589 102.353257 17.212968
C 101.987636 16.847347 101.491678 16.641915 100.974612 16.641915
C 100.457546 16.641915 99.961587 16.847347 99.595966 17.212968
C 99.230345 17.578589 99.024913 18.074548 99.024913 18.591614
C 99.024913 19.10868 99.230345 19.604638 99.595966 19.970259
C 99.961587 20.33588 100.457546 20.541313 100.974612 20.541313
z
" clip-path="url(#p07f2122984)" style="fill: #ff655d; fill-opacity: 0.678431; stroke: #ff655d; stroke-opacity: 0.678431; stroke-width: 0.886227"/>
    <path d="M 465.765755 199.809845
C 466.282821 199.809845 466.778779 199.604412 467.1444 199.238791
C 467.510021 198.87317 467.715454 198.377212 467.715454 197.860146
C 467.715454 197.34308 467.510021 196.847121 467.1444 196.4815
C 466.778779 196.115879 466.282821 195.910447 465.765755 195.910447
C 465.248689 195.910447 464.75273 196.115879 464.387109 196.4815
C 464.021488 196.847121 463.816056 197.34308 463.816056 197.860146
C 463.816056 198.377212 464.021488 198.87317 464.387109 199.238791
C 464.75273 199.604412 465.248689 199.809845 465.765755 199.809845
z
" clip-path="url(#p07f2122984)" style="fill: #ff655d; fill-opacity: 0.678431; stroke: #ff655d; stroke-opacity: 0.678431; stroke-width: 0.886227"/>
    <path d="M 489.905852 177.831283
C 490.422919 177.831283 490.918877 177.62585 491.284498 177.260229
C 491.650119 176.894608 491.855552 176.39865 491.855552 175.881583
C 491.855552 175.364517 491.650119 174.868559 491.284498 174.502938
C 490.918877 174.137317 490.422919 173.931884 489.905852 173.931884
C 489.388786 173.931884 488.892828 174.137317 488.527207 174.502938
C 488.161586 174.868559 487.956153 175.364517 487.956153 175.881583
C 487.956153 176.39865 488.161586 176.894608 488.527207 177.260229
C 488.892828 177.62585 489.388786 177.831283 489.905852 177.831283
z
" clip-path="url(#p07f2122984)" style="fill: #ff655d; fill-opacity: 0.678431; stroke: #ff655d; stroke-opacity: 0.678431; stroke-width: 0.886227"/>
    <path d="M 484.506875 149.316949
C 485.023941 149.316949 485.5199 149.111516 485.885521 148.745895
C 486.251142 148.380274 486.456574 147.884316 486.456574 147.36725
C 486.456574 146.850183 486.251142 146.354225 485.885521 145.988604
C 485.5199 145.622983 485.023941 145.41755 484.506875 145.41755
C 483.989809 145.41755 483.493851 145.622983 483.12823 145.988604
C 482.762608 146.354225 482.557176 146.850183 482.557176 147.36725
C 482.557176 147.884316 482.762608 148.380274 483.12823 148.745895
C 483.493851 149.111516 483.989809 149.316949 484.506875 149.316949
z
" clip-path="url(#p07f2122984)" style="fill: #ff655d; fill-opacity: 0.678431; stroke: #ff655d; stroke-opacity: 0.678431; stroke-width: 0.886227"/>
    <path d="M 482.138468 126.146707
C 482.655534 126.146707 483.151493 125.941274 483.517114 125.575653
C 483.882735 125.210032 484.088167 124.714074 484.088167 124.197008
C 484.088167 123.679941 483.882735 123.183983 483.517114 122.818362
C 483.151493 122.452741 482.655534 122.247308 482.138468 122.247308
C 481.621402 122.247308 481.125444 122.452741 480.759823 122.818362
C 480.394201 123.183983 480.188769 123.679941 480.188769 124.197008
C 480.188769 124.714074 480.394201 125.210032 480.759823 125.575653
C 481.125444 125.941274 481.621402 126.146707 482.138468 126.146707
z
" clip-path="url(#p07f2122984)" style="fill: #ff655d; fill-opacity: 0.678431; stroke: #ff655d; stroke-opacity: 0.678431; stroke-width: 0.886227"/>
    <path d="M 492.303182 305.607969
C 492.820248 305.607969 493.316206 305.402537 493.681827 305.036916
C 494.047448 304.671294 494.252881 304.175336 494.252881 303.65827
C 494.252881 303.141204 494.047448 302.645246 493.681827 302.279624
C 493.316206 301.914003 492.820248 301.708571 492.303182 301.708571
C 491.786116 301.708571 491.290157 301.914003 490.924536 302.279624
C 490.558915 302.645246 490.353483 303.141204 490.353483 303.65827
C 490.353483 304.175336 490.558915 304.671294 490.924536 305.036916
C 491.290157 305.402537 491.786116 305.607969 492.303182 305.607969
z
" clip-path="url(#p07f2122984)" style="fill: #ff655d; fill-opacity: 0.678431; stroke: #ff655d; stroke-opacity: 0.678431; stroke-width: 0.886227"/>
    <path d="M 480.487971 275.199956
C 481.005037 275.199956 481.500996 274.994523 481.866617 274.628902
C 482.232238 274.263281 482.43767 273.767323 482.43767 273.250257
C 482.43767 272.73319 482.232238 272.237232 481.866617 271.871611
C 481.500996 271.50599 481.005037 271.300557 480.487971 271.300557
C 479.970905 271.300557 479.474947 271.50599 479.109326 271.871611
C 478.743704 272.237232 478.538272 272.73319 478.538272 273.250257
C 478.538272 273.767323 478.743704 274.263281 479.109326 274.628902
C 479.474947 274.994523 479.970905 275.199956 480.487971 275.199956
z
" clip-path="url(#p07f2122984)" style="fill: #ff655d; fill-opacity: 0.678431; stroke: #ff655d; stroke-opacity: 0.678431; stroke-width: 0.886227"/>
    <path d="M 478.762087 252.570405
C 479.279154 252.570405 479.775112 252.364973 480.140733 251.999351
C 480.506354 251.63373 480.711787 251.137772 480.711787 250.620706
C 480.711787 250.10364 480.506354 249.607681 480.140733 249.24206
C 479.775112 248.876439 479.279154 248.671007 478.762087 248.671007
C 478.245021 248.671007 477.749063 248.876439 477.383442 249.24206
C 477.017821 249.607681 476.812388 250.10364 476.812388 250.620706
C 476.812388 251.137772 477.017821 251.63373 477.383442 251.999351
C 477.749063 252.364973 478.245021 252.570405 478.762087 252.570405
z
" clip-path="url(#p07f2122984)" style="fill: #ff655d; fill-opacity: 0.678431; stroke: #ff655d; stroke-opacity: 0.678431; stroke-width: 0.886227"/>
    <path d="M 481.545887 228.360637
C 482.062953 228.360637 482.558911 228.155204 482.924532 227.789583
C 483.290153 227.423962 483.495586 226.928004 483.495586 226.410938
C 483.495586 225.893871 483.290153 225.397913 482.924532 225.032292
C 482.558911 224.666671 482.062953 224.461238 481.545887 224.461238
C 481.028821 224.461238 480.532862 224.666671 480.167241 225.032292
C 479.80162 225.397913 479.596188 225.893871 479.596188 226.410938
C 479.596188 226.928004 479.80162 227.423962 480.167241 227.789583
C 480.532862 228.155204 481.028821 228.360637 481.545887 228.360637
z
" clip-path="url(#p07f2122984)" style="fill: #ff655d; fill-opacity: 0.678431; stroke: #ff655d; stroke-opacity: 0.678431; stroke-width: 0.886227"/>
    <path d="M 154.353983 328.294525
C 154.871049 328.294525 155.367007 328.089092 155.732628 327.723471
C 156.098249 327.35785 156.303682 326.861892 156.303682 326.344825
C 156.303682 325.827759 156.098249 325.331801 155.732628 324.96618
C 155.367007 324.600559 154.871049 324.395126 154.353983 324.395126
C 153.836916 324.395126 153.340958 324.600559 152.975337 324.96618
C 152.609716 325.331801 152.404283 325.827759 152.404283 326.344825
C 152.404283 326.861892 152.609716 327.35785 152.975337 327.723471
C 153.340958 328.089092 153.836916 328.294525 154.353983 328.294525
z
" clip-path="url(#p07f2122984)" style="fill: #ff655d; fill-opacity: 0.678431; stroke: #ff655d; stroke-opacity: 0.678431; stroke-width: 0.886227"/>
    <path d="M 134.336984 100.620633
C 134.85405 100.620633 135.350008 100.415201 135.715629 100.04958
C 136.08125 99.683958 136.286683 99.188 136.286683 98.670934
C 136.286683 98.153868 136.08125 97.657909 135.715629 97.292288
C 135.350008 96.926667 134.85405 96.721235 134.336984 96.721235
C 133.819917 96.721235 133.323959 96.926667 132.958338 97.292288
C 132.592717 97.657909 132.387285 98.153868 132.387285 98.670934
C 132.387285 99.188 132.592717 99.683958 132.958338 100.04958
C 133.323959 100.415201 133.819917 100.620633 134.336984 100.620633
z
" clip-path="url(#p07f2122984)" style="fill: #ff655d; fill-opacity: 0.678431; stroke: #ff655d; stroke-opacity: 0.678431; stroke-width: 0.886227"/>
    <path d="M 143.497093 73.209101
C 144.014159 73.209101 144.510117 73.003668 144.875738 72.638047
C 145.241359 72.272426 145.446792 71.776468 145.446792 71.259402
C 145.446792 70.742335 145.241359 70.246377 144.875738 69.880756
C 144.510117 69.515135 144.014159 69.309702 143.497093 69.309702
C 142.980027 69.309702 142.484068 69.515135 142.118447 69.880756
C 141.752826 70.246377 141.547394 70.742335 141.547394 71.259402
C 141.547394 71.776468 141.752826 72.272426 142.118447 72.638047
C 142.484068 73.003668 142.980027 73.209101 143.497093 73.209101
z
" clip-path="url(#p07f2122984)" style="fill: #ff655d; fill-opacity: 0.678431; stroke: #ff655d; stroke-opacity: 0.678431; stroke-width: 0.886227"/>
    <path d="M 135.071644 48.923441
C 135.58871 48.923441 136.084668 48.718008 136.450289 48.352387
C 136.81591 47.986766 137.021343 47.490808 137.021343 46.973741
C 137.021343 46.456675 136.81591 45.960717 136.450289 45.595096
C 136.084668 45.229475 135.58871 45.024042 135.071644 45.024042
C 134.554577 45.024042 134.058619 45.229475 133.692998 45.595096
C 133.327377 45.960717 133.121944 46.456675 133.121944 46.973741
C 133.121944 47.490808 133.327377 47.986766 133.692998 48.352387
C 134.058619 48.718008 134.554577 48.923441 135.071644 48.923441
z
" clip-path="url(#p07f2122984)" style="fill: #ff655d; fill-opacity: 0.678431; stroke: #ff655d; stroke-opacity: 0.678431; stroke-width: 0.886227"/>
    <path d="M 120.501019 22.619697
C 121.018086 22.619697 121.514044 22.414264 121.879665 22.048643
C 122.245286 21.683022 122.450719 21.187064 122.450719 20.669998
C 122.450719 20.152931 122.245286 19.656973 121.879665 19.291352
C 121.514044 18.925731 121.018086 18.720298 120.501019 18.720298
C 119.983953 18.720298 119.487995 18.925731 119.122374 19.291352
C 118.756753 19.656973 118.55132 20.152931 118.55132 20.669998
C 118.55132 21.187064 118.756753 21.683022 119.122374 22.048643
C 119.487995 22.414264 119.983953 22.619697 120.501019 22.619697
z
" clip-path="url(#p07f2122984)" style="fill: #ff655d; fill-opacity: 0.678431; stroke: #ff655d; stroke-opacity: 0.678431; stroke-width: 0.886227"/>
   </g>
   <g id="LineCollection_14">
    <path d="M 88.372757 342.111375
L 88.372757 5.184
" clip-path="url(#p07f2122984)" style="fill: none; stroke-dasharray: 2.295328,0.992574; stroke-dashoffset: 0; stroke: #444444; stroke-width: 0.620359"/>
   </g>
  </g>
  <g id="patch_4">
   <path d="M 53.134 342.111375
L 513.216 342.111375
L 513.216 5.184
L 53.134 5.184
L 53.134 342.111375
z
" style="fill: none; stroke: #7f7f7f; stroke-linejoin: miter"/>
  </g>
  <g id="text_18">
   <!-- C++ RADSex / rsx elapsed time (log10) -->
   <g transform="translate(184.05625 367.136313) scale(0.1 -0.1)">
    <defs>
     <path id="DejaVuSans-43" d="M 4122 4306
L 4122 3641
Q 3803 3938 3442 4084
Q 3081 4231 2675 4231
Q 1875 4231 1450 3742
Q 1025 3253 1025 2328
Q 1025 1406 1450 917
Q 1875 428 2675 428
Q 3081 428 3442 575
Q 3803 722 4122 1019
L 4122 359
Q 3791 134 3420 21
Q 3050 -91 2638 -91
Q 1578 -91 968 557
Q 359 1206 359 2328
Q 359 3453 968 4101
Q 1578 4750 2638 4750
Q 3056 4750 3426 4639
Q 3797 4528 4122 4306
z
" transform="scale(0.015625)"/>
     <path id="DejaVuSans-2b" d="M 2944 4013
L 2944 2272
L 4684 2272
L 4684 1741
L 2944 1741
L 2944 0
L 2419 0
L 2419 1741
L 678 1741
L 678 2272
L 2419 2272
L 2419 4013
L 2944 4013
z
" transform="scale(0.015625)"/>
     <path id="DejaVuSans-52" d="M 2841 2188
Q 3044 2119 3236 1894
Q 3428 1669 3622 1275
L 4263 0
L 3584 0
L 2988 1197
Q 2756 1666 2539 1819
Q 2322 1972 1947 1972
L 1259 1972
L 1259 0
L 628 0
L 628 4666
L 2053 4666
Q 2853 4666 3247 4331
Q 3641 3997 3641 3322
Q 3641 2881 3436 2590
Q 3231 2300 2841 2188
z
M 1259 4147
L 1259 2491
L 2053 2491
Q 2509 2491 2742 2702
Q 2975 2913 2975 3322
Q 2975 3731 2742 3939
Q 2509 4147 2053 4147
L 1259 4147
z
" transform="scale(0.015625)"/>
     <path id="DejaVuSans-41" d="M 2188 4044
L 1331 1722
L 3047 1722
L 2188 4044
z
M 1831 4666
L 2547 4666
L 4325 0
L 3669 0
L 3244 1197
L 1141 1197
L 716 0
L 50 0
L 1831 4666
z
" transform="scale(0.015625)"/>
     <path id="DejaVuSans-44" d="M 1259 4147
L 1259 519
L 2022 519
Q 2988 519 3436 956
Q 3884 1394 3884 2338
Q 3884 3275 3436 3711
Q 2988 4147 2022 4147
L 1259 4147
z
M 628 4666
L 1925 4666
Q 3281 4666 3915 4102
Q 4550 3538 4550 2338
Q 4550 1131 3912 565
Q 3275 0 1925 0
L 628 0
L 628 4666
z
" transform="scale(0.015625)"/>
     <path id="DejaVuSans-53" d="M 3425 4513
L 3425 3897
Q 3066 4069 2747 4153
Q 2428 4238 2131 4238
Q 1616 4238 1336 4038
Q 1056 3838 1056 3469
Q 1056 3159 1242 3001
Q 1428 2844 1947 2747
L 2328 2669
Q 3034 2534 3370 2195
Q 3706 1856 3706 1288
Q 3706 609 3251 259
Q 2797 -91 1919 -91
Q 1588 -91 1214 -16
Q 841 59 441 206
L 441 856
Q 825 641 1194 531
Q 1563 422 1919 422
Q 2459 422 2753 634
Q 3047 847 3047 1241
Q 3047 1584 2836 1778
Q 2625 1972 2144 2069
L 1759 2144
Q 1053 2284 737 2584
Q 422 2884 422 3419
Q 422 4038 858 4394
Q 1294 4750 2059 4750
Q 2388 4750 2728 4690
Q 3069 4631 3425 4513
z
" transform="scale(0.015625)"/>
     <path id="DejaVuSans-78" d="M 3513 3500
L 2247 1797
L 3578 0
L 2900 0
L 1881 1375
L 863 0
L 184 0
L 1544 1831
L 300 3500
L 978 3500
L 1906 2253
L 2834 3500
L 3513 3500
z
" transform="scale(0.015625)"/>
     <path id="DejaVuSans-2f" d="M 1625 4666
L 2156 4666
L 531 -594
L 0 -594
L 1625 4666
z
" transform="scale(0.015625)"/>
     <path id="DejaVuSans-6c" d="M 603 4863
L 1178 4863
L 1178 0
L 603 0
L 603 4863
z
" transform="scale(0.015625)"/>
     <path id="DejaVuSans-61" d="M 2194 1759
Q 1497 1759 1228 1600
Q 959 1441 959 1056
Q 959 750 1161 570
Q 1363 391 1709 391
Q 2188 391 2477 730
Q 2766 1069 2766 1631
L 2766 1759
L 2194 1759
z
M 3341 1997
L 3341 0
L 2766 0
L 2766 531
Q 2569 213 2275 61
Q 1981 -91 1556 -91
Q 1019 -91 701 211
Q 384 513 384 1019
Q 384 1609 779 1909
Q 1175 2209 1959 2209
L 2766 2209
L 2766 2266
Q 2766 2663 2505 2880
Q 2244 3097 1772 3097
Q 1472 3097 1187 3025
Q 903 2953 641 2809
L 641 3341
Q 956 3463 1253 3523
Q 1550 3584 1831 3584
Q 2591 3584 2966 3190
Q 3341 2797 3341 1997
z
" transform="scale(0.015625)"/>
     <path id="DejaVuSans-6d" d="M 3328 2828
Q 3544 3216 3844 3400
Q 4144 3584 4550 3584
Q 5097 3584 5394 3201
Q 5691 2819 5691 2113
L 5691 0
L 5113 0
L 5113 2094
Q 5113 2597 4934 2840
Q 4756 3084 4391 3084
Q 3944 3084 3684 2787
Q 3425 2491 3425 1978
L 3425 0
L 2847 0
L 2847 2094
Q 2847 2600 2669 2842
Q 2491 3084 2119 3084
Q 1678 3084 1418 2786
Q 1159 2488 1159 1978
L 1159 0
L 581 0
L 581 3500
L 1159 3500
L 1159 2956
Q 1356 3278 1631 3431
Q 1906 3584 2284 3584
Q 2666 3584 2933 3390
Q 3200 3197 3328 2828
z
" transform="scale(0.015625)"/>
     <path id="DejaVuSans-28" d="M 1984 4856
Q 1566 4138 1362 3434
Q 1159 2731 1159 2009
Q 1159 1288 1364 580
Q 1569 -128 1984 -844
L 1484 -844
Q 1016 -109 783 600
Q 550 1309 550 2009
Q 550 2706 781 3412
Q 1013 4119 1484 4856
L 1984 4856
z
" transform="scale(0.015625)"/>
     <path id="DejaVuSans-29" d="M 513 4856
L 1013 4856
Q 1481 4119 1714 3412
Q 1947 2706 1947 2009
Q 1947 1309 1714 600
Q 1481 -109 1013 -844
L 513 -844
Q 928 -128 1133 580
Q 1338 1288 1338 2009
Q 1338 2731 1133 3434
Q 928 4138 513 4856
z
" transform="scale(0.015625)"/>
    </defs>
    <use xlink:href="#DejaVuSans-43"/>
    <use xlink:href="#DejaVuSans-2b" transform="translate(69.824219 0)"/>
    <use xlink:href="#DejaVuSans-2b" transform="translate(153.613281 0)"/>
    <use xlink:href="#DejaVuSans-20" transform="translate(237.402344 0)"/>
    <use xlink:href="#DejaVuSans-52" transform="translate(269.189453 0)"/>
    <use xlink:href="#DejaVuSans-41" transform="translate(334.671875 0)"/>
    <use xlink:href="#DejaVuSans-44" transform="translate(403.080078 0)"/>
    <use xlink:href="#DejaVuSans-53" transform="translate(480.082031 0)"/>
    <use xlink:href="#DejaVuSans-65" transform="translate(543.558594 0)"/>
    <use xlink:href="#DejaVuSans-78" transform="translate(603.332031 0)"/>
    <use xlink:href="#DejaVuSans-20" transform="translate(662.511719 0)"/>
    <use xlink:href="#DejaVuSans-2f" transform="translate(694.298828 0)"/>
    <use xlink:href="#DejaVuSans-20" transform="translate(727.990234 0)"/>
    <use xlink:href="#DejaVuSans-72" transform="translate(759.777344 0)"/>
    <use xlink:href="#DejaVuSans-73" transform="translate(800.890625 0)"/>
    <use xlink:href="#DejaVuSans-78" transform="translate(852.990234 0)"/>
    <use xlink:href="#DejaVuSans-20" transform="translate(912.169922 0)"/>
    <use xlink:href="#DejaVuSans-65" transform="translate(943.957031 0)"/>
    <use xlink:href="#DejaVuSans-6c" transform="translate(1005.480469 0)"/>
    <use xlink:href="#DejaVuSans-61" transform="translate(1033.263672 0)"/>
    <use xlink:href="#DejaVuSans-70" transform="translate(1094.542969 0)"/>
    <use xlink:href="#DejaVuSans-73" transform="translate(1158.019531 0)"/>
    <use xlink:href="#DejaVuSans-65" transform="translate(1210.119141 0)"/>
    <use xlink:href="#DejaVuSans-64" transform="translate(1271.642578 0)"/>
    <use xlink:href="#DejaVuSans-20" transform="translate(1335.119141 0)"/>
    <use xlink:href="#DejaVuSans-74" transform="translate(1366.90625 0)"/>
    <use xlink:href="#DejaVuSans-69" transform="translate(1406.115234 0)"/>
    <use xlink:href="#DejaVuSans-6d" transform="translate(1433.898438 0)"/>
    <use xlink:href="#DejaVuSans-65" transform="translate(1531.310547 0)"/>
    <use xlink:href="#DejaVuSans-20" transform="translate(1592.833984 0)"/>
    <use xlink:href="#DejaVuSans-28" transform="translate(1624.621094 0)"/>
    <use xlink:href="#DejaVuSans-6c" transform="translate(1663.634766 0)"/>
    <use xlink:href="#DejaVuSans-6f" transform="translate(1691.417969 0)"/>
    <use xlink:href="#DejaVuSans-67" transform="translate(1752.599609 0)"/>
    <use xlink:href="#DejaVuSans-31" transform="translate(1816.076172 0)"/>
    <use xlink:href="#DejaVuSans-30" transform="translate(1879.699219 0)"/>
    <use xlink:href="#DejaVuSans-29" transform="translate(1943.322266 0)"/>
   </g>
  </g>
 </g>
 <defs>
  <clipPath id="p07f2122984">
   <rect x="53.134" y="5.184" width="460.082" height="336.927375"/>
  </clipPath>
 </defs>
</svg>
