<svg xmlns="http://www.w3.org/2000/svg" width="256" height="256" viewBox="0 0 256 256" fill="none" aria-labelledby="rsx-icon-title" role="img">
  <title id="rsx-icon-title">rsx icon (dark)</title>
  <desc>Dark mode icon for rsx.</desc>

  <g transform="translate(32 32) scale(1.05)">
    <rect x="18" y="28" width="52" height="11" rx="2.5" fill="#14B8A6"/>
    <rect x="28" y="46" width="68" height="11" rx="2.5" fill="#14B8A6"/>
    <rect x="14" y="64" width="42" height="11" rx="2.5" fill="#F97316"/>
    <rect x="24" y="82" width="58" height="11" rx="2.5" fill="#14B8A6"/>
    <rect x="34" y="100" width="38" height="11" rx="2.5" fill="#14B8A6"/>

    <line x1="100" y1="18" x2="100" y2="118" stroke="#F1F5F9" stroke-width="7" stroke-linecap="round"/>
    <path d="M95 44 L105 44" stroke="#F1F5F9" stroke-width="3" stroke-linecap="round"/>
    <path d="M95 92 L105 92" stroke="#F1F5F9" stroke-width="3" stroke-linecap="round"/>

    <rect x="118" y="36" width="48" height="11" rx="2.5" fill="#14B8A6"/>
    <rect x="112" y="54" width="34" height="11" rx="2.5" fill="#14B8A6"/>
    <rect x="124" y="72" width="56" height="11" rx="2.5" fill="#F97316"/>
    <rect x="116" y="90" width="28" height="11" rx="2.5" fill="#14B8A6"/>
  </g>
</svg>
